G04 #@! TF.GenerationSoftware,KiCad,Pcbnew,(6.0.0-0)*
G04 #@! TF.CreationDate,2022-03-09T14:35:56+01:00*
G04 #@! TF.ProjectId,prototype-2,70726f74-6f74-4797-9065-2d322e6b6963,rev?*
G04 #@! TF.SameCoordinates,Original*
G04 #@! TF.FileFunction,Copper,L1,Top*
G04 #@! TF.FilePolarity,Positive*
%FSLAX46Y46*%
G04 Gerber Fmt 4.6, Leading zero omitted, Abs format (unit mm)*
G04 Created by KiCad (PCBNEW (6.0.0-0)) date 2022-03-09 14:35:56*
%MOMM*%
%LPD*%
G01*
G04 APERTURE LIST*
G04 Aperture macros list*
%AMRoundRect*
0 Rectangle with rounded corners*
0 $1 Rounding radius*
0 $2 $3 $4 $5 $6 $7 $8 $9 X,Y pos of 4 corners*
0 Add a 4 corners polygon primitive as box body*
4,1,4,$2,$3,$4,$5,$6,$7,$8,$9,$2,$3,0*
0 Add four circle primitives for the rounded corners*
1,1,$1+$1,$2,$3*
1,1,$1+$1,$4,$5*
1,1,$1+$1,$6,$7*
1,1,$1+$1,$8,$9*
0 Add four rect primitives between the rounded corners*
20,1,$1+$1,$2,$3,$4,$5,0*
20,1,$1+$1,$4,$5,$6,$7,0*
20,1,$1+$1,$6,$7,$8,$9,0*
20,1,$1+$1,$8,$9,$2,$3,0*%
G04 Aperture macros list end*
G04 #@! TA.AperFunction,SMDPad,CuDef*
%ADD10RoundRect,0.250000X-0.262500X-0.450000X0.262500X-0.450000X0.262500X0.450000X-0.262500X0.450000X0*%
G04 #@! TD*
G04 #@! TA.AperFunction,SMDPad,CuDef*
%ADD11RoundRect,0.250000X0.262500X0.450000X-0.262500X0.450000X-0.262500X-0.450000X0.262500X-0.450000X0*%
G04 #@! TD*
G04 #@! TA.AperFunction,SMDPad,CuDef*
%ADD12R,4.600000X1.100000*%
G04 #@! TD*
G04 #@! TA.AperFunction,SMDPad,CuDef*
%ADD13R,9.400000X10.800000*%
G04 #@! TD*
G04 #@! TA.AperFunction,SMDPad,CuDef*
%ADD14R,1.800000X2.500000*%
G04 #@! TD*
G04 #@! TA.AperFunction,SMDPad,CuDef*
%ADD15R,2.000000X1.780000*%
G04 #@! TD*
G04 #@! TA.AperFunction,SMDPad,CuDef*
%ADD16RoundRect,0.200000X-0.275000X0.200000X-0.275000X-0.200000X0.275000X-0.200000X0.275000X0.200000X0*%
G04 #@! TD*
G04 #@! TA.AperFunction,SMDPad,CuDef*
%ADD17R,1.200000X0.900000*%
G04 #@! TD*
G04 #@! TA.AperFunction,ComponentPad*
%ADD18R,3.000000X3.000000*%
G04 #@! TD*
G04 #@! TA.AperFunction,ComponentPad*
%ADD19C,3.000000*%
G04 #@! TD*
G04 #@! TA.AperFunction,SMDPad,CuDef*
%ADD20RoundRect,0.200000X-0.200000X-0.275000X0.200000X-0.275000X0.200000X0.275000X-0.200000X0.275000X0*%
G04 #@! TD*
G04 #@! TA.AperFunction,SMDPad,CuDef*
%ADD21RoundRect,0.200000X0.200000X0.275000X-0.200000X0.275000X-0.200000X-0.275000X0.200000X-0.275000X0*%
G04 #@! TD*
G04 #@! TA.AperFunction,SMDPad,CuDef*
%ADD22RoundRect,0.250000X-0.450000X0.262500X-0.450000X-0.262500X0.450000X-0.262500X0.450000X0.262500X0*%
G04 #@! TD*
G04 #@! TA.AperFunction,ComponentPad*
%ADD23R,1.700000X1.700000*%
G04 #@! TD*
G04 #@! TA.AperFunction,ComponentPad*
%ADD24O,1.700000X1.700000*%
G04 #@! TD*
G04 #@! TA.AperFunction,ComponentPad*
%ADD25R,2.300000X2.000000*%
G04 #@! TD*
G04 #@! TA.AperFunction,ComponentPad*
%ADD26C,2.300000*%
G04 #@! TD*
G04 #@! TA.AperFunction,SMDPad,CuDef*
%ADD27R,2.000000X1.500000*%
G04 #@! TD*
G04 #@! TA.AperFunction,SMDPad,CuDef*
%ADD28RoundRect,0.250000X0.650000X-0.325000X0.650000X0.325000X-0.650000X0.325000X-0.650000X-0.325000X0*%
G04 #@! TD*
G04 #@! TA.AperFunction,ViaPad*
%ADD29C,0.800000*%
G04 #@! TD*
G04 #@! TA.AperFunction,Conductor*
%ADD30C,1.000000*%
G04 #@! TD*
G04 #@! TA.AperFunction,Conductor*
%ADD31C,0.250000*%
G04 #@! TD*
G04 APERTURE END LIST*
D10*
X158992500Y-93980000D03*
X160817500Y-93980000D03*
D11*
X158992500Y-91440000D03*
X160817500Y-91440000D03*
D12*
X167265000Y-94615000D03*
X167265000Y-97155000D03*
D13*
X176415000Y-97155000D03*
D12*
X167265000Y-99695000D03*
D14*
X159905000Y-97060000D03*
X159905000Y-101060000D03*
D15*
X154510000Y-85725000D03*
X154510000Y-83185000D03*
X154510000Y-80645000D03*
X144980000Y-80645000D03*
X144980000Y-83185000D03*
X144980000Y-85725000D03*
D11*
X157087500Y-80010000D03*
X158912500Y-80010000D03*
D16*
X124460000Y-69595000D03*
X124460000Y-71245000D03*
D17*
X160540000Y-89280000D03*
X160540000Y-85980000D03*
D18*
X187125000Y-99060000D03*
D19*
X187125000Y-93980000D03*
X187125000Y-88900000D03*
X187125000Y-83820000D03*
D20*
X115380000Y-110490000D03*
X117030000Y-110490000D03*
D11*
X180340000Y-114300000D03*
X178515000Y-114300000D03*
D21*
X117030000Y-100330000D03*
X115380000Y-100330000D03*
D20*
X115380000Y-107950000D03*
X117030000Y-107950000D03*
X115380000Y-102870000D03*
X117030000Y-102870000D03*
D22*
X124460000Y-60047500D03*
X124460000Y-61872500D03*
D23*
X111125000Y-95250000D03*
D24*
X111125000Y-97790000D03*
X111125000Y-100330000D03*
X111125000Y-102870000D03*
X111125000Y-105410000D03*
X111125000Y-107950000D03*
X111125000Y-110490000D03*
D15*
X113030000Y-66040000D03*
X113030000Y-68580000D03*
X113030000Y-71120000D03*
X120650000Y-71120000D03*
X120650000Y-68580000D03*
X120650000Y-66040000D03*
D11*
X158912500Y-83185000D03*
X157087500Y-83185000D03*
D15*
X121605000Y-60960000D03*
X121605000Y-58420000D03*
X121605000Y-55880000D03*
X112075000Y-55880000D03*
X112075000Y-58420000D03*
X112075000Y-60960000D03*
X145935000Y-92075000D03*
X145935000Y-94615000D03*
X145935000Y-97155000D03*
X153555000Y-97155000D03*
X153555000Y-94615000D03*
X153555000Y-92075000D03*
D12*
X167265000Y-82550000D03*
D13*
X176415000Y-85090000D03*
D12*
X167265000Y-85090000D03*
X167265000Y-87630000D03*
D18*
X187125000Y-114300000D03*
D19*
X187125000Y-109220000D03*
D21*
X162445000Y-83185000D03*
X160795000Y-83185000D03*
D25*
X159342500Y-66000000D03*
D26*
X159342500Y-61000000D03*
X129942500Y-71200000D03*
X129942500Y-55800000D03*
D27*
X169885000Y-68570000D03*
X169885000Y-73670000D03*
X178625000Y-73670000D03*
X178625000Y-68570000D03*
D28*
X157365000Y-86155000D03*
X157365000Y-89105000D03*
D11*
X180340000Y-109220000D03*
X178515000Y-109220000D03*
D15*
X174945000Y-114300000D03*
X174945000Y-111760000D03*
X174945000Y-109220000D03*
X165415000Y-109220000D03*
X165415000Y-111760000D03*
X165415000Y-114300000D03*
D18*
X187125000Y-73660000D03*
D19*
X187125000Y-68580000D03*
X187125000Y-63500000D03*
X187125000Y-58420000D03*
D12*
X166110000Y-55880000D03*
X166110000Y-58420000D03*
D13*
X175260000Y-58420000D03*
D12*
X166110000Y-60960000D03*
D21*
X115380000Y-105410000D03*
X117030000Y-105410000D03*
D22*
X124460000Y-54967500D03*
X124460000Y-56792500D03*
D29*
X113665000Y-80010000D03*
X116840000Y-92710000D03*
X116840000Y-80010000D03*
X142875000Y-83185000D03*
X113665000Y-107950000D03*
X113665000Y-102870000D03*
X156730000Y-96520000D03*
X163080000Y-81280000D03*
X163080000Y-85090000D03*
X166890000Y-91440000D03*
X134620000Y-53340000D03*
X134620000Y-60960000D03*
X163080000Y-80010000D03*
D30*
X166110000Y-71120000D02*
X166110000Y-60960000D01*
D31*
X110490000Y-59055000D02*
X110490000Y-76835000D01*
X117030000Y-100330000D02*
X116840000Y-100140000D01*
X116840000Y-100140000D02*
X116840000Y-92710000D01*
X113030000Y-66040000D02*
X112395000Y-66040000D01*
X111125000Y-74295000D02*
X116840000Y-80010000D01*
X112395000Y-66040000D02*
X111125000Y-67310000D01*
X111125000Y-67310000D02*
X111125000Y-74295000D01*
X113665000Y-80010000D02*
X110490000Y-76835000D01*
X145935000Y-92075000D02*
X141605000Y-92075000D01*
X141605000Y-92075000D02*
X128270000Y-105410000D01*
X128270000Y-105410000D02*
X117030000Y-105410000D01*
X142875000Y-83185000D02*
X144980000Y-83185000D01*
X115380000Y-107950000D02*
X113665000Y-107950000D01*
X111125000Y-107950000D02*
X113665000Y-107950000D01*
X120650000Y-80645000D02*
X108585000Y-92710000D01*
X111125000Y-97790000D02*
X109220000Y-97790000D01*
X109220000Y-97790000D02*
X108585000Y-97155000D01*
X108585000Y-97155000D02*
X108585000Y-92710000D01*
X144980000Y-80645000D02*
X120650000Y-80645000D01*
X120650000Y-80645000D02*
X114935000Y-74930000D01*
X114935000Y-74930000D02*
X114935000Y-68580000D01*
X116205000Y-102235000D02*
X116205000Y-98425000D01*
X116205000Y-98425000D02*
X113030000Y-95250000D01*
X117030000Y-102870000D02*
X116840000Y-102870000D01*
X113030000Y-95250000D02*
X111125000Y-95250000D01*
X116840000Y-102870000D02*
X116205000Y-102235000D01*
X117030000Y-102870000D02*
X116205000Y-103695000D01*
X116205000Y-103695000D02*
X116205000Y-107125000D01*
X116205000Y-107125000D02*
X117030000Y-107950000D01*
X117030000Y-110490000D02*
X117030000Y-107950000D01*
X165415000Y-111760000D02*
X116650000Y-111760000D01*
X116650000Y-111760000D02*
X115380000Y-110490000D01*
X165415000Y-109220000D02*
X158750000Y-109220000D01*
X158750000Y-109220000D02*
X147955000Y-98425000D01*
X147955000Y-98425000D02*
X147955000Y-83620000D01*
X147955000Y-83620000D02*
X144980000Y-80645000D01*
X111125000Y-110490000D02*
X115380000Y-110490000D01*
X115380000Y-105410000D02*
X111125000Y-105410000D01*
X111125000Y-102870000D02*
X115380000Y-102870000D01*
X115380000Y-100330000D02*
X111125000Y-100330000D01*
X112075000Y-58420000D02*
X111125000Y-58420000D01*
X111125000Y-58420000D02*
X110490000Y-59055000D01*
X114935000Y-68580000D02*
X114935000Y-57150000D01*
X114935000Y-57150000D02*
X113665000Y-55880000D01*
X113665000Y-55880000D02*
X112075000Y-55880000D01*
X113030000Y-68580000D02*
X114935000Y-68580000D01*
X145935000Y-94615000D02*
X147955000Y-94615000D01*
D30*
X179705000Y-99060000D02*
X178320000Y-99060000D01*
X187125000Y-93980000D02*
X179605000Y-86460000D01*
X176415000Y-85090000D02*
X178235000Y-85090000D01*
X178235000Y-85090000D02*
X179605000Y-86460000D01*
D31*
X156730000Y-96520000D02*
X156095000Y-97155000D01*
X156095000Y-97155000D02*
X153555000Y-97155000D01*
X153555000Y-94615000D02*
X155817500Y-94615000D01*
X155817500Y-94615000D02*
X158992500Y-91440000D01*
X157087500Y-83185000D02*
X154547500Y-85725000D01*
X154547500Y-85725000D02*
X154510000Y-85725000D01*
X157087500Y-80010000D02*
X157087500Y-80607500D01*
X157087500Y-80607500D02*
X154510000Y-83185000D01*
X163080000Y-81280000D02*
X160817500Y-81280000D01*
X160817500Y-81280000D02*
X158912500Y-83185000D01*
X158912500Y-80010000D02*
X163080000Y-80010000D01*
X160540000Y-89280000D02*
X159015000Y-89280000D01*
X158992500Y-91440000D02*
X159015000Y-91417500D01*
X159015000Y-89280000D02*
X157540000Y-89280000D01*
X159015000Y-91417500D02*
X159015000Y-89280000D01*
X158992500Y-93980000D02*
X158992500Y-95607500D01*
X158992500Y-95607500D02*
X159905000Y-96520000D01*
X159905000Y-96520000D02*
X159905000Y-97060000D01*
X160817500Y-91440000D02*
X160817500Y-93980000D01*
D30*
X164350000Y-87630000D02*
X164032500Y-87947500D01*
X164032500Y-87947500D02*
X163080000Y-88900000D01*
D31*
X160540000Y-85980000D02*
X162065000Y-85980000D01*
X162065000Y-85980000D02*
X164032500Y-87947500D01*
X157540000Y-89280000D02*
X157365000Y-89105000D01*
X160540000Y-85980000D02*
X157540000Y-85980000D01*
X157540000Y-85980000D02*
X157365000Y-86155000D01*
X160795000Y-83185000D02*
X160540000Y-83440000D01*
X160540000Y-83440000D02*
X160540000Y-85980000D01*
X163080000Y-85090000D02*
X163080000Y-83820000D01*
X163080000Y-83820000D02*
X162445000Y-83185000D01*
D30*
X170180000Y-68580000D02*
X170180000Y-65205000D01*
D31*
X175260000Y-60125000D02*
X175260000Y-58420000D01*
D30*
X170180000Y-65205000D02*
X175260000Y-60125000D01*
X166110000Y-58420000D02*
X175260000Y-58420000D01*
X168650000Y-73660000D02*
X170180000Y-73660000D01*
D31*
X124505000Y-71200000D02*
X129942500Y-71200000D01*
X166110000Y-71120000D02*
X166030000Y-71200000D01*
X166030000Y-71200000D02*
X129942500Y-71200000D01*
X124460000Y-71245000D02*
X124505000Y-71200000D01*
D30*
X166110000Y-71120000D02*
X168650000Y-73660000D01*
D31*
X170180000Y-73660000D02*
X170170000Y-73670000D01*
D30*
X178635000Y-73660000D02*
X178625000Y-73670000D01*
X187125000Y-73660000D02*
X178635000Y-73660000D01*
X187125000Y-68580000D02*
X178635000Y-68580000D01*
X178635000Y-68580000D02*
X178625000Y-68570000D01*
D31*
X187125000Y-114300000D02*
X180340000Y-114300000D01*
X187125000Y-109220000D02*
X180340000Y-109220000D01*
X139700000Y-58420000D02*
X137080000Y-55800000D01*
X137080000Y-55800000D02*
X129942500Y-55800000D01*
X139700000Y-60960000D02*
X139700000Y-58420000D01*
X137160000Y-63500000D02*
X139700000Y-60960000D01*
X120650000Y-68580000D02*
X121920000Y-68580000D01*
X127000000Y-63500000D02*
X137160000Y-63500000D01*
X121920000Y-68580000D02*
X127000000Y-63500000D01*
X124460000Y-69595000D02*
X125475000Y-68580000D01*
X157480000Y-55880000D02*
X166110000Y-55880000D01*
X124460000Y-69595000D02*
X123700000Y-69595000D01*
X125475000Y-68580000D02*
X144780000Y-68580000D01*
X122175000Y-71120000D02*
X120650000Y-71120000D01*
X144780000Y-68580000D02*
X157480000Y-55880000D01*
X123700000Y-69595000D02*
X122175000Y-71120000D01*
X163080000Y-85090000D02*
X165620000Y-82550000D01*
X167265000Y-91815000D02*
X166890000Y-91440000D01*
X167265000Y-94615000D02*
X167265000Y-91815000D01*
X165620000Y-82550000D02*
X167265000Y-82550000D01*
D30*
X163080000Y-98425000D02*
X164350000Y-99695000D01*
X163080000Y-88900000D02*
X163080000Y-98425000D01*
X164350000Y-99695000D02*
X164985000Y-99695000D01*
X165620000Y-87630000D02*
X164350000Y-87630000D01*
D31*
X167265000Y-87630000D02*
X165620000Y-87630000D01*
X164985000Y-99695000D02*
X167265000Y-99695000D01*
X161080000Y-102235000D02*
X171335000Y-102235000D01*
D30*
X187125000Y-99060000D02*
X179705000Y-99060000D01*
D31*
X159905000Y-101060000D02*
X161080000Y-102235000D01*
D30*
X178320000Y-99060000D02*
X176415000Y-97155000D01*
D31*
X171335000Y-102235000D02*
X176415000Y-97155000D01*
D30*
X167265000Y-97155000D02*
X176415000Y-97155000D01*
D31*
X122832500Y-61872500D02*
X121920000Y-60960000D01*
X124460000Y-61872500D02*
X122832500Y-61872500D01*
X121920000Y-60960000D02*
X121605000Y-60960000D01*
X122832500Y-58420000D02*
X124460000Y-56792500D01*
X121605000Y-58420000D02*
X122832500Y-58420000D01*
X178515000Y-114300000D02*
X174945000Y-114300000D01*
X178515000Y-109220000D02*
X175975000Y-111760000D01*
X175975000Y-111760000D02*
X174945000Y-111760000D01*
X126087500Y-53340000D02*
X124460000Y-54967500D01*
X134620000Y-53340000D02*
X126087500Y-53340000D01*
X129540000Y-60960000D02*
X128627500Y-60047500D01*
X134620000Y-60960000D02*
X129540000Y-60960000D01*
X128627500Y-60047500D02*
X124460000Y-60047500D01*
D30*
X167265000Y-85090000D02*
X176415000Y-85090000D01*
M02*
