G04 #@! TF.GenerationSoftware,KiCad,Pcbnew,(6.0.0-0)*
G04 #@! TF.CreationDate,2022-03-09T14:35:57+01:00*
G04 #@! TF.ProjectId,prototype-2,70726f74-6f74-4797-9065-2d322e6b6963,rev?*
G04 #@! TF.SameCoordinates,Original*
G04 #@! TF.FileFunction,Soldermask,Top*
G04 #@! TF.FilePolarity,Negative*
%FSLAX46Y46*%
G04 Gerber Fmt 4.6, Leading zero omitted, Abs format (unit mm)*
G04 Created by KiCad (PCBNEW (6.0.0-0)) date 2022-03-09 14:35:57*
%MOMM*%
%LPD*%
G01*
G04 APERTURE LIST*
G04 Aperture macros list*
%AMRoundRect*
0 Rectangle with rounded corners*
0 $1 Rounding radius*
0 $2 $3 $4 $5 $6 $7 $8 $9 X,Y pos of 4 corners*
0 Add a 4 corners polygon primitive as box body*
4,1,4,$2,$3,$4,$5,$6,$7,$8,$9,$2,$3,0*
0 Add four circle primitives for the rounded corners*
1,1,$1+$1,$2,$3*
1,1,$1+$1,$4,$5*
1,1,$1+$1,$6,$7*
1,1,$1+$1,$8,$9*
0 Add four rect primitives between the rounded corners*
20,1,$1+$1,$2,$3,$4,$5,0*
20,1,$1+$1,$4,$5,$6,$7,0*
20,1,$1+$1,$6,$7,$8,$9,0*
20,1,$1+$1,$8,$9,$2,$3,0*%
G04 Aperture macros list end*
%ADD10RoundRect,0.250000X-0.262500X-0.450000X0.262500X-0.450000X0.262500X0.450000X-0.262500X0.450000X0*%
%ADD11RoundRect,0.250000X0.262500X0.450000X-0.262500X0.450000X-0.262500X-0.450000X0.262500X-0.450000X0*%
%ADD12R,4.600000X1.100000*%
%ADD13R,9.400000X10.800000*%
%ADD14R,1.800000X2.500000*%
%ADD15R,2.000000X1.780000*%
%ADD16RoundRect,0.200000X-0.275000X0.200000X-0.275000X-0.200000X0.275000X-0.200000X0.275000X0.200000X0*%
%ADD17R,1.200000X0.900000*%
%ADD18R,3.000000X3.000000*%
%ADD19C,3.000000*%
%ADD20RoundRect,0.200000X-0.200000X-0.275000X0.200000X-0.275000X0.200000X0.275000X-0.200000X0.275000X0*%
%ADD21RoundRect,0.200000X0.200000X0.275000X-0.200000X0.275000X-0.200000X-0.275000X0.200000X-0.275000X0*%
%ADD22RoundRect,0.250000X-0.450000X0.262500X-0.450000X-0.262500X0.450000X-0.262500X0.450000X0.262500X0*%
%ADD23R,1.700000X1.700000*%
%ADD24O,1.700000X1.700000*%
%ADD25R,2.300000X2.000000*%
%ADD26C,2.300000*%
%ADD27R,2.000000X1.500000*%
%ADD28RoundRect,0.250000X0.650000X-0.325000X0.650000X0.325000X-0.650000X0.325000X-0.650000X-0.325000X0*%
G04 APERTURE END LIST*
D10*
X158992500Y-93980000D03*
X160817500Y-93980000D03*
D11*
X158992500Y-91440000D03*
X160817500Y-91440000D03*
D12*
X167265000Y-94615000D03*
X167265000Y-97155000D03*
D13*
X176415000Y-97155000D03*
D12*
X167265000Y-99695000D03*
D14*
X159905000Y-97060000D03*
X159905000Y-101060000D03*
D15*
X154510000Y-85725000D03*
X154510000Y-83185000D03*
X154510000Y-80645000D03*
X144980000Y-80645000D03*
X144980000Y-83185000D03*
X144980000Y-85725000D03*
D11*
X157087500Y-80010000D03*
X158912500Y-80010000D03*
D16*
X124460000Y-69595000D03*
X124460000Y-71245000D03*
D17*
X160540000Y-89280000D03*
X160540000Y-85980000D03*
D18*
X187125000Y-99060000D03*
D19*
X187125000Y-93980000D03*
X187125000Y-88900000D03*
X187125000Y-83820000D03*
D20*
X115380000Y-110490000D03*
X117030000Y-110490000D03*
D11*
X180340000Y-114300000D03*
X178515000Y-114300000D03*
D21*
X117030000Y-100330000D03*
X115380000Y-100330000D03*
D20*
X115380000Y-107950000D03*
X117030000Y-107950000D03*
X115380000Y-102870000D03*
X117030000Y-102870000D03*
D22*
X124460000Y-60047500D03*
X124460000Y-61872500D03*
D23*
X111125000Y-95250000D03*
D24*
X111125000Y-97790000D03*
X111125000Y-100330000D03*
X111125000Y-102870000D03*
X111125000Y-105410000D03*
X111125000Y-107950000D03*
X111125000Y-110490000D03*
D15*
X113030000Y-66040000D03*
X113030000Y-68580000D03*
X113030000Y-71120000D03*
X120650000Y-71120000D03*
X120650000Y-68580000D03*
X120650000Y-66040000D03*
D11*
X158912500Y-83185000D03*
X157087500Y-83185000D03*
D15*
X121605000Y-60960000D03*
X121605000Y-58420000D03*
X121605000Y-55880000D03*
X112075000Y-55880000D03*
X112075000Y-58420000D03*
X112075000Y-60960000D03*
X145935000Y-92075000D03*
X145935000Y-94615000D03*
X145935000Y-97155000D03*
X153555000Y-97155000D03*
X153555000Y-94615000D03*
X153555000Y-92075000D03*
D12*
X167265000Y-82550000D03*
D13*
X176415000Y-85090000D03*
D12*
X167265000Y-85090000D03*
X167265000Y-87630000D03*
D18*
X187125000Y-114300000D03*
D19*
X187125000Y-109220000D03*
D21*
X162445000Y-83185000D03*
X160795000Y-83185000D03*
D25*
X159342500Y-66000000D03*
D26*
X159342500Y-61000000D03*
X129942500Y-71200000D03*
X129942500Y-55800000D03*
D27*
X169885000Y-68570000D03*
X169885000Y-73670000D03*
X178625000Y-73670000D03*
X178625000Y-68570000D03*
D28*
X157365000Y-86155000D03*
X157365000Y-89105000D03*
D11*
X180340000Y-109220000D03*
X178515000Y-109220000D03*
D15*
X174945000Y-114300000D03*
X174945000Y-111760000D03*
X174945000Y-109220000D03*
X165415000Y-109220000D03*
X165415000Y-111760000D03*
X165415000Y-114300000D03*
D18*
X187125000Y-73660000D03*
D19*
X187125000Y-68580000D03*
X187125000Y-63500000D03*
X187125000Y-58420000D03*
D12*
X166110000Y-55880000D03*
X166110000Y-58420000D03*
D13*
X175260000Y-58420000D03*
D12*
X166110000Y-60960000D03*
D21*
X115380000Y-105410000D03*
X117030000Y-105410000D03*
D22*
X124460000Y-54967500D03*
X124460000Y-56792500D03*
M02*
