%TF.GenerationSoftware,KiCad,Pcbnew,(7.0.0-0)*%
%TF.CreationDate,2023-11-16T12:34:27+01:00*%
%TF.ProjectId,bed-smart-plug,6265642d-736d-4617-9274-2d706c75672e,rev?*%
%TF.SameCoordinates,Original*%
%TF.FileFunction,Copper,L1,Top*%
%TF.FilePolarity,Positive*%
%FSLAX46Y46*%
G04 Gerber Fmt 4.6, Leading zero omitted, Abs format (unit mm)*
G04 Created by KiCad (PCBNEW (7.0.0-0)) date 2023-11-16 12:34:27*
%MOMM*%
%LPD*%
G01*
G04 APERTURE LIST*
G04 Aperture macros list*
%AMRoundRect*
0 Rectangle with rounded corners*
0 $1 Rounding radius*
0 $2 $3 $4 $5 $6 $7 $8 $9 X,Y pos of 4 corners*
0 Add a 4 corners polygon primitive as box body*
4,1,4,$2,$3,$4,$5,$6,$7,$8,$9,$2,$3,0*
0 Add four circle primitives for the rounded corners*
1,1,$1+$1,$2,$3*
1,1,$1+$1,$4,$5*
1,1,$1+$1,$6,$7*
1,1,$1+$1,$8,$9*
0 Add four rect primitives between the rounded corners*
20,1,$1+$1,$2,$3,$4,$5,0*
20,1,$1+$1,$4,$5,$6,$7,0*
20,1,$1+$1,$6,$7,$8,$9,0*
20,1,$1+$1,$8,$9,$2,$3,0*%
G04 Aperture macros list end*
%TA.AperFunction,SMDPad,CuDef*%
%ADD10RoundRect,0.250000X-0.312500X-1.075000X0.312500X-1.075000X0.312500X1.075000X-0.312500X1.075000X0*%
%TD*%
%TA.AperFunction,ComponentPad*%
%ADD11R,3.000000X3.000000*%
%TD*%
%TA.AperFunction,ComponentPad*%
%ADD12C,3.000000*%
%TD*%
%TA.AperFunction,ComponentPad*%
%ADD13R,1.700000X1.700000*%
%TD*%
%TA.AperFunction,ComponentPad*%
%ADD14O,1.700000X1.700000*%
%TD*%
%TA.AperFunction,ComponentPad*%
%ADD15C,1.200000*%
%TD*%
%TA.AperFunction,SMDPad,CuDef*%
%ADD16RoundRect,0.250000X1.075000X-0.312500X1.075000X0.312500X-1.075000X0.312500X-1.075000X-0.312500X0*%
%TD*%
%TA.AperFunction,SMDPad,CuDef*%
%ADD17RoundRect,0.200000X0.200000X0.275000X-0.200000X0.275000X-0.200000X-0.275000X0.200000X-0.275000X0*%
%TD*%
%TA.AperFunction,ComponentPad*%
%ADD18C,6.000000*%
%TD*%
%TA.AperFunction,SMDPad,CuDef*%
%ADD19RoundRect,0.250000X0.650000X-0.325000X0.650000X0.325000X-0.650000X0.325000X-0.650000X-0.325000X0*%
%TD*%
%TA.AperFunction,ComponentPad*%
%ADD20R,2.000000X2.300000*%
%TD*%
%TA.AperFunction,ComponentPad*%
%ADD21C,2.300000*%
%TD*%
%TA.AperFunction,SMDPad,CuDef*%
%ADD22RoundRect,0.243750X-0.243750X-0.456250X0.243750X-0.456250X0.243750X0.456250X-0.243750X0.456250X0*%
%TD*%
%TA.AperFunction,SMDPad,CuDef*%
%ADD23RoundRect,0.200000X-0.200000X-0.275000X0.200000X-0.275000X0.200000X0.275000X-0.200000X0.275000X0*%
%TD*%
%TA.AperFunction,SMDPad,CuDef*%
%ADD24RoundRect,0.250000X0.250000X0.475000X-0.250000X0.475000X-0.250000X-0.475000X0.250000X-0.475000X0*%
%TD*%
%TA.AperFunction,ComponentPad*%
%ADD25R,1.778000X1.778000*%
%TD*%
%TA.AperFunction,ComponentPad*%
%ADD26C,1.778000*%
%TD*%
%TA.AperFunction,SMDPad,CuDef*%
%ADD27RoundRect,0.135000X0.135000X0.185000X-0.135000X0.185000X-0.135000X-0.185000X0.135000X-0.185000X0*%
%TD*%
%TA.AperFunction,SMDPad,CuDef*%
%ADD28R,2.500000X1.200000*%
%TD*%
%TA.AperFunction,ComponentPad*%
%ADD29R,1.905000X2.000000*%
%TD*%
%TA.AperFunction,ComponentPad*%
%ADD30O,1.905000X2.000000*%
%TD*%
%TA.AperFunction,SMDPad,CuDef*%
%ADD31R,2.000000X1.780000*%
%TD*%
%TA.AperFunction,ViaPad*%
%ADD32C,0.800000*%
%TD*%
%TA.AperFunction,Conductor*%
%ADD33C,0.250000*%
%TD*%
G04 APERTURE END LIST*
D10*
%TO.P,R5,1*%
%TO.N,Net-(J5-Pin_1)*%
X39812500Y-99045000D03*
%TO.P,R5,2*%
%TO.N,Net-(J6-Pin_1)*%
X42737500Y-99045000D03*
%TD*%
D11*
%TO.P,J9,1,Pin_1*%
%TO.N,Net-(J8-Pin_2)*%
X80009999Y-48259999D03*
D12*
%TO.P,J9,2,Pin_2*%
%TO.N,NEUT*%
X74930000Y-48260000D03*
%TD*%
D13*
%TO.P,J8,1,Pin_1*%
%TO.N,Net-(J8-Pin_1)*%
X45527499Y-75564999D03*
D14*
%TO.P,J8,2,Pin_2*%
%TO.N,Net-(J8-Pin_2)*%
X45527499Y-73024999D03*
%TD*%
D13*
%TO.P,J2,1,Pin_1*%
%TO.N,Net-(J2-Pin_1)*%
X105409999Y-60959999D03*
D14*
%TO.P,J2,2,Pin_2*%
%TO.N,Net-(J2-Pin_2)*%
X107949999Y-60959999D03*
%TO.P,J2,3,Pin_3*%
%TO.N,Net-(J2-Pin_3)*%
X110489999Y-60959999D03*
%TO.P,J2,4,Pin_4*%
%TO.N,Net-(J2-Pin_4)*%
X113029999Y-60959999D03*
%TD*%
D15*
%TO.P,U2,1,Antenna*%
%TO.N,Net-(AE1-A)*%
X76200000Y-114140000D03*
%TO.P,U2,2,GND*%
%TO.N,GND*%
X78740000Y-114140000D03*
%TO.P,U2,3,GND*%
X81280000Y-114140000D03*
%TO.P,U2,4,VCC*%
%TO.N,+3V3*%
X83820000Y-114140000D03*
%TO.P,U2,5,VCC*%
X104140000Y-114140000D03*
%TO.P,U2,6,DATA*%
%TO.N,Net-(U1-GPIO36)*%
X106680000Y-114140000D03*
%TO.P,U2,7,DATA*%
X109220000Y-114140000D03*
%TO.P,U2,8,GND*%
%TO.N,GND*%
X111760000Y-114140000D03*
%TD*%
D13*
%TO.P,J6,1,Pin_1*%
%TO.N,Net-(J6-Pin_1)*%
X43814999Y-90794999D03*
D14*
%TO.P,J6,2,Pin_2*%
%TO.N,Net-(J5-Pin_3)*%
X43814999Y-88254999D03*
%TD*%
D16*
%TO.P,R4,1*%
%TO.N,Net-(J4-Pin_2)*%
X59690000Y-84647500D03*
%TO.P,R4,2*%
%TO.N,Net-(J4-Pin_1)*%
X59690000Y-81722500D03*
%TD*%
D13*
%TO.P,AE1,1,A*%
%TO.N,Net-(AE1-A)*%
X62864999Y-116839999D03*
%TD*%
D17*
%TO.P,R2,1*%
%TO.N,Net-(U1-GPIO2)*%
X69850000Y-104140000D03*
%TO.P,R2,2*%
%TO.N,Net-(D1-A)*%
X68200000Y-104140000D03*
%TD*%
D18*
%TO.P,HS1,1*%
%TO.N,N/C*%
X38100000Y-57150000D03*
X63500000Y-57150000D03*
%TD*%
D19*
%TO.P,C1,1*%
%TO.N,Net-(J5-Pin_1)*%
X39370000Y-80850000D03*
%TO.P,C1,2*%
%TO.N,Net-(J8-Pin_2)*%
X39370000Y-77900000D03*
%TD*%
D13*
%TO.P,J1,1,Pin_1*%
%TO.N,GND*%
X110489999Y-71119999D03*
D14*
%TO.P,J1,2,Pin_2*%
%TO.N,+3V3*%
X107949999Y-71119999D03*
%TO.P,J1,3,Pin_3*%
%TO.N,Net-(J1-Pin_3)*%
X105409999Y-71119999D03*
%TD*%
D10*
%TO.P,R6,1*%
%TO.N,Net-(J5-Pin_3)*%
X51050000Y-73025000D03*
%TO.P,R6,2*%
%TO.N,Net-(C2-Pad1)*%
X53975000Y-73025000D03*
%TD*%
D20*
%TO.P,PS1,1,AC/L*%
%TO.N,LINE*%
X78739999Y-102727499D03*
D21*
%TO.P,PS1,3,AC/N*%
%TO.N,NEUT*%
X83820000Y-102727500D03*
%TO.P,PS1,5,NC*%
%TO.N,unconnected-(PS1-NC-Pad5)*%
X109220000Y-102727500D03*
%TO.P,PS1,14,-Vo*%
%TO.N,GND*%
X109220000Y-84947500D03*
%TO.P,PS1,16,+Vo*%
%TO.N,+5V*%
X104140000Y-84947500D03*
%TD*%
D22*
%TO.P,D1,1,K*%
%TO.N,GND*%
X62895000Y-104140000D03*
%TO.P,D1,2,A*%
%TO.N,Net-(D1-A)*%
X64770000Y-104140000D03*
%TD*%
D23*
%TO.P,R3,1*%
%TO.N,Net-(R3-Pad1)*%
X68200000Y-100330000D03*
%TO.P,R3,2*%
%TO.N,Net-(U1-GPIO2)*%
X69850000Y-100330000D03*
%TD*%
D24*
%TO.P,C2,1*%
%TO.N,Net-(C2-Pad1)*%
X53142500Y-76835000D03*
%TO.P,C2,2*%
%TO.N,Net-(J8-Pin_1)*%
X51242500Y-76835000D03*
%TD*%
D25*
%TO.P,U1,1,+5V*%
%TO.N,+5V*%
X149859999Y-91439999D03*
D26*
%TO.P,U1,2,+3.3V_(out)*%
%TO.N,+3V3*%
X149860000Y-88900000D03*
%TO.P,U1,3,GND*%
%TO.N,GND*%
X149860000Y-86360000D03*
%TO.P,U1,4,ESP_EN*%
%TO.N,unconnected-(U1-ESP_EN-Pad4)*%
X149860000Y-83820000D03*
%TO.P,U1,5,GPIO0*%
%TO.N,unconnected-(U1-GPIO0-Pad5)*%
X149860000Y-81280000D03*
%TO.P,U1,6,GPIO1*%
%TO.N,unconnected-(U1-GPIO1-Pad6)*%
X149860000Y-78740000D03*
%TO.P,U1,7,GPIO2*%
%TO.N,Net-(U1-GPIO2)*%
X149860000Y-76200000D03*
%TO.P,U1,8,GPIO3*%
%TO.N,unconnected-(U1-GPIO3-Pad8)*%
X149860000Y-73660000D03*
%TO.P,U1,9,GPIO4*%
%TO.N,unconnected-(U1-GPIO4-Pad9)*%
X149860000Y-71120000D03*
%TO.P,U1,10,GPIO5*%
%TO.N,unconnected-(U1-GPIO5-Pad10)*%
X149860000Y-68580000D03*
%TO.P,U1,11,GPIO13*%
%TO.N,Net-(J1-Pin_3)*%
X124460000Y-68580000D03*
%TO.P,U1,12,GPIO14*%
%TO.N,unconnected-(U1-GPIO14-Pad12)*%
X124460000Y-71120000D03*
%TO.P,U1,13,GPIO15*%
%TO.N,unconnected-(U1-GPIO15-Pad13)*%
X124460000Y-73660000D03*
%TO.P,U1,14,GPIO16*%
%TO.N,unconnected-(U1-GPIO16-Pad14)*%
X124460000Y-76200000D03*
%TO.P,U1,15,GPIO32*%
%TO.N,unconnected-(U1-GPIO32-Pad15)*%
X124460000Y-78740000D03*
%TO.P,U1,16,GPIO33*%
%TO.N,unconnected-(U1-GPIO33-Pad16)*%
X124460000Y-81280000D03*
%TO.P,U1,17,GPIO34*%
%TO.N,unconnected-(U1-GPIO34-Pad17)*%
X124460000Y-83820000D03*
%TO.P,U1,18,GPIO35*%
%TO.N,unconnected-(U1-GPIO35-Pad18)*%
X124460000Y-86360000D03*
%TO.P,U1,19,GPIO36*%
%TO.N,Net-(U1-GPIO36)*%
X124460000Y-88900000D03*
%TO.P,U1,20,GPIO39*%
%TO.N,unconnected-(U1-GPIO39-Pad20)*%
X124460000Y-91440000D03*
%TD*%
D27*
%TO.P,R1,1*%
%TO.N,+3V3*%
X106680000Y-66040000D03*
%TO.P,R1,2*%
%TO.N,Net-(J1-Pin_3)*%
X105660000Y-66040000D03*
%TD*%
D28*
%TO.P,J3,R1*%
%TO.N,Net-(J2-Pin_3)*%
X112469999Y-47779999D03*
%TO.P,J3,R2*%
%TO.N,Net-(J2-Pin_2)*%
X112469999Y-44779999D03*
%TO.P,J3,S*%
%TO.N,Net-(J2-Pin_1)*%
X105969999Y-52879999D03*
%TO.P,J3,T*%
%TO.N,Net-(J2-Pin_4)*%
X112469999Y-51779999D03*
%TD*%
D29*
%TO.P,Q1,1,A1*%
%TO.N,Net-(J8-Pin_2)*%
X48259999Y-61434999D03*
D30*
%TO.P,Q1,2,A2*%
%TO.N,Net-(J5-Pin_3)*%
X50799999Y-61434999D03*
%TO.P,Q1,3,G*%
%TO.N,Net-(Q1-G)*%
X53339999Y-61434999D03*
%TD*%
D13*
%TO.P,J5,1,Pin_1*%
%TO.N,Net-(J5-Pin_1)*%
X39369999Y-90804999D03*
D14*
%TO.P,J5,2,Pin_2*%
%TO.N,Net-(J4-Pin_2)*%
X39369999Y-88264999D03*
%TO.P,J5,3,Pin_3*%
%TO.N,Net-(J5-Pin_3)*%
X39369999Y-85724999D03*
%TD*%
D12*
%TO.P,F1,1*%
%TO.N,LINE*%
X97790000Y-66040000D03*
%TO.P,F1,2*%
%TO.N,Net-(J5-Pin_3)*%
X75290000Y-66040000D03*
%TD*%
D31*
%TO.P,U3,1*%
%TO.N,Net-(R3-Pad1)*%
X48574999Y-99059999D03*
%TO.P,U3,2*%
%TO.N,GND*%
X48574999Y-101599999D03*
%TO.P,U3,3,NC*%
%TO.N,unconnected-(U3-NC-Pad3)*%
X48574999Y-104139999D03*
%TO.P,U3,4*%
%TO.N,Net-(Q1-G)*%
X58104999Y-104139999D03*
%TO.P,U3,5,NC*%
%TO.N,unconnected-(U3-NC-Pad5)*%
X58104999Y-101599999D03*
%TO.P,U3,6*%
%TO.N,Net-(J4-Pin_1)*%
X58104999Y-99059999D03*
%TD*%
D13*
%TO.P,J4,1,Pin_1*%
%TO.N,Net-(J4-Pin_1)*%
X64769999Y-81914999D03*
D14*
%TO.P,J4,2,Pin_2*%
%TO.N,Net-(J4-Pin_2)*%
X64769999Y-84454999D03*
%TD*%
D11*
%TO.P,J7,1,Pin_1*%
%TO.N,LINE*%
X95249999Y-48259999D03*
D12*
%TO.P,J7,2,Pin_2*%
%TO.N,NEUT*%
X90170000Y-48260000D03*
%TD*%
D32*
%TO.N,+3V3*%
X113665000Y-69215000D03*
%TO.N,Net-(R3-Pad1)*%
X61595000Y-99060000D03*
X52705000Y-99060000D03*
%TO.N,Net-(U1-GPIO36)*%
X119380000Y-99060000D03*
%TD*%
D33*
%TO.N,Net-(J5-Pin_1)*%
X39165000Y-80850000D02*
X36195000Y-83820000D01*
X36195000Y-83820000D02*
X36195000Y-88900000D01*
X38100000Y-90805000D02*
X39370000Y-90805000D01*
X36195000Y-88900000D02*
X38100000Y-90805000D01*
X39370000Y-90805000D02*
X39370000Y-98602500D01*
X39370000Y-98602500D02*
X39812500Y-99045000D01*
X39370000Y-80850000D02*
X39165000Y-80850000D01*
%TO.N,Net-(J8-Pin_2)*%
X44245000Y-73025000D02*
X39370000Y-77900000D01*
X45527500Y-73025000D02*
X44245000Y-73025000D01*
X48260000Y-70292500D02*
X48260000Y-61435000D01*
X45527500Y-73025000D02*
X48260000Y-70292500D01*
%TO.N,Net-(C2-Pad1)*%
X53975000Y-76002500D02*
X53142500Y-76835000D01*
X53975000Y-73025000D02*
X53975000Y-76002500D01*
%TO.N,Net-(J8-Pin_1)*%
X46355000Y-76835000D02*
X51242500Y-76835000D01*
X45527500Y-76007500D02*
X46355000Y-76835000D01*
X45527500Y-75565000D02*
X45527500Y-76007500D01*
%TO.N,GND*%
X62895000Y-106650000D02*
X62865000Y-106680000D01*
X57150000Y-106680000D02*
X52070000Y-101600000D01*
X62895000Y-104140000D02*
X62895000Y-106650000D01*
X71280000Y-106680000D02*
X62865000Y-106680000D01*
X52070000Y-101600000D02*
X48575000Y-101600000D01*
X57150000Y-106680000D02*
X62865000Y-106680000D01*
X78740000Y-114140000D02*
X71280000Y-106680000D01*
%TO.N,Net-(D1-A)*%
X68200000Y-104140000D02*
X64770000Y-104140000D01*
%TO.N,Net-(J5-Pin_3)*%
X50800000Y-72775000D02*
X50800000Y-68580000D01*
X50800000Y-68580000D02*
X53340000Y-68580000D01*
X56515000Y-71755000D02*
X56515000Y-78740000D01*
X39370000Y-85725000D02*
X41285000Y-85725000D01*
X53340000Y-68580000D02*
X56515000Y-71755000D01*
X56515000Y-78740000D02*
X47000000Y-88255000D01*
X51050000Y-73025000D02*
X50800000Y-72775000D01*
X41285000Y-85725000D02*
X43815000Y-88255000D01*
X47000000Y-88255000D02*
X43815000Y-88255000D01*
X50800000Y-68580000D02*
X50800000Y-61435000D01*
%TO.N,+3V3*%
X106680000Y-66040000D02*
X107950000Y-67310000D01*
X111760000Y-67310000D02*
X107950000Y-67310000D01*
X107950000Y-67310000D02*
X107950000Y-71120000D01*
X113665000Y-69215000D02*
X111760000Y-67310000D01*
%TO.N,Net-(J1-Pin_3)*%
X105660000Y-66040000D02*
X105410000Y-66290000D01*
X105660000Y-65155000D02*
X105660000Y-66040000D01*
X111125000Y-64770000D02*
X106045000Y-64770000D01*
X124460000Y-68580000D02*
X114935000Y-68580000D01*
X106045000Y-64770000D02*
X105660000Y-65155000D01*
X105410000Y-66290000D02*
X105410000Y-71120000D01*
X114935000Y-68580000D02*
X111125000Y-64770000D01*
%TO.N,Net-(J2-Pin_1)*%
X105410000Y-53440000D02*
X105970000Y-52880000D01*
X105410000Y-60960000D02*
X105410000Y-53440000D01*
%TO.N,Net-(J2-Pin_2)*%
X112470000Y-44780000D02*
X110795000Y-44780000D01*
X107950000Y-47625000D02*
X110795000Y-44780000D01*
X107950000Y-60960000D02*
X107950000Y-47625000D01*
%TO.N,Net-(J2-Pin_3)*%
X112470000Y-47780000D02*
X112470000Y-48820000D01*
X112470000Y-48820000D02*
X110490000Y-50800000D01*
X110490000Y-50800000D02*
X110490000Y-60960000D01*
%TO.N,Net-(J2-Pin_4)*%
X112470000Y-51780000D02*
X112470000Y-60400000D01*
X112470000Y-60400000D02*
X113030000Y-60960000D01*
%TO.N,Net-(J4-Pin_1)*%
X58105000Y-99060000D02*
X58420000Y-99060000D01*
X66675000Y-81915000D02*
X64770000Y-81915000D01*
X59690000Y-81722500D02*
X59882500Y-81915000D01*
X67310000Y-82550000D02*
X66675000Y-81915000D01*
X67310000Y-90170000D02*
X67310000Y-82550000D01*
X58420000Y-99060000D02*
X67310000Y-90170000D01*
X59882500Y-81915000D02*
X64770000Y-81915000D01*
%TO.N,Net-(J4-Pin_2)*%
X59882500Y-84455000D02*
X59690000Y-84647500D01*
X64770000Y-84455000D02*
X59882500Y-84455000D01*
%TO.N,Net-(J6-Pin_1)*%
X43815000Y-97967500D02*
X42737500Y-99045000D01*
X43815000Y-90795000D02*
X43815000Y-97967500D01*
%TO.N,Net-(Q1-G)*%
X56515000Y-104140000D02*
X55245000Y-102870000D01*
X55245000Y-81915000D02*
X57785000Y-79375000D01*
X57785000Y-70485000D02*
X53340000Y-66040000D01*
X58105000Y-104140000D02*
X56515000Y-104140000D01*
X55245000Y-102870000D02*
X55245000Y-81915000D01*
X57785000Y-79375000D02*
X57785000Y-70485000D01*
X53340000Y-66040000D02*
X53340000Y-61435000D01*
%TO.N,Net-(U1-GPIO2)*%
X74295000Y-95885000D02*
X69850000Y-100330000D01*
X149860000Y-76200000D02*
X145415000Y-76200000D01*
X145415000Y-76200000D02*
X125730000Y-95885000D01*
X69850000Y-100330000D02*
X69850000Y-104140000D01*
X125730000Y-95885000D02*
X74295000Y-95885000D01*
%TO.N,Net-(R3-Pad1)*%
X68200000Y-100330000D02*
X62865000Y-100330000D01*
X62865000Y-100330000D02*
X61595000Y-99060000D01*
X52705000Y-99060000D02*
X48575000Y-99060000D01*
%TO.N,Net-(U1-GPIO36)*%
X109220000Y-109220000D02*
X119380000Y-99060000D01*
X106680000Y-114140000D02*
X109220000Y-114140000D01*
X109220000Y-114140000D02*
X109220000Y-109220000D01*
%TD*%
M02*
