%TF.GenerationSoftware,KiCad,Pcbnew,(7.0.0-0)*%
%TF.CreationDate,2023-11-16T12:34:27+01:00*%
%TF.ProjectId,bed-smart-plug,6265642d-736d-4617-9274-2d706c75672e,rev?*%
%TF.SameCoordinates,Original*%
%TF.FileFunction,Legend,Bot*%
%TF.FilePolarity,Positive*%
%FSLAX46Y46*%
G04 Gerber Fmt 4.6, Leading zero omitted, Abs format (unit mm)*
G04 Created by KiCad (PCBNEW (7.0.0-0)) date 2023-11-16 12:34:27*
%MOMM*%
%LPD*%
G01*
G04 APERTURE LIST*
%ADD10R,3.000000X3.000000*%
%ADD11C,3.000000*%
%ADD12R,1.700000X1.700000*%
%ADD13O,1.700000X1.700000*%
%ADD14C,1.200000*%
%ADD15C,6.000000*%
%ADD16R,2.000000X2.300000*%
%ADD17C,2.300000*%
%ADD18R,1.778000X1.778000*%
%ADD19C,1.778000*%
%ADD20C,1.500000*%
%ADD21R,1.905000X2.000000*%
%ADD22O,1.905000X2.000000*%
%ADD23C,2.700000*%
G04 APERTURE END LIST*
%LPC*%
D10*
%TO.C,J9*%
X80009999Y-48259999D03*
D11*
X74930000Y-48260000D03*
%TD*%
D12*
%TO.C,J8*%
X45527499Y-75564999D03*
D13*
X45527499Y-73024999D03*
%TD*%
D12*
%TO.C,J2*%
X105409999Y-60959999D03*
D13*
X107949999Y-60959999D03*
X110489999Y-60959999D03*
X113029999Y-60959999D03*
%TD*%
D14*
%TO.C,U2*%
X76200000Y-114140000D03*
X78740000Y-114140000D03*
X81280000Y-114140000D03*
X83820000Y-114140000D03*
X104140000Y-114140000D03*
X106680000Y-114140000D03*
X109220000Y-114140000D03*
X111760000Y-114140000D03*
%TD*%
D12*
%TO.C,J6*%
X43814999Y-90794999D03*
D13*
X43814999Y-88254999D03*
%TD*%
D12*
%TO.C,AE1*%
X62864999Y-116839999D03*
%TD*%
D15*
%TO.C,HS1*%
X38100000Y-57150000D03*
X63500000Y-57150000D03*
%TD*%
D12*
%TO.C,J1*%
X110489999Y-71119999D03*
D13*
X107949999Y-71119999D03*
X105409999Y-71119999D03*
%TD*%
D16*
%TO.C,PS1*%
X78739999Y-102727499D03*
D17*
X83820000Y-102727500D03*
X109220000Y-102727500D03*
X109220000Y-84947500D03*
X104140000Y-84947500D03*
%TD*%
D18*
%TO.C,U1*%
X149859999Y-91439999D03*
D19*
X149860000Y-88900000D03*
X149860000Y-86360000D03*
X149860000Y-83820000D03*
X149860000Y-81280000D03*
X149860000Y-78740000D03*
X149860000Y-76200000D03*
X149860000Y-73660000D03*
X149860000Y-71120000D03*
X149860000Y-68580000D03*
X124460000Y-68580000D03*
X124460000Y-71120000D03*
X124460000Y-73660000D03*
X124460000Y-76200000D03*
X124460000Y-78740000D03*
X124460000Y-81280000D03*
X124460000Y-83820000D03*
X124460000Y-86360000D03*
X124460000Y-88900000D03*
X124460000Y-91440000D03*
%TD*%
D20*
%TO.C,J3*%
X109220000Y-43180000D03*
X109220000Y-50180000D03*
%TD*%
D21*
%TO.C,Q1*%
X48259999Y-61434999D03*
D22*
X50799999Y-61434999D03*
X53339999Y-61434999D03*
%TD*%
D12*
%TO.C,J5*%
X39369999Y-90804999D03*
D13*
X39369999Y-88264999D03*
X39369999Y-85724999D03*
%TD*%
D23*
%TO.C,F1*%
X86540000Y-66040000D03*
D11*
X97790000Y-66040000D03*
X75290000Y-66040000D03*
%TD*%
D12*
%TO.C,J4*%
X64769999Y-81914999D03*
D13*
X64769999Y-84454999D03*
%TD*%
D10*
%TO.C,J7*%
X95249999Y-48259999D03*
D11*
X90170000Y-48260000D03*
%TD*%
M02*
