%TF.GenerationSoftware,KiCad,Pcbnew,(7.0.0-0)*%
%TF.CreationDate,2023-11-16T12:34:27+01:00*%
%TF.ProjectId,bed-smart-plug,6265642d-736d-4617-9274-2d706c75672e,rev?*%
%TF.SameCoordinates,Original*%
%TF.FileFunction,Soldermask,Top*%
%TF.FilePolarity,Negative*%
%FSLAX46Y46*%
G04 Gerber Fmt 4.6, Leading zero omitted, Abs format (unit mm)*
G04 Created by KiCad (PCBNEW (7.0.0-0)) date 2023-11-16 12:34:27*
%MOMM*%
%LPD*%
G01*
G04 APERTURE LIST*
G04 Aperture macros list*
%AMRoundRect*
0 Rectangle with rounded corners*
0 $1 Rounding radius*
0 $2 $3 $4 $5 $6 $7 $8 $9 X,Y pos of 4 corners*
0 Add a 4 corners polygon primitive as box body*
4,1,4,$2,$3,$4,$5,$6,$7,$8,$9,$2,$3,0*
0 Add four circle primitives for the rounded corners*
1,1,$1+$1,$2,$3*
1,1,$1+$1,$4,$5*
1,1,$1+$1,$6,$7*
1,1,$1+$1,$8,$9*
0 Add four rect primitives between the rounded corners*
20,1,$1+$1,$2,$3,$4,$5,0*
20,1,$1+$1,$4,$5,$6,$7,0*
20,1,$1+$1,$6,$7,$8,$9,0*
20,1,$1+$1,$8,$9,$2,$3,0*%
G04 Aperture macros list end*
%ADD10RoundRect,0.250000X-0.312500X-1.075000X0.312500X-1.075000X0.312500X1.075000X-0.312500X1.075000X0*%
%ADD11R,3.000000X3.000000*%
%ADD12C,3.000000*%
%ADD13R,1.700000X1.700000*%
%ADD14O,1.700000X1.700000*%
%ADD15C,1.200000*%
%ADD16RoundRect,0.250000X1.075000X-0.312500X1.075000X0.312500X-1.075000X0.312500X-1.075000X-0.312500X0*%
%ADD17RoundRect,0.200000X0.200000X0.275000X-0.200000X0.275000X-0.200000X-0.275000X0.200000X-0.275000X0*%
%ADD18C,6.000000*%
%ADD19RoundRect,0.250000X0.650000X-0.325000X0.650000X0.325000X-0.650000X0.325000X-0.650000X-0.325000X0*%
%ADD20R,2.000000X2.300000*%
%ADD21C,2.300000*%
%ADD22RoundRect,0.243750X-0.243750X-0.456250X0.243750X-0.456250X0.243750X0.456250X-0.243750X0.456250X0*%
%ADD23RoundRect,0.200000X-0.200000X-0.275000X0.200000X-0.275000X0.200000X0.275000X-0.200000X0.275000X0*%
%ADD24RoundRect,0.250000X0.250000X0.475000X-0.250000X0.475000X-0.250000X-0.475000X0.250000X-0.475000X0*%
%ADD25R,1.778000X1.778000*%
%ADD26C,1.778000*%
%ADD27RoundRect,0.135000X0.135000X0.185000X-0.135000X0.185000X-0.135000X-0.185000X0.135000X-0.185000X0*%
%ADD28C,1.500000*%
%ADD29R,2.500000X1.200000*%
%ADD30R,1.905000X2.000000*%
%ADD31O,1.905000X2.000000*%
%ADD32C,2.700000*%
%ADD33R,2.000000X1.780000*%
G04 APERTURE END LIST*
D10*
%TO.C,R5*%
X39812500Y-99045000D03*
X42737500Y-99045000D03*
%TD*%
D11*
%TO.C,J9*%
X80009999Y-48259999D03*
D12*
X74930000Y-48260000D03*
%TD*%
D13*
%TO.C,J8*%
X45527499Y-75564999D03*
D14*
X45527499Y-73024999D03*
%TD*%
D13*
%TO.C,J2*%
X105409999Y-60959999D03*
D14*
X107949999Y-60959999D03*
X110489999Y-60959999D03*
X113029999Y-60959999D03*
%TD*%
D15*
%TO.C,U2*%
X76200000Y-114140000D03*
X78740000Y-114140000D03*
X81280000Y-114140000D03*
X83820000Y-114140000D03*
X104140000Y-114140000D03*
X106680000Y-114140000D03*
X109220000Y-114140000D03*
X111760000Y-114140000D03*
%TD*%
D13*
%TO.C,J6*%
X43814999Y-90794999D03*
D14*
X43814999Y-88254999D03*
%TD*%
D16*
%TO.C,R4*%
X59690000Y-84647500D03*
X59690000Y-81722500D03*
%TD*%
D13*
%TO.C,AE1*%
X62864999Y-116839999D03*
%TD*%
D17*
%TO.C,R2*%
X69850000Y-104140000D03*
X68200000Y-104140000D03*
%TD*%
D18*
%TO.C,HS1*%
X38100000Y-57150000D03*
X63500000Y-57150000D03*
%TD*%
D19*
%TO.C,C1*%
X39370000Y-80850000D03*
X39370000Y-77900000D03*
%TD*%
D13*
%TO.C,J1*%
X110489999Y-71119999D03*
D14*
X107949999Y-71119999D03*
X105409999Y-71119999D03*
%TD*%
D10*
%TO.C,R6*%
X51050000Y-73025000D03*
X53975000Y-73025000D03*
%TD*%
D20*
%TO.C,PS1*%
X78739999Y-102727499D03*
D21*
X83820000Y-102727500D03*
X109220000Y-102727500D03*
X109220000Y-84947500D03*
X104140000Y-84947500D03*
%TD*%
D22*
%TO.C,D1*%
X62895000Y-104140000D03*
X64770000Y-104140000D03*
%TD*%
D23*
%TO.C,R3*%
X68200000Y-100330000D03*
X69850000Y-100330000D03*
%TD*%
D24*
%TO.C,C2*%
X53142500Y-76835000D03*
X51242500Y-76835000D03*
%TD*%
D25*
%TO.C,U1*%
X149859999Y-91439999D03*
D26*
X149860000Y-88900000D03*
X149860000Y-86360000D03*
X149860000Y-83820000D03*
X149860000Y-81280000D03*
X149860000Y-78740000D03*
X149860000Y-76200000D03*
X149860000Y-73660000D03*
X149860000Y-71120000D03*
X149860000Y-68580000D03*
X124460000Y-68580000D03*
X124460000Y-71120000D03*
X124460000Y-73660000D03*
X124460000Y-76200000D03*
X124460000Y-78740000D03*
X124460000Y-81280000D03*
X124460000Y-83820000D03*
X124460000Y-86360000D03*
X124460000Y-88900000D03*
X124460000Y-91440000D03*
%TD*%
D27*
%TO.C,R1*%
X106680000Y-66040000D03*
X105660000Y-66040000D03*
%TD*%
D28*
%TO.C,J3*%
X109220000Y-43180000D03*
X109220000Y-50180000D03*
D29*
X112469999Y-47779999D03*
X112469999Y-44779999D03*
X105969999Y-52879999D03*
X112469999Y-51779999D03*
%TD*%
D30*
%TO.C,Q1*%
X48259999Y-61434999D03*
D31*
X50799999Y-61434999D03*
X53339999Y-61434999D03*
%TD*%
D13*
%TO.C,J5*%
X39369999Y-90804999D03*
D14*
X39369999Y-88264999D03*
X39369999Y-85724999D03*
%TD*%
D32*
%TO.C,F1*%
X86540000Y-66040000D03*
D12*
X97790000Y-66040000D03*
X75290000Y-66040000D03*
%TD*%
D33*
%TO.C,U3*%
X48574999Y-99059999D03*
X48574999Y-101599999D03*
X48574999Y-104139999D03*
X58104999Y-104139999D03*
X58104999Y-101599999D03*
X58104999Y-99059999D03*
%TD*%
D13*
%TO.C,J4*%
X64769999Y-81914999D03*
D14*
X64769999Y-84454999D03*
%TD*%
D11*
%TO.C,J7*%
X95249999Y-48259999D03*
D12*
X90170000Y-48260000D03*
%TD*%
M02*
