M48
; DRILL file {KiCad (7.0.0-0)} date Thursday 16 November 2023 at 12:34:27
; FORMAT={-:-/ absolute / inch / decimal}
; #@! TF.CreationDate,2023-11-16T12:34:27+01:00
; #@! TF.GenerationSoftware,Kicad,Pcbnew,(7.0.0-0)
; #@! TF.FileFunction,Plated,1,2,PTH
FMAT,2
INCH
; #@! TA.AperFunction,Plated,PTH,ViaDrill
T1C0.0157
; #@! TA.AperFunction,Plated,PTH,ComponentDrill
T2C0.0276
; #@! TA.AperFunction,Plated,PTH,ComponentDrill
T3C0.0299
; #@! TA.AperFunction,Plated,PTH,ComponentDrill
T4C0.0315
; #@! TA.AperFunction,Plated,PTH,ComponentDrill
T5C0.0394
; #@! TA.AperFunction,Plated,PTH,ComponentDrill
T6C0.0433
; #@! TA.AperFunction,Plated,PTH,ComponentDrill
T7C0.0512
; #@! TA.AperFunction,Plated,PTH,ComponentDrill
T8C0.0598
; #@! TA.AperFunction,Plated,PTH,ComponentDrill
T9C0.0984
%
G90
G05
T1
X2.075Y-3.9
X2.425Y-3.9
X4.475Y-2.725
X4.7Y-3.9
T2
X3.0Y-4.4937
X3.1Y-4.4937
X3.2Y-4.4937
X3.3Y-4.4937
X4.1Y-4.4937
X4.2Y-4.4937
X4.3Y-4.4937
X4.4Y-4.4937
T3
X4.1Y-3.3444
X4.3Y-3.3444
X4.3Y-4.0444
T4
X3.1Y-4.0444
X3.3Y-4.0444
T5
X1.55Y-3.375
X1.55Y-3.475
X1.55Y-3.575
X1.725Y-3.4746
X1.725Y-3.5746
X1.7924Y-2.875
X1.7924Y-2.975
X2.475Y-4.6
X2.55Y-3.225
X2.55Y-3.325
X4.15Y-2.4
X4.15Y-2.8
X4.25Y-2.4
X4.25Y-2.8
X4.35Y-2.4
X4.35Y-2.8
X4.45Y-2.4
X4.9Y-2.7
X4.9Y-2.8
X4.9Y-2.9
X4.9Y-3.0
X4.9Y-3.1
X4.9Y-3.2
X4.9Y-3.3
X4.9Y-3.4
X4.9Y-3.5
X4.9Y-3.6
X5.9Y-2.7
X5.9Y-2.8
X5.9Y-2.9
X5.9Y-3.0
X5.9Y-3.1
X5.9Y-3.2
X5.9Y-3.3
X5.9Y-3.4
X5.9Y-3.5
X5.9Y-3.6
T6
X1.9Y-2.4187
X2.0Y-2.4187
X2.1Y-2.4187
T7
X2.9642Y-2.6
X3.85Y-2.6
T8
X2.95Y-1.9
X3.15Y-1.9
X3.55Y-1.9
X3.75Y-1.9
T9
X1.5Y-2.25
X2.5Y-2.25
T0
M30
