G04 #@! TF.GenerationSoftware,KiCad,Pcbnew,(6.0.0)*
G04 #@! TF.CreationDate,2022-08-19T13:46:40+02:00*
G04 #@! TF.ProjectId,bottom,626f7474-6f6d-42e6-9b69-6361645f7063,rev?*
G04 #@! TF.SameCoordinates,Original*
G04 #@! TF.FileFunction,Soldermask,Top*
G04 #@! TF.FilePolarity,Negative*
%FSLAX46Y46*%
G04 Gerber Fmt 4.6, Leading zero omitted, Abs format (unit mm)*
G04 Created by KiCad (PCBNEW (6.0.0)) date 2022-08-19 13:46:40*
%MOMM*%
%LPD*%
G01*
G04 APERTURE LIST*
%ADD10R,1.100000X4.600000*%
%ADD11R,10.800000X9.400000*%
%ADD12R,3.000000X3.000000*%
%ADD13C,3.000000*%
%ADD14R,1.700000X1.700000*%
%ADD15O,1.700000X1.700000*%
G04 APERTURE END LIST*
D10*
X120580000Y-132225000D03*
D11*
X123120000Y-123075000D03*
D10*
X123120000Y-132225000D03*
X125660000Y-132225000D03*
D12*
X104140000Y-55245000D03*
D13*
X104140000Y-60325000D03*
X104140000Y-65405000D03*
X104140000Y-70485000D03*
X104140000Y-75565000D03*
D10*
X148520000Y-149370000D03*
D11*
X151060000Y-140220000D03*
D10*
X151060000Y-149370000D03*
X153600000Y-149370000D03*
X162240000Y-81910000D03*
D11*
X164780000Y-72760000D03*
D10*
X164780000Y-81910000D03*
X167320000Y-81910000D03*
D12*
X104140000Y-82550000D03*
D13*
X104140000Y-87630000D03*
X104140000Y-92710000D03*
D14*
X113030000Y-132715000D03*
D15*
X113030000Y-135255000D03*
X113030000Y-137795000D03*
X113030000Y-140335000D03*
X113030000Y-142875000D03*
D10*
X134220000Y-82060000D03*
X136760000Y-82060000D03*
D11*
X136760000Y-72910000D03*
D10*
X139300000Y-82060000D03*
X120415000Y-64915000D03*
X122955000Y-64915000D03*
D11*
X122955000Y-55765000D03*
D10*
X125495000Y-64915000D03*
X162160000Y-107460000D03*
X164700000Y-107460000D03*
D11*
X164700000Y-98310000D03*
D10*
X167240000Y-107460000D03*
X134220000Y-64915000D03*
X136760000Y-64915000D03*
D11*
X136760000Y-55765000D03*
D10*
X139300000Y-64915000D03*
X120415000Y-107460000D03*
X122955000Y-107460000D03*
D11*
X122955000Y-98310000D03*
D10*
X125495000Y-107460000D03*
D14*
X102665000Y-110490000D03*
D15*
X102665000Y-113030000D03*
X102665000Y-115570000D03*
X102665000Y-118110000D03*
X102665000Y-120650000D03*
D10*
X134385000Y-132225000D03*
X136925000Y-132225000D03*
D11*
X136925000Y-123075000D03*
D10*
X139465000Y-132225000D03*
D12*
X182245000Y-127635000D03*
D13*
X182245000Y-132715000D03*
X182245000Y-137795000D03*
X182245000Y-142875000D03*
X182245000Y-147955000D03*
D10*
X148355000Y-107460000D03*
D11*
X150895000Y-98310000D03*
D10*
X150895000Y-107460000D03*
X153435000Y-107460000D03*
D14*
X173355000Y-107940000D03*
D15*
X173355000Y-105400000D03*
X173355000Y-102860000D03*
X173355000Y-100320000D03*
D10*
X120415000Y-82060000D03*
X122955000Y-82060000D03*
D11*
X122955000Y-72910000D03*
D10*
X125495000Y-82060000D03*
D12*
X182245000Y-82550000D03*
D13*
X182245000Y-87630000D03*
X182245000Y-92710000D03*
D12*
X104140000Y-127635000D03*
D13*
X104140000Y-132715000D03*
X104140000Y-137795000D03*
X104140000Y-142875000D03*
X104140000Y-147955000D03*
D10*
X120580000Y-149370000D03*
X123120000Y-149370000D03*
D11*
X123120000Y-140220000D03*
D10*
X125660000Y-149370000D03*
D14*
X113030000Y-83820000D03*
D15*
X113030000Y-86360000D03*
X113030000Y-88900000D03*
X113030000Y-91440000D03*
D14*
X113030000Y-60325000D03*
D15*
X113030000Y-62865000D03*
X113030000Y-65405000D03*
X113030000Y-67945000D03*
X113030000Y-70485000D03*
D14*
X173355000Y-134605000D03*
D15*
X173355000Y-132065000D03*
X173355000Y-129525000D03*
X173355000Y-126985000D03*
X173355000Y-124445000D03*
X173355000Y-121905000D03*
X173355000Y-119365000D03*
X173355000Y-116825000D03*
D14*
X173355000Y-72390000D03*
D15*
X173355000Y-74930000D03*
X173355000Y-77470000D03*
X173355000Y-80010000D03*
X173355000Y-82550000D03*
X173355000Y-85090000D03*
X173355000Y-87630000D03*
X173355000Y-90170000D03*
D14*
X107315000Y-110490000D03*
D15*
X107315000Y-113030000D03*
X107315000Y-115570000D03*
X107315000Y-118110000D03*
X107315000Y-120650000D03*
D10*
X162325000Y-132225000D03*
D11*
X164865000Y-123075000D03*
D10*
X164865000Y-132225000D03*
X167405000Y-132225000D03*
X162160000Y-64915000D03*
X164700000Y-64915000D03*
D11*
X164700000Y-55765000D03*
D10*
X167240000Y-64915000D03*
D14*
X113030000Y-110490000D03*
D15*
X113030000Y-113030000D03*
X113030000Y-115570000D03*
X113030000Y-118110000D03*
X113030000Y-120650000D03*
D12*
X182245000Y-55245000D03*
D13*
X182245000Y-60325000D03*
X182245000Y-65405000D03*
X182245000Y-70485000D03*
X182245000Y-75565000D03*
D10*
X134385000Y-149370000D03*
X136925000Y-149370000D03*
D11*
X136925000Y-140220000D03*
D10*
X139465000Y-149370000D03*
X134305000Y-107460000D03*
X136845000Y-107460000D03*
D11*
X136845000Y-98310000D03*
D10*
X139385000Y-107460000D03*
X148520000Y-132225000D03*
X151060000Y-132225000D03*
D11*
X151060000Y-123075000D03*
D10*
X153600000Y-132225000D03*
X148355000Y-82060000D03*
X150895000Y-82060000D03*
D11*
X150895000Y-72910000D03*
D10*
X153435000Y-82060000D03*
X148355000Y-64915000D03*
X150895000Y-64915000D03*
D11*
X150895000Y-55765000D03*
D10*
X153435000Y-64915000D03*
X162405000Y-149220000D03*
D11*
X164945000Y-140070000D03*
D10*
X164945000Y-149220000D03*
X167485000Y-149220000D03*
M02*
