G04 #@! TF.GenerationSoftware,KiCad,Pcbnew,(6.0.0)*
G04 #@! TF.CreationDate,2022-08-19T13:46:40+02:00*
G04 #@! TF.ProjectId,bottom,626f7474-6f6d-42e6-9b69-6361645f7063,rev?*
G04 #@! TF.SameCoordinates,Original*
G04 #@! TF.FileFunction,Soldermask,Bot*
G04 #@! TF.FilePolarity,Negative*
%FSLAX46Y46*%
G04 Gerber Fmt 4.6, Leading zero omitted, Abs format (unit mm)*
G04 Created by KiCad (PCBNEW (6.0.0)) date 2022-08-19 13:46:40*
%MOMM*%
%LPD*%
G01*
G04 APERTURE LIST*
%ADD10R,3.000000X3.000000*%
%ADD11C,3.000000*%
%ADD12R,1.700000X1.700000*%
%ADD13O,1.700000X1.700000*%
G04 APERTURE END LIST*
D10*
X104140000Y-55245000D03*
D11*
X104140000Y-60325000D03*
X104140000Y-65405000D03*
X104140000Y-70485000D03*
X104140000Y-75565000D03*
D10*
X104140000Y-82550000D03*
D11*
X104140000Y-87630000D03*
X104140000Y-92710000D03*
D12*
X113030000Y-132715000D03*
D13*
X113030000Y-135255000D03*
X113030000Y-137795000D03*
X113030000Y-140335000D03*
X113030000Y-142875000D03*
D12*
X102665000Y-110490000D03*
D13*
X102665000Y-113030000D03*
X102665000Y-115570000D03*
X102665000Y-118110000D03*
X102665000Y-120650000D03*
D10*
X182245000Y-127635000D03*
D11*
X182245000Y-132715000D03*
X182245000Y-137795000D03*
X182245000Y-142875000D03*
X182245000Y-147955000D03*
D12*
X173355000Y-107940000D03*
D13*
X173355000Y-105400000D03*
X173355000Y-102860000D03*
X173355000Y-100320000D03*
D10*
X182245000Y-82550000D03*
D11*
X182245000Y-87630000D03*
X182245000Y-92710000D03*
D10*
X104140000Y-127635000D03*
D11*
X104140000Y-132715000D03*
X104140000Y-137795000D03*
X104140000Y-142875000D03*
X104140000Y-147955000D03*
D12*
X113030000Y-83820000D03*
D13*
X113030000Y-86360000D03*
X113030000Y-88900000D03*
X113030000Y-91440000D03*
D12*
X113030000Y-60325000D03*
D13*
X113030000Y-62865000D03*
X113030000Y-65405000D03*
X113030000Y-67945000D03*
X113030000Y-70485000D03*
D12*
X173355000Y-134605000D03*
D13*
X173355000Y-132065000D03*
X173355000Y-129525000D03*
X173355000Y-126985000D03*
X173355000Y-124445000D03*
X173355000Y-121905000D03*
X173355000Y-119365000D03*
X173355000Y-116825000D03*
D12*
X173355000Y-72390000D03*
D13*
X173355000Y-74930000D03*
X173355000Y-77470000D03*
X173355000Y-80010000D03*
X173355000Y-82550000D03*
X173355000Y-85090000D03*
X173355000Y-87630000D03*
X173355000Y-90170000D03*
D12*
X107315000Y-110490000D03*
D13*
X107315000Y-113030000D03*
X107315000Y-115570000D03*
X107315000Y-118110000D03*
X107315000Y-120650000D03*
D12*
X113030000Y-110490000D03*
D13*
X113030000Y-113030000D03*
X113030000Y-115570000D03*
X113030000Y-118110000D03*
X113030000Y-120650000D03*
D10*
X182245000Y-55245000D03*
D11*
X182245000Y-60325000D03*
X182245000Y-65405000D03*
X182245000Y-70485000D03*
X182245000Y-75565000D03*
M02*
