%FSLAX45Y45*%
G04 Gerber Fmt 4.5, Leading zero omitted, Abs format (unit mm)*
G04 Created by KiCad (PCBNEW (6.0.0)) date 2022-08-19 13:47:37*
%MOMM*%
%LPD*%
G01*
G04 APERTURE LIST*
%TA.AperFunction,Profile*%
%ADD10C,0.100000*%
%TD*%
%ADD11C,0.200000*%
G04 APERTURE END LIST*
D10*
X10000000Y-5000000D02*
X18650000Y-5000000D01*
X10000000Y-15300000D02*
X10000000Y-5000000D01*
X18650000Y-15300000D02*
X18650000Y-5000000D01*
X10000000Y-15300000D02*
X18650000Y-15300000D01*
D11*
X10252619Y-15615476D02*
X10252619Y-15415476D01*
X10300238Y-15415476D01*
X10328810Y-15425000D01*
X10347857Y-15444048D01*
X10357381Y-15463095D01*
X10366905Y-15501190D01*
X10366905Y-15529762D01*
X10357381Y-15567857D01*
X10347857Y-15586905D01*
X10328810Y-15605952D01*
X10300238Y-15615476D01*
X10252619Y-15615476D01*
X10452619Y-15615476D02*
X10452619Y-15482143D01*
X10452619Y-15520238D02*
X10462143Y-15501190D01*
X10471667Y-15491667D01*
X10490714Y-15482143D01*
X10509762Y-15482143D01*
X10576429Y-15615476D02*
X10576429Y-15482143D01*
X10576429Y-15415476D02*
X10566905Y-15425000D01*
X10576429Y-15434524D01*
X10585952Y-15425000D01*
X10576429Y-15415476D01*
X10576429Y-15434524D01*
X10700238Y-15615476D02*
X10681190Y-15605952D01*
X10671667Y-15586905D01*
X10671667Y-15415476D01*
X10805000Y-15615476D02*
X10785952Y-15605952D01*
X10776429Y-15586905D01*
X10776429Y-15415476D01*
X11033571Y-15615476D02*
X11033571Y-15415476D01*
X11100238Y-15558333D01*
X11166905Y-15415476D01*
X11166905Y-15615476D01*
X11347857Y-15615476D02*
X11347857Y-15510714D01*
X11338333Y-15491667D01*
X11319286Y-15482143D01*
X11281190Y-15482143D01*
X11262143Y-15491667D01*
X11347857Y-15605952D02*
X11328809Y-15615476D01*
X11281190Y-15615476D01*
X11262143Y-15605952D01*
X11252619Y-15586905D01*
X11252619Y-15567857D01*
X11262143Y-15548809D01*
X11281190Y-15539286D01*
X11328809Y-15539286D01*
X11347857Y-15529762D01*
X11443095Y-15482143D02*
X11443095Y-15682143D01*
X11443095Y-15491667D02*
X11462143Y-15482143D01*
X11500238Y-15482143D01*
X11519286Y-15491667D01*
X11528809Y-15501190D01*
X11538333Y-15520238D01*
X11538333Y-15577381D01*
X11528809Y-15596428D01*
X11519286Y-15605952D01*
X11500238Y-15615476D01*
X11462143Y-15615476D01*
X11443095Y-15605952D01*
X11624048Y-15596428D02*
X11633571Y-15605952D01*
X11624048Y-15615476D01*
X11614524Y-15605952D01*
X11624048Y-15596428D01*
X11624048Y-15615476D01*
X11624048Y-15491667D02*
X11633571Y-15501190D01*
X11624048Y-15510714D01*
X11614524Y-15501190D01*
X11624048Y-15491667D01*
X11624048Y-15510714D01*
M02*
