G04 #@! TF.GenerationSoftware,KiCad,Pcbnew,(6.0.0)*
G04 #@! TF.CreationDate,2022-08-19T13:46:40+02:00*
G04 #@! TF.ProjectId,bottom,626f7474-6f6d-42e6-9b69-6361645f7063,rev?*
G04 #@! TF.SameCoordinates,Original*
G04 #@! TF.FileFunction,Paste,Top*
G04 #@! TF.FilePolarity,Positive*
%FSLAX46Y46*%
G04 Gerber Fmt 4.6, Leading zero omitted, Abs format (unit mm)*
G04 Created by KiCad (PCBNEW (6.0.0)) date 2022-08-19 13:46:40*
%MOMM*%
%LPD*%
G01*
G04 APERTURE LIST*
%ADD10R,5.250000X4.550000*%
%ADD11R,1.100000X4.600000*%
G04 APERTURE END LIST*
D10*
X125895000Y-120650000D03*
X120345000Y-120650000D03*
X125895000Y-125500000D03*
X120345000Y-125500000D03*
D11*
X120580000Y-132225000D03*
X123120000Y-132225000D03*
X125660000Y-132225000D03*
D10*
X148285000Y-142645000D03*
X153835000Y-137795000D03*
X153835000Y-142645000D03*
X148285000Y-137795000D03*
D11*
X148520000Y-149370000D03*
X151060000Y-149370000D03*
X153600000Y-149370000D03*
D10*
X167555000Y-70335000D03*
X162005000Y-75185000D03*
X167555000Y-75185000D03*
X162005000Y-70335000D03*
D11*
X162240000Y-81910000D03*
X164780000Y-81910000D03*
X167320000Y-81910000D03*
D10*
X133985000Y-70485000D03*
X139535000Y-70485000D03*
X133985000Y-75335000D03*
X139535000Y-75335000D03*
D11*
X134220000Y-82060000D03*
X136760000Y-82060000D03*
X139300000Y-82060000D03*
D10*
X120180000Y-53340000D03*
X120180000Y-58190000D03*
X125730000Y-58190000D03*
X125730000Y-53340000D03*
D11*
X120415000Y-64915000D03*
X122955000Y-64915000D03*
X125495000Y-64915000D03*
D10*
X161925000Y-95885000D03*
X167475000Y-95885000D03*
X161925000Y-100735000D03*
X167475000Y-100735000D03*
D11*
X162160000Y-107460000D03*
X164700000Y-107460000D03*
X167240000Y-107460000D03*
D10*
X133985000Y-53340000D03*
X139535000Y-58190000D03*
X133985000Y-58190000D03*
X139535000Y-53340000D03*
D11*
X134220000Y-64915000D03*
X136760000Y-64915000D03*
X139300000Y-64915000D03*
D10*
X120180000Y-95885000D03*
X125730000Y-95885000D03*
X125730000Y-100735000D03*
X120180000Y-100735000D03*
D11*
X120415000Y-107460000D03*
X122955000Y-107460000D03*
X125495000Y-107460000D03*
D10*
X134150000Y-120650000D03*
X139700000Y-125500000D03*
X139700000Y-120650000D03*
X134150000Y-125500000D03*
D11*
X134385000Y-132225000D03*
X136925000Y-132225000D03*
X139465000Y-132225000D03*
D10*
X148120000Y-95885000D03*
X148120000Y-100735000D03*
X153670000Y-95885000D03*
X153670000Y-100735000D03*
D11*
X148355000Y-107460000D03*
X150895000Y-107460000D03*
X153435000Y-107460000D03*
D10*
X120180000Y-75335000D03*
X125730000Y-75335000D03*
X125730000Y-70485000D03*
X120180000Y-70485000D03*
D11*
X120415000Y-82060000D03*
X122955000Y-82060000D03*
X125495000Y-82060000D03*
D10*
X125895000Y-142645000D03*
X120345000Y-142645000D03*
X125895000Y-137795000D03*
X120345000Y-137795000D03*
D11*
X120580000Y-149370000D03*
X123120000Y-149370000D03*
X125660000Y-149370000D03*
D10*
X162090000Y-120650000D03*
X167640000Y-120650000D03*
X167640000Y-125500000D03*
X162090000Y-125500000D03*
D11*
X162325000Y-132225000D03*
X164865000Y-132225000D03*
X167405000Y-132225000D03*
D10*
X161925000Y-58190000D03*
X161925000Y-53340000D03*
X167475000Y-53340000D03*
X167475000Y-58190000D03*
D11*
X162160000Y-64915000D03*
X164700000Y-64915000D03*
X167240000Y-64915000D03*
D10*
X134150000Y-142645000D03*
X139700000Y-137795000D03*
X139700000Y-142645000D03*
X134150000Y-137795000D03*
D11*
X134385000Y-149370000D03*
X136925000Y-149370000D03*
X139465000Y-149370000D03*
D10*
X139620000Y-100735000D03*
X139620000Y-95885000D03*
X134070000Y-95885000D03*
X134070000Y-100735000D03*
D11*
X134305000Y-107460000D03*
X136845000Y-107460000D03*
X139385000Y-107460000D03*
D10*
X153835000Y-120650000D03*
X148285000Y-125500000D03*
X153835000Y-125500000D03*
X148285000Y-120650000D03*
D11*
X148520000Y-132225000D03*
X151060000Y-132225000D03*
X153600000Y-132225000D03*
D10*
X153670000Y-70485000D03*
X153670000Y-75335000D03*
X148120000Y-70485000D03*
X148120000Y-75335000D03*
D11*
X148355000Y-82060000D03*
X150895000Y-82060000D03*
X153435000Y-82060000D03*
D10*
X153670000Y-53340000D03*
X148120000Y-58190000D03*
X148120000Y-53340000D03*
X153670000Y-58190000D03*
D11*
X148355000Y-64915000D03*
X150895000Y-64915000D03*
X153435000Y-64915000D03*
D10*
X167720000Y-137645000D03*
X162170000Y-142495000D03*
X167720000Y-142495000D03*
X162170000Y-137645000D03*
D11*
X162405000Y-149220000D03*
X164945000Y-149220000D03*
X167485000Y-149220000D03*
M02*
