M48
; DRILL file {KiCad (6.0.0)} date Fri Aug 19 13:47:04 2022
; FORMAT={-:-/ absolute / metric / decimal}
; #@! TF.CreationDate,2022-08-19T13:47:04+02:00
; #@! TF.GenerationSoftware,Kicad,Pcbnew,(6.0.0)
; #@! TF.FileFunction,Plated,1,2,PTH
FMAT,2
METRIC
; #@! TA.AperFunction,Plated,PTH,ViaDrill
T1C0.400
; #@! TA.AperFunction,Plated,PTH,ComponentDrill
T2C1.000
; #@! TA.AperFunction,Plated,PTH,ComponentDrill
T3C1.520
%
G90
G05
T1
X117.945Y-66.675
X118.11Y-107.315
X118.11Y-130.81
X118.11Y-133.985
X127.635Y-91.44
X128.27Y-130.81
X131.915Y-66.675
X132.08Y-107.315
X132.08Y-130.81
X132.08Y-133.985
X142.24Y-130.81
X145.415Y-81.28
X145.885Y-66.675
X146.05Y-107.315
X146.05Y-130.81
X146.05Y-133.985
X151.13Y-111.76
X155.575Y-91.44
X156.21Y-130.81
X159.385Y-80.645
X159.385Y-82.55
X160.02Y-66.675
X160.02Y-107.315
X160.02Y-130.81
X160.185Y-133.985
X169.545Y-111.76
T2
X102.665Y-110.49
X102.665Y-113.03
X102.665Y-115.57
X102.665Y-118.11
X102.665Y-120.65
X107.315Y-110.49
X107.315Y-113.03
X107.315Y-115.57
X107.315Y-118.11
X107.315Y-120.65
X113.03Y-60.325
X113.03Y-62.865
X113.03Y-65.405
X113.03Y-67.945
X113.03Y-70.485
X113.03Y-83.82
X113.03Y-86.36
X113.03Y-88.9
X113.03Y-91.44
X113.03Y-110.49
X113.03Y-113.03
X113.03Y-115.57
X113.03Y-118.11
X113.03Y-120.65
X113.03Y-132.715
X113.03Y-135.255
X113.03Y-137.795
X113.03Y-140.335
X113.03Y-142.875
X173.355Y-72.39
X173.355Y-74.93
X173.355Y-77.47
X173.355Y-80.01
X173.355Y-82.55
X173.355Y-85.09
X173.355Y-87.63
X173.355Y-90.17
X173.355Y-100.32
X173.355Y-102.86
X173.355Y-105.4
X173.355Y-107.94
X173.355Y-116.825
X173.355Y-119.365
X173.355Y-121.905
X173.355Y-124.445
X173.355Y-126.985
X173.355Y-129.525
X173.355Y-132.065
X173.355Y-134.605
T3
X104.14Y-55.245
X104.14Y-60.325
X104.14Y-65.405
X104.14Y-70.485
X104.14Y-75.565
X104.14Y-82.55
X104.14Y-87.63
X104.14Y-92.71
X104.14Y-127.635
X104.14Y-132.715
X104.14Y-137.795
X104.14Y-142.875
X104.14Y-147.955
X182.245Y-55.245
X182.245Y-60.325
X182.245Y-65.405
X182.245Y-70.485
X182.245Y-75.565
X182.245Y-82.55
X182.245Y-87.63
X182.245Y-92.71
X182.245Y-127.635
X182.245Y-132.715
X182.245Y-137.795
X182.245Y-142.875
X182.245Y-147.955
T0
M30
