G04 #@! TF.GenerationSoftware,KiCad,Pcbnew,(6.0.0)*
G04 #@! TF.CreationDate,2022-08-19T13:46:40+02:00*
G04 #@! TF.ProjectId,bottom,626f7474-6f6d-42e6-9b69-6361645f7063,rev?*
G04 #@! TF.SameCoordinates,Original*
G04 #@! TF.FileFunction,Copper,L2,Bot*
G04 #@! TF.FilePolarity,Positive*
%FSLAX46Y46*%
G04 Gerber Fmt 4.6, Leading zero omitted, Abs format (unit mm)*
G04 Created by KiCad (PCBNEW (6.0.0)) date 2022-08-19 13:46:40*
%MOMM*%
%LPD*%
G01*
G04 APERTURE LIST*
G04 #@! TA.AperFunction,ComponentPad*
%ADD10R,3.000000X3.000000*%
G04 #@! TD*
G04 #@! TA.AperFunction,ComponentPad*
%ADD11C,3.000000*%
G04 #@! TD*
G04 #@! TA.AperFunction,ComponentPad*
%ADD12R,1.700000X1.700000*%
G04 #@! TD*
G04 #@! TA.AperFunction,ComponentPad*
%ADD13O,1.700000X1.700000*%
G04 #@! TD*
G04 #@! TA.AperFunction,ViaPad*
%ADD14C,0.800000*%
G04 #@! TD*
G04 #@! TA.AperFunction,Conductor*
%ADD15C,0.250000*%
G04 #@! TD*
G04 #@! TA.AperFunction,Conductor*
%ADD16C,1.000000*%
G04 #@! TD*
G04 APERTURE END LIST*
D10*
X104140000Y-55245000D03*
D11*
X104140000Y-60325000D03*
X104140000Y-65405000D03*
X104140000Y-70485000D03*
X104140000Y-75565000D03*
D10*
X104140000Y-82550000D03*
D11*
X104140000Y-87630000D03*
X104140000Y-92710000D03*
D12*
X113030000Y-132715000D03*
D13*
X113030000Y-135255000D03*
X113030000Y-137795000D03*
X113030000Y-140335000D03*
X113030000Y-142875000D03*
D12*
X102665000Y-110490000D03*
D13*
X102665000Y-113030000D03*
X102665000Y-115570000D03*
X102665000Y-118110000D03*
X102665000Y-120650000D03*
D10*
X182245000Y-127635000D03*
D11*
X182245000Y-132715000D03*
X182245000Y-137795000D03*
X182245000Y-142875000D03*
X182245000Y-147955000D03*
D12*
X173355000Y-107940000D03*
D13*
X173355000Y-105400000D03*
X173355000Y-102860000D03*
X173355000Y-100320000D03*
D10*
X182245000Y-82550000D03*
D11*
X182245000Y-87630000D03*
X182245000Y-92710000D03*
D10*
X104140000Y-127635000D03*
D11*
X104140000Y-132715000D03*
X104140000Y-137795000D03*
X104140000Y-142875000D03*
X104140000Y-147955000D03*
D12*
X113030000Y-83820000D03*
D13*
X113030000Y-86360000D03*
X113030000Y-88900000D03*
X113030000Y-91440000D03*
D12*
X113030000Y-60325000D03*
D13*
X113030000Y-62865000D03*
X113030000Y-65405000D03*
X113030000Y-67945000D03*
X113030000Y-70485000D03*
D12*
X173355000Y-134605000D03*
D13*
X173355000Y-132065000D03*
X173355000Y-129525000D03*
X173355000Y-126985000D03*
X173355000Y-124445000D03*
X173355000Y-121905000D03*
X173355000Y-119365000D03*
X173355000Y-116825000D03*
D12*
X173355000Y-72390000D03*
D13*
X173355000Y-74930000D03*
X173355000Y-77470000D03*
X173355000Y-80010000D03*
X173355000Y-82550000D03*
X173355000Y-85090000D03*
X173355000Y-87630000D03*
X173355000Y-90170000D03*
D12*
X107315000Y-110490000D03*
D13*
X107315000Y-113030000D03*
X107315000Y-115570000D03*
X107315000Y-118110000D03*
X107315000Y-120650000D03*
D12*
X113030000Y-110490000D03*
D13*
X113030000Y-113030000D03*
X113030000Y-115570000D03*
X113030000Y-118110000D03*
X113030000Y-120650000D03*
D10*
X182245000Y-55245000D03*
D11*
X182245000Y-60325000D03*
X182245000Y-65405000D03*
X182245000Y-70485000D03*
X182245000Y-75565000D03*
D14*
X159385000Y-80645000D03*
X159385000Y-82550000D03*
X145415000Y-81280000D03*
X160020000Y-66675000D03*
X145885000Y-66675000D03*
X131915000Y-66675000D03*
X117945000Y-66675000D03*
X160020000Y-130810000D03*
X156210000Y-130810000D03*
X146050000Y-130810000D03*
X142240000Y-130810000D03*
X132080000Y-130810000D03*
X128270000Y-130810000D03*
X118110000Y-130810000D03*
X160185000Y-133985000D03*
X146050000Y-133985000D03*
X132080000Y-133985000D03*
X118110000Y-133985000D03*
X155575000Y-91440000D03*
X160020000Y-107315000D03*
X146050000Y-107315000D03*
X169545000Y-111760000D03*
X151130000Y-111760000D03*
X132080000Y-107315000D03*
X118110000Y-107315000D03*
X127635000Y-91440000D03*
D15*
X166370000Y-74930000D02*
X160655000Y-80645000D01*
X173355000Y-74930000D02*
X166370000Y-74930000D01*
X160655000Y-80645000D02*
X159385000Y-80645000D01*
X173355000Y-77470000D02*
X165735000Y-77470000D01*
X165735000Y-77470000D02*
X160655000Y-82550000D01*
X160655000Y-82550000D02*
X159385000Y-82550000D01*
X148590000Y-84455000D02*
X145415000Y-81280000D01*
X173355000Y-80010000D02*
X165100000Y-80010000D01*
X165100000Y-80010000D02*
X160655000Y-84455000D01*
X160655000Y-84455000D02*
X148590000Y-84455000D01*
D16*
X160020000Y-66675000D02*
X166370000Y-60325000D01*
X166370000Y-60325000D02*
X182245000Y-60325000D01*
X156845000Y-66675000D02*
X158750000Y-68580000D01*
X145885000Y-66675000D02*
X156845000Y-66675000D01*
X165100000Y-65405000D02*
X182245000Y-65405000D01*
X161925000Y-68580000D02*
X165100000Y-65405000D01*
X158750000Y-68580000D02*
X161925000Y-68580000D01*
X165735000Y-67945000D02*
X179705000Y-67945000D01*
X179705000Y-67945000D02*
X182245000Y-70485000D01*
X135725000Y-70485000D02*
X163195000Y-70485000D01*
X163195000Y-70485000D02*
X165735000Y-67945000D01*
X131915000Y-66675000D02*
X135725000Y-70485000D01*
X117945000Y-66675000D02*
X126835000Y-75565000D01*
X177165000Y-70485000D02*
X167640000Y-70485000D01*
X126835000Y-75565000D02*
X162560000Y-75565000D01*
X182245000Y-75565000D02*
X177165000Y-70485000D01*
X167640000Y-70485000D02*
X162560000Y-75565000D01*
D15*
X173355000Y-132065000D02*
X161275000Y-132065000D01*
X161275000Y-132065000D02*
X160020000Y-130810000D01*
X157495000Y-129525000D02*
X156210000Y-130810000D01*
X173355000Y-129525000D02*
X157495000Y-129525000D01*
X173355000Y-126985000D02*
X149875000Y-126985000D01*
X149875000Y-126985000D02*
X146050000Y-130810000D01*
X173355000Y-124445000D02*
X148605000Y-124445000D01*
X148605000Y-124445000D02*
X142240000Y-130810000D01*
X173355000Y-121905000D02*
X140985000Y-121905000D01*
X140985000Y-121905000D02*
X132080000Y-130810000D01*
X173355000Y-119365000D02*
X139715000Y-119365000D01*
X139715000Y-119365000D02*
X128270000Y-130810000D01*
X173355000Y-116825000D02*
X132095000Y-116825000D01*
X132095000Y-116825000D02*
X118110000Y-130810000D01*
D16*
X178435000Y-136525000D02*
X162725000Y-136525000D01*
X160185000Y-133985000D02*
X162725000Y-136525000D01*
X178435000Y-136525000D02*
X182245000Y-132715000D01*
X151130000Y-139065000D02*
X180975000Y-139065000D01*
X180975000Y-139065000D02*
X182245000Y-137795000D01*
X146050000Y-133985000D02*
X151130000Y-139065000D01*
X140970000Y-142875000D02*
X182245000Y-142875000D01*
X132080000Y-133985000D02*
X140970000Y-142875000D01*
X118110000Y-133985000D02*
X132080000Y-147955000D01*
X132080000Y-147955000D02*
X182245000Y-147955000D01*
X174625000Y-92710000D02*
X176530000Y-90805000D01*
X178435000Y-82550000D02*
X182245000Y-82550000D01*
X176530000Y-84455000D02*
X178435000Y-82550000D01*
X176530000Y-90805000D02*
X176530000Y-84455000D01*
X169545000Y-91440000D02*
X170815000Y-92710000D01*
X155575000Y-91440000D02*
X169545000Y-91440000D01*
X170815000Y-92710000D02*
X174625000Y-92710000D01*
D15*
X161935000Y-105400000D02*
X173355000Y-105400000D01*
X160020000Y-107315000D02*
X161935000Y-105400000D01*
X160020000Y-107315000D02*
X146050000Y-107315000D01*
X169545000Y-111760000D02*
X151130000Y-111760000D01*
X132080000Y-107315000D02*
X139075000Y-100320000D01*
X139075000Y-100320000D02*
X173355000Y-100320000D01*
X132080000Y-107315000D02*
X118110000Y-107315000D01*
D16*
X154940000Y-95250000D02*
X179705000Y-95250000D01*
X179705000Y-95250000D02*
X182245000Y-92710000D01*
X151130000Y-91440000D02*
X154940000Y-95250000D01*
X127635000Y-91440000D02*
X151130000Y-91440000D01*
M02*
