%FSLAX45Y45*%
G04 Gerber Fmt 4.5, Leading zero omitted, Abs format (unit mm)*
G04 Created by KiCad (PCBNEW (6.0.0)) date 2022-08-19 13:47:37*
%MOMM*%
%LPD*%
G01*
G04 APERTURE LIST*
%TA.AperFunction,Profile*%
%ADD10C,0.100000*%
%TD*%
%ADD11C,0.200000*%
%ADD12C,0.040000*%
%ADD13C,0.100000*%
%ADD14C,0.152000*%
G04 APERTURE END LIST*
D10*
X10000000Y-5000000D02*
X18650000Y-5000000D01*
X10000000Y-15300000D02*
X10000000Y-5000000D01*
X18650000Y-15300000D02*
X18650000Y-5000000D01*
X10000000Y-15300000D02*
X18650000Y-15300000D01*
D11*
D12*
X11774500Y-6647500D02*
X11814500Y-6687500D01*
X11814500Y-6647500D02*
X11774500Y-6687500D01*
X11791000Y-10711500D02*
X11831000Y-10751500D01*
X11831000Y-10711500D02*
X11791000Y-10751500D01*
X11791000Y-13061000D02*
X11831000Y-13101000D01*
X11831000Y-13061000D02*
X11791000Y-13101000D01*
X11791000Y-13378500D02*
X11831000Y-13418500D01*
X11831000Y-13378500D02*
X11791000Y-13418500D01*
X12743500Y-9124000D02*
X12783500Y-9164000D01*
X12783500Y-9124000D02*
X12743500Y-9164000D01*
X12807000Y-13061000D02*
X12847000Y-13101000D01*
X12847000Y-13061000D02*
X12807000Y-13101000D01*
X13171500Y-6647500D02*
X13211500Y-6687500D01*
X13211500Y-6647500D02*
X13171500Y-6687500D01*
X13188000Y-10711500D02*
X13228000Y-10751500D01*
X13228000Y-10711500D02*
X13188000Y-10751500D01*
X13188000Y-13061000D02*
X13228000Y-13101000D01*
X13228000Y-13061000D02*
X13188000Y-13101000D01*
X13188000Y-13378500D02*
X13228000Y-13418500D01*
X13228000Y-13378500D02*
X13188000Y-13418500D01*
X14204000Y-13061000D02*
X14244000Y-13101000D01*
X14244000Y-13061000D02*
X14204000Y-13101000D01*
X14521500Y-8108000D02*
X14561500Y-8148000D01*
X14561500Y-8108000D02*
X14521500Y-8148000D01*
X14568500Y-6647500D02*
X14608500Y-6687500D01*
X14608500Y-6647500D02*
X14568500Y-6687500D01*
X14585000Y-10711500D02*
X14625000Y-10751500D01*
X14625000Y-10711500D02*
X14585000Y-10751500D01*
X14585000Y-13061000D02*
X14625000Y-13101000D01*
X14625000Y-13061000D02*
X14585000Y-13101000D01*
X14585000Y-13378500D02*
X14625000Y-13418500D01*
X14625000Y-13378500D02*
X14585000Y-13418500D01*
X15093000Y-11156000D02*
X15133000Y-11196000D01*
X15133000Y-11156000D02*
X15093000Y-11196000D01*
X15537500Y-9124000D02*
X15577500Y-9164000D01*
X15577500Y-9124000D02*
X15537500Y-9164000D01*
X15601000Y-13061000D02*
X15641000Y-13101000D01*
X15641000Y-13061000D02*
X15601000Y-13101000D01*
X15918500Y-8044500D02*
X15958500Y-8084500D01*
X15958500Y-8044500D02*
X15918500Y-8084500D01*
X15918500Y-8235000D02*
X15958500Y-8275000D01*
X15958500Y-8235000D02*
X15918500Y-8275000D01*
X15982000Y-6647500D02*
X16022000Y-6687500D01*
X16022000Y-6647500D02*
X15982000Y-6687500D01*
X15982000Y-10711500D02*
X16022000Y-10751500D01*
X16022000Y-10711500D02*
X15982000Y-10751500D01*
X15982000Y-13061000D02*
X16022000Y-13101000D01*
X16022000Y-13061000D02*
X15982000Y-13101000D01*
X15998500Y-13378500D02*
X16038500Y-13418500D01*
X16038500Y-13378500D02*
X15998500Y-13418500D01*
X16934500Y-11156000D02*
X16974500Y-11196000D01*
X16974500Y-11156000D02*
X16934500Y-11196000D01*
D13*
X10316500Y-11049000D02*
G75*
G03*
X10316500Y-11049000I-50000J0D01*
G01*
X10316500Y-11303000D02*
G75*
G03*
X10316500Y-11303000I-50000J0D01*
G01*
X10316500Y-11557000D02*
G75*
G03*
X10316500Y-11557000I-50000J0D01*
G01*
X10316500Y-11811000D02*
G75*
G03*
X10316500Y-11811000I-50000J0D01*
G01*
X10316500Y-12065000D02*
G75*
G03*
X10316500Y-12065000I-50000J0D01*
G01*
X10781500Y-11049000D02*
G75*
G03*
X10781500Y-11049000I-50000J0D01*
G01*
X10781500Y-11303000D02*
G75*
G03*
X10781500Y-11303000I-50000J0D01*
G01*
X10781500Y-11557000D02*
G75*
G03*
X10781500Y-11557000I-50000J0D01*
G01*
X10781500Y-11811000D02*
G75*
G03*
X10781500Y-11811000I-50000J0D01*
G01*
X10781500Y-12065000D02*
G75*
G03*
X10781500Y-12065000I-50000J0D01*
G01*
X11353000Y-6032500D02*
G75*
G03*
X11353000Y-6032500I-50000J0D01*
G01*
X11353000Y-6286500D02*
G75*
G03*
X11353000Y-6286500I-50000J0D01*
G01*
X11353000Y-6540500D02*
G75*
G03*
X11353000Y-6540500I-50000J0D01*
G01*
X11353000Y-6794500D02*
G75*
G03*
X11353000Y-6794500I-50000J0D01*
G01*
X11353000Y-7048500D02*
G75*
G03*
X11353000Y-7048500I-50000J0D01*
G01*
X11353000Y-8382000D02*
G75*
G03*
X11353000Y-8382000I-50000J0D01*
G01*
X11353000Y-8636000D02*
G75*
G03*
X11353000Y-8636000I-50000J0D01*
G01*
X11353000Y-8890000D02*
G75*
G03*
X11353000Y-8890000I-50000J0D01*
G01*
X11353000Y-9144000D02*
G75*
G03*
X11353000Y-9144000I-50000J0D01*
G01*
X11353000Y-11049000D02*
G75*
G03*
X11353000Y-11049000I-50000J0D01*
G01*
X11353000Y-11303000D02*
G75*
G03*
X11353000Y-11303000I-50000J0D01*
G01*
X11353000Y-11557000D02*
G75*
G03*
X11353000Y-11557000I-50000J0D01*
G01*
X11353000Y-11811000D02*
G75*
G03*
X11353000Y-11811000I-50000J0D01*
G01*
X11353000Y-12065000D02*
G75*
G03*
X11353000Y-12065000I-50000J0D01*
G01*
X11353000Y-13271500D02*
G75*
G03*
X11353000Y-13271500I-50000J0D01*
G01*
X11353000Y-13525500D02*
G75*
G03*
X11353000Y-13525500I-50000J0D01*
G01*
X11353000Y-13779500D02*
G75*
G03*
X11353000Y-13779500I-50000J0D01*
G01*
X11353000Y-14033500D02*
G75*
G03*
X11353000Y-14033500I-50000J0D01*
G01*
X11353000Y-14287500D02*
G75*
G03*
X11353000Y-14287500I-50000J0D01*
G01*
X17385500Y-7239000D02*
G75*
G03*
X17385500Y-7239000I-50000J0D01*
G01*
X17385500Y-7493000D02*
G75*
G03*
X17385500Y-7493000I-50000J0D01*
G01*
X17385500Y-7747000D02*
G75*
G03*
X17385500Y-7747000I-50000J0D01*
G01*
X17385500Y-8001000D02*
G75*
G03*
X17385500Y-8001000I-50000J0D01*
G01*
X17385500Y-8255000D02*
G75*
G03*
X17385500Y-8255000I-50000J0D01*
G01*
X17385500Y-8509000D02*
G75*
G03*
X17385500Y-8509000I-50000J0D01*
G01*
X17385500Y-8763000D02*
G75*
G03*
X17385500Y-8763000I-50000J0D01*
G01*
X17385500Y-9017000D02*
G75*
G03*
X17385500Y-9017000I-50000J0D01*
G01*
X17385500Y-10032000D02*
G75*
G03*
X17385500Y-10032000I-50000J0D01*
G01*
X17385500Y-10286000D02*
G75*
G03*
X17385500Y-10286000I-50000J0D01*
G01*
X17385500Y-10540000D02*
G75*
G03*
X17385500Y-10540000I-50000J0D01*
G01*
X17385500Y-10794000D02*
G75*
G03*
X17385500Y-10794000I-50000J0D01*
G01*
X17385500Y-11682500D02*
G75*
G03*
X17385500Y-11682500I-50000J0D01*
G01*
X17385500Y-11936500D02*
G75*
G03*
X17385500Y-11936500I-50000J0D01*
G01*
X17385500Y-12190500D02*
G75*
G03*
X17385500Y-12190500I-50000J0D01*
G01*
X17385500Y-12444500D02*
G75*
G03*
X17385500Y-12444500I-50000J0D01*
G01*
X17385500Y-12698500D02*
G75*
G03*
X17385500Y-12698500I-50000J0D01*
G01*
X17385500Y-12952500D02*
G75*
G03*
X17385500Y-12952500I-50000J0D01*
G01*
X17385500Y-13206500D02*
G75*
G03*
X17385500Y-13206500I-50000J0D01*
G01*
X17385500Y-13460500D02*
G75*
G03*
X17385500Y-13460500I-50000J0D01*
G01*
D14*
X10414000Y-5448500D02*
X10414000Y-5600500D01*
X10338000Y-5524500D02*
X10490000Y-5524500D01*
X10414000Y-5956500D02*
X10414000Y-6108500D01*
X10338000Y-6032500D02*
X10490000Y-6032500D01*
X10414000Y-6464500D02*
X10414000Y-6616500D01*
X10338000Y-6540500D02*
X10490000Y-6540500D01*
X10414000Y-6972500D02*
X10414000Y-7124500D01*
X10338000Y-7048500D02*
X10490000Y-7048500D01*
X10414000Y-7480500D02*
X10414000Y-7632500D01*
X10338000Y-7556500D02*
X10490000Y-7556500D01*
X10414000Y-8179000D02*
X10414000Y-8331000D01*
X10338000Y-8255000D02*
X10490000Y-8255000D01*
X10414000Y-8687000D02*
X10414000Y-8839000D01*
X10338000Y-8763000D02*
X10490000Y-8763000D01*
X10414000Y-9195000D02*
X10414000Y-9347000D01*
X10338000Y-9271000D02*
X10490000Y-9271000D01*
X10414000Y-12687500D02*
X10414000Y-12839500D01*
X10338000Y-12763500D02*
X10490000Y-12763500D01*
X10414000Y-13195500D02*
X10414000Y-13347500D01*
X10338000Y-13271500D02*
X10490000Y-13271500D01*
X10414000Y-13703500D02*
X10414000Y-13855500D01*
X10338000Y-13779500D02*
X10490000Y-13779500D01*
X10414000Y-14211500D02*
X10414000Y-14363500D01*
X10338000Y-14287500D02*
X10490000Y-14287500D01*
X10414000Y-14719500D02*
X10414000Y-14871500D01*
X10338000Y-14795500D02*
X10490000Y-14795500D01*
X18224500Y-5448500D02*
X18224500Y-5600500D01*
X18148500Y-5524500D02*
X18300500Y-5524500D01*
X18224500Y-5956500D02*
X18224500Y-6108500D01*
X18148500Y-6032500D02*
X18300500Y-6032500D01*
X18224500Y-6464500D02*
X18224500Y-6616500D01*
X18148500Y-6540500D02*
X18300500Y-6540500D01*
X18224500Y-6972500D02*
X18224500Y-7124500D01*
X18148500Y-7048500D02*
X18300500Y-7048500D01*
X18224500Y-7480500D02*
X18224500Y-7632500D01*
X18148500Y-7556500D02*
X18300500Y-7556500D01*
X18224500Y-8179000D02*
X18224500Y-8331000D01*
X18148500Y-8255000D02*
X18300500Y-8255000D01*
X18224500Y-8687000D02*
X18224500Y-8839000D01*
X18148500Y-8763000D02*
X18300500Y-8763000D01*
X18224500Y-9195000D02*
X18224500Y-9347000D01*
X18148500Y-9271000D02*
X18300500Y-9271000D01*
X18224500Y-12687500D02*
X18224500Y-12839500D01*
X18148500Y-12763500D02*
X18300500Y-12763500D01*
X18224500Y-13195500D02*
X18224500Y-13347500D01*
X18148500Y-13271500D02*
X18300500Y-13271500D01*
X18224500Y-13703500D02*
X18224500Y-13855500D01*
X18148500Y-13779500D02*
X18300500Y-13779500D01*
X18224500Y-14211500D02*
X18224500Y-14363500D01*
X18148500Y-14287500D02*
X18300500Y-14287500D01*
X18224500Y-14719500D02*
X18224500Y-14871500D01*
X18148500Y-14795500D02*
X18300500Y-14795500D01*
D11*
X10252619Y-15615476D02*
X10252619Y-15415476D01*
X10300238Y-15415476D01*
X10328810Y-15425000D01*
X10347857Y-15444048D01*
X10357381Y-15463095D01*
X10366905Y-15501190D01*
X10366905Y-15529762D01*
X10357381Y-15567857D01*
X10347857Y-15586905D01*
X10328810Y-15605952D01*
X10300238Y-15615476D01*
X10252619Y-15615476D01*
X10452619Y-15615476D02*
X10452619Y-15482143D01*
X10452619Y-15520238D02*
X10462143Y-15501190D01*
X10471667Y-15491667D01*
X10490714Y-15482143D01*
X10509762Y-15482143D01*
X10576429Y-15615476D02*
X10576429Y-15482143D01*
X10576429Y-15415476D02*
X10566905Y-15425000D01*
X10576429Y-15434524D01*
X10585952Y-15425000D01*
X10576429Y-15415476D01*
X10576429Y-15434524D01*
X10700238Y-15615476D02*
X10681190Y-15605952D01*
X10671667Y-15586905D01*
X10671667Y-15415476D01*
X10805000Y-15615476D02*
X10785952Y-15605952D01*
X10776429Y-15586905D01*
X10776429Y-15415476D01*
X11033571Y-15615476D02*
X11033571Y-15415476D01*
X11100238Y-15558333D01*
X11166905Y-15415476D01*
X11166905Y-15615476D01*
X11347857Y-15615476D02*
X11347857Y-15510714D01*
X11338333Y-15491667D01*
X11319286Y-15482143D01*
X11281190Y-15482143D01*
X11262143Y-15491667D01*
X11347857Y-15605952D02*
X11328809Y-15615476D01*
X11281190Y-15615476D01*
X11262143Y-15605952D01*
X11252619Y-15586905D01*
X11252619Y-15567857D01*
X11262143Y-15548809D01*
X11281190Y-15539286D01*
X11328809Y-15539286D01*
X11347857Y-15529762D01*
X11443095Y-15482143D02*
X11443095Y-15682143D01*
X11443095Y-15491667D02*
X11462143Y-15482143D01*
X11500238Y-15482143D01*
X11519286Y-15491667D01*
X11528809Y-15501190D01*
X11538333Y-15520238D01*
X11538333Y-15577381D01*
X11528809Y-15596428D01*
X11519286Y-15605952D01*
X11500238Y-15615476D01*
X11462143Y-15615476D01*
X11443095Y-15605952D01*
X11624048Y-15596428D02*
X11633571Y-15605952D01*
X11624048Y-15615476D01*
X11614524Y-15605952D01*
X11624048Y-15596428D01*
X11624048Y-15615476D01*
X11624048Y-15491667D02*
X11633571Y-15501190D01*
X11624048Y-15510714D01*
X11614524Y-15501190D01*
X11624048Y-15491667D01*
X11624048Y-15510714D01*
D12*
X9955000Y-15925000D02*
X9995000Y-15965000D01*
X9995000Y-15925000D02*
X9955000Y-15965000D01*
D11*
X10290714Y-15835476D02*
X10309762Y-15835476D01*
X10328810Y-15845000D01*
X10338333Y-15854524D01*
X10347857Y-15873571D01*
X10357381Y-15911667D01*
X10357381Y-15959286D01*
X10347857Y-15997381D01*
X10338333Y-16016428D01*
X10328810Y-16025952D01*
X10309762Y-16035476D01*
X10290714Y-16035476D01*
X10271667Y-16025952D01*
X10262143Y-16016428D01*
X10252619Y-15997381D01*
X10243095Y-15959286D01*
X10243095Y-15911667D01*
X10252619Y-15873571D01*
X10262143Y-15854524D01*
X10271667Y-15845000D01*
X10290714Y-15835476D01*
X10443095Y-16016428D02*
X10452619Y-16025952D01*
X10443095Y-16035476D01*
X10433571Y-16025952D01*
X10443095Y-16016428D01*
X10443095Y-16035476D01*
X10624048Y-15902143D02*
X10624048Y-16035476D01*
X10576429Y-15825952D02*
X10528810Y-15968809D01*
X10652619Y-15968809D01*
X10766905Y-15835476D02*
X10785952Y-15835476D01*
X10805000Y-15845000D01*
X10814524Y-15854524D01*
X10824048Y-15873571D01*
X10833571Y-15911667D01*
X10833571Y-15959286D01*
X10824048Y-15997381D01*
X10814524Y-16016428D01*
X10805000Y-16025952D01*
X10785952Y-16035476D01*
X10766905Y-16035476D01*
X10747857Y-16025952D01*
X10738333Y-16016428D01*
X10728810Y-15997381D01*
X10719286Y-15959286D01*
X10719286Y-15911667D01*
X10728810Y-15873571D01*
X10738333Y-15854524D01*
X10747857Y-15845000D01*
X10766905Y-15835476D01*
X10957381Y-15835476D02*
X10976429Y-15835476D01*
X10995476Y-15845000D01*
X11005000Y-15854524D01*
X11014524Y-15873571D01*
X11024048Y-15911667D01*
X11024048Y-15959286D01*
X11014524Y-15997381D01*
X11005000Y-16016428D01*
X10995476Y-16025952D01*
X10976429Y-16035476D01*
X10957381Y-16035476D01*
X10938333Y-16025952D01*
X10928810Y-16016428D01*
X10919286Y-15997381D01*
X10909762Y-15959286D01*
X10909762Y-15911667D01*
X10919286Y-15873571D01*
X10928810Y-15854524D01*
X10938333Y-15845000D01*
X10957381Y-15835476D01*
X11109762Y-16035476D02*
X11109762Y-15902143D01*
X11109762Y-15921190D02*
X11119286Y-15911667D01*
X11138333Y-15902143D01*
X11166905Y-15902143D01*
X11185952Y-15911667D01*
X11195476Y-15930714D01*
X11195476Y-16035476D01*
X11195476Y-15930714D02*
X11205000Y-15911667D01*
X11224048Y-15902143D01*
X11252619Y-15902143D01*
X11271667Y-15911667D01*
X11281190Y-15930714D01*
X11281190Y-16035476D01*
X11376428Y-16035476D02*
X11376428Y-15902143D01*
X11376428Y-15921190D02*
X11385952Y-15911667D01*
X11405000Y-15902143D01*
X11433571Y-15902143D01*
X11452619Y-15911667D01*
X11462143Y-15930714D01*
X11462143Y-16035476D01*
X11462143Y-15930714D02*
X11471667Y-15911667D01*
X11490714Y-15902143D01*
X11519286Y-15902143D01*
X11538333Y-15911667D01*
X11547857Y-15930714D01*
X11547857Y-16035476D01*
X11938333Y-15825952D02*
X11766905Y-16083095D01*
X12195476Y-15835476D02*
X12214524Y-15835476D01*
X12233571Y-15845000D01*
X12243095Y-15854524D01*
X12252619Y-15873571D01*
X12262143Y-15911667D01*
X12262143Y-15959286D01*
X12252619Y-15997381D01*
X12243095Y-16016428D01*
X12233571Y-16025952D01*
X12214524Y-16035476D01*
X12195476Y-16035476D01*
X12176428Y-16025952D01*
X12166905Y-16016428D01*
X12157381Y-15997381D01*
X12147857Y-15959286D01*
X12147857Y-15911667D01*
X12157381Y-15873571D01*
X12166905Y-15854524D01*
X12176428Y-15845000D01*
X12195476Y-15835476D01*
X12347857Y-16016428D02*
X12357381Y-16025952D01*
X12347857Y-16035476D01*
X12338333Y-16025952D01*
X12347857Y-16016428D01*
X12347857Y-16035476D01*
X12481190Y-15835476D02*
X12500238Y-15835476D01*
X12519286Y-15845000D01*
X12528809Y-15854524D01*
X12538333Y-15873571D01*
X12547857Y-15911667D01*
X12547857Y-15959286D01*
X12538333Y-15997381D01*
X12528809Y-16016428D01*
X12519286Y-16025952D01*
X12500238Y-16035476D01*
X12481190Y-16035476D01*
X12462143Y-16025952D01*
X12452619Y-16016428D01*
X12443095Y-15997381D01*
X12433571Y-15959286D01*
X12433571Y-15911667D01*
X12443095Y-15873571D01*
X12452619Y-15854524D01*
X12462143Y-15845000D01*
X12481190Y-15835476D01*
X12738333Y-16035476D02*
X12624048Y-16035476D01*
X12681190Y-16035476D02*
X12681190Y-15835476D01*
X12662143Y-15864048D01*
X12643095Y-15883095D01*
X12624048Y-15892619D01*
X12919286Y-15835476D02*
X12824048Y-15835476D01*
X12814524Y-15930714D01*
X12824048Y-15921190D01*
X12843095Y-15911667D01*
X12890714Y-15911667D01*
X12909762Y-15921190D01*
X12919286Y-15930714D01*
X12928809Y-15949762D01*
X12928809Y-15997381D01*
X12919286Y-16016428D01*
X12909762Y-16025952D01*
X12890714Y-16035476D01*
X12843095Y-16035476D01*
X12824048Y-16025952D01*
X12814524Y-16016428D01*
X12995476Y-15835476D02*
X13128809Y-15835476D01*
X13043095Y-16035476D01*
X13195476Y-15835476D02*
X13195476Y-15873571D01*
X13271667Y-15835476D02*
X13271667Y-15873571D01*
X13566905Y-16111667D02*
X13557381Y-16102143D01*
X13538333Y-16073571D01*
X13528809Y-16054524D01*
X13519286Y-16025952D01*
X13509762Y-15978333D01*
X13509762Y-15940238D01*
X13519286Y-15892619D01*
X13528809Y-15864048D01*
X13538333Y-15845000D01*
X13557381Y-15816428D01*
X13566905Y-15806905D01*
X13633571Y-15854524D02*
X13643095Y-15845000D01*
X13662143Y-15835476D01*
X13709762Y-15835476D01*
X13728809Y-15845000D01*
X13738333Y-15854524D01*
X13747857Y-15873571D01*
X13747857Y-15892619D01*
X13738333Y-15921190D01*
X13624048Y-16035476D01*
X13747857Y-16035476D01*
X13919286Y-15835476D02*
X13881190Y-15835476D01*
X13862143Y-15845000D01*
X13852619Y-15854524D01*
X13833571Y-15883095D01*
X13824048Y-15921190D01*
X13824048Y-15997381D01*
X13833571Y-16016428D01*
X13843095Y-16025952D01*
X13862143Y-16035476D01*
X13900238Y-16035476D01*
X13919286Y-16025952D01*
X13928809Y-16016428D01*
X13938333Y-15997381D01*
X13938333Y-15949762D01*
X13928809Y-15930714D01*
X13919286Y-15921190D01*
X13900238Y-15911667D01*
X13862143Y-15911667D01*
X13843095Y-15921190D01*
X13833571Y-15930714D01*
X13824048Y-15949762D01*
X14176428Y-16035476D02*
X14176428Y-15835476D01*
X14262143Y-16035476D02*
X14262143Y-15930714D01*
X14252619Y-15911667D01*
X14233571Y-15902143D01*
X14205000Y-15902143D01*
X14185952Y-15911667D01*
X14176428Y-15921190D01*
X14385952Y-16035476D02*
X14366905Y-16025952D01*
X14357381Y-16016428D01*
X14347857Y-15997381D01*
X14347857Y-15940238D01*
X14357381Y-15921190D01*
X14366905Y-15911667D01*
X14385952Y-15902143D01*
X14414524Y-15902143D01*
X14433571Y-15911667D01*
X14443095Y-15921190D01*
X14452619Y-15940238D01*
X14452619Y-15997381D01*
X14443095Y-16016428D01*
X14433571Y-16025952D01*
X14414524Y-16035476D01*
X14385952Y-16035476D01*
X14566905Y-16035476D02*
X14547857Y-16025952D01*
X14538333Y-16006905D01*
X14538333Y-15835476D01*
X14719286Y-16025952D02*
X14700238Y-16035476D01*
X14662143Y-16035476D01*
X14643095Y-16025952D01*
X14633571Y-16006905D01*
X14633571Y-15930714D01*
X14643095Y-15911667D01*
X14662143Y-15902143D01*
X14700238Y-15902143D01*
X14719286Y-15911667D01*
X14728809Y-15930714D01*
X14728809Y-15949762D01*
X14633571Y-15968809D01*
X14805000Y-16025952D02*
X14824048Y-16035476D01*
X14862143Y-16035476D01*
X14881190Y-16025952D01*
X14890714Y-16006905D01*
X14890714Y-15997381D01*
X14881190Y-15978333D01*
X14862143Y-15968809D01*
X14833571Y-15968809D01*
X14814524Y-15959286D01*
X14805000Y-15940238D01*
X14805000Y-15930714D01*
X14814524Y-15911667D01*
X14833571Y-15902143D01*
X14862143Y-15902143D01*
X14881190Y-15911667D01*
X14957381Y-16111667D02*
X14966905Y-16102143D01*
X14985952Y-16073571D01*
X14995476Y-16054524D01*
X15005000Y-16025952D01*
X15014524Y-15978333D01*
X15014524Y-15940238D01*
X15005000Y-15892619D01*
X14995476Y-15864048D01*
X14985952Y-15845000D01*
X14966905Y-15816428D01*
X14957381Y-15806905D01*
D13*
X9995000Y-16209000D02*
G75*
G03*
X9995000Y-16209000I-50000J0D01*
G01*
D11*
X10357381Y-16299476D02*
X10243095Y-16299476D01*
X10300238Y-16299476D02*
X10300238Y-16099476D01*
X10281190Y-16128048D01*
X10262143Y-16147095D01*
X10243095Y-16156619D01*
X10443095Y-16280428D02*
X10452619Y-16289952D01*
X10443095Y-16299476D01*
X10433571Y-16289952D01*
X10443095Y-16280428D01*
X10443095Y-16299476D01*
X10576429Y-16099476D02*
X10595476Y-16099476D01*
X10614524Y-16109000D01*
X10624048Y-16118524D01*
X10633571Y-16137571D01*
X10643095Y-16175667D01*
X10643095Y-16223286D01*
X10633571Y-16261381D01*
X10624048Y-16280428D01*
X10614524Y-16289952D01*
X10595476Y-16299476D01*
X10576429Y-16299476D01*
X10557381Y-16289952D01*
X10547857Y-16280428D01*
X10538333Y-16261381D01*
X10528810Y-16223286D01*
X10528810Y-16175667D01*
X10538333Y-16137571D01*
X10547857Y-16118524D01*
X10557381Y-16109000D01*
X10576429Y-16099476D01*
X10766905Y-16099476D02*
X10785952Y-16099476D01*
X10805000Y-16109000D01*
X10814524Y-16118524D01*
X10824048Y-16137571D01*
X10833571Y-16175667D01*
X10833571Y-16223286D01*
X10824048Y-16261381D01*
X10814524Y-16280428D01*
X10805000Y-16289952D01*
X10785952Y-16299476D01*
X10766905Y-16299476D01*
X10747857Y-16289952D01*
X10738333Y-16280428D01*
X10728810Y-16261381D01*
X10719286Y-16223286D01*
X10719286Y-16175667D01*
X10728810Y-16137571D01*
X10738333Y-16118524D01*
X10747857Y-16109000D01*
X10766905Y-16099476D01*
X10957381Y-16099476D02*
X10976429Y-16099476D01*
X10995476Y-16109000D01*
X11005000Y-16118524D01*
X11014524Y-16137571D01*
X11024048Y-16175667D01*
X11024048Y-16223286D01*
X11014524Y-16261381D01*
X11005000Y-16280428D01*
X10995476Y-16289952D01*
X10976429Y-16299476D01*
X10957381Y-16299476D01*
X10938333Y-16289952D01*
X10928810Y-16280428D01*
X10919286Y-16261381D01*
X10909762Y-16223286D01*
X10909762Y-16175667D01*
X10919286Y-16137571D01*
X10928810Y-16118524D01*
X10938333Y-16109000D01*
X10957381Y-16099476D01*
X11109762Y-16299476D02*
X11109762Y-16166143D01*
X11109762Y-16185190D02*
X11119286Y-16175667D01*
X11138333Y-16166143D01*
X11166905Y-16166143D01*
X11185952Y-16175667D01*
X11195476Y-16194714D01*
X11195476Y-16299476D01*
X11195476Y-16194714D02*
X11205000Y-16175667D01*
X11224048Y-16166143D01*
X11252619Y-16166143D01*
X11271667Y-16175667D01*
X11281190Y-16194714D01*
X11281190Y-16299476D01*
X11376428Y-16299476D02*
X11376428Y-16166143D01*
X11376428Y-16185190D02*
X11385952Y-16175667D01*
X11405000Y-16166143D01*
X11433571Y-16166143D01*
X11452619Y-16175667D01*
X11462143Y-16194714D01*
X11462143Y-16299476D01*
X11462143Y-16194714D02*
X11471667Y-16175667D01*
X11490714Y-16166143D01*
X11519286Y-16166143D01*
X11538333Y-16175667D01*
X11547857Y-16194714D01*
X11547857Y-16299476D01*
X11938333Y-16089952D02*
X11766905Y-16347095D01*
X12195476Y-16099476D02*
X12214524Y-16099476D01*
X12233571Y-16109000D01*
X12243095Y-16118524D01*
X12252619Y-16137571D01*
X12262143Y-16175667D01*
X12262143Y-16223286D01*
X12252619Y-16261381D01*
X12243095Y-16280428D01*
X12233571Y-16289952D01*
X12214524Y-16299476D01*
X12195476Y-16299476D01*
X12176428Y-16289952D01*
X12166905Y-16280428D01*
X12157381Y-16261381D01*
X12147857Y-16223286D01*
X12147857Y-16175667D01*
X12157381Y-16137571D01*
X12166905Y-16118524D01*
X12176428Y-16109000D01*
X12195476Y-16099476D01*
X12347857Y-16280428D02*
X12357381Y-16289952D01*
X12347857Y-16299476D01*
X12338333Y-16289952D01*
X12347857Y-16280428D01*
X12347857Y-16299476D01*
X12481190Y-16099476D02*
X12500238Y-16099476D01*
X12519286Y-16109000D01*
X12528809Y-16118524D01*
X12538333Y-16137571D01*
X12547857Y-16175667D01*
X12547857Y-16223286D01*
X12538333Y-16261381D01*
X12528809Y-16280428D01*
X12519286Y-16289952D01*
X12500238Y-16299476D01*
X12481190Y-16299476D01*
X12462143Y-16289952D01*
X12452619Y-16280428D01*
X12443095Y-16261381D01*
X12433571Y-16223286D01*
X12433571Y-16175667D01*
X12443095Y-16137571D01*
X12452619Y-16118524D01*
X12462143Y-16109000D01*
X12481190Y-16099476D01*
X12614524Y-16099476D02*
X12738333Y-16099476D01*
X12671667Y-16175667D01*
X12700238Y-16175667D01*
X12719286Y-16185190D01*
X12728809Y-16194714D01*
X12738333Y-16213762D01*
X12738333Y-16261381D01*
X12728809Y-16280428D01*
X12719286Y-16289952D01*
X12700238Y-16299476D01*
X12643095Y-16299476D01*
X12624048Y-16289952D01*
X12614524Y-16280428D01*
X12833571Y-16299476D02*
X12871667Y-16299476D01*
X12890714Y-16289952D01*
X12900238Y-16280428D01*
X12919286Y-16251857D01*
X12928809Y-16213762D01*
X12928809Y-16137571D01*
X12919286Y-16118524D01*
X12909762Y-16109000D01*
X12890714Y-16099476D01*
X12852619Y-16099476D01*
X12833571Y-16109000D01*
X12824048Y-16118524D01*
X12814524Y-16137571D01*
X12814524Y-16185190D01*
X12824048Y-16204238D01*
X12833571Y-16213762D01*
X12852619Y-16223286D01*
X12890714Y-16223286D01*
X12909762Y-16213762D01*
X12919286Y-16204238D01*
X12928809Y-16185190D01*
X13100238Y-16166143D02*
X13100238Y-16299476D01*
X13052619Y-16089952D02*
X13005000Y-16232809D01*
X13128809Y-16232809D01*
X13195476Y-16099476D02*
X13195476Y-16137571D01*
X13271667Y-16099476D02*
X13271667Y-16137571D01*
X13566905Y-16375667D02*
X13557381Y-16366143D01*
X13538333Y-16337571D01*
X13528809Y-16318524D01*
X13519286Y-16289952D01*
X13509762Y-16242333D01*
X13509762Y-16204238D01*
X13519286Y-16156619D01*
X13528809Y-16128048D01*
X13538333Y-16109000D01*
X13557381Y-16080428D01*
X13566905Y-16070905D01*
X13728809Y-16166143D02*
X13728809Y-16299476D01*
X13681190Y-16089952D02*
X13633571Y-16232809D01*
X13757381Y-16232809D01*
X13843095Y-16299476D02*
X13881190Y-16299476D01*
X13900238Y-16289952D01*
X13909762Y-16280428D01*
X13928809Y-16251857D01*
X13938333Y-16213762D01*
X13938333Y-16137571D01*
X13928809Y-16118524D01*
X13919286Y-16109000D01*
X13900238Y-16099476D01*
X13862143Y-16099476D01*
X13843095Y-16109000D01*
X13833571Y-16118524D01*
X13824048Y-16137571D01*
X13824048Y-16185190D01*
X13833571Y-16204238D01*
X13843095Y-16213762D01*
X13862143Y-16223286D01*
X13900238Y-16223286D01*
X13919286Y-16213762D01*
X13928809Y-16204238D01*
X13938333Y-16185190D01*
X14176428Y-16299476D02*
X14176428Y-16099476D01*
X14262143Y-16299476D02*
X14262143Y-16194714D01*
X14252619Y-16175667D01*
X14233571Y-16166143D01*
X14205000Y-16166143D01*
X14185952Y-16175667D01*
X14176428Y-16185190D01*
X14385952Y-16299476D02*
X14366905Y-16289952D01*
X14357381Y-16280428D01*
X14347857Y-16261381D01*
X14347857Y-16204238D01*
X14357381Y-16185190D01*
X14366905Y-16175667D01*
X14385952Y-16166143D01*
X14414524Y-16166143D01*
X14433571Y-16175667D01*
X14443095Y-16185190D01*
X14452619Y-16204238D01*
X14452619Y-16261381D01*
X14443095Y-16280428D01*
X14433571Y-16289952D01*
X14414524Y-16299476D01*
X14385952Y-16299476D01*
X14566905Y-16299476D02*
X14547857Y-16289952D01*
X14538333Y-16270905D01*
X14538333Y-16099476D01*
X14719286Y-16289952D02*
X14700238Y-16299476D01*
X14662143Y-16299476D01*
X14643095Y-16289952D01*
X14633571Y-16270905D01*
X14633571Y-16194714D01*
X14643095Y-16175667D01*
X14662143Y-16166143D01*
X14700238Y-16166143D01*
X14719286Y-16175667D01*
X14728809Y-16194714D01*
X14728809Y-16213762D01*
X14633571Y-16232809D01*
X14805000Y-16289952D02*
X14824048Y-16299476D01*
X14862143Y-16299476D01*
X14881190Y-16289952D01*
X14890714Y-16270905D01*
X14890714Y-16261381D01*
X14881190Y-16242333D01*
X14862143Y-16232809D01*
X14833571Y-16232809D01*
X14814524Y-16223286D01*
X14805000Y-16204238D01*
X14805000Y-16194714D01*
X14814524Y-16175667D01*
X14833571Y-16166143D01*
X14862143Y-16166143D01*
X14881190Y-16175667D01*
X14957381Y-16375667D02*
X14966905Y-16366143D01*
X14985952Y-16337571D01*
X14995476Y-16318524D01*
X15005000Y-16289952D01*
X15014524Y-16242333D01*
X15014524Y-16204238D01*
X15005000Y-16156619D01*
X14995476Y-16128048D01*
X14985952Y-16109000D01*
X14966905Y-16080428D01*
X14957381Y-16070905D01*
D14*
X9919000Y-16397000D02*
X9919000Y-16549000D01*
X9843000Y-16473000D02*
X9995000Y-16473000D01*
D11*
X10357381Y-16563476D02*
X10243095Y-16563476D01*
X10300238Y-16563476D02*
X10300238Y-16363476D01*
X10281190Y-16392048D01*
X10262143Y-16411095D01*
X10243095Y-16420619D01*
X10443095Y-16544428D02*
X10452619Y-16553952D01*
X10443095Y-16563476D01*
X10433571Y-16553952D01*
X10443095Y-16544428D01*
X10443095Y-16563476D01*
X10633571Y-16363476D02*
X10538333Y-16363476D01*
X10528810Y-16458714D01*
X10538333Y-16449190D01*
X10557381Y-16439667D01*
X10605000Y-16439667D01*
X10624048Y-16449190D01*
X10633571Y-16458714D01*
X10643095Y-16477762D01*
X10643095Y-16525381D01*
X10633571Y-16544428D01*
X10624048Y-16553952D01*
X10605000Y-16563476D01*
X10557381Y-16563476D01*
X10538333Y-16553952D01*
X10528810Y-16544428D01*
X10719286Y-16382524D02*
X10728810Y-16373000D01*
X10747857Y-16363476D01*
X10795476Y-16363476D01*
X10814524Y-16373000D01*
X10824048Y-16382524D01*
X10833571Y-16401571D01*
X10833571Y-16420619D01*
X10824048Y-16449190D01*
X10709762Y-16563476D01*
X10833571Y-16563476D01*
X10957381Y-16363476D02*
X10976429Y-16363476D01*
X10995476Y-16373000D01*
X11005000Y-16382524D01*
X11014524Y-16401571D01*
X11024048Y-16439667D01*
X11024048Y-16487286D01*
X11014524Y-16525381D01*
X11005000Y-16544428D01*
X10995476Y-16553952D01*
X10976429Y-16563476D01*
X10957381Y-16563476D01*
X10938333Y-16553952D01*
X10928810Y-16544428D01*
X10919286Y-16525381D01*
X10909762Y-16487286D01*
X10909762Y-16439667D01*
X10919286Y-16401571D01*
X10928810Y-16382524D01*
X10938333Y-16373000D01*
X10957381Y-16363476D01*
X11109762Y-16563476D02*
X11109762Y-16430143D01*
X11109762Y-16449190D02*
X11119286Y-16439667D01*
X11138333Y-16430143D01*
X11166905Y-16430143D01*
X11185952Y-16439667D01*
X11195476Y-16458714D01*
X11195476Y-16563476D01*
X11195476Y-16458714D02*
X11205000Y-16439667D01*
X11224048Y-16430143D01*
X11252619Y-16430143D01*
X11271667Y-16439667D01*
X11281190Y-16458714D01*
X11281190Y-16563476D01*
X11376428Y-16563476D02*
X11376428Y-16430143D01*
X11376428Y-16449190D02*
X11385952Y-16439667D01*
X11405000Y-16430143D01*
X11433571Y-16430143D01*
X11452619Y-16439667D01*
X11462143Y-16458714D01*
X11462143Y-16563476D01*
X11462143Y-16458714D02*
X11471667Y-16439667D01*
X11490714Y-16430143D01*
X11519286Y-16430143D01*
X11538333Y-16439667D01*
X11547857Y-16458714D01*
X11547857Y-16563476D01*
X11938333Y-16353952D02*
X11766905Y-16611095D01*
X12195476Y-16363476D02*
X12214524Y-16363476D01*
X12233571Y-16373000D01*
X12243095Y-16382524D01*
X12252619Y-16401571D01*
X12262143Y-16439667D01*
X12262143Y-16487286D01*
X12252619Y-16525381D01*
X12243095Y-16544428D01*
X12233571Y-16553952D01*
X12214524Y-16563476D01*
X12195476Y-16563476D01*
X12176428Y-16553952D01*
X12166905Y-16544428D01*
X12157381Y-16525381D01*
X12147857Y-16487286D01*
X12147857Y-16439667D01*
X12157381Y-16401571D01*
X12166905Y-16382524D01*
X12176428Y-16373000D01*
X12195476Y-16363476D01*
X12347857Y-16544428D02*
X12357381Y-16553952D01*
X12347857Y-16563476D01*
X12338333Y-16553952D01*
X12347857Y-16544428D01*
X12347857Y-16563476D01*
X12481190Y-16363476D02*
X12500238Y-16363476D01*
X12519286Y-16373000D01*
X12528809Y-16382524D01*
X12538333Y-16401571D01*
X12547857Y-16439667D01*
X12547857Y-16487286D01*
X12538333Y-16525381D01*
X12528809Y-16544428D01*
X12519286Y-16553952D01*
X12500238Y-16563476D01*
X12481190Y-16563476D01*
X12462143Y-16553952D01*
X12452619Y-16544428D01*
X12443095Y-16525381D01*
X12433571Y-16487286D01*
X12433571Y-16439667D01*
X12443095Y-16401571D01*
X12452619Y-16382524D01*
X12462143Y-16373000D01*
X12481190Y-16363476D01*
X12728809Y-16363476D02*
X12633571Y-16363476D01*
X12624048Y-16458714D01*
X12633571Y-16449190D01*
X12652619Y-16439667D01*
X12700238Y-16439667D01*
X12719286Y-16449190D01*
X12728809Y-16458714D01*
X12738333Y-16477762D01*
X12738333Y-16525381D01*
X12728809Y-16544428D01*
X12719286Y-16553952D01*
X12700238Y-16563476D01*
X12652619Y-16563476D01*
X12633571Y-16553952D01*
X12624048Y-16544428D01*
X12833571Y-16563476D02*
X12871667Y-16563476D01*
X12890714Y-16553952D01*
X12900238Y-16544428D01*
X12919286Y-16515857D01*
X12928809Y-16477762D01*
X12928809Y-16401571D01*
X12919286Y-16382524D01*
X12909762Y-16373000D01*
X12890714Y-16363476D01*
X12852619Y-16363476D01*
X12833571Y-16373000D01*
X12824048Y-16382524D01*
X12814524Y-16401571D01*
X12814524Y-16449190D01*
X12824048Y-16468238D01*
X12833571Y-16477762D01*
X12852619Y-16487286D01*
X12890714Y-16487286D01*
X12909762Y-16477762D01*
X12919286Y-16468238D01*
X12928809Y-16449190D01*
X13043095Y-16449190D02*
X13024048Y-16439667D01*
X13014524Y-16430143D01*
X13005000Y-16411095D01*
X13005000Y-16401571D01*
X13014524Y-16382524D01*
X13024048Y-16373000D01*
X13043095Y-16363476D01*
X13081190Y-16363476D01*
X13100238Y-16373000D01*
X13109762Y-16382524D01*
X13119286Y-16401571D01*
X13119286Y-16411095D01*
X13109762Y-16430143D01*
X13100238Y-16439667D01*
X13081190Y-16449190D01*
X13043095Y-16449190D01*
X13024048Y-16458714D01*
X13014524Y-16468238D01*
X13005000Y-16487286D01*
X13005000Y-16525381D01*
X13014524Y-16544428D01*
X13024048Y-16553952D01*
X13043095Y-16563476D01*
X13081190Y-16563476D01*
X13100238Y-16553952D01*
X13109762Y-16544428D01*
X13119286Y-16525381D01*
X13119286Y-16487286D01*
X13109762Y-16468238D01*
X13100238Y-16458714D01*
X13081190Y-16449190D01*
X13195476Y-16363476D02*
X13195476Y-16401571D01*
X13271667Y-16363476D02*
X13271667Y-16401571D01*
X13566905Y-16639667D02*
X13557381Y-16630143D01*
X13538333Y-16601571D01*
X13528809Y-16582524D01*
X13519286Y-16553952D01*
X13509762Y-16506333D01*
X13509762Y-16468238D01*
X13519286Y-16420619D01*
X13528809Y-16392048D01*
X13538333Y-16373000D01*
X13557381Y-16344428D01*
X13566905Y-16334905D01*
X13633571Y-16382524D02*
X13643095Y-16373000D01*
X13662143Y-16363476D01*
X13709762Y-16363476D01*
X13728809Y-16373000D01*
X13738333Y-16382524D01*
X13747857Y-16401571D01*
X13747857Y-16420619D01*
X13738333Y-16449190D01*
X13624048Y-16563476D01*
X13747857Y-16563476D01*
X13919286Y-16363476D02*
X13881190Y-16363476D01*
X13862143Y-16373000D01*
X13852619Y-16382524D01*
X13833571Y-16411095D01*
X13824048Y-16449190D01*
X13824048Y-16525381D01*
X13833571Y-16544428D01*
X13843095Y-16553952D01*
X13862143Y-16563476D01*
X13900238Y-16563476D01*
X13919286Y-16553952D01*
X13928809Y-16544428D01*
X13938333Y-16525381D01*
X13938333Y-16477762D01*
X13928809Y-16458714D01*
X13919286Y-16449190D01*
X13900238Y-16439667D01*
X13862143Y-16439667D01*
X13843095Y-16449190D01*
X13833571Y-16458714D01*
X13824048Y-16477762D01*
X14176428Y-16563476D02*
X14176428Y-16363476D01*
X14262143Y-16563476D02*
X14262143Y-16458714D01*
X14252619Y-16439667D01*
X14233571Y-16430143D01*
X14205000Y-16430143D01*
X14185952Y-16439667D01*
X14176428Y-16449190D01*
X14385952Y-16563476D02*
X14366905Y-16553952D01*
X14357381Y-16544428D01*
X14347857Y-16525381D01*
X14347857Y-16468238D01*
X14357381Y-16449190D01*
X14366905Y-16439667D01*
X14385952Y-16430143D01*
X14414524Y-16430143D01*
X14433571Y-16439667D01*
X14443095Y-16449190D01*
X14452619Y-16468238D01*
X14452619Y-16525381D01*
X14443095Y-16544428D01*
X14433571Y-16553952D01*
X14414524Y-16563476D01*
X14385952Y-16563476D01*
X14566905Y-16563476D02*
X14547857Y-16553952D01*
X14538333Y-16534905D01*
X14538333Y-16363476D01*
X14719286Y-16553952D02*
X14700238Y-16563476D01*
X14662143Y-16563476D01*
X14643095Y-16553952D01*
X14633571Y-16534905D01*
X14633571Y-16458714D01*
X14643095Y-16439667D01*
X14662143Y-16430143D01*
X14700238Y-16430143D01*
X14719286Y-16439667D01*
X14728809Y-16458714D01*
X14728809Y-16477762D01*
X14633571Y-16496809D01*
X14805000Y-16553952D02*
X14824048Y-16563476D01*
X14862143Y-16563476D01*
X14881190Y-16553952D01*
X14890714Y-16534905D01*
X14890714Y-16525381D01*
X14881190Y-16506333D01*
X14862143Y-16496809D01*
X14833571Y-16496809D01*
X14814524Y-16487286D01*
X14805000Y-16468238D01*
X14805000Y-16458714D01*
X14814524Y-16439667D01*
X14833571Y-16430143D01*
X14862143Y-16430143D01*
X14881190Y-16439667D01*
X14957381Y-16639667D02*
X14966905Y-16630143D01*
X14985952Y-16601571D01*
X14995476Y-16582524D01*
X15005000Y-16553952D01*
X15014524Y-16506333D01*
X15014524Y-16468238D01*
X15005000Y-16420619D01*
X14995476Y-16392048D01*
X14985952Y-16373000D01*
X14966905Y-16344428D01*
X14957381Y-16334905D01*
M02*
