%TF.GenerationSoftware,KiCad,Pcbnew,(6.0.0)*%
%TF.CreationDate,2022-01-23T10:28:27+01:00*%
%TF.ProjectId,prototype,70726f74-6f74-4797-9065-2e6b69636164,rev?*%
%TF.SameCoordinates,Original*%
%TF.FileFunction,Paste,Top*%
%TF.FilePolarity,Positive*%
%FSLAX46Y46*%
G04 Gerber Fmt 4.6, Leading zero omitted, Abs format (unit mm)*
G04 Created by KiCad (PCBNEW (6.0.0)) date 2022-01-23 10:28:27*
%MOMM*%
%LPD*%
G01*
G04 APERTURE LIST*
G04 Aperture macros list*
%AMRoundRect*
0 Rectangle with rounded corners*
0 $1 Rounding radius*
0 $2 $3 $4 $5 $6 $7 $8 $9 X,Y pos of 4 corners*
0 Add a 4 corners polygon primitive as box body*
4,1,4,$2,$3,$4,$5,$6,$7,$8,$9,$2,$3,0*
0 Add four circle primitives for the rounded corners*
1,1,$1+$1,$2,$3*
1,1,$1+$1,$4,$5*
1,1,$1+$1,$6,$7*
1,1,$1+$1,$8,$9*
0 Add four rect primitives between the rounded corners*
20,1,$1+$1,$2,$3,$4,$5,0*
20,1,$1+$1,$4,$5,$6,$7,0*
20,1,$1+$1,$6,$7,$8,$9,0*
20,1,$1+$1,$8,$9,$2,$3,0*%
G04 Aperture macros list end*
%ADD10R,1.800000X2.500000*%
%ADD11R,2.000000X1.780000*%
%ADD12R,1.200000X0.900000*%
%ADD13RoundRect,0.200000X-0.275000X0.200000X-0.275000X-0.200000X0.275000X-0.200000X0.275000X0.200000X0*%
%ADD14RoundRect,0.200000X0.200000X0.275000X-0.200000X0.275000X-0.200000X-0.275000X0.200000X-0.275000X0*%
%ADD15RoundRect,0.250000X-0.475000X0.250000X-0.475000X-0.250000X0.475000X-0.250000X0.475000X0.250000X0*%
%ADD16RoundRect,0.250000X-0.650000X0.325000X-0.650000X-0.325000X0.650000X-0.325000X0.650000X0.325000X0*%
%ADD17RoundRect,0.250000X-1.100000X0.325000X-1.100000X-0.325000X1.100000X-0.325000X1.100000X0.325000X0*%
%ADD18R,3.050000X2.750000*%
%ADD19R,2.200000X1.200000*%
%ADD20RoundRect,0.200000X0.275000X-0.200000X0.275000X0.200000X-0.275000X0.200000X-0.275000X-0.200000X0*%
%ADD21R,5.250000X4.550000*%
%ADD22R,1.100000X4.600000*%
%ADD23RoundRect,0.250000X0.262500X0.450000X-0.262500X0.450000X-0.262500X-0.450000X0.262500X-0.450000X0*%
%ADD24R,2.000000X1.500000*%
G04 APERTURE END LIST*
D10*
%TO.C,D6*%
X134620000Y-48800000D03*
X134620000Y-52800000D03*
%TD*%
D11*
%TO.C,U3*%
X115570000Y-76200000D03*
X115570000Y-78740000D03*
X115570000Y-81280000D03*
X123190000Y-81280000D03*
X123190000Y-78740000D03*
X123190000Y-76200000D03*
%TD*%
D12*
%TO.C,D1*%
X119380000Y-51690000D03*
X119380000Y-54990000D03*
%TD*%
D13*
%TO.C,R1*%
X109220000Y-62675000D03*
X109220000Y-64325000D03*
%TD*%
D14*
%TO.C,R3*%
X120205000Y-48260000D03*
X118555000Y-48260000D03*
%TD*%
D13*
%TO.C,R12*%
X109220000Y-75375000D03*
X109220000Y-77025000D03*
%TD*%
D11*
%TO.C,U1*%
X115570000Y-63500000D03*
X115570000Y-66040000D03*
X115570000Y-68580000D03*
X123190000Y-68580000D03*
X123190000Y-66040000D03*
X123190000Y-63500000D03*
%TD*%
D15*
%TO.C,C3*%
X147320000Y-80330000D03*
X147320000Y-82230000D03*
%TD*%
D16*
%TO.C,C1*%
X124460000Y-51865000D03*
X124460000Y-54815000D03*
%TD*%
D17*
%TO.C,C2*%
X129540000Y-51865000D03*
X129540000Y-54815000D03*
%TD*%
D13*
%TO.C,R9*%
X147320000Y-75375000D03*
X147320000Y-77025000D03*
%TD*%
D14*
%TO.C,R5*%
X130365000Y-48260000D03*
X128715000Y-48260000D03*
%TD*%
D18*
%TO.C,Q2*%
X159595000Y-77215000D03*
X156245000Y-80265000D03*
X159595000Y-80265000D03*
X156245000Y-77215000D03*
D19*
X164220000Y-81020000D03*
X164220000Y-78740000D03*
X164220000Y-76460000D03*
%TD*%
D20*
%TO.C,R2*%
X129540000Y-59245000D03*
X129540000Y-57595000D03*
%TD*%
D21*
%TO.C,Q1*%
X147320000Y-48490000D03*
X141770000Y-53340000D03*
X147320000Y-53340000D03*
X141770000Y-48490000D03*
D22*
X142005000Y-60065000D03*
X144545000Y-60065000D03*
X147085000Y-60065000D03*
%TD*%
D13*
%TO.C,R8*%
X109220000Y-88075000D03*
X109220000Y-89725000D03*
%TD*%
%TO.C,R10*%
X142240000Y-75375000D03*
X142240000Y-77025000D03*
%TD*%
D11*
%TO.C,U2*%
X124145000Y-93980000D03*
X124145000Y-91440000D03*
X124145000Y-88900000D03*
X114615000Y-88900000D03*
X114615000Y-91440000D03*
X114615000Y-93980000D03*
%TD*%
D14*
%TO.C,R4*%
X125285000Y-48260000D03*
X123635000Y-48260000D03*
%TD*%
D23*
%TO.C,R6*%
X163472500Y-101600000D03*
X161647500Y-101600000D03*
%TD*%
D16*
%TO.C,C4*%
X142240000Y-79805000D03*
X142240000Y-82755000D03*
%TD*%
D23*
%TO.C,R7*%
X163472500Y-96520000D03*
X161647500Y-96520000D03*
%TD*%
D20*
%TO.C,R11*%
X137160000Y-77025000D03*
X137160000Y-75375000D03*
%TD*%
D24*
%TO.C,D2*%
X155650000Y-55870000D03*
X155650000Y-60970000D03*
X164390000Y-60970000D03*
X164390000Y-55870000D03*
%TD*%
M02*
