%TF.GenerationSoftware,KiCad,Pcbnew,(6.0.0)*%
%TF.CreationDate,2022-01-23T10:28:26+01:00*%
%TF.ProjectId,prototype,70726f74-6f74-4797-9065-2e6b69636164,rev?*%
%TF.SameCoordinates,Original*%
%TF.FileFunction,Copper,L1,Top*%
%TF.FilePolarity,Positive*%
%FSLAX46Y46*%
G04 Gerber Fmt 4.6, Leading zero omitted, Abs format (unit mm)*
G04 Created by KiCad (PCBNEW (6.0.0)) date 2022-01-23 10:28:27*
%MOMM*%
%LPD*%
G01*
G04 APERTURE LIST*
G04 Aperture macros list*
%AMRoundRect*
0 Rectangle with rounded corners*
0 $1 Rounding radius*
0 $2 $3 $4 $5 $6 $7 $8 $9 X,Y pos of 4 corners*
0 Add a 4 corners polygon primitive as box body*
4,1,4,$2,$3,$4,$5,$6,$7,$8,$9,$2,$3,0*
0 Add four circle primitives for the rounded corners*
1,1,$1+$1,$2,$3*
1,1,$1+$1,$4,$5*
1,1,$1+$1,$6,$7*
1,1,$1+$1,$8,$9*
0 Add four rect primitives between the rounded corners*
20,1,$1+$1,$2,$3,$4,$5,0*
20,1,$1+$1,$4,$5,$6,$7,0*
20,1,$1+$1,$6,$7,$8,$9,0*
20,1,$1+$1,$8,$9,$2,$3,0*%
G04 Aperture macros list end*
%TA.AperFunction,SMDPad,CuDef*%
%ADD10R,1.800000X2.500000*%
%TD*%
%TA.AperFunction,SMDPad,CuDef*%
%ADD11R,2.000000X1.780000*%
%TD*%
%TA.AperFunction,SMDPad,CuDef*%
%ADD12R,1.200000X0.900000*%
%TD*%
%TA.AperFunction,ComponentPad*%
%ADD13R,1.700000X1.700000*%
%TD*%
%TA.AperFunction,ComponentPad*%
%ADD14O,1.700000X1.700000*%
%TD*%
%TA.AperFunction,SMDPad,CuDef*%
%ADD15RoundRect,0.200000X-0.275000X0.200000X-0.275000X-0.200000X0.275000X-0.200000X0.275000X0.200000X0*%
%TD*%
%TA.AperFunction,SMDPad,CuDef*%
%ADD16RoundRect,0.200000X0.200000X0.275000X-0.200000X0.275000X-0.200000X-0.275000X0.200000X-0.275000X0*%
%TD*%
%TA.AperFunction,SMDPad,CuDef*%
%ADD17RoundRect,0.250000X-0.475000X0.250000X-0.475000X-0.250000X0.475000X-0.250000X0.475000X0.250000X0*%
%TD*%
%TA.AperFunction,ComponentPad*%
%ADD18R,3.000000X3.000000*%
%TD*%
%TA.AperFunction,ComponentPad*%
%ADD19C,3.000000*%
%TD*%
%TA.AperFunction,SMDPad,CuDef*%
%ADD20RoundRect,0.250000X-0.650000X0.325000X-0.650000X-0.325000X0.650000X-0.325000X0.650000X0.325000X0*%
%TD*%
%TA.AperFunction,SMDPad,CuDef*%
%ADD21RoundRect,0.250000X-1.100000X0.325000X-1.100000X-0.325000X1.100000X-0.325000X1.100000X0.325000X0*%
%TD*%
%TA.AperFunction,SMDPad,CuDef*%
%ADD22R,2.200000X1.200000*%
%TD*%
%TA.AperFunction,SMDPad,CuDef*%
%ADD23R,6.400000X5.800000*%
%TD*%
%TA.AperFunction,SMDPad,CuDef*%
%ADD24RoundRect,0.200000X0.275000X-0.200000X0.275000X0.200000X-0.275000X0.200000X-0.275000X-0.200000X0*%
%TD*%
%TA.AperFunction,SMDPad,CuDef*%
%ADD25R,1.100000X4.600000*%
%TD*%
%TA.AperFunction,SMDPad,CuDef*%
%ADD26R,10.800000X9.400000*%
%TD*%
%TA.AperFunction,SMDPad,CuDef*%
%ADD27RoundRect,0.250000X0.262500X0.450000X-0.262500X0.450000X-0.262500X-0.450000X0.262500X-0.450000X0*%
%TD*%
%TA.AperFunction,SMDPad,CuDef*%
%ADD28R,2.000000X1.500000*%
%TD*%
%TA.AperFunction,ViaPad*%
%ADD29C,0.800000*%
%TD*%
%TA.AperFunction,Conductor*%
%ADD30C,0.250000*%
%TD*%
%TA.AperFunction,Conductor*%
%ADD31C,1.000000*%
%TD*%
G04 APERTURE END LIST*
D10*
%TO.P,D6,1,K*%
%TO.N,Net-(D6-Pad1)*%
X134620000Y-48800000D03*
%TO.P,D6,2,A*%
%TO.N,Net-(D2-Pad1)*%
X134620000Y-52800000D03*
%TD*%
D11*
%TO.P,U3,1*%
%TO.N,Net-(R12-Pad1)*%
X115570000Y-76200000D03*
%TO.P,U3,2*%
%TO.N,GND*%
X115570000Y-78740000D03*
%TO.P,U3,3,NC*%
%TO.N,unconnected-(U3-Pad3)*%
X115570000Y-81280000D03*
%TO.P,U3,4*%
%TO.N,Net-(Q2-Pad3)*%
X123190000Y-81280000D03*
%TO.P,U3,5,NC*%
%TO.N,unconnected-(U3-Pad5)*%
X123190000Y-78740000D03*
%TO.P,U3,6*%
%TO.N,Net-(R11-Pad2)*%
X123190000Y-76200000D03*
%TD*%
D12*
%TO.P,D1,1,K*%
%TO.N,Net-(C1-Pad1)*%
X119380000Y-51690000D03*
%TO.P,D1,2,A*%
%TO.N,Net-(C1-Pad2)*%
X119380000Y-54990000D03*
%TD*%
D13*
%TO.P,J1,1,Pin_1*%
%TO.N,+3V3*%
X101600000Y-71120000D03*
D14*
%TO.P,J1,2,Pin_2*%
%TO.N,GND*%
X101600000Y-73660000D03*
%TO.P,J1,3,Pin_3*%
%TO.N,Net-(J1-Pad3)*%
X101600000Y-76200000D03*
%TO.P,J1,4,Pin_4*%
%TO.N,Net-(J1-Pad4)*%
X101600000Y-78740000D03*
%TO.P,J1,5,Pin_5*%
%TO.N,Net-(J1-Pad5)*%
X101600000Y-81280000D03*
%TD*%
D15*
%TO.P,R1,1*%
%TO.N,Net-(R1-Pad1)*%
X109220000Y-62675000D03*
%TO.P,R1,2*%
%TO.N,Net-(J1-Pad3)*%
X109220000Y-64325000D03*
%TD*%
D16*
%TO.P,R3,1*%
%TO.N,Net-(R3-Pad1)*%
X120205000Y-48260000D03*
%TO.P,R3,2*%
%TO.N,Net-(C1-Pad1)*%
X118555000Y-48260000D03*
%TD*%
D15*
%TO.P,R12,1*%
%TO.N,Net-(R12-Pad1)*%
X109220000Y-75375000D03*
%TO.P,R12,2*%
%TO.N,Net-(J1-Pad4)*%
X109220000Y-77025000D03*
%TD*%
D11*
%TO.P,U1,1*%
%TO.N,Net-(R1-Pad1)*%
X115570000Y-63500000D03*
%TO.P,U1,2*%
%TO.N,GND*%
X115570000Y-66040000D03*
%TO.P,U1,3,NC*%
%TO.N,unconnected-(U1-Pad3)*%
X115570000Y-68580000D03*
%TO.P,U1,4*%
%TO.N,Net-(Q1-Pad1)*%
X123190000Y-68580000D03*
%TO.P,U1,5*%
%TO.N,Net-(C1-Pad1)*%
X123190000Y-66040000D03*
%TO.P,U1,6*%
%TO.N,unconnected-(U1-Pad6)*%
X123190000Y-63500000D03*
%TD*%
D17*
%TO.P,C3,1*%
%TO.N,Net-(C3-Pad1)*%
X147320000Y-80330000D03*
%TO.P,C3,2*%
%TO.N,Net-(C3-Pad2)*%
X147320000Y-82230000D03*
%TD*%
D18*
%TO.P,J2,1,Pin_1*%
%TO.N,Net-(D2-Pad3)*%
X175260000Y-60960000D03*
D19*
%TO.P,J2,2,Pin_2*%
%TO.N,Net-(D2-Pad4)*%
X175260000Y-55880000D03*
%TD*%
D20*
%TO.P,C1,1*%
%TO.N,Net-(C1-Pad1)*%
X124460000Y-51865000D03*
%TO.P,C1,2*%
%TO.N,Net-(C1-Pad2)*%
X124460000Y-54815000D03*
%TD*%
D21*
%TO.P,C2,1*%
%TO.N,Net-(C2-Pad1)*%
X129540000Y-51865000D03*
%TO.P,C2,2*%
%TO.N,Net-(C1-Pad2)*%
X129540000Y-54815000D03*
%TD*%
D15*
%TO.P,R9,1*%
%TO.N,Net-(Q2-Pad2)*%
X147320000Y-75375000D03*
%TO.P,R9,2*%
%TO.N,Net-(C3-Pad1)*%
X147320000Y-77025000D03*
%TD*%
D16*
%TO.P,R5,1*%
%TO.N,Net-(D6-Pad1)*%
X130365000Y-48260000D03*
%TO.P,R5,2*%
%TO.N,Net-(C2-Pad1)*%
X128715000Y-48260000D03*
%TD*%
D22*
%TO.P,Q2,1,A1*%
%TO.N,Net-(C3-Pad2)*%
X164220000Y-81020000D03*
D23*
%TO.P,Q2,2,A2*%
%TO.N,Net-(Q2-Pad2)*%
X157920000Y-78740000D03*
D22*
X164220000Y-78740000D03*
%TO.P,Q2,3,G*%
%TO.N,Net-(Q2-Pad3)*%
X164220000Y-76460000D03*
%TD*%
D18*
%TO.P,J4,1,Pin_1*%
%TO.N,Net-(C3-Pad2)*%
X175260000Y-81280000D03*
D19*
%TO.P,J4,2,Pin_2*%
%TO.N,Net-(Q2-Pad2)*%
X175260000Y-76200000D03*
%TD*%
D24*
%TO.P,R2,1*%
%TO.N,Net-(Q1-Pad1)*%
X129540000Y-59245000D03*
%TO.P,R2,2*%
%TO.N,Net-(C1-Pad2)*%
X129540000Y-57595000D03*
%TD*%
D18*
%TO.P,J3,1,Pin_1*%
%TO.N,Net-(J3-Pad1)*%
X175260000Y-101600000D03*
D19*
%TO.P,J3,2,Pin_2*%
%TO.N,Net-(J3-Pad2)*%
X175260000Y-96520000D03*
%TD*%
D25*
%TO.P,Q1,1,G*%
%TO.N,Net-(Q1-Pad1)*%
X142005000Y-60065000D03*
D26*
%TO.P,Q1,2,D*%
%TO.N,Net-(D2-Pad1)*%
X144545000Y-50915000D03*
D25*
X144545000Y-60065000D03*
%TO.P,Q1,3,S*%
%TO.N,Net-(C1-Pad2)*%
X147085000Y-60065000D03*
%TD*%
D15*
%TO.P,R8,1*%
%TO.N,Net-(J1-Pad5)*%
X109220000Y-88075000D03*
%TO.P,R8,2*%
%TO.N,+3V3*%
X109220000Y-89725000D03*
%TD*%
%TO.P,R10,1*%
%TO.N,Net-(Q2-Pad2)*%
X142240000Y-75375000D03*
%TO.P,R10,2*%
%TO.N,Net-(C4-Pad1)*%
X142240000Y-77025000D03*
%TD*%
D11*
%TO.P,U2,1*%
%TO.N,Net-(R6-Pad2)*%
X124145000Y-93980000D03*
%TO.P,U2,2*%
%TO.N,Net-(R7-Pad2)*%
X124145000Y-91440000D03*
%TO.P,U2,3,NC*%
%TO.N,unconnected-(U2-Pad3)*%
X124145000Y-88900000D03*
%TO.P,U2,4*%
%TO.N,GND*%
X114615000Y-88900000D03*
%TO.P,U2,5*%
%TO.N,Net-(J1-Pad5)*%
X114615000Y-91440000D03*
%TO.P,U2,6*%
%TO.N,unconnected-(U2-Pad6)*%
X114615000Y-93980000D03*
%TD*%
D16*
%TO.P,R4,1*%
%TO.N,Net-(C2-Pad1)*%
X125285000Y-48260000D03*
%TO.P,R4,2*%
%TO.N,Net-(R3-Pad1)*%
X123635000Y-48260000D03*
%TD*%
D27*
%TO.P,R6,1*%
%TO.N,Net-(J3-Pad1)*%
X163472500Y-101600000D03*
%TO.P,R6,2*%
%TO.N,Net-(R6-Pad2)*%
X161647500Y-101600000D03*
%TD*%
D20*
%TO.P,C4,1*%
%TO.N,Net-(C4-Pad1)*%
X142240000Y-79805000D03*
%TO.P,C4,2*%
%TO.N,Net-(C3-Pad2)*%
X142240000Y-82755000D03*
%TD*%
D27*
%TO.P,R7,1*%
%TO.N,Net-(J3-Pad2)*%
X163472500Y-96520000D03*
%TO.P,R7,2*%
%TO.N,Net-(R7-Pad2)*%
X161647500Y-96520000D03*
%TD*%
D24*
%TO.P,R11,1*%
%TO.N,Net-(C4-Pad1)*%
X137160000Y-77025000D03*
%TO.P,R11,2*%
%TO.N,Net-(R11-Pad2)*%
X137160000Y-75375000D03*
%TD*%
D28*
%TO.P,D2,1,+*%
%TO.N,Net-(D2-Pad1)*%
X155650000Y-55870000D03*
%TO.P,D2,2,-*%
%TO.N,Net-(C1-Pad2)*%
X155650000Y-60970000D03*
%TO.P,D2,3*%
%TO.N,Net-(D2-Pad3)*%
X164390000Y-60970000D03*
%TO.P,D2,4*%
%TO.N,Net-(D2-Pad4)*%
X164390000Y-55870000D03*
%TD*%
D29*
%TO.N,Net-(C1-Pad2)*%
X134620000Y-55880000D03*
X134620000Y-63500000D03*
%TO.N,Net-(Q2-Pad3)*%
X132080000Y-78740000D03*
X132080000Y-73660000D03*
%TD*%
D30*
%TO.N,Net-(C1-Pad1)*%
X119380000Y-51690000D02*
X118490000Y-51690000D01*
X124285000Y-51690000D02*
X124460000Y-51865000D01*
X127000000Y-60960000D02*
X127000000Y-63500000D01*
X124460000Y-66040000D02*
X123190000Y-66040000D01*
X124460000Y-58420000D02*
X127000000Y-60960000D01*
X127000000Y-63500000D02*
X124460000Y-66040000D01*
X116840000Y-53340000D02*
X116840000Y-55880000D01*
X119380000Y-58420000D02*
X124460000Y-58420000D01*
X118555000Y-48260000D02*
X119380000Y-49085000D01*
X119380000Y-49085000D02*
X119380000Y-51690000D01*
X118490000Y-51690000D02*
X116840000Y-53340000D01*
X116840000Y-55880000D02*
X119380000Y-58420000D01*
X119380000Y-51690000D02*
X124285000Y-51690000D01*
%TO.N,Net-(C1-Pad2)*%
X124285000Y-54990000D02*
X124460000Y-54815000D01*
X132905000Y-57595000D02*
X134620000Y-55880000D01*
X134620000Y-63500000D02*
X137160000Y-66040000D01*
X129540000Y-57595000D02*
X132905000Y-57595000D01*
X124460000Y-54815000D02*
X129540000Y-54815000D01*
D31*
X155650000Y-60970000D02*
X147990000Y-60970000D01*
D30*
X147085000Y-63735000D02*
X147085000Y-60065000D01*
X119380000Y-54990000D02*
X124285000Y-54990000D01*
X137160000Y-66040000D02*
X144780000Y-66040000D01*
X129540000Y-54815000D02*
X129540000Y-57595000D01*
D31*
X147990000Y-60970000D02*
X147085000Y-60065000D01*
D30*
X144780000Y-66040000D02*
X147085000Y-63735000D01*
%TO.N,Net-(C2-Pad1)*%
X129540000Y-49085000D02*
X129540000Y-51865000D01*
X128715000Y-48260000D02*
X125285000Y-48260000D01*
X128715000Y-48260000D02*
X129540000Y-49085000D01*
%TO.N,Net-(C3-Pad1)*%
X147320000Y-77025000D02*
X147320000Y-80330000D01*
%TO.N,Net-(C3-Pad2)*%
X143507462Y-82230000D02*
X147320000Y-82230000D01*
X147320000Y-83820000D02*
X149860000Y-86360000D01*
X162560000Y-86360000D02*
X165100000Y-83820000D01*
X165100000Y-83820000D02*
X165100000Y-83144507D01*
X164220000Y-81020000D02*
X164472305Y-81020000D01*
X147320000Y-82230000D02*
X147320000Y-83820000D01*
X149860000Y-86360000D02*
X162560000Y-86360000D01*
D31*
X165100000Y-81280000D02*
X175260000Y-81280000D01*
D30*
X165100000Y-81280000D02*
G75*
G03*
X164472305Y-81020000I-627696J-627697D01*
G01*
X143507462Y-82230000D02*
G75*
G03*
X142240000Y-82755000I-1J-1792459D01*
G01*
X164220000Y-81020000D02*
G75*
G02*
X165100000Y-83144507I-2124504J-2124506D01*
G01*
%TO.N,Net-(C4-Pad1)*%
X142240000Y-77025000D02*
X142240000Y-79805000D01*
X142240000Y-77025000D02*
X137160000Y-77025000D01*
D31*
%TO.N,Net-(D2-Pad1)*%
X144545000Y-60065000D02*
X144545000Y-50915000D01*
D30*
X142660000Y-52800000D02*
X144545000Y-50915000D01*
X134620000Y-52800000D02*
X142660000Y-52800000D01*
D31*
X155650000Y-55870000D02*
X149500000Y-55870000D01*
X149500000Y-55870000D02*
X144545000Y-50915000D01*
D30*
%TO.N,Net-(D6-Pad1)*%
X130365000Y-48260000D02*
X134620000Y-48260000D01*
X134620000Y-48260000D02*
X134620000Y-48800000D01*
%TO.N,+3V3*%
X106131726Y-89725000D02*
X109220000Y-89725000D01*
X99060000Y-83820000D02*
X104140000Y-88900000D01*
X99060000Y-73660000D02*
X99060000Y-83820000D01*
X101600000Y-71120000D02*
X99060000Y-73660000D01*
X106131726Y-89724999D02*
G75*
G02*
X104140001Y-88899999I-4J2816716D01*
G01*
%TO.N,GND*%
X104140000Y-73660000D02*
X101600000Y-73660000D01*
X115570000Y-78740000D02*
X119380000Y-78740000D01*
X119380000Y-63500000D02*
X114300000Y-58420000D01*
X115570000Y-66040000D02*
X119380000Y-66040000D01*
X106680000Y-71120000D02*
X104140000Y-73660000D01*
X114615000Y-88900000D02*
X116840000Y-88900000D01*
X114300000Y-58420000D02*
X109220000Y-58420000D01*
X119380000Y-66040000D02*
X119380000Y-63500000D01*
X119380000Y-66040000D02*
X119380000Y-78740000D01*
X119380000Y-86360000D02*
X119380000Y-78740000D01*
X109220000Y-58420000D02*
X106680000Y-60960000D01*
X116840000Y-88900000D02*
X119380000Y-86360000D01*
X106680000Y-60960000D02*
X106680000Y-71120000D01*
%TO.N,Net-(J1-Pad3)*%
X106680000Y-76200000D02*
X101600000Y-76200000D01*
X109220000Y-64325000D02*
X109220000Y-73660000D01*
X109220000Y-73660000D02*
X106680000Y-76200000D01*
%TO.N,Net-(J1-Pad4)*%
X109220000Y-77025000D02*
X108088363Y-78156637D01*
X106680000Y-78740000D02*
X101600000Y-78740000D01*
X106680000Y-78740000D02*
G75*
G03*
X108088363Y-78156637I1J1991723D01*
G01*
%TO.N,Net-(J1-Pad5)*%
X114165480Y-91440000D02*
X114165480Y-91626197D01*
X101600000Y-81280000D02*
X107811637Y-87491637D01*
X109220000Y-88075000D02*
X111149573Y-90004573D01*
X114165480Y-91626197D02*
X114297142Y-91757859D01*
X109220000Y-88075000D02*
G75*
G02*
X107811637Y-87491637I-1J1991723D01*
G01*
X114615000Y-91440000D02*
G75*
G02*
X111149573Y-90004573I-2J4900848D01*
G01*
%TO.N,Net-(J3-Pad1)*%
X175260000Y-101600000D02*
X163472500Y-101600000D01*
%TO.N,Net-(J3-Pad2)*%
X175260000Y-96520000D02*
X163472500Y-96520000D01*
%TO.N,Net-(Q1-Pad1)*%
X129540000Y-59245000D02*
X130360000Y-60065000D01*
X123190000Y-68580000D02*
X124460000Y-68580000D01*
X129540000Y-63500000D02*
X129540000Y-59245000D01*
X130360000Y-60065000D02*
X142005000Y-60065000D01*
X124460000Y-68580000D02*
X129540000Y-63500000D01*
%TO.N,Net-(Q2-Pad3)*%
X132080000Y-78740000D02*
X129540000Y-81280000D01*
X164472305Y-76460000D02*
X164220000Y-76460000D01*
X162560000Y-73660000D02*
X132080000Y-73660000D01*
X129540000Y-81280000D02*
X123190000Y-81280000D01*
X162560000Y-73660000D02*
X165100000Y-76200000D01*
X164472305Y-76459999D02*
G75*
G03*
X165099999Y-76199999I-1J887696D01*
G01*
%TO.N,Net-(R1-Pad1)*%
X115570000Y-63500000D02*
X111211726Y-63500000D01*
X109220000Y-62675000D02*
G75*
G03*
X111211726Y-63500000I1991724J1991722D01*
G01*
%TO.N,Net-(R3-Pad1)*%
X120205000Y-48260000D02*
X123635000Y-48260000D01*
%TO.N,Net-(R6-Pad2)*%
X152400000Y-93980000D02*
X158869183Y-100449184D01*
X152400000Y-93980000D02*
X124145000Y-93980000D01*
X158869183Y-100449184D02*
G75*
G03*
X161647500Y-101600000I2778316J2778316D01*
G01*
%TO.N,Net-(R7-Pad2)*%
X158869183Y-95369184D02*
X154940000Y-91440000D01*
X154940000Y-91440000D02*
X124145000Y-91440000D01*
X158869183Y-95369184D02*
G75*
G03*
X161647500Y-96520000I2778316J2778316D01*
G01*
%TO.N,Net-(R11-Pad2)*%
X135168274Y-76200000D02*
X123190000Y-76200000D01*
X135168274Y-76199999D02*
G75*
G03*
X137159999Y-75374999I-3J2816732D01*
G01*
%TO.N,Net-(R12-Pad1)*%
X111211726Y-76200000D02*
X115570000Y-76200000D01*
X111211726Y-76199999D02*
G75*
G02*
X109220001Y-75374999I-4J2816716D01*
G01*
%TO.N,Net-(D2-Pad3)*%
X175250000Y-60970000D02*
X175260000Y-60960000D01*
D31*
X164390000Y-60970000D02*
X175250000Y-60970000D01*
D30*
%TO.N,Net-(D2-Pad4)*%
X175250000Y-55870000D02*
X175260000Y-55880000D01*
D31*
X164390000Y-55870000D02*
X175250000Y-55870000D01*
%TO.N,Net-(Q2-Pad2)*%
X164220000Y-78740000D02*
X167640000Y-78740000D01*
D30*
X149311726Y-76200000D02*
X154940000Y-76200000D01*
D31*
X170180000Y-76200000D02*
X175260000Y-76200000D01*
X164220000Y-78740000D02*
X157920000Y-78740000D01*
D30*
X142240000Y-75375000D02*
X147320000Y-75375000D01*
D31*
X167640000Y-78740000D02*
X170180000Y-76200000D01*
D30*
X155691127Y-76511127D02*
X157920000Y-78740000D01*
X149311726Y-76199999D02*
G75*
G02*
X147320001Y-75374999I-4J2816716D01*
G01*
X155691127Y-76511127D02*
G75*
G03*
X154940000Y-76200000I-751126J-751124D01*
G01*
%TD*%
M02*
