%TF.GenerationSoftware,KiCad,Pcbnew,(6.0.0-0)*%
%TF.CreationDate,2022-12-02T08:06:54+01:00*%
%TF.ProjectId,prototype-2,70726f74-6f74-4797-9065-2d322e6b6963,rev?*%
%TF.SameCoordinates,Original*%
%TF.FileFunction,Soldermask,Top*%
%TF.FilePolarity,Negative*%
%FSLAX46Y46*%
G04 Gerber Fmt 4.6, Leading zero omitted, Abs format (unit mm)*
G04 Created by KiCad (PCBNEW (6.0.0-0)) date 2022-12-02 08:06:54*
%MOMM*%
%LPD*%
G01*
G04 APERTURE LIST*
G04 Aperture macros list*
%AMRoundRect*
0 Rectangle with rounded corners*
0 $1 Rounding radius*
0 $2 $3 $4 $5 $6 $7 $8 $9 X,Y pos of 4 corners*
0 Add a 4 corners polygon primitive as box body*
4,1,4,$2,$3,$4,$5,$6,$7,$8,$9,$2,$3,0*
0 Add four circle primitives for the rounded corners*
1,1,$1+$1,$2,$3*
1,1,$1+$1,$4,$5*
1,1,$1+$1,$6,$7*
1,1,$1+$1,$8,$9*
0 Add four rect primitives between the rounded corners*
20,1,$1+$1,$2,$3,$4,$5,0*
20,1,$1+$1,$4,$5,$6,$7,0*
20,1,$1+$1,$6,$7,$8,$9,0*
20,1,$1+$1,$8,$9,$2,$3,0*%
G04 Aperture macros list end*
%ADD10R,3.000000X3.000000*%
%ADD11C,3.000000*%
%ADD12R,2.400000X2.400000*%
%ADD13C,2.400000*%
%ADD14C,0.900000*%
%ADD15C,8.600000*%
%ADD16RoundRect,0.135000X-0.135000X-0.185000X0.135000X-0.185000X0.135000X0.185000X-0.135000X0.185000X0*%
%ADD17R,1.778000X1.778000*%
%ADD18C,1.778000*%
%ADD19R,1.700000X1.700000*%
%ADD20O,1.700000X1.700000*%
%ADD21R,1.431000X1.431000*%
%ADD22C,1.431000*%
%ADD23C,3.450000*%
%ADD24R,0.700000X1.250013*%
%ADD25C,6.600000*%
%ADD26C,4.300000*%
%ADD27RoundRect,0.135000X-0.185000X0.135000X-0.185000X-0.135000X0.185000X-0.135000X0.185000X0.135000X0*%
%ADD28RoundRect,0.243750X-0.456250X0.243750X-0.456250X-0.243750X0.456250X-0.243750X0.456250X0.243750X0*%
%ADD29RoundRect,0.135000X0.135000X0.185000X-0.135000X0.185000X-0.135000X-0.185000X0.135000X-0.185000X0*%
%ADD30R,1.200000X0.900000*%
%ADD31C,1.650000*%
G04 APERTURE END LIST*
D10*
%TO.C,J4*%
X185791920Y-151120000D03*
D11*
X190871920Y-151120000D03*
%TD*%
D12*
%TO.C,PS1*%
X73277500Y-74287500D03*
D13*
X73277500Y-94607500D03*
X118997500Y-84447500D03*
X118997500Y-74287500D03*
%TD*%
D14*
%TO.C,REF\u002A\u002A*%
X248180419Y-161520419D03*
X245900000Y-162465000D03*
X243619581Y-156959581D03*
D15*
X245900000Y-159240000D03*
D14*
X243619581Y-161520419D03*
X245900000Y-156015000D03*
X249125000Y-159240000D03*
X248180419Y-156959581D03*
X242675000Y-159240000D03*
%TD*%
D16*
%TO.C,R4*%
X197981920Y-132070000D03*
X199001920Y-132070000D03*
%TD*%
%TO.C,R2*%
X195071920Y-127625000D03*
X196091920Y-127625000D03*
%TD*%
D10*
%TO.C,J5*%
X205476920Y-151120000D03*
D11*
X210556920Y-151120000D03*
%TD*%
D17*
%TO.C,U1*%
X74425000Y-53380000D03*
D18*
X76965000Y-53380000D03*
X79505000Y-53380000D03*
X82045000Y-53380000D03*
X84585000Y-53380000D03*
X87125000Y-53380000D03*
X89665000Y-53380000D03*
X92205000Y-53380000D03*
X94745000Y-53380000D03*
X97285000Y-53380000D03*
X97285000Y-27980000D03*
X94745000Y-27980000D03*
X92205000Y-27980000D03*
X89665000Y-27980000D03*
X87125000Y-27980000D03*
X84585000Y-27980000D03*
X82045000Y-27980000D03*
X79505000Y-27980000D03*
X76965000Y-27980000D03*
X74425000Y-27980000D03*
%TD*%
D14*
%TO.C,REF\u002A\u002A*%
X41275000Y-159240000D03*
X44500000Y-162465000D03*
X44500000Y-156015000D03*
X42219581Y-156959581D03*
D15*
X44500000Y-159240000D03*
D14*
X46780419Y-161520419D03*
X42219581Y-161520419D03*
X47725000Y-159240000D03*
X46780419Y-156959581D03*
%TD*%
D19*
%TO.C,J3*%
X152400000Y-49530000D03*
D20*
X152400000Y-52070000D03*
X152400000Y-54610000D03*
X152400000Y-57150000D03*
%TD*%
D21*
%TO.C,J1*%
X52380000Y-94955000D03*
D22*
X54880000Y-94955000D03*
X56880000Y-94955000D03*
X59380000Y-94955000D03*
D23*
X62450000Y-97665000D03*
X49310000Y-97665000D03*
%TD*%
D14*
%TO.C,REF\u002A\u002A*%
X41275000Y-21240000D03*
X46780419Y-18959581D03*
X44500000Y-24465000D03*
X46780419Y-23520419D03*
X47725000Y-21240000D03*
X44500000Y-18015000D03*
X42219581Y-23520419D03*
D15*
X44500000Y-21240000D03*
D14*
X42219581Y-18959581D03*
%TD*%
D10*
%TO.C,J6*%
X223891920Y-151120000D03*
D11*
X228971920Y-151120000D03*
%TD*%
D24*
%TO.C,Q1*%
X193096958Y-129550318D03*
X194996882Y-129550318D03*
X194046920Y-132049682D03*
%TD*%
D19*
%TO.C,J2*%
X162560000Y-49530000D03*
D20*
X162560000Y-52070000D03*
X162560000Y-54610000D03*
%TD*%
D10*
%TO.C,T1*%
X191415000Y-79095000D03*
D11*
X191415000Y-44095000D03*
X226415000Y-46595000D03*
X226415000Y-51595000D03*
X226415000Y-71595000D03*
X226415000Y-76595000D03*
D25*
X185165000Y-100345000D03*
X185165000Y-22845000D03*
X232665000Y-22845000D03*
X232665000Y-100345000D03*
%TD*%
D14*
%TO.C,REF\u002A\u002A*%
X39480419Y-92520419D03*
D15*
X37200000Y-90240000D03*
D14*
X33975000Y-90240000D03*
X37200000Y-93465000D03*
X39480419Y-87959581D03*
X34919581Y-87959581D03*
X37200000Y-87015000D03*
X34919581Y-92520419D03*
X40425000Y-90240000D03*
%TD*%
%TO.C,REF\u002A\u002A*%
X255480419Y-87959581D03*
X250919581Y-87959581D03*
X253200000Y-93465000D03*
X250919581Y-92520419D03*
X249975000Y-90240000D03*
X256425000Y-90240000D03*
D15*
X253200000Y-90240000D03*
D14*
X253200000Y-87015000D03*
X255480419Y-92520419D03*
%TD*%
D26*
%TO.C,REF\u002A\u002A*%
X143620000Y-84690000D03*
%TD*%
%TO.C,REF\u002A\u002A*%
X49640000Y-84690000D03*
%TD*%
D27*
%TO.C,R1*%
X157480000Y-52830000D03*
X157480000Y-53850000D03*
%TD*%
D28*
%TO.C,D1*%
X198491920Y-127957500D03*
X198491920Y-129832500D03*
%TD*%
D15*
%TO.C,REF\u002A\u002A*%
X245900000Y-21240000D03*
D14*
X249125000Y-21240000D03*
X243619581Y-23520419D03*
X248180419Y-18959581D03*
X245900000Y-18015000D03*
X245900000Y-24465000D03*
X242675000Y-21240000D03*
X243619581Y-18959581D03*
X248180419Y-23520419D03*
%TD*%
D29*
%TO.C,R3*%
X193286920Y-127625000D03*
X192266920Y-127625000D03*
%TD*%
D30*
%TO.C,D2*%
X202301920Y-131180000D03*
X202301920Y-127880000D03*
%TD*%
D31*
%TO.C,K1*%
X210185000Y-127000000D03*
X212725000Y-127000000D03*
X220345000Y-127000000D03*
X227965000Y-127000000D03*
%TD*%
M02*
