M48
; DRILL file {KiCad (6.0.0-0)} date 2022 December 02, Friday 08:06:54
; FORMAT={-:-/ absolute / inch / decimal}
; #@! TF.CreationDate,2022-12-02T08:06:54+01:00
; #@! TF.GenerationSoftware,Kicad,Pcbnew,(6.0.0-0)
; #@! TF.FileFunction,Plated,1,2,PTH
FMAT,2
INCH
; #@! TA.AperFunction,Plated,PTH,ViaDrill
T1C0.0157
; #@! TA.AperFunction,Plated,PTH,ComponentDrill
T2C0.0236
; #@! TA.AperFunction,Plated,PTH,ComponentDrill
T3C0.0362
; #@! TA.AperFunction,Plated,PTH,ComponentDrill
T4C0.0394
; #@! TA.AperFunction,Plated,PTH,ComponentDrill
T5C0.0433
; #@! TA.AperFunction,Plated,PTH,ComponentDrill
T6C0.0512
; #@! TA.AperFunction,Plated,PTH,ComponentDrill
T7C0.0598
; #@! TA.AperFunction,Plated,PTH,ComponentDrill
T8C0.0906
; #@! TA.AperFunction,Plated,PTH,ComponentDrill
T9C0.1693
; #@! TA.AperFunction,Plated,PTH,ComponentDrill
T10C0.1732
%
G90
G05
T1
X6.15Y-2.05
X7.35Y-5.25
T2
X1.3376Y-3.5528
X1.3748Y-3.463
X1.3748Y-3.6425
X1.4646Y-3.4258
X1.4646Y-3.6797
X1.5543Y-3.463
X1.5543Y-3.6425
X1.5915Y-3.5528
X1.625Y-0.8362
X1.625Y-6.2693
X1.6622Y-0.7464
X1.6622Y-0.926
X1.6622Y-6.1795
X1.6622Y-6.3591
X1.752Y-0.7093
X1.752Y-0.9632
X1.752Y-6.1423
X1.752Y-6.3963
X1.8417Y-0.7464
X1.8417Y-0.926
X1.8417Y-6.1795
X1.8417Y-6.3591
X1.8789Y-0.8362
X1.8789Y-6.2693
X9.5541Y-0.8362
X9.5541Y-6.2693
X9.5913Y-0.7464
X9.5913Y-0.926
X9.5913Y-6.1795
X9.5913Y-6.3591
X9.6811Y-0.7093
X9.6811Y-0.9632
X9.6811Y-6.1423
X9.6811Y-6.3963
X9.7709Y-0.7464
X9.7709Y-0.926
X9.7709Y-6.1795
X9.7709Y-6.3591
X9.8081Y-0.8362
X9.8081Y-6.2693
X9.8415Y-3.5528
X9.8787Y-3.463
X9.8787Y-3.6425
X9.9685Y-3.4258
X9.9685Y-3.6797
X10.0583Y-3.463
X10.0583Y-3.6425
X10.0955Y-3.5528
T3
X2.0622Y-3.7384
X2.1606Y-3.7384
X2.2394Y-3.7384
X2.3378Y-3.7384
T4
X2.9301Y-1.1016
X2.9301Y-2.1016
X3.0301Y-1.1016
X3.0301Y-2.1016
X3.1301Y-1.1016
X3.1301Y-2.1016
X3.2301Y-1.1016
X3.2301Y-2.1016
X3.3301Y-1.1016
X3.3301Y-2.1016
X3.4301Y-1.1016
X3.4301Y-2.1016
X3.5301Y-1.1016
X3.5301Y-2.1016
X3.6301Y-1.1016
X3.6301Y-2.1016
X3.7301Y-1.1016
X3.7301Y-2.1016
X3.8301Y-1.1016
X3.8301Y-2.1016
X6.0Y-1.95
X6.0Y-2.05
X6.0Y-2.15
X6.0Y-2.25
X6.4Y-1.95
X6.4Y-2.05
X6.4Y-2.15
T5
X8.275Y-5.0
X8.375Y-5.0
X8.675Y-5.0
X8.975Y-5.0
T6
X2.8849Y-2.9247
X2.8849Y-3.7247
X4.6849Y-2.9247
X4.6849Y-3.3247
T7
X7.3146Y-5.9496
X7.5146Y-5.9496
X7.536Y-1.736
X7.536Y-3.114
X8.0896Y-5.9496
X8.2896Y-5.9496
X8.8146Y-5.9496
X8.914Y-1.8344
X8.914Y-2.0313
X8.914Y-2.8187
X8.914Y-3.0156
X9.0146Y-5.9496
T8
X1.9413Y-3.8451
X2.4587Y-3.8451
T9
X1.4646Y-3.5528
X1.752Y-0.8362
X1.752Y-6.2693
X9.6811Y-0.8362
X9.6811Y-6.2693
X9.9685Y-3.5528
T10
X7.29Y-0.8994
X7.29Y-3.9506
X9.16Y-0.8994
X9.16Y-3.9506
T0
M30
