%TF.GenerationSoftware,KiCad,Pcbnew,(6.0.0-0)*%
%TF.CreationDate,2022-12-02T08:06:54+01:00*%
%TF.ProjectId,prototype-2,70726f74-6f74-4797-9065-2d322e6b6963,rev?*%
%TF.SameCoordinates,Original*%
%TF.FileFunction,Copper,L1,Top*%
%TF.FilePolarity,Positive*%
%FSLAX46Y46*%
G04 Gerber Fmt 4.6, Leading zero omitted, Abs format (unit mm)*
G04 Created by KiCad (PCBNEW (6.0.0-0)) date 2022-12-02 08:06:54*
%MOMM*%
%LPD*%
G01*
G04 APERTURE LIST*
G04 Aperture macros list*
%AMRoundRect*
0 Rectangle with rounded corners*
0 $1 Rounding radius*
0 $2 $3 $4 $5 $6 $7 $8 $9 X,Y pos of 4 corners*
0 Add a 4 corners polygon primitive as box body*
4,1,4,$2,$3,$4,$5,$6,$7,$8,$9,$2,$3,0*
0 Add four circle primitives for the rounded corners*
1,1,$1+$1,$2,$3*
1,1,$1+$1,$4,$5*
1,1,$1+$1,$6,$7*
1,1,$1+$1,$8,$9*
0 Add four rect primitives between the rounded corners*
20,1,$1+$1,$2,$3,$4,$5,0*
20,1,$1+$1,$4,$5,$6,$7,0*
20,1,$1+$1,$6,$7,$8,$9,0*
20,1,$1+$1,$8,$9,$2,$3,0*%
G04 Aperture macros list end*
%TA.AperFunction,ComponentPad*%
%ADD10R,3.000000X3.000000*%
%TD*%
%TA.AperFunction,ComponentPad*%
%ADD11C,3.000000*%
%TD*%
%TA.AperFunction,ComponentPad*%
%ADD12R,2.400000X2.400000*%
%TD*%
%TA.AperFunction,ComponentPad*%
%ADD13C,2.400000*%
%TD*%
%TA.AperFunction,ComponentPad*%
%ADD14C,0.900000*%
%TD*%
%TA.AperFunction,ComponentPad*%
%ADD15C,8.600000*%
%TD*%
%TA.AperFunction,SMDPad,CuDef*%
%ADD16RoundRect,0.135000X-0.135000X-0.185000X0.135000X-0.185000X0.135000X0.185000X-0.135000X0.185000X0*%
%TD*%
%TA.AperFunction,ComponentPad*%
%ADD17R,1.778000X1.778000*%
%TD*%
%TA.AperFunction,ComponentPad*%
%ADD18C,1.778000*%
%TD*%
%TA.AperFunction,ComponentPad*%
%ADD19R,1.700000X1.700000*%
%TD*%
%TA.AperFunction,ComponentPad*%
%ADD20O,1.700000X1.700000*%
%TD*%
%TA.AperFunction,ComponentPad*%
%ADD21R,1.431000X1.431000*%
%TD*%
%TA.AperFunction,ComponentPad*%
%ADD22C,1.431000*%
%TD*%
%TA.AperFunction,ComponentPad*%
%ADD23C,3.450000*%
%TD*%
%TA.AperFunction,SMDPad,CuDef*%
%ADD24R,0.700000X1.250013*%
%TD*%
%TA.AperFunction,ComponentPad*%
%ADD25C,6.600000*%
%TD*%
%TA.AperFunction,SMDPad,CuDef*%
%ADD26RoundRect,0.135000X-0.185000X0.135000X-0.185000X-0.135000X0.185000X-0.135000X0.185000X0.135000X0*%
%TD*%
%TA.AperFunction,SMDPad,CuDef*%
%ADD27RoundRect,0.243750X-0.456250X0.243750X-0.456250X-0.243750X0.456250X-0.243750X0.456250X0.243750X0*%
%TD*%
%TA.AperFunction,SMDPad,CuDef*%
%ADD28RoundRect,0.135000X0.135000X0.185000X-0.135000X0.185000X-0.135000X-0.185000X0.135000X-0.185000X0*%
%TD*%
%TA.AperFunction,SMDPad,CuDef*%
%ADD29R,1.200000X0.900000*%
%TD*%
%TA.AperFunction,ComponentPad*%
%ADD30C,1.650000*%
%TD*%
%TA.AperFunction,ViaPad*%
%ADD31C,0.800000*%
%TD*%
%TA.AperFunction,Conductor*%
%ADD32C,0.250000*%
%TD*%
%TA.AperFunction,Conductor*%
%ADD33C,1.000000*%
%TD*%
G04 APERTURE END LIST*
D10*
%TO.P,J4,1,Pin_1*%
%TO.N,Net-(J4-Pad1)*%
X185791920Y-151120000D03*
D11*
%TO.P,J4,2,Pin_2*%
%TO.N,Net-(J4-Pad2)*%
X190871920Y-151120000D03*
%TD*%
D12*
%TO.P,PS1,1,AC/N*%
%TO.N,Net-(J4-Pad2)*%
X73277500Y-74287500D03*
D13*
%TO.P,PS1,2,AC/L*%
%TO.N,Net-(J4-Pad1)*%
X73277500Y-94607500D03*
%TO.P,PS1,3,-Vo*%
%TO.N,GND*%
X118997500Y-84447500D03*
%TO.P,PS1,4,+Vo*%
%TO.N,+5V*%
X118997500Y-74287500D03*
%TD*%
D14*
%TO.P,REF\u002A\u002A,1*%
%TO.N,N/C*%
X248180419Y-161520419D03*
X245900000Y-162465000D03*
X243619581Y-156959581D03*
D15*
X245900000Y-159240000D03*
D14*
X243619581Y-161520419D03*
X245900000Y-156015000D03*
X249125000Y-159240000D03*
X248180419Y-156959581D03*
X242675000Y-159240000D03*
%TD*%
D16*
%TO.P,R4,1*%
%TO.N,+5V*%
X197981920Y-132070000D03*
%TO.P,R4,2*%
%TO.N,Net-(D1-Pad2)*%
X199001920Y-132070000D03*
%TD*%
%TO.P,R2,1*%
%TO.N,Net-(Q1-Pad2)*%
X195071920Y-127625000D03*
%TO.P,R2,2*%
%TO.N,Net-(R2-Pad2)*%
X196091920Y-127625000D03*
%TD*%
D10*
%TO.P,J5,1,Pin_1*%
%TO.N,Net-(J5-Pad1)*%
X205476920Y-151120000D03*
D11*
%TO.P,J5,2,Pin_2*%
%TO.N,Net-(J4-Pad2)*%
X210556920Y-151120000D03*
%TD*%
D17*
%TO.P,U1,1,+5V*%
%TO.N,+5V*%
X74425000Y-53380000D03*
D18*
%TO.P,U1,2,+3.3V_(out)*%
%TO.N,+3V3*%
X76965000Y-53380000D03*
%TO.P,U1,3,GND*%
%TO.N,GND*%
X79505000Y-53380000D03*
%TO.P,U1,4,ESP_EN*%
%TO.N,unconnected-(U1-Pad4)*%
X82045000Y-53380000D03*
%TO.P,U1,5,GPIO0*%
%TO.N,unconnected-(U1-Pad5)*%
X84585000Y-53380000D03*
%TO.P,U1,6,GPIO1*%
%TO.N,unconnected-(U1-Pad6)*%
X87125000Y-53380000D03*
%TO.P,U1,7,GPIO2*%
%TO.N,unconnected-(U1-Pad7)*%
X89665000Y-53380000D03*
%TO.P,U1,8,GPIO3*%
%TO.N,unconnected-(U1-Pad8)*%
X92205000Y-53380000D03*
%TO.P,U1,9,GPIO4*%
%TO.N,unconnected-(U1-Pad9)*%
X94745000Y-53380000D03*
%TO.P,U1,10,GPIO5*%
%TO.N,unconnected-(U1-Pad10)*%
X97285000Y-53380000D03*
%TO.P,U1,11,GPIO13*%
%TO.N,Net-(J2-Pad3)*%
X97285000Y-27980000D03*
%TO.P,U1,12,GPIO14*%
%TO.N,unconnected-(U1-Pad12)*%
X94745000Y-27980000D03*
%TO.P,U1,13,GPIO15*%
%TO.N,unconnected-(U1-Pad13)*%
X92205000Y-27980000D03*
%TO.P,U1,14,GPIO16*%
%TO.N,unconnected-(U1-Pad14)*%
X89665000Y-27980000D03*
%TO.P,U1,15,GPIO32*%
%TO.N,unconnected-(U1-Pad15)*%
X87125000Y-27980000D03*
%TO.P,U1,16,GPIO33*%
%TO.N,Net-(R2-Pad2)*%
X84585000Y-27980000D03*
%TO.P,U1,17,GPIO34*%
%TO.N,unconnected-(U1-Pad17)*%
X82045000Y-27980000D03*
%TO.P,U1,18,GPIO35*%
%TO.N,unconnected-(U1-Pad18)*%
X79505000Y-27980000D03*
%TO.P,U1,19,GPIO36*%
%TO.N,Net-(J3-Pad4)*%
X76965000Y-27980000D03*
%TO.P,U1,20,GPIO39*%
%TO.N,unconnected-(U1-Pad20)*%
X74425000Y-27980000D03*
%TD*%
D14*
%TO.P,REF\u002A\u002A,1*%
%TO.N,N/C*%
X41275000Y-159240000D03*
X44500000Y-162465000D03*
X44500000Y-156015000D03*
X42219581Y-156959581D03*
D15*
X44500000Y-159240000D03*
D14*
X46780419Y-161520419D03*
X42219581Y-161520419D03*
X47725000Y-159240000D03*
X46780419Y-156959581D03*
%TD*%
D19*
%TO.P,J3,1,Pin_1*%
%TO.N,GND*%
X152400000Y-49530000D03*
D20*
%TO.P,J3,2,Pin_2*%
X152400000Y-52070000D03*
%TO.P,J3,3,Pin_3*%
%TO.N,+5V*%
X152400000Y-54610000D03*
%TO.P,J3,4,Pin_4*%
%TO.N,Net-(J3-Pad4)*%
X152400000Y-57150000D03*
%TD*%
D21*
%TO.P,J1,1,VBUS*%
%TO.N,+5V*%
X52380000Y-94955000D03*
D22*
%TO.P,J1,2,D-*%
%TO.N,unconnected-(J1-Pad2)*%
X54880000Y-94955000D03*
%TO.P,J1,3,D+*%
%TO.N,unconnected-(J1-Pad3)*%
X56880000Y-94955000D03*
%TO.P,J1,4,GND*%
%TO.N,GND*%
X59380000Y-94955000D03*
D23*
%TO.P,J1,5,Shield*%
X62450000Y-97665000D03*
X49310000Y-97665000D03*
%TD*%
D14*
%TO.P,REF\u002A\u002A,1*%
%TO.N,N/C*%
X41275000Y-21240000D03*
X46780419Y-18959581D03*
X44500000Y-24465000D03*
X46780419Y-23520419D03*
X47725000Y-21240000D03*
X44500000Y-18015000D03*
X42219581Y-23520419D03*
D15*
X44500000Y-21240000D03*
D14*
X42219581Y-18959581D03*
%TD*%
D10*
%TO.P,J6,1,Pin_1*%
%TO.N,Net-(J6-Pad1)*%
X223891920Y-151120000D03*
D11*
%TO.P,J6,2,Pin_2*%
%TO.N,Net-(J6-Pad2)*%
X228971920Y-151120000D03*
%TD*%
D24*
%TO.P,Q1,1,E*%
%TO.N,GND*%
X193096958Y-129550318D03*
%TO.P,Q1,2,B*%
%TO.N,Net-(Q1-Pad2)*%
X194996882Y-129550318D03*
%TO.P,Q1,3,C*%
%TO.N,Net-(D1-Pad1)*%
X194046920Y-132049682D03*
%TD*%
D19*
%TO.P,J2,1,Pin_1*%
%TO.N,GND*%
X162560000Y-49530000D03*
D20*
%TO.P,J2,2,Pin_2*%
%TO.N,+3V3*%
X162560000Y-52070000D03*
%TO.P,J2,3,Pin_3*%
%TO.N,Net-(J2-Pad3)*%
X162560000Y-54610000D03*
%TD*%
D10*
%TO.P,T1,1,AA*%
%TO.N,Net-(J5-Pad1)*%
X191415000Y-79095000D03*
D11*
%TO.P,T1,2,AB*%
%TO.N,Net-(J4-Pad2)*%
X191415000Y-44095000D03*
%TO.P,T1,3,SA*%
%TO.N,Net-(J6-Pad1)*%
X226415000Y-46595000D03*
%TO.P,T1,4,SB*%
%TO.N,Net-(T1-Pad4)*%
X226415000Y-51595000D03*
%TO.P,T1,5,SC*%
X226415000Y-71595000D03*
%TO.P,T1,6,SD*%
%TO.N,Net-(J6-Pad2)*%
X226415000Y-76595000D03*
D25*
%TO.P,T1,MH1*%
%TO.N,N/C*%
X185165000Y-100345000D03*
%TO.P,T1,MH2*%
X185165000Y-22845000D03*
%TO.P,T1,MH3*%
X232665000Y-22845000D03*
%TO.P,T1,MH4*%
X232665000Y-100345000D03*
%TD*%
D14*
%TO.P,REF\u002A\u002A,1*%
%TO.N,N/C*%
X39480419Y-92520419D03*
D15*
X37200000Y-90240000D03*
D14*
X33975000Y-90240000D03*
X37200000Y-93465000D03*
X39480419Y-87959581D03*
X34919581Y-87959581D03*
X37200000Y-87015000D03*
X34919581Y-92520419D03*
X40425000Y-90240000D03*
%TD*%
%TO.P,REF\u002A\u002A,1*%
%TO.N,N/C*%
X255480419Y-87959581D03*
X250919581Y-87959581D03*
X253200000Y-93465000D03*
X250919581Y-92520419D03*
X249975000Y-90240000D03*
X256425000Y-90240000D03*
D15*
X253200000Y-90240000D03*
D14*
X253200000Y-87015000D03*
X255480419Y-92520419D03*
%TD*%
D26*
%TO.P,R1,1*%
%TO.N,+3V3*%
X157480000Y-52830000D03*
%TO.P,R1,2*%
%TO.N,Net-(J2-Pad3)*%
X157480000Y-53850000D03*
%TD*%
D27*
%TO.P,D1,1,K*%
%TO.N,Net-(D1-Pad1)*%
X198491920Y-127957500D03*
%TO.P,D1,2,A*%
%TO.N,Net-(D1-Pad2)*%
X198491920Y-129832500D03*
%TD*%
D15*
%TO.P,REF\u002A\u002A,1*%
%TO.N,N/C*%
X245900000Y-21240000D03*
D14*
X249125000Y-21240000D03*
X243619581Y-23520419D03*
X248180419Y-18959581D03*
X245900000Y-18015000D03*
X245900000Y-24465000D03*
X242675000Y-21240000D03*
X243619581Y-18959581D03*
X248180419Y-23520419D03*
%TD*%
D28*
%TO.P,R3,1*%
%TO.N,Net-(Q1-Pad2)*%
X193286920Y-127625000D03*
%TO.P,R3,2*%
%TO.N,GND*%
X192266920Y-127625000D03*
%TD*%
D29*
%TO.P,D2,1,K*%
%TO.N,+5V*%
X202301920Y-131180000D03*
%TO.P,D2,2,A*%
%TO.N,Net-(D1-Pad1)*%
X202301920Y-127880000D03*
%TD*%
D30*
%TO.P,K1,1*%
%TO.N,+5V*%
X210185000Y-127000000D03*
%TO.P,K1,2*%
%TO.N,Net-(D1-Pad1)*%
X212725000Y-127000000D03*
%TO.P,K1,5*%
%TO.N,Net-(J4-Pad1)*%
X220345000Y-127000000D03*
%TO.P,K1,8*%
%TO.N,Net-(J5-Pad1)*%
X227965000Y-127000000D03*
%TD*%
D31*
%TO.N,+5V*%
X186690000Y-133350000D03*
%TO.N,+3V3*%
X156210000Y-52070000D03*
%TD*%
D32*
%TO.N,Net-(D1-Pad1)*%
X194046920Y-132049682D02*
X195972238Y-132049682D01*
X195972238Y-132049682D02*
X196586920Y-131435000D01*
X198569420Y-127880000D02*
X198491920Y-127957500D01*
X204586920Y-127880000D02*
X208016920Y-124450000D01*
X202301920Y-127880000D02*
X204586920Y-127880000D01*
X196586920Y-128895000D02*
X197524420Y-127957500D01*
X196586920Y-131435000D02*
X196586920Y-128895000D01*
X208016920Y-124450000D02*
X211826920Y-124450000D01*
X197524420Y-127957500D02*
X198491920Y-127957500D01*
X212725000Y-125348080D02*
X212725000Y-127000000D01*
X211826920Y-124450000D02*
X212725000Y-125348080D01*
X202301920Y-127880000D02*
X198569420Y-127880000D01*
%TO.N,Net-(D1-Pad2)*%
X199001920Y-130342500D02*
X198491920Y-129832500D01*
X199001920Y-132070000D02*
X199001920Y-130342500D01*
%TO.N,+5V*%
X186700000Y-133340000D02*
X186690000Y-133350000D01*
X197981920Y-132070000D02*
X197981920Y-133215000D01*
X186700000Y-133340000D02*
X201031920Y-133340000D01*
X210185000Y-127000000D02*
X206005000Y-131180000D01*
X206005000Y-131180000D02*
X202301920Y-131180000D01*
X202301920Y-131180000D02*
X202301920Y-132070000D01*
X202301920Y-132070000D02*
X201031920Y-133340000D01*
%TO.N,GND*%
X162175000Y-127625000D02*
X118997500Y-84447500D01*
X118997500Y-84447500D02*
X75667500Y-84447500D01*
X162560000Y-49530000D02*
X152400000Y-49530000D01*
X192266920Y-127625000D02*
X162175000Y-127625000D01*
X59565000Y-97665000D02*
X49310000Y-97665000D01*
X79505000Y-54480000D02*
X79505000Y-53380000D01*
X59380000Y-74605000D02*
X79505000Y-54480000D01*
X59380000Y-97480000D02*
X59565000Y-97665000D01*
X152400000Y-49530000D02*
X152400000Y-52070000D01*
X75667500Y-84447500D02*
X62450000Y-97665000D01*
X192266920Y-128720280D02*
X193096958Y-129550318D01*
X152400000Y-52070000D02*
X148590000Y-52070000D01*
X148590000Y-52070000D02*
X118997500Y-81662500D01*
X118997500Y-81662500D02*
X118997500Y-84447500D01*
X59380000Y-94955000D02*
X59380000Y-97480000D01*
X62450000Y-97665000D02*
X59565000Y-97665000D01*
X59380000Y-94955000D02*
X59380000Y-74605000D01*
X192266920Y-127625000D02*
X192266920Y-128720280D01*
%TO.N,+3V3*%
X157480000Y-52070000D02*
X156210000Y-52070000D01*
X157480000Y-52070000D02*
X162560000Y-52070000D01*
X157480000Y-52830000D02*
X157480000Y-52070000D01*
%TO.N,Net-(J2-Pad3)*%
X158240000Y-54610000D02*
X157480000Y-53850000D01*
X161290000Y-40640000D02*
X121285000Y-40640000D01*
X162560000Y-54610000D02*
X163830000Y-54610000D01*
X108585000Y-27940000D02*
X108545000Y-27980000D01*
X163830000Y-54610000D02*
X165100000Y-53340000D01*
X108545000Y-27980000D02*
X97285000Y-27980000D01*
X162560000Y-54610000D02*
X158240000Y-54610000D01*
X165100000Y-53340000D02*
X165100000Y-44450000D01*
X165100000Y-44450000D02*
X161290000Y-40640000D01*
X121285000Y-40640000D02*
X108585000Y-27940000D01*
D33*
%TO.N,Net-(J6-Pad1)*%
X234051920Y-126101920D02*
X222250000Y-114300000D01*
X234051920Y-140960000D02*
X234051920Y-126101920D01*
X222250000Y-114300000D02*
X222250000Y-48260000D01*
X222250000Y-48260000D02*
X223915000Y-46595000D01*
X223891920Y-151120000D02*
X234051920Y-140960000D01*
X223915000Y-46595000D02*
X226415000Y-46595000D01*
%TO.N,Net-(J6-Pad2)*%
X228971920Y-151120000D02*
X237861920Y-142230000D01*
X224790000Y-78220000D02*
X226415000Y-76595000D01*
X237861920Y-126101920D02*
X224790000Y-113030000D01*
X224790000Y-113030000D02*
X224790000Y-78220000D01*
X237861920Y-142230000D02*
X237861920Y-126101920D01*
D32*
%TO.N,Net-(Q1-Pad2)*%
X195071920Y-129475280D02*
X194996882Y-129550318D01*
X195071920Y-127625000D02*
X195071920Y-129475280D01*
X195071920Y-127625000D02*
X193286920Y-127625000D01*
%TO.N,Net-(R2-Pad2)*%
X173355000Y-37465000D02*
X172720000Y-36830000D01*
X84585000Y-27980000D02*
X84585000Y-25270000D01*
X86995000Y-22860000D02*
X124460000Y-22860000D01*
X138430000Y-36830000D02*
X124460000Y-22860000D01*
X84585000Y-25270000D02*
X86995000Y-22860000D01*
X196091920Y-127625000D02*
X196091920Y-126241920D01*
X173355000Y-103505000D02*
X196091920Y-126241920D01*
X172720000Y-36830000D02*
X138430000Y-36830000D01*
X173355000Y-103505000D02*
X173355000Y-37465000D01*
D33*
%TO.N,Net-(T1-Pad4)*%
X226415000Y-51595000D02*
X226415000Y-71595000D01*
%TD*%
M02*
