%TF.GenerationSoftware,KiCad,Pcbnew,(6.0.0-0)*%
%TF.CreationDate,2022-12-02T08:06:54+01:00*%
%TF.ProjectId,prototype-2,70726f74-6f74-4797-9065-2d322e6b6963,rev?*%
%TF.SameCoordinates,Original*%
%TF.FileFunction,Legend,Top*%
%TF.FilePolarity,Positive*%
%FSLAX46Y46*%
G04 Gerber Fmt 4.6, Leading zero omitted, Abs format (unit mm)*
G04 Created by KiCad (PCBNEW (6.0.0-0)) date 2022-12-02 08:06:54*
%MOMM*%
%LPD*%
G01*
G04 APERTURE LIST*
G04 Aperture macros list*
%AMRoundRect*
0 Rectangle with rounded corners*
0 $1 Rounding radius*
0 $2 $3 $4 $5 $6 $7 $8 $9 X,Y pos of 4 corners*
0 Add a 4 corners polygon primitive as box body*
4,1,4,$2,$3,$4,$5,$6,$7,$8,$9,$2,$3,0*
0 Add four circle primitives for the rounded corners*
1,1,$1+$1,$2,$3*
1,1,$1+$1,$4,$5*
1,1,$1+$1,$6,$7*
1,1,$1+$1,$8,$9*
0 Add four rect primitives between the rounded corners*
20,1,$1+$1,$2,$3,$4,$5,0*
20,1,$1+$1,$4,$5,$6,$7,0*
20,1,$1+$1,$6,$7,$8,$9,0*
20,1,$1+$1,$8,$9,$2,$3,0*%
G04 Aperture macros list end*
%ADD10C,0.150000*%
%ADD11C,0.125000*%
%ADD12C,0.300000*%
%ADD13C,0.254000*%
%ADD14C,0.120000*%
%ADD15C,0.200000*%
%ADD16C,0.100000*%
%ADD17C,0.254001*%
%ADD18C,0.059995*%
%ADD19R,3.000000X3.000000*%
%ADD20C,3.000000*%
%ADD21R,2.400000X2.400000*%
%ADD22C,2.400000*%
%ADD23C,0.900000*%
%ADD24C,8.600000*%
%ADD25RoundRect,0.135000X-0.135000X-0.185000X0.135000X-0.185000X0.135000X0.185000X-0.135000X0.185000X0*%
%ADD26R,1.778000X1.778000*%
%ADD27C,1.778000*%
%ADD28R,1.700000X1.700000*%
%ADD29O,1.700000X1.700000*%
%ADD30R,1.431000X1.431000*%
%ADD31C,1.431000*%
%ADD32C,3.450000*%
%ADD33R,0.700000X1.250013*%
%ADD34C,6.600000*%
%ADD35C,4.300000*%
%ADD36RoundRect,0.135000X-0.185000X0.135000X-0.185000X-0.135000X0.185000X-0.135000X0.185000X0.135000X0*%
%ADD37RoundRect,0.243750X-0.456250X0.243750X-0.456250X-0.243750X0.456250X-0.243750X0.456250X0.243750X0*%
%ADD38RoundRect,0.135000X0.135000X0.185000X-0.135000X0.185000X-0.135000X-0.185000X0.135000X-0.185000X0*%
%ADD39R,1.200000X0.900000*%
%ADD40C,1.650000*%
G04 APERTURE END LIST*
D10*
X51520000Y-109690000D02*
X141520000Y-109690000D01*
X141520000Y-109690000D02*
X141520000Y-59690000D01*
X141520000Y-59690000D02*
X51520000Y-59690000D01*
X51520000Y-59690000D02*
X51520000Y-109690000D01*
D11*
X210385491Y-155836428D02*
X210385491Y-155236428D01*
X210728348Y-155836428D01*
X210728348Y-155236428D01*
D10*
X204540729Y-157017619D02*
X204588348Y-156970000D01*
X204683586Y-156922380D01*
X204921681Y-156922380D01*
X205016920Y-156970000D01*
X205064539Y-157017619D01*
X205112158Y-157112857D01*
X205112158Y-157208095D01*
X205064539Y-157350952D01*
X204493110Y-157922380D01*
X205112158Y-157922380D01*
X205493110Y-157017619D02*
X205540729Y-156970000D01*
X205635967Y-156922380D01*
X205874062Y-156922380D01*
X205969300Y-156970000D01*
X206016920Y-157017619D01*
X206064539Y-157112857D01*
X206064539Y-157208095D01*
X206016920Y-157350952D01*
X205445491Y-157922380D01*
X206064539Y-157922380D01*
X206683586Y-156922380D02*
X206778824Y-156922380D01*
X206874062Y-156970000D01*
X206921681Y-157017619D01*
X206969300Y-157112857D01*
X207016920Y-157303333D01*
X207016920Y-157541428D01*
X206969300Y-157731904D01*
X206921681Y-157827142D01*
X206874062Y-157874761D01*
X206778824Y-157922380D01*
X206683586Y-157922380D01*
X206588348Y-157874761D01*
X206540729Y-157827142D01*
X206493110Y-157731904D01*
X206445491Y-157541428D01*
X206445491Y-157303333D01*
X206493110Y-157112857D01*
X206540729Y-157017619D01*
X206588348Y-156970000D01*
X206683586Y-156922380D01*
X207302634Y-156922380D02*
X207635967Y-157922380D01*
X207969300Y-156922380D01*
X209255015Y-156922380D02*
X209445491Y-156922380D01*
X209540729Y-156970000D01*
X209635967Y-157065238D01*
X209683586Y-157255714D01*
X209683586Y-157589047D01*
X209635967Y-157779523D01*
X209540729Y-157874761D01*
X209445491Y-157922380D01*
X209255015Y-157922380D01*
X209159777Y-157874761D01*
X209064539Y-157779523D01*
X209016920Y-157589047D01*
X209016920Y-157255714D01*
X209064539Y-157065238D01*
X209159777Y-156970000D01*
X209255015Y-156922380D01*
X210112158Y-156922380D02*
X210112158Y-157731904D01*
X210159777Y-157827142D01*
X210207396Y-157874761D01*
X210302634Y-157922380D01*
X210493110Y-157922380D01*
X210588348Y-157874761D01*
X210635967Y-157827142D01*
X210683586Y-157731904D01*
X210683586Y-156922380D01*
X211016920Y-156922380D02*
X211588348Y-156922380D01*
X211302634Y-157922380D02*
X211302634Y-156922380D01*
X223074777Y-156382619D02*
X223122396Y-156335000D01*
X223217634Y-156287380D01*
X223455729Y-156287380D01*
X223550967Y-156335000D01*
X223598586Y-156382619D01*
X223646205Y-156477857D01*
X223646205Y-156573095D01*
X223598586Y-156715952D01*
X223027158Y-157287380D01*
X223646205Y-157287380D01*
X224503348Y-156620714D02*
X224503348Y-157287380D01*
X224265253Y-156239761D02*
X224027158Y-156954047D01*
X224646205Y-156954047D01*
X224884300Y-156287380D02*
X225217634Y-157287380D01*
X225550967Y-156287380D01*
X225741443Y-156906428D02*
X225789062Y-156858809D01*
X225884300Y-156811190D01*
X226074777Y-156906428D01*
X226170015Y-156858809D01*
X226217634Y-156811190D01*
X227550967Y-156287380D02*
X227741443Y-156287380D01*
X227836681Y-156335000D01*
X227931920Y-156430238D01*
X227979539Y-156620714D01*
X227979539Y-156954047D01*
X227931920Y-157144523D01*
X227836681Y-157239761D01*
X227741443Y-157287380D01*
X227550967Y-157287380D01*
X227455729Y-157239761D01*
X227360491Y-157144523D01*
X227312872Y-156954047D01*
X227312872Y-156620714D01*
X227360491Y-156430238D01*
X227455729Y-156335000D01*
X227550967Y-156287380D01*
X228408110Y-156287380D02*
X228408110Y-157096904D01*
X228455729Y-157192142D01*
X228503348Y-157239761D01*
X228598586Y-157287380D01*
X228789062Y-157287380D01*
X228884300Y-157239761D01*
X228931920Y-157192142D01*
X228979539Y-157096904D01*
X228979539Y-156287380D01*
X229312872Y-156287380D02*
X229884300Y-156287380D01*
X229598586Y-157287380D02*
X229598586Y-156287380D01*
D11*
X149110714Y-54311428D02*
X148825000Y-54311428D01*
X148796428Y-54597142D01*
X148825000Y-54568571D01*
X148882142Y-54540000D01*
X149025000Y-54540000D01*
X149082142Y-54568571D01*
X149110714Y-54597142D01*
X149139285Y-54654285D01*
X149139285Y-54797142D01*
X149110714Y-54854285D01*
X149082142Y-54882857D01*
X149025000Y-54911428D01*
X148882142Y-54911428D01*
X148825000Y-54882857D01*
X148796428Y-54854285D01*
X149310714Y-54311428D02*
X149510714Y-54911428D01*
X149710714Y-54311428D01*
X165277857Y-49230000D02*
X165220714Y-49201428D01*
X165135000Y-49201428D01*
X165049285Y-49230000D01*
X164992142Y-49287142D01*
X164963571Y-49344285D01*
X164935000Y-49458571D01*
X164935000Y-49544285D01*
X164963571Y-49658571D01*
X164992142Y-49715714D01*
X165049285Y-49772857D01*
X165135000Y-49801428D01*
X165192142Y-49801428D01*
X165277857Y-49772857D01*
X165306428Y-49744285D01*
X165306428Y-49544285D01*
X165192142Y-49544285D01*
X165563571Y-49801428D02*
X165563571Y-49201428D01*
X165906428Y-49801428D01*
X165906428Y-49201428D01*
X166192142Y-49801428D02*
X166192142Y-49201428D01*
X166335000Y-49201428D01*
X166420714Y-49230000D01*
X166477857Y-49287142D01*
X166506428Y-49344285D01*
X166535000Y-49458571D01*
X166535000Y-49544285D01*
X166506428Y-49658571D01*
X166477857Y-49715714D01*
X166420714Y-49772857D01*
X166335000Y-49801428D01*
X166192142Y-49801428D01*
D12*
X52785000Y-62404523D02*
X53070714Y-62499761D01*
X53546904Y-62499761D01*
X53737380Y-62404523D01*
X53832619Y-62309285D01*
X53927857Y-62118809D01*
X53927857Y-61928333D01*
X53832619Y-61737857D01*
X53737380Y-61642619D01*
X53546904Y-61547380D01*
X53165952Y-61452142D01*
X52975476Y-61356904D01*
X52880238Y-61261666D01*
X52785000Y-61071190D01*
X52785000Y-60880714D01*
X52880238Y-60690238D01*
X52975476Y-60595000D01*
X53165952Y-60499761D01*
X53642142Y-60499761D01*
X53927857Y-60595000D01*
X54594523Y-60499761D02*
X55070714Y-62499761D01*
X55451666Y-61071190D01*
X55832619Y-62499761D01*
X56308809Y-60499761D01*
X57070714Y-62499761D02*
X57070714Y-60499761D01*
X57737380Y-60499761D02*
X58880238Y-60499761D01*
X58308809Y-62499761D02*
X58308809Y-60499761D01*
X60689761Y-62309285D02*
X60594523Y-62404523D01*
X60308809Y-62499761D01*
X60118333Y-62499761D01*
X59832619Y-62404523D01*
X59642142Y-62214047D01*
X59546904Y-62023571D01*
X59451666Y-61642619D01*
X59451666Y-61356904D01*
X59546904Y-60975952D01*
X59642142Y-60785476D01*
X59832619Y-60595000D01*
X60118333Y-60499761D01*
X60308809Y-60499761D01*
X60594523Y-60595000D01*
X60689761Y-60690238D01*
X61546904Y-62499761D02*
X61546904Y-60499761D01*
X61546904Y-61452142D02*
X62689761Y-61452142D01*
X62689761Y-62499761D02*
X62689761Y-60499761D01*
D11*
X148767857Y-49230000D02*
X148710714Y-49201428D01*
X148625000Y-49201428D01*
X148539285Y-49230000D01*
X148482142Y-49287142D01*
X148453571Y-49344285D01*
X148425000Y-49458571D01*
X148425000Y-49544285D01*
X148453571Y-49658571D01*
X148482142Y-49715714D01*
X148539285Y-49772857D01*
X148625000Y-49801428D01*
X148682142Y-49801428D01*
X148767857Y-49772857D01*
X148796428Y-49744285D01*
X148796428Y-49544285D01*
X148682142Y-49544285D01*
X149053571Y-49801428D02*
X149053571Y-49201428D01*
X149396428Y-49801428D01*
X149396428Y-49201428D01*
X149682142Y-49801428D02*
X149682142Y-49201428D01*
X149825000Y-49201428D01*
X149910714Y-49230000D01*
X149967857Y-49287142D01*
X149996428Y-49344285D01*
X150025000Y-49458571D01*
X150025000Y-49544285D01*
X149996428Y-49658571D01*
X149967857Y-49715714D01*
X149910714Y-49772857D01*
X149825000Y-49801428D01*
X149682142Y-49801428D01*
X164992142Y-51741428D02*
X165363571Y-51741428D01*
X165163571Y-51970000D01*
X165249285Y-51970000D01*
X165306428Y-51998571D01*
X165335000Y-52027142D01*
X165363571Y-52084285D01*
X165363571Y-52227142D01*
X165335000Y-52284285D01*
X165306428Y-52312857D01*
X165249285Y-52341428D01*
X165077857Y-52341428D01*
X165020714Y-52312857D01*
X164992142Y-52284285D01*
X165535000Y-51741428D02*
X165735000Y-52341428D01*
X165935000Y-51741428D01*
X166077857Y-51741428D02*
X166449285Y-51741428D01*
X166249285Y-51970000D01*
X166335000Y-51970000D01*
X166392142Y-51998571D01*
X166420714Y-52027142D01*
X166449285Y-52084285D01*
X166449285Y-52227142D01*
X166420714Y-52284285D01*
X166392142Y-52312857D01*
X166335000Y-52341428D01*
X166163571Y-52341428D01*
X166106428Y-52312857D01*
X166077857Y-52284285D01*
X148796428Y-57250000D02*
X149082142Y-57250000D01*
X148739285Y-57421428D02*
X148939285Y-56821428D01*
X149139285Y-57421428D01*
X149453571Y-56821428D02*
X149510714Y-56821428D01*
X149567857Y-56850000D01*
X149596428Y-56878571D01*
X149625000Y-56935714D01*
X149653571Y-57050000D01*
X149653571Y-57192857D01*
X149625000Y-57307142D01*
X149596428Y-57364285D01*
X149567857Y-57392857D01*
X149510714Y-57421428D01*
X149453571Y-57421428D01*
X149396428Y-57392857D01*
X149367857Y-57364285D01*
X149339285Y-57307142D01*
X149310714Y-57192857D01*
X149310714Y-57050000D01*
X149339285Y-56935714D01*
X149367857Y-56878571D01*
X149396428Y-56850000D01*
X149453571Y-56821428D01*
D10*
X149233333Y-61364761D02*
X149376190Y-61412380D01*
X149614285Y-61412380D01*
X149709523Y-61364761D01*
X149757142Y-61317142D01*
X149804761Y-61221904D01*
X149804761Y-61126666D01*
X149757142Y-61031428D01*
X149709523Y-60983809D01*
X149614285Y-60936190D01*
X149423809Y-60888571D01*
X149328571Y-60840952D01*
X149280952Y-60793333D01*
X149233333Y-60698095D01*
X149233333Y-60602857D01*
X149280952Y-60507619D01*
X149328571Y-60460000D01*
X149423809Y-60412380D01*
X149661904Y-60412380D01*
X149804761Y-60460000D01*
X150233333Y-60888571D02*
X150566666Y-60888571D01*
X150709523Y-61412380D02*
X150233333Y-61412380D01*
X150233333Y-60412380D01*
X150709523Y-60412380D01*
X151138095Y-61412380D02*
X151138095Y-60412380D01*
X151709523Y-61412380D01*
X151709523Y-60412380D01*
X152376190Y-60412380D02*
X152471428Y-60412380D01*
X152566666Y-60460000D01*
X152614285Y-60507619D01*
X152661904Y-60602857D01*
X152709523Y-60793333D01*
X152709523Y-61031428D01*
X152661904Y-61221904D01*
X152614285Y-61317142D01*
X152566666Y-61364761D01*
X152471428Y-61412380D01*
X152376190Y-61412380D01*
X152280952Y-61364761D01*
X152233333Y-61317142D01*
X152185714Y-61221904D01*
X152138095Y-61031428D01*
X152138095Y-60793333D01*
X152185714Y-60602857D01*
X152233333Y-60507619D01*
X152280952Y-60460000D01*
X152376190Y-60412380D01*
X153042857Y-60412380D02*
X153661904Y-60412380D01*
X153328571Y-60793333D01*
X153471428Y-60793333D01*
X153566666Y-60840952D01*
X153614285Y-60888571D01*
X153661904Y-60983809D01*
X153661904Y-61221904D01*
X153614285Y-61317142D01*
X153566666Y-61364761D01*
X153471428Y-61412380D01*
X153185714Y-61412380D01*
X153090476Y-61364761D01*
X153042857Y-61317142D01*
X154280952Y-60412380D02*
X154376190Y-60412380D01*
X154471428Y-60460000D01*
X154519047Y-60507619D01*
X154566666Y-60602857D01*
X154614285Y-60793333D01*
X154614285Y-61031428D01*
X154566666Y-61221904D01*
X154519047Y-61317142D01*
X154471428Y-61364761D01*
X154376190Y-61412380D01*
X154280952Y-61412380D01*
X154185714Y-61364761D01*
X154138095Y-61317142D01*
X154090476Y-61221904D01*
X154042857Y-61031428D01*
X154042857Y-60793333D01*
X154090476Y-60602857D01*
X154138095Y-60507619D01*
X154185714Y-60460000D01*
X154280952Y-60412380D01*
X155185714Y-60840952D02*
X155090476Y-60793333D01*
X155042857Y-60745714D01*
X154995238Y-60650476D01*
X154995238Y-60602857D01*
X155042857Y-60507619D01*
X155090476Y-60460000D01*
X155185714Y-60412380D01*
X155376190Y-60412380D01*
X155471428Y-60460000D01*
X155519047Y-60507619D01*
X155566666Y-60602857D01*
X155566666Y-60650476D01*
X155519047Y-60745714D01*
X155471428Y-60793333D01*
X155376190Y-60840952D01*
X155185714Y-60840952D01*
X155090476Y-60888571D01*
X155042857Y-60936190D01*
X154995238Y-61031428D01*
X154995238Y-61221904D01*
X155042857Y-61317142D01*
X155090476Y-61364761D01*
X155185714Y-61412380D01*
X155376190Y-61412380D01*
X155471428Y-61364761D01*
X155519047Y-61317142D01*
X155566666Y-61221904D01*
X155566666Y-61031428D01*
X155519047Y-60936190D01*
X155471428Y-60888571D01*
X155376190Y-60840952D01*
D11*
X205662634Y-155836428D02*
X205376920Y-155836428D01*
X205376920Y-155236428D01*
X190700491Y-155836428D02*
X190700491Y-155236428D01*
X191043348Y-155836428D01*
X191043348Y-155236428D01*
X185977634Y-155836428D02*
X185691920Y-155836428D01*
X185691920Y-155236428D01*
D10*
X160052142Y-58872380D02*
X160052142Y-57872380D01*
X160290238Y-57872380D01*
X160433095Y-57920000D01*
X160528333Y-58015238D01*
X160575952Y-58110476D01*
X160623571Y-58300952D01*
X160623571Y-58443809D01*
X160575952Y-58634285D01*
X160528333Y-58729523D01*
X160433095Y-58824761D01*
X160290238Y-58872380D01*
X160052142Y-58872380D01*
X161004523Y-58824761D02*
X161147380Y-58872380D01*
X161385476Y-58872380D01*
X161480714Y-58824761D01*
X161528333Y-58777142D01*
X161575952Y-58681904D01*
X161575952Y-58586666D01*
X161528333Y-58491428D01*
X161480714Y-58443809D01*
X161385476Y-58396190D01*
X161195000Y-58348571D01*
X161099761Y-58300952D01*
X161052142Y-58253333D01*
X161004523Y-58158095D01*
X161004523Y-58062857D01*
X161052142Y-57967619D01*
X161099761Y-57920000D01*
X161195000Y-57872380D01*
X161433095Y-57872380D01*
X161575952Y-57920000D01*
X162528333Y-58872380D02*
X161956904Y-58872380D01*
X162242619Y-58872380D02*
X162242619Y-57872380D01*
X162147380Y-58015238D01*
X162052142Y-58110476D01*
X161956904Y-58158095D01*
X163099761Y-58300952D02*
X163004523Y-58253333D01*
X162956904Y-58205714D01*
X162909285Y-58110476D01*
X162909285Y-58062857D01*
X162956904Y-57967619D01*
X163004523Y-57920000D01*
X163099761Y-57872380D01*
X163290238Y-57872380D01*
X163385476Y-57920000D01*
X163433095Y-57967619D01*
X163480714Y-58062857D01*
X163480714Y-58110476D01*
X163433095Y-58205714D01*
X163385476Y-58253333D01*
X163290238Y-58300952D01*
X163099761Y-58300952D01*
X163004523Y-58348571D01*
X162956904Y-58396190D01*
X162909285Y-58491428D01*
X162909285Y-58681904D01*
X162956904Y-58777142D01*
X163004523Y-58824761D01*
X163099761Y-58872380D01*
X163290238Y-58872380D01*
X163385476Y-58824761D01*
X163433095Y-58777142D01*
X163480714Y-58681904D01*
X163480714Y-58491428D01*
X163433095Y-58396190D01*
X163385476Y-58348571D01*
X163290238Y-58300952D01*
X164242619Y-58348571D02*
X164385476Y-58396190D01*
X164433095Y-58443809D01*
X164480714Y-58539047D01*
X164480714Y-58681904D01*
X164433095Y-58777142D01*
X164385476Y-58824761D01*
X164290238Y-58872380D01*
X163909285Y-58872380D01*
X163909285Y-57872380D01*
X164242619Y-57872380D01*
X164337857Y-57920000D01*
X164385476Y-57967619D01*
X164433095Y-58062857D01*
X164433095Y-58158095D01*
X164385476Y-58253333D01*
X164337857Y-58300952D01*
X164242619Y-58348571D01*
X163909285Y-58348571D01*
X164861666Y-57967619D02*
X164909285Y-57920000D01*
X165004523Y-57872380D01*
X165242619Y-57872380D01*
X165337857Y-57920000D01*
X165385476Y-57967619D01*
X165433095Y-58062857D01*
X165433095Y-58158095D01*
X165385476Y-58300952D01*
X164814047Y-58872380D01*
X165433095Y-58872380D01*
X166052142Y-57872380D02*
X166147380Y-57872380D01*
X166242619Y-57920000D01*
X166290238Y-57967619D01*
X166337857Y-58062857D01*
X166385476Y-58253333D01*
X166385476Y-58491428D01*
X166337857Y-58681904D01*
X166290238Y-58777142D01*
X166242619Y-58824761D01*
X166147380Y-58872380D01*
X166052142Y-58872380D01*
X165956904Y-58824761D01*
X165909285Y-58777142D01*
X165861666Y-58681904D01*
X165814047Y-58491428D01*
X165814047Y-58253333D01*
X165861666Y-58062857D01*
X165909285Y-57967619D01*
X165956904Y-57920000D01*
X166052142Y-57872380D01*
D11*
X148767857Y-51770000D02*
X148710714Y-51741428D01*
X148625000Y-51741428D01*
X148539285Y-51770000D01*
X148482142Y-51827142D01*
X148453571Y-51884285D01*
X148425000Y-51998571D01*
X148425000Y-52084285D01*
X148453571Y-52198571D01*
X148482142Y-52255714D01*
X148539285Y-52312857D01*
X148625000Y-52341428D01*
X148682142Y-52341428D01*
X148767857Y-52312857D01*
X148796428Y-52284285D01*
X148796428Y-52084285D01*
X148682142Y-52084285D01*
X149053571Y-52341428D02*
X149053571Y-51741428D01*
X149396428Y-52341428D01*
X149396428Y-51741428D01*
X149682142Y-52341428D02*
X149682142Y-51741428D01*
X149825000Y-51741428D01*
X149910714Y-51770000D01*
X149967857Y-51827142D01*
X149996428Y-51884285D01*
X150025000Y-51998571D01*
X150025000Y-52084285D01*
X149996428Y-52198571D01*
X149967857Y-52255714D01*
X149910714Y-52312857D01*
X149825000Y-52341428D01*
X149682142Y-52341428D01*
D10*
X185522396Y-157017619D02*
X185570015Y-156970000D01*
X185665253Y-156922380D01*
X185903348Y-156922380D01*
X185998586Y-156970000D01*
X186046205Y-157017619D01*
X186093824Y-157112857D01*
X186093824Y-157208095D01*
X186046205Y-157350952D01*
X185474777Y-157922380D01*
X186093824Y-157922380D01*
X186474777Y-157017619D02*
X186522396Y-156970000D01*
X186617634Y-156922380D01*
X186855729Y-156922380D01*
X186950967Y-156970000D01*
X186998586Y-157017619D01*
X187046205Y-157112857D01*
X187046205Y-157208095D01*
X186998586Y-157350952D01*
X186427158Y-157922380D01*
X187046205Y-157922380D01*
X187665253Y-156922380D02*
X187760491Y-156922380D01*
X187855729Y-156970000D01*
X187903348Y-157017619D01*
X187950967Y-157112857D01*
X187998586Y-157303333D01*
X187998586Y-157541428D01*
X187950967Y-157731904D01*
X187903348Y-157827142D01*
X187855729Y-157874761D01*
X187760491Y-157922380D01*
X187665253Y-157922380D01*
X187570015Y-157874761D01*
X187522396Y-157827142D01*
X187474777Y-157731904D01*
X187427158Y-157541428D01*
X187427158Y-157303333D01*
X187474777Y-157112857D01*
X187522396Y-157017619D01*
X187570015Y-156970000D01*
X187665253Y-156922380D01*
X188284300Y-156922380D02*
X188617634Y-157922380D01*
X188950967Y-156922380D01*
X190046205Y-157922380D02*
X190046205Y-156922380D01*
X190522396Y-157922380D02*
X190522396Y-156922380D01*
X191093824Y-157922380D01*
X191093824Y-156922380D01*
D11*
X165420714Y-54881428D02*
X165420714Y-54281428D01*
X165706428Y-54881428D02*
X165706428Y-54281428D01*
X166049285Y-54881428D01*
X166049285Y-54281428D01*
D10*
%TO.C,J4*%
X187998586Y-145492380D02*
X187998586Y-146206666D01*
X187950967Y-146349523D01*
X187855729Y-146444761D01*
X187712872Y-146492380D01*
X187617634Y-146492380D01*
X188903348Y-145825714D02*
X188903348Y-146492380D01*
X188665253Y-145444761D02*
X188427158Y-146159047D01*
X189046205Y-146159047D01*
%TO.C,PS1*%
X71063214Y-70149880D02*
X71063214Y-69149880D01*
X71444166Y-69149880D01*
X71539404Y-69197500D01*
X71587023Y-69245119D01*
X71634642Y-69340357D01*
X71634642Y-69483214D01*
X71587023Y-69578452D01*
X71539404Y-69626071D01*
X71444166Y-69673690D01*
X71063214Y-69673690D01*
X72015595Y-70102261D02*
X72158452Y-70149880D01*
X72396547Y-70149880D01*
X72491785Y-70102261D01*
X72539404Y-70054642D01*
X72587023Y-69959404D01*
X72587023Y-69864166D01*
X72539404Y-69768928D01*
X72491785Y-69721309D01*
X72396547Y-69673690D01*
X72206071Y-69626071D01*
X72110833Y-69578452D01*
X72063214Y-69530833D01*
X72015595Y-69435595D01*
X72015595Y-69340357D01*
X72063214Y-69245119D01*
X72110833Y-69197500D01*
X72206071Y-69149880D01*
X72444166Y-69149880D01*
X72587023Y-69197500D01*
X73539404Y-70149880D02*
X72967976Y-70149880D01*
X73253690Y-70149880D02*
X73253690Y-69149880D01*
X73158452Y-69292738D01*
X73063214Y-69387976D01*
X72967976Y-69435595D01*
%TO.C,REF\u002A\u002A*%
X244566666Y-154392380D02*
X244233333Y-153916190D01*
X243995238Y-154392380D02*
X243995238Y-153392380D01*
X244376190Y-153392380D01*
X244471428Y-153440000D01*
X244519047Y-153487619D01*
X244566666Y-153582857D01*
X244566666Y-153725714D01*
X244519047Y-153820952D01*
X244471428Y-153868571D01*
X244376190Y-153916190D01*
X243995238Y-153916190D01*
X244995238Y-153868571D02*
X245328571Y-153868571D01*
X245471428Y-154392380D02*
X244995238Y-154392380D01*
X244995238Y-153392380D01*
X245471428Y-153392380D01*
X246233333Y-153868571D02*
X245900000Y-153868571D01*
X245900000Y-154392380D02*
X245900000Y-153392380D01*
X246376190Y-153392380D01*
X246900000Y-153392380D02*
X246900000Y-153630476D01*
X246661904Y-153535238D02*
X246900000Y-153630476D01*
X247138095Y-153535238D01*
X246757142Y-153820952D02*
X246900000Y-153630476D01*
X247042857Y-153820952D01*
X247661904Y-153392380D02*
X247661904Y-153630476D01*
X247423809Y-153535238D02*
X247661904Y-153630476D01*
X247900000Y-153535238D01*
X247519047Y-153820952D02*
X247661904Y-153630476D01*
X247804761Y-153820952D01*
%TO.C,R4*%
X198478894Y-133792380D02*
X198145561Y-133316190D01*
X197907465Y-133792380D02*
X197907465Y-132792380D01*
X198288418Y-132792380D01*
X198383656Y-132840000D01*
X198431275Y-132887619D01*
X198478894Y-132982857D01*
X198478894Y-133125714D01*
X198431275Y-133220952D01*
X198383656Y-133268571D01*
X198288418Y-133316190D01*
X197907465Y-133316190D01*
X199336037Y-133125714D02*
X199336037Y-133792380D01*
X199097941Y-132744761D02*
X198859846Y-133459047D01*
X199478894Y-133459047D01*
%TO.C,R2*%
X195415253Y-126807380D02*
X195081920Y-126331190D01*
X194843824Y-126807380D02*
X194843824Y-125807380D01*
X195224777Y-125807380D01*
X195320015Y-125855000D01*
X195367634Y-125902619D01*
X195415253Y-125997857D01*
X195415253Y-126140714D01*
X195367634Y-126235952D01*
X195320015Y-126283571D01*
X195224777Y-126331190D01*
X194843824Y-126331190D01*
X195796205Y-125902619D02*
X195843824Y-125855000D01*
X195939062Y-125807380D01*
X196177158Y-125807380D01*
X196272396Y-125855000D01*
X196320015Y-125902619D01*
X196367634Y-125997857D01*
X196367634Y-126093095D01*
X196320015Y-126235952D01*
X195748586Y-126807380D01*
X196367634Y-126807380D01*
%TO.C,J5*%
X207683586Y-145492380D02*
X207683586Y-146206666D01*
X207635967Y-146349523D01*
X207540729Y-146444761D01*
X207397872Y-146492380D01*
X207302634Y-146492380D01*
X208635967Y-145492380D02*
X208159777Y-145492380D01*
X208112158Y-145968571D01*
X208159777Y-145920952D01*
X208255015Y-145873333D01*
X208493110Y-145873333D01*
X208588348Y-145920952D01*
X208635967Y-145968571D01*
X208683586Y-146063809D01*
X208683586Y-146301904D01*
X208635967Y-146397142D01*
X208588348Y-146444761D01*
X208493110Y-146492380D01*
X208255015Y-146492380D01*
X208159777Y-146444761D01*
X208112158Y-146397142D01*
%TO.C,U1*%
X82207380Y-40131904D02*
X83016904Y-40131904D01*
X83112142Y-40084285D01*
X83159761Y-40036666D01*
X83207380Y-39941428D01*
X83207380Y-39750952D01*
X83159761Y-39655714D01*
X83112142Y-39608095D01*
X83016904Y-39560476D01*
X82207380Y-39560476D01*
X83207380Y-38560476D02*
X83207380Y-39131904D01*
X83207380Y-38846190D02*
X82207380Y-38846190D01*
X82350238Y-38941428D01*
X82445476Y-39036666D01*
X82493095Y-39131904D01*
D13*
X43701666Y-44187619D02*
X43701666Y-43582857D01*
X44064523Y-44308571D02*
X42794523Y-43885238D01*
X44064523Y-43461904D01*
X43217857Y-43038571D02*
X44064523Y-43038571D01*
X43338809Y-43038571D02*
X43278333Y-42978095D01*
X43217857Y-42857142D01*
X43217857Y-42675714D01*
X43278333Y-42554761D01*
X43399285Y-42494285D01*
X44064523Y-42494285D01*
X43217857Y-42070952D02*
X43217857Y-41587142D01*
X42794523Y-41889523D02*
X43883095Y-41889523D01*
X44004047Y-41829047D01*
X44064523Y-41708095D01*
X44064523Y-41587142D01*
X44004047Y-40680000D02*
X44064523Y-40800952D01*
X44064523Y-41042857D01*
X44004047Y-41163809D01*
X43883095Y-41224285D01*
X43399285Y-41224285D01*
X43278333Y-41163809D01*
X43217857Y-41042857D01*
X43217857Y-40800952D01*
X43278333Y-40680000D01*
X43399285Y-40619523D01*
X43520238Y-40619523D01*
X43641190Y-41224285D01*
X43217857Y-40075238D02*
X44064523Y-40075238D01*
X43338809Y-40075238D02*
X43278333Y-40014761D01*
X43217857Y-39893809D01*
X43217857Y-39712380D01*
X43278333Y-39591428D01*
X43399285Y-39530952D01*
X44064523Y-39530952D01*
X43217857Y-38926190D02*
X44064523Y-38926190D01*
X43338809Y-38926190D02*
X43278333Y-38865714D01*
X43217857Y-38744761D01*
X43217857Y-38563333D01*
X43278333Y-38442380D01*
X43399285Y-38381904D01*
X44064523Y-38381904D01*
X44064523Y-37232857D02*
X43399285Y-37232857D01*
X43278333Y-37293333D01*
X43217857Y-37414285D01*
X43217857Y-37656190D01*
X43278333Y-37777142D01*
X44004047Y-37232857D02*
X44064523Y-37353809D01*
X44064523Y-37656190D01*
X44004047Y-37777142D01*
X43883095Y-37837619D01*
X43762142Y-37837619D01*
X43641190Y-37777142D01*
X43580714Y-37656190D01*
X43580714Y-37353809D01*
X43520238Y-37232857D01*
D10*
%TO.C,REF\u002A\u002A*%
X43166666Y-154392380D02*
X42833333Y-153916190D01*
X42595238Y-154392380D02*
X42595238Y-153392380D01*
X42976190Y-153392380D01*
X43071428Y-153440000D01*
X43119047Y-153487619D01*
X43166666Y-153582857D01*
X43166666Y-153725714D01*
X43119047Y-153820952D01*
X43071428Y-153868571D01*
X42976190Y-153916190D01*
X42595238Y-153916190D01*
X43595238Y-153868571D02*
X43928571Y-153868571D01*
X44071428Y-154392380D02*
X43595238Y-154392380D01*
X43595238Y-153392380D01*
X44071428Y-153392380D01*
X44833333Y-153868571D02*
X44500000Y-153868571D01*
X44500000Y-154392380D02*
X44500000Y-153392380D01*
X44976190Y-153392380D01*
X45500000Y-153392380D02*
X45500000Y-153630476D01*
X45261904Y-153535238D02*
X45500000Y-153630476D01*
X45738095Y-153535238D01*
X45357142Y-153820952D02*
X45500000Y-153630476D01*
X45642857Y-153820952D01*
X46261904Y-153392380D02*
X46261904Y-153630476D01*
X46023809Y-153535238D02*
X46261904Y-153630476D01*
X46500000Y-153535238D01*
X46119047Y-153820952D02*
X46261904Y-153630476D01*
X46404761Y-153820952D01*
%TO.C,J3*%
X152066666Y-46652380D02*
X152066666Y-47366666D01*
X152019047Y-47509523D01*
X151923809Y-47604761D01*
X151780952Y-47652380D01*
X151685714Y-47652380D01*
X152447619Y-46652380D02*
X153066666Y-46652380D01*
X152733333Y-47033333D01*
X152876190Y-47033333D01*
X152971428Y-47080952D01*
X153019047Y-47128571D01*
X153066666Y-47223809D01*
X153066666Y-47461904D01*
X153019047Y-47557142D01*
X152971428Y-47604761D01*
X152876190Y-47652380D01*
X152590476Y-47652380D01*
X152495238Y-47604761D01*
X152447619Y-47557142D01*
D13*
%TO.C,J1*%
X55456666Y-100269523D02*
X55456666Y-101176666D01*
X55396190Y-101358095D01*
X55275238Y-101479047D01*
X55093809Y-101539523D01*
X54972857Y-101539523D01*
X56726666Y-101539523D02*
X56000952Y-101539523D01*
X56363809Y-101539523D02*
X56363809Y-100269523D01*
X56242857Y-100450952D01*
X56121904Y-100571904D01*
X56000952Y-100632380D01*
D10*
%TO.C,REF\u002A\u002A*%
X43166666Y-16392380D02*
X42833333Y-15916190D01*
X42595238Y-16392380D02*
X42595238Y-15392380D01*
X42976190Y-15392380D01*
X43071428Y-15440000D01*
X43119047Y-15487619D01*
X43166666Y-15582857D01*
X43166666Y-15725714D01*
X43119047Y-15820952D01*
X43071428Y-15868571D01*
X42976190Y-15916190D01*
X42595238Y-15916190D01*
X43595238Y-15868571D02*
X43928571Y-15868571D01*
X44071428Y-16392380D02*
X43595238Y-16392380D01*
X43595238Y-15392380D01*
X44071428Y-15392380D01*
X44833333Y-15868571D02*
X44500000Y-15868571D01*
X44500000Y-16392380D02*
X44500000Y-15392380D01*
X44976190Y-15392380D01*
X45500000Y-15392380D02*
X45500000Y-15630476D01*
X45261904Y-15535238D02*
X45500000Y-15630476D01*
X45738095Y-15535238D01*
X45357142Y-15820952D02*
X45500000Y-15630476D01*
X45642857Y-15820952D01*
X46261904Y-15392380D02*
X46261904Y-15630476D01*
X46023809Y-15535238D02*
X46261904Y-15630476D01*
X46500000Y-15535238D01*
X46119047Y-15820952D02*
X46261904Y-15630476D01*
X46404761Y-15820952D01*
%TO.C,J6*%
X226098586Y-145492380D02*
X226098586Y-146206666D01*
X226050967Y-146349523D01*
X225955729Y-146444761D01*
X225812872Y-146492380D01*
X225717634Y-146492380D01*
X227003348Y-145492380D02*
X226812872Y-145492380D01*
X226717634Y-145540000D01*
X226670015Y-145587619D01*
X226574777Y-145730476D01*
X226527158Y-145920952D01*
X226527158Y-146301904D01*
X226574777Y-146397142D01*
X226622396Y-146444761D01*
X226717634Y-146492380D01*
X226908110Y-146492380D01*
X227003348Y-146444761D01*
X227050967Y-146397142D01*
X227098586Y-146301904D01*
X227098586Y-146063809D01*
X227050967Y-145968571D01*
X227003348Y-145920952D01*
X226908110Y-145873333D01*
X226717634Y-145873333D01*
X226622396Y-145920952D01*
X226574777Y-145968571D01*
X226527158Y-146063809D01*
%TO.C,Q1*%
X191134544Y-130895238D02*
X191086925Y-130990476D01*
X190991686Y-131085714D01*
X190848829Y-131228571D01*
X190801210Y-131323809D01*
X190801210Y-131419047D01*
X191039305Y-131371428D02*
X190991686Y-131466666D01*
X190896448Y-131561904D01*
X190705972Y-131609523D01*
X190372639Y-131609523D01*
X190182163Y-131561904D01*
X190086925Y-131466666D01*
X190039305Y-131371428D01*
X190039305Y-131180952D01*
X190086925Y-131085714D01*
X190182163Y-130990476D01*
X190372639Y-130942857D01*
X190705972Y-130942857D01*
X190896448Y-130990476D01*
X190991686Y-131085714D01*
X191039305Y-131180952D01*
X191039305Y-131371428D01*
X191039305Y-129990476D02*
X191039305Y-130561904D01*
X191039305Y-130276190D02*
X190039305Y-130276190D01*
X190182163Y-130371428D01*
X190277401Y-130466666D01*
X190325020Y-130561904D01*
%TO.C,J2*%
X162226666Y-46652380D02*
X162226666Y-47366666D01*
X162179047Y-47509523D01*
X162083809Y-47604761D01*
X161940952Y-47652380D01*
X161845714Y-47652380D01*
X162655238Y-46747619D02*
X162702857Y-46700000D01*
X162798095Y-46652380D01*
X163036190Y-46652380D01*
X163131428Y-46700000D01*
X163179047Y-46747619D01*
X163226666Y-46842857D01*
X163226666Y-46938095D01*
X163179047Y-47080952D01*
X162607619Y-47652380D01*
X163226666Y-47652380D01*
D13*
%TO.C,T1*%
X208219523Y-62562619D02*
X208219523Y-61836904D01*
X209489523Y-62199761D02*
X208219523Y-62199761D01*
X209489523Y-60748333D02*
X209489523Y-61474047D01*
X209489523Y-61111190D02*
X208219523Y-61111190D01*
X208400952Y-61232142D01*
X208521904Y-61353095D01*
X208582380Y-61474047D01*
D10*
%TO.C,REF\u002A\u002A*%
X34596666Y-84757380D02*
X34263333Y-84281190D01*
X34025238Y-84757380D02*
X34025238Y-83757380D01*
X34406190Y-83757380D01*
X34501428Y-83805000D01*
X34549047Y-83852619D01*
X34596666Y-83947857D01*
X34596666Y-84090714D01*
X34549047Y-84185952D01*
X34501428Y-84233571D01*
X34406190Y-84281190D01*
X34025238Y-84281190D01*
X35025238Y-84233571D02*
X35358571Y-84233571D01*
X35501428Y-84757380D02*
X35025238Y-84757380D01*
X35025238Y-83757380D01*
X35501428Y-83757380D01*
X36263333Y-84233571D02*
X35930000Y-84233571D01*
X35930000Y-84757380D02*
X35930000Y-83757380D01*
X36406190Y-83757380D01*
X36930000Y-83757380D02*
X36930000Y-83995476D01*
X36691904Y-83900238D02*
X36930000Y-83995476D01*
X37168095Y-83900238D01*
X36787142Y-84185952D02*
X36930000Y-83995476D01*
X37072857Y-84185952D01*
X37691904Y-83757380D02*
X37691904Y-83995476D01*
X37453809Y-83900238D02*
X37691904Y-83995476D01*
X37930000Y-83900238D01*
X37549047Y-84185952D02*
X37691904Y-83995476D01*
X37834761Y-84185952D01*
X251866666Y-85392380D02*
X251533333Y-84916190D01*
X251295238Y-85392380D02*
X251295238Y-84392380D01*
X251676190Y-84392380D01*
X251771428Y-84440000D01*
X251819047Y-84487619D01*
X251866666Y-84582857D01*
X251866666Y-84725714D01*
X251819047Y-84820952D01*
X251771428Y-84868571D01*
X251676190Y-84916190D01*
X251295238Y-84916190D01*
X252295238Y-84868571D02*
X252628571Y-84868571D01*
X252771428Y-85392380D02*
X252295238Y-85392380D01*
X252295238Y-84392380D01*
X252771428Y-84392380D01*
X253533333Y-84868571D02*
X253200000Y-84868571D01*
X253200000Y-85392380D02*
X253200000Y-84392380D01*
X253676190Y-84392380D01*
X254200000Y-84392380D02*
X254200000Y-84630476D01*
X253961904Y-84535238D02*
X254200000Y-84630476D01*
X254438095Y-84535238D01*
X254057142Y-84820952D02*
X254200000Y-84630476D01*
X254342857Y-84820952D01*
X254961904Y-84392380D02*
X254961904Y-84630476D01*
X254723809Y-84535238D02*
X254961904Y-84630476D01*
X255200000Y-84535238D01*
X254819047Y-84820952D02*
X254961904Y-84630476D01*
X255104761Y-84820952D01*
X138772380Y-86023333D02*
X138296190Y-86356666D01*
X138772380Y-86594761D02*
X137772380Y-86594761D01*
X137772380Y-86213809D01*
X137820000Y-86118571D01*
X137867619Y-86070952D01*
X137962857Y-86023333D01*
X138105714Y-86023333D01*
X138200952Y-86070952D01*
X138248571Y-86118571D01*
X138296190Y-86213809D01*
X138296190Y-86594761D01*
X138248571Y-85594761D02*
X138248571Y-85261428D01*
X138772380Y-85118571D02*
X138772380Y-85594761D01*
X137772380Y-85594761D01*
X137772380Y-85118571D01*
X138248571Y-84356666D02*
X138248571Y-84690000D01*
X138772380Y-84690000D02*
X137772380Y-84690000D01*
X137772380Y-84213809D01*
X137772380Y-83690000D02*
X138010476Y-83690000D01*
X137915238Y-83928095D02*
X138010476Y-83690000D01*
X137915238Y-83451904D01*
X138200952Y-83832857D02*
X138010476Y-83690000D01*
X138200952Y-83547142D01*
X137772380Y-82928095D02*
X138010476Y-82928095D01*
X137915238Y-83166190D02*
X138010476Y-82928095D01*
X137915238Y-82690000D01*
X138200952Y-83070952D02*
X138010476Y-82928095D01*
X138200952Y-82785238D01*
X44792380Y-86023333D02*
X44316190Y-86356666D01*
X44792380Y-86594761D02*
X43792380Y-86594761D01*
X43792380Y-86213809D01*
X43840000Y-86118571D01*
X43887619Y-86070952D01*
X43982857Y-86023333D01*
X44125714Y-86023333D01*
X44220952Y-86070952D01*
X44268571Y-86118571D01*
X44316190Y-86213809D01*
X44316190Y-86594761D01*
X44268571Y-85594761D02*
X44268571Y-85261428D01*
X44792380Y-85118571D02*
X44792380Y-85594761D01*
X43792380Y-85594761D01*
X43792380Y-85118571D01*
X44268571Y-84356666D02*
X44268571Y-84690000D01*
X44792380Y-84690000D02*
X43792380Y-84690000D01*
X43792380Y-84213809D01*
X43792380Y-83690000D02*
X44030476Y-83690000D01*
X43935238Y-83928095D02*
X44030476Y-83690000D01*
X43935238Y-83451904D01*
X44220952Y-83832857D02*
X44030476Y-83690000D01*
X44220952Y-83547142D01*
X43792380Y-82928095D02*
X44030476Y-82928095D01*
X43935238Y-83166190D02*
X44030476Y-82928095D01*
X43935238Y-82690000D01*
X44220952Y-83070952D02*
X44030476Y-82928095D01*
X44220952Y-82785238D01*
%TO.C,R1*%
X159102380Y-53506666D02*
X158626190Y-53840000D01*
X159102380Y-54078095D02*
X158102380Y-54078095D01*
X158102380Y-53697142D01*
X158150000Y-53601904D01*
X158197619Y-53554285D01*
X158292857Y-53506666D01*
X158435714Y-53506666D01*
X158530952Y-53554285D01*
X158578571Y-53601904D01*
X158626190Y-53697142D01*
X158626190Y-54078095D01*
X159102380Y-52554285D02*
X159102380Y-53125714D01*
X159102380Y-52840000D02*
X158102380Y-52840000D01*
X158245238Y-52935238D01*
X158340476Y-53030476D01*
X158388095Y-53125714D01*
%TO.C,D1*%
X197753824Y-126807380D02*
X197753824Y-125807380D01*
X197991920Y-125807380D01*
X198134777Y-125855000D01*
X198230015Y-125950238D01*
X198277634Y-126045476D01*
X198325253Y-126235952D01*
X198325253Y-126378809D01*
X198277634Y-126569285D01*
X198230015Y-126664523D01*
X198134777Y-126759761D01*
X197991920Y-126807380D01*
X197753824Y-126807380D01*
X199277634Y-126807380D02*
X198706205Y-126807380D01*
X198991920Y-126807380D02*
X198991920Y-125807380D01*
X198896681Y-125950238D01*
X198801443Y-126045476D01*
X198706205Y-126093095D01*
%TO.C,REF\u002A\u002A*%
X244566666Y-16392380D02*
X244233333Y-15916190D01*
X243995238Y-16392380D02*
X243995238Y-15392380D01*
X244376190Y-15392380D01*
X244471428Y-15440000D01*
X244519047Y-15487619D01*
X244566666Y-15582857D01*
X244566666Y-15725714D01*
X244519047Y-15820952D01*
X244471428Y-15868571D01*
X244376190Y-15916190D01*
X243995238Y-15916190D01*
X244995238Y-15868571D02*
X245328571Y-15868571D01*
X245471428Y-16392380D02*
X244995238Y-16392380D01*
X244995238Y-15392380D01*
X245471428Y-15392380D01*
X246233333Y-15868571D02*
X245900000Y-15868571D01*
X245900000Y-16392380D02*
X245900000Y-15392380D01*
X246376190Y-15392380D01*
X246900000Y-15392380D02*
X246900000Y-15630476D01*
X246661904Y-15535238D02*
X246900000Y-15630476D01*
X247138095Y-15535238D01*
X246757142Y-15820952D02*
X246900000Y-15630476D01*
X247042857Y-15820952D01*
X247661904Y-15392380D02*
X247661904Y-15630476D01*
X247423809Y-15535238D02*
X247661904Y-15630476D01*
X247900000Y-15535238D01*
X247519047Y-15820952D02*
X247661904Y-15630476D01*
X247804761Y-15820952D01*
%TO.C,R3*%
X192456612Y-126807380D02*
X192123279Y-126331190D01*
X191885183Y-126807380D02*
X191885183Y-125807380D01*
X192266136Y-125807380D01*
X192361374Y-125855000D01*
X192408993Y-125902619D01*
X192456612Y-125997857D01*
X192456612Y-126140714D01*
X192408993Y-126235952D01*
X192361374Y-126283571D01*
X192266136Y-126331190D01*
X191885183Y-126331190D01*
X192789945Y-125807380D02*
X193408993Y-125807380D01*
X193075659Y-126188333D01*
X193218517Y-126188333D01*
X193313755Y-126235952D01*
X193361374Y-126283571D01*
X193408993Y-126378809D01*
X193408993Y-126616904D01*
X193361374Y-126712142D01*
X193313755Y-126759761D01*
X193218517Y-126807380D01*
X192932802Y-126807380D01*
X192837564Y-126759761D01*
X192789945Y-126712142D01*
%TO.C,D2*%
X201563824Y-126807380D02*
X201563824Y-125807380D01*
X201801920Y-125807380D01*
X201944777Y-125855000D01*
X202040015Y-125950238D01*
X202087634Y-126045476D01*
X202135253Y-126235952D01*
X202135253Y-126378809D01*
X202087634Y-126569285D01*
X202040015Y-126664523D01*
X201944777Y-126759761D01*
X201801920Y-126807380D01*
X201563824Y-126807380D01*
X202516205Y-125902619D02*
X202563824Y-125855000D01*
X202659062Y-125807380D01*
X202897158Y-125807380D01*
X202992396Y-125855000D01*
X203040015Y-125902619D01*
X203087634Y-125997857D01*
X203087634Y-126093095D01*
X203040015Y-126235952D01*
X202468586Y-126807380D01*
X203087634Y-126807380D01*
D13*
%TO.C,K1*%
X217383089Y-129011683D02*
X217383089Y-127741683D01*
X218108803Y-129011683D02*
X217564517Y-128285969D01*
X218108803Y-127741683D02*
X217383089Y-128467398D01*
X219318327Y-129011683D02*
X218592612Y-129011683D01*
X218955470Y-129011683D02*
X218955470Y-127741683D01*
X218834517Y-127923112D01*
X218713565Y-128044064D01*
X218592612Y-128104540D01*
D14*
%TO.C,J4*%
X193411920Y-147310000D02*
X183251920Y-147310000D01*
X183251920Y-154930000D02*
X193411920Y-154930000D01*
X183251920Y-147310000D02*
X183251920Y-154930000D01*
X193411920Y-154930000D02*
X193411920Y-147310000D01*
X193411920Y-153660000D02*
X183251920Y-153660000D01*
%TO.C,PS1*%
X69277500Y-70397500D02*
X72277500Y-70397500D01*
X69657500Y-70777500D02*
X122397500Y-70777500D01*
X122397500Y-70777500D02*
X122397500Y-98417500D01*
X69657500Y-98417500D02*
X122397500Y-98417500D01*
X69657500Y-70777500D02*
X69657500Y-98417500D01*
X69277500Y-73397500D02*
X69277500Y-70397500D01*
%TO.C,R4*%
X198338279Y-131690000D02*
X198645561Y-131690000D01*
X198338279Y-132450000D02*
X198645561Y-132450000D01*
%TO.C,R2*%
X195428279Y-127245000D02*
X195735561Y-127245000D01*
X195428279Y-128005000D02*
X195735561Y-128005000D01*
%TO.C,J5*%
X213096920Y-154930000D02*
X213096920Y-147310000D01*
X202936920Y-154930000D02*
X213096920Y-154930000D01*
X202936920Y-147310000D02*
X202936920Y-154930000D01*
X213096920Y-153660000D02*
X202936920Y-153660000D01*
X213096920Y-147310000D02*
X202936920Y-147310000D01*
D13*
%TO.C,U1*%
X121355000Y-26670000D02*
X46355000Y-26670000D01*
X115251000Y-28489000D02*
X127051000Y-28489000D01*
X127051000Y-28489000D02*
X127051000Y-44489000D01*
X40490000Y-49680000D02*
X40490000Y-31680000D01*
X121355000Y-54670000D02*
X121355000Y-26670000D01*
X127051000Y-44489000D02*
X115251000Y-44489000D01*
X40490000Y-31680000D02*
X47110000Y-31680000D01*
X46355000Y-54670000D02*
X46355000Y-26670000D01*
X115035000Y-54670000D02*
X121355000Y-54670000D01*
X40490000Y-49680000D02*
X47110000Y-49680000D01*
X115035000Y-54670000D02*
X46355000Y-54670000D01*
X46490000Y-49680000D02*
X46490000Y-31680000D01*
D14*
%TO.C,J3*%
X151070000Y-58480000D02*
X153730000Y-58480000D01*
X151070000Y-49530000D02*
X151070000Y-48200000D01*
X151070000Y-48200000D02*
X152400000Y-48200000D01*
X153730000Y-50800000D02*
X153730000Y-58480000D01*
X151070000Y-50800000D02*
X153730000Y-50800000D01*
X151070000Y-50800000D02*
X151070000Y-58480000D01*
D15*
%TO.C,J1*%
X62430000Y-99665000D02*
X62430000Y-107965000D01*
D16*
X52380000Y-93455000D02*
X52380000Y-93455000D01*
D15*
X49330000Y-95665000D02*
X49310000Y-93965000D01*
X62430000Y-107965000D02*
X49330000Y-107965000D01*
X49310000Y-93965000D02*
X62430000Y-93965000D01*
X49330000Y-107965000D02*
X49330000Y-99665000D01*
D16*
X52380000Y-93355000D02*
X52380000Y-93355000D01*
D15*
X62430000Y-93965000D02*
X62430000Y-95665000D01*
D16*
X52380000Y-93355000D02*
G75*
G03*
X52380000Y-93455000I0J-50000D01*
G01*
X52380000Y-93455000D02*
G75*
G03*
X52380000Y-93355000I0J50000D01*
G01*
D14*
%TO.C,J6*%
X231511920Y-147310000D02*
X221351920Y-147310000D01*
X231511920Y-153660000D02*
X221351920Y-153660000D01*
X221351920Y-154930000D02*
X231511920Y-154930000D01*
X231511920Y-154930000D02*
X231511920Y-147310000D01*
X221351920Y-147310000D02*
X221351920Y-154930000D01*
D17*
%TO.C,Q1*%
X195506915Y-131449987D02*
X194847022Y-131449987D01*
X195506915Y-130634900D02*
X195506915Y-131449987D01*
X192586925Y-131449987D02*
X193246818Y-131449987D01*
X193246818Y-131449987D02*
X192586925Y-131449987D01*
D15*
X194346895Y-129900076D02*
X193746945Y-129900076D01*
D17*
X193246818Y-131449987D02*
X192586925Y-131449987D01*
X192586925Y-131449987D02*
X192586925Y-130634900D01*
D18*
X192626904Y-129600000D02*
G75*
G03*
X192626904Y-129600000I-29997J0D01*
G01*
D14*
%TO.C,J2*%
X161230000Y-50800000D02*
X163890000Y-50800000D01*
X161230000Y-48200000D02*
X162560000Y-48200000D01*
X161230000Y-49530000D02*
X161230000Y-48200000D01*
X163890000Y-50800000D02*
X163890000Y-55940000D01*
X161230000Y-55940000D02*
X163890000Y-55940000D01*
X161230000Y-50800000D02*
X161230000Y-55940000D01*
D15*
%TO.C,T1*%
X178415000Y-79095000D02*
X178415000Y-79095000D01*
X178315000Y-79095000D02*
X178315000Y-79095000D01*
X238915000Y-105195000D02*
X238915000Y-17995000D01*
X178915000Y-17995000D02*
X178915000Y-105195000D01*
X238915000Y-17995000D02*
X178915000Y-17995000D01*
X178915000Y-105195000D02*
X238915000Y-105195000D01*
X178315000Y-79095000D02*
X178315000Y-79095000D01*
X178415000Y-79095000D02*
G75*
G03*
X178315000Y-79095000I-50000J0D01*
G01*
X178315000Y-79095000D02*
G75*
G03*
X178415000Y-79095000I50000J0D01*
G01*
X178315000Y-79095000D02*
G75*
G03*
X178415000Y-79095000I50000J0D01*
G01*
D14*
%TO.C,R1*%
X157100000Y-53186359D02*
X157100000Y-53493641D01*
X157860000Y-53186359D02*
X157860000Y-53493641D01*
%TO.C,D1*%
X199451920Y-129895000D02*
X199451920Y-127210000D01*
X199451920Y-127210000D02*
X197531920Y-127210000D01*
X197531920Y-127210000D02*
X197531920Y-129895000D01*
%TO.C,R3*%
X192930561Y-128005000D02*
X192623279Y-128005000D01*
X192930561Y-127245000D02*
X192623279Y-127245000D01*
%TO.C,D2*%
X203301920Y-131780000D02*
X203301920Y-127880000D01*
X201301920Y-131780000D02*
X201301920Y-127880000D01*
X201301920Y-131780000D02*
X203301920Y-131780000D01*
D15*
%TO.C,K1*%
X229285000Y-125720000D02*
X229285000Y-130800000D01*
X209285000Y-125720000D02*
X209285000Y-125740000D01*
X209285000Y-125720000D02*
X229285000Y-125720000D01*
X209285000Y-130800000D02*
X209285000Y-128260000D01*
X229285000Y-130800000D02*
X209285000Y-130800000D01*
X208565160Y-126999000D02*
G75*
G03*
X208565160Y-126999000I-113160J0D01*
G01*
%TD*%
%LPC*%
D19*
%TO.C,J4*%
X185791920Y-151120000D03*
D20*
X190871920Y-151120000D03*
%TD*%
D21*
%TO.C,PS1*%
X73277500Y-74287500D03*
D22*
X73277500Y-94607500D03*
X118997500Y-84447500D03*
X118997500Y-74287500D03*
%TD*%
D23*
%TO.C,REF\u002A\u002A*%
X248180419Y-161520419D03*
X245900000Y-162465000D03*
X243619581Y-156959581D03*
D24*
X245900000Y-159240000D03*
D23*
X243619581Y-161520419D03*
X245900000Y-156015000D03*
X249125000Y-159240000D03*
X248180419Y-156959581D03*
X242675000Y-159240000D03*
%TD*%
D25*
%TO.C,R4*%
X197981920Y-132070000D03*
X199001920Y-132070000D03*
%TD*%
%TO.C,R2*%
X195071920Y-127625000D03*
X196091920Y-127625000D03*
%TD*%
D19*
%TO.C,J5*%
X205476920Y-151120000D03*
D20*
X210556920Y-151120000D03*
%TD*%
D26*
%TO.C,U1*%
X74425000Y-53380000D03*
D27*
X76965000Y-53380000D03*
X79505000Y-53380000D03*
X82045000Y-53380000D03*
X84585000Y-53380000D03*
X87125000Y-53380000D03*
X89665000Y-53380000D03*
X92205000Y-53380000D03*
X94745000Y-53380000D03*
X97285000Y-53380000D03*
X97285000Y-27980000D03*
X94745000Y-27980000D03*
X92205000Y-27980000D03*
X89665000Y-27980000D03*
X87125000Y-27980000D03*
X84585000Y-27980000D03*
X82045000Y-27980000D03*
X79505000Y-27980000D03*
X76965000Y-27980000D03*
X74425000Y-27980000D03*
%TD*%
D23*
%TO.C,REF\u002A\u002A*%
X41275000Y-159240000D03*
X44500000Y-162465000D03*
X44500000Y-156015000D03*
X42219581Y-156959581D03*
D24*
X44500000Y-159240000D03*
D23*
X46780419Y-161520419D03*
X42219581Y-161520419D03*
X47725000Y-159240000D03*
X46780419Y-156959581D03*
%TD*%
D28*
%TO.C,J3*%
X152400000Y-49530000D03*
D29*
X152400000Y-52070000D03*
X152400000Y-54610000D03*
X152400000Y-57150000D03*
%TD*%
D30*
%TO.C,J1*%
X52380000Y-94955000D03*
D31*
X54880000Y-94955000D03*
X56880000Y-94955000D03*
X59380000Y-94955000D03*
D32*
X62450000Y-97665000D03*
X49310000Y-97665000D03*
%TD*%
D23*
%TO.C,REF\u002A\u002A*%
X41275000Y-21240000D03*
X46780419Y-18959581D03*
X44500000Y-24465000D03*
X46780419Y-23520419D03*
X47725000Y-21240000D03*
X44500000Y-18015000D03*
X42219581Y-23520419D03*
D24*
X44500000Y-21240000D03*
D23*
X42219581Y-18959581D03*
%TD*%
D19*
%TO.C,J6*%
X223891920Y-151120000D03*
D20*
X228971920Y-151120000D03*
%TD*%
D33*
%TO.C,Q1*%
X193096958Y-129550318D03*
X194996882Y-129550318D03*
X194046920Y-132049682D03*
%TD*%
D28*
%TO.C,J2*%
X162560000Y-49530000D03*
D29*
X162560000Y-52070000D03*
X162560000Y-54610000D03*
%TD*%
D19*
%TO.C,T1*%
X191415000Y-79095000D03*
D20*
X191415000Y-44095000D03*
X226415000Y-46595000D03*
X226415000Y-51595000D03*
X226415000Y-71595000D03*
X226415000Y-76595000D03*
D34*
X185165000Y-100345000D03*
X185165000Y-22845000D03*
X232665000Y-22845000D03*
X232665000Y-100345000D03*
%TD*%
D23*
%TO.C,REF\u002A\u002A*%
X39480419Y-92520419D03*
D24*
X37200000Y-90240000D03*
D23*
X33975000Y-90240000D03*
X37200000Y-93465000D03*
X39480419Y-87959581D03*
X34919581Y-87959581D03*
X37200000Y-87015000D03*
X34919581Y-92520419D03*
X40425000Y-90240000D03*
%TD*%
%TO.C,REF\u002A\u002A*%
X255480419Y-87959581D03*
X250919581Y-87959581D03*
X253200000Y-93465000D03*
X250919581Y-92520419D03*
X249975000Y-90240000D03*
X256425000Y-90240000D03*
D24*
X253200000Y-90240000D03*
D23*
X253200000Y-87015000D03*
X255480419Y-92520419D03*
%TD*%
D35*
%TO.C,REF\u002A\u002A*%
X143620000Y-84690000D03*
%TD*%
%TO.C,REF\u002A\u002A*%
X49640000Y-84690000D03*
%TD*%
D36*
%TO.C,R1*%
X157480000Y-52830000D03*
X157480000Y-53850000D03*
%TD*%
D37*
%TO.C,D1*%
X198491920Y-127957500D03*
X198491920Y-129832500D03*
%TD*%
D24*
%TO.C,REF\u002A\u002A*%
X245900000Y-21240000D03*
D23*
X249125000Y-21240000D03*
X243619581Y-23520419D03*
X248180419Y-18959581D03*
X245900000Y-18015000D03*
X245900000Y-24465000D03*
X242675000Y-21240000D03*
X243619581Y-18959581D03*
X248180419Y-23520419D03*
%TD*%
D38*
%TO.C,R3*%
X193286920Y-127625000D03*
X192266920Y-127625000D03*
%TD*%
D39*
%TO.C,D2*%
X202301920Y-131180000D03*
X202301920Y-127880000D03*
%TD*%
D40*
%TO.C,K1*%
X210185000Y-127000000D03*
X212725000Y-127000000D03*
X220345000Y-127000000D03*
X227965000Y-127000000D03*
%TD*%
M02*
