M48
; DRILL file {KiCad (6.0.0-0)} date 2023 January 03, Tuesday 09:21:55
; FORMAT={-:-/ absolute / inch / decimal}
; #@! TF.CreationDate,2023-01-03T09:21:55+01:00
; #@! TF.GenerationSoftware,Kicad,Pcbnew,(6.0.0-0)
; #@! TF.FileFunction,Plated,1,2,PTH
FMAT,2
INCH
; #@! TA.AperFunction,Plated,PTH,ViaDrill
T1C0.0157
; #@! TA.AperFunction,Plated,PTH,ComponentDrill
T2C0.0299
; #@! TA.AperFunction,Plated,PTH,ComponentDrill
T3C0.0315
; #@! TA.AperFunction,Plated,PTH,ComponentDrill
T4C0.0394
; #@! TA.AperFunction,Plated,PTH,ComponentDrill
T5C0.0598
; #@! TA.AperFunction,Plated,PTH,ComponentDrill
T6C0.0728
%
G90
G05
T1
X6.125Y-4.5
X6.2Y-4.5
T2
X4.2806Y-4.525
X4.9806Y-4.325
X4.9806Y-4.525
T3
X4.2806Y-3.325
X4.2806Y-3.525
T4
X4.0752Y-5.1
X4.1752Y-5.1
X4.2752Y-5.1
X4.3752Y-5.1
X4.4752Y-5.1
X4.74Y-5.073
X4.74Y-5.173
X4.84Y-5.073
X4.84Y-5.173
X4.94Y-5.073
X4.94Y-5.173
X5.04Y-5.073
X5.04Y-5.173
X5.3126Y-3.3161
X5.3126Y-3.4161
X5.3126Y-3.5161
X5.3126Y-3.6161
X5.3126Y-3.7161
X5.3126Y-3.8161
X5.3126Y-3.9161
X5.3126Y-4.0161
X5.3126Y-4.1161
X5.3126Y-4.2161
X6.3126Y-3.3161
X6.3126Y-3.4161
X6.3126Y-3.5161
X6.3126Y-3.6161
X6.3126Y-3.7161
X6.3126Y-3.8161
X6.3126Y-3.9161
X6.3126Y-4.0161
X6.3126Y-4.1161
X6.3126Y-4.2161
T5
X4.525Y-2.1697
X4.725Y-2.1697
T6
X4.4299Y-2.875
X4.615Y-2.875
X4.8Y-2.875
T0
M30
