%TF.GenerationSoftware,KiCad,Pcbnew,(6.0.0-0)*%
%TF.CreationDate,2023-01-03T09:21:55+01:00*%
%TF.ProjectId,epanel-controller,6570616e-656c-42d6-936f-6e74726f6c6c,rev?*%
%TF.SameCoordinates,Original*%
%TF.FileFunction,Copper,L2,Bot*%
%TF.FilePolarity,Positive*%
%FSLAX46Y46*%
G04 Gerber Fmt 4.6, Leading zero omitted, Abs format (unit mm)*
G04 Created by KiCad (PCBNEW (6.0.0-0)) date 2023-01-03 09:21:55*
%MOMM*%
%LPD*%
G01*
G04 APERTURE LIST*
%TA.AperFunction,ComponentPad*%
%ADD10R,1.700000X1.700000*%
%TD*%
%TA.AperFunction,ComponentPad*%
%ADD11O,1.700000X1.700000*%
%TD*%
%TA.AperFunction,ComponentPad*%
%ADD12R,2.300000X2.000000*%
%TD*%
%TA.AperFunction,ComponentPad*%
%ADD13C,2.300000*%
%TD*%
%TA.AperFunction,ComponentPad*%
%ADD14C,2.775000*%
%TD*%
%TA.AperFunction,ComponentPad*%
%ADD15R,3.000000X3.000000*%
%TD*%
%TA.AperFunction,ComponentPad*%
%ADD16C,3.000000*%
%TD*%
%TA.AperFunction,ComponentPad*%
%ADD17R,1.778000X1.778000*%
%TD*%
%TA.AperFunction,ComponentPad*%
%ADD18C,1.778000*%
%TD*%
%TA.AperFunction,ViaPad*%
%ADD19C,0.800000*%
%TD*%
%TA.AperFunction,Conductor*%
%ADD20C,0.250000*%
%TD*%
G04 APERTURE END LIST*
D10*
%TO.P,J1,1,Pin_1*%
%TO.N,+5V*%
X103510000Y-129540000D03*
D11*
%TO.P,J1,2,Pin_2*%
%TO.N,GND*%
X106050000Y-129540000D03*
%TO.P,J1,3,Pin_3*%
%TO.N,/INTR*%
X108590000Y-129540000D03*
%TO.P,J1,4,Pin_4*%
%TO.N,/SDA*%
X111130000Y-129540000D03*
%TO.P,J1,5,Pin_5*%
%TO.N,/SCL*%
X113670000Y-129540000D03*
%TD*%
D12*
%TO.P,PS1,1,AC/L*%
%TO.N,Net-(PS1-Pad1)*%
X108727500Y-84455000D03*
D13*
%TO.P,PS1,3,AC/N*%
%TO.N,NEUT*%
X108727500Y-89535000D03*
%TO.P,PS1,5,NC*%
%TO.N,unconnected-(PS1-Pad5)*%
X108727500Y-114935000D03*
%TO.P,PS1,14,-Vo*%
%TO.N,GND*%
X126507500Y-114935000D03*
%TO.P,PS1,16,+Vo*%
%TO.N,+5V*%
X126507500Y-109855000D03*
%TD*%
D14*
%TO.P,SW1,1,A*%
%TO.N,LINE*%
X121920000Y-73025000D03*
%TO.P,SW1,2,B*%
%TO.N,Net-(PS1-Pad1)*%
X117220000Y-73025000D03*
%TO.P,SW1,3,C*%
%TO.N,unconnected-(SW1-Pad3)*%
X112520000Y-73025000D03*
%TD*%
D15*
%TO.P,J2,1,Pin_1*%
%TO.N,LINE*%
X120015000Y-55110000D03*
D16*
%TO.P,J2,2,Pin_2*%
%TO.N,NEUT*%
X114935000Y-55110000D03*
%TD*%
D17*
%TO.P,U1,1,+5V*%
%TO.N,+5V*%
X134940000Y-84230000D03*
D18*
%TO.P,U1,2,+3.3V_(out)*%
%TO.N,+3V3*%
X134940000Y-86770000D03*
%TO.P,U1,3,GND*%
%TO.N,GND*%
X134940000Y-89310000D03*
%TO.P,U1,4,ESP_EN*%
%TO.N,unconnected-(U1-Pad4)*%
X134940000Y-91850000D03*
%TO.P,U1,5,GPIO0*%
%TO.N,unconnected-(U1-Pad5)*%
X134940000Y-94390000D03*
%TO.P,U1,6,GPIO1*%
%TO.N,unconnected-(U1-Pad6)*%
X134940000Y-96930000D03*
%TO.P,U1,7,GPIO2*%
%TO.N,/TIC*%
X134940000Y-99470000D03*
%TO.P,U1,8,GPIO3*%
%TO.N,/INTR*%
X134940000Y-102010000D03*
%TO.P,U1,9,GPIO4*%
%TO.N,/SDA*%
X134940000Y-104550000D03*
%TO.P,U1,10,GPIO5*%
%TO.N,/SCL*%
X134940000Y-107090000D03*
%TO.P,U1,11,GPIO13*%
%TO.N,/MOSI*%
X160340000Y-107090000D03*
%TO.P,U1,12,GPIO14*%
%TO.N,/MISO*%
X160340000Y-104550000D03*
%TO.P,U1,13,GPIO15*%
%TO.N,/SCLK*%
X160340000Y-102010000D03*
%TO.P,U1,14,GPIO16*%
%TO.N,unconnected-(U1-Pad14)*%
X160340000Y-99470000D03*
%TO.P,U1,15,GPIO32*%
%TO.N,/CS1*%
X160340000Y-96930000D03*
%TO.P,U1,16,GPIO33*%
%TO.N,/CS2*%
X160340000Y-94390000D03*
%TO.P,U1,17,GPIO34*%
%TO.N,unconnected-(U1-Pad17)*%
X160340000Y-91850000D03*
%TO.P,U1,18,GPIO35*%
%TO.N,unconnected-(U1-Pad18)*%
X160340000Y-89310000D03*
%TO.P,U1,19,GPIO36*%
%TO.N,unconnected-(U1-Pad19)*%
X160340000Y-86770000D03*
%TO.P,U1,20,GPIO39*%
%TO.N,unconnected-(U1-Pad20)*%
X160340000Y-84230000D03*
%TD*%
D10*
%TO.P,J3,1,Pin_1*%
%TO.N,+3V3*%
X120396000Y-131394200D03*
D11*
%TO.P,J3,2,Pin_2*%
%TO.N,GND*%
X120396000Y-128854200D03*
%TO.P,J3,3,Pin_3*%
%TO.N,/TIC*%
X122936000Y-131394200D03*
%TO.P,J3,4,Pin_4*%
%TO.N,/SCLK*%
X122936000Y-128854200D03*
%TO.P,J3,5,Pin_5*%
%TO.N,/CS1*%
X125476000Y-131394200D03*
%TO.P,J3,6,Pin_6*%
%TO.N,/MISO*%
X125476000Y-128854200D03*
%TO.P,J3,7,Pin_7*%
%TO.N,/CS2*%
X128016000Y-131394200D03*
%TO.P,J3,8,Pin_8*%
%TO.N,/MOSI*%
X128016000Y-128854200D03*
%TD*%
D19*
%TO.N,/CS1*%
X157480000Y-114300000D03*
%TO.N,/CS2*%
X155575000Y-114300000D03*
%TD*%
D20*
%TO.N,/CS1*%
X157480000Y-114300000D02*
X157480000Y-99790000D01*
X157480000Y-99790000D02*
X160340000Y-96930000D01*
%TO.N,/CS2*%
X155575000Y-99155000D02*
X160340000Y-94390000D01*
X155575000Y-114300000D02*
X155575000Y-99155000D01*
%TO.N,+3V3*%
X139065000Y-125730000D02*
X139065000Y-88900000D01*
X130810000Y-133985000D02*
X139065000Y-125730000D01*
X139065000Y-88900000D02*
X136935000Y-86770000D01*
X120396000Y-131394200D02*
X122986800Y-133985000D01*
X122986800Y-133985000D02*
X130810000Y-133985000D01*
X136935000Y-86770000D02*
X134940000Y-86770000D01*
%TO.N,GND*%
X120396000Y-128854200D02*
X120396000Y-121046500D01*
X120396000Y-121046500D02*
X126507500Y-114935000D01*
%TO.N,+5V*%
X103510000Y-129540000D02*
X103510000Y-128264282D01*
X121919282Y-109855000D02*
X126507500Y-109855000D01*
X103510000Y-128264282D02*
X121919282Y-109855000D01*
%TO.N,GND*%
X117475000Y-114935000D02*
X106045000Y-126365000D01*
X126507500Y-114935000D02*
X117475000Y-114935000D01*
X106045000Y-126365000D02*
X106050000Y-126370000D01*
X106050000Y-126370000D02*
X106050000Y-129540000D01*
X126507500Y-114935000D02*
X128905000Y-112537500D01*
X128905000Y-112537500D02*
X128905000Y-92710000D01*
X128905000Y-92710000D02*
X132305000Y-89310000D01*
X132305000Y-89310000D02*
X134940000Y-89310000D01*
%TO.N,+5V*%
X126507500Y-109855000D02*
X126507500Y-87487500D01*
X126507500Y-87487500D02*
X129765000Y-84230000D01*
X129765000Y-84230000D02*
X134940000Y-84230000D01*
%TO.N,NEUT*%
X106680000Y-89535000D02*
X104775000Y-87630000D01*
X108727500Y-89535000D02*
X106680000Y-89535000D01*
X104775000Y-65270000D02*
X114935000Y-55110000D01*
X104775000Y-87630000D02*
X104775000Y-65270000D01*
%TO.N,Net-(PS1-Pad1)*%
X117220000Y-78360000D02*
X111125000Y-84455000D01*
X117220000Y-73025000D02*
X117220000Y-78360000D01*
X111125000Y-84455000D02*
X108727500Y-84455000D01*
%TO.N,LINE*%
X121920000Y-73025000D02*
X121920000Y-57015000D01*
X121920000Y-57015000D02*
X120015000Y-55110000D01*
%TD*%
M02*
