%TF.GenerationSoftware,KiCad,Pcbnew,(7.0.0)*%
%TF.CreationDate,2023-02-25T11:53:05+01:00*%
%TF.ProjectId,rgb-spot-10w,7267622d-7370-46f7-942d-3130772e6b69,rev?*%
%TF.SameCoordinates,Original*%
%TF.FileFunction,Legend,Top*%
%TF.FilePolarity,Positive*%
%FSLAX46Y46*%
G04 Gerber Fmt 4.6, Leading zero omitted, Abs format (unit mm)*
G04 Created by KiCad (PCBNEW (7.0.0)) date 2023-02-25 11:53:05*
%MOMM*%
%LPD*%
G01*
G04 APERTURE LIST*
G04 Aperture macros list*
%AMRoundRect*
0 Rectangle with rounded corners*
0 $1 Rounding radius*
0 $2 $3 $4 $5 $6 $7 $8 $9 X,Y pos of 4 corners*
0 Add a 4 corners polygon primitive as box body*
4,1,4,$2,$3,$4,$5,$6,$7,$8,$9,$2,$3,0*
0 Add four circle primitives for the rounded corners*
1,1,$1+$1,$2,$3*
1,1,$1+$1,$4,$5*
1,1,$1+$1,$6,$7*
1,1,$1+$1,$8,$9*
0 Add four rect primitives between the rounded corners*
20,1,$1+$1,$2,$3,$4,$5,0*
20,1,$1+$1,$4,$5,$6,$7,0*
20,1,$1+$1,$6,$7,$8,$9,0*
20,1,$1+$1,$8,$9,$2,$3,0*%
G04 Aperture macros list end*
%ADD10C,0.150000*%
%ADD11C,0.254000*%
%ADD12C,0.120000*%
%ADD13C,0.100000*%
%ADD14RoundRect,0.250000X-1.425000X0.362500X-1.425000X-0.362500X1.425000X-0.362500X1.425000X0.362500X0*%
%ADD15C,1.300000*%
%ADD16C,1.950000*%
%ADD17RoundRect,0.250000X-0.362500X-1.425000X0.362500X-1.425000X0.362500X1.425000X-0.362500X1.425000X0*%
G04 APERTURE END LIST*
D10*
X139738095Y-71161428D02*
X140500000Y-71161428D01*
X140119047Y-71542380D02*
X140119047Y-70780476D01*
X142147618Y-71542380D02*
X141814285Y-71066190D01*
X141576190Y-71542380D02*
X141576190Y-70542380D01*
X141576190Y-70542380D02*
X141957142Y-70542380D01*
X141957142Y-70542380D02*
X142052380Y-70590000D01*
X142052380Y-70590000D02*
X142099999Y-70637619D01*
X142099999Y-70637619D02*
X142147618Y-70732857D01*
X142147618Y-70732857D02*
X142147618Y-70875714D01*
X142147618Y-70875714D02*
X142099999Y-70970952D01*
X142099999Y-70970952D02*
X142052380Y-71018571D01*
X142052380Y-71018571D02*
X141957142Y-71066190D01*
X141957142Y-71066190D02*
X141576190Y-71066190D01*
X143699999Y-70590000D02*
X143604761Y-70542380D01*
X143604761Y-70542380D02*
X143461904Y-70542380D01*
X143461904Y-70542380D02*
X143319047Y-70590000D01*
X143319047Y-70590000D02*
X143223809Y-70685238D01*
X143223809Y-70685238D02*
X143176190Y-70780476D01*
X143176190Y-70780476D02*
X143128571Y-70970952D01*
X143128571Y-70970952D02*
X143128571Y-71113809D01*
X143128571Y-71113809D02*
X143176190Y-71304285D01*
X143176190Y-71304285D02*
X143223809Y-71399523D01*
X143223809Y-71399523D02*
X143319047Y-71494761D01*
X143319047Y-71494761D02*
X143461904Y-71542380D01*
X143461904Y-71542380D02*
X143557142Y-71542380D01*
X143557142Y-71542380D02*
X143699999Y-71494761D01*
X143699999Y-71494761D02*
X143747618Y-71447142D01*
X143747618Y-71447142D02*
X143747618Y-71113809D01*
X143747618Y-71113809D02*
X143557142Y-71113809D01*
X145109523Y-71018571D02*
X145252380Y-71066190D01*
X145252380Y-71066190D02*
X145299999Y-71113809D01*
X145299999Y-71113809D02*
X145347618Y-71209047D01*
X145347618Y-71209047D02*
X145347618Y-71351904D01*
X145347618Y-71351904D02*
X145299999Y-71447142D01*
X145299999Y-71447142D02*
X145252380Y-71494761D01*
X145252380Y-71494761D02*
X145157142Y-71542380D01*
X145157142Y-71542380D02*
X144776190Y-71542380D01*
X144776190Y-71542380D02*
X144776190Y-70542380D01*
X144776190Y-70542380D02*
X145109523Y-70542380D01*
X145109523Y-70542380D02*
X145204761Y-70590000D01*
X145204761Y-70590000D02*
X145252380Y-70637619D01*
X145252380Y-70637619D02*
X145299999Y-70732857D01*
X145299999Y-70732857D02*
X145299999Y-70828095D01*
X145299999Y-70828095D02*
X145252380Y-70923333D01*
X145252380Y-70923333D02*
X145204761Y-70970952D01*
X145204761Y-70970952D02*
X145109523Y-71018571D01*
X145109523Y-71018571D02*
X144776190Y-71018571D01*
%TO.C,R1*%
X163687380Y-92029166D02*
X163211190Y-92362499D01*
X163687380Y-92600594D02*
X162687380Y-92600594D01*
X162687380Y-92600594D02*
X162687380Y-92219642D01*
X162687380Y-92219642D02*
X162735000Y-92124404D01*
X162735000Y-92124404D02*
X162782619Y-92076785D01*
X162782619Y-92076785D02*
X162877857Y-92029166D01*
X162877857Y-92029166D02*
X163020714Y-92029166D01*
X163020714Y-92029166D02*
X163115952Y-92076785D01*
X163115952Y-92076785D02*
X163163571Y-92124404D01*
X163163571Y-92124404D02*
X163211190Y-92219642D01*
X163211190Y-92219642D02*
X163211190Y-92600594D01*
X163687380Y-91076785D02*
X163687380Y-91648213D01*
X163687380Y-91362499D02*
X162687380Y-91362499D01*
X162687380Y-91362499D02*
X162830238Y-91457737D01*
X162830238Y-91457737D02*
X162925476Y-91552975D01*
X162925476Y-91552975D02*
X162973095Y-91648213D01*
%TO.C,R3*%
X128547380Y-91606666D02*
X128071190Y-91939999D01*
X128547380Y-92178094D02*
X127547380Y-92178094D01*
X127547380Y-92178094D02*
X127547380Y-91797142D01*
X127547380Y-91797142D02*
X127595000Y-91701904D01*
X127595000Y-91701904D02*
X127642619Y-91654285D01*
X127642619Y-91654285D02*
X127737857Y-91606666D01*
X127737857Y-91606666D02*
X127880714Y-91606666D01*
X127880714Y-91606666D02*
X127975952Y-91654285D01*
X127975952Y-91654285D02*
X128023571Y-91701904D01*
X128023571Y-91701904D02*
X128071190Y-91797142D01*
X128071190Y-91797142D02*
X128071190Y-92178094D01*
X127547380Y-91273332D02*
X127547380Y-90654285D01*
X127547380Y-90654285D02*
X127928333Y-90987618D01*
X127928333Y-90987618D02*
X127928333Y-90844761D01*
X127928333Y-90844761D02*
X127975952Y-90749523D01*
X127975952Y-90749523D02*
X128023571Y-90701904D01*
X128023571Y-90701904D02*
X128118809Y-90654285D01*
X128118809Y-90654285D02*
X128356904Y-90654285D01*
X128356904Y-90654285D02*
X128452142Y-90701904D01*
X128452142Y-90701904D02*
X128499761Y-90749523D01*
X128499761Y-90749523D02*
X128547380Y-90844761D01*
X128547380Y-90844761D02*
X128547380Y-91130475D01*
X128547380Y-91130475D02*
X128499761Y-91225713D01*
X128499761Y-91225713D02*
X128452142Y-91273332D01*
D11*
%TO.C,J1*%
X149176667Y-74406573D02*
X149176667Y-75313716D01*
X149176667Y-75313716D02*
X149116190Y-75495145D01*
X149116190Y-75495145D02*
X148995238Y-75616097D01*
X148995238Y-75616097D02*
X148813809Y-75676573D01*
X148813809Y-75676573D02*
X148692857Y-75676573D01*
X150446667Y-75676573D02*
X149720952Y-75676573D01*
X150083809Y-75676573D02*
X150083809Y-74406573D01*
X150083809Y-74406573D02*
X149962857Y-74588002D01*
X149962857Y-74588002D02*
X149841905Y-74708954D01*
X149841905Y-74708954D02*
X149720952Y-74769430D01*
D10*
%TO.C,D1*%
X142201905Y-92457380D02*
X142201905Y-91457380D01*
X142201905Y-91457380D02*
X142440000Y-91457380D01*
X142440000Y-91457380D02*
X142582857Y-91505000D01*
X142582857Y-91505000D02*
X142678095Y-91600238D01*
X142678095Y-91600238D02*
X142725714Y-91695476D01*
X142725714Y-91695476D02*
X142773333Y-91885952D01*
X142773333Y-91885952D02*
X142773333Y-92028809D01*
X142773333Y-92028809D02*
X142725714Y-92219285D01*
X142725714Y-92219285D02*
X142678095Y-92314523D01*
X142678095Y-92314523D02*
X142582857Y-92409761D01*
X142582857Y-92409761D02*
X142440000Y-92457380D01*
X142440000Y-92457380D02*
X142201905Y-92457380D01*
X143725714Y-92457380D02*
X143154286Y-92457380D01*
X143440000Y-92457380D02*
X143440000Y-91457380D01*
X143440000Y-91457380D02*
X143344762Y-91600238D01*
X143344762Y-91600238D02*
X143249524Y-91695476D01*
X143249524Y-91695476D02*
X143154286Y-91743095D01*
%TO.C,R2*%
X142793333Y-108487380D02*
X142460000Y-108011190D01*
X142221905Y-108487380D02*
X142221905Y-107487380D01*
X142221905Y-107487380D02*
X142602857Y-107487380D01*
X142602857Y-107487380D02*
X142698095Y-107535000D01*
X142698095Y-107535000D02*
X142745714Y-107582619D01*
X142745714Y-107582619D02*
X142793333Y-107677857D01*
X142793333Y-107677857D02*
X142793333Y-107820714D01*
X142793333Y-107820714D02*
X142745714Y-107915952D01*
X142745714Y-107915952D02*
X142698095Y-107963571D01*
X142698095Y-107963571D02*
X142602857Y-108011190D01*
X142602857Y-108011190D02*
X142221905Y-108011190D01*
X143174286Y-107582619D02*
X143221905Y-107535000D01*
X143221905Y-107535000D02*
X143317143Y-107487380D01*
X143317143Y-107487380D02*
X143555238Y-107487380D01*
X143555238Y-107487380D02*
X143650476Y-107535000D01*
X143650476Y-107535000D02*
X143698095Y-107582619D01*
X143698095Y-107582619D02*
X143745714Y-107677857D01*
X143745714Y-107677857D02*
X143745714Y-107773095D01*
X143745714Y-107773095D02*
X143698095Y-107915952D01*
X143698095Y-107915952D02*
X143126667Y-108487380D01*
X143126667Y-108487380D02*
X143745714Y-108487380D01*
D12*
%TO.C,R1*%
X162410000Y-89685436D02*
X162410000Y-94039564D01*
X158990000Y-89685436D02*
X158990000Y-94039564D01*
%TO.C,R3*%
X127270000Y-89262936D02*
X127270000Y-93617064D01*
X123850000Y-89262936D02*
X123850000Y-93617064D01*
D13*
%TO.C,J1*%
X148000000Y-78295000D02*
X142920000Y-78295000D01*
X148000000Y-71795000D02*
X148000000Y-78295000D01*
X145460000Y-78285000D02*
X140380000Y-78285000D01*
X142920000Y-78295000D02*
X137840000Y-78295000D01*
X142920000Y-71795000D02*
X148000000Y-71795000D01*
X140380000Y-71785000D02*
X145460000Y-71785000D01*
X137840000Y-78295000D02*
X137840000Y-71795000D01*
X137840000Y-71795000D02*
X142920000Y-71795000D01*
D12*
%TO.C,R2*%
X140782936Y-109030000D02*
X145137064Y-109030000D01*
X140782936Y-112450000D02*
X145137064Y-112450000D01*
%TD*%
%LPC*%
D14*
%TO.C,R1*%
X160700000Y-88900000D03*
X160700000Y-94825000D03*
%TD*%
%TO.C,R3*%
X125560000Y-88477500D03*
X125560000Y-94402500D03*
%TD*%
D15*
%TO.C,J1*%
X146730000Y-72655000D03*
X144190000Y-72655000D03*
X141650000Y-72645000D03*
X139110000Y-72655000D03*
D16*
X146730000Y-75195000D03*
X144190000Y-75185000D03*
X141650000Y-75195000D03*
X139110000Y-75195000D03*
%TD*%
D17*
%TO.C,R2*%
X139997500Y-110740000D03*
X145922500Y-110740000D03*
%TD*%
M02*
