%TF.GenerationSoftware,KiCad,Pcbnew,(7.0.0)*%
%TF.CreationDate,2023-02-25T11:53:05+01:00*%
%TF.ProjectId,rgb-spot-10w,7267622d-7370-46f7-942d-3130772e6b69,rev?*%
%TF.SameCoordinates,Original*%
%TF.FileFunction,Profile,NP*%
%FSLAX46Y46*%
G04 Gerber Fmt 4.6, Leading zero omitted, Abs format (unit mm)*
G04 Created by KiCad (PCBNEW (7.0.0)) date 2023-02-25 11:53:05*
%MOMM*%
%LPD*%
G01*
G04 APERTURE LIST*
%TA.AperFunction,Profile*%
%ADD10C,0.100000*%
%TD*%
G04 APERTURE END LIST*
D10*
X165390000Y-92600000D02*
G75*
G03*
X165390000Y-92600000I-22500000J0D01*
G01*
%TO.C,D1*%
X153432611Y-80409241D02*
X153770914Y-80466721D01*
X154100654Y-80561717D01*
X154417684Y-80693035D01*
X154718018Y-80859024D01*
X154997879Y-81057596D01*
X155253747Y-81286253D01*
X155482404Y-81542121D01*
X155680976Y-81821982D01*
X155846965Y-82122316D01*
X155978283Y-82439346D01*
X156073279Y-82769086D01*
X156130759Y-83107389D01*
X156150000Y-83450000D01*
X156130759Y-83792611D01*
X156073279Y-84130914D01*
X155978283Y-84460654D01*
X155846965Y-84777684D01*
X155680976Y-85078018D01*
X155482404Y-85357879D01*
X155253747Y-85613747D01*
X154997879Y-85842404D01*
X154718018Y-86040976D01*
X154417684Y-86206965D01*
X154100654Y-86338283D01*
X153990000Y-86370162D01*
X153990000Y-100732206D01*
X154023015Y-100741717D01*
X154340045Y-100873035D01*
X154640379Y-101039024D01*
X154920240Y-101237596D01*
X155176108Y-101466253D01*
X155404765Y-101722121D01*
X155603337Y-102001982D01*
X155769326Y-102302316D01*
X155900644Y-102619346D01*
X155995640Y-102949086D01*
X156053120Y-103287389D01*
X156072361Y-103630000D01*
X156053120Y-103972611D01*
X155995640Y-104310914D01*
X155900644Y-104640654D01*
X155769326Y-104957684D01*
X155603337Y-105258018D01*
X155404765Y-105537879D01*
X155176108Y-105793747D01*
X154920240Y-106022404D01*
X154640379Y-106220976D01*
X154340045Y-106386965D01*
X154023015Y-106518283D01*
X153693275Y-106613279D01*
X153354972Y-106670759D01*
X153012361Y-106690000D01*
X152669750Y-106670759D01*
X152331447Y-106613279D01*
X152001707Y-106518283D01*
X151684677Y-106386965D01*
X151384343Y-106220976D01*
X151104482Y-106022404D01*
X150848614Y-105793747D01*
X150619957Y-105537879D01*
X150421385Y-105258018D01*
X150255396Y-104957684D01*
X150124078Y-104640654D01*
X150029082Y-104310914D01*
X150017033Y-104240000D01*
X135897689Y-104240000D01*
X135885640Y-104310914D01*
X135790644Y-104640654D01*
X135659326Y-104957684D01*
X135493337Y-105258018D01*
X135294765Y-105537879D01*
X135066108Y-105793747D01*
X134810240Y-106022404D01*
X134530379Y-106220976D01*
X134230045Y-106386965D01*
X133913015Y-106518283D01*
X133583275Y-106613279D01*
X133244972Y-106670759D01*
X132902361Y-106690000D01*
X132559750Y-106670759D01*
X132221447Y-106613279D01*
X131891707Y-106518283D01*
X131574677Y-106386965D01*
X131274343Y-106220976D01*
X130994482Y-106022404D01*
X130738614Y-105793747D01*
X130509957Y-105537879D01*
X130311385Y-105258018D01*
X130145396Y-104957684D01*
X130014078Y-104640654D01*
X129919082Y-104310914D01*
X129861602Y-103972611D01*
X129842361Y-103630000D01*
X129861602Y-103287389D01*
X129919082Y-102949086D01*
X130014078Y-102619346D01*
X130145396Y-102302316D01*
X130311385Y-102001982D01*
X130509957Y-101722121D01*
X130738614Y-101466253D01*
X130994482Y-101237596D01*
X131274343Y-101039024D01*
X131574677Y-100873035D01*
X131891707Y-100741717D01*
X131900000Y-100739328D01*
X131900000Y-86382196D01*
X131851707Y-86368283D01*
X131534677Y-86236965D01*
X131234343Y-86070976D01*
X130954482Y-85872404D01*
X130698614Y-85643747D01*
X130469957Y-85387879D01*
X130271385Y-85108018D01*
X130105396Y-84807684D01*
X129974078Y-84490654D01*
X129879082Y-84160914D01*
X129821602Y-83822611D01*
X129802361Y-83480000D01*
X129821602Y-83137389D01*
X129879082Y-82799086D01*
X129974078Y-82469346D01*
X130105396Y-82152316D01*
X130271385Y-81851982D01*
X130469957Y-81572121D01*
X130698614Y-81316253D01*
X130954482Y-81087596D01*
X131234343Y-80889024D01*
X131534677Y-80723035D01*
X131851707Y-80591717D01*
X132181447Y-80496721D01*
X132519750Y-80439241D01*
X132862361Y-80420000D01*
X133204972Y-80439241D01*
X133543275Y-80496721D01*
X133873015Y-80591717D01*
X134190045Y-80723035D01*
X134490379Y-80889024D01*
X134770240Y-81087596D01*
X135026108Y-81316253D01*
X135254765Y-81572121D01*
X135453337Y-81851982D01*
X135619326Y-82152316D01*
X135750644Y-82469346D01*
X135845640Y-82799086D01*
X135852592Y-82840000D01*
X150094672Y-82840000D01*
X150106721Y-82769086D01*
X150201717Y-82439346D01*
X150333035Y-82122316D01*
X150499024Y-81821982D01*
X150697596Y-81542121D01*
X150926253Y-81286253D01*
X151182121Y-81057596D01*
X151461982Y-80859024D01*
X151762316Y-80693035D01*
X152079346Y-80561717D01*
X152409086Y-80466721D01*
X152747389Y-80409241D01*
X153090000Y-80390000D01*
X153432611Y-80409241D01*
%TD*%
M02*
