%TF.GenerationSoftware,KiCad,Pcbnew,(7.0.0-0)*%
%TF.CreationDate,2023-05-22T11:06:43+02:00*%
%TF.ProjectId,garage-door-driver,67617261-6765-42d6-946f-6f722d647269,rev?*%
%TF.SameCoordinates,Original*%
%TF.FileFunction,Copper,L1,Top*%
%TF.FilePolarity,Positive*%
%FSLAX46Y46*%
G04 Gerber Fmt 4.6, Leading zero omitted, Abs format (unit mm)*
G04 Created by KiCad (PCBNEW (7.0.0-0)) date 2023-05-22 11:06:43*
%MOMM*%
%LPD*%
G01*
G04 APERTURE LIST*
G04 Aperture macros list*
%AMRoundRect*
0 Rectangle with rounded corners*
0 $1 Rounding radius*
0 $2 $3 $4 $5 $6 $7 $8 $9 X,Y pos of 4 corners*
0 Add a 4 corners polygon primitive as box body*
4,1,4,$2,$3,$4,$5,$6,$7,$8,$9,$2,$3,0*
0 Add four circle primitives for the rounded corners*
1,1,$1+$1,$2,$3*
1,1,$1+$1,$4,$5*
1,1,$1+$1,$6,$7*
1,1,$1+$1,$8,$9*
0 Add four rect primitives between the rounded corners*
20,1,$1+$1,$2,$3,$4,$5,0*
20,1,$1+$1,$4,$5,$6,$7,0*
20,1,$1+$1,$6,$7,$8,$9,0*
20,1,$1+$1,$8,$9,$2,$3,0*%
G04 Aperture macros list end*
%TA.AperFunction,SMDPad,CuDef*%
%ADD10RoundRect,0.200000X0.200000X0.275000X-0.200000X0.275000X-0.200000X-0.275000X0.200000X-0.275000X0*%
%TD*%
%TA.AperFunction,SMDPad,CuDef*%
%ADD11RoundRect,0.200000X0.275000X-0.200000X0.275000X0.200000X-0.275000X0.200000X-0.275000X-0.200000X0*%
%TD*%
%TA.AperFunction,SMDPad,CuDef*%
%ADD12RoundRect,0.250000X-0.650000X0.325000X-0.650000X-0.325000X0.650000X-0.325000X0.650000X0.325000X0*%
%TD*%
%TA.AperFunction,SMDPad,CuDef*%
%ADD13R,1.600000X3.100000*%
%TD*%
%TA.AperFunction,SMDPad,CuDef*%
%ADD14RoundRect,0.250000X0.475000X-0.250000X0.475000X0.250000X-0.475000X0.250000X-0.475000X-0.250000X0*%
%TD*%
%TA.AperFunction,SMDPad,CuDef*%
%ADD15RoundRect,0.135000X0.135000X0.185000X-0.135000X0.185000X-0.135000X-0.185000X0.135000X-0.185000X0*%
%TD*%
%TA.AperFunction,SMDPad,CuDef*%
%ADD16RoundRect,0.243750X0.243750X0.456250X-0.243750X0.456250X-0.243750X-0.456250X0.243750X-0.456250X0*%
%TD*%
%TA.AperFunction,ComponentPad*%
%ADD17R,1.700000X1.700000*%
%TD*%
%TA.AperFunction,ComponentPad*%
%ADD18O,1.700000X1.700000*%
%TD*%
%TA.AperFunction,ComponentPad*%
%ADD19R,2.000000X2.000000*%
%TD*%
%TA.AperFunction,ComponentPad*%
%ADD20O,1.600000X2.000000*%
%TD*%
%TA.AperFunction,SMDPad,CuDef*%
%ADD21R,3.100000X1.600000*%
%TD*%
%TA.AperFunction,SMDPad,CuDef*%
%ADD22RoundRect,0.243750X-0.456250X0.243750X-0.456250X-0.243750X0.456250X-0.243750X0.456250X0.243750X0*%
%TD*%
%TA.AperFunction,ComponentPad*%
%ADD23C,1.950000*%
%TD*%
%TA.AperFunction,SMDPad,CuDef*%
%ADD24RoundRect,0.200000X-0.200000X-0.275000X0.200000X-0.275000X0.200000X0.275000X-0.200000X0.275000X0*%
%TD*%
%TA.AperFunction,ComponentPad*%
%ADD25R,1.500000X2.300000*%
%TD*%
%TA.AperFunction,ComponentPad*%
%ADD26O,1.500000X2.300000*%
%TD*%
%TA.AperFunction,ViaPad*%
%ADD27C,0.800000*%
%TD*%
%TA.AperFunction,Conductor*%
%ADD28C,0.250000*%
%TD*%
G04 APERTURE END LIST*
D10*
%TO.P,R11,1*%
%TO.N,Net-(D4-A)*%
X179895000Y-90170000D03*
%TO.P,R11,2*%
%TO.N,Net-(R11-Pad2)*%
X178245000Y-90170000D03*
%TD*%
D11*
%TO.P,R6,1*%
%TO.N,Net-(U2-MISO{slash}D6)*%
X173990000Y-97345000D03*
%TO.P,R6,2*%
%TO.N,Net-(D3-K)*%
X173990000Y-95695000D03*
%TD*%
D12*
%TO.P,C1,1*%
%TO.N,+24V*%
X198755000Y-88695000D03*
%TO.P,C1,2*%
%TO.N,GND*%
X198755000Y-91645000D03*
%TD*%
D13*
%TO.P,U3,1*%
%TO.N,Net-(R5-Pad2)*%
X151129999Y-86994999D03*
%TO.P,U3,2*%
%TO.N,Net-(J3-Pin_1)*%
X153669999Y-86994999D03*
%TO.P,U3,3,NC*%
%TO.N,unconnected-(U3-NC-Pad3)*%
X156209999Y-86994999D03*
%TO.P,U3,4*%
%TO.N,GND*%
X156209999Y-78104999D03*
%TO.P,U3,5*%
%TO.N,Net-(U2-SCK{slash}D5)*%
X153669999Y-78104999D03*
%TO.P,U3,6*%
%TO.N,unconnected-(U3-Pad6)*%
X151129999Y-78104999D03*
%TD*%
D14*
%TO.P,C2,1*%
%TO.N,+5V*%
X198755000Y-96200000D03*
%TO.P,C2,2*%
%TO.N,GND*%
X198755000Y-94300000D03*
%TD*%
D13*
%TO.P,U5,1*%
%TO.N,Net-(R10-Pad2)*%
X160019999Y-86994999D03*
%TO.P,U5,2*%
%TO.N,Net-(J3-Pin_2)*%
X162559999Y-86994999D03*
%TO.P,U5,3,NC*%
%TO.N,unconnected-(U5-NC-Pad3)*%
X165099999Y-86994999D03*
%TO.P,U5,4*%
%TO.N,GND*%
X165099999Y-78104999D03*
%TO.P,U5,5*%
%TO.N,Net-(U2-MISO{slash}D6)*%
X162559999Y-78104999D03*
%TO.P,U5,6*%
%TO.N,unconnected-(U5-Pad6)*%
X160019999Y-78104999D03*
%TD*%
D15*
%TO.P,R1,1*%
%TO.N,+3V3*%
X153545000Y-94615000D03*
%TO.P,R1,2*%
%TO.N,Net-(J1-Pin_3)*%
X152525000Y-94615000D03*
%TD*%
D16*
%TO.P,D2,1,K*%
%TO.N,Net-(D2-K)*%
X153972500Y-101600000D03*
%TO.P,D2,2,A*%
%TO.N,Net-(D2-A)*%
X152097500Y-101600000D03*
%TD*%
D10*
%TO.P,R14,1*%
%TO.N,Net-(J2-Pin_1)*%
X171005000Y-90170000D03*
%TO.P,R14,2*%
%TO.N,Net-(R14-Pad2)*%
X169355000Y-90170000D03*
%TD*%
D11*
%TO.P,R7,1*%
%TO.N,Net-(D2-A)*%
X200025000Y-77025000D03*
%TO.P,R7,2*%
%TO.N,Net-(R7-Pad2)*%
X200025000Y-75375000D03*
%TD*%
D10*
%TO.P,R12,1*%
%TO.N,Net-(U2-MOSI{slash}D7)*%
X183705000Y-96520000D03*
%TO.P,R12,2*%
%TO.N,Net-(D5-K)*%
X182055000Y-96520000D03*
%TD*%
%TO.P,R10,1*%
%TO.N,Net-(J3-Pin_1)*%
X162203000Y-90170000D03*
%TO.P,R10,2*%
%TO.N,Net-(R10-Pad2)*%
X160553000Y-90170000D03*
%TD*%
D16*
%TO.P,D5,1,K*%
%TO.N,Net-(D5-K)*%
X179705000Y-96520000D03*
%TO.P,D5,2,A*%
%TO.N,+3V3*%
X177830000Y-96520000D03*
%TD*%
D17*
%TO.P,J1,1,Pin_1*%
%TO.N,GND*%
X160654999Y-103444999D03*
D18*
%TO.P,J1,2,Pin_2*%
%TO.N,+3V3*%
X160654999Y-100904999D03*
%TO.P,J1,3,Pin_3*%
%TO.N,Net-(J1-Pin_3)*%
X160654999Y-98364999D03*
%TD*%
D19*
%TO.P,U2,1,~{RST}*%
%TO.N,unconnected-(U2-~{RST}-Pad1)*%
X122554999Y-102234999D03*
D20*
%TO.P,U2,2,A0*%
%TO.N,unconnected-(U2-A0-Pad2)*%
X125094999Y-102234999D03*
%TO.P,U2,3,D0*%
%TO.N,unconnected-(U2-D0-Pad3)*%
X127634999Y-102234999D03*
%TO.P,U2,4,SCK/D5*%
%TO.N,Net-(U2-SCK{slash}D5)*%
X130174999Y-102234999D03*
%TO.P,U2,5,MISO/D6*%
%TO.N,Net-(U2-MISO{slash}D6)*%
X132714999Y-102234999D03*
%TO.P,U2,6,MOSI/D7*%
%TO.N,Net-(U2-MOSI{slash}D7)*%
X135254999Y-102234999D03*
%TO.P,U2,7,CS/D8*%
%TO.N,unconnected-(U2-CS{slash}D8-Pad7)*%
X137794999Y-102234999D03*
%TO.P,U2,8,3V3*%
%TO.N,+3V3*%
X140334999Y-102234999D03*
%TO.P,U2,9,5V*%
%TO.N,+5V*%
X140334999Y-79374999D03*
%TO.P,U2,10,GND*%
%TO.N,GND*%
X137794999Y-79374999D03*
%TO.P,U2,11,D4*%
%TO.N,unconnected-(U2-D4-Pad11)*%
X135254999Y-79374999D03*
%TO.P,U2,12,D3*%
%TO.N,unconnected-(U2-D3-Pad12)*%
X132714999Y-79374999D03*
%TO.P,U2,13,SDA/D2*%
%TO.N,Net-(D4-A)*%
X130174999Y-79374999D03*
%TO.P,U2,14,SCL/D1*%
%TO.N,Net-(D2-A)*%
X127634999Y-79374999D03*
%TO.P,U2,15,RX*%
%TO.N,Net-(J1-Pin_3)*%
X125094999Y-79374999D03*
%TO.P,U2,16,TX*%
%TO.N,unconnected-(U2-TX-Pad16)*%
X122554999Y-79374999D03*
%TD*%
D21*
%TO.P,U4,1*%
%TO.N,Net-(R7-Pad2)*%
X200024999Y-71119999D03*
%TO.P,U4,2*%
%TO.N,GND*%
X200024999Y-68579999D03*
%TO.P,U4,3,NC*%
%TO.N,unconnected-(U4-NC-Pad3)*%
X200024999Y-66039999D03*
%TO.P,U4,4*%
%TO.N,GND*%
X191134999Y-66039999D03*
%TO.P,U4,5*%
%TO.N,Net-(J4-Pin_3)*%
X191134999Y-68579999D03*
%TO.P,U4,6*%
%TO.N,unconnected-(U4-Pad6)*%
X191134999Y-71119999D03*
%TD*%
D17*
%TO.P,J4,1,Pin_1*%
%TO.N,GND*%
X190245999Y-60959999D03*
D18*
%TO.P,J4,2,Pin_2*%
%TO.N,unconnected-(J4-Pin_2-Pad2)*%
X192785999Y-60959999D03*
%TO.P,J4,3,Pin_3*%
%TO.N,Net-(J4-Pin_3)*%
X195325999Y-60959999D03*
%TO.P,J4,4,Pin_4*%
%TO.N,unconnected-(J4-Pin_4-Pad4)*%
X197865999Y-60959999D03*
%TO.P,J4,5,Pin_5*%
%TO.N,+24V*%
X200405999Y-60959999D03*
%TO.P,J4,6,Pin_6*%
%TO.N,unconnected-(J4-Pin_6-Pad6)*%
X202945999Y-60959999D03*
%TO.P,J4,7,Pin_7*%
%TO.N,Net-(J4-Pin_7)*%
X205485999Y-60959999D03*
%TD*%
D22*
%TO.P,D1,1,K*%
%TO.N,Net-(D1-K)*%
X168910000Y-95250000D03*
%TO.P,D1,2,A*%
%TO.N,+3V3*%
X168910000Y-97125000D03*
%TD*%
D23*
%TO.P,J2,1,Pin_1*%
%TO.N,Net-(J2-Pin_1)*%
X180340000Y-104925000D03*
%TO.P,J2,2,Pin_2*%
%TO.N,Net-(J2-Pin_2)*%
X177800000Y-104925000D03*
%TD*%
D24*
%TO.P,R4,1*%
%TO.N,GND*%
X152210000Y-104140000D03*
%TO.P,R4,2*%
%TO.N,Net-(D2-K)*%
X153860000Y-104140000D03*
%TD*%
D25*
%TO.P,U1,1,IN*%
%TO.N,+24V*%
X188687999Y-105077499D03*
D26*
%TO.P,U1,2,GND*%
%TO.N,GND*%
X191227999Y-105077499D03*
%TO.P,U1,3,OUT*%
%TO.N,+5V*%
X193767999Y-105077499D03*
%TD*%
D10*
%TO.P,R13,1*%
%TO.N,Net-(U2-MOSI{slash}D7)*%
X171005000Y-74930000D03*
%TO.P,R13,2*%
%TO.N,+3V3*%
X169355000Y-74930000D03*
%TD*%
D16*
%TO.P,D4,1,K*%
%TO.N,Net-(D4-K)*%
X153972500Y-99060000D03*
%TO.P,D4,2,A*%
%TO.N,Net-(D4-A)*%
X152097500Y-99060000D03*
%TD*%
D10*
%TO.P,R3,1*%
%TO.N,Net-(U2-SCK{slash}D5)*%
X153225000Y-74930000D03*
%TO.P,R3,2*%
%TO.N,+3V3*%
X151575000Y-74930000D03*
%TD*%
D22*
%TO.P,D3,1,K*%
%TO.N,Net-(D3-K)*%
X171450000Y-95250000D03*
%TO.P,D3,2,A*%
%TO.N,+3V3*%
X171450000Y-97125000D03*
%TD*%
D23*
%TO.P,J3,1,Pin_1*%
%TO.N,Net-(J3-Pin_1)*%
X171450000Y-104925000D03*
%TO.P,J3,2,Pin_2*%
%TO.N,Net-(J3-Pin_2)*%
X168910000Y-104925000D03*
%TD*%
D11*
%TO.P,R2,1*%
%TO.N,Net-(U2-SCK{slash}D5)*%
X166370000Y-97345000D03*
%TO.P,R2,2*%
%TO.N,Net-(D1-K)*%
X166370000Y-95695000D03*
%TD*%
D24*
%TO.P,R9,1*%
%TO.N,GND*%
X152210000Y-96520000D03*
%TO.P,R9,2*%
%TO.N,Net-(D4-K)*%
X153860000Y-96520000D03*
%TD*%
D13*
%TO.P,U6,1*%
%TO.N,Net-(R11-Pad2)*%
X177799999Y-86994999D03*
%TO.P,U6,2*%
%TO.N,GND*%
X180339999Y-86994999D03*
%TO.P,U6,3,NC*%
%TO.N,unconnected-(U6-NC-Pad3)*%
X182879999Y-86994999D03*
%TO.P,U6,4*%
%TO.N,GND*%
X182879999Y-78104999D03*
%TO.P,U6,5*%
%TO.N,Net-(J4-Pin_7)*%
X180339999Y-78104999D03*
%TO.P,U6,6*%
%TO.N,unconnected-(U6-Pad6)*%
X177799999Y-78104999D03*
%TD*%
D10*
%TO.P,R8,1*%
%TO.N,Net-(U2-MISO{slash}D6)*%
X162115000Y-74930000D03*
%TO.P,R8,2*%
%TO.N,+3V3*%
X160465000Y-74930000D03*
%TD*%
D13*
%TO.P,U7,1*%
%TO.N,Net-(R14-Pad2)*%
X168909999Y-86994999D03*
%TO.P,U7,2*%
%TO.N,Net-(J2-Pin_2)*%
X171449999Y-86994999D03*
%TO.P,U7,3,NC*%
%TO.N,unconnected-(U7-NC-Pad3)*%
X173989999Y-86994999D03*
%TO.P,U7,4*%
%TO.N,GND*%
X173989999Y-78104999D03*
%TO.P,U7,5*%
%TO.N,Net-(U2-MOSI{slash}D7)*%
X171449999Y-78104999D03*
%TO.P,U7,6*%
%TO.N,unconnected-(U7-Pad6)*%
X168909999Y-78104999D03*
%TD*%
D10*
%TO.P,R5,1*%
%TO.N,Net-(J3-Pin_2)*%
X153225000Y-90170000D03*
%TO.P,R5,2*%
%TO.N,Net-(R5-Pad2)*%
X151575000Y-90170000D03*
%TD*%
D27*
%TO.N,+24V*%
X198755000Y-85090000D03*
%TO.N,GND*%
X151130000Y-97155000D03*
X156210000Y-74930000D03*
X182880000Y-74930000D03*
X173990000Y-74930000D03*
X190246000Y-64135000D03*
X197485000Y-68580000D03*
X165100000Y-74930000D03*
X151130000Y-104775000D03*
X180340000Y-84455000D03*
%TO.N,+5V*%
X175895000Y-81280000D03*
X193675000Y-85090000D03*
%TO.N,+3V3*%
X158115000Y-76200000D03*
X167005000Y-76200000D03*
X177800000Y-94615000D03*
X149225000Y-76200000D03*
%TO.N,Net-(D4-A)*%
X180975000Y-98425000D03*
X180975000Y-94615000D03*
%TO.N,Net-(J1-Pin_3)*%
X135890000Y-82550000D03*
%TO.N,Net-(U2-SCK{slash}D5)*%
X153670000Y-80645000D03*
%TO.N,Net-(J3-Pin_2)*%
X158750000Y-90170000D03*
%TO.N,Net-(U2-MISO{slash}D6)*%
X162560000Y-80645000D03*
%TO.N,Net-(J3-Pin_1)*%
X163830000Y-90170000D03*
X162560000Y-84455000D03*
%TO.N,Net-(U2-MOSI{slash}D7)*%
X171450000Y-80645000D03*
%TO.N,Net-(J2-Pin_1)*%
X176530000Y-90170000D03*
%TO.N,Net-(J2-Pin_2)*%
X171450000Y-84455000D03*
%TD*%
D28*
%TO.N,+24V*%
X198755000Y-85090000D02*
X198755000Y-88695000D01*
X188688000Y-98762000D02*
X188688000Y-105077500D01*
X198755000Y-88695000D02*
X188688000Y-98762000D01*
%TO.N,GND*%
X190246000Y-64135000D02*
X190246000Y-65151000D01*
X151765000Y-96520000D02*
X151130000Y-97155000D01*
X198755000Y-94300000D02*
X191228000Y-101827000D01*
X198755000Y-91645000D02*
X198755000Y-94300000D01*
X151575000Y-104775000D02*
X152210000Y-104140000D01*
X182880000Y-74930000D02*
X182880000Y-78105000D01*
X151130000Y-104775000D02*
X151575000Y-104775000D01*
X156210000Y-78105000D02*
X156210000Y-74930000D01*
X173990000Y-78105000D02*
X173990000Y-74930000D01*
X152210000Y-96520000D02*
X151765000Y-96520000D01*
X190246000Y-65151000D02*
X191135000Y-66040000D01*
X200025000Y-68580000D02*
X197485000Y-68580000D01*
X165100000Y-78105000D02*
X165100000Y-74930000D01*
X191228000Y-101827000D02*
X191228000Y-105077500D01*
X180340000Y-86995000D02*
X180340000Y-84455000D01*
%TO.N,+5V*%
X198755000Y-96200000D02*
X193768000Y-101187000D01*
X193768000Y-101187000D02*
X193768000Y-105077500D01*
X175895000Y-81280000D02*
X189865000Y-81280000D01*
X189865000Y-81280000D02*
X193675000Y-85090000D01*
%TO.N,Net-(D1-K)*%
X168910000Y-95250000D02*
X166815000Y-95250000D01*
X166815000Y-95250000D02*
X166370000Y-95695000D01*
%TO.N,+3V3*%
X168910000Y-97125000D02*
X165130000Y-100905000D01*
X175925000Y-98425000D02*
X172750000Y-98425000D01*
X177800000Y-96490000D02*
X177830000Y-96520000D01*
X154365000Y-94615000D02*
X160655000Y-100905000D01*
X169355000Y-74930000D02*
X168275000Y-74930000D01*
X177800000Y-94615000D02*
X177800000Y-96490000D01*
X153545000Y-94615000D02*
X154365000Y-94615000D01*
X168910000Y-97125000D02*
X171450000Y-97125000D01*
X177830000Y-96520000D02*
X175925000Y-98425000D01*
X159385000Y-74930000D02*
X158115000Y-76200000D01*
X160465000Y-74930000D02*
X159385000Y-74930000D01*
X151575000Y-74930000D02*
X150495000Y-74930000D01*
X168275000Y-74930000D02*
X167005000Y-76200000D01*
X165130000Y-100905000D02*
X160655000Y-100905000D01*
X172750000Y-98425000D02*
X171450000Y-97125000D01*
X150495000Y-74930000D02*
X149225000Y-76200000D01*
%TO.N,Net-(D2-K)*%
X153972500Y-104027500D02*
X153860000Y-104140000D01*
X153972500Y-101600000D02*
X153972500Y-104027500D01*
%TO.N,Net-(D2-A)*%
X152097500Y-101600000D02*
X150495000Y-101600000D01*
X186690000Y-102235000D02*
X182245000Y-106680000D01*
X150405000Y-101690000D02*
X150495000Y-101600000D01*
X150495000Y-101600000D02*
X149860000Y-101600000D01*
X149860000Y-101600000D02*
X127635000Y-79375000D01*
X200025000Y-81417462D02*
X186690000Y-94752462D01*
X182245000Y-106680000D02*
X151765000Y-106680000D01*
X151765000Y-106680000D02*
X150405000Y-105320000D01*
X150405000Y-105320000D02*
X150405000Y-101690000D01*
X200025000Y-77025000D02*
X200025000Y-81417462D01*
X186690000Y-94752462D02*
X186690000Y-102235000D01*
%TO.N,Net-(D3-K)*%
X173545000Y-95250000D02*
X173990000Y-95695000D01*
X171450000Y-95250000D02*
X173545000Y-95250000D01*
%TO.N,Net-(D4-K)*%
X153972500Y-96632500D02*
X153860000Y-96520000D01*
X153972500Y-99060000D02*
X153972500Y-96632500D01*
%TO.N,Net-(D4-A)*%
X156845000Y-100965000D02*
X156210000Y-100330000D01*
X152097500Y-99060000D02*
X149860000Y-99060000D01*
X180975000Y-98425000D02*
X179070000Y-100330000D01*
X156210000Y-100330000D02*
X153367500Y-100330000D01*
X149860000Y-99060000D02*
X130175000Y-79375000D01*
X158750000Y-105410000D02*
X156845000Y-103505000D01*
X163830000Y-105410000D02*
X158750000Y-105410000D01*
X179895000Y-93535000D02*
X180975000Y-94615000D01*
X179070000Y-100330000D02*
X168910000Y-100330000D01*
X179895000Y-90170000D02*
X179895000Y-93535000D01*
X168910000Y-100330000D02*
X163830000Y-105410000D01*
X153367500Y-100330000D02*
X152097500Y-99060000D01*
X156845000Y-103505000D02*
X156845000Y-100965000D01*
%TO.N,Net-(D5-K)*%
X182055000Y-96520000D02*
X179705000Y-96520000D01*
%TO.N,Net-(J1-Pin_3)*%
X152525000Y-94615000D02*
X152525000Y-93470000D01*
X152400000Y-93345000D02*
X146685000Y-93345000D01*
X160655000Y-98365000D02*
X155635000Y-93345000D01*
X152525000Y-93470000D02*
X152400000Y-93345000D01*
X155635000Y-93345000D02*
X152400000Y-93345000D01*
X146685000Y-93345000D02*
X135890000Y-82550000D01*
%TO.N,Net-(U2-SCK{slash}D5)*%
X166370000Y-92710000D02*
X165100000Y-93980000D01*
X153670000Y-78105000D02*
X153670000Y-80645000D01*
X165100000Y-93980000D02*
X165100000Y-96075000D01*
X153225000Y-74930000D02*
X153670000Y-75375000D01*
X165804695Y-84699695D02*
X166370000Y-85265000D01*
X165100000Y-96075000D02*
X166370000Y-97345000D01*
X153670000Y-80645000D02*
X159775305Y-80645000D01*
X166370000Y-85265000D02*
X166370000Y-92710000D01*
X163830000Y-84699695D02*
X165804695Y-84699695D01*
X153670000Y-75375000D02*
X153670000Y-78105000D01*
X159775305Y-80645000D02*
X163830000Y-84699695D01*
%TO.N,Net-(J3-Pin_2)*%
X162560000Y-86245000D02*
X162560000Y-86995000D01*
X158750000Y-90170000D02*
X158750000Y-85265000D01*
X153225000Y-90170000D02*
X158750000Y-90170000D01*
X158750000Y-85265000D02*
X158925000Y-85090000D01*
X161405000Y-85090000D02*
X162560000Y-86245000D01*
X158925000Y-85090000D02*
X161405000Y-85090000D01*
%TO.N,Net-(R5-Pad2)*%
X151130000Y-86995000D02*
X151130000Y-89725000D01*
X151130000Y-89725000D02*
X151575000Y-90170000D01*
%TO.N,Net-(U2-MISO{slash}D6)*%
X171684334Y-93980000D02*
X174625000Y-93980000D01*
X166947500Y-89243166D02*
X171684334Y-93980000D01*
X175260000Y-94615000D02*
X175260000Y-96075000D01*
X162560000Y-80645000D02*
X166947500Y-85032500D01*
X162560000Y-78105000D02*
X162560000Y-80645000D01*
X162560000Y-75375000D02*
X162560000Y-78105000D01*
X174625000Y-93980000D02*
X175260000Y-94615000D01*
X175260000Y-96075000D02*
X173990000Y-97345000D01*
X166947500Y-85032500D02*
X166947500Y-89243166D01*
X162115000Y-74930000D02*
X162560000Y-75375000D01*
%TO.N,Net-(R7-Pad2)*%
X200025000Y-75375000D02*
X200025000Y-71120000D01*
%TO.N,Net-(J3-Pin_1)*%
X153670000Y-86995000D02*
X153670000Y-86245000D01*
X163830000Y-90170000D02*
X162203000Y-90170000D01*
X155460000Y-84455000D02*
X162560000Y-84455000D01*
X153670000Y-86245000D02*
X155460000Y-84455000D01*
%TO.N,Net-(R10-Pad2)*%
X160020000Y-86995000D02*
X160020000Y-89637000D01*
X160020000Y-89637000D02*
X160553000Y-90170000D01*
%TO.N,Net-(R11-Pad2)*%
X177800000Y-89725000D02*
X178245000Y-90170000D01*
X177800000Y-86995000D02*
X177800000Y-89725000D01*
%TO.N,Net-(U2-MOSI{slash}D7)*%
X171450000Y-80645000D02*
X174535000Y-83730000D01*
X184785000Y-84455000D02*
X184785000Y-95440000D01*
X171450000Y-78105000D02*
X171450000Y-80645000D01*
X184785000Y-95440000D02*
X183705000Y-96520000D01*
X171450000Y-75375000D02*
X171450000Y-78105000D01*
X174535000Y-83730000D02*
X184060000Y-83730000D01*
X171005000Y-74930000D02*
X171450000Y-75375000D01*
X184060000Y-83730000D02*
X184785000Y-84455000D01*
%TO.N,Net-(J2-Pin_1)*%
X176530000Y-90170000D02*
X171005000Y-90170000D01*
%TO.N,Net-(R14-Pad2)*%
X168910000Y-89725000D02*
X169355000Y-90170000D01*
X168910000Y-86995000D02*
X168910000Y-89725000D01*
%TO.N,Net-(J4-Pin_3)*%
X195326000Y-65139000D02*
X191885000Y-68580000D01*
X195326000Y-60960000D02*
X195326000Y-65139000D01*
X191885000Y-68580000D02*
X191135000Y-68580000D01*
%TO.N,Net-(J4-Pin_7)*%
X180975000Y-80645000D02*
X180340000Y-80010000D01*
X198755000Y-63500000D02*
X195580000Y-66675000D01*
X195580000Y-66675000D02*
X195580000Y-69850000D01*
X184785000Y-80645000D02*
X180975000Y-80645000D01*
X195580000Y-69850000D02*
X184785000Y-80645000D01*
X205486000Y-60960000D02*
X202946000Y-63500000D01*
X202946000Y-63500000D02*
X198755000Y-63500000D01*
X180340000Y-80010000D02*
X180340000Y-78105000D01*
%TO.N,Net-(J2-Pin_2)*%
X171450000Y-84455000D02*
X171450000Y-86995000D01*
%TD*%
M02*
