%TF.GenerationSoftware,KiCad,Pcbnew,(7.0.0-0)*%
%TF.CreationDate,2023-05-22T11:06:43+02:00*%
%TF.ProjectId,garage-door-driver,67617261-6765-42d6-946f-6f722d647269,rev?*%
%TF.SameCoordinates,Original*%
%TF.FileFunction,Soldermask,Top*%
%TF.FilePolarity,Negative*%
%FSLAX46Y46*%
G04 Gerber Fmt 4.6, Leading zero omitted, Abs format (unit mm)*
G04 Created by KiCad (PCBNEW (7.0.0-0)) date 2023-05-22 11:06:43*
%MOMM*%
%LPD*%
G01*
G04 APERTURE LIST*
G04 Aperture macros list*
%AMRoundRect*
0 Rectangle with rounded corners*
0 $1 Rounding radius*
0 $2 $3 $4 $5 $6 $7 $8 $9 X,Y pos of 4 corners*
0 Add a 4 corners polygon primitive as box body*
4,1,4,$2,$3,$4,$5,$6,$7,$8,$9,$2,$3,0*
0 Add four circle primitives for the rounded corners*
1,1,$1+$1,$2,$3*
1,1,$1+$1,$4,$5*
1,1,$1+$1,$6,$7*
1,1,$1+$1,$8,$9*
0 Add four rect primitives between the rounded corners*
20,1,$1+$1,$2,$3,$4,$5,0*
20,1,$1+$1,$4,$5,$6,$7,0*
20,1,$1+$1,$6,$7,$8,$9,0*
20,1,$1+$1,$8,$9,$2,$3,0*%
G04 Aperture macros list end*
%ADD10RoundRect,0.200000X0.200000X0.275000X-0.200000X0.275000X-0.200000X-0.275000X0.200000X-0.275000X0*%
%ADD11RoundRect,0.200000X0.275000X-0.200000X0.275000X0.200000X-0.275000X0.200000X-0.275000X-0.200000X0*%
%ADD12RoundRect,0.250000X-0.650000X0.325000X-0.650000X-0.325000X0.650000X-0.325000X0.650000X0.325000X0*%
%ADD13R,1.600000X3.100000*%
%ADD14RoundRect,0.250000X0.475000X-0.250000X0.475000X0.250000X-0.475000X0.250000X-0.475000X-0.250000X0*%
%ADD15RoundRect,0.135000X0.135000X0.185000X-0.135000X0.185000X-0.135000X-0.185000X0.135000X-0.185000X0*%
%ADD16RoundRect,0.243750X0.243750X0.456250X-0.243750X0.456250X-0.243750X-0.456250X0.243750X-0.456250X0*%
%ADD17R,1.700000X1.700000*%
%ADD18O,1.700000X1.700000*%
%ADD19R,2.000000X2.000000*%
%ADD20O,1.600000X2.000000*%
%ADD21R,3.100000X1.600000*%
%ADD22RoundRect,0.243750X-0.456250X0.243750X-0.456250X-0.243750X0.456250X-0.243750X0.456250X0.243750X0*%
%ADD23C,1.300000*%
%ADD24C,1.950000*%
%ADD25RoundRect,0.200000X-0.200000X-0.275000X0.200000X-0.275000X0.200000X0.275000X-0.200000X0.275000X0*%
%ADD26R,1.500000X2.300000*%
%ADD27O,1.500000X2.300000*%
G04 APERTURE END LIST*
D10*
%TO.C,R11*%
X179895000Y-90170000D03*
X178245000Y-90170000D03*
%TD*%
D11*
%TO.C,R6*%
X173990000Y-97345000D03*
X173990000Y-95695000D03*
%TD*%
D12*
%TO.C,C1*%
X198755000Y-88695000D03*
X198755000Y-91645000D03*
%TD*%
D13*
%TO.C,U3*%
X151129999Y-86994999D03*
X153669999Y-86994999D03*
X156209999Y-86994999D03*
X156209999Y-78104999D03*
X153669999Y-78104999D03*
X151129999Y-78104999D03*
%TD*%
D14*
%TO.C,C2*%
X198755000Y-96200000D03*
X198755000Y-94300000D03*
%TD*%
D13*
%TO.C,U5*%
X160019999Y-86994999D03*
X162559999Y-86994999D03*
X165099999Y-86994999D03*
X165099999Y-78104999D03*
X162559999Y-78104999D03*
X160019999Y-78104999D03*
%TD*%
D15*
%TO.C,R1*%
X153545000Y-94615000D03*
X152525000Y-94615000D03*
%TD*%
D16*
%TO.C,D2*%
X153972500Y-101600000D03*
X152097500Y-101600000D03*
%TD*%
D10*
%TO.C,R14*%
X171005000Y-90170000D03*
X169355000Y-90170000D03*
%TD*%
D11*
%TO.C,R7*%
X200025000Y-77025000D03*
X200025000Y-75375000D03*
%TD*%
D10*
%TO.C,R12*%
X183705000Y-96520000D03*
X182055000Y-96520000D03*
%TD*%
%TO.C,R10*%
X162203000Y-90170000D03*
X160553000Y-90170000D03*
%TD*%
D16*
%TO.C,D5*%
X179705000Y-96520000D03*
X177830000Y-96520000D03*
%TD*%
D17*
%TO.C,J1*%
X160654999Y-103444999D03*
D18*
X160654999Y-100904999D03*
X160654999Y-98364999D03*
%TD*%
D19*
%TO.C,U2*%
X122554999Y-102234999D03*
D20*
X125094999Y-102234999D03*
X127634999Y-102234999D03*
X130174999Y-102234999D03*
X132714999Y-102234999D03*
X135254999Y-102234999D03*
X137794999Y-102234999D03*
X140334999Y-102234999D03*
X140334999Y-79374999D03*
X137794999Y-79374999D03*
X135254999Y-79374999D03*
X132714999Y-79374999D03*
X130174999Y-79374999D03*
X127634999Y-79374999D03*
X125094999Y-79374999D03*
X122554999Y-79374999D03*
%TD*%
D21*
%TO.C,U4*%
X200024999Y-71119999D03*
X200024999Y-68579999D03*
X200024999Y-66039999D03*
X191134999Y-66039999D03*
X191134999Y-68579999D03*
X191134999Y-71119999D03*
%TD*%
D17*
%TO.C,J4*%
X190245999Y-60959999D03*
D18*
X192785999Y-60959999D03*
X195325999Y-60959999D03*
X197865999Y-60959999D03*
X200405999Y-60959999D03*
X202945999Y-60959999D03*
X205485999Y-60959999D03*
%TD*%
D22*
%TO.C,D1*%
X168910000Y-95250000D03*
X168910000Y-97125000D03*
%TD*%
D23*
%TO.C,J2*%
X180340000Y-102385000D03*
X177800000Y-102385000D03*
D24*
X180340000Y-104925000D03*
X177800000Y-104925000D03*
%TD*%
D25*
%TO.C,R4*%
X152210000Y-104140000D03*
X153860000Y-104140000D03*
%TD*%
D26*
%TO.C,U1*%
X188687999Y-105077499D03*
D27*
X191227999Y-105077499D03*
X193767999Y-105077499D03*
%TD*%
D10*
%TO.C,R13*%
X171005000Y-74930000D03*
X169355000Y-74930000D03*
%TD*%
D16*
%TO.C,D4*%
X153972500Y-99060000D03*
X152097500Y-99060000D03*
%TD*%
D10*
%TO.C,R3*%
X153225000Y-74930000D03*
X151575000Y-74930000D03*
%TD*%
D22*
%TO.C,D3*%
X171450000Y-95250000D03*
X171450000Y-97125000D03*
%TD*%
D23*
%TO.C,J3*%
X171450000Y-102385000D03*
X168910000Y-102385000D03*
D24*
X171450000Y-104925000D03*
X168910000Y-104925000D03*
%TD*%
D11*
%TO.C,R2*%
X166370000Y-97345000D03*
X166370000Y-95695000D03*
%TD*%
D25*
%TO.C,R9*%
X152210000Y-96520000D03*
X153860000Y-96520000D03*
%TD*%
D13*
%TO.C,U6*%
X177799999Y-86994999D03*
X180339999Y-86994999D03*
X182879999Y-86994999D03*
X182879999Y-78104999D03*
X180339999Y-78104999D03*
X177799999Y-78104999D03*
%TD*%
D10*
%TO.C,R8*%
X162115000Y-74930000D03*
X160465000Y-74930000D03*
%TD*%
D13*
%TO.C,U7*%
X168909999Y-86994999D03*
X171449999Y-86994999D03*
X173989999Y-86994999D03*
X173989999Y-78104999D03*
X171449999Y-78104999D03*
X168909999Y-78104999D03*
%TD*%
D10*
%TO.C,R5*%
X153225000Y-90170000D03*
X151575000Y-90170000D03*
%TD*%
M02*
