M48
; DRILL file {KiCad (7.0.0-0)} date Monday 22 May 2023 at 11:06:44
; FORMAT={-:-/ absolute / inch / decimal}
; #@! TF.CreationDate,2023-05-22T11:06:44+02:00
; #@! TF.GenerationSoftware,Kicad,Pcbnew,(7.0.0-0)
; #@! TF.FileFunction,Plated,1,2,PTH
FMAT,2
INCH
; #@! TA.AperFunction,Plated,PTH,ViaDrill
T1C0.0157
; #@! TA.AperFunction,Plated,PTH,ComponentDrill
T2C0.0394
; #@! TA.AperFunction,Plated,PTH,ComponentDrill
T3C0.0512
%
G90
G05
T1
X5.35Y-3.25
X5.875Y-3.0
X5.95Y-3.825
X5.95Y-4.125
X6.05Y-3.175
X6.15Y-2.95
X6.225Y-3.0
X6.25Y-3.55
X6.4Y-3.175
X6.4Y-3.325
X6.45Y-3.55
X6.5Y-2.95
X6.575Y-3.0
X6.75Y-3.175
X6.75Y-3.325
X6.85Y-2.95
X6.925Y-3.2
X6.95Y-3.55
X7.0Y-3.725
X7.1Y-3.325
X7.125Y-3.725
X7.125Y-3.875
X7.2Y-2.95
X7.49Y-2.525
X7.625Y-3.35
X7.775Y-2.7
X7.825Y-3.35
T2
X4.825Y-3.125
X4.825Y-4.025
X4.925Y-3.125
X4.925Y-4.025
X5.025Y-3.125
X5.025Y-4.025
X5.125Y-3.125
X5.125Y-4.025
X5.225Y-3.125
X5.225Y-4.025
X5.325Y-3.125
X5.325Y-4.025
X5.425Y-3.125
X5.425Y-4.025
X5.525Y-3.125
X5.525Y-4.025
X6.325Y-3.8726
X6.325Y-3.9726
X6.325Y-4.0726
X7.4287Y-4.1369
X7.49Y-2.4
X7.5287Y-4.1369
X7.59Y-2.4
X7.6287Y-4.1369
X7.69Y-2.4
X7.79Y-2.4
X7.89Y-2.4
X7.99Y-2.4
X8.09Y-2.4
T3
X6.65Y-4.1309
X6.75Y-4.1309
X7.0Y-4.1309
X7.1Y-4.1309
T0
M30
