%TF.GenerationSoftware,KiCad,Pcbnew,(7.0.0-0)*%
%TF.CreationDate,2023-05-22T11:06:43+02:00*%
%TF.ProjectId,garage-door-driver,67617261-6765-42d6-946f-6f722d647269,rev?*%
%TF.SameCoordinates,Original*%
%TF.FileFunction,Legend,Top*%
%TF.FilePolarity,Positive*%
%FSLAX46Y46*%
G04 Gerber Fmt 4.6, Leading zero omitted, Abs format (unit mm)*
G04 Created by KiCad (PCBNEW (7.0.0-0)) date 2023-05-22 11:06:43*
%MOMM*%
%LPD*%
G01*
G04 APERTURE LIST*
G04 Aperture macros list*
%AMRoundRect*
0 Rectangle with rounded corners*
0 $1 Rounding radius*
0 $2 $3 $4 $5 $6 $7 $8 $9 X,Y pos of 4 corners*
0 Add a 4 corners polygon primitive as box body*
4,1,4,$2,$3,$4,$5,$6,$7,$8,$9,$2,$3,0*
0 Add four circle primitives for the rounded corners*
1,1,$1+$1,$2,$3*
1,1,$1+$1,$4,$5*
1,1,$1+$1,$6,$7*
1,1,$1+$1,$8,$9*
0 Add four rect primitives between the rounded corners*
20,1,$1+$1,$2,$3,$4,$5,0*
20,1,$1+$1,$4,$5,$6,$7,0*
20,1,$1+$1,$6,$7,$8,$9,0*
20,1,$1+$1,$8,$9,$2,$3,0*%
G04 Aperture macros list end*
%ADD10C,0.150000*%
%ADD11C,0.125000*%
%ADD12C,0.120000*%
%ADD13C,0.100000*%
%ADD14RoundRect,0.200000X0.200000X0.275000X-0.200000X0.275000X-0.200000X-0.275000X0.200000X-0.275000X0*%
%ADD15RoundRect,0.200000X0.275000X-0.200000X0.275000X0.200000X-0.275000X0.200000X-0.275000X-0.200000X0*%
%ADD16RoundRect,0.250000X-0.650000X0.325000X-0.650000X-0.325000X0.650000X-0.325000X0.650000X0.325000X0*%
%ADD17R,1.600000X3.100000*%
%ADD18RoundRect,0.250000X0.475000X-0.250000X0.475000X0.250000X-0.475000X0.250000X-0.475000X-0.250000X0*%
%ADD19RoundRect,0.135000X0.135000X0.185000X-0.135000X0.185000X-0.135000X-0.185000X0.135000X-0.185000X0*%
%ADD20RoundRect,0.243750X0.243750X0.456250X-0.243750X0.456250X-0.243750X-0.456250X0.243750X-0.456250X0*%
%ADD21R,1.700000X1.700000*%
%ADD22O,1.700000X1.700000*%
%ADD23R,2.000000X2.000000*%
%ADD24O,1.600000X2.000000*%
%ADD25R,3.100000X1.600000*%
%ADD26RoundRect,0.243750X-0.456250X0.243750X-0.456250X-0.243750X0.456250X-0.243750X0.456250X0.243750X0*%
%ADD27C,1.300000*%
%ADD28C,1.950000*%
%ADD29RoundRect,0.200000X-0.200000X-0.275000X0.200000X-0.275000X0.200000X0.275000X-0.200000X0.275000X0*%
%ADD30R,1.500000X2.300000*%
%ADD31O,1.500000X2.300000*%
G04 APERTURE END LIST*
D10*
X185420000Y-74295000D02*
X197038000Y-74295000D01*
X197038000Y-74295000D02*
X197038000Y-98517500D01*
X197038000Y-98517500D02*
X185420000Y-98517500D01*
X185420000Y-98517500D02*
X185420000Y-74295000D01*
D11*
X163372857Y-103094000D02*
X163315715Y-103065428D01*
X163315715Y-103065428D02*
X163230000Y-103065428D01*
X163230000Y-103065428D02*
X163144286Y-103094000D01*
X163144286Y-103094000D02*
X163087143Y-103151142D01*
X163087143Y-103151142D02*
X163058572Y-103208285D01*
X163058572Y-103208285D02*
X163030000Y-103322571D01*
X163030000Y-103322571D02*
X163030000Y-103408285D01*
X163030000Y-103408285D02*
X163058572Y-103522571D01*
X163058572Y-103522571D02*
X163087143Y-103579714D01*
X163087143Y-103579714D02*
X163144286Y-103636857D01*
X163144286Y-103636857D02*
X163230000Y-103665428D01*
X163230000Y-103665428D02*
X163287143Y-103665428D01*
X163287143Y-103665428D02*
X163372857Y-103636857D01*
X163372857Y-103636857D02*
X163401429Y-103608285D01*
X163401429Y-103608285D02*
X163401429Y-103408285D01*
X163401429Y-103408285D02*
X163287143Y-103408285D01*
X163658572Y-103665428D02*
X163658572Y-103065428D01*
X163658572Y-103065428D02*
X164001429Y-103665428D01*
X164001429Y-103665428D02*
X164001429Y-103065428D01*
X164287143Y-103665428D02*
X164287143Y-103065428D01*
X164287143Y-103065428D02*
X164430000Y-103065428D01*
X164430000Y-103065428D02*
X164515714Y-103094000D01*
X164515714Y-103094000D02*
X164572857Y-103151142D01*
X164572857Y-103151142D02*
X164601428Y-103208285D01*
X164601428Y-103208285D02*
X164630000Y-103322571D01*
X164630000Y-103322571D02*
X164630000Y-103408285D01*
X164630000Y-103408285D02*
X164601428Y-103522571D01*
X164601428Y-103522571D02*
X164572857Y-103579714D01*
X164572857Y-103579714D02*
X164515714Y-103636857D01*
X164515714Y-103636857D02*
X164430000Y-103665428D01*
X164430000Y-103665428D02*
X164287143Y-103665428D01*
X177342857Y-100256000D02*
X177285715Y-100227428D01*
X177285715Y-100227428D02*
X177200000Y-100227428D01*
X177200000Y-100227428D02*
X177114286Y-100256000D01*
X177114286Y-100256000D02*
X177057143Y-100313142D01*
X177057143Y-100313142D02*
X177028572Y-100370285D01*
X177028572Y-100370285D02*
X177000000Y-100484571D01*
X177000000Y-100484571D02*
X177000000Y-100570285D01*
X177000000Y-100570285D02*
X177028572Y-100684571D01*
X177028572Y-100684571D02*
X177057143Y-100741714D01*
X177057143Y-100741714D02*
X177114286Y-100798857D01*
X177114286Y-100798857D02*
X177200000Y-100827428D01*
X177200000Y-100827428D02*
X177257143Y-100827428D01*
X177257143Y-100827428D02*
X177342857Y-100798857D01*
X177342857Y-100798857D02*
X177371429Y-100770285D01*
X177371429Y-100770285D02*
X177371429Y-100570285D01*
X177371429Y-100570285D02*
X177257143Y-100570285D01*
X177628572Y-100827428D02*
X177628572Y-100227428D01*
X177628572Y-100227428D02*
X177971429Y-100827428D01*
X177971429Y-100827428D02*
X177971429Y-100227428D01*
X178257143Y-100827428D02*
X178257143Y-100227428D01*
X178257143Y-100227428D02*
X178400000Y-100227428D01*
X178400000Y-100227428D02*
X178485714Y-100256000D01*
X178485714Y-100256000D02*
X178542857Y-100313142D01*
X178542857Y-100313142D02*
X178571428Y-100370285D01*
X178571428Y-100370285D02*
X178600000Y-100484571D01*
X178600000Y-100484571D02*
X178600000Y-100570285D01*
X178600000Y-100570285D02*
X178571428Y-100684571D01*
X178571428Y-100684571D02*
X178542857Y-100741714D01*
X178542857Y-100741714D02*
X178485714Y-100798857D01*
X178485714Y-100798857D02*
X178400000Y-100827428D01*
X178400000Y-100827428D02*
X178257143Y-100827428D01*
X155802142Y-101220428D02*
X156145000Y-101220428D01*
X155973571Y-101820428D02*
X155973571Y-101220428D01*
X156430714Y-101820428D02*
X156373571Y-101791857D01*
X156373571Y-101791857D02*
X156345000Y-101763285D01*
X156345000Y-101763285D02*
X156316428Y-101706142D01*
X156316428Y-101706142D02*
X156316428Y-101534714D01*
X156316428Y-101534714D02*
X156345000Y-101477571D01*
X156345000Y-101477571D02*
X156373571Y-101449000D01*
X156373571Y-101449000D02*
X156430714Y-101420428D01*
X156430714Y-101420428D02*
X156516428Y-101420428D01*
X156516428Y-101420428D02*
X156573571Y-101449000D01*
X156573571Y-101449000D02*
X156602143Y-101477571D01*
X156602143Y-101477571D02*
X156630714Y-101534714D01*
X156630714Y-101534714D02*
X156630714Y-101706142D01*
X156630714Y-101706142D02*
X156602143Y-101763285D01*
X156602143Y-101763285D02*
X156573571Y-101791857D01*
X156573571Y-101791857D02*
X156516428Y-101820428D01*
X156516428Y-101820428D02*
X156430714Y-101820428D01*
X156802142Y-101420428D02*
X157030714Y-101420428D01*
X156887857Y-101220428D02*
X156887857Y-101734714D01*
X156887857Y-101734714D02*
X156916428Y-101791857D01*
X156916428Y-101791857D02*
X156973571Y-101820428D01*
X156973571Y-101820428D02*
X157030714Y-101820428D01*
X157487857Y-101820428D02*
X157487857Y-101506142D01*
X157487857Y-101506142D02*
X157459285Y-101449000D01*
X157459285Y-101449000D02*
X157402142Y-101420428D01*
X157402142Y-101420428D02*
X157287857Y-101420428D01*
X157287857Y-101420428D02*
X157230714Y-101449000D01*
X157487857Y-101791857D02*
X157430714Y-101820428D01*
X157430714Y-101820428D02*
X157287857Y-101820428D01*
X157287857Y-101820428D02*
X157230714Y-101791857D01*
X157230714Y-101791857D02*
X157202142Y-101734714D01*
X157202142Y-101734714D02*
X157202142Y-101677571D01*
X157202142Y-101677571D02*
X157230714Y-101620428D01*
X157230714Y-101620428D02*
X157287857Y-101591857D01*
X157287857Y-101591857D02*
X157430714Y-101591857D01*
X157430714Y-101591857D02*
X157487857Y-101563285D01*
X157859285Y-101820428D02*
X157802142Y-101791857D01*
X157802142Y-101791857D02*
X157773571Y-101734714D01*
X157773571Y-101734714D02*
X157773571Y-101220428D01*
D10*
X175196428Y-98953571D02*
X175339285Y-99001190D01*
X175339285Y-99001190D02*
X175386904Y-99048809D01*
X175386904Y-99048809D02*
X175434523Y-99144047D01*
X175434523Y-99144047D02*
X175434523Y-99286904D01*
X175434523Y-99286904D02*
X175386904Y-99382142D01*
X175386904Y-99382142D02*
X175339285Y-99429761D01*
X175339285Y-99429761D02*
X175244047Y-99477380D01*
X175244047Y-99477380D02*
X174863095Y-99477380D01*
X174863095Y-99477380D02*
X174863095Y-98477380D01*
X174863095Y-98477380D02*
X175196428Y-98477380D01*
X175196428Y-98477380D02*
X175291666Y-98525000D01*
X175291666Y-98525000D02*
X175339285Y-98572619D01*
X175339285Y-98572619D02*
X175386904Y-98667857D01*
X175386904Y-98667857D02*
X175386904Y-98763095D01*
X175386904Y-98763095D02*
X175339285Y-98858333D01*
X175339285Y-98858333D02*
X175291666Y-98905952D01*
X175291666Y-98905952D02*
X175196428Y-98953571D01*
X175196428Y-98953571D02*
X174863095Y-98953571D01*
X176005952Y-99477380D02*
X175910714Y-99429761D01*
X175910714Y-99429761D02*
X175863095Y-99382142D01*
X175863095Y-99382142D02*
X175815476Y-99286904D01*
X175815476Y-99286904D02*
X175815476Y-99001190D01*
X175815476Y-99001190D02*
X175863095Y-98905952D01*
X175863095Y-98905952D02*
X175910714Y-98858333D01*
X175910714Y-98858333D02*
X176005952Y-98810714D01*
X176005952Y-98810714D02*
X176148809Y-98810714D01*
X176148809Y-98810714D02*
X176244047Y-98858333D01*
X176244047Y-98858333D02*
X176291666Y-98905952D01*
X176291666Y-98905952D02*
X176339285Y-99001190D01*
X176339285Y-99001190D02*
X176339285Y-99286904D01*
X176339285Y-99286904D02*
X176291666Y-99382142D01*
X176291666Y-99382142D02*
X176244047Y-99429761D01*
X176244047Y-99429761D02*
X176148809Y-99477380D01*
X176148809Y-99477380D02*
X176005952Y-99477380D01*
X176767857Y-99477380D02*
X176767857Y-98810714D01*
X176767857Y-99001190D02*
X176815476Y-98905952D01*
X176815476Y-98905952D02*
X176863095Y-98858333D01*
X176863095Y-98858333D02*
X176958333Y-98810714D01*
X176958333Y-98810714D02*
X177053571Y-98810714D01*
X177386905Y-98810714D02*
X177386905Y-99477380D01*
X177386905Y-98905952D02*
X177434524Y-98858333D01*
X177434524Y-98858333D02*
X177529762Y-98810714D01*
X177529762Y-98810714D02*
X177672619Y-98810714D01*
X177672619Y-98810714D02*
X177767857Y-98858333D01*
X177767857Y-98858333D02*
X177815476Y-98953571D01*
X177815476Y-98953571D02*
X177815476Y-99477380D01*
X178291667Y-99477380D02*
X178291667Y-98810714D01*
X178291667Y-98477380D02*
X178244048Y-98525000D01*
X178244048Y-98525000D02*
X178291667Y-98572619D01*
X178291667Y-98572619D02*
X178339286Y-98525000D01*
X178339286Y-98525000D02*
X178291667Y-98477380D01*
X178291667Y-98477380D02*
X178291667Y-98572619D01*
X179148809Y-99429761D02*
X179053571Y-99477380D01*
X179053571Y-99477380D02*
X178863095Y-99477380D01*
X178863095Y-99477380D02*
X178767857Y-99429761D01*
X178767857Y-99429761D02*
X178720238Y-99334523D01*
X178720238Y-99334523D02*
X178720238Y-98953571D01*
X178720238Y-98953571D02*
X178767857Y-98858333D01*
X178767857Y-98858333D02*
X178863095Y-98810714D01*
X178863095Y-98810714D02*
X179053571Y-98810714D01*
X179053571Y-98810714D02*
X179148809Y-98858333D01*
X179148809Y-98858333D02*
X179196428Y-98953571D01*
X179196428Y-98953571D02*
X179196428Y-99048809D01*
X179196428Y-99048809D02*
X178720238Y-99144047D01*
X179625000Y-99477380D02*
X179625000Y-98810714D01*
X179625000Y-99001190D02*
X179672619Y-98905952D01*
X179672619Y-98905952D02*
X179720238Y-98858333D01*
X179720238Y-98858333D02*
X179815476Y-98810714D01*
X179815476Y-98810714D02*
X179910714Y-98810714D01*
X180844048Y-98810714D02*
X180844048Y-99477380D01*
X180844048Y-98905952D02*
X180891667Y-98858333D01*
X180891667Y-98858333D02*
X180986905Y-98810714D01*
X180986905Y-98810714D02*
X181129762Y-98810714D01*
X181129762Y-98810714D02*
X181225000Y-98858333D01*
X181225000Y-98858333D02*
X181272619Y-98953571D01*
X181272619Y-98953571D02*
X181272619Y-99477380D01*
X181891667Y-99477380D02*
X181796429Y-99429761D01*
X181796429Y-99429761D02*
X181748810Y-99382142D01*
X181748810Y-99382142D02*
X181701191Y-99286904D01*
X181701191Y-99286904D02*
X181701191Y-99001190D01*
X181701191Y-99001190D02*
X181748810Y-98905952D01*
X181748810Y-98905952D02*
X181796429Y-98858333D01*
X181796429Y-98858333D02*
X181891667Y-98810714D01*
X181891667Y-98810714D02*
X182034524Y-98810714D01*
X182034524Y-98810714D02*
X182129762Y-98858333D01*
X182129762Y-98858333D02*
X182177381Y-98905952D01*
X182177381Y-98905952D02*
X182225000Y-99001190D01*
X182225000Y-99001190D02*
X182225000Y-99286904D01*
X182225000Y-99286904D02*
X182177381Y-99382142D01*
X182177381Y-99382142D02*
X182129762Y-99429761D01*
X182129762Y-99429761D02*
X182034524Y-99477380D01*
X182034524Y-99477380D02*
X181891667Y-99477380D01*
X182653572Y-99477380D02*
X182653572Y-98810714D01*
X182653572Y-98477380D02*
X182605953Y-98525000D01*
X182605953Y-98525000D02*
X182653572Y-98572619D01*
X182653572Y-98572619D02*
X182701191Y-98525000D01*
X182701191Y-98525000D02*
X182653572Y-98477380D01*
X182653572Y-98477380D02*
X182653572Y-98572619D01*
X183129762Y-99477380D02*
X183129762Y-98810714D01*
X183129762Y-99001190D02*
X183177381Y-98905952D01*
X183177381Y-98905952D02*
X183225000Y-98858333D01*
X183225000Y-98858333D02*
X183320238Y-98810714D01*
X183320238Y-98810714D02*
X183415476Y-98810714D01*
D11*
X163515715Y-98585428D02*
X163515715Y-97985428D01*
X163801429Y-98585428D02*
X163801429Y-97985428D01*
X163801429Y-97985428D02*
X164144286Y-98585428D01*
X164144286Y-98585428D02*
X164144286Y-97985428D01*
D10*
X157718095Y-96242380D02*
X157718095Y-95242380D01*
X157718095Y-95242380D02*
X157956190Y-95242380D01*
X157956190Y-95242380D02*
X158099047Y-95290000D01*
X158099047Y-95290000D02*
X158194285Y-95385238D01*
X158194285Y-95385238D02*
X158241904Y-95480476D01*
X158241904Y-95480476D02*
X158289523Y-95670952D01*
X158289523Y-95670952D02*
X158289523Y-95813809D01*
X158289523Y-95813809D02*
X158241904Y-96004285D01*
X158241904Y-96004285D02*
X158194285Y-96099523D01*
X158194285Y-96099523D02*
X158099047Y-96194761D01*
X158099047Y-96194761D02*
X157956190Y-96242380D01*
X157956190Y-96242380D02*
X157718095Y-96242380D01*
X158670476Y-96194761D02*
X158813333Y-96242380D01*
X158813333Y-96242380D02*
X159051428Y-96242380D01*
X159051428Y-96242380D02*
X159146666Y-96194761D01*
X159146666Y-96194761D02*
X159194285Y-96147142D01*
X159194285Y-96147142D02*
X159241904Y-96051904D01*
X159241904Y-96051904D02*
X159241904Y-95956666D01*
X159241904Y-95956666D02*
X159194285Y-95861428D01*
X159194285Y-95861428D02*
X159146666Y-95813809D01*
X159146666Y-95813809D02*
X159051428Y-95766190D01*
X159051428Y-95766190D02*
X158860952Y-95718571D01*
X158860952Y-95718571D02*
X158765714Y-95670952D01*
X158765714Y-95670952D02*
X158718095Y-95623333D01*
X158718095Y-95623333D02*
X158670476Y-95528095D01*
X158670476Y-95528095D02*
X158670476Y-95432857D01*
X158670476Y-95432857D02*
X158718095Y-95337619D01*
X158718095Y-95337619D02*
X158765714Y-95290000D01*
X158765714Y-95290000D02*
X158860952Y-95242380D01*
X158860952Y-95242380D02*
X159099047Y-95242380D01*
X159099047Y-95242380D02*
X159241904Y-95290000D01*
X160194285Y-96242380D02*
X159622857Y-96242380D01*
X159908571Y-96242380D02*
X159908571Y-95242380D01*
X159908571Y-95242380D02*
X159813333Y-95385238D01*
X159813333Y-95385238D02*
X159718095Y-95480476D01*
X159718095Y-95480476D02*
X159622857Y-95528095D01*
X160765714Y-95670952D02*
X160670476Y-95623333D01*
X160670476Y-95623333D02*
X160622857Y-95575714D01*
X160622857Y-95575714D02*
X160575238Y-95480476D01*
X160575238Y-95480476D02*
X160575238Y-95432857D01*
X160575238Y-95432857D02*
X160622857Y-95337619D01*
X160622857Y-95337619D02*
X160670476Y-95290000D01*
X160670476Y-95290000D02*
X160765714Y-95242380D01*
X160765714Y-95242380D02*
X160956190Y-95242380D01*
X160956190Y-95242380D02*
X161051428Y-95290000D01*
X161051428Y-95290000D02*
X161099047Y-95337619D01*
X161099047Y-95337619D02*
X161146666Y-95432857D01*
X161146666Y-95432857D02*
X161146666Y-95480476D01*
X161146666Y-95480476D02*
X161099047Y-95575714D01*
X161099047Y-95575714D02*
X161051428Y-95623333D01*
X161051428Y-95623333D02*
X160956190Y-95670952D01*
X160956190Y-95670952D02*
X160765714Y-95670952D01*
X160765714Y-95670952D02*
X160670476Y-95718571D01*
X160670476Y-95718571D02*
X160622857Y-95766190D01*
X160622857Y-95766190D02*
X160575238Y-95861428D01*
X160575238Y-95861428D02*
X160575238Y-96051904D01*
X160575238Y-96051904D02*
X160622857Y-96147142D01*
X160622857Y-96147142D02*
X160670476Y-96194761D01*
X160670476Y-96194761D02*
X160765714Y-96242380D01*
X160765714Y-96242380D02*
X160956190Y-96242380D01*
X160956190Y-96242380D02*
X161051428Y-96194761D01*
X161051428Y-96194761D02*
X161099047Y-96147142D01*
X161099047Y-96147142D02*
X161146666Y-96051904D01*
X161146666Y-96051904D02*
X161146666Y-95861428D01*
X161146666Y-95861428D02*
X161099047Y-95766190D01*
X161099047Y-95766190D02*
X161051428Y-95718571D01*
X161051428Y-95718571D02*
X160956190Y-95670952D01*
X161908571Y-95718571D02*
X162051428Y-95766190D01*
X162051428Y-95766190D02*
X162099047Y-95813809D01*
X162099047Y-95813809D02*
X162146666Y-95909047D01*
X162146666Y-95909047D02*
X162146666Y-96051904D01*
X162146666Y-96051904D02*
X162099047Y-96147142D01*
X162099047Y-96147142D02*
X162051428Y-96194761D01*
X162051428Y-96194761D02*
X161956190Y-96242380D01*
X161956190Y-96242380D02*
X161575238Y-96242380D01*
X161575238Y-96242380D02*
X161575238Y-95242380D01*
X161575238Y-95242380D02*
X161908571Y-95242380D01*
X161908571Y-95242380D02*
X162003809Y-95290000D01*
X162003809Y-95290000D02*
X162051428Y-95337619D01*
X162051428Y-95337619D02*
X162099047Y-95432857D01*
X162099047Y-95432857D02*
X162099047Y-95528095D01*
X162099047Y-95528095D02*
X162051428Y-95623333D01*
X162051428Y-95623333D02*
X162003809Y-95670952D01*
X162003809Y-95670952D02*
X161908571Y-95718571D01*
X161908571Y-95718571D02*
X161575238Y-95718571D01*
X162527619Y-95337619D02*
X162575238Y-95290000D01*
X162575238Y-95290000D02*
X162670476Y-95242380D01*
X162670476Y-95242380D02*
X162908571Y-95242380D01*
X162908571Y-95242380D02*
X163003809Y-95290000D01*
X163003809Y-95290000D02*
X163051428Y-95337619D01*
X163051428Y-95337619D02*
X163099047Y-95432857D01*
X163099047Y-95432857D02*
X163099047Y-95528095D01*
X163099047Y-95528095D02*
X163051428Y-95670952D01*
X163051428Y-95670952D02*
X162480000Y-96242380D01*
X162480000Y-96242380D02*
X163099047Y-96242380D01*
X163718095Y-95242380D02*
X163813333Y-95242380D01*
X163813333Y-95242380D02*
X163908571Y-95290000D01*
X163908571Y-95290000D02*
X163956190Y-95337619D01*
X163956190Y-95337619D02*
X164003809Y-95432857D01*
X164003809Y-95432857D02*
X164051428Y-95623333D01*
X164051428Y-95623333D02*
X164051428Y-95861428D01*
X164051428Y-95861428D02*
X164003809Y-96051904D01*
X164003809Y-96051904D02*
X163956190Y-96147142D01*
X163956190Y-96147142D02*
X163908571Y-96194761D01*
X163908571Y-96194761D02*
X163813333Y-96242380D01*
X163813333Y-96242380D02*
X163718095Y-96242380D01*
X163718095Y-96242380D02*
X163622857Y-96194761D01*
X163622857Y-96194761D02*
X163575238Y-96147142D01*
X163575238Y-96147142D02*
X163527619Y-96051904D01*
X163527619Y-96051904D02*
X163480000Y-95861428D01*
X163480000Y-95861428D02*
X163480000Y-95623333D01*
X163480000Y-95623333D02*
X163527619Y-95432857D01*
X163527619Y-95432857D02*
X163575238Y-95337619D01*
X163575238Y-95337619D02*
X163622857Y-95290000D01*
X163622857Y-95290000D02*
X163718095Y-95242380D01*
D11*
X179654285Y-100284571D02*
X179682857Y-100256000D01*
X179682857Y-100256000D02*
X179740000Y-100227428D01*
X179740000Y-100227428D02*
X179882857Y-100227428D01*
X179882857Y-100227428D02*
X179940000Y-100256000D01*
X179940000Y-100256000D02*
X179968571Y-100284571D01*
X179968571Y-100284571D02*
X179997142Y-100341714D01*
X179997142Y-100341714D02*
X179997142Y-100398857D01*
X179997142Y-100398857D02*
X179968571Y-100484571D01*
X179968571Y-100484571D02*
X179625714Y-100827428D01*
X179625714Y-100827428D02*
X179997142Y-100827428D01*
X180511429Y-100427428D02*
X180511429Y-100827428D01*
X180368571Y-100198857D02*
X180225714Y-100627428D01*
X180225714Y-100627428D02*
X180597143Y-100627428D01*
X180768572Y-100427428D02*
X180911429Y-100827428D01*
X180911429Y-100827428D02*
X181054286Y-100427428D01*
X155502143Y-99280428D02*
X155502143Y-98680428D01*
X155502143Y-98680428D02*
X155730714Y-98680428D01*
X155730714Y-98680428D02*
X155787857Y-98709000D01*
X155787857Y-98709000D02*
X155816428Y-98737571D01*
X155816428Y-98737571D02*
X155845000Y-98794714D01*
X155845000Y-98794714D02*
X155845000Y-98880428D01*
X155845000Y-98880428D02*
X155816428Y-98937571D01*
X155816428Y-98937571D02*
X155787857Y-98966142D01*
X155787857Y-98966142D02*
X155730714Y-98994714D01*
X155730714Y-98994714D02*
X155502143Y-98994714D01*
X156359286Y-99280428D02*
X156359286Y-98966142D01*
X156359286Y-98966142D02*
X156330714Y-98909000D01*
X156330714Y-98909000D02*
X156273571Y-98880428D01*
X156273571Y-98880428D02*
X156159286Y-98880428D01*
X156159286Y-98880428D02*
X156102143Y-98909000D01*
X156359286Y-99251857D02*
X156302143Y-99280428D01*
X156302143Y-99280428D02*
X156159286Y-99280428D01*
X156159286Y-99280428D02*
X156102143Y-99251857D01*
X156102143Y-99251857D02*
X156073571Y-99194714D01*
X156073571Y-99194714D02*
X156073571Y-99137571D01*
X156073571Y-99137571D02*
X156102143Y-99080428D01*
X156102143Y-99080428D02*
X156159286Y-99051857D01*
X156159286Y-99051857D02*
X156302143Y-99051857D01*
X156302143Y-99051857D02*
X156359286Y-99023285D01*
X156645000Y-99280428D02*
X156645000Y-98880428D01*
X156645000Y-98994714D02*
X156673571Y-98937571D01*
X156673571Y-98937571D02*
X156702143Y-98909000D01*
X156702143Y-98909000D02*
X156759285Y-98880428D01*
X156759285Y-98880428D02*
X156816428Y-98880428D01*
X156930714Y-98880428D02*
X157159286Y-98880428D01*
X157016429Y-98680428D02*
X157016429Y-99194714D01*
X157016429Y-99194714D02*
X157045000Y-99251857D01*
X157045000Y-99251857D02*
X157102143Y-99280428D01*
X157102143Y-99280428D02*
X157159286Y-99280428D01*
X157359286Y-99280428D02*
X157359286Y-98880428D01*
X157359286Y-98680428D02*
X157330714Y-98709000D01*
X157330714Y-98709000D02*
X157359286Y-98737571D01*
X157359286Y-98737571D02*
X157387857Y-98709000D01*
X157387857Y-98709000D02*
X157359286Y-98680428D01*
X157359286Y-98680428D02*
X157359286Y-98737571D01*
X157873571Y-99251857D02*
X157816428Y-99280428D01*
X157816428Y-99280428D02*
X157702143Y-99280428D01*
X157702143Y-99280428D02*
X157645000Y-99251857D01*
X157645000Y-99251857D02*
X157616428Y-99194714D01*
X157616428Y-99194714D02*
X157616428Y-98966142D01*
X157616428Y-98966142D02*
X157645000Y-98909000D01*
X157645000Y-98909000D02*
X157702143Y-98880428D01*
X157702143Y-98880428D02*
X157816428Y-98880428D01*
X157816428Y-98880428D02*
X157873571Y-98909000D01*
X157873571Y-98909000D02*
X157902143Y-98966142D01*
X157902143Y-98966142D02*
X157902143Y-99023285D01*
X157902143Y-99023285D02*
X157616428Y-99080428D01*
X158245000Y-99280428D02*
X158187857Y-99251857D01*
X158187857Y-99251857D02*
X158159286Y-99194714D01*
X158159286Y-99194714D02*
X158159286Y-98680428D01*
X163087142Y-100525428D02*
X163458570Y-100525428D01*
X163458570Y-100525428D02*
X163258570Y-100754000D01*
X163258570Y-100754000D02*
X163344285Y-100754000D01*
X163344285Y-100754000D02*
X163401428Y-100782571D01*
X163401428Y-100782571D02*
X163429999Y-100811142D01*
X163429999Y-100811142D02*
X163458570Y-100868285D01*
X163458570Y-100868285D02*
X163458570Y-101011142D01*
X163458570Y-101011142D02*
X163429999Y-101068285D01*
X163429999Y-101068285D02*
X163401428Y-101096857D01*
X163401428Y-101096857D02*
X163344285Y-101125428D01*
X163344285Y-101125428D02*
X163172856Y-101125428D01*
X163172856Y-101125428D02*
X163115713Y-101096857D01*
X163115713Y-101096857D02*
X163087142Y-101068285D01*
X163629999Y-100525428D02*
X163829999Y-101125428D01*
X163829999Y-101125428D02*
X164029999Y-100525428D01*
X164172857Y-100525428D02*
X164544285Y-100525428D01*
X164544285Y-100525428D02*
X164344285Y-100754000D01*
X164344285Y-100754000D02*
X164430000Y-100754000D01*
X164430000Y-100754000D02*
X164487143Y-100782571D01*
X164487143Y-100782571D02*
X164515714Y-100811142D01*
X164515714Y-100811142D02*
X164544285Y-100868285D01*
X164544285Y-100868285D02*
X164544285Y-101011142D01*
X164544285Y-101011142D02*
X164515714Y-101068285D01*
X164515714Y-101068285D02*
X164487143Y-101096857D01*
X164487143Y-101096857D02*
X164430000Y-101125428D01*
X164430000Y-101125428D02*
X164258571Y-101125428D01*
X164258571Y-101125428D02*
X164201428Y-101096857D01*
X164201428Y-101096857D02*
X164172857Y-101068285D01*
D10*
X167878095Y-99477380D02*
X167878095Y-98477380D01*
X167878095Y-98477380D02*
X168211428Y-99191666D01*
X168211428Y-99191666D02*
X168544761Y-98477380D01*
X168544761Y-98477380D02*
X168544761Y-99477380D01*
X169163809Y-99477380D02*
X169068571Y-99429761D01*
X169068571Y-99429761D02*
X169020952Y-99382142D01*
X169020952Y-99382142D02*
X168973333Y-99286904D01*
X168973333Y-99286904D02*
X168973333Y-99001190D01*
X168973333Y-99001190D02*
X169020952Y-98905952D01*
X169020952Y-98905952D02*
X169068571Y-98858333D01*
X169068571Y-98858333D02*
X169163809Y-98810714D01*
X169163809Y-98810714D02*
X169306666Y-98810714D01*
X169306666Y-98810714D02*
X169401904Y-98858333D01*
X169401904Y-98858333D02*
X169449523Y-98905952D01*
X169449523Y-98905952D02*
X169497142Y-99001190D01*
X169497142Y-99001190D02*
X169497142Y-99286904D01*
X169497142Y-99286904D02*
X169449523Y-99382142D01*
X169449523Y-99382142D02*
X169401904Y-99429761D01*
X169401904Y-99429761D02*
X169306666Y-99477380D01*
X169306666Y-99477380D02*
X169163809Y-99477380D01*
X169782857Y-98810714D02*
X170163809Y-98810714D01*
X169925714Y-98477380D02*
X169925714Y-99334523D01*
X169925714Y-99334523D02*
X169973333Y-99429761D01*
X169973333Y-99429761D02*
X170068571Y-99477380D01*
X170068571Y-99477380D02*
X170163809Y-99477380D01*
X170878095Y-99429761D02*
X170782857Y-99477380D01*
X170782857Y-99477380D02*
X170592381Y-99477380D01*
X170592381Y-99477380D02*
X170497143Y-99429761D01*
X170497143Y-99429761D02*
X170449524Y-99334523D01*
X170449524Y-99334523D02*
X170449524Y-98953571D01*
X170449524Y-98953571D02*
X170497143Y-98858333D01*
X170497143Y-98858333D02*
X170592381Y-98810714D01*
X170592381Y-98810714D02*
X170782857Y-98810714D01*
X170782857Y-98810714D02*
X170878095Y-98858333D01*
X170878095Y-98858333D02*
X170925714Y-98953571D01*
X170925714Y-98953571D02*
X170925714Y-99048809D01*
X170925714Y-99048809D02*
X170449524Y-99144047D01*
X171782857Y-98810714D02*
X171782857Y-99477380D01*
X171354286Y-98810714D02*
X171354286Y-99334523D01*
X171354286Y-99334523D02*
X171401905Y-99429761D01*
X171401905Y-99429761D02*
X171497143Y-99477380D01*
X171497143Y-99477380D02*
X171640000Y-99477380D01*
X171640000Y-99477380D02*
X171735238Y-99429761D01*
X171735238Y-99429761D02*
X171782857Y-99382142D01*
X172259048Y-99477380D02*
X172259048Y-98810714D01*
X172259048Y-99001190D02*
X172306667Y-98905952D01*
X172306667Y-98905952D02*
X172354286Y-98858333D01*
X172354286Y-98858333D02*
X172449524Y-98810714D01*
X172449524Y-98810714D02*
X172544762Y-98810714D01*
%TO.C,R11*%
X178427142Y-92442380D02*
X178093809Y-91966190D01*
X177855714Y-92442380D02*
X177855714Y-91442380D01*
X177855714Y-91442380D02*
X178236666Y-91442380D01*
X178236666Y-91442380D02*
X178331904Y-91490000D01*
X178331904Y-91490000D02*
X178379523Y-91537619D01*
X178379523Y-91537619D02*
X178427142Y-91632857D01*
X178427142Y-91632857D02*
X178427142Y-91775714D01*
X178427142Y-91775714D02*
X178379523Y-91870952D01*
X178379523Y-91870952D02*
X178331904Y-91918571D01*
X178331904Y-91918571D02*
X178236666Y-91966190D01*
X178236666Y-91966190D02*
X177855714Y-91966190D01*
X179379523Y-92442380D02*
X178808095Y-92442380D01*
X179093809Y-92442380D02*
X179093809Y-91442380D01*
X179093809Y-91442380D02*
X178998571Y-91585238D01*
X178998571Y-91585238D02*
X178903333Y-91680476D01*
X178903333Y-91680476D02*
X178808095Y-91728095D01*
X180331904Y-92442380D02*
X179760476Y-92442380D01*
X180046190Y-92442380D02*
X180046190Y-91442380D01*
X180046190Y-91442380D02*
X179950952Y-91585238D01*
X179950952Y-91585238D02*
X179855714Y-91680476D01*
X179855714Y-91680476D02*
X179760476Y-91728095D01*
%TO.C,R6*%
X173823333Y-94347380D02*
X173490000Y-93871190D01*
X173251905Y-94347380D02*
X173251905Y-93347380D01*
X173251905Y-93347380D02*
X173632857Y-93347380D01*
X173632857Y-93347380D02*
X173728095Y-93395000D01*
X173728095Y-93395000D02*
X173775714Y-93442619D01*
X173775714Y-93442619D02*
X173823333Y-93537857D01*
X173823333Y-93537857D02*
X173823333Y-93680714D01*
X173823333Y-93680714D02*
X173775714Y-93775952D01*
X173775714Y-93775952D02*
X173728095Y-93823571D01*
X173728095Y-93823571D02*
X173632857Y-93871190D01*
X173632857Y-93871190D02*
X173251905Y-93871190D01*
X174680476Y-93347380D02*
X174490000Y-93347380D01*
X174490000Y-93347380D02*
X174394762Y-93395000D01*
X174394762Y-93395000D02*
X174347143Y-93442619D01*
X174347143Y-93442619D02*
X174251905Y-93585476D01*
X174251905Y-93585476D02*
X174204286Y-93775952D01*
X174204286Y-93775952D02*
X174204286Y-94156904D01*
X174204286Y-94156904D02*
X174251905Y-94252142D01*
X174251905Y-94252142D02*
X174299524Y-94299761D01*
X174299524Y-94299761D02*
X174394762Y-94347380D01*
X174394762Y-94347380D02*
X174585238Y-94347380D01*
X174585238Y-94347380D02*
X174680476Y-94299761D01*
X174680476Y-94299761D02*
X174728095Y-94252142D01*
X174728095Y-94252142D02*
X174775714Y-94156904D01*
X174775714Y-94156904D02*
X174775714Y-93918809D01*
X174775714Y-93918809D02*
X174728095Y-93823571D01*
X174728095Y-93823571D02*
X174680476Y-93775952D01*
X174680476Y-93775952D02*
X174585238Y-93728333D01*
X174585238Y-93728333D02*
X174394762Y-93728333D01*
X174394762Y-93728333D02*
X174299524Y-93775952D01*
X174299524Y-93775952D02*
X174251905Y-93823571D01*
X174251905Y-93823571D02*
X174204286Y-93918809D01*
%TO.C,C1*%
X198588333Y-87267142D02*
X198540714Y-87314761D01*
X198540714Y-87314761D02*
X198397857Y-87362380D01*
X198397857Y-87362380D02*
X198302619Y-87362380D01*
X198302619Y-87362380D02*
X198159762Y-87314761D01*
X198159762Y-87314761D02*
X198064524Y-87219523D01*
X198064524Y-87219523D02*
X198016905Y-87124285D01*
X198016905Y-87124285D02*
X197969286Y-86933809D01*
X197969286Y-86933809D02*
X197969286Y-86790952D01*
X197969286Y-86790952D02*
X198016905Y-86600476D01*
X198016905Y-86600476D02*
X198064524Y-86505238D01*
X198064524Y-86505238D02*
X198159762Y-86410000D01*
X198159762Y-86410000D02*
X198302619Y-86362380D01*
X198302619Y-86362380D02*
X198397857Y-86362380D01*
X198397857Y-86362380D02*
X198540714Y-86410000D01*
X198540714Y-86410000D02*
X198588333Y-86457619D01*
X199540714Y-87362380D02*
X198969286Y-87362380D01*
X199255000Y-87362380D02*
X199255000Y-86362380D01*
X199255000Y-86362380D02*
X199159762Y-86505238D01*
X199159762Y-86505238D02*
X199064524Y-86600476D01*
X199064524Y-86600476D02*
X198969286Y-86648095D01*
%TO.C,U3*%
X155448095Y-89152380D02*
X155448095Y-89961904D01*
X155448095Y-89961904D02*
X155495714Y-90057142D01*
X155495714Y-90057142D02*
X155543333Y-90104761D01*
X155543333Y-90104761D02*
X155638571Y-90152380D01*
X155638571Y-90152380D02*
X155829047Y-90152380D01*
X155829047Y-90152380D02*
X155924285Y-90104761D01*
X155924285Y-90104761D02*
X155971904Y-90057142D01*
X155971904Y-90057142D02*
X156019523Y-89961904D01*
X156019523Y-89961904D02*
X156019523Y-89152380D01*
X156400476Y-89152380D02*
X157019523Y-89152380D01*
X157019523Y-89152380D02*
X156686190Y-89533333D01*
X156686190Y-89533333D02*
X156829047Y-89533333D01*
X156829047Y-89533333D02*
X156924285Y-89580952D01*
X156924285Y-89580952D02*
X156971904Y-89628571D01*
X156971904Y-89628571D02*
X157019523Y-89723809D01*
X157019523Y-89723809D02*
X157019523Y-89961904D01*
X157019523Y-89961904D02*
X156971904Y-90057142D01*
X156971904Y-90057142D02*
X156924285Y-90104761D01*
X156924285Y-90104761D02*
X156829047Y-90152380D01*
X156829047Y-90152380D02*
X156543333Y-90152380D01*
X156543333Y-90152380D02*
X156448095Y-90104761D01*
X156448095Y-90104761D02*
X156400476Y-90057142D01*
%TO.C,C2*%
X198588333Y-98062142D02*
X198540714Y-98109761D01*
X198540714Y-98109761D02*
X198397857Y-98157380D01*
X198397857Y-98157380D02*
X198302619Y-98157380D01*
X198302619Y-98157380D02*
X198159762Y-98109761D01*
X198159762Y-98109761D02*
X198064524Y-98014523D01*
X198064524Y-98014523D02*
X198016905Y-97919285D01*
X198016905Y-97919285D02*
X197969286Y-97728809D01*
X197969286Y-97728809D02*
X197969286Y-97585952D01*
X197969286Y-97585952D02*
X198016905Y-97395476D01*
X198016905Y-97395476D02*
X198064524Y-97300238D01*
X198064524Y-97300238D02*
X198159762Y-97205000D01*
X198159762Y-97205000D02*
X198302619Y-97157380D01*
X198302619Y-97157380D02*
X198397857Y-97157380D01*
X198397857Y-97157380D02*
X198540714Y-97205000D01*
X198540714Y-97205000D02*
X198588333Y-97252619D01*
X198969286Y-97252619D02*
X199016905Y-97205000D01*
X199016905Y-97205000D02*
X199112143Y-97157380D01*
X199112143Y-97157380D02*
X199350238Y-97157380D01*
X199350238Y-97157380D02*
X199445476Y-97205000D01*
X199445476Y-97205000D02*
X199493095Y-97252619D01*
X199493095Y-97252619D02*
X199540714Y-97347857D01*
X199540714Y-97347857D02*
X199540714Y-97443095D01*
X199540714Y-97443095D02*
X199493095Y-97585952D01*
X199493095Y-97585952D02*
X198921667Y-98157380D01*
X198921667Y-98157380D02*
X199540714Y-98157380D01*
%TO.C,U5*%
X164426095Y-89152380D02*
X164426095Y-89961904D01*
X164426095Y-89961904D02*
X164473714Y-90057142D01*
X164473714Y-90057142D02*
X164521333Y-90104761D01*
X164521333Y-90104761D02*
X164616571Y-90152380D01*
X164616571Y-90152380D02*
X164807047Y-90152380D01*
X164807047Y-90152380D02*
X164902285Y-90104761D01*
X164902285Y-90104761D02*
X164949904Y-90057142D01*
X164949904Y-90057142D02*
X164997523Y-89961904D01*
X164997523Y-89961904D02*
X164997523Y-89152380D01*
X165949904Y-89152380D02*
X165473714Y-89152380D01*
X165473714Y-89152380D02*
X165426095Y-89628571D01*
X165426095Y-89628571D02*
X165473714Y-89580952D01*
X165473714Y-89580952D02*
X165568952Y-89533333D01*
X165568952Y-89533333D02*
X165807047Y-89533333D01*
X165807047Y-89533333D02*
X165902285Y-89580952D01*
X165902285Y-89580952D02*
X165949904Y-89628571D01*
X165949904Y-89628571D02*
X165997523Y-89723809D01*
X165997523Y-89723809D02*
X165997523Y-89961904D01*
X165997523Y-89961904D02*
X165949904Y-90057142D01*
X165949904Y-90057142D02*
X165902285Y-90104761D01*
X165902285Y-90104761D02*
X165807047Y-90152380D01*
X165807047Y-90152380D02*
X165568952Y-90152380D01*
X165568952Y-90152380D02*
X165473714Y-90104761D01*
X165473714Y-90104761D02*
X165426095Y-90057142D01*
%TO.C,R1*%
X150328333Y-94982380D02*
X149995000Y-94506190D01*
X149756905Y-94982380D02*
X149756905Y-93982380D01*
X149756905Y-93982380D02*
X150137857Y-93982380D01*
X150137857Y-93982380D02*
X150233095Y-94030000D01*
X150233095Y-94030000D02*
X150280714Y-94077619D01*
X150280714Y-94077619D02*
X150328333Y-94172857D01*
X150328333Y-94172857D02*
X150328333Y-94315714D01*
X150328333Y-94315714D02*
X150280714Y-94410952D01*
X150280714Y-94410952D02*
X150233095Y-94458571D01*
X150233095Y-94458571D02*
X150137857Y-94506190D01*
X150137857Y-94506190D02*
X149756905Y-94506190D01*
X151280714Y-94982380D02*
X150709286Y-94982380D01*
X150995000Y-94982380D02*
X150995000Y-93982380D01*
X150995000Y-93982380D02*
X150899762Y-94125238D01*
X150899762Y-94125238D02*
X150804524Y-94220476D01*
X150804524Y-94220476D02*
X150709286Y-94268095D01*
%TO.C,D2*%
X149756905Y-101967380D02*
X149756905Y-100967380D01*
X149756905Y-100967380D02*
X149995000Y-100967380D01*
X149995000Y-100967380D02*
X150137857Y-101015000D01*
X150137857Y-101015000D02*
X150233095Y-101110238D01*
X150233095Y-101110238D02*
X150280714Y-101205476D01*
X150280714Y-101205476D02*
X150328333Y-101395952D01*
X150328333Y-101395952D02*
X150328333Y-101538809D01*
X150328333Y-101538809D02*
X150280714Y-101729285D01*
X150280714Y-101729285D02*
X150233095Y-101824523D01*
X150233095Y-101824523D02*
X150137857Y-101919761D01*
X150137857Y-101919761D02*
X149995000Y-101967380D01*
X149995000Y-101967380D02*
X149756905Y-101967380D01*
X150709286Y-101062619D02*
X150756905Y-101015000D01*
X150756905Y-101015000D02*
X150852143Y-100967380D01*
X150852143Y-100967380D02*
X151090238Y-100967380D01*
X151090238Y-100967380D02*
X151185476Y-101015000D01*
X151185476Y-101015000D02*
X151233095Y-101062619D01*
X151233095Y-101062619D02*
X151280714Y-101157857D01*
X151280714Y-101157857D02*
X151280714Y-101253095D01*
X151280714Y-101253095D02*
X151233095Y-101395952D01*
X151233095Y-101395952D02*
X150661667Y-101967380D01*
X150661667Y-101967380D02*
X151280714Y-101967380D01*
%TO.C,R14*%
X169537142Y-92442380D02*
X169203809Y-91966190D01*
X168965714Y-92442380D02*
X168965714Y-91442380D01*
X168965714Y-91442380D02*
X169346666Y-91442380D01*
X169346666Y-91442380D02*
X169441904Y-91490000D01*
X169441904Y-91490000D02*
X169489523Y-91537619D01*
X169489523Y-91537619D02*
X169537142Y-91632857D01*
X169537142Y-91632857D02*
X169537142Y-91775714D01*
X169537142Y-91775714D02*
X169489523Y-91870952D01*
X169489523Y-91870952D02*
X169441904Y-91918571D01*
X169441904Y-91918571D02*
X169346666Y-91966190D01*
X169346666Y-91966190D02*
X168965714Y-91966190D01*
X170489523Y-92442380D02*
X169918095Y-92442380D01*
X170203809Y-92442380D02*
X170203809Y-91442380D01*
X170203809Y-91442380D02*
X170108571Y-91585238D01*
X170108571Y-91585238D02*
X170013333Y-91680476D01*
X170013333Y-91680476D02*
X169918095Y-91728095D01*
X171346666Y-91775714D02*
X171346666Y-92442380D01*
X171108571Y-91394761D02*
X170870476Y-92109047D01*
X170870476Y-92109047D02*
X171489523Y-92109047D01*
%TO.C,R7*%
X199858333Y-74027380D02*
X199525000Y-73551190D01*
X199286905Y-74027380D02*
X199286905Y-73027380D01*
X199286905Y-73027380D02*
X199667857Y-73027380D01*
X199667857Y-73027380D02*
X199763095Y-73075000D01*
X199763095Y-73075000D02*
X199810714Y-73122619D01*
X199810714Y-73122619D02*
X199858333Y-73217857D01*
X199858333Y-73217857D02*
X199858333Y-73360714D01*
X199858333Y-73360714D02*
X199810714Y-73455952D01*
X199810714Y-73455952D02*
X199763095Y-73503571D01*
X199763095Y-73503571D02*
X199667857Y-73551190D01*
X199667857Y-73551190D02*
X199286905Y-73551190D01*
X200191667Y-73027380D02*
X200858333Y-73027380D01*
X200858333Y-73027380D02*
X200429762Y-74027380D01*
%TO.C,R12*%
X182237142Y-94982380D02*
X181903809Y-94506190D01*
X181665714Y-94982380D02*
X181665714Y-93982380D01*
X181665714Y-93982380D02*
X182046666Y-93982380D01*
X182046666Y-93982380D02*
X182141904Y-94030000D01*
X182141904Y-94030000D02*
X182189523Y-94077619D01*
X182189523Y-94077619D02*
X182237142Y-94172857D01*
X182237142Y-94172857D02*
X182237142Y-94315714D01*
X182237142Y-94315714D02*
X182189523Y-94410952D01*
X182189523Y-94410952D02*
X182141904Y-94458571D01*
X182141904Y-94458571D02*
X182046666Y-94506190D01*
X182046666Y-94506190D02*
X181665714Y-94506190D01*
X183189523Y-94982380D02*
X182618095Y-94982380D01*
X182903809Y-94982380D02*
X182903809Y-93982380D01*
X182903809Y-93982380D02*
X182808571Y-94125238D01*
X182808571Y-94125238D02*
X182713333Y-94220476D01*
X182713333Y-94220476D02*
X182618095Y-94268095D01*
X183570476Y-94077619D02*
X183618095Y-94030000D01*
X183618095Y-94030000D02*
X183713333Y-93982380D01*
X183713333Y-93982380D02*
X183951428Y-93982380D01*
X183951428Y-93982380D02*
X184046666Y-94030000D01*
X184046666Y-94030000D02*
X184094285Y-94077619D01*
X184094285Y-94077619D02*
X184141904Y-94172857D01*
X184141904Y-94172857D02*
X184141904Y-94268095D01*
X184141904Y-94268095D02*
X184094285Y-94410952D01*
X184094285Y-94410952D02*
X183522857Y-94982380D01*
X183522857Y-94982380D02*
X184141904Y-94982380D01*
%TO.C,R10*%
X160735142Y-92442380D02*
X160401809Y-91966190D01*
X160163714Y-92442380D02*
X160163714Y-91442380D01*
X160163714Y-91442380D02*
X160544666Y-91442380D01*
X160544666Y-91442380D02*
X160639904Y-91490000D01*
X160639904Y-91490000D02*
X160687523Y-91537619D01*
X160687523Y-91537619D02*
X160735142Y-91632857D01*
X160735142Y-91632857D02*
X160735142Y-91775714D01*
X160735142Y-91775714D02*
X160687523Y-91870952D01*
X160687523Y-91870952D02*
X160639904Y-91918571D01*
X160639904Y-91918571D02*
X160544666Y-91966190D01*
X160544666Y-91966190D02*
X160163714Y-91966190D01*
X161687523Y-92442380D02*
X161116095Y-92442380D01*
X161401809Y-92442380D02*
X161401809Y-91442380D01*
X161401809Y-91442380D02*
X161306571Y-91585238D01*
X161306571Y-91585238D02*
X161211333Y-91680476D01*
X161211333Y-91680476D02*
X161116095Y-91728095D01*
X162306571Y-91442380D02*
X162401809Y-91442380D01*
X162401809Y-91442380D02*
X162497047Y-91490000D01*
X162497047Y-91490000D02*
X162544666Y-91537619D01*
X162544666Y-91537619D02*
X162592285Y-91632857D01*
X162592285Y-91632857D02*
X162639904Y-91823333D01*
X162639904Y-91823333D02*
X162639904Y-92061428D01*
X162639904Y-92061428D02*
X162592285Y-92251904D01*
X162592285Y-92251904D02*
X162544666Y-92347142D01*
X162544666Y-92347142D02*
X162497047Y-92394761D01*
X162497047Y-92394761D02*
X162401809Y-92442380D01*
X162401809Y-92442380D02*
X162306571Y-92442380D01*
X162306571Y-92442380D02*
X162211333Y-92394761D01*
X162211333Y-92394761D02*
X162163714Y-92347142D01*
X162163714Y-92347142D02*
X162116095Y-92251904D01*
X162116095Y-92251904D02*
X162068476Y-92061428D01*
X162068476Y-92061428D02*
X162068476Y-91823333D01*
X162068476Y-91823333D02*
X162116095Y-91632857D01*
X162116095Y-91632857D02*
X162163714Y-91537619D01*
X162163714Y-91537619D02*
X162211333Y-91490000D01*
X162211333Y-91490000D02*
X162306571Y-91442380D01*
%TO.C,D5*%
X178029405Y-94982380D02*
X178029405Y-93982380D01*
X178029405Y-93982380D02*
X178267500Y-93982380D01*
X178267500Y-93982380D02*
X178410357Y-94030000D01*
X178410357Y-94030000D02*
X178505595Y-94125238D01*
X178505595Y-94125238D02*
X178553214Y-94220476D01*
X178553214Y-94220476D02*
X178600833Y-94410952D01*
X178600833Y-94410952D02*
X178600833Y-94553809D01*
X178600833Y-94553809D02*
X178553214Y-94744285D01*
X178553214Y-94744285D02*
X178505595Y-94839523D01*
X178505595Y-94839523D02*
X178410357Y-94934761D01*
X178410357Y-94934761D02*
X178267500Y-94982380D01*
X178267500Y-94982380D02*
X178029405Y-94982380D01*
X179505595Y-93982380D02*
X179029405Y-93982380D01*
X179029405Y-93982380D02*
X178981786Y-94458571D01*
X178981786Y-94458571D02*
X179029405Y-94410952D01*
X179029405Y-94410952D02*
X179124643Y-94363333D01*
X179124643Y-94363333D02*
X179362738Y-94363333D01*
X179362738Y-94363333D02*
X179457976Y-94410952D01*
X179457976Y-94410952D02*
X179505595Y-94458571D01*
X179505595Y-94458571D02*
X179553214Y-94553809D01*
X179553214Y-94553809D02*
X179553214Y-94791904D01*
X179553214Y-94791904D02*
X179505595Y-94887142D01*
X179505595Y-94887142D02*
X179457976Y-94934761D01*
X179457976Y-94934761D02*
X179362738Y-94982380D01*
X179362738Y-94982380D02*
X179124643Y-94982380D01*
X179124643Y-94982380D02*
X179029405Y-94934761D01*
X179029405Y-94934761D02*
X178981786Y-94887142D01*
%TO.C,J1*%
X157146666Y-102812380D02*
X157146666Y-103526666D01*
X157146666Y-103526666D02*
X157099047Y-103669523D01*
X157099047Y-103669523D02*
X157003809Y-103764761D01*
X157003809Y-103764761D02*
X156860952Y-103812380D01*
X156860952Y-103812380D02*
X156765714Y-103812380D01*
X158146666Y-103812380D02*
X157575238Y-103812380D01*
X157860952Y-103812380D02*
X157860952Y-102812380D01*
X157860952Y-102812380D02*
X157765714Y-102955238D01*
X157765714Y-102955238D02*
X157670476Y-103050476D01*
X157670476Y-103050476D02*
X157575238Y-103098095D01*
%TO.C,U2*%
X131953095Y-76202380D02*
X131953095Y-77011904D01*
X131953095Y-77011904D02*
X132000714Y-77107142D01*
X132000714Y-77107142D02*
X132048333Y-77154761D01*
X132048333Y-77154761D02*
X132143571Y-77202380D01*
X132143571Y-77202380D02*
X132334047Y-77202380D01*
X132334047Y-77202380D02*
X132429285Y-77154761D01*
X132429285Y-77154761D02*
X132476904Y-77107142D01*
X132476904Y-77107142D02*
X132524523Y-77011904D01*
X132524523Y-77011904D02*
X132524523Y-76202380D01*
X132953095Y-76297619D02*
X133000714Y-76250000D01*
X133000714Y-76250000D02*
X133095952Y-76202380D01*
X133095952Y-76202380D02*
X133334047Y-76202380D01*
X133334047Y-76202380D02*
X133429285Y-76250000D01*
X133429285Y-76250000D02*
X133476904Y-76297619D01*
X133476904Y-76297619D02*
X133524523Y-76392857D01*
X133524523Y-76392857D02*
X133524523Y-76488095D01*
X133524523Y-76488095D02*
X133476904Y-76630952D01*
X133476904Y-76630952D02*
X132905476Y-77202380D01*
X132905476Y-77202380D02*
X133524523Y-77202380D01*
%TO.C,U4*%
X202438095Y-65494380D02*
X202438095Y-66303904D01*
X202438095Y-66303904D02*
X202485714Y-66399142D01*
X202485714Y-66399142D02*
X202533333Y-66446761D01*
X202533333Y-66446761D02*
X202628571Y-66494380D01*
X202628571Y-66494380D02*
X202819047Y-66494380D01*
X202819047Y-66494380D02*
X202914285Y-66446761D01*
X202914285Y-66446761D02*
X202961904Y-66399142D01*
X202961904Y-66399142D02*
X203009523Y-66303904D01*
X203009523Y-66303904D02*
X203009523Y-65494380D01*
X203914285Y-65827714D02*
X203914285Y-66494380D01*
X203676190Y-65446761D02*
X203438095Y-66161047D01*
X203438095Y-66161047D02*
X204057142Y-66161047D01*
%TO.C,J4*%
X204771666Y-63502380D02*
X204771666Y-64216666D01*
X204771666Y-64216666D02*
X204724047Y-64359523D01*
X204724047Y-64359523D02*
X204628809Y-64454761D01*
X204628809Y-64454761D02*
X204485952Y-64502380D01*
X204485952Y-64502380D02*
X204390714Y-64502380D01*
X205676428Y-63835714D02*
X205676428Y-64502380D01*
X205438333Y-63454761D02*
X205200238Y-64169047D01*
X205200238Y-64169047D02*
X205819285Y-64169047D01*
%TO.C,D1*%
X168171905Y-94347380D02*
X168171905Y-93347380D01*
X168171905Y-93347380D02*
X168410000Y-93347380D01*
X168410000Y-93347380D02*
X168552857Y-93395000D01*
X168552857Y-93395000D02*
X168648095Y-93490238D01*
X168648095Y-93490238D02*
X168695714Y-93585476D01*
X168695714Y-93585476D02*
X168743333Y-93775952D01*
X168743333Y-93775952D02*
X168743333Y-93918809D01*
X168743333Y-93918809D02*
X168695714Y-94109285D01*
X168695714Y-94109285D02*
X168648095Y-94204523D01*
X168648095Y-94204523D02*
X168552857Y-94299761D01*
X168552857Y-94299761D02*
X168410000Y-94347380D01*
X168410000Y-94347380D02*
X168171905Y-94347380D01*
X169695714Y-94347380D02*
X169124286Y-94347380D01*
X169410000Y-94347380D02*
X169410000Y-93347380D01*
X169410000Y-93347380D02*
X169314762Y-93490238D01*
X169314762Y-93490238D02*
X169219524Y-93585476D01*
X169219524Y-93585476D02*
X169124286Y-93633095D01*
%TO.C,J2*%
X174926666Y-104142380D02*
X174926666Y-104856666D01*
X174926666Y-104856666D02*
X174879047Y-104999523D01*
X174879047Y-104999523D02*
X174783809Y-105094761D01*
X174783809Y-105094761D02*
X174640952Y-105142380D01*
X174640952Y-105142380D02*
X174545714Y-105142380D01*
X175355238Y-104237619D02*
X175402857Y-104190000D01*
X175402857Y-104190000D02*
X175498095Y-104142380D01*
X175498095Y-104142380D02*
X175736190Y-104142380D01*
X175736190Y-104142380D02*
X175831428Y-104190000D01*
X175831428Y-104190000D02*
X175879047Y-104237619D01*
X175879047Y-104237619D02*
X175926666Y-104332857D01*
X175926666Y-104332857D02*
X175926666Y-104428095D01*
X175926666Y-104428095D02*
X175879047Y-104570952D01*
X175879047Y-104570952D02*
X175307619Y-105142380D01*
X175307619Y-105142380D02*
X175926666Y-105142380D01*
%TO.C,R4*%
X150328333Y-104507380D02*
X149995000Y-104031190D01*
X149756905Y-104507380D02*
X149756905Y-103507380D01*
X149756905Y-103507380D02*
X150137857Y-103507380D01*
X150137857Y-103507380D02*
X150233095Y-103555000D01*
X150233095Y-103555000D02*
X150280714Y-103602619D01*
X150280714Y-103602619D02*
X150328333Y-103697857D01*
X150328333Y-103697857D02*
X150328333Y-103840714D01*
X150328333Y-103840714D02*
X150280714Y-103935952D01*
X150280714Y-103935952D02*
X150233095Y-103983571D01*
X150233095Y-103983571D02*
X150137857Y-104031190D01*
X150137857Y-104031190D02*
X149756905Y-104031190D01*
X151185476Y-103840714D02*
X151185476Y-104507380D01*
X150947381Y-103459761D02*
X150709286Y-104174047D01*
X150709286Y-104174047D02*
X151328333Y-104174047D01*
%TO.C,U1*%
X190466095Y-96884880D02*
X190466095Y-97694404D01*
X190466095Y-97694404D02*
X190513714Y-97789642D01*
X190513714Y-97789642D02*
X190561333Y-97837261D01*
X190561333Y-97837261D02*
X190656571Y-97884880D01*
X190656571Y-97884880D02*
X190847047Y-97884880D01*
X190847047Y-97884880D02*
X190942285Y-97837261D01*
X190942285Y-97837261D02*
X190989904Y-97789642D01*
X190989904Y-97789642D02*
X191037523Y-97694404D01*
X191037523Y-97694404D02*
X191037523Y-96884880D01*
X192037523Y-97884880D02*
X191466095Y-97884880D01*
X191751809Y-97884880D02*
X191751809Y-96884880D01*
X191751809Y-96884880D02*
X191656571Y-97027738D01*
X191656571Y-97027738D02*
X191561333Y-97122976D01*
X191561333Y-97122976D02*
X191466095Y-97170595D01*
%TO.C,R13*%
X172909142Y-75297380D02*
X172575809Y-74821190D01*
X172337714Y-75297380D02*
X172337714Y-74297380D01*
X172337714Y-74297380D02*
X172718666Y-74297380D01*
X172718666Y-74297380D02*
X172813904Y-74345000D01*
X172813904Y-74345000D02*
X172861523Y-74392619D01*
X172861523Y-74392619D02*
X172909142Y-74487857D01*
X172909142Y-74487857D02*
X172909142Y-74630714D01*
X172909142Y-74630714D02*
X172861523Y-74725952D01*
X172861523Y-74725952D02*
X172813904Y-74773571D01*
X172813904Y-74773571D02*
X172718666Y-74821190D01*
X172718666Y-74821190D02*
X172337714Y-74821190D01*
X173861523Y-75297380D02*
X173290095Y-75297380D01*
X173575809Y-75297380D02*
X173575809Y-74297380D01*
X173575809Y-74297380D02*
X173480571Y-74440238D01*
X173480571Y-74440238D02*
X173385333Y-74535476D01*
X173385333Y-74535476D02*
X173290095Y-74583095D01*
X174194857Y-74297380D02*
X174813904Y-74297380D01*
X174813904Y-74297380D02*
X174480571Y-74678333D01*
X174480571Y-74678333D02*
X174623428Y-74678333D01*
X174623428Y-74678333D02*
X174718666Y-74725952D01*
X174718666Y-74725952D02*
X174766285Y-74773571D01*
X174766285Y-74773571D02*
X174813904Y-74868809D01*
X174813904Y-74868809D02*
X174813904Y-75106904D01*
X174813904Y-75106904D02*
X174766285Y-75202142D01*
X174766285Y-75202142D02*
X174718666Y-75249761D01*
X174718666Y-75249761D02*
X174623428Y-75297380D01*
X174623428Y-75297380D02*
X174337714Y-75297380D01*
X174337714Y-75297380D02*
X174242476Y-75249761D01*
X174242476Y-75249761D02*
X174194857Y-75202142D01*
%TO.C,D4*%
X149756905Y-99427380D02*
X149756905Y-98427380D01*
X149756905Y-98427380D02*
X149995000Y-98427380D01*
X149995000Y-98427380D02*
X150137857Y-98475000D01*
X150137857Y-98475000D02*
X150233095Y-98570238D01*
X150233095Y-98570238D02*
X150280714Y-98665476D01*
X150280714Y-98665476D02*
X150328333Y-98855952D01*
X150328333Y-98855952D02*
X150328333Y-98998809D01*
X150328333Y-98998809D02*
X150280714Y-99189285D01*
X150280714Y-99189285D02*
X150233095Y-99284523D01*
X150233095Y-99284523D02*
X150137857Y-99379761D01*
X150137857Y-99379761D02*
X149995000Y-99427380D01*
X149995000Y-99427380D02*
X149756905Y-99427380D01*
X151185476Y-98760714D02*
X151185476Y-99427380D01*
X150947381Y-98379761D02*
X150709286Y-99094047D01*
X150709286Y-99094047D02*
X151328333Y-99094047D01*
%TO.C,R3*%
X155408333Y-75297380D02*
X155075000Y-74821190D01*
X154836905Y-75297380D02*
X154836905Y-74297380D01*
X154836905Y-74297380D02*
X155217857Y-74297380D01*
X155217857Y-74297380D02*
X155313095Y-74345000D01*
X155313095Y-74345000D02*
X155360714Y-74392619D01*
X155360714Y-74392619D02*
X155408333Y-74487857D01*
X155408333Y-74487857D02*
X155408333Y-74630714D01*
X155408333Y-74630714D02*
X155360714Y-74725952D01*
X155360714Y-74725952D02*
X155313095Y-74773571D01*
X155313095Y-74773571D02*
X155217857Y-74821190D01*
X155217857Y-74821190D02*
X154836905Y-74821190D01*
X155741667Y-74297380D02*
X156360714Y-74297380D01*
X156360714Y-74297380D02*
X156027381Y-74678333D01*
X156027381Y-74678333D02*
X156170238Y-74678333D01*
X156170238Y-74678333D02*
X156265476Y-74725952D01*
X156265476Y-74725952D02*
X156313095Y-74773571D01*
X156313095Y-74773571D02*
X156360714Y-74868809D01*
X156360714Y-74868809D02*
X156360714Y-75106904D01*
X156360714Y-75106904D02*
X156313095Y-75202142D01*
X156313095Y-75202142D02*
X156265476Y-75249761D01*
X156265476Y-75249761D02*
X156170238Y-75297380D01*
X156170238Y-75297380D02*
X155884524Y-75297380D01*
X155884524Y-75297380D02*
X155789286Y-75249761D01*
X155789286Y-75249761D02*
X155741667Y-75202142D01*
%TO.C,D3*%
X170711905Y-94347380D02*
X170711905Y-93347380D01*
X170711905Y-93347380D02*
X170950000Y-93347380D01*
X170950000Y-93347380D02*
X171092857Y-93395000D01*
X171092857Y-93395000D02*
X171188095Y-93490238D01*
X171188095Y-93490238D02*
X171235714Y-93585476D01*
X171235714Y-93585476D02*
X171283333Y-93775952D01*
X171283333Y-93775952D02*
X171283333Y-93918809D01*
X171283333Y-93918809D02*
X171235714Y-94109285D01*
X171235714Y-94109285D02*
X171188095Y-94204523D01*
X171188095Y-94204523D02*
X171092857Y-94299761D01*
X171092857Y-94299761D02*
X170950000Y-94347380D01*
X170950000Y-94347380D02*
X170711905Y-94347380D01*
X171616667Y-93347380D02*
X172235714Y-93347380D01*
X172235714Y-93347380D02*
X171902381Y-93728333D01*
X171902381Y-93728333D02*
X172045238Y-93728333D01*
X172045238Y-93728333D02*
X172140476Y-93775952D01*
X172140476Y-93775952D02*
X172188095Y-93823571D01*
X172188095Y-93823571D02*
X172235714Y-93918809D01*
X172235714Y-93918809D02*
X172235714Y-94156904D01*
X172235714Y-94156904D02*
X172188095Y-94252142D01*
X172188095Y-94252142D02*
X172140476Y-94299761D01*
X172140476Y-94299761D02*
X172045238Y-94347380D01*
X172045238Y-94347380D02*
X171759524Y-94347380D01*
X171759524Y-94347380D02*
X171664286Y-94299761D01*
X171664286Y-94299761D02*
X171616667Y-94252142D01*
%TO.C,J3*%
X166036666Y-104142380D02*
X166036666Y-104856666D01*
X166036666Y-104856666D02*
X165989047Y-104999523D01*
X165989047Y-104999523D02*
X165893809Y-105094761D01*
X165893809Y-105094761D02*
X165750952Y-105142380D01*
X165750952Y-105142380D02*
X165655714Y-105142380D01*
X166417619Y-104142380D02*
X167036666Y-104142380D01*
X167036666Y-104142380D02*
X166703333Y-104523333D01*
X166703333Y-104523333D02*
X166846190Y-104523333D01*
X166846190Y-104523333D02*
X166941428Y-104570952D01*
X166941428Y-104570952D02*
X166989047Y-104618571D01*
X166989047Y-104618571D02*
X167036666Y-104713809D01*
X167036666Y-104713809D02*
X167036666Y-104951904D01*
X167036666Y-104951904D02*
X166989047Y-105047142D01*
X166989047Y-105047142D02*
X166941428Y-105094761D01*
X166941428Y-105094761D02*
X166846190Y-105142380D01*
X166846190Y-105142380D02*
X166560476Y-105142380D01*
X166560476Y-105142380D02*
X166465238Y-105094761D01*
X166465238Y-105094761D02*
X166417619Y-105047142D01*
%TO.C,R2*%
X166203333Y-94347380D02*
X165870000Y-93871190D01*
X165631905Y-94347380D02*
X165631905Y-93347380D01*
X165631905Y-93347380D02*
X166012857Y-93347380D01*
X166012857Y-93347380D02*
X166108095Y-93395000D01*
X166108095Y-93395000D02*
X166155714Y-93442619D01*
X166155714Y-93442619D02*
X166203333Y-93537857D01*
X166203333Y-93537857D02*
X166203333Y-93680714D01*
X166203333Y-93680714D02*
X166155714Y-93775952D01*
X166155714Y-93775952D02*
X166108095Y-93823571D01*
X166108095Y-93823571D02*
X166012857Y-93871190D01*
X166012857Y-93871190D02*
X165631905Y-93871190D01*
X166584286Y-93442619D02*
X166631905Y-93395000D01*
X166631905Y-93395000D02*
X166727143Y-93347380D01*
X166727143Y-93347380D02*
X166965238Y-93347380D01*
X166965238Y-93347380D02*
X167060476Y-93395000D01*
X167060476Y-93395000D02*
X167108095Y-93442619D01*
X167108095Y-93442619D02*
X167155714Y-93537857D01*
X167155714Y-93537857D02*
X167155714Y-93633095D01*
X167155714Y-93633095D02*
X167108095Y-93775952D01*
X167108095Y-93775952D02*
X166536667Y-94347380D01*
X166536667Y-94347380D02*
X167155714Y-94347380D01*
%TO.C,R9*%
X150328333Y-96887380D02*
X149995000Y-96411190D01*
X149756905Y-96887380D02*
X149756905Y-95887380D01*
X149756905Y-95887380D02*
X150137857Y-95887380D01*
X150137857Y-95887380D02*
X150233095Y-95935000D01*
X150233095Y-95935000D02*
X150280714Y-95982619D01*
X150280714Y-95982619D02*
X150328333Y-96077857D01*
X150328333Y-96077857D02*
X150328333Y-96220714D01*
X150328333Y-96220714D02*
X150280714Y-96315952D01*
X150280714Y-96315952D02*
X150233095Y-96363571D01*
X150233095Y-96363571D02*
X150137857Y-96411190D01*
X150137857Y-96411190D02*
X149756905Y-96411190D01*
X150804524Y-96887380D02*
X150995000Y-96887380D01*
X150995000Y-96887380D02*
X151090238Y-96839761D01*
X151090238Y-96839761D02*
X151137857Y-96792142D01*
X151137857Y-96792142D02*
X151233095Y-96649285D01*
X151233095Y-96649285D02*
X151280714Y-96458809D01*
X151280714Y-96458809D02*
X151280714Y-96077857D01*
X151280714Y-96077857D02*
X151233095Y-95982619D01*
X151233095Y-95982619D02*
X151185476Y-95935000D01*
X151185476Y-95935000D02*
X151090238Y-95887380D01*
X151090238Y-95887380D02*
X150899762Y-95887380D01*
X150899762Y-95887380D02*
X150804524Y-95935000D01*
X150804524Y-95935000D02*
X150756905Y-95982619D01*
X150756905Y-95982619D02*
X150709286Y-96077857D01*
X150709286Y-96077857D02*
X150709286Y-96315952D01*
X150709286Y-96315952D02*
X150756905Y-96411190D01*
X150756905Y-96411190D02*
X150804524Y-96458809D01*
X150804524Y-96458809D02*
X150899762Y-96506428D01*
X150899762Y-96506428D02*
X151090238Y-96506428D01*
X151090238Y-96506428D02*
X151185476Y-96458809D01*
X151185476Y-96458809D02*
X151233095Y-96411190D01*
X151233095Y-96411190D02*
X151280714Y-96315952D01*
%TO.C,U6*%
X182118095Y-89152380D02*
X182118095Y-89961904D01*
X182118095Y-89961904D02*
X182165714Y-90057142D01*
X182165714Y-90057142D02*
X182213333Y-90104761D01*
X182213333Y-90104761D02*
X182308571Y-90152380D01*
X182308571Y-90152380D02*
X182499047Y-90152380D01*
X182499047Y-90152380D02*
X182594285Y-90104761D01*
X182594285Y-90104761D02*
X182641904Y-90057142D01*
X182641904Y-90057142D02*
X182689523Y-89961904D01*
X182689523Y-89961904D02*
X182689523Y-89152380D01*
X183594285Y-89152380D02*
X183403809Y-89152380D01*
X183403809Y-89152380D02*
X183308571Y-89200000D01*
X183308571Y-89200000D02*
X183260952Y-89247619D01*
X183260952Y-89247619D02*
X183165714Y-89390476D01*
X183165714Y-89390476D02*
X183118095Y-89580952D01*
X183118095Y-89580952D02*
X183118095Y-89961904D01*
X183118095Y-89961904D02*
X183165714Y-90057142D01*
X183165714Y-90057142D02*
X183213333Y-90104761D01*
X183213333Y-90104761D02*
X183308571Y-90152380D01*
X183308571Y-90152380D02*
X183499047Y-90152380D01*
X183499047Y-90152380D02*
X183594285Y-90104761D01*
X183594285Y-90104761D02*
X183641904Y-90057142D01*
X183641904Y-90057142D02*
X183689523Y-89961904D01*
X183689523Y-89961904D02*
X183689523Y-89723809D01*
X183689523Y-89723809D02*
X183641904Y-89628571D01*
X183641904Y-89628571D02*
X183594285Y-89580952D01*
X183594285Y-89580952D02*
X183499047Y-89533333D01*
X183499047Y-89533333D02*
X183308571Y-89533333D01*
X183308571Y-89533333D02*
X183213333Y-89580952D01*
X183213333Y-89580952D02*
X183165714Y-89628571D01*
X183165714Y-89628571D02*
X183118095Y-89723809D01*
%TO.C,R8*%
X164210333Y-75297380D02*
X163877000Y-74821190D01*
X163638905Y-75297380D02*
X163638905Y-74297380D01*
X163638905Y-74297380D02*
X164019857Y-74297380D01*
X164019857Y-74297380D02*
X164115095Y-74345000D01*
X164115095Y-74345000D02*
X164162714Y-74392619D01*
X164162714Y-74392619D02*
X164210333Y-74487857D01*
X164210333Y-74487857D02*
X164210333Y-74630714D01*
X164210333Y-74630714D02*
X164162714Y-74725952D01*
X164162714Y-74725952D02*
X164115095Y-74773571D01*
X164115095Y-74773571D02*
X164019857Y-74821190D01*
X164019857Y-74821190D02*
X163638905Y-74821190D01*
X164781762Y-74725952D02*
X164686524Y-74678333D01*
X164686524Y-74678333D02*
X164638905Y-74630714D01*
X164638905Y-74630714D02*
X164591286Y-74535476D01*
X164591286Y-74535476D02*
X164591286Y-74487857D01*
X164591286Y-74487857D02*
X164638905Y-74392619D01*
X164638905Y-74392619D02*
X164686524Y-74345000D01*
X164686524Y-74345000D02*
X164781762Y-74297380D01*
X164781762Y-74297380D02*
X164972238Y-74297380D01*
X164972238Y-74297380D02*
X165067476Y-74345000D01*
X165067476Y-74345000D02*
X165115095Y-74392619D01*
X165115095Y-74392619D02*
X165162714Y-74487857D01*
X165162714Y-74487857D02*
X165162714Y-74535476D01*
X165162714Y-74535476D02*
X165115095Y-74630714D01*
X165115095Y-74630714D02*
X165067476Y-74678333D01*
X165067476Y-74678333D02*
X164972238Y-74725952D01*
X164972238Y-74725952D02*
X164781762Y-74725952D01*
X164781762Y-74725952D02*
X164686524Y-74773571D01*
X164686524Y-74773571D02*
X164638905Y-74821190D01*
X164638905Y-74821190D02*
X164591286Y-74916428D01*
X164591286Y-74916428D02*
X164591286Y-75106904D01*
X164591286Y-75106904D02*
X164638905Y-75202142D01*
X164638905Y-75202142D02*
X164686524Y-75249761D01*
X164686524Y-75249761D02*
X164781762Y-75297380D01*
X164781762Y-75297380D02*
X164972238Y-75297380D01*
X164972238Y-75297380D02*
X165067476Y-75249761D01*
X165067476Y-75249761D02*
X165115095Y-75202142D01*
X165115095Y-75202142D02*
X165162714Y-75106904D01*
X165162714Y-75106904D02*
X165162714Y-74916428D01*
X165162714Y-74916428D02*
X165115095Y-74821190D01*
X165115095Y-74821190D02*
X165067476Y-74773571D01*
X165067476Y-74773571D02*
X164972238Y-74725952D01*
%TO.C,U7*%
X173031095Y-89152380D02*
X173031095Y-89961904D01*
X173031095Y-89961904D02*
X173078714Y-90057142D01*
X173078714Y-90057142D02*
X173126333Y-90104761D01*
X173126333Y-90104761D02*
X173221571Y-90152380D01*
X173221571Y-90152380D02*
X173412047Y-90152380D01*
X173412047Y-90152380D02*
X173507285Y-90104761D01*
X173507285Y-90104761D02*
X173554904Y-90057142D01*
X173554904Y-90057142D02*
X173602523Y-89961904D01*
X173602523Y-89961904D02*
X173602523Y-89152380D01*
X173983476Y-89152380D02*
X174650142Y-89152380D01*
X174650142Y-89152380D02*
X174221571Y-90152380D01*
%TO.C,R5*%
X152233333Y-92442380D02*
X151900000Y-91966190D01*
X151661905Y-92442380D02*
X151661905Y-91442380D01*
X151661905Y-91442380D02*
X152042857Y-91442380D01*
X152042857Y-91442380D02*
X152138095Y-91490000D01*
X152138095Y-91490000D02*
X152185714Y-91537619D01*
X152185714Y-91537619D02*
X152233333Y-91632857D01*
X152233333Y-91632857D02*
X152233333Y-91775714D01*
X152233333Y-91775714D02*
X152185714Y-91870952D01*
X152185714Y-91870952D02*
X152138095Y-91918571D01*
X152138095Y-91918571D02*
X152042857Y-91966190D01*
X152042857Y-91966190D02*
X151661905Y-91966190D01*
X153138095Y-91442380D02*
X152661905Y-91442380D01*
X152661905Y-91442380D02*
X152614286Y-91918571D01*
X152614286Y-91918571D02*
X152661905Y-91870952D01*
X152661905Y-91870952D02*
X152757143Y-91823333D01*
X152757143Y-91823333D02*
X152995238Y-91823333D01*
X152995238Y-91823333D02*
X153090476Y-91870952D01*
X153090476Y-91870952D02*
X153138095Y-91918571D01*
X153138095Y-91918571D02*
X153185714Y-92013809D01*
X153185714Y-92013809D02*
X153185714Y-92251904D01*
X153185714Y-92251904D02*
X153138095Y-92347142D01*
X153138095Y-92347142D02*
X153090476Y-92394761D01*
X153090476Y-92394761D02*
X152995238Y-92442380D01*
X152995238Y-92442380D02*
X152757143Y-92442380D01*
X152757143Y-92442380D02*
X152661905Y-92394761D01*
X152661905Y-92394761D02*
X152614286Y-92347142D01*
D12*
%TO.C,R11*%
X179307258Y-90692500D02*
X178832742Y-90692500D01*
X179307258Y-89647500D02*
X178832742Y-89647500D01*
%TO.C,R6*%
X173467500Y-96757258D02*
X173467500Y-96282742D01*
X174512500Y-96757258D02*
X174512500Y-96282742D01*
%TO.C,C1*%
X199665000Y-89458748D02*
X199665000Y-90881252D01*
X197845000Y-89458748D02*
X197845000Y-90881252D01*
%TO.C,U3*%
X149740000Y-88785000D02*
X157600000Y-88785000D01*
X157600000Y-88785000D02*
X157600000Y-76315000D01*
X149800000Y-85085000D02*
X157540000Y-85085000D01*
X157540000Y-85085000D02*
X157540000Y-80015000D01*
X149800000Y-83550000D02*
X149800000Y-85085000D01*
X149800000Y-80015000D02*
X149800000Y-81550000D01*
X157540000Y-80015000D02*
X149800000Y-80015000D01*
X149740000Y-76315000D02*
X149740000Y-88785000D01*
X157600000Y-76315000D02*
X149740000Y-76315000D01*
X149800000Y-83550000D02*
G75*
G03*
X149800000Y-81550000I0J1000000D01*
G01*
%TO.C,C2*%
X198020000Y-95511252D02*
X198020000Y-94988748D01*
X199490000Y-95511252D02*
X199490000Y-94988748D01*
%TO.C,U5*%
X158630000Y-88785000D02*
X166490000Y-88785000D01*
X166490000Y-88785000D02*
X166490000Y-76315000D01*
X158690000Y-85085000D02*
X166430000Y-85085000D01*
X166430000Y-85085000D02*
X166430000Y-80015000D01*
X158690000Y-83550000D02*
X158690000Y-85085000D01*
X158690000Y-80015000D02*
X158690000Y-81550000D01*
X166430000Y-80015000D02*
X158690000Y-80015000D01*
X158630000Y-76315000D02*
X158630000Y-88785000D01*
X166490000Y-76315000D02*
X158630000Y-76315000D01*
X158690000Y-83550000D02*
G75*
G03*
X158690000Y-81550000I0J1000000D01*
G01*
%TO.C,R1*%
X153188641Y-94995000D02*
X152881359Y-94995000D01*
X153188641Y-94235000D02*
X152881359Y-94235000D01*
%TO.C,D2*%
X154720000Y-102560000D02*
X154720000Y-100640000D01*
X154720000Y-100640000D02*
X152035000Y-100640000D01*
X152035000Y-102560000D02*
X154720000Y-102560000D01*
%TO.C,R14*%
X170417258Y-90692500D02*
X169942742Y-90692500D01*
X170417258Y-89647500D02*
X169942742Y-89647500D01*
%TO.C,R7*%
X199502500Y-76437258D02*
X199502500Y-75962742D01*
X200547500Y-76437258D02*
X200547500Y-75962742D01*
%TO.C,R12*%
X183117258Y-97042500D02*
X182642742Y-97042500D01*
X183117258Y-95997500D02*
X182642742Y-95997500D01*
%TO.C,R10*%
X161615258Y-90692500D02*
X161140742Y-90692500D01*
X161615258Y-89647500D02*
X161140742Y-89647500D01*
%TO.C,D5*%
X180452500Y-97480000D02*
X180452500Y-95560000D01*
X180452500Y-95560000D02*
X177767500Y-95560000D01*
X177767500Y-97480000D02*
X180452500Y-97480000D01*
%TO.C,J1*%
X161985000Y-104775000D02*
X160655000Y-104775000D01*
X161985000Y-103445000D02*
X161985000Y-104775000D01*
X161985000Y-102175000D02*
X161985000Y-97035000D01*
X161985000Y-102175000D02*
X159325000Y-102175000D01*
X161985000Y-97035000D02*
X159325000Y-97035000D01*
X159325000Y-102175000D02*
X159325000Y-97035000D01*
%TO.C,U2*%
X141775000Y-103735000D02*
X116345000Y-103735000D01*
X141775000Y-103735000D02*
X141775000Y-101195000D01*
X141775000Y-101195000D02*
X148675000Y-101195000D01*
X148675000Y-101195000D02*
X148675000Y-77875000D01*
X114215000Y-79995000D02*
X114215000Y-101605000D01*
X148675000Y-77875000D02*
X116345000Y-77875000D01*
X114215000Y-101605000D02*
G75*
G03*
X116345000Y-103735000I2130002J2D01*
G01*
X116345000Y-77875000D02*
G75*
G03*
X114215000Y-80005000I0J-2130000D01*
G01*
G36*
X123190000Y-104775000D02*
G01*
X121920000Y-104775000D01*
X122555000Y-104140000D01*
X123190000Y-104775000D01*
G37*
D10*
X123190000Y-104775000D02*
X121920000Y-104775000D01*
X122555000Y-104140000D01*
X123190000Y-104775000D01*
D12*
%TO.C,U4*%
X201815000Y-72510000D02*
X201815000Y-64650000D01*
X201815000Y-64650000D02*
X189345000Y-64650000D01*
X198115000Y-72450000D02*
X198115000Y-64710000D01*
X198115000Y-64710000D02*
X193045000Y-64710000D01*
X196580000Y-72450000D02*
X198115000Y-72450000D01*
X193045000Y-72450000D02*
X194580000Y-72450000D01*
X193045000Y-64710000D02*
X193045000Y-72450000D01*
X189345000Y-72510000D02*
X201815000Y-72510000D01*
X189345000Y-64650000D02*
X189345000Y-72510000D01*
X196580000Y-72450000D02*
G75*
G03*
X194580000Y-72450000I-1000000J0D01*
G01*
%TO.C,J4*%
X188916000Y-62290000D02*
X188916000Y-60960000D01*
X190246000Y-62290000D02*
X188916000Y-62290000D01*
X191516000Y-62290000D02*
X206816000Y-62290000D01*
X191516000Y-62290000D02*
X191516000Y-59630000D01*
X206816000Y-62290000D02*
X206816000Y-59630000D01*
X191516000Y-59630000D02*
X206816000Y-59630000D01*
%TO.C,D1*%
X169870000Y-94502500D02*
X167950000Y-94502500D01*
X167950000Y-94502500D02*
X167950000Y-97187500D01*
X169870000Y-97187500D02*
X169870000Y-94502500D01*
D13*
%TO.C,J2*%
X181610000Y-108025000D02*
X176530000Y-108025000D01*
X181610000Y-101525000D02*
X181610000Y-108025000D01*
X176530000Y-108025000D02*
X176530000Y-101525000D01*
X176530000Y-101525000D02*
X181610000Y-101525000D01*
D12*
%TO.C,R4*%
X152797742Y-103617500D02*
X153272258Y-103617500D01*
X152797742Y-104662500D02*
X153272258Y-104662500D01*
%TO.C,U1*%
X185077000Y-106137500D02*
X185077000Y-107377500D01*
X185077000Y-107377500D02*
X186317000Y-107377500D01*
X185317000Y-98517500D02*
X185317000Y-107137500D01*
X185317000Y-98517500D02*
X197038000Y-98517500D01*
X185317000Y-107137500D02*
X197038000Y-107137500D01*
X197038000Y-98517500D02*
X197038000Y-107137500D01*
%TO.C,R13*%
X170417258Y-75452500D02*
X169942742Y-75452500D01*
X170417258Y-74407500D02*
X169942742Y-74407500D01*
%TO.C,D4*%
X154720000Y-100020000D02*
X154720000Y-98100000D01*
X154720000Y-98100000D02*
X152035000Y-98100000D01*
X152035000Y-100020000D02*
X154720000Y-100020000D01*
%TO.C,R3*%
X152637258Y-75452500D02*
X152162742Y-75452500D01*
X152637258Y-74407500D02*
X152162742Y-74407500D01*
%TO.C,D3*%
X172410000Y-94502500D02*
X170490000Y-94502500D01*
X170490000Y-94502500D02*
X170490000Y-97187500D01*
X172410000Y-97187500D02*
X172410000Y-94502500D01*
D13*
%TO.C,J3*%
X172720000Y-108025000D02*
X167640000Y-108025000D01*
X172720000Y-101525000D02*
X172720000Y-108025000D01*
X167640000Y-108025000D02*
X167640000Y-101525000D01*
X167640000Y-101525000D02*
X172720000Y-101525000D01*
D12*
%TO.C,R2*%
X165847500Y-96757258D02*
X165847500Y-96282742D01*
X166892500Y-96757258D02*
X166892500Y-96282742D01*
%TO.C,R9*%
X152797742Y-95997500D02*
X153272258Y-95997500D01*
X152797742Y-97042500D02*
X153272258Y-97042500D01*
%TO.C,U6*%
X176410000Y-88785000D02*
X184270000Y-88785000D01*
X184270000Y-88785000D02*
X184270000Y-76315000D01*
X176470000Y-85085000D02*
X184210000Y-85085000D01*
X184210000Y-85085000D02*
X184210000Y-80015000D01*
X176470000Y-83550000D02*
X176470000Y-85085000D01*
X176470000Y-80015000D02*
X176470000Y-81550000D01*
X184210000Y-80015000D02*
X176470000Y-80015000D01*
X176410000Y-76315000D02*
X176410000Y-88785000D01*
X184270000Y-76315000D02*
X176410000Y-76315000D01*
X176470000Y-83550000D02*
G75*
G03*
X176470000Y-81550000I0J1000000D01*
G01*
%TO.C,R8*%
X161527258Y-75452500D02*
X161052742Y-75452500D01*
X161527258Y-74407500D02*
X161052742Y-74407500D01*
%TO.C,U7*%
X167520000Y-88785000D02*
X175380000Y-88785000D01*
X175380000Y-88785000D02*
X175380000Y-76315000D01*
X167580000Y-85085000D02*
X175320000Y-85085000D01*
X175320000Y-85085000D02*
X175320000Y-80015000D01*
X167580000Y-83550000D02*
X167580000Y-85085000D01*
X167580000Y-80015000D02*
X167580000Y-81550000D01*
X175320000Y-80015000D02*
X167580000Y-80015000D01*
X167520000Y-76315000D02*
X167520000Y-88785000D01*
X175380000Y-76315000D02*
X167520000Y-76315000D01*
X167580000Y-83550000D02*
G75*
G03*
X167580000Y-81550000I0J1000000D01*
G01*
%TO.C,R5*%
X152637258Y-90692500D02*
X152162742Y-90692500D01*
X152637258Y-89647500D02*
X152162742Y-89647500D01*
%TD*%
%LPC*%
D14*
%TO.C,R11*%
X179895000Y-90170000D03*
X178245000Y-90170000D03*
%TD*%
D15*
%TO.C,R6*%
X173990000Y-97345000D03*
X173990000Y-95695000D03*
%TD*%
D16*
%TO.C,C1*%
X198755000Y-88695000D03*
X198755000Y-91645000D03*
%TD*%
D17*
%TO.C,U3*%
X151129999Y-86994999D03*
X153669999Y-86994999D03*
X156209999Y-86994999D03*
X156209999Y-78104999D03*
X153669999Y-78104999D03*
X151129999Y-78104999D03*
%TD*%
D18*
%TO.C,C2*%
X198755000Y-96200000D03*
X198755000Y-94300000D03*
%TD*%
D17*
%TO.C,U5*%
X160019999Y-86994999D03*
X162559999Y-86994999D03*
X165099999Y-86994999D03*
X165099999Y-78104999D03*
X162559999Y-78104999D03*
X160019999Y-78104999D03*
%TD*%
D19*
%TO.C,R1*%
X153545000Y-94615000D03*
X152525000Y-94615000D03*
%TD*%
D20*
%TO.C,D2*%
X153972500Y-101600000D03*
X152097500Y-101600000D03*
%TD*%
D14*
%TO.C,R14*%
X171005000Y-90170000D03*
X169355000Y-90170000D03*
%TD*%
D15*
%TO.C,R7*%
X200025000Y-77025000D03*
X200025000Y-75375000D03*
%TD*%
D14*
%TO.C,R12*%
X183705000Y-96520000D03*
X182055000Y-96520000D03*
%TD*%
%TO.C,R10*%
X162203000Y-90170000D03*
X160553000Y-90170000D03*
%TD*%
D20*
%TO.C,D5*%
X179705000Y-96520000D03*
X177830000Y-96520000D03*
%TD*%
D21*
%TO.C,J1*%
X160654999Y-103444999D03*
D22*
X160654999Y-100904999D03*
X160654999Y-98364999D03*
%TD*%
D23*
%TO.C,U2*%
X122554999Y-102234999D03*
D24*
X125094999Y-102234999D03*
X127634999Y-102234999D03*
X130174999Y-102234999D03*
X132714999Y-102234999D03*
X135254999Y-102234999D03*
X137794999Y-102234999D03*
X140334999Y-102234999D03*
X140334999Y-79374999D03*
X137794999Y-79374999D03*
X135254999Y-79374999D03*
X132714999Y-79374999D03*
X130174999Y-79374999D03*
X127634999Y-79374999D03*
X125094999Y-79374999D03*
X122554999Y-79374999D03*
%TD*%
D25*
%TO.C,U4*%
X200024999Y-71119999D03*
X200024999Y-68579999D03*
X200024999Y-66039999D03*
X191134999Y-66039999D03*
X191134999Y-68579999D03*
X191134999Y-71119999D03*
%TD*%
D21*
%TO.C,J4*%
X190245999Y-60959999D03*
D22*
X192785999Y-60959999D03*
X195325999Y-60959999D03*
X197865999Y-60959999D03*
X200405999Y-60959999D03*
X202945999Y-60959999D03*
X205485999Y-60959999D03*
%TD*%
D26*
%TO.C,D1*%
X168910000Y-95250000D03*
X168910000Y-97125000D03*
%TD*%
D27*
%TO.C,J2*%
X180340000Y-102385000D03*
X177800000Y-102385000D03*
D28*
X180340000Y-104925000D03*
X177800000Y-104925000D03*
%TD*%
D29*
%TO.C,R4*%
X152210000Y-104140000D03*
X153860000Y-104140000D03*
%TD*%
D30*
%TO.C,U1*%
X188687999Y-105077499D03*
D31*
X191227999Y-105077499D03*
X193767999Y-105077499D03*
%TD*%
D14*
%TO.C,R13*%
X171005000Y-74930000D03*
X169355000Y-74930000D03*
%TD*%
D20*
%TO.C,D4*%
X153972500Y-99060000D03*
X152097500Y-99060000D03*
%TD*%
D14*
%TO.C,R3*%
X153225000Y-74930000D03*
X151575000Y-74930000D03*
%TD*%
D26*
%TO.C,D3*%
X171450000Y-95250000D03*
X171450000Y-97125000D03*
%TD*%
D27*
%TO.C,J3*%
X171450000Y-102385000D03*
X168910000Y-102385000D03*
D28*
X171450000Y-104925000D03*
X168910000Y-104925000D03*
%TD*%
D15*
%TO.C,R2*%
X166370000Y-97345000D03*
X166370000Y-95695000D03*
%TD*%
D29*
%TO.C,R9*%
X152210000Y-96520000D03*
X153860000Y-96520000D03*
%TD*%
D17*
%TO.C,U6*%
X177799999Y-86994999D03*
X180339999Y-86994999D03*
X182879999Y-86994999D03*
X182879999Y-78104999D03*
X180339999Y-78104999D03*
X177799999Y-78104999D03*
%TD*%
D14*
%TO.C,R8*%
X162115000Y-74930000D03*
X160465000Y-74930000D03*
%TD*%
D17*
%TO.C,U7*%
X168909999Y-86994999D03*
X171449999Y-86994999D03*
X173989999Y-86994999D03*
X173989999Y-78104999D03*
X171449999Y-78104999D03*
X168909999Y-78104999D03*
%TD*%
D14*
%TO.C,R5*%
X153225000Y-90170000D03*
X151575000Y-90170000D03*
%TD*%
M02*
