G04 #@! TF.GenerationSoftware,KiCad,Pcbnew,(6.0.0)*
G04 #@! TF.CreationDate,2022-05-18T17:51:48+02:00*
G04 #@! TF.ProjectId,prototype-3,70726f74-6f74-4797-9065-2d332e6b6963,rev?*
G04 #@! TF.SameCoordinates,Original*
G04 #@! TF.FileFunction,Legend,Top*
G04 #@! TF.FilePolarity,Positive*
%FSLAX46Y46*%
G04 Gerber Fmt 4.6, Leading zero omitted, Abs format (unit mm)*
G04 Created by KiCad (PCBNEW (6.0.0)) date 2022-05-18 17:51:48*
%MOMM*%
%LPD*%
G01*
G04 APERTURE LIST*
G04 Aperture macros list*
%AMRoundRect*
0 Rectangle with rounded corners*
0 $1 Rounding radius*
0 $2 $3 $4 $5 $6 $7 $8 $9 X,Y pos of 4 corners*
0 Add a 4 corners polygon primitive as box body*
4,1,4,$2,$3,$4,$5,$6,$7,$8,$9,$2,$3,0*
0 Add four circle primitives for the rounded corners*
1,1,$1+$1,$2,$3*
1,1,$1+$1,$4,$5*
1,1,$1+$1,$6,$7*
1,1,$1+$1,$8,$9*
0 Add four rect primitives between the rounded corners*
20,1,$1+$1,$2,$3,$4,$5,0*
20,1,$1+$1,$4,$5,$6,$7,0*
20,1,$1+$1,$6,$7,$8,$9,0*
20,1,$1+$1,$8,$9,$2,$3,0*%
G04 Aperture macros list end*
%ADD10C,0.150000*%
%ADD11C,0.120000*%
%ADD12R,1.200000X0.900000*%
%ADD13RoundRect,0.200000X0.200000X0.275000X-0.200000X0.275000X-0.200000X-0.275000X0.200000X-0.275000X0*%
%ADD14R,2.500000X1.800000*%
%ADD15R,3.000000X3.000000*%
%ADD16C,3.000000*%
%ADD17RoundRect,0.200000X-0.275000X0.200000X-0.275000X-0.200000X0.275000X-0.200000X0.275000X0.200000X0*%
%ADD18R,4.600000X1.100000*%
%ADD19R,9.400000X10.800000*%
%ADD20RoundRect,0.250000X0.450000X-0.262500X0.450000X0.262500X-0.450000X0.262500X-0.450000X-0.262500X0*%
%ADD21RoundRect,0.250000X-0.450000X0.262500X-0.450000X-0.262500X0.450000X-0.262500X0.450000X0.262500X0*%
%ADD22RoundRect,0.250000X0.262500X0.450000X-0.262500X0.450000X-0.262500X-0.450000X0.262500X-0.450000X0*%
%ADD23RoundRect,0.250000X0.650000X-0.325000X0.650000X0.325000X-0.650000X0.325000X-0.650000X-0.325000X0*%
%ADD24R,1.700000X1.700000*%
%ADD25O,1.700000X1.700000*%
%ADD26O,1.800000X1.800000*%
%ADD27O,1.500000X1.500000*%
%ADD28R,1.700000X3.500000*%
%ADD29R,3.500000X1.700000*%
%ADD30R,2.000000X1.780000*%
%ADD31R,2.000000X2.300000*%
%ADD32C,2.300000*%
G04 APERTURE END LIST*
D10*
X106711809Y-66492380D02*
X106711809Y-65492380D01*
X107140380Y-65587619D02*
X107188000Y-65540000D01*
X107283238Y-65492380D01*
X107521333Y-65492380D01*
X107616571Y-65540000D01*
X107664190Y-65587619D01*
X107711809Y-65682857D01*
X107711809Y-65778095D01*
X107664190Y-65920952D01*
X107092761Y-66492380D01*
X107711809Y-66492380D01*
X106711809Y-61412380D02*
X106711809Y-60412380D01*
X107711809Y-61412380D02*
X107140380Y-61412380D01*
X107426095Y-61412380D02*
X107426095Y-60412380D01*
X107330857Y-60555238D01*
X107235619Y-60650476D01*
X107140380Y-60698095D01*
X192714523Y-56332380D02*
X192238333Y-56332380D01*
X192238333Y-55332380D01*
X189920714Y-112164761D02*
X190063571Y-112212380D01*
X190301666Y-112212380D01*
X190396904Y-112164761D01*
X190444523Y-112117142D01*
X190492142Y-112021904D01*
X190492142Y-111926666D01*
X190444523Y-111831428D01*
X190396904Y-111783809D01*
X190301666Y-111736190D01*
X190111190Y-111688571D01*
X190015952Y-111640952D01*
X189968333Y-111593333D01*
X189920714Y-111498095D01*
X189920714Y-111402857D01*
X189968333Y-111307619D01*
X190015952Y-111260000D01*
X190111190Y-111212380D01*
X190349285Y-111212380D01*
X190492142Y-111260000D01*
X190920714Y-112212380D02*
X190920714Y-111212380D01*
X191158809Y-111212380D01*
X191301666Y-111260000D01*
X191396904Y-111355238D01*
X191444523Y-111450476D01*
X191492142Y-111640952D01*
X191492142Y-111783809D01*
X191444523Y-111974285D01*
X191396904Y-112069523D01*
X191301666Y-112164761D01*
X191158809Y-112212380D01*
X190920714Y-112212380D01*
X191873095Y-111926666D02*
X192349285Y-111926666D01*
X191777857Y-112212380D02*
X192111190Y-111212380D01*
X192444523Y-112212380D01*
X190373095Y-106180000D02*
X190277857Y-106132380D01*
X190135000Y-106132380D01*
X189992142Y-106180000D01*
X189896904Y-106275238D01*
X189849285Y-106370476D01*
X189801666Y-106560952D01*
X189801666Y-106703809D01*
X189849285Y-106894285D01*
X189896904Y-106989523D01*
X189992142Y-107084761D01*
X190135000Y-107132380D01*
X190230238Y-107132380D01*
X190373095Y-107084761D01*
X190420714Y-107037142D01*
X190420714Y-106703809D01*
X190230238Y-106703809D01*
X190849285Y-107132380D02*
X190849285Y-106132380D01*
X191420714Y-107132380D01*
X191420714Y-106132380D01*
X191896904Y-107132380D02*
X191896904Y-106132380D01*
X192135000Y-106132380D01*
X192277857Y-106180000D01*
X192373095Y-106275238D01*
X192420714Y-106370476D01*
X192468333Y-106560952D01*
X192468333Y-106703809D01*
X192420714Y-106894285D01*
X192373095Y-106989523D01*
X192277857Y-107084761D01*
X192135000Y-107132380D01*
X191896904Y-107132380D01*
X192309761Y-64687380D02*
X192500238Y-64687380D01*
X192595476Y-64735000D01*
X192690714Y-64830238D01*
X192738333Y-65020714D01*
X192738333Y-65354047D01*
X192690714Y-65544523D01*
X192595476Y-65639761D01*
X192500238Y-65687380D01*
X192309761Y-65687380D01*
X192214523Y-65639761D01*
X192119285Y-65544523D01*
X192071666Y-65354047D01*
X192071666Y-65020714D01*
X192119285Y-64830238D01*
X192214523Y-64735000D01*
X192309761Y-64687380D01*
X192119285Y-66392619D02*
X192166904Y-66345000D01*
X192262142Y-66297380D01*
X192500238Y-66297380D01*
X192595476Y-66345000D01*
X192643095Y-66392619D01*
X192690714Y-66487857D01*
X192690714Y-66583095D01*
X192643095Y-66725952D01*
X192071666Y-67297380D01*
X192690714Y-67297380D01*
X190468333Y-103592380D02*
X189992142Y-103592380D01*
X189944523Y-104068571D01*
X189992142Y-104020952D01*
X190087380Y-103973333D01*
X190325476Y-103973333D01*
X190420714Y-104020952D01*
X190468333Y-104068571D01*
X190515952Y-104163809D01*
X190515952Y-104401904D01*
X190468333Y-104497142D01*
X190420714Y-104544761D01*
X190325476Y-104592380D01*
X190087380Y-104592380D01*
X189992142Y-104544761D01*
X189944523Y-104497142D01*
X190801666Y-103592380D02*
X191135000Y-104592380D01*
X191468333Y-103592380D01*
X192277857Y-103592380D02*
X191801666Y-103592380D01*
X191754047Y-104068571D01*
X191801666Y-104020952D01*
X191896904Y-103973333D01*
X192135000Y-103973333D01*
X192230238Y-104020952D01*
X192277857Y-104068571D01*
X192325476Y-104163809D01*
X192325476Y-104401904D01*
X192277857Y-104497142D01*
X192230238Y-104544761D01*
X192135000Y-104592380D01*
X191896904Y-104592380D01*
X191801666Y-104544761D01*
X191754047Y-104497142D01*
X192309761Y-59607380D02*
X192500238Y-59607380D01*
X192595476Y-59655000D01*
X192690714Y-59750238D01*
X192738333Y-59940714D01*
X192738333Y-60274047D01*
X192690714Y-60464523D01*
X192595476Y-60559761D01*
X192500238Y-60607380D01*
X192309761Y-60607380D01*
X192214523Y-60559761D01*
X192119285Y-60464523D01*
X192071666Y-60274047D01*
X192071666Y-59940714D01*
X192119285Y-59750238D01*
X192214523Y-59655000D01*
X192309761Y-59607380D01*
X192690714Y-62217380D02*
X192119285Y-62217380D01*
X192405000Y-62217380D02*
X192405000Y-61217380D01*
X192309761Y-61360238D01*
X192214523Y-61455476D01*
X192119285Y-61503095D01*
X189944523Y-114704761D02*
X190087380Y-114752380D01*
X190325476Y-114752380D01*
X190420714Y-114704761D01*
X190468333Y-114657142D01*
X190515952Y-114561904D01*
X190515952Y-114466666D01*
X190468333Y-114371428D01*
X190420714Y-114323809D01*
X190325476Y-114276190D01*
X190135000Y-114228571D01*
X190039761Y-114180952D01*
X189992142Y-114133333D01*
X189944523Y-114038095D01*
X189944523Y-113942857D01*
X189992142Y-113847619D01*
X190039761Y-113800000D01*
X190135000Y-113752380D01*
X190373095Y-113752380D01*
X190515952Y-113800000D01*
X191515952Y-114657142D02*
X191468333Y-114704761D01*
X191325476Y-114752380D01*
X191230238Y-114752380D01*
X191087380Y-114704761D01*
X190992142Y-114609523D01*
X190944523Y-114514285D01*
X190896904Y-114323809D01*
X190896904Y-114180952D01*
X190944523Y-113990476D01*
X190992142Y-113895238D01*
X191087380Y-113800000D01*
X191230238Y-113752380D01*
X191325476Y-113752380D01*
X191468333Y-113800000D01*
X191515952Y-113847619D01*
X192420714Y-114752380D02*
X191944523Y-114752380D01*
X191944523Y-113752380D01*
X189730238Y-109672380D02*
X189730238Y-108672380D01*
X190206428Y-109672380D02*
X190206428Y-108672380D01*
X190777857Y-109672380D01*
X190777857Y-108672380D01*
X191111190Y-108672380D02*
X191682619Y-108672380D01*
X191396904Y-109672380D02*
X191396904Y-108672380D01*
X192587380Y-109672380D02*
X192254047Y-109196190D01*
X192015952Y-109672380D02*
X192015952Y-108672380D01*
X192396904Y-108672380D01*
X192492142Y-108720000D01*
X192539761Y-108767619D01*
X192587380Y-108862857D01*
X192587380Y-109005714D01*
X192539761Y-109100952D01*
X192492142Y-109148571D01*
X192396904Y-109196190D01*
X192015952Y-109196190D01*
X107029285Y-56332380D02*
X107029285Y-55332380D01*
X107600714Y-56332380D01*
X107600714Y-55332380D01*
X170632380Y-80748095D02*
X169632380Y-80748095D01*
X169632380Y-80510000D01*
X169680000Y-80367142D01*
X169775238Y-80271904D01*
X169870476Y-80224285D01*
X170060952Y-80176666D01*
X170203809Y-80176666D01*
X170394285Y-80224285D01*
X170489523Y-80271904D01*
X170584761Y-80367142D01*
X170632380Y-80510000D01*
X170632380Y-80748095D01*
X169727619Y-79795714D02*
X169680000Y-79748095D01*
X169632380Y-79652857D01*
X169632380Y-79414761D01*
X169680000Y-79319523D01*
X169727619Y-79271904D01*
X169822857Y-79224285D01*
X169918095Y-79224285D01*
X170060952Y-79271904D01*
X170632380Y-79843333D01*
X170632380Y-79224285D01*
X123023333Y-85542380D02*
X122690000Y-85066190D01*
X122451904Y-85542380D02*
X122451904Y-84542380D01*
X122832857Y-84542380D01*
X122928095Y-84590000D01*
X122975714Y-84637619D01*
X123023333Y-84732857D01*
X123023333Y-84875714D01*
X122975714Y-84970952D01*
X122928095Y-85018571D01*
X122832857Y-85066190D01*
X122451904Y-85066190D01*
X123356666Y-84542380D02*
X123975714Y-84542380D01*
X123642380Y-84923333D01*
X123785238Y-84923333D01*
X123880476Y-84970952D01*
X123928095Y-85018571D01*
X123975714Y-85113809D01*
X123975714Y-85351904D01*
X123928095Y-85447142D01*
X123880476Y-85494761D01*
X123785238Y-85542380D01*
X123499523Y-85542380D01*
X123404285Y-85494761D01*
X123356666Y-85447142D01*
X166901904Y-86177380D02*
X166901904Y-85177380D01*
X167140000Y-85177380D01*
X167282857Y-85225000D01*
X167378095Y-85320238D01*
X167425714Y-85415476D01*
X167473333Y-85605952D01*
X167473333Y-85748809D01*
X167425714Y-85939285D01*
X167378095Y-86034523D01*
X167282857Y-86129761D01*
X167140000Y-86177380D01*
X166901904Y-86177380D01*
X168330476Y-85510714D02*
X168330476Y-86177380D01*
X168092380Y-85129761D02*
X167854285Y-85844047D01*
X168473333Y-85844047D01*
X115862380Y-61263333D02*
X116576666Y-61263333D01*
X116719523Y-61310952D01*
X116814761Y-61406190D01*
X116862380Y-61549047D01*
X116862380Y-61644285D01*
X115862380Y-60882380D02*
X115862380Y-60263333D01*
X116243333Y-60596666D01*
X116243333Y-60453809D01*
X116290952Y-60358571D01*
X116338571Y-60310952D01*
X116433809Y-60263333D01*
X116671904Y-60263333D01*
X116767142Y-60310952D01*
X116814761Y-60358571D01*
X116862380Y-60453809D01*
X116862380Y-60739523D01*
X116814761Y-60834761D01*
X116767142Y-60882380D01*
X176982380Y-91369408D02*
X176506190Y-91702742D01*
X176982380Y-91940837D02*
X175982380Y-91940837D01*
X175982380Y-91559884D01*
X176030000Y-91464646D01*
X176077619Y-91417027D01*
X176172857Y-91369408D01*
X176315714Y-91369408D01*
X176410952Y-91417027D01*
X176458571Y-91464646D01*
X176506190Y-91559884D01*
X176506190Y-91940837D01*
X176077619Y-90988456D02*
X176030000Y-90940837D01*
X175982380Y-90845599D01*
X175982380Y-90607503D01*
X176030000Y-90512265D01*
X176077619Y-90464646D01*
X176172857Y-90417027D01*
X176268095Y-90417027D01*
X176410952Y-90464646D01*
X176982380Y-91036075D01*
X176982380Y-90417027D01*
X156549761Y-52317619D02*
X156454523Y-52270000D01*
X156359285Y-52174761D01*
X156216428Y-52031904D01*
X156121190Y-51984285D01*
X156025952Y-51984285D01*
X156073571Y-52222380D02*
X155978333Y-52174761D01*
X155883095Y-52079523D01*
X155835476Y-51889047D01*
X155835476Y-51555714D01*
X155883095Y-51365238D01*
X155978333Y-51270000D01*
X156073571Y-51222380D01*
X156264047Y-51222380D01*
X156359285Y-51270000D01*
X156454523Y-51365238D01*
X156502142Y-51555714D01*
X156502142Y-51889047D01*
X156454523Y-52079523D01*
X156359285Y-52174761D01*
X156264047Y-52222380D01*
X156073571Y-52222380D01*
X157454523Y-52222380D02*
X156883095Y-52222380D01*
X157168809Y-52222380D02*
X157168809Y-51222380D01*
X157073571Y-51365238D01*
X156978333Y-51460476D01*
X156883095Y-51508095D01*
X177617380Y-83096666D02*
X177141190Y-83430000D01*
X177617380Y-83668095D02*
X176617380Y-83668095D01*
X176617380Y-83287142D01*
X176665000Y-83191904D01*
X176712619Y-83144285D01*
X176807857Y-83096666D01*
X176950714Y-83096666D01*
X177045952Y-83144285D01*
X177093571Y-83191904D01*
X177141190Y-83287142D01*
X177141190Y-83668095D01*
X177617380Y-82620476D02*
X177617380Y-82430000D01*
X177569761Y-82334761D01*
X177522142Y-82287142D01*
X177379285Y-82191904D01*
X177188809Y-82144285D01*
X176807857Y-82144285D01*
X176712619Y-82191904D01*
X176665000Y-82239523D01*
X176617380Y-82334761D01*
X176617380Y-82525238D01*
X176665000Y-82620476D01*
X176712619Y-82668095D01*
X176807857Y-82715714D01*
X177045952Y-82715714D01*
X177141190Y-82668095D01*
X177188809Y-82620476D01*
X177236428Y-82525238D01*
X177236428Y-82334761D01*
X177188809Y-82239523D01*
X177141190Y-82191904D01*
X177045952Y-82144285D01*
X119213333Y-98242380D02*
X118880000Y-97766190D01*
X118641904Y-98242380D02*
X118641904Y-97242380D01*
X119022857Y-97242380D01*
X119118095Y-97290000D01*
X119165714Y-97337619D01*
X119213333Y-97432857D01*
X119213333Y-97575714D01*
X119165714Y-97670952D01*
X119118095Y-97718571D01*
X119022857Y-97766190D01*
X118641904Y-97766190D01*
X120118095Y-97242380D02*
X119641904Y-97242380D01*
X119594285Y-97718571D01*
X119641904Y-97670952D01*
X119737142Y-97623333D01*
X119975238Y-97623333D01*
X120070476Y-97670952D01*
X120118095Y-97718571D01*
X120165714Y-97813809D01*
X120165714Y-98051904D01*
X120118095Y-98147142D01*
X120070476Y-98194761D01*
X119975238Y-98242380D01*
X119737142Y-98242380D01*
X119641904Y-98194761D01*
X119594285Y-98147142D01*
X166822380Y-82716666D02*
X166346190Y-83050000D01*
X166822380Y-83288095D02*
X165822380Y-83288095D01*
X165822380Y-82907142D01*
X165870000Y-82811904D01*
X165917619Y-82764285D01*
X166012857Y-82716666D01*
X166155714Y-82716666D01*
X166250952Y-82764285D01*
X166298571Y-82811904D01*
X166346190Y-82907142D01*
X166346190Y-83288095D01*
X165822380Y-82383333D02*
X165822380Y-81716666D01*
X166822380Y-82145238D01*
X152852380Y-80748095D02*
X151852380Y-80748095D01*
X151852380Y-80510000D01*
X151900000Y-80367142D01*
X151995238Y-80271904D01*
X152090476Y-80224285D01*
X152280952Y-80176666D01*
X152423809Y-80176666D01*
X152614285Y-80224285D01*
X152709523Y-80271904D01*
X152804761Y-80367142D01*
X152852380Y-80510000D01*
X152852380Y-80748095D01*
X152852380Y-79224285D02*
X152852380Y-79795714D01*
X152852380Y-79510000D02*
X151852380Y-79510000D01*
X151995238Y-79605238D01*
X152090476Y-79700476D01*
X152138095Y-79795714D01*
X122372380Y-66682857D02*
X121896190Y-67016190D01*
X122372380Y-67254285D02*
X121372380Y-67254285D01*
X121372380Y-66873333D01*
X121420000Y-66778095D01*
X121467619Y-66730476D01*
X121562857Y-66682857D01*
X121705714Y-66682857D01*
X121800952Y-66730476D01*
X121848571Y-66778095D01*
X121896190Y-66873333D01*
X121896190Y-67254285D01*
X122372380Y-65730476D02*
X122372380Y-66301904D01*
X122372380Y-66016190D02*
X121372380Y-66016190D01*
X121515238Y-66111428D01*
X121610476Y-66206666D01*
X121658095Y-66301904D01*
X122372380Y-64778095D02*
X122372380Y-65349523D01*
X122372380Y-65063809D02*
X121372380Y-65063809D01*
X121515238Y-65159047D01*
X121610476Y-65254285D01*
X121658095Y-65349523D01*
X174329761Y-52317619D02*
X174234523Y-52270000D01*
X174139285Y-52174761D01*
X173996428Y-52031904D01*
X173901190Y-51984285D01*
X173805952Y-51984285D01*
X173853571Y-52222380D02*
X173758333Y-52174761D01*
X173663095Y-52079523D01*
X173615476Y-51889047D01*
X173615476Y-51555714D01*
X173663095Y-51365238D01*
X173758333Y-51270000D01*
X173853571Y-51222380D01*
X174044047Y-51222380D01*
X174139285Y-51270000D01*
X174234523Y-51365238D01*
X174282142Y-51555714D01*
X174282142Y-51889047D01*
X174234523Y-52079523D01*
X174139285Y-52174761D01*
X174044047Y-52222380D01*
X173853571Y-52222380D01*
X174615476Y-51222380D02*
X175234523Y-51222380D01*
X174901190Y-51603333D01*
X175044047Y-51603333D01*
X175139285Y-51650952D01*
X175186904Y-51698571D01*
X175234523Y-51793809D01*
X175234523Y-52031904D01*
X175186904Y-52127142D01*
X175139285Y-52174761D01*
X175044047Y-52222380D01*
X174758333Y-52222380D01*
X174663095Y-52174761D01*
X174615476Y-52127142D01*
X159837380Y-87002857D02*
X159361190Y-87336190D01*
X159837380Y-87574285D02*
X158837380Y-87574285D01*
X158837380Y-87193333D01*
X158885000Y-87098095D01*
X158932619Y-87050476D01*
X159027857Y-87002857D01*
X159170714Y-87002857D01*
X159265952Y-87050476D01*
X159313571Y-87098095D01*
X159361190Y-87193333D01*
X159361190Y-87574285D01*
X159837380Y-86050476D02*
X159837380Y-86621904D01*
X159837380Y-86336190D02*
X158837380Y-86336190D01*
X158980238Y-86431428D01*
X159075476Y-86526666D01*
X159123095Y-86621904D01*
X158837380Y-85193333D02*
X158837380Y-85383809D01*
X158885000Y-85479047D01*
X158932619Y-85526666D01*
X159075476Y-85621904D01*
X159265952Y-85669523D01*
X159646904Y-85669523D01*
X159742142Y-85621904D01*
X159789761Y-85574285D01*
X159837380Y-85479047D01*
X159837380Y-85288571D01*
X159789761Y-85193333D01*
X159742142Y-85145714D01*
X159646904Y-85098095D01*
X159408809Y-85098095D01*
X159313571Y-85145714D01*
X159265952Y-85193333D01*
X159218333Y-85288571D01*
X159218333Y-85479047D01*
X159265952Y-85574285D01*
X159313571Y-85621904D01*
X159408809Y-85669523D01*
X107307142Y-84272380D02*
X106973809Y-83796190D01*
X106735714Y-84272380D02*
X106735714Y-83272380D01*
X107116666Y-83272380D01*
X107211904Y-83320000D01*
X107259523Y-83367619D01*
X107307142Y-83462857D01*
X107307142Y-83605714D01*
X107259523Y-83700952D01*
X107211904Y-83748571D01*
X107116666Y-83796190D01*
X106735714Y-83796190D01*
X108259523Y-84272380D02*
X107688095Y-84272380D01*
X107973809Y-84272380D02*
X107973809Y-83272380D01*
X107878571Y-83415238D01*
X107783333Y-83510476D01*
X107688095Y-83558095D01*
X108878571Y-83272380D02*
X108973809Y-83272380D01*
X109069047Y-83320000D01*
X109116666Y-83367619D01*
X109164285Y-83462857D01*
X109211904Y-83653333D01*
X109211904Y-83891428D01*
X109164285Y-84081904D01*
X109116666Y-84177142D01*
X109069047Y-84224761D01*
X108973809Y-84272380D01*
X108878571Y-84272380D01*
X108783333Y-84224761D01*
X108735714Y-84177142D01*
X108688095Y-84081904D01*
X108640476Y-83891428D01*
X108640476Y-83653333D01*
X108688095Y-83462857D01*
X108735714Y-83367619D01*
X108783333Y-83320000D01*
X108878571Y-83272380D01*
X107307142Y-96972380D02*
X106973809Y-96496190D01*
X106735714Y-96972380D02*
X106735714Y-95972380D01*
X107116666Y-95972380D01*
X107211904Y-96020000D01*
X107259523Y-96067619D01*
X107307142Y-96162857D01*
X107307142Y-96305714D01*
X107259523Y-96400952D01*
X107211904Y-96448571D01*
X107116666Y-96496190D01*
X106735714Y-96496190D01*
X108259523Y-96972380D02*
X107688095Y-96972380D01*
X107973809Y-96972380D02*
X107973809Y-95972380D01*
X107878571Y-96115238D01*
X107783333Y-96210476D01*
X107688095Y-96258095D01*
X109116666Y-96305714D02*
X109116666Y-96972380D01*
X108878571Y-95924761D02*
X108640476Y-96639047D01*
X109259523Y-96639047D01*
X155297142Y-80176666D02*
X155344761Y-80224285D01*
X155392380Y-80367142D01*
X155392380Y-80462380D01*
X155344761Y-80605238D01*
X155249523Y-80700476D01*
X155154285Y-80748095D01*
X154963809Y-80795714D01*
X154820952Y-80795714D01*
X154630476Y-80748095D01*
X154535238Y-80700476D01*
X154440000Y-80605238D01*
X154392380Y-80462380D01*
X154392380Y-80367142D01*
X154440000Y-80224285D01*
X154487619Y-80176666D01*
X155392380Y-79224285D02*
X155392380Y-79795714D01*
X155392380Y-79510000D02*
X154392380Y-79510000D01*
X154535238Y-79605238D01*
X154630476Y-79700476D01*
X154678095Y-79795714D01*
X119832380Y-66682857D02*
X119356190Y-67016190D01*
X119832380Y-67254285D02*
X118832380Y-67254285D01*
X118832380Y-66873333D01*
X118880000Y-66778095D01*
X118927619Y-66730476D01*
X119022857Y-66682857D01*
X119165714Y-66682857D01*
X119260952Y-66730476D01*
X119308571Y-66778095D01*
X119356190Y-66873333D01*
X119356190Y-67254285D01*
X119832380Y-65730476D02*
X119832380Y-66301904D01*
X119832380Y-66016190D02*
X118832380Y-66016190D01*
X118975238Y-66111428D01*
X119070476Y-66206666D01*
X119118095Y-66301904D01*
X118832380Y-65397142D02*
X118832380Y-64778095D01*
X119213333Y-65111428D01*
X119213333Y-64968571D01*
X119260952Y-64873333D01*
X119308571Y-64825714D01*
X119403809Y-64778095D01*
X119641904Y-64778095D01*
X119737142Y-64825714D01*
X119784761Y-64873333D01*
X119832380Y-64968571D01*
X119832380Y-65254285D01*
X119784761Y-65349523D01*
X119737142Y-65397142D01*
X159837380Y-82869602D02*
X159361190Y-83202936D01*
X159837380Y-83441031D02*
X158837380Y-83441031D01*
X158837380Y-83060078D01*
X158885000Y-82964840D01*
X158932619Y-82917221D01*
X159027857Y-82869602D01*
X159170714Y-82869602D01*
X159265952Y-82917221D01*
X159313571Y-82964840D01*
X159361190Y-83060078D01*
X159361190Y-83441031D01*
X159265952Y-82298174D02*
X159218333Y-82393412D01*
X159170714Y-82441031D01*
X159075476Y-82488650D01*
X159027857Y-82488650D01*
X158932619Y-82441031D01*
X158885000Y-82393412D01*
X158837380Y-82298174D01*
X158837380Y-82107697D01*
X158885000Y-82012459D01*
X158932619Y-81964840D01*
X159027857Y-81917221D01*
X159075476Y-81917221D01*
X159170714Y-81964840D01*
X159218333Y-82012459D01*
X159265952Y-82107697D01*
X159265952Y-82298174D01*
X159313571Y-82393412D01*
X159361190Y-82441031D01*
X159456428Y-82488650D01*
X159646904Y-82488650D01*
X159742142Y-82441031D01*
X159789761Y-82393412D01*
X159837380Y-82298174D01*
X159837380Y-82107697D01*
X159789761Y-82012459D01*
X159742142Y-81964840D01*
X159646904Y-81917221D01*
X159456428Y-81917221D01*
X159361190Y-81964840D01*
X159313571Y-82012459D01*
X159265952Y-82107697D01*
X149121904Y-86177380D02*
X149121904Y-85177380D01*
X149360000Y-85177380D01*
X149502857Y-85225000D01*
X149598095Y-85320238D01*
X149645714Y-85415476D01*
X149693333Y-85605952D01*
X149693333Y-85748809D01*
X149645714Y-85939285D01*
X149598095Y-86034523D01*
X149502857Y-86129761D01*
X149360000Y-86177380D01*
X149121904Y-86177380D01*
X150026666Y-85177380D02*
X150645714Y-85177380D01*
X150312380Y-85558333D01*
X150455238Y-85558333D01*
X150550476Y-85605952D01*
X150598095Y-85653571D01*
X150645714Y-85748809D01*
X150645714Y-85986904D01*
X150598095Y-86082142D01*
X150550476Y-86129761D01*
X150455238Y-86177380D01*
X150169523Y-86177380D01*
X150074285Y-86129761D01*
X150026666Y-86082142D01*
X149042380Y-82716666D02*
X148566190Y-83050000D01*
X149042380Y-83288095D02*
X148042380Y-83288095D01*
X148042380Y-82907142D01*
X148090000Y-82811904D01*
X148137619Y-82764285D01*
X148232857Y-82716666D01*
X148375714Y-82716666D01*
X148470952Y-82764285D01*
X148518571Y-82811904D01*
X148566190Y-82907142D01*
X148566190Y-83288095D01*
X148042380Y-81859523D02*
X148042380Y-82050000D01*
X148090000Y-82145238D01*
X148137619Y-82192857D01*
X148280476Y-82288095D01*
X148470952Y-82335714D01*
X148851904Y-82335714D01*
X148947142Y-82288095D01*
X148994761Y-82240476D01*
X149042380Y-82145238D01*
X149042380Y-81954761D01*
X148994761Y-81859523D01*
X148947142Y-81811904D01*
X148851904Y-81764285D01*
X148613809Y-81764285D01*
X148518571Y-81811904D01*
X148470952Y-81859523D01*
X148423333Y-81954761D01*
X148423333Y-82145238D01*
X148470952Y-82240476D01*
X148518571Y-82288095D01*
X148613809Y-82335714D01*
X109656666Y-114812380D02*
X109656666Y-115526666D01*
X109609047Y-115669523D01*
X109513809Y-115764761D01*
X109370952Y-115812380D01*
X109275714Y-115812380D01*
X110132857Y-115812380D02*
X110132857Y-114812380D01*
X110513809Y-114812380D01*
X110609047Y-114860000D01*
X110656666Y-114907619D01*
X110704285Y-115002857D01*
X110704285Y-115145714D01*
X110656666Y-115240952D01*
X110609047Y-115288571D01*
X110513809Y-115336190D01*
X110132857Y-115336190D01*
X111656666Y-115812380D02*
X111085238Y-115812380D01*
X111370952Y-115812380D02*
X111370952Y-114812380D01*
X111275714Y-114955238D01*
X111180476Y-115050476D01*
X111085238Y-115098095D01*
X149312380Y-104901904D02*
X150121904Y-104901904D01*
X150217142Y-104854285D01*
X150264761Y-104806666D01*
X150312380Y-104711428D01*
X150312380Y-104520952D01*
X150264761Y-104425714D01*
X150217142Y-104378095D01*
X150121904Y-104330476D01*
X149312380Y-104330476D01*
X150312380Y-103330476D02*
X150312380Y-103901904D01*
X150312380Y-103616190D02*
X149312380Y-103616190D01*
X149455238Y-103711428D01*
X149550476Y-103806666D01*
X149598095Y-103901904D01*
X133471218Y-117526903D02*
X133498155Y-117607715D01*
X133578967Y-117688528D01*
X133686717Y-117742402D01*
X133794467Y-117742402D01*
X133875279Y-117715465D01*
X134009966Y-117634653D01*
X134090778Y-117553841D01*
X134171590Y-117419154D01*
X134198528Y-117338341D01*
X134198528Y-117230592D01*
X134144653Y-117122842D01*
X134090778Y-117068967D01*
X133983028Y-117015093D01*
X133929154Y-117015093D01*
X133740592Y-117203654D01*
X133848341Y-117311404D01*
X133740592Y-116718781D02*
X133174906Y-117284467D01*
X132959407Y-117068967D01*
X132932470Y-116988155D01*
X132932470Y-116934280D01*
X132959407Y-116853468D01*
X133040219Y-116772656D01*
X133121032Y-116745719D01*
X133174906Y-116745719D01*
X133255719Y-116772656D01*
X133471218Y-116988155D01*
X132690033Y-116691844D02*
X132636158Y-116691844D01*
X132555346Y-116664906D01*
X132420659Y-116530219D01*
X132393722Y-116449407D01*
X132393722Y-116395532D01*
X132420659Y-116314720D01*
X132474534Y-116260845D01*
X132582284Y-116206971D01*
X133228781Y-116206971D01*
X132878595Y-115856784D01*
X143658155Y-117653841D02*
X143685093Y-117734653D01*
X143765905Y-117815465D01*
X143873654Y-117869340D01*
X143981404Y-117869340D01*
X144062216Y-117842402D01*
X144196903Y-117761590D01*
X144277715Y-117680778D01*
X144358528Y-117546091D01*
X144385465Y-117465279D01*
X144385465Y-117357529D01*
X144331590Y-117249780D01*
X144277715Y-117195905D01*
X144169966Y-117142030D01*
X144116091Y-117142030D01*
X143927529Y-117330592D01*
X144035279Y-117438341D01*
X143927529Y-116845719D02*
X143361844Y-117411404D01*
X143604280Y-116522470D01*
X143038595Y-117088155D01*
X143334906Y-116253096D02*
X142769221Y-116818781D01*
X142634534Y-116684094D01*
X142580659Y-116576345D01*
X142580659Y-116468595D01*
X142607597Y-116387783D01*
X142688409Y-116253096D01*
X142769221Y-116172284D01*
X142903908Y-116091471D01*
X142984720Y-116064534D01*
X143092470Y-116064534D01*
X143200219Y-116118409D01*
X143334906Y-116253096D01*
X141091218Y-117626903D02*
X141118155Y-117707715D01*
X141198967Y-117788528D01*
X141306717Y-117842402D01*
X141414467Y-117842402D01*
X141495279Y-117815465D01*
X141629966Y-117734653D01*
X141710778Y-117653841D01*
X141791590Y-117519154D01*
X141818528Y-117438341D01*
X141818528Y-117330592D01*
X141764653Y-117222842D01*
X141710778Y-117168967D01*
X141603028Y-117115093D01*
X141549154Y-117115093D01*
X141360592Y-117303654D01*
X141468341Y-117411404D01*
X141360592Y-116818781D02*
X140794906Y-117384467D01*
X140579407Y-117168967D01*
X140552470Y-117088155D01*
X140552470Y-117034280D01*
X140579407Y-116953468D01*
X140660219Y-116872656D01*
X140741032Y-116845719D01*
X140794906Y-116845719D01*
X140875719Y-116872656D01*
X141091218Y-117088155D01*
X139959847Y-116549407D02*
X140229221Y-116818781D01*
X140525532Y-116576345D01*
X140471658Y-116576345D01*
X140390845Y-116549407D01*
X140256158Y-116414720D01*
X140229221Y-116333908D01*
X140229221Y-116280033D01*
X140256158Y-116199221D01*
X140390845Y-116064534D01*
X140471658Y-116037597D01*
X140525532Y-116037597D01*
X140606345Y-116064534D01*
X140741032Y-116199221D01*
X140767969Y-116280033D01*
X140767969Y-116333908D01*
X133818308Y-92217868D02*
X133468122Y-91867682D01*
X133872183Y-91840744D01*
X133791370Y-91759932D01*
X133764433Y-91679120D01*
X133764433Y-91625245D01*
X133791370Y-91544433D01*
X133926057Y-91409746D01*
X134006870Y-91382809D01*
X134060744Y-91382809D01*
X134141557Y-91409746D01*
X134303181Y-91571370D01*
X134330118Y-91652183D01*
X134330118Y-91706057D01*
X133306497Y-91706057D02*
X133683621Y-90951810D01*
X132929374Y-91328934D01*
X132794687Y-91194247D02*
X132444500Y-90844061D01*
X132848561Y-90817123D01*
X132767749Y-90736311D01*
X132740812Y-90655499D01*
X132740812Y-90601624D01*
X132767749Y-90520812D01*
X132902436Y-90386125D01*
X132983248Y-90359187D01*
X133037123Y-90359187D01*
X133117935Y-90386125D01*
X133279560Y-90547749D01*
X133306497Y-90628561D01*
X133306497Y-90682436D01*
X132956311Y-90116751D02*
X132525312Y-89685752D01*
X132040439Y-89901251D02*
X131851877Y-89712690D01*
X132067377Y-89335566D02*
X132336751Y-89604940D01*
X131771065Y-90170625D01*
X131501691Y-89901251D01*
X131824940Y-89093129D02*
X131259255Y-89658815D01*
X131501691Y-88769881D01*
X130936006Y-89335566D01*
X146450592Y-92042277D02*
X146477529Y-92123089D01*
X146558341Y-92203902D01*
X146666091Y-92257776D01*
X146773841Y-92257776D01*
X146854653Y-92230839D01*
X146989340Y-92150027D01*
X147070152Y-92069215D01*
X147150964Y-91934528D01*
X147177902Y-91853715D01*
X147177902Y-91745966D01*
X147124027Y-91638216D01*
X147070152Y-91584341D01*
X146962402Y-91530467D01*
X146908528Y-91530467D01*
X146719966Y-91719028D01*
X146827715Y-91826778D01*
X146719966Y-91234155D02*
X146154280Y-91799841D01*
X145938781Y-91584341D01*
X145911844Y-91503529D01*
X145911844Y-91449654D01*
X145938781Y-91368842D01*
X146019593Y-91288030D01*
X146100406Y-91261093D01*
X146154280Y-91261093D01*
X146235093Y-91288030D01*
X146450592Y-91503529D01*
X145669407Y-91207218D02*
X145615532Y-91207218D01*
X145534720Y-91180280D01*
X145400033Y-91045593D01*
X145373096Y-90964781D01*
X145373096Y-90910906D01*
X145400033Y-90830094D01*
X145453908Y-90776219D01*
X145561658Y-90722345D01*
X146208155Y-90722345D01*
X145857969Y-90372158D01*
X145103722Y-90749282D02*
X144726598Y-90372158D01*
X145534720Y-90048910D01*
X166760592Y-118150277D02*
X166787529Y-118231089D01*
X166868341Y-118311902D01*
X166976091Y-118365776D01*
X167083841Y-118365776D01*
X167164653Y-118338839D01*
X167299340Y-118258027D01*
X167380152Y-118177215D01*
X167460964Y-118042528D01*
X167487902Y-117961715D01*
X167487902Y-117853966D01*
X167434027Y-117746216D01*
X167380152Y-117692341D01*
X167272402Y-117638467D01*
X167218528Y-117638467D01*
X167029966Y-117827028D01*
X167137715Y-117934778D01*
X167029966Y-117342155D02*
X166464280Y-117907841D01*
X166248781Y-117692341D01*
X166221844Y-117611529D01*
X166221844Y-117557654D01*
X166248781Y-117476842D01*
X166329593Y-117396030D01*
X166410406Y-117369093D01*
X166464280Y-117369093D01*
X166545093Y-117396030D01*
X166760592Y-117611529D01*
X166167969Y-116480158D02*
X166491218Y-116803407D01*
X166329593Y-116641783D02*
X165763908Y-117207468D01*
X165898595Y-117180531D01*
X166006345Y-117180531D01*
X166087157Y-117207468D01*
X165413722Y-116857282D02*
X165063536Y-116507096D01*
X165467597Y-116480158D01*
X165386784Y-116399346D01*
X165359847Y-116318534D01*
X165359847Y-116264659D01*
X165386784Y-116183847D01*
X165521471Y-116049160D01*
X165602284Y-116022223D01*
X165656158Y-116022223D01*
X165736971Y-116049160D01*
X165898595Y-116210784D01*
X165925532Y-116291597D01*
X165925532Y-116345471D01*
X151251218Y-117626903D02*
X151278155Y-117707715D01*
X151358967Y-117788528D01*
X151466717Y-117842402D01*
X151574467Y-117842402D01*
X151655279Y-117815465D01*
X151789966Y-117734653D01*
X151870778Y-117653841D01*
X151951590Y-117519154D01*
X151978528Y-117438341D01*
X151978528Y-117330592D01*
X151924653Y-117222842D01*
X151870778Y-117168967D01*
X151763028Y-117115093D01*
X151709154Y-117115093D01*
X151520592Y-117303654D01*
X151628341Y-117411404D01*
X151520592Y-116818781D02*
X150954906Y-117384467D01*
X150739407Y-117168967D01*
X150712470Y-117088155D01*
X150712470Y-117034280D01*
X150739407Y-116953468D01*
X150820219Y-116872656D01*
X150901032Y-116845719D01*
X150954906Y-116845719D01*
X151035719Y-116872656D01*
X151251218Y-117088155D01*
X150550845Y-116495532D02*
X150577783Y-116576345D01*
X150577783Y-116630219D01*
X150550845Y-116711032D01*
X150523908Y-116737969D01*
X150443096Y-116764906D01*
X150389221Y-116764906D01*
X150308409Y-116737969D01*
X150200659Y-116630219D01*
X150173722Y-116549407D01*
X150173722Y-116495532D01*
X150200659Y-116414720D01*
X150227597Y-116387783D01*
X150308409Y-116360845D01*
X150362284Y-116360845D01*
X150443096Y-116387783D01*
X150550845Y-116495532D01*
X150631658Y-116522470D01*
X150685532Y-116522470D01*
X150766345Y-116495532D01*
X150874094Y-116387783D01*
X150901032Y-116306971D01*
X150901032Y-116253096D01*
X150874094Y-116172284D01*
X150766345Y-116064534D01*
X150685532Y-116037597D01*
X150631658Y-116037597D01*
X150550845Y-116064534D01*
X150443096Y-116172284D01*
X150416158Y-116253096D01*
X150416158Y-116306971D01*
X150443096Y-116387783D01*
X159140592Y-118150277D02*
X159167529Y-118231089D01*
X159248341Y-118311902D01*
X159356091Y-118365776D01*
X159463841Y-118365776D01*
X159544653Y-118338839D01*
X159679340Y-118258027D01*
X159760152Y-118177215D01*
X159840964Y-118042528D01*
X159867902Y-117961715D01*
X159867902Y-117853966D01*
X159814027Y-117746216D01*
X159760152Y-117692341D01*
X159652402Y-117638467D01*
X159598528Y-117638467D01*
X159409966Y-117827028D01*
X159517715Y-117934778D01*
X159409966Y-117342155D02*
X158844280Y-117907841D01*
X158628781Y-117692341D01*
X158601844Y-117611529D01*
X158601844Y-117557654D01*
X158628781Y-117476842D01*
X158709593Y-117396030D01*
X158790406Y-117369093D01*
X158844280Y-117369093D01*
X158925093Y-117396030D01*
X159140592Y-117611529D01*
X158547969Y-116480158D02*
X158871218Y-116803407D01*
X158709593Y-116641783D02*
X158143908Y-117207468D01*
X158278595Y-117180531D01*
X158386345Y-117180531D01*
X158467157Y-117207468D01*
X157632097Y-116695658D02*
X157578223Y-116641783D01*
X157551285Y-116560971D01*
X157551285Y-116507096D01*
X157578223Y-116426284D01*
X157659035Y-116291597D01*
X157793722Y-116156910D01*
X157928409Y-116076097D01*
X158009221Y-116049160D01*
X158063096Y-116049160D01*
X158143908Y-116076097D01*
X158197783Y-116129972D01*
X158224720Y-116210784D01*
X158224720Y-116264659D01*
X158197783Y-116345471D01*
X158116971Y-116480158D01*
X157982284Y-116614845D01*
X157847597Y-116695658D01*
X157766784Y-116722595D01*
X157712910Y-116722595D01*
X157632097Y-116695658D01*
X154060592Y-92042277D02*
X154087529Y-92123089D01*
X154168341Y-92203902D01*
X154276091Y-92257776D01*
X154383841Y-92257776D01*
X154464653Y-92230839D01*
X154599340Y-92150027D01*
X154680152Y-92069215D01*
X154760964Y-91934528D01*
X154787902Y-91853715D01*
X154787902Y-91745966D01*
X154734027Y-91638216D01*
X154680152Y-91584341D01*
X154572402Y-91530467D01*
X154518528Y-91530467D01*
X154329966Y-91719028D01*
X154437715Y-91826778D01*
X154329966Y-91234155D02*
X153764280Y-91799841D01*
X153548781Y-91584341D01*
X153521844Y-91503529D01*
X153521844Y-91449654D01*
X153548781Y-91368842D01*
X153629593Y-91288030D01*
X153710406Y-91261093D01*
X153764280Y-91261093D01*
X153845093Y-91288030D01*
X154060592Y-91503529D01*
X153279407Y-91207218D02*
X153225532Y-91207218D01*
X153144720Y-91180280D01*
X153010033Y-91045593D01*
X152983096Y-90964781D01*
X152983096Y-90910906D01*
X153010033Y-90830094D01*
X153063908Y-90776219D01*
X153171658Y-90722345D01*
X153818155Y-90722345D01*
X153467969Y-90372158D01*
X152740659Y-90668470D02*
X152686784Y-90668470D01*
X152605972Y-90641532D01*
X152471285Y-90506845D01*
X152444348Y-90426033D01*
X152444348Y-90372158D01*
X152471285Y-90291346D01*
X152525160Y-90237471D01*
X152632910Y-90183597D01*
X153279407Y-90183597D01*
X152929221Y-89833410D01*
X171840592Y-92042277D02*
X171867529Y-92123089D01*
X171948341Y-92203902D01*
X172056091Y-92257776D01*
X172163841Y-92257776D01*
X172244653Y-92230839D01*
X172379340Y-92150027D01*
X172460152Y-92069215D01*
X172540964Y-91934528D01*
X172567902Y-91853715D01*
X172567902Y-91745966D01*
X172514027Y-91638216D01*
X172460152Y-91584341D01*
X172352402Y-91530467D01*
X172298528Y-91530467D01*
X172109966Y-91719028D01*
X172217715Y-91826778D01*
X172109966Y-91234155D02*
X171544280Y-91799841D01*
X171328781Y-91584341D01*
X171301844Y-91503529D01*
X171301844Y-91449654D01*
X171328781Y-91368842D01*
X171409593Y-91288030D01*
X171490406Y-91261093D01*
X171544280Y-91261093D01*
X171625093Y-91288030D01*
X171840592Y-91503529D01*
X171247969Y-90372158D02*
X171571218Y-90695407D01*
X171409593Y-90533783D02*
X170843908Y-91099468D01*
X170978595Y-91072531D01*
X171086345Y-91072531D01*
X171167157Y-91099468D01*
X170493722Y-90749282D02*
X170116598Y-90372158D01*
X170924720Y-90048910D01*
X164220592Y-92042277D02*
X164247529Y-92123089D01*
X164328341Y-92203902D01*
X164436091Y-92257776D01*
X164543841Y-92257776D01*
X164624653Y-92230839D01*
X164759340Y-92150027D01*
X164840152Y-92069215D01*
X164920964Y-91934528D01*
X164947902Y-91853715D01*
X164947902Y-91745966D01*
X164894027Y-91638216D01*
X164840152Y-91584341D01*
X164732402Y-91530467D01*
X164678528Y-91530467D01*
X164489966Y-91719028D01*
X164597715Y-91826778D01*
X164489966Y-91234155D02*
X163924280Y-91799841D01*
X163708781Y-91584341D01*
X163681844Y-91503529D01*
X163681844Y-91449654D01*
X163708781Y-91368842D01*
X163789593Y-91288030D01*
X163870406Y-91261093D01*
X163924280Y-91261093D01*
X164005093Y-91288030D01*
X164220592Y-91503529D01*
X163627969Y-90372158D02*
X163951218Y-90695407D01*
X163789593Y-90533783D02*
X163223908Y-91099468D01*
X163358595Y-91072531D01*
X163466345Y-91072531D01*
X163547157Y-91099468D01*
X163358595Y-90102784D02*
X163250845Y-89995035D01*
X163170033Y-89968097D01*
X163116158Y-89968097D01*
X162981471Y-89995035D01*
X162846784Y-90075847D01*
X162631285Y-90291346D01*
X162604348Y-90372158D01*
X162604348Y-90426033D01*
X162631285Y-90506845D01*
X162739035Y-90614595D01*
X162819847Y-90641532D01*
X162873722Y-90641532D01*
X162954534Y-90614595D01*
X163089221Y-90479908D01*
X163116158Y-90399096D01*
X163116158Y-90345221D01*
X163089221Y-90264409D01*
X162981471Y-90156659D01*
X162900659Y-90129722D01*
X162846784Y-90129722D01*
X162765972Y-90156659D01*
X141106592Y-92042277D02*
X141133529Y-92123089D01*
X141214341Y-92203902D01*
X141322091Y-92257776D01*
X141429841Y-92257776D01*
X141510653Y-92230839D01*
X141645340Y-92150027D01*
X141726152Y-92069215D01*
X141806964Y-91934528D01*
X141833902Y-91853715D01*
X141833902Y-91745966D01*
X141780027Y-91638216D01*
X141726152Y-91584341D01*
X141618402Y-91530467D01*
X141564528Y-91530467D01*
X141375966Y-91719028D01*
X141483715Y-91826778D01*
X141375966Y-91234155D02*
X140810280Y-91799841D01*
X140594781Y-91584341D01*
X140567844Y-91503529D01*
X140567844Y-91449654D01*
X140594781Y-91368842D01*
X140675593Y-91288030D01*
X140756406Y-91261093D01*
X140810280Y-91261093D01*
X140891093Y-91288030D01*
X141106592Y-91503529D01*
X140325407Y-91207218D02*
X140271532Y-91207218D01*
X140190720Y-91180280D01*
X140056033Y-91045593D01*
X140029096Y-90964781D01*
X140029096Y-90910906D01*
X140056033Y-90830094D01*
X140109908Y-90776219D01*
X140217658Y-90722345D01*
X140864155Y-90722345D01*
X140513969Y-90372158D01*
X139867471Y-90372158D02*
X139894409Y-90452971D01*
X139894409Y-90506845D01*
X139867471Y-90587658D01*
X139840534Y-90614595D01*
X139759722Y-90641532D01*
X139705847Y-90641532D01*
X139625035Y-90614595D01*
X139517285Y-90506845D01*
X139490348Y-90426033D01*
X139490348Y-90372158D01*
X139517285Y-90291346D01*
X139544223Y-90264409D01*
X139625035Y-90237471D01*
X139678910Y-90237471D01*
X139759722Y-90264409D01*
X139867471Y-90372158D01*
X139948284Y-90399096D01*
X140002158Y-90399096D01*
X140082971Y-90372158D01*
X140190720Y-90264409D01*
X140217658Y-90183597D01*
X140217658Y-90129722D01*
X140190720Y-90048910D01*
X140082971Y-89941160D01*
X140002158Y-89914223D01*
X139948284Y-89914223D01*
X139867471Y-89941160D01*
X139759722Y-90048910D01*
X139732784Y-90129722D01*
X139732784Y-90183597D01*
X139759722Y-90264409D01*
X156358155Y-92053841D02*
X156385093Y-92134653D01*
X156465905Y-92215465D01*
X156573654Y-92269340D01*
X156681404Y-92269340D01*
X156762216Y-92242402D01*
X156896903Y-92161590D01*
X156977715Y-92080778D01*
X157058528Y-91946091D01*
X157085465Y-91865279D01*
X157085465Y-91757529D01*
X157031590Y-91649780D01*
X156977715Y-91595905D01*
X156869966Y-91542030D01*
X156816091Y-91542030D01*
X156627529Y-91730592D01*
X156735279Y-91838341D01*
X156627529Y-91245719D02*
X156061844Y-91811404D01*
X156304280Y-90922470D01*
X155738595Y-91488155D01*
X156034906Y-90653096D02*
X155469221Y-91218781D01*
X155334534Y-91084094D01*
X155280659Y-90976345D01*
X155280659Y-90868595D01*
X155307597Y-90787783D01*
X155388409Y-90653096D01*
X155469221Y-90572284D01*
X155603908Y-90491471D01*
X155684720Y-90464534D01*
X155792470Y-90464534D01*
X155900219Y-90518409D01*
X156034906Y-90653096D01*
X126387309Y-92186870D02*
X126764433Y-91432622D01*
X126010186Y-91809746D01*
X125902436Y-91163248D02*
X125848561Y-91055499D01*
X125848561Y-91001624D01*
X125875499Y-90920812D01*
X125956311Y-90840000D01*
X126037123Y-90813062D01*
X126090998Y-90813062D01*
X126171810Y-90840000D01*
X126387309Y-91055499D01*
X125821624Y-91621184D01*
X125633062Y-91432622D01*
X125606125Y-91351810D01*
X125606125Y-91297935D01*
X125633062Y-91217123D01*
X125686937Y-91163248D01*
X125767749Y-91136311D01*
X125821624Y-91136311D01*
X125902436Y-91163248D01*
X126090998Y-91351810D01*
X125255938Y-91055499D02*
X125713874Y-90597563D01*
X125740812Y-90516751D01*
X125740812Y-90462876D01*
X125713874Y-90382064D01*
X125606125Y-90274314D01*
X125525312Y-90247377D01*
X125471438Y-90247377D01*
X125390625Y-90274314D01*
X124932690Y-90732250D01*
X125229001Y-89951065D02*
X125175126Y-89843316D01*
X125040439Y-89708629D01*
X124959627Y-89681691D01*
X124905752Y-89681691D01*
X124824940Y-89708629D01*
X124771065Y-89762503D01*
X124744128Y-89843316D01*
X124744128Y-89897190D01*
X124771065Y-89978003D01*
X124851877Y-90112690D01*
X124878815Y-90193502D01*
X124878815Y-90247377D01*
X124851877Y-90328189D01*
X124798003Y-90382064D01*
X124717190Y-90409001D01*
X124663316Y-90409001D01*
X124582503Y-90382064D01*
X124447816Y-90247377D01*
X124393942Y-90139627D01*
X161680592Y-92042277D02*
X161707529Y-92123089D01*
X161788341Y-92203902D01*
X161896091Y-92257776D01*
X162003841Y-92257776D01*
X162084653Y-92230839D01*
X162219340Y-92150027D01*
X162300152Y-92069215D01*
X162380964Y-91934528D01*
X162407902Y-91853715D01*
X162407902Y-91745966D01*
X162354027Y-91638216D01*
X162300152Y-91584341D01*
X162192402Y-91530467D01*
X162138528Y-91530467D01*
X161949966Y-91719028D01*
X162057715Y-91826778D01*
X161949966Y-91234155D02*
X161384280Y-91799841D01*
X161168781Y-91584341D01*
X161141844Y-91503529D01*
X161141844Y-91449654D01*
X161168781Y-91368842D01*
X161249593Y-91288030D01*
X161330406Y-91261093D01*
X161384280Y-91261093D01*
X161465093Y-91288030D01*
X161680592Y-91503529D01*
X160899407Y-91207218D02*
X160845532Y-91207218D01*
X160764720Y-91180280D01*
X160630033Y-91045593D01*
X160603096Y-90964781D01*
X160603096Y-90910906D01*
X160630033Y-90830094D01*
X160683908Y-90776219D01*
X160791658Y-90722345D01*
X161438155Y-90722345D01*
X161087969Y-90372158D01*
X160172097Y-90587658D02*
X160118223Y-90533783D01*
X160091285Y-90452971D01*
X160091285Y-90399096D01*
X160118223Y-90318284D01*
X160199035Y-90183597D01*
X160333722Y-90048910D01*
X160468409Y-89968097D01*
X160549221Y-89941160D01*
X160603096Y-89941160D01*
X160683908Y-89968097D01*
X160737783Y-90021972D01*
X160764720Y-90102784D01*
X160764720Y-90156659D01*
X160737783Y-90237471D01*
X160656971Y-90372158D01*
X160522284Y-90506845D01*
X160387597Y-90587658D01*
X160306784Y-90614595D01*
X160252910Y-90614595D01*
X160172097Y-90587658D01*
X136011218Y-117626903D02*
X136038155Y-117707715D01*
X136118967Y-117788528D01*
X136226717Y-117842402D01*
X136334467Y-117842402D01*
X136415279Y-117815465D01*
X136549966Y-117734653D01*
X136630778Y-117653841D01*
X136711590Y-117519154D01*
X136738528Y-117438341D01*
X136738528Y-117330592D01*
X136684653Y-117222842D01*
X136630778Y-117168967D01*
X136523028Y-117115093D01*
X136469154Y-117115093D01*
X136280592Y-117303654D01*
X136388341Y-117411404D01*
X136280592Y-116818781D02*
X135714906Y-117384467D01*
X135499407Y-117168967D01*
X135472470Y-117088155D01*
X135472470Y-117034280D01*
X135499407Y-116953468D01*
X135580219Y-116872656D01*
X135661032Y-116845719D01*
X135714906Y-116845719D01*
X135795719Y-116872656D01*
X136011218Y-117088155D01*
X135203096Y-116872656D02*
X134852910Y-116522470D01*
X135256971Y-116495532D01*
X135176158Y-116414720D01*
X135149221Y-116333908D01*
X135149221Y-116280033D01*
X135176158Y-116199221D01*
X135310845Y-116064534D01*
X135391658Y-116037597D01*
X135445532Y-116037597D01*
X135526345Y-116064534D01*
X135687969Y-116226158D01*
X135714906Y-116306971D01*
X135714906Y-116360845D01*
X171840592Y-118196277D02*
X171867529Y-118277089D01*
X171948341Y-118357902D01*
X172056091Y-118411776D01*
X172163841Y-118411776D01*
X172244653Y-118384839D01*
X172379340Y-118304027D01*
X172460152Y-118223215D01*
X172540964Y-118088528D01*
X172567902Y-118007715D01*
X172567902Y-117899966D01*
X172514027Y-117792216D01*
X172460152Y-117738341D01*
X172352402Y-117684467D01*
X172298528Y-117684467D01*
X172109966Y-117873028D01*
X172217715Y-117980778D01*
X172109966Y-117388155D02*
X171544280Y-117953841D01*
X171328781Y-117738341D01*
X171301844Y-117657529D01*
X171301844Y-117603654D01*
X171328781Y-117522842D01*
X171409593Y-117442030D01*
X171490406Y-117415093D01*
X171544280Y-117415093D01*
X171625093Y-117442030D01*
X171840592Y-117657529D01*
X171247969Y-116526158D02*
X171571218Y-116849407D01*
X171409593Y-116687783D02*
X170843908Y-117253468D01*
X170978595Y-117226531D01*
X171086345Y-117226531D01*
X171167157Y-117253468D01*
X170385972Y-116418409D02*
X170763096Y-116041285D01*
X170305160Y-116768595D02*
X170843908Y-116499221D01*
X170493722Y-116149035D01*
X176383809Y-100235238D02*
X176421904Y-100120952D01*
X176421904Y-99930476D01*
X176383809Y-99854285D01*
X176345714Y-99816190D01*
X176269523Y-99778095D01*
X176193333Y-99778095D01*
X176117142Y-99816190D01*
X176079047Y-99854285D01*
X176040952Y-99930476D01*
X176002857Y-100082857D01*
X175964761Y-100159047D01*
X175926666Y-100197142D01*
X175850476Y-100235238D01*
X175774285Y-100235238D01*
X175698095Y-100197142D01*
X175660000Y-100159047D01*
X175621904Y-100082857D01*
X175621904Y-99892380D01*
X175660000Y-99778095D01*
X175621904Y-99511428D02*
X176421904Y-99320952D01*
X175850476Y-99168571D01*
X176421904Y-99016190D01*
X175621904Y-98825714D01*
X176421904Y-98520952D02*
X175621904Y-98520952D01*
X175621904Y-98330476D01*
X175660000Y-98216190D01*
X175736190Y-98140000D01*
X175812380Y-98101904D01*
X175964761Y-98063809D01*
X176079047Y-98063809D01*
X176231428Y-98101904D01*
X176307619Y-98140000D01*
X176383809Y-98216190D01*
X176421904Y-98330476D01*
X176421904Y-98520952D01*
X176421904Y-97720952D02*
X175621904Y-97720952D01*
X175621904Y-97187619D02*
X175621904Y-97035238D01*
X175660000Y-96959047D01*
X175736190Y-96882857D01*
X175888571Y-96844761D01*
X176155238Y-96844761D01*
X176307619Y-96882857D01*
X176383809Y-96959047D01*
X176421904Y-97035238D01*
X176421904Y-97187619D01*
X176383809Y-97263809D01*
X176307619Y-97340000D01*
X176155238Y-97378095D01*
X175888571Y-97378095D01*
X175736190Y-97340000D01*
X175660000Y-97263809D01*
X175621904Y-97187619D01*
X169058155Y-92053841D02*
X169085093Y-92134653D01*
X169165905Y-92215465D01*
X169273654Y-92269340D01*
X169381404Y-92269340D01*
X169462216Y-92242402D01*
X169596903Y-92161590D01*
X169677715Y-92080778D01*
X169758528Y-91946091D01*
X169785465Y-91865279D01*
X169785465Y-91757529D01*
X169731590Y-91649780D01*
X169677715Y-91595905D01*
X169569966Y-91542030D01*
X169516091Y-91542030D01*
X169327529Y-91730592D01*
X169435279Y-91838341D01*
X169327529Y-91245719D02*
X168761844Y-91811404D01*
X169004280Y-90922470D01*
X168438595Y-91488155D01*
X168734906Y-90653096D02*
X168169221Y-91218781D01*
X168034534Y-91084094D01*
X167980659Y-90976345D01*
X167980659Y-90868595D01*
X168007597Y-90787783D01*
X168088409Y-90653096D01*
X168169221Y-90572284D01*
X168303908Y-90491471D01*
X168384720Y-90464534D01*
X168492470Y-90464534D01*
X168600219Y-90518409D01*
X168734906Y-90653096D01*
X153791218Y-117626903D02*
X153818155Y-117707715D01*
X153898967Y-117788528D01*
X154006717Y-117842402D01*
X154114467Y-117842402D01*
X154195279Y-117815465D01*
X154329966Y-117734653D01*
X154410778Y-117653841D01*
X154491590Y-117519154D01*
X154518528Y-117438341D01*
X154518528Y-117330592D01*
X154464653Y-117222842D01*
X154410778Y-117168967D01*
X154303028Y-117115093D01*
X154249154Y-117115093D01*
X154060592Y-117303654D01*
X154168341Y-117411404D01*
X154060592Y-116818781D02*
X153494906Y-117384467D01*
X153279407Y-117168967D01*
X153252470Y-117088155D01*
X153252470Y-117034280D01*
X153279407Y-116953468D01*
X153360219Y-116872656D01*
X153441032Y-116845719D01*
X153494906Y-116845719D01*
X153575719Y-116872656D01*
X153791218Y-117088155D01*
X153467969Y-116226158D02*
X153360219Y-116118409D01*
X153279407Y-116091471D01*
X153225532Y-116091471D01*
X153090845Y-116118409D01*
X152956158Y-116199221D01*
X152740659Y-116414720D01*
X152713722Y-116495532D01*
X152713722Y-116549407D01*
X152740659Y-116630219D01*
X152848409Y-116737969D01*
X152929221Y-116764906D01*
X152983096Y-116764906D01*
X153063908Y-116737969D01*
X153198595Y-116603282D01*
X153225532Y-116522470D01*
X153225532Y-116468595D01*
X153198595Y-116387783D01*
X153090845Y-116280033D01*
X153010033Y-116253096D01*
X152956158Y-116253096D01*
X152875346Y-116280033D01*
X174380592Y-92042277D02*
X174407529Y-92123089D01*
X174488341Y-92203902D01*
X174596091Y-92257776D01*
X174703841Y-92257776D01*
X174784653Y-92230839D01*
X174919340Y-92150027D01*
X175000152Y-92069215D01*
X175080964Y-91934528D01*
X175107902Y-91853715D01*
X175107902Y-91745966D01*
X175054027Y-91638216D01*
X175000152Y-91584341D01*
X174892402Y-91530467D01*
X174838528Y-91530467D01*
X174649966Y-91719028D01*
X174757715Y-91826778D01*
X174649966Y-91234155D02*
X174084280Y-91799841D01*
X173868781Y-91584341D01*
X173841844Y-91503529D01*
X173841844Y-91449654D01*
X173868781Y-91368842D01*
X173949593Y-91288030D01*
X174030406Y-91261093D01*
X174084280Y-91261093D01*
X174165093Y-91288030D01*
X174380592Y-91503529D01*
X173787969Y-90372158D02*
X174111218Y-90695407D01*
X173949593Y-90533783D02*
X173383908Y-91099468D01*
X173518595Y-91072531D01*
X173626345Y-91072531D01*
X173707157Y-91099468D01*
X172737410Y-90452971D02*
X172845160Y-90560720D01*
X172925972Y-90587658D01*
X172979847Y-90587658D01*
X173114534Y-90560720D01*
X173249221Y-90479908D01*
X173464720Y-90264409D01*
X173491658Y-90183597D01*
X173491658Y-90129722D01*
X173464720Y-90048910D01*
X173356971Y-89941160D01*
X173276158Y-89914223D01*
X173222284Y-89914223D01*
X173141471Y-89941160D01*
X173006784Y-90075847D01*
X172979847Y-90156659D01*
X172979847Y-90210534D01*
X173006784Y-90291346D01*
X173114534Y-90399096D01*
X173195346Y-90426033D01*
X173249221Y-90426033D01*
X173330033Y-90399096D01*
X166760592Y-92042277D02*
X166787529Y-92123089D01*
X166868341Y-92203902D01*
X166976091Y-92257776D01*
X167083841Y-92257776D01*
X167164653Y-92230839D01*
X167299340Y-92150027D01*
X167380152Y-92069215D01*
X167460964Y-91934528D01*
X167487902Y-91853715D01*
X167487902Y-91745966D01*
X167434027Y-91638216D01*
X167380152Y-91584341D01*
X167272402Y-91530467D01*
X167218528Y-91530467D01*
X167029966Y-91719028D01*
X167137715Y-91826778D01*
X167029966Y-91234155D02*
X166464280Y-91799841D01*
X166248781Y-91584341D01*
X166221844Y-91503529D01*
X166221844Y-91449654D01*
X166248781Y-91368842D01*
X166329593Y-91288030D01*
X166410406Y-91261093D01*
X166464280Y-91261093D01*
X166545093Y-91288030D01*
X166760592Y-91503529D01*
X166167969Y-90372158D02*
X166491218Y-90695407D01*
X166329593Y-90533783D02*
X165763908Y-91099468D01*
X165898595Y-91072531D01*
X166006345Y-91072531D01*
X166087157Y-91099468D01*
X165521471Y-90372158D02*
X165548409Y-90452971D01*
X165548409Y-90506845D01*
X165521471Y-90587658D01*
X165494534Y-90614595D01*
X165413722Y-90641532D01*
X165359847Y-90641532D01*
X165279035Y-90614595D01*
X165171285Y-90506845D01*
X165144348Y-90426033D01*
X165144348Y-90372158D01*
X165171285Y-90291346D01*
X165198223Y-90264409D01*
X165279035Y-90237471D01*
X165332910Y-90237471D01*
X165413722Y-90264409D01*
X165521471Y-90372158D01*
X165602284Y-90399096D01*
X165656158Y-90399096D01*
X165736971Y-90372158D01*
X165844720Y-90264409D01*
X165871658Y-90183597D01*
X165871658Y-90129722D01*
X165844720Y-90048910D01*
X165736971Y-89941160D01*
X165656158Y-89914223D01*
X165602284Y-89914223D01*
X165521471Y-89941160D01*
X165413722Y-90048910D01*
X165386784Y-90129722D01*
X165386784Y-90183597D01*
X165413722Y-90264409D01*
X136350592Y-92250152D02*
X136000406Y-91899966D01*
X136404467Y-91873028D01*
X136323654Y-91792216D01*
X136296717Y-91711404D01*
X136296717Y-91657529D01*
X136323654Y-91576717D01*
X136458341Y-91442030D01*
X136539154Y-91415093D01*
X136593028Y-91415093D01*
X136673841Y-91442030D01*
X136835465Y-91603654D01*
X136862402Y-91684467D01*
X136862402Y-91738341D01*
X135838781Y-91738341D02*
X136215905Y-90984094D01*
X135461658Y-91361218D01*
X135326971Y-91226531D02*
X134976784Y-90876345D01*
X135380845Y-90849407D01*
X135300033Y-90768595D01*
X135273096Y-90687783D01*
X135273096Y-90633908D01*
X135300033Y-90553096D01*
X135434720Y-90418409D01*
X135515532Y-90391471D01*
X135569407Y-90391471D01*
X135650219Y-90418409D01*
X135811844Y-90580033D01*
X135838781Y-90660845D01*
X135838781Y-90714720D01*
X164220592Y-118296277D02*
X164247529Y-118377089D01*
X164328341Y-118457902D01*
X164436091Y-118511776D01*
X164543841Y-118511776D01*
X164624653Y-118484839D01*
X164759340Y-118404027D01*
X164840152Y-118323215D01*
X164920964Y-118188528D01*
X164947902Y-118107715D01*
X164947902Y-117999966D01*
X164894027Y-117892216D01*
X164840152Y-117838341D01*
X164732402Y-117784467D01*
X164678528Y-117784467D01*
X164489966Y-117973028D01*
X164597715Y-118080778D01*
X164489966Y-117488155D02*
X163924280Y-118053841D01*
X163708781Y-117838341D01*
X163681844Y-117757529D01*
X163681844Y-117703654D01*
X163708781Y-117622842D01*
X163789593Y-117542030D01*
X163870406Y-117515093D01*
X163924280Y-117515093D01*
X164005093Y-117542030D01*
X164220592Y-117757529D01*
X163627969Y-116626158D02*
X163951218Y-116949407D01*
X163789593Y-116787783D02*
X163223908Y-117353468D01*
X163358595Y-117326531D01*
X163466345Y-117326531D01*
X163547157Y-117353468D01*
X162900659Y-116922470D02*
X162846784Y-116922470D01*
X162765972Y-116895532D01*
X162631285Y-116760845D01*
X162604348Y-116680033D01*
X162604348Y-116626158D01*
X162631285Y-116545346D01*
X162685160Y-116491471D01*
X162792910Y-116437597D01*
X163439407Y-116437597D01*
X163089221Y-116087410D01*
X159150592Y-92042277D02*
X159177529Y-92123089D01*
X159258341Y-92203902D01*
X159366091Y-92257776D01*
X159473841Y-92257776D01*
X159554653Y-92230839D01*
X159689340Y-92150027D01*
X159770152Y-92069215D01*
X159850964Y-91934528D01*
X159877902Y-91853715D01*
X159877902Y-91745966D01*
X159824027Y-91638216D01*
X159770152Y-91584341D01*
X159662402Y-91530467D01*
X159608528Y-91530467D01*
X159419966Y-91719028D01*
X159527715Y-91826778D01*
X159419966Y-91234155D02*
X158854280Y-91799841D01*
X158638781Y-91584341D01*
X158611844Y-91503529D01*
X158611844Y-91449654D01*
X158638781Y-91368842D01*
X158719593Y-91288030D01*
X158800406Y-91261093D01*
X158854280Y-91261093D01*
X158935093Y-91288030D01*
X159150592Y-91503529D01*
X158369407Y-91207218D02*
X158315532Y-91207218D01*
X158234720Y-91180280D01*
X158100033Y-91045593D01*
X158073096Y-90964781D01*
X158073096Y-90910906D01*
X158100033Y-90830094D01*
X158153908Y-90776219D01*
X158261658Y-90722345D01*
X158908155Y-90722345D01*
X158557969Y-90372158D01*
X158019221Y-89833410D02*
X158342470Y-90156659D01*
X158180845Y-89995035D02*
X157615160Y-90560720D01*
X157749847Y-90533783D01*
X157857597Y-90533783D01*
X157938409Y-90560720D01*
X169058155Y-117653841D02*
X169085093Y-117734653D01*
X169165905Y-117815465D01*
X169273654Y-117869340D01*
X169381404Y-117869340D01*
X169462216Y-117842402D01*
X169596903Y-117761590D01*
X169677715Y-117680778D01*
X169758528Y-117546091D01*
X169785465Y-117465279D01*
X169785465Y-117357529D01*
X169731590Y-117249780D01*
X169677715Y-117195905D01*
X169569966Y-117142030D01*
X169516091Y-117142030D01*
X169327529Y-117330592D01*
X169435279Y-117438341D01*
X169327529Y-116845719D02*
X168761844Y-117411404D01*
X169004280Y-116522470D01*
X168438595Y-117088155D01*
X168734906Y-116253096D02*
X168169221Y-116818781D01*
X168034534Y-116684094D01*
X167980659Y-116576345D01*
X167980659Y-116468595D01*
X168007597Y-116387783D01*
X168088409Y-116253096D01*
X168169221Y-116172284D01*
X168303908Y-116091471D01*
X168384720Y-116064534D01*
X168492470Y-116064534D01*
X168600219Y-116118409D01*
X168734906Y-116253096D01*
X130958155Y-117553841D02*
X130985093Y-117634653D01*
X131065905Y-117715465D01*
X131173654Y-117769340D01*
X131281404Y-117769340D01*
X131362216Y-117742402D01*
X131496903Y-117661590D01*
X131577715Y-117580778D01*
X131658528Y-117446091D01*
X131685465Y-117365279D01*
X131685465Y-117257529D01*
X131631590Y-117149780D01*
X131577715Y-117095905D01*
X131469966Y-117042030D01*
X131416091Y-117042030D01*
X131227529Y-117230592D01*
X131335279Y-117338341D01*
X131227529Y-116745719D02*
X130661844Y-117311404D01*
X130904280Y-116422470D01*
X130338595Y-116988155D01*
X130634906Y-116153096D02*
X130069221Y-116718781D01*
X129934534Y-116584094D01*
X129880659Y-116476345D01*
X129880659Y-116368595D01*
X129907597Y-116287783D01*
X129988409Y-116153096D01*
X130069221Y-116072284D01*
X130203908Y-115991471D01*
X130284720Y-115964534D01*
X130392470Y-115964534D01*
X130500219Y-116018409D01*
X130634906Y-116153096D01*
X176383809Y-111649523D02*
X176421904Y-111535238D01*
X176421904Y-111344761D01*
X176383809Y-111268571D01*
X176345714Y-111230476D01*
X176269523Y-111192380D01*
X176193333Y-111192380D01*
X176117142Y-111230476D01*
X176079047Y-111268571D01*
X176040952Y-111344761D01*
X176002857Y-111497142D01*
X175964761Y-111573333D01*
X175926666Y-111611428D01*
X175850476Y-111649523D01*
X175774285Y-111649523D01*
X175698095Y-111611428D01*
X175660000Y-111573333D01*
X175621904Y-111497142D01*
X175621904Y-111306666D01*
X175660000Y-111192380D01*
X175621904Y-110925714D02*
X176421904Y-110735238D01*
X175850476Y-110582857D01*
X176421904Y-110430476D01*
X175621904Y-110240000D01*
X176345714Y-109478095D02*
X176383809Y-109516190D01*
X176421904Y-109630476D01*
X176421904Y-109706666D01*
X176383809Y-109820952D01*
X176307619Y-109897142D01*
X176231428Y-109935238D01*
X176079047Y-109973333D01*
X175964761Y-109973333D01*
X175812380Y-109935238D01*
X175736190Y-109897142D01*
X175660000Y-109820952D01*
X175621904Y-109706666D01*
X175621904Y-109630476D01*
X175660000Y-109516190D01*
X175698095Y-109478095D01*
X176421904Y-108754285D02*
X176421904Y-109135238D01*
X175621904Y-109135238D01*
X176421904Y-108487619D02*
X175621904Y-108487619D01*
X176421904Y-108030476D02*
X175964761Y-108373333D01*
X175621904Y-108030476D02*
X176079047Y-108487619D01*
X156358155Y-117653841D02*
X156385093Y-117734653D01*
X156465905Y-117815465D01*
X156573654Y-117869340D01*
X156681404Y-117869340D01*
X156762216Y-117842402D01*
X156896903Y-117761590D01*
X156977715Y-117680778D01*
X157058528Y-117546091D01*
X157085465Y-117465279D01*
X157085465Y-117357529D01*
X157031590Y-117249780D01*
X156977715Y-117195905D01*
X156869966Y-117142030D01*
X156816091Y-117142030D01*
X156627529Y-117330592D01*
X156735279Y-117438341D01*
X156627529Y-116845719D02*
X156061844Y-117411404D01*
X156304280Y-116522470D01*
X155738595Y-117088155D01*
X156034906Y-116253096D02*
X155469221Y-116818781D01*
X155334534Y-116684094D01*
X155280659Y-116576345D01*
X155280659Y-116468595D01*
X155307597Y-116387783D01*
X155388409Y-116253096D01*
X155469221Y-116172284D01*
X155603908Y-116091471D01*
X155684720Y-116064534D01*
X155792470Y-116064534D01*
X155900219Y-116118409D01*
X156034906Y-116253096D01*
X128929966Y-92219526D02*
X129307089Y-91465279D01*
X128552842Y-91842402D01*
X128929966Y-91142030D02*
X128876091Y-91034280D01*
X128741404Y-90899593D01*
X128660592Y-90872656D01*
X128606717Y-90872656D01*
X128525905Y-90899593D01*
X128472030Y-90953468D01*
X128445093Y-91034280D01*
X128445093Y-91088155D01*
X128472030Y-91168967D01*
X128552842Y-91303654D01*
X128579780Y-91384467D01*
X128579780Y-91438341D01*
X128552842Y-91519154D01*
X128498967Y-91573028D01*
X128418155Y-91599966D01*
X128364280Y-91599966D01*
X128283468Y-91573028D01*
X128148781Y-91438341D01*
X128094906Y-91330592D01*
X128014094Y-90711032D02*
X128283468Y-90441658D01*
X127906345Y-91195905D02*
X128014094Y-90711032D01*
X127529221Y-90818781D01*
X127906345Y-90118409D02*
X127852470Y-90010659D01*
X127717783Y-89875972D01*
X127636971Y-89849035D01*
X127583096Y-89849035D01*
X127502284Y-89875972D01*
X127448409Y-89929847D01*
X127421471Y-90010659D01*
X127421471Y-90064534D01*
X127448409Y-90145346D01*
X127529221Y-90280033D01*
X127556158Y-90360845D01*
X127556158Y-90414720D01*
X127529221Y-90495532D01*
X127475346Y-90549407D01*
X127394534Y-90576345D01*
X127340659Y-90576345D01*
X127259847Y-90549407D01*
X127125160Y-90414720D01*
X127071285Y-90306971D01*
X139393773Y-91985211D02*
X139124399Y-91715837D01*
X139609272Y-91877462D02*
X138855025Y-92254585D01*
X139232149Y-91500338D01*
X139043587Y-91311776D02*
X138477902Y-91877462D01*
X138343215Y-91742775D01*
X138289340Y-91635025D01*
X138289340Y-91527276D01*
X138316277Y-91446463D01*
X138397089Y-91311776D01*
X138477902Y-91230964D01*
X138612589Y-91150152D01*
X138693401Y-91123215D01*
X138801150Y-91123215D01*
X138908900Y-91177089D01*
X139043587Y-91311776D01*
X138100778Y-90476717D02*
X138154653Y-90476717D01*
X138262402Y-90530592D01*
X138316277Y-90584467D01*
X138370152Y-90692216D01*
X138370152Y-90799966D01*
X138343215Y-90880778D01*
X138262402Y-91015465D01*
X138181590Y-91096277D01*
X138046903Y-91177089D01*
X137966091Y-91204027D01*
X137858341Y-91204027D01*
X137750592Y-91150152D01*
X137696717Y-91096277D01*
X137642842Y-90988528D01*
X137642842Y-90934653D01*
X138100778Y-90261218D02*
X137669780Y-89830219D01*
X136996345Y-90395905D02*
X137373468Y-89641658D01*
X136619221Y-90018781D01*
X136673096Y-88941285D02*
X136592284Y-89399221D01*
X136996345Y-89264534D02*
X136430659Y-89830219D01*
X136215160Y-89614720D01*
X136188223Y-89533908D01*
X136188223Y-89480033D01*
X136215160Y-89399221D01*
X136295972Y-89318409D01*
X136376784Y-89291471D01*
X136430659Y-89291471D01*
X136511471Y-89318409D01*
X136726971Y-89533908D01*
X136134348Y-88995160D02*
X135945786Y-88806598D01*
X136161285Y-88429475D02*
X136430659Y-88698849D01*
X135864974Y-89264534D01*
X135595600Y-88995160D01*
X135433975Y-88294788D02*
X135622537Y-88483349D01*
X135918849Y-88187038D02*
X135353163Y-88752723D01*
X135083789Y-88483349D01*
X151803435Y-91301624D02*
X151722622Y-91759560D01*
X152126683Y-91624873D02*
X151560998Y-92190558D01*
X151345499Y-91975059D01*
X151318561Y-91894247D01*
X151318561Y-91840372D01*
X151345499Y-91759560D01*
X151426311Y-91678748D01*
X151507123Y-91651810D01*
X151560998Y-91651810D01*
X151641810Y-91678748D01*
X151857309Y-91894247D01*
X150995312Y-91624873D02*
X151453248Y-91166937D01*
X151480186Y-91086125D01*
X151480186Y-91032250D01*
X151453248Y-90951438D01*
X151345499Y-90843688D01*
X151264687Y-90816751D01*
X151210812Y-90816751D01*
X151130000Y-90843688D01*
X150672064Y-91301624D01*
X150968375Y-90466564D02*
X150402690Y-91032250D01*
X150645126Y-90143316D01*
X150079441Y-90709001D01*
X130958155Y-92053841D02*
X130985093Y-92134653D01*
X131065905Y-92215465D01*
X131173654Y-92269340D01*
X131281404Y-92269340D01*
X131362216Y-92242402D01*
X131496903Y-92161590D01*
X131577715Y-92080778D01*
X131658528Y-91946091D01*
X131685465Y-91865279D01*
X131685465Y-91757529D01*
X131631590Y-91649780D01*
X131577715Y-91595905D01*
X131469966Y-91542030D01*
X131416091Y-91542030D01*
X131227529Y-91730592D01*
X131335279Y-91838341D01*
X131227529Y-91245719D02*
X130661844Y-91811404D01*
X130904280Y-90922470D01*
X130338595Y-91488155D01*
X130634906Y-90653096D02*
X130069221Y-91218781D01*
X129934534Y-91084094D01*
X129880659Y-90976345D01*
X129880659Y-90868595D01*
X129907597Y-90787783D01*
X129988409Y-90653096D01*
X130069221Y-90572284D01*
X130203908Y-90491471D01*
X130284720Y-90464534D01*
X130392470Y-90464534D01*
X130500219Y-90518409D01*
X130634906Y-90653096D01*
X146171218Y-117626903D02*
X146198155Y-117707715D01*
X146278967Y-117788528D01*
X146386717Y-117842402D01*
X146494467Y-117842402D01*
X146575279Y-117815465D01*
X146709966Y-117734653D01*
X146790778Y-117653841D01*
X146871590Y-117519154D01*
X146898528Y-117438341D01*
X146898528Y-117330592D01*
X146844653Y-117222842D01*
X146790778Y-117168967D01*
X146683028Y-117115093D01*
X146629154Y-117115093D01*
X146440592Y-117303654D01*
X146548341Y-117411404D01*
X146440592Y-116818781D02*
X145874906Y-117384467D01*
X145659407Y-117168967D01*
X145632470Y-117088155D01*
X145632470Y-117034280D01*
X145659407Y-116953468D01*
X145740219Y-116872656D01*
X145821032Y-116845719D01*
X145874906Y-116845719D01*
X145955719Y-116872656D01*
X146171218Y-117088155D01*
X145066784Y-116576345D02*
X145174534Y-116684094D01*
X145255346Y-116711032D01*
X145309221Y-116711032D01*
X145443908Y-116684094D01*
X145578595Y-116603282D01*
X145794094Y-116387783D01*
X145821032Y-116306971D01*
X145821032Y-116253096D01*
X145794094Y-116172284D01*
X145686345Y-116064534D01*
X145605532Y-116037597D01*
X145551658Y-116037597D01*
X145470845Y-116064534D01*
X145336158Y-116199221D01*
X145309221Y-116280033D01*
X145309221Y-116333908D01*
X145336158Y-116414720D01*
X145443908Y-116522470D01*
X145524720Y-116549407D01*
X145578595Y-116549407D01*
X145659407Y-116522470D01*
X148980592Y-92042277D02*
X149007529Y-92123089D01*
X149088341Y-92203902D01*
X149196091Y-92257776D01*
X149303841Y-92257776D01*
X149384653Y-92230839D01*
X149519340Y-92150027D01*
X149600152Y-92069215D01*
X149680964Y-91934528D01*
X149707902Y-91853715D01*
X149707902Y-91745966D01*
X149654027Y-91638216D01*
X149600152Y-91584341D01*
X149492402Y-91530467D01*
X149438528Y-91530467D01*
X149249966Y-91719028D01*
X149357715Y-91826778D01*
X149249966Y-91234155D02*
X148684280Y-91799841D01*
X148468781Y-91584341D01*
X148441844Y-91503529D01*
X148441844Y-91449654D01*
X148468781Y-91368842D01*
X148549593Y-91288030D01*
X148630406Y-91261093D01*
X148684280Y-91261093D01*
X148765093Y-91288030D01*
X148980592Y-91503529D01*
X148199407Y-91207218D02*
X148145532Y-91207218D01*
X148064720Y-91180280D01*
X147930033Y-91045593D01*
X147903096Y-90964781D01*
X147903096Y-90910906D01*
X147930033Y-90830094D01*
X147983908Y-90776219D01*
X148091658Y-90722345D01*
X148738155Y-90722345D01*
X148387969Y-90372158D01*
X147337410Y-90452971D02*
X147445160Y-90560720D01*
X147525972Y-90587658D01*
X147579847Y-90587658D01*
X147714534Y-90560720D01*
X147849221Y-90479908D01*
X148064720Y-90264409D01*
X148091658Y-90183597D01*
X148091658Y-90129722D01*
X148064720Y-90048910D01*
X147956971Y-89941160D01*
X147876158Y-89914223D01*
X147822284Y-89914223D01*
X147741471Y-89941160D01*
X147606784Y-90075847D01*
X147579847Y-90156659D01*
X147579847Y-90210534D01*
X147606784Y-90291346D01*
X147714534Y-90399096D01*
X147795346Y-90426033D01*
X147849221Y-90426033D01*
X147930033Y-90399096D01*
X144600964Y-91988402D02*
X144331590Y-91719028D01*
X144816463Y-91880653D02*
X144062216Y-92257776D01*
X144439340Y-91503529D01*
X143415719Y-91557404D02*
X143442656Y-91638216D01*
X143523468Y-91719028D01*
X143631218Y-91772903D01*
X143738967Y-91772903D01*
X143819780Y-91745966D01*
X143954467Y-91665154D01*
X144035279Y-91584341D01*
X144116091Y-91449654D01*
X144143028Y-91368842D01*
X144143028Y-91261093D01*
X144089154Y-91153343D01*
X144035279Y-91099468D01*
X143927529Y-91045593D01*
X143873654Y-91045593D01*
X143685093Y-91234155D01*
X143792842Y-91341905D01*
X143685093Y-90749282D02*
X143119407Y-91314967D01*
X143361844Y-90426033D01*
X142796158Y-90991719D01*
X143092470Y-90156659D02*
X142526784Y-90722345D01*
X142392097Y-90587658D01*
X142338223Y-90479908D01*
X142338223Y-90372158D01*
X142365160Y-90291346D01*
X142445972Y-90156659D01*
X142526784Y-90075847D01*
X142661471Y-89995035D01*
X142742284Y-89968097D01*
X142850033Y-89968097D01*
X142957783Y-90021972D01*
X143092470Y-90156659D01*
X161680592Y-118296277D02*
X161707529Y-118377089D01*
X161788341Y-118457902D01*
X161896091Y-118511776D01*
X162003841Y-118511776D01*
X162084653Y-118484839D01*
X162219340Y-118404027D01*
X162300152Y-118323215D01*
X162380964Y-118188528D01*
X162407902Y-118107715D01*
X162407902Y-117999966D01*
X162354027Y-117892216D01*
X162300152Y-117838341D01*
X162192402Y-117784467D01*
X162138528Y-117784467D01*
X161949966Y-117973028D01*
X162057715Y-118080778D01*
X161949966Y-117488155D02*
X161384280Y-118053841D01*
X161168781Y-117838341D01*
X161141844Y-117757529D01*
X161141844Y-117703654D01*
X161168781Y-117622842D01*
X161249593Y-117542030D01*
X161330406Y-117515093D01*
X161384280Y-117515093D01*
X161465093Y-117542030D01*
X161680592Y-117757529D01*
X161087969Y-116626158D02*
X161411218Y-116949407D01*
X161249593Y-116787783D02*
X160683908Y-117353468D01*
X160818595Y-117326531D01*
X160926345Y-117326531D01*
X161007157Y-117353468D01*
X160549221Y-116087410D02*
X160872470Y-116410659D01*
X160710845Y-116249035D02*
X160145160Y-116814720D01*
X160279847Y-116787783D01*
X160387597Y-116787783D01*
X160468409Y-116814720D01*
X174380592Y-118150277D02*
X174407529Y-118231089D01*
X174488341Y-118311902D01*
X174596091Y-118365776D01*
X174703841Y-118365776D01*
X174784653Y-118338839D01*
X174919340Y-118258027D01*
X175000152Y-118177215D01*
X175080964Y-118042528D01*
X175107902Y-117961715D01*
X175107902Y-117853966D01*
X175054027Y-117746216D01*
X175000152Y-117692341D01*
X174892402Y-117638467D01*
X174838528Y-117638467D01*
X174649966Y-117827028D01*
X174757715Y-117934778D01*
X174649966Y-117342155D02*
X174084280Y-117907841D01*
X173868781Y-117692341D01*
X173841844Y-117611529D01*
X173841844Y-117557654D01*
X173868781Y-117476842D01*
X173949593Y-117396030D01*
X174030406Y-117369093D01*
X174084280Y-117369093D01*
X174165093Y-117396030D01*
X174380592Y-117611529D01*
X173787969Y-116480158D02*
X174111218Y-116803407D01*
X173949593Y-116641783D02*
X173383908Y-117207468D01*
X173518595Y-117180531D01*
X173626345Y-117180531D01*
X173707157Y-117207468D01*
X172710473Y-116534033D02*
X172979847Y-116803407D01*
X173276158Y-116560971D01*
X173222284Y-116560971D01*
X173141471Y-116534033D01*
X173006784Y-116399346D01*
X172979847Y-116318534D01*
X172979847Y-116264659D01*
X173006784Y-116183847D01*
X173141471Y-116049160D01*
X173222284Y-116022223D01*
X173276158Y-116022223D01*
X173356971Y-116049160D01*
X173491658Y-116183847D01*
X173518595Y-116264659D01*
X173518595Y-116318534D01*
X138551218Y-117626903D02*
X138578155Y-117707715D01*
X138658967Y-117788528D01*
X138766717Y-117842402D01*
X138874467Y-117842402D01*
X138955279Y-117815465D01*
X139089966Y-117734653D01*
X139170778Y-117653841D01*
X139251590Y-117519154D01*
X139278528Y-117438341D01*
X139278528Y-117330592D01*
X139224653Y-117222842D01*
X139170778Y-117168967D01*
X139063028Y-117115093D01*
X139009154Y-117115093D01*
X138820592Y-117303654D01*
X138928341Y-117411404D01*
X138820592Y-116818781D02*
X138254906Y-117384467D01*
X138039407Y-117168967D01*
X138012470Y-117088155D01*
X138012470Y-117034280D01*
X138039407Y-116953468D01*
X138120219Y-116872656D01*
X138201032Y-116845719D01*
X138254906Y-116845719D01*
X138335719Y-116872656D01*
X138551218Y-117088155D01*
X137635346Y-116387783D02*
X138012470Y-116010659D01*
X137554534Y-116737969D02*
X138093282Y-116468595D01*
X137743096Y-116118409D01*
X125851218Y-117526903D02*
X125878155Y-117607715D01*
X125958967Y-117688528D01*
X126066717Y-117742402D01*
X126174467Y-117742402D01*
X126255279Y-117715465D01*
X126389966Y-117634653D01*
X126470778Y-117553841D01*
X126551590Y-117419154D01*
X126578528Y-117338341D01*
X126578528Y-117230592D01*
X126524653Y-117122842D01*
X126470778Y-117068967D01*
X126363028Y-117015093D01*
X126309154Y-117015093D01*
X126120592Y-117203654D01*
X126228341Y-117311404D01*
X126120592Y-116718781D02*
X125554906Y-117284467D01*
X125339407Y-117068967D01*
X125312470Y-116988155D01*
X125312470Y-116934280D01*
X125339407Y-116853468D01*
X125420219Y-116772656D01*
X125501032Y-116745719D01*
X125554906Y-116745719D01*
X125635719Y-116772656D01*
X125851218Y-116988155D01*
X124881471Y-116611032D02*
X124827597Y-116557157D01*
X124800659Y-116476345D01*
X124800659Y-116422470D01*
X124827597Y-116341658D01*
X124908409Y-116206971D01*
X125043096Y-116072284D01*
X125177783Y-115991471D01*
X125258595Y-115964534D01*
X125312470Y-115964534D01*
X125393282Y-115991471D01*
X125447157Y-116045346D01*
X125474094Y-116126158D01*
X125474094Y-116180033D01*
X125447157Y-116260845D01*
X125366345Y-116395532D01*
X125231658Y-116530219D01*
X125096971Y-116611032D01*
X125016158Y-116637969D01*
X124962284Y-116637969D01*
X124881471Y-116611032D01*
X128381218Y-117526903D02*
X128408155Y-117607715D01*
X128488967Y-117688528D01*
X128596717Y-117742402D01*
X128704467Y-117742402D01*
X128785279Y-117715465D01*
X128919966Y-117634653D01*
X129000778Y-117553841D01*
X129081590Y-117419154D01*
X129108528Y-117338341D01*
X129108528Y-117230592D01*
X129054653Y-117122842D01*
X129000778Y-117068967D01*
X128893028Y-117015093D01*
X128839154Y-117015093D01*
X128650592Y-117203654D01*
X128758341Y-117311404D01*
X128650592Y-116718781D02*
X128084906Y-117284467D01*
X127869407Y-117068967D01*
X127842470Y-116988155D01*
X127842470Y-116934280D01*
X127869407Y-116853468D01*
X127950219Y-116772656D01*
X128031032Y-116745719D01*
X128084906Y-116745719D01*
X128165719Y-116772656D01*
X128381218Y-116988155D01*
X127788595Y-115856784D02*
X128111844Y-116180033D01*
X127950219Y-116018409D02*
X127384534Y-116584094D01*
X127519221Y-116557157D01*
X127626971Y-116557157D01*
X127707783Y-116584094D01*
X148681218Y-117526903D02*
X148708155Y-117607715D01*
X148788967Y-117688528D01*
X148896717Y-117742402D01*
X149004467Y-117742402D01*
X149085279Y-117715465D01*
X149219966Y-117634653D01*
X149300778Y-117553841D01*
X149381590Y-117419154D01*
X149408528Y-117338341D01*
X149408528Y-117230592D01*
X149354653Y-117122842D01*
X149300778Y-117068967D01*
X149193028Y-117015093D01*
X149139154Y-117015093D01*
X148950592Y-117203654D01*
X149058341Y-117311404D01*
X148950592Y-116718781D02*
X148384906Y-117284467D01*
X148169407Y-117068967D01*
X148142470Y-116988155D01*
X148142470Y-116934280D01*
X148169407Y-116853468D01*
X148250219Y-116772656D01*
X148331032Y-116745719D01*
X148384906Y-116745719D01*
X148465719Y-116772656D01*
X148681218Y-116988155D01*
X147873096Y-116772656D02*
X147495972Y-116395532D01*
X148304094Y-116072284D01*
X123023333Y-83002380D02*
X122690000Y-82526190D01*
X122451904Y-83002380D02*
X122451904Y-82002380D01*
X122832857Y-82002380D01*
X122928095Y-82050000D01*
X122975714Y-82097619D01*
X123023333Y-82192857D01*
X123023333Y-82335714D01*
X122975714Y-82430952D01*
X122928095Y-82478571D01*
X122832857Y-82526190D01*
X122451904Y-82526190D01*
X123880476Y-82335714D02*
X123880476Y-83002380D01*
X123642380Y-81954761D02*
X123404285Y-82669047D01*
X124023333Y-82669047D01*
X176982380Y-95416666D02*
X176506190Y-95750000D01*
X176982380Y-95988095D02*
X175982380Y-95988095D01*
X175982380Y-95607142D01*
X176030000Y-95511904D01*
X176077619Y-95464285D01*
X176172857Y-95416666D01*
X176315714Y-95416666D01*
X176410952Y-95464285D01*
X176458571Y-95511904D01*
X176506190Y-95607142D01*
X176506190Y-95988095D01*
X176982380Y-94464285D02*
X176982380Y-95035714D01*
X176982380Y-94750000D02*
X175982380Y-94750000D01*
X176125238Y-94845238D01*
X176220476Y-94940476D01*
X176268095Y-95035714D01*
X182967380Y-61928333D02*
X183681666Y-61928333D01*
X183824523Y-61975952D01*
X183919761Y-62071190D01*
X183967380Y-62214047D01*
X183967380Y-62309285D01*
X183062619Y-61499761D02*
X183015000Y-61452142D01*
X182967380Y-61356904D01*
X182967380Y-61118809D01*
X183015000Y-61023571D01*
X183062619Y-60975952D01*
X183157857Y-60928333D01*
X183253095Y-60928333D01*
X183395952Y-60975952D01*
X183967380Y-61547380D01*
X183967380Y-60928333D01*
X156549761Y-67557619D02*
X156454523Y-67510000D01*
X156359285Y-67414761D01*
X156216428Y-67271904D01*
X156121190Y-67224285D01*
X156025952Y-67224285D01*
X156073571Y-67462380D02*
X155978333Y-67414761D01*
X155883095Y-67319523D01*
X155835476Y-67129047D01*
X155835476Y-66795714D01*
X155883095Y-66605238D01*
X155978333Y-66510000D01*
X156073571Y-66462380D01*
X156264047Y-66462380D01*
X156359285Y-66510000D01*
X156454523Y-66605238D01*
X156502142Y-66795714D01*
X156502142Y-67129047D01*
X156454523Y-67319523D01*
X156359285Y-67414761D01*
X156264047Y-67462380D01*
X156073571Y-67462380D01*
X156883095Y-66557619D02*
X156930714Y-66510000D01*
X157025952Y-66462380D01*
X157264047Y-66462380D01*
X157359285Y-66510000D01*
X157406904Y-66557619D01*
X157454523Y-66652857D01*
X157454523Y-66748095D01*
X157406904Y-66890952D01*
X156835476Y-67462380D01*
X157454523Y-67462380D01*
X114808095Y-84752380D02*
X114808095Y-85561904D01*
X114855714Y-85657142D01*
X114903333Y-85704761D01*
X114998571Y-85752380D01*
X115189047Y-85752380D01*
X115284285Y-85704761D01*
X115331904Y-85657142D01*
X115379523Y-85561904D01*
X115379523Y-84752380D01*
X116284285Y-85085714D02*
X116284285Y-85752380D01*
X116046190Y-84704761D02*
X115808095Y-85419047D01*
X116427142Y-85419047D01*
X177617380Y-87155793D02*
X177141190Y-87489126D01*
X177617380Y-87727221D02*
X176617380Y-87727221D01*
X176617380Y-87346269D01*
X176665000Y-87251031D01*
X176712619Y-87203412D01*
X176807857Y-87155793D01*
X176950714Y-87155793D01*
X177045952Y-87203412D01*
X177093571Y-87251031D01*
X177141190Y-87346269D01*
X177141190Y-87727221D01*
X177617380Y-86203412D02*
X177617380Y-86774840D01*
X177617380Y-86489126D02*
X176617380Y-86489126D01*
X176760238Y-86584364D01*
X176855476Y-86679602D01*
X176903095Y-86774840D01*
X176617380Y-85870078D02*
X176617380Y-85203412D01*
X177617380Y-85631983D01*
X107307142Y-71572380D02*
X106973809Y-71096190D01*
X106735714Y-71572380D02*
X106735714Y-70572380D01*
X107116666Y-70572380D01*
X107211904Y-70620000D01*
X107259523Y-70667619D01*
X107307142Y-70762857D01*
X107307142Y-70905714D01*
X107259523Y-71000952D01*
X107211904Y-71048571D01*
X107116666Y-71096190D01*
X106735714Y-71096190D01*
X108259523Y-71572380D02*
X107688095Y-71572380D01*
X107973809Y-71572380D02*
X107973809Y-70572380D01*
X107878571Y-70715238D01*
X107783333Y-70810476D01*
X107688095Y-70858095D01*
X108640476Y-70667619D02*
X108688095Y-70620000D01*
X108783333Y-70572380D01*
X109021428Y-70572380D01*
X109116666Y-70620000D01*
X109164285Y-70667619D01*
X109211904Y-70762857D01*
X109211904Y-70858095D01*
X109164285Y-71000952D01*
X108592857Y-71572380D01*
X109211904Y-71572380D01*
X183388095Y-80942380D02*
X183388095Y-81751904D01*
X183435714Y-81847142D01*
X183483333Y-81894761D01*
X183578571Y-81942380D01*
X183769047Y-81942380D01*
X183864285Y-81894761D01*
X183911904Y-81847142D01*
X183959523Y-81751904D01*
X183959523Y-80942380D01*
X184340476Y-80942380D02*
X184959523Y-80942380D01*
X184626190Y-81323333D01*
X184769047Y-81323333D01*
X184864285Y-81370952D01*
X184911904Y-81418571D01*
X184959523Y-81513809D01*
X184959523Y-81751904D01*
X184911904Y-81847142D01*
X184864285Y-81894761D01*
X184769047Y-81942380D01*
X184483333Y-81942380D01*
X184388095Y-81894761D01*
X184340476Y-81847142D01*
X114808095Y-97452380D02*
X114808095Y-98261904D01*
X114855714Y-98357142D01*
X114903333Y-98404761D01*
X114998571Y-98452380D01*
X115189047Y-98452380D01*
X115284285Y-98404761D01*
X115331904Y-98357142D01*
X115379523Y-98261904D01*
X115379523Y-97452380D01*
X116284285Y-97452380D02*
X116093809Y-97452380D01*
X115998571Y-97500000D01*
X115950952Y-97547619D01*
X115855714Y-97690476D01*
X115808095Y-97880952D01*
X115808095Y-98261904D01*
X115855714Y-98357142D01*
X115903333Y-98404761D01*
X115998571Y-98452380D01*
X116189047Y-98452380D01*
X116284285Y-98404761D01*
X116331904Y-98357142D01*
X116379523Y-98261904D01*
X116379523Y-98023809D01*
X116331904Y-97928571D01*
X116284285Y-97880952D01*
X116189047Y-97833333D01*
X115998571Y-97833333D01*
X115903333Y-97880952D01*
X115855714Y-97928571D01*
X115808095Y-98023809D01*
X114808095Y-72052380D02*
X114808095Y-72861904D01*
X114855714Y-72957142D01*
X114903333Y-73004761D01*
X114998571Y-73052380D01*
X115189047Y-73052380D01*
X115284285Y-73004761D01*
X115331904Y-72957142D01*
X115379523Y-72861904D01*
X115379523Y-72052380D01*
X116331904Y-72052380D02*
X115855714Y-72052380D01*
X115808095Y-72528571D01*
X115855714Y-72480952D01*
X115950952Y-72433333D01*
X116189047Y-72433333D01*
X116284285Y-72480952D01*
X116331904Y-72528571D01*
X116379523Y-72623809D01*
X116379523Y-72861904D01*
X116331904Y-72957142D01*
X116284285Y-73004761D01*
X116189047Y-73052380D01*
X115950952Y-73052380D01*
X115855714Y-73004761D01*
X115808095Y-72957142D01*
X187626666Y-101262380D02*
X187626666Y-101976666D01*
X187579047Y-102119523D01*
X187483809Y-102214761D01*
X187340952Y-102262380D01*
X187245714Y-102262380D01*
X188626666Y-102262380D02*
X188055238Y-102262380D01*
X188340952Y-102262380D02*
X188340952Y-101262380D01*
X188245714Y-101405238D01*
X188150476Y-101500476D01*
X188055238Y-101548095D01*
X173077142Y-80176666D02*
X173124761Y-80224285D01*
X173172380Y-80367142D01*
X173172380Y-80462380D01*
X173124761Y-80605238D01*
X173029523Y-80700476D01*
X172934285Y-80748095D01*
X172743809Y-80795714D01*
X172600952Y-80795714D01*
X172410476Y-80748095D01*
X172315238Y-80700476D01*
X172220000Y-80605238D01*
X172172380Y-80462380D01*
X172172380Y-80367142D01*
X172220000Y-80224285D01*
X172267619Y-80176666D01*
X172267619Y-79795714D02*
X172220000Y-79748095D01*
X172172380Y-79652857D01*
X172172380Y-79414761D01*
X172220000Y-79319523D01*
X172267619Y-79271904D01*
X172362857Y-79224285D01*
X172458095Y-79224285D01*
X172600952Y-79271904D01*
X173172380Y-79843333D01*
X173172380Y-79224285D01*
X183388095Y-91102380D02*
X183388095Y-91911904D01*
X183435714Y-92007142D01*
X183483333Y-92054761D01*
X183578571Y-92102380D01*
X183769047Y-92102380D01*
X183864285Y-92054761D01*
X183911904Y-92007142D01*
X183959523Y-91911904D01*
X183959523Y-91102380D01*
X184388095Y-91197619D02*
X184435714Y-91150000D01*
X184530952Y-91102380D01*
X184769047Y-91102380D01*
X184864285Y-91150000D01*
X184911904Y-91197619D01*
X184959523Y-91292857D01*
X184959523Y-91388095D01*
X184911904Y-91530952D01*
X184340476Y-92102380D01*
X184959523Y-92102380D01*
X124912380Y-66682857D02*
X124436190Y-67016190D01*
X124912380Y-67254285D02*
X123912380Y-67254285D01*
X123912380Y-66873333D01*
X123960000Y-66778095D01*
X124007619Y-66730476D01*
X124102857Y-66682857D01*
X124245714Y-66682857D01*
X124340952Y-66730476D01*
X124388571Y-66778095D01*
X124436190Y-66873333D01*
X124436190Y-67254285D01*
X124912380Y-65730476D02*
X124912380Y-66301904D01*
X124912380Y-66016190D02*
X123912380Y-66016190D01*
X124055238Y-66111428D01*
X124150476Y-66206666D01*
X124198095Y-66301904D01*
X123912380Y-64825714D02*
X123912380Y-65301904D01*
X124388571Y-65349523D01*
X124340952Y-65301904D01*
X124293333Y-65206666D01*
X124293333Y-64968571D01*
X124340952Y-64873333D01*
X124388571Y-64825714D01*
X124483809Y-64778095D01*
X124721904Y-64778095D01*
X124817142Y-64825714D01*
X124864761Y-64873333D01*
X124912380Y-64968571D01*
X124912380Y-65206666D01*
X124864761Y-65301904D01*
X124817142Y-65349523D01*
X139035714Y-52392380D02*
X139035714Y-51392380D01*
X139416666Y-51392380D01*
X139511904Y-51440000D01*
X139559523Y-51487619D01*
X139607142Y-51582857D01*
X139607142Y-51725714D01*
X139559523Y-51820952D01*
X139511904Y-51868571D01*
X139416666Y-51916190D01*
X139035714Y-51916190D01*
X139988095Y-52344761D02*
X140130952Y-52392380D01*
X140369047Y-52392380D01*
X140464285Y-52344761D01*
X140511904Y-52297142D01*
X140559523Y-52201904D01*
X140559523Y-52106666D01*
X140511904Y-52011428D01*
X140464285Y-51963809D01*
X140369047Y-51916190D01*
X140178571Y-51868571D01*
X140083333Y-51820952D01*
X140035714Y-51773333D01*
X139988095Y-51678095D01*
X139988095Y-51582857D01*
X140035714Y-51487619D01*
X140083333Y-51440000D01*
X140178571Y-51392380D01*
X140416666Y-51392380D01*
X140559523Y-51440000D01*
X141511904Y-52392380D02*
X140940476Y-52392380D01*
X141226190Y-52392380D02*
X141226190Y-51392380D01*
X141130952Y-51535238D01*
X141035714Y-51630476D01*
X140940476Y-51678095D01*
X174329761Y-67557619D02*
X174234523Y-67510000D01*
X174139285Y-67414761D01*
X173996428Y-67271904D01*
X173901190Y-67224285D01*
X173805952Y-67224285D01*
X173853571Y-67462380D02*
X173758333Y-67414761D01*
X173663095Y-67319523D01*
X173615476Y-67129047D01*
X173615476Y-66795714D01*
X173663095Y-66605238D01*
X173758333Y-66510000D01*
X173853571Y-66462380D01*
X174044047Y-66462380D01*
X174139285Y-66510000D01*
X174234523Y-66605238D01*
X174282142Y-66795714D01*
X174282142Y-67129047D01*
X174234523Y-67319523D01*
X174139285Y-67414761D01*
X174044047Y-67462380D01*
X173853571Y-67462380D01*
X175139285Y-66795714D02*
X175139285Y-67462380D01*
X174901190Y-66414761D02*
X174663095Y-67129047D01*
X175282142Y-67129047D01*
D11*
X171180000Y-85180000D02*
X171180000Y-81280000D01*
X169180000Y-85180000D02*
X171180000Y-85180000D01*
X169180000Y-85180000D02*
X169180000Y-81280000D01*
X120442258Y-85612500D02*
X119967742Y-85612500D01*
X120442258Y-84567500D02*
X119967742Y-84567500D01*
X173580000Y-89660000D02*
X173580000Y-86360000D01*
X173580000Y-86360000D02*
X168180000Y-86360000D01*
X173580000Y-89660000D02*
X168180000Y-89660000D01*
X107950000Y-68580000D02*
X115570000Y-68580000D01*
X109220000Y-53340000D02*
X109220000Y-68580000D01*
X107950000Y-53340000D02*
X107950000Y-68580000D01*
X115570000Y-53340000D02*
X115570000Y-68580000D01*
X107950000Y-53340000D02*
X115570000Y-53340000D01*
X178322500Y-91202742D02*
X178322500Y-91677258D01*
X177277500Y-91202742D02*
X177277500Y-91677258D01*
X155195000Y-63620000D02*
X153695000Y-63620000D01*
X155195000Y-53220000D02*
X153695000Y-53220000D01*
X153695000Y-55030000D02*
X148570000Y-55030000D01*
X153695000Y-63620000D02*
X153695000Y-61810000D01*
X153695000Y-61810000D02*
X152595000Y-61810000D01*
X153695000Y-53220000D02*
X153695000Y-55030000D01*
X174525000Y-83157064D02*
X174525000Y-82702936D01*
X175995000Y-83157064D02*
X175995000Y-82702936D01*
X120442258Y-95997500D02*
X119967742Y-95997500D01*
X120442258Y-97042500D02*
X119967742Y-97042500D01*
X167117500Y-82692742D02*
X167117500Y-83167258D01*
X168162500Y-82692742D02*
X168162500Y-83167258D01*
X153400000Y-85180000D02*
X153400000Y-81280000D01*
X151400000Y-85180000D02*
X151400000Y-81280000D01*
X151400000Y-85180000D02*
X153400000Y-85180000D01*
X121185000Y-62002936D02*
X121185000Y-62457064D01*
X122655000Y-62002936D02*
X122655000Y-62457064D01*
X171475000Y-63620000D02*
X171475000Y-61810000D01*
X171475000Y-55030000D02*
X166350000Y-55030000D01*
X172975000Y-63620000D02*
X171475000Y-63620000D01*
X171475000Y-53220000D02*
X171475000Y-55030000D01*
X171475000Y-61810000D02*
X170375000Y-61810000D01*
X172975000Y-53220000D02*
X171475000Y-53220000D01*
X156745000Y-86967064D02*
X156745000Y-86512936D01*
X158215000Y-86967064D02*
X158215000Y-86512936D01*
X111987064Y-84555000D02*
X111532936Y-84555000D01*
X111987064Y-83085000D02*
X111532936Y-83085000D01*
X111987064Y-95785000D02*
X111532936Y-95785000D01*
X111987064Y-97255000D02*
X111532936Y-97255000D01*
X155850000Y-83641252D02*
X155850000Y-82218748D01*
X154030000Y-83641252D02*
X154030000Y-82218748D01*
X120115000Y-62002936D02*
X120115000Y-62457064D01*
X118645000Y-62002936D02*
X118645000Y-62457064D01*
X158215000Y-83157064D02*
X158215000Y-82702936D01*
X156745000Y-83157064D02*
X156745000Y-82702936D01*
X155800000Y-89660000D02*
X155800000Y-86360000D01*
X155800000Y-86360000D02*
X150400000Y-86360000D01*
X155800000Y-89660000D02*
X150400000Y-89660000D01*
X150382500Y-82692742D02*
X150382500Y-83167258D01*
X149337500Y-82692742D02*
X149337500Y-83167258D01*
X111820000Y-114360000D02*
X110490000Y-114360000D01*
X111820000Y-111760000D02*
X109160000Y-111760000D01*
X111820000Y-111760000D02*
X111820000Y-109160000D01*
X111820000Y-113030000D02*
X111820000Y-114360000D01*
X111820000Y-109160000D02*
X109160000Y-109160000D01*
X109160000Y-111760000D02*
X109160000Y-109160000D01*
X157260000Y-93640000D02*
X157660000Y-93640000D01*
X175360000Y-107840000D02*
X175360000Y-114640000D01*
X126760000Y-93640000D02*
X127160000Y-93640000D01*
X152160000Y-114640000D02*
X152560000Y-114640000D01*
X172560000Y-114640000D02*
X172960000Y-114640000D01*
X169960000Y-114640000D02*
X170360000Y-114640000D01*
X134460000Y-93640000D02*
X134860000Y-93640000D01*
X127027000Y-114640000D02*
X127027000Y-111633000D01*
X124360000Y-114640000D02*
X124660000Y-114640000D01*
X149660000Y-93640000D02*
X150060000Y-93640000D01*
X136960000Y-93640000D02*
X137360000Y-93640000D01*
X162360000Y-93640000D02*
X162760000Y-93640000D01*
X124360000Y-93640000D02*
X124660000Y-93640000D01*
X175360000Y-105640000D02*
X175360000Y-105240000D01*
X172560000Y-93640000D02*
X172960000Y-93640000D01*
X131860000Y-93640000D02*
X132260000Y-93640000D01*
X142060000Y-114640000D02*
X142460000Y-114640000D01*
X144560000Y-93640000D02*
X144960000Y-93640000D01*
X142060000Y-93640000D02*
X142460000Y-93640000D01*
X154760000Y-114640000D02*
X155160000Y-114640000D01*
X139460000Y-114640000D02*
X139860000Y-114640000D01*
X175360000Y-103040000D02*
X175360000Y-102640000D01*
X129360000Y-93640000D02*
X129760000Y-93640000D01*
X149660000Y-114640000D02*
X150060000Y-114640000D01*
X126760000Y-114640000D02*
X127160000Y-114640000D01*
X127027000Y-111633000D02*
X124360000Y-111633000D01*
X147160000Y-93640000D02*
X147560000Y-93640000D01*
X175360000Y-93640000D02*
X175360000Y-100440000D01*
X139460000Y-93640000D02*
X139860000Y-93640000D01*
X167460000Y-114640000D02*
X167860000Y-114640000D01*
X167460000Y-93640000D02*
X167860000Y-93640000D01*
X169960000Y-93640000D02*
X170360000Y-93640000D01*
X134460000Y-114640000D02*
X134860000Y-114640000D01*
X129360000Y-114640000D02*
X129760000Y-114640000D01*
X152160000Y-93640000D02*
X152560000Y-93640000D01*
X164960000Y-93640000D02*
X165360000Y-93640000D01*
X131860000Y-114640000D02*
X132260000Y-114640000D01*
X124360000Y-114640000D02*
X124360000Y-93640000D01*
X162360000Y-114640000D02*
X162760000Y-114640000D01*
X159860000Y-114640000D02*
X160260000Y-114640000D01*
X154760000Y-93640000D02*
X155160000Y-93640000D01*
X144560000Y-114640000D02*
X144960000Y-114640000D01*
X164960000Y-114640000D02*
X165360000Y-114640000D01*
X159860000Y-93640000D02*
X160260000Y-93640000D01*
X157260000Y-114640000D02*
X157660000Y-114640000D01*
X147160000Y-114640000D02*
X147560000Y-114640000D01*
X136960000Y-114640000D02*
X137360000Y-114640000D01*
X120442258Y-82027500D02*
X119967742Y-82027500D01*
X120442258Y-83072500D02*
X119967742Y-83072500D01*
X178322500Y-95012742D02*
X178322500Y-95487258D01*
X177277500Y-95012742D02*
X177277500Y-95487258D01*
X184150000Y-53340000D02*
X191770000Y-53340000D01*
X184150000Y-53340000D02*
X184150000Y-68580000D01*
X191770000Y-53340000D02*
X191770000Y-68580000D01*
X185420000Y-53340000D02*
X185420000Y-68580000D01*
X184150000Y-68580000D02*
X191770000Y-68580000D01*
X153695000Y-77050000D02*
X152595000Y-77050000D01*
X153695000Y-78860000D02*
X153695000Y-77050000D01*
X153695000Y-68460000D02*
X153695000Y-70270000D01*
X155195000Y-78860000D02*
X153695000Y-78860000D01*
X155195000Y-68460000D02*
X153695000Y-68460000D01*
X153695000Y-70270000D02*
X148570000Y-70270000D01*
X114570000Y-86300000D02*
X112335000Y-86300000D01*
X118805000Y-94040000D02*
X118805000Y-86300000D01*
X118805000Y-86300000D02*
X116570000Y-86300000D01*
X112335000Y-86300000D02*
X112335000Y-94040000D01*
X112335000Y-94040000D02*
X118805000Y-94040000D01*
X114570000Y-86300000D02*
G75*
G03*
X116570000Y-86300000I1000000J0D01*
G01*
X175995000Y-86967064D02*
X175995000Y-86512936D01*
X174525000Y-86967064D02*
X174525000Y-86512936D01*
X111987064Y-70385000D02*
X111532936Y-70385000D01*
X111987064Y-71855000D02*
X111532936Y-71855000D01*
X183150000Y-82490000D02*
X181700000Y-82490000D01*
X186600000Y-90230000D02*
X186600000Y-82490000D01*
X181700000Y-82490000D02*
X181700000Y-90230000D01*
X186600000Y-82490000D02*
X185150000Y-82490000D01*
X181700000Y-90230000D02*
X186600000Y-90230000D01*
X183150000Y-82490000D02*
G75*
G03*
X185150000Y-82490000I1000000J0D01*
G01*
X114570000Y-99000000D02*
X112335000Y-99000000D01*
X112335000Y-99000000D02*
X112335000Y-106740000D01*
X118805000Y-99000000D02*
X116570000Y-99000000D01*
X118805000Y-106740000D02*
X118805000Y-99000000D01*
X112335000Y-106740000D02*
X118805000Y-106740000D01*
X114570000Y-99000000D02*
G75*
G03*
X116570000Y-99000000I1000000J0D01*
G01*
X118805000Y-73600000D02*
X116570000Y-73600000D01*
X112335000Y-81340000D02*
X118805000Y-81340000D01*
X112335000Y-73600000D02*
X112335000Y-81340000D01*
X114570000Y-73600000D02*
X112335000Y-73600000D01*
X118805000Y-81340000D02*
X118805000Y-73600000D01*
X114570000Y-73600000D02*
G75*
G03*
X116570000Y-73600000I1000000J0D01*
G01*
X186630000Y-105410000D02*
X186630000Y-115630000D01*
X186630000Y-104140000D02*
X186630000Y-102810000D01*
X186630000Y-102810000D02*
X187960000Y-102810000D01*
X186630000Y-115630000D02*
X189290000Y-115630000D01*
X186630000Y-105410000D02*
X189290000Y-105410000D01*
X189290000Y-105410000D02*
X189290000Y-115630000D01*
X173630000Y-83641252D02*
X173630000Y-82218748D01*
X171810000Y-83641252D02*
X171810000Y-82218748D01*
X186600000Y-100390000D02*
X186600000Y-92650000D01*
X183150000Y-92650000D02*
X181700000Y-92650000D01*
X181700000Y-100390000D02*
X186600000Y-100390000D01*
X181700000Y-92650000D02*
X181700000Y-100390000D01*
X186600000Y-92650000D02*
X185150000Y-92650000D01*
X183150000Y-92650000D02*
G75*
G03*
X185150000Y-92650000I1000000J0D01*
G01*
X125195000Y-62002936D02*
X125195000Y-62457064D01*
X123725000Y-62002936D02*
X123725000Y-62457064D01*
X147300000Y-87680000D02*
X147300000Y-53480000D01*
X127100000Y-53480000D02*
X127100000Y-87680000D01*
X140700000Y-53090000D02*
X138690000Y-53090000D01*
X127100000Y-87680000D02*
X147300000Y-87680000D01*
X147300000Y-53480000D02*
X127100000Y-53480000D01*
X171475000Y-78860000D02*
X171475000Y-77050000D01*
X171475000Y-68460000D02*
X171475000Y-70270000D01*
X171475000Y-70270000D02*
X166350000Y-70270000D01*
X172975000Y-68460000D02*
X171475000Y-68460000D01*
X171475000Y-77050000D02*
X170375000Y-77050000D01*
X172975000Y-78860000D02*
X171475000Y-78860000D01*
%LPC*%
D12*
X170180000Y-84580000D03*
X170180000Y-81280000D03*
D13*
X121030000Y-85090000D03*
X119380000Y-85090000D03*
D14*
X172180000Y-88010000D03*
X168180000Y-88010000D03*
D15*
X111760000Y-55880000D03*
D16*
X111760000Y-60960000D03*
X111760000Y-66040000D03*
D17*
X177800000Y-90615000D03*
X177800000Y-92265000D03*
D18*
X150870000Y-55880000D03*
D19*
X160020000Y-58420000D03*
D18*
X150870000Y-58420000D03*
X150870000Y-60960000D03*
D20*
X175260000Y-83842500D03*
X175260000Y-82017500D03*
D13*
X121030000Y-96520000D03*
X119380000Y-96520000D03*
D17*
X167640000Y-82105000D03*
X167640000Y-83755000D03*
D12*
X152400000Y-84580000D03*
X152400000Y-81280000D03*
D21*
X121920000Y-61317500D03*
X121920000Y-63142500D03*
D18*
X168650000Y-55880000D03*
X168650000Y-58420000D03*
D19*
X177800000Y-58420000D03*
D18*
X168650000Y-60960000D03*
D20*
X157480000Y-87652500D03*
X157480000Y-85827500D03*
D22*
X112672500Y-83820000D03*
X110847500Y-83820000D03*
X112672500Y-96520000D03*
X110847500Y-96520000D03*
D23*
X154940000Y-84405000D03*
X154940000Y-81455000D03*
D21*
X119380000Y-61317500D03*
X119380000Y-63142500D03*
D20*
X157480000Y-83842500D03*
X157480000Y-82017500D03*
D14*
X154400000Y-88010000D03*
X150400000Y-88010000D03*
D17*
X149860000Y-82105000D03*
X149860000Y-83755000D03*
D24*
X110490000Y-113030000D03*
D25*
X110490000Y-110490000D03*
D26*
X125860000Y-106865000D03*
X125860000Y-101415000D03*
D27*
X128890000Y-106565000D03*
X128890000Y-101715000D03*
D25*
X125730000Y-113030000D03*
D28*
X125730000Y-113930000D03*
D25*
X128270000Y-113030000D03*
D28*
X128270000Y-113930000D03*
X130810000Y-113930000D03*
D24*
X130810000Y-113030000D03*
D25*
X133350000Y-113030000D03*
D28*
X133350000Y-113930000D03*
D25*
X135890000Y-113030000D03*
D28*
X135890000Y-113930000D03*
D25*
X138430000Y-113030000D03*
D28*
X138430000Y-113930000D03*
X140970000Y-113930000D03*
D25*
X140970000Y-113030000D03*
D24*
X143510000Y-113030000D03*
D28*
X143510000Y-113930000D03*
D25*
X146050000Y-113030000D03*
D28*
X146050000Y-113930000D03*
D25*
X148590000Y-113030000D03*
D28*
X148590000Y-113930000D03*
D25*
X151130000Y-113030000D03*
D28*
X151130000Y-113930000D03*
D25*
X153670000Y-113030000D03*
D28*
X153670000Y-113930000D03*
X156210000Y-113930000D03*
D24*
X156210000Y-113030000D03*
D28*
X158750000Y-113930000D03*
D25*
X158750000Y-113030000D03*
D28*
X161290000Y-113930000D03*
D25*
X161290000Y-113030000D03*
X163830000Y-113030000D03*
D28*
X163830000Y-113930000D03*
X166370000Y-113930000D03*
D25*
X166370000Y-113030000D03*
D24*
X168910000Y-113030000D03*
D28*
X168910000Y-113930000D03*
X171450000Y-113930000D03*
D25*
X171450000Y-113030000D03*
D28*
X173990000Y-113930000D03*
D25*
X173990000Y-113030000D03*
D28*
X173990000Y-94350000D03*
D25*
X173990000Y-95250000D03*
X171450000Y-95250000D03*
D28*
X171450000Y-94350000D03*
X168910000Y-94350000D03*
D24*
X168910000Y-95250000D03*
D25*
X166370000Y-95250000D03*
D28*
X166370000Y-94350000D03*
X163830000Y-94350000D03*
D25*
X163830000Y-95250000D03*
X161290000Y-95250000D03*
D28*
X161290000Y-94350000D03*
X158750000Y-94350000D03*
D25*
X158750000Y-95250000D03*
D28*
X156210000Y-94350000D03*
D24*
X156210000Y-95250000D03*
D25*
X153670000Y-95250000D03*
D28*
X153670000Y-94350000D03*
X151130000Y-94350000D03*
D25*
X151130000Y-95250000D03*
X148590000Y-95250000D03*
D28*
X148590000Y-94350000D03*
X146050000Y-94350000D03*
D25*
X146050000Y-95250000D03*
D24*
X143510000Y-95250000D03*
D28*
X143510000Y-94350000D03*
D25*
X140970000Y-95250000D03*
D28*
X140970000Y-94350000D03*
D25*
X138430000Y-95250000D03*
D28*
X138430000Y-94350000D03*
D25*
X135890000Y-95250000D03*
D28*
X135890000Y-94350000D03*
D25*
X133350000Y-95250000D03*
D28*
X133350000Y-94350000D03*
X130810000Y-94350000D03*
D24*
X130810000Y-95250000D03*
D28*
X128270000Y-94350000D03*
D25*
X128270000Y-95250000D03*
D28*
X125730000Y-94350000D03*
D25*
X125730000Y-95250000D03*
D29*
X174660000Y-106680000D03*
D25*
X173760000Y-106680000D03*
D29*
X174660000Y-104140000D03*
D24*
X173760000Y-104140000D03*
D25*
X173760000Y-101600000D03*
D29*
X174660000Y-101600000D03*
D13*
X121030000Y-82550000D03*
X119380000Y-82550000D03*
D17*
X177800000Y-94425000D03*
X177800000Y-96075000D03*
D15*
X187960000Y-55880000D03*
D16*
X187960000Y-60960000D03*
X187960000Y-66040000D03*
D18*
X150870000Y-71120000D03*
X150870000Y-73660000D03*
D19*
X160020000Y-73660000D03*
D18*
X150870000Y-76200000D03*
D30*
X110805000Y-87630000D03*
X110805000Y-90170000D03*
X110805000Y-92710000D03*
X120335000Y-92710000D03*
X120335000Y-90170000D03*
X120335000Y-87630000D03*
D20*
X175260000Y-87652500D03*
X175260000Y-85827500D03*
D22*
X112672500Y-71120000D03*
X110847500Y-71120000D03*
D30*
X180340000Y-83820000D03*
X180340000Y-86360000D03*
X180340000Y-88900000D03*
X187960000Y-88900000D03*
X187960000Y-86360000D03*
X187960000Y-83820000D03*
X110805000Y-100330000D03*
X110805000Y-102870000D03*
X110805000Y-105410000D03*
X120335000Y-105410000D03*
X120335000Y-102870000D03*
X120335000Y-100330000D03*
X110805000Y-74930000D03*
X110805000Y-77470000D03*
X110805000Y-80010000D03*
X120335000Y-80010000D03*
X120335000Y-77470000D03*
X120335000Y-74930000D03*
D24*
X187960000Y-104140000D03*
D25*
X187960000Y-106680000D03*
X187960000Y-109220000D03*
X187960000Y-111760000D03*
X187960000Y-114300000D03*
D23*
X172720000Y-84405000D03*
X172720000Y-81455000D03*
D30*
X180340000Y-93980000D03*
X180340000Y-96520000D03*
X180340000Y-99060000D03*
X187960000Y-99060000D03*
X187960000Y-96520000D03*
X187960000Y-93980000D03*
D21*
X124460000Y-61317500D03*
X124460000Y-63142500D03*
D31*
X139700000Y-55880000D03*
D32*
X134700000Y-55880000D03*
X144900000Y-85280000D03*
X129500000Y-85280000D03*
D18*
X168650000Y-71120000D03*
D19*
X177800000Y-73660000D03*
D18*
X168650000Y-73660000D03*
X168650000Y-76200000D03*
M02*
