M48
; DRILL file {KiCad (6.0.0)} date Wed May 18 17:52:34 2022
; FORMAT={-:-/ absolute / metric / decimal}
; #@! TF.CreationDate,2022-05-18T17:52:34+02:00
; #@! TF.GenerationSoftware,Kicad,Pcbnew,(6.0.0)
; #@! TF.FileFunction,Plated,1,2,PTH
FMAT,2
METRIC
; #@! TA.AperFunction,Plated,PTH,ViaDrill
T1C0.400
; #@! TA.AperFunction,Plated,PTH,ComponentDrill
T2C1.000
; #@! TA.AperFunction,Plated,PTH,ComponentDrill
T3C1.020
; #@! TA.AperFunction,Plated,PTH,ComponentDrill
T4C1.520
%
G90
G05
T1
X114.3Y-71.12
X114.3Y-83.82
X114.3Y-96.52
X118.11Y-81.28
X119.38Y-83.82
X119.38Y-95.25
X124.46Y-88.9
X124.46Y-99.06
X147.32Y-88.9
X149.86Y-53.34
X149.86Y-68.58
X149.86Y-78.74
X152.4Y-63.5
X152.4Y-78.74
X160.02Y-81.28
X165.1Y-88.9
X167.64Y-53.34
X167.64Y-68.58
X167.64Y-78.74
X170.18Y-63.5
X170.18Y-78.74
X176.53Y-99.06
X177.8Y-81.28
X190.5Y-86.36
X190.5Y-88.9
X190.5Y-96.52
X190.5Y-99.06
T2
X110.49Y-110.49
X110.49Y-113.03
X129.5Y-85.28
X134.7Y-55.88
X139.7Y-55.88
X144.9Y-85.28
X187.96Y-104.14
X187.96Y-106.68
X187.96Y-109.22
X187.96Y-111.76
X187.96Y-114.3
T3
X125.73Y-95.25
X125.73Y-113.03
X128.27Y-95.25
X128.27Y-113.03
X130.81Y-95.25
X130.81Y-113.03
X133.35Y-95.25
X133.35Y-113.03
X135.89Y-95.25
X135.89Y-113.03
X138.43Y-95.25
X138.43Y-113.03
X140.97Y-95.25
X140.97Y-113.03
X143.51Y-95.25
X143.51Y-113.03
X146.05Y-95.25
X146.05Y-113.03
X148.59Y-95.25
X148.59Y-113.03
X151.13Y-95.25
X151.13Y-113.03
X153.67Y-95.25
X153.67Y-113.03
X156.21Y-95.25
X156.21Y-113.03
X158.75Y-95.25
X158.75Y-113.03
X161.29Y-95.25
X161.29Y-113.03
X163.83Y-95.25
X163.83Y-113.03
X166.37Y-95.25
X166.37Y-113.03
X168.91Y-95.25
X168.91Y-113.03
X171.45Y-95.25
X171.45Y-113.03
X173.76Y-101.6
X173.76Y-104.14
X173.76Y-106.68
X173.99Y-95.25
X173.99Y-113.03
T4
X111.76Y-55.88
X111.76Y-60.96
X111.76Y-66.04
X187.96Y-55.88
X187.96Y-60.96
X187.96Y-66.04
T0
M30
