G04 #@! TF.GenerationSoftware,KiCad,Pcbnew,(6.0.0)*
G04 #@! TF.CreationDate,2022-05-18T17:51:48+02:00*
G04 #@! TF.ProjectId,prototype-3,70726f74-6f74-4797-9065-2d332e6b6963,rev?*
G04 #@! TF.SameCoordinates,Original*
G04 #@! TF.FileFunction,Copper,L2,Bot*
G04 #@! TF.FilePolarity,Positive*
%FSLAX46Y46*%
G04 Gerber Fmt 4.6, Leading zero omitted, Abs format (unit mm)*
G04 Created by KiCad (PCBNEW (6.0.0)) date 2022-05-18 17:51:48*
%MOMM*%
%LPD*%
G01*
G04 APERTURE LIST*
G04 #@! TA.AperFunction,ComponentPad*
%ADD10R,3.000000X3.000000*%
G04 #@! TD*
G04 #@! TA.AperFunction,ComponentPad*
%ADD11C,3.000000*%
G04 #@! TD*
G04 #@! TA.AperFunction,ComponentPad*
%ADD12R,1.700000X1.700000*%
G04 #@! TD*
G04 #@! TA.AperFunction,ComponentPad*
%ADD13O,1.700000X1.700000*%
G04 #@! TD*
G04 #@! TA.AperFunction,ComponentPad*
%ADD14R,2.000000X2.300000*%
G04 #@! TD*
G04 #@! TA.AperFunction,ComponentPad*
%ADD15C,2.300000*%
G04 #@! TD*
G04 #@! TA.AperFunction,ViaPad*
%ADD16C,0.800000*%
G04 #@! TD*
G04 #@! TA.AperFunction,Conductor*
%ADD17C,0.250000*%
G04 #@! TD*
G04 #@! TA.AperFunction,Conductor*
%ADD18C,1.000000*%
G04 #@! TD*
G04 APERTURE END LIST*
D10*
X111760000Y-55880000D03*
D11*
X111760000Y-60960000D03*
X111760000Y-66040000D03*
D12*
X110490000Y-113030000D03*
D13*
X110490000Y-110490000D03*
X125730000Y-113030000D03*
X128270000Y-113030000D03*
D12*
X130810000Y-113030000D03*
D13*
X133350000Y-113030000D03*
X135890000Y-113030000D03*
X138430000Y-113030000D03*
X140970000Y-113030000D03*
D12*
X143510000Y-113030000D03*
D13*
X146050000Y-113030000D03*
X148590000Y-113030000D03*
X151130000Y-113030000D03*
X153670000Y-113030000D03*
D12*
X156210000Y-113030000D03*
D13*
X158750000Y-113030000D03*
X161290000Y-113030000D03*
X163830000Y-113030000D03*
X166370000Y-113030000D03*
D12*
X168910000Y-113030000D03*
D13*
X171450000Y-113030000D03*
X173990000Y-113030000D03*
X173990000Y-95250000D03*
X171450000Y-95250000D03*
D12*
X168910000Y-95250000D03*
D13*
X166370000Y-95250000D03*
X163830000Y-95250000D03*
X161290000Y-95250000D03*
X158750000Y-95250000D03*
D12*
X156210000Y-95250000D03*
D13*
X153670000Y-95250000D03*
X151130000Y-95250000D03*
X148590000Y-95250000D03*
X146050000Y-95250000D03*
D12*
X143510000Y-95250000D03*
D13*
X140970000Y-95250000D03*
X138430000Y-95250000D03*
X135890000Y-95250000D03*
X133350000Y-95250000D03*
D12*
X130810000Y-95250000D03*
D13*
X128270000Y-95250000D03*
X125730000Y-95250000D03*
X173760000Y-106680000D03*
D12*
X173760000Y-104140000D03*
D13*
X173760000Y-101600000D03*
D10*
X187960000Y-55880000D03*
D11*
X187960000Y-60960000D03*
X187960000Y-66040000D03*
D12*
X187960000Y-104140000D03*
D13*
X187960000Y-106680000D03*
X187960000Y-109220000D03*
X187960000Y-111760000D03*
X187960000Y-114300000D03*
D14*
X139700000Y-55880000D03*
D15*
X134700000Y-55880000D03*
X144900000Y-85280000D03*
X129500000Y-85280000D03*
D16*
X177800000Y-81280000D03*
X190500000Y-86360000D03*
X170180000Y-63500000D03*
X170180000Y-78740000D03*
X114300000Y-71120000D03*
X165100000Y-88900000D03*
X114300000Y-83820000D03*
X147320000Y-88900000D03*
X114300000Y-96520000D03*
X118110000Y-81280000D03*
X124460000Y-99060000D03*
X176530000Y-99060000D03*
X149860000Y-53340000D03*
X190500000Y-99060000D03*
X149860000Y-68580000D03*
X149860000Y-78740000D03*
X167640000Y-53340000D03*
X167640000Y-78740000D03*
X167640000Y-68580000D03*
X190500000Y-88900000D03*
X160020000Y-81280000D03*
X190500000Y-96520000D03*
X152400000Y-63500000D03*
X152400000Y-78740000D03*
X124460000Y-88900000D03*
X119380000Y-95250000D03*
X119380000Y-83820000D03*
D17*
X177800000Y-81280000D02*
X185420000Y-81280000D01*
X185420000Y-81280000D02*
X190500000Y-86360000D01*
D18*
X170180000Y-78740000D02*
X170180000Y-63500000D01*
D17*
X147320000Y-88900000D02*
X165100000Y-88900000D01*
X115570000Y-69850000D02*
X114300000Y-71120000D01*
X147320000Y-81280000D02*
X147320000Y-68500000D01*
X114300000Y-83820000D02*
X114300000Y-96520000D01*
X114300000Y-83820000D02*
X114300000Y-71120000D01*
X148590000Y-82550000D02*
X147320000Y-81280000D01*
X148590000Y-87630000D02*
X148590000Y-82550000D01*
X147320000Y-68500000D02*
X134700000Y-55880000D01*
X147320000Y-88900000D02*
X148590000Y-87630000D01*
X115570000Y-57150000D02*
X114300000Y-55880000D01*
X115570000Y-57150000D02*
X115570000Y-69850000D01*
X114300000Y-55880000D02*
X111760000Y-55880000D01*
X139250480Y-108770480D02*
X130810000Y-100330000D01*
X136970000Y-85280000D02*
X132970000Y-81280000D01*
X130810000Y-100330000D02*
X130810000Y-95250000D01*
X130810000Y-91440000D02*
X136970000Y-85280000D01*
X130810000Y-95250000D02*
X130810000Y-91440000D01*
X185869520Y-108770480D02*
X139250480Y-108770480D01*
X132970000Y-81280000D02*
X118110000Y-81280000D01*
X187960000Y-106680000D02*
X185869520Y-108770480D01*
X136970000Y-85280000D02*
X144900000Y-85280000D01*
X123190000Y-99060000D02*
X111760000Y-110490000D01*
X123190000Y-91590000D02*
X129500000Y-85280000D01*
X123190000Y-99060000D02*
X123190000Y-91590000D01*
X187960000Y-104140000D02*
X181610000Y-104140000D01*
X181610000Y-104140000D02*
X176530000Y-99060000D01*
X111760000Y-110490000D02*
X110490000Y-110490000D01*
X124460000Y-99060000D02*
X123190000Y-99060000D01*
X111760000Y-113030000D02*
X110490000Y-113030000D01*
X128270000Y-95250000D02*
X128270000Y-96520000D01*
X128270000Y-96520000D02*
X111760000Y-113030000D01*
X171450000Y-88900000D02*
X180340000Y-88900000D01*
X190500000Y-99060000D02*
X180340000Y-88900000D01*
X154940000Y-83820000D02*
X166370000Y-83820000D01*
X149860000Y-53340000D02*
X149860000Y-68580000D01*
X149860000Y-68580000D02*
X149860000Y-78740000D01*
X154940000Y-83820000D02*
X149860000Y-78740000D01*
X171450000Y-88900000D02*
X166370000Y-83820000D01*
X167640000Y-68580000D02*
X167640000Y-78740000D01*
X167640000Y-53340000D02*
X167640000Y-68580000D01*
X172720000Y-83820000D02*
X185420000Y-83820000D01*
X167640000Y-78740000D02*
X172720000Y-83820000D01*
X185420000Y-83820000D02*
X190500000Y-88900000D01*
X166370000Y-81280000D02*
X171450000Y-86360000D01*
X180340000Y-86360000D02*
X190500000Y-96520000D01*
X171450000Y-86360000D02*
X180340000Y-86360000D01*
X160020000Y-81280000D02*
X166370000Y-81280000D01*
D18*
X152400000Y-63500000D02*
X152400000Y-78740000D01*
D17*
X119380000Y-95250000D02*
X119380000Y-83820000D01*
X119380000Y-88900000D02*
X124460000Y-88900000D01*
X138430000Y-109220000D02*
X135890000Y-111760000D01*
X135890000Y-111760000D02*
X135890000Y-113030000D01*
X187960000Y-109220000D02*
X138430000Y-109220000D01*
X140149520Y-110040480D02*
X138430000Y-111760000D01*
X138430000Y-111760000D02*
X138430000Y-113030000D01*
X182880000Y-111760000D02*
X181160480Y-110040480D01*
X187960000Y-111760000D02*
X182880000Y-111760000D01*
X181160480Y-110040480D02*
X140149520Y-110040480D01*
X142240000Y-110490000D02*
X140970000Y-111760000D01*
X140970000Y-111760000D02*
X140970000Y-113030000D01*
X184150000Y-114300000D02*
X180340000Y-110490000D01*
X180340000Y-110490000D02*
X142240000Y-110490000D01*
X187960000Y-114300000D02*
X184150000Y-114300000D01*
M02*
