G04 #@! TF.GenerationSoftware,KiCad,Pcbnew,(6.0.0)*
G04 #@! TF.CreationDate,2022-05-18T17:51:48+02:00*
G04 #@! TF.ProjectId,prototype-3,70726f74-6f74-4797-9065-2d332e6b6963,rev?*
G04 #@! TF.SameCoordinates,Original*
G04 #@! TF.FileFunction,Paste,Top*
G04 #@! TF.FilePolarity,Positive*
%FSLAX46Y46*%
G04 Gerber Fmt 4.6, Leading zero omitted, Abs format (unit mm)*
G04 Created by KiCad (PCBNEW (6.0.0)) date 2022-05-18 17:51:48*
%MOMM*%
%LPD*%
G01*
G04 APERTURE LIST*
G04 Aperture macros list*
%AMRoundRect*
0 Rectangle with rounded corners*
0 $1 Rounding radius*
0 $2 $3 $4 $5 $6 $7 $8 $9 X,Y pos of 4 corners*
0 Add a 4 corners polygon primitive as box body*
4,1,4,$2,$3,$4,$5,$6,$7,$8,$9,$2,$3,0*
0 Add four circle primitives for the rounded corners*
1,1,$1+$1,$2,$3*
1,1,$1+$1,$4,$5*
1,1,$1+$1,$6,$7*
1,1,$1+$1,$8,$9*
0 Add four rect primitives between the rounded corners*
20,1,$1+$1,$2,$3,$4,$5,0*
20,1,$1+$1,$4,$5,$6,$7,0*
20,1,$1+$1,$6,$7,$8,$9,0*
20,1,$1+$1,$8,$9,$2,$3,0*%
G04 Aperture macros list end*
%ADD10R,1.200000X0.900000*%
%ADD11RoundRect,0.200000X0.200000X0.275000X-0.200000X0.275000X-0.200000X-0.275000X0.200000X-0.275000X0*%
%ADD12R,2.500000X1.800000*%
%ADD13RoundRect,0.200000X-0.275000X0.200000X-0.275000X-0.200000X0.275000X-0.200000X0.275000X0.200000X0*%
%ADD14R,4.550000X5.250000*%
%ADD15R,4.600000X1.100000*%
%ADD16RoundRect,0.250000X0.450000X-0.262500X0.450000X0.262500X-0.450000X0.262500X-0.450000X-0.262500X0*%
%ADD17RoundRect,0.250000X-0.450000X0.262500X-0.450000X-0.262500X0.450000X-0.262500X0.450000X0.262500X0*%
%ADD18RoundRect,0.250000X0.262500X0.450000X-0.262500X0.450000X-0.262500X-0.450000X0.262500X-0.450000X0*%
%ADD19RoundRect,0.250000X0.650000X-0.325000X0.650000X0.325000X-0.650000X0.325000X-0.650000X-0.325000X0*%
%ADD20R,2.000000X1.780000*%
G04 APERTURE END LIST*
D10*
X170180000Y-84580000D03*
X170180000Y-81280000D03*
D11*
X121030000Y-85090000D03*
X119380000Y-85090000D03*
D12*
X172180000Y-88010000D03*
X168180000Y-88010000D03*
D13*
X177800000Y-90615000D03*
X177800000Y-92265000D03*
D14*
X157595000Y-61195000D03*
X157595000Y-55645000D03*
X162445000Y-55645000D03*
X162445000Y-61195000D03*
D15*
X150870000Y-55880000D03*
X150870000Y-58420000D03*
X150870000Y-60960000D03*
D16*
X175260000Y-83842500D03*
X175260000Y-82017500D03*
D11*
X121030000Y-96520000D03*
X119380000Y-96520000D03*
D13*
X167640000Y-82105000D03*
X167640000Y-83755000D03*
D10*
X152400000Y-84580000D03*
X152400000Y-81280000D03*
D17*
X121920000Y-61317500D03*
X121920000Y-63142500D03*
D14*
X180225000Y-55645000D03*
X175375000Y-55645000D03*
X180225000Y-61195000D03*
X175375000Y-61195000D03*
D15*
X168650000Y-55880000D03*
X168650000Y-58420000D03*
X168650000Y-60960000D03*
D16*
X157480000Y-87652500D03*
X157480000Y-85827500D03*
D18*
X112672500Y-83820000D03*
X110847500Y-83820000D03*
X112672500Y-96520000D03*
X110847500Y-96520000D03*
D19*
X154940000Y-84405000D03*
X154940000Y-81455000D03*
D17*
X119380000Y-61317500D03*
X119380000Y-63142500D03*
D16*
X157480000Y-83842500D03*
X157480000Y-82017500D03*
D12*
X154400000Y-88010000D03*
X150400000Y-88010000D03*
D13*
X149860000Y-82105000D03*
X149860000Y-83755000D03*
D11*
X121030000Y-82550000D03*
X119380000Y-82550000D03*
D13*
X177800000Y-94425000D03*
X177800000Y-96075000D03*
D14*
X162445000Y-76435000D03*
X162445000Y-70885000D03*
X157595000Y-76435000D03*
X157595000Y-70885000D03*
D15*
X150870000Y-71120000D03*
X150870000Y-73660000D03*
X150870000Y-76200000D03*
D20*
X110805000Y-87630000D03*
X110805000Y-90170000D03*
X110805000Y-92710000D03*
X120335000Y-92710000D03*
X120335000Y-90170000D03*
X120335000Y-87630000D03*
D16*
X175260000Y-87652500D03*
X175260000Y-85827500D03*
D18*
X112672500Y-71120000D03*
X110847500Y-71120000D03*
D20*
X180340000Y-83820000D03*
X180340000Y-86360000D03*
X180340000Y-88900000D03*
X187960000Y-88900000D03*
X187960000Y-86360000D03*
X187960000Y-83820000D03*
X110805000Y-100330000D03*
X110805000Y-102870000D03*
X110805000Y-105410000D03*
X120335000Y-105410000D03*
X120335000Y-102870000D03*
X120335000Y-100330000D03*
X110805000Y-74930000D03*
X110805000Y-77470000D03*
X110805000Y-80010000D03*
X120335000Y-80010000D03*
X120335000Y-77470000D03*
X120335000Y-74930000D03*
D19*
X172720000Y-84405000D03*
X172720000Y-81455000D03*
D20*
X180340000Y-93980000D03*
X180340000Y-96520000D03*
X180340000Y-99060000D03*
X187960000Y-99060000D03*
X187960000Y-96520000D03*
X187960000Y-93980000D03*
D17*
X124460000Y-61317500D03*
X124460000Y-63142500D03*
D14*
X175375000Y-70885000D03*
X175375000Y-76435000D03*
X180225000Y-76435000D03*
X180225000Y-70885000D03*
D15*
X168650000Y-71120000D03*
X168650000Y-73660000D03*
X168650000Y-76200000D03*
M02*
