G04 #@! TF.GenerationSoftware,KiCad,Pcbnew,(6.0.0-0)*
G04 #@! TF.CreationDate,2022-03-09T14:35:56+01:00*
G04 #@! TF.ProjectId,prototype-2,70726f74-6f74-4797-9065-2d322e6b6963,rev?*
G04 #@! TF.SameCoordinates,Original*
G04 #@! TF.FileFunction,Copper,L2,Bot*
G04 #@! TF.FilePolarity,Positive*
%FSLAX46Y46*%
G04 Gerber Fmt 4.6, Leading zero omitted, Abs format (unit mm)*
G04 Created by KiCad (PCBNEW (6.0.0-0)) date 2022-03-09 14:35:56*
%MOMM*%
%LPD*%
G01*
G04 APERTURE LIST*
G04 #@! TA.AperFunction,ComponentPad*
%ADD10R,3.000000X3.000000*%
G04 #@! TD*
G04 #@! TA.AperFunction,ComponentPad*
%ADD11C,3.000000*%
G04 #@! TD*
G04 #@! TA.AperFunction,ComponentPad*
%ADD12R,1.700000X1.700000*%
G04 #@! TD*
G04 #@! TA.AperFunction,ComponentPad*
%ADD13O,1.700000X1.700000*%
G04 #@! TD*
G04 #@! TA.AperFunction,ComponentPad*
%ADD14R,2.300000X2.000000*%
G04 #@! TD*
G04 #@! TA.AperFunction,ComponentPad*
%ADD15C,2.300000*%
G04 #@! TD*
G04 #@! TA.AperFunction,ViaPad*
%ADD16C,0.800000*%
G04 #@! TD*
G04 #@! TA.AperFunction,Conductor*
%ADD17C,0.250000*%
G04 #@! TD*
G04 APERTURE END LIST*
D10*
X187125000Y-99060000D03*
D11*
X187125000Y-93980000D03*
X187125000Y-88900000D03*
X187125000Y-83820000D03*
D12*
X111125000Y-95250000D03*
D13*
X111125000Y-97790000D03*
X111125000Y-100330000D03*
X111125000Y-102870000D03*
X111125000Y-105410000D03*
X111125000Y-107950000D03*
X111125000Y-110490000D03*
D10*
X187125000Y-114300000D03*
D11*
X187125000Y-109220000D03*
D14*
X159342500Y-66000000D03*
D15*
X159342500Y-61000000D03*
X129942500Y-71200000D03*
X129942500Y-55800000D03*
D10*
X187125000Y-73660000D03*
D11*
X187125000Y-68580000D03*
X187125000Y-63500000D03*
X187125000Y-58420000D03*
D16*
X113665000Y-80010000D03*
X116840000Y-92710000D03*
X116840000Y-80010000D03*
X142875000Y-83185000D03*
X113665000Y-107950000D03*
X113665000Y-102870000D03*
X156730000Y-96520000D03*
X163080000Y-81280000D03*
X163080000Y-85090000D03*
X166890000Y-91440000D03*
X134620000Y-53340000D03*
X134620000Y-60960000D03*
X163080000Y-80010000D03*
D17*
X113665000Y-102870000D02*
X113665000Y-80010000D01*
X116840000Y-92710000D02*
X116840000Y-80010000D01*
X138430000Y-83185000D02*
X142875000Y-83185000D01*
X113665000Y-107950000D02*
X138430000Y-83185000D01*
X187125000Y-88900000D02*
X189230000Y-88900000D01*
X189230000Y-88900000D02*
X191135000Y-86995000D01*
X191135000Y-81915000D02*
X189230000Y-80010000D01*
X191135000Y-86995000D02*
X191135000Y-81915000D01*
X189230000Y-80010000D02*
X163080000Y-80010000D01*
X163080000Y-81280000D02*
X184100000Y-81280000D01*
X184100000Y-81280000D02*
X186640000Y-83820000D01*
X186640000Y-83820000D02*
X187125000Y-83820000D01*
X156730000Y-95250000D02*
X156730000Y-96520000D01*
X163080000Y-88900000D02*
X156730000Y-95250000D01*
X163093750Y-73660000D02*
X187125000Y-73660000D01*
X159342500Y-66000000D02*
X159342500Y-69908750D01*
X159342500Y-69908750D02*
X163093750Y-73660000D01*
X163080000Y-88900000D02*
X165620000Y-91440000D01*
X163080000Y-85090000D02*
X163080000Y-88900000D01*
X165620000Y-91440000D02*
X166890000Y-91440000D01*
X190500000Y-54175000D02*
X189665000Y-53340000D01*
X187125000Y-63500000D02*
X189665000Y-63500000D01*
X190500000Y-62665000D02*
X190500000Y-54175000D01*
X189665000Y-53340000D02*
X134620000Y-53340000D01*
X189665000Y-63500000D02*
X190500000Y-62665000D01*
X161922500Y-58420000D02*
X159342500Y-61000000D01*
X134620000Y-60960000D02*
X134660000Y-61000000D01*
X187125000Y-58420000D02*
X161922500Y-58420000D01*
X134660000Y-61000000D02*
X159342500Y-61000000D01*
M02*
