%FSLAX45Y45*%
G04 Gerber Fmt 4.5, Leading zero omitted, Abs format (unit mm)*
G04 Created by KiCad (PCBNEW (6.0.0-0)) date 2022-03-09 14:39:02*
%MOMM*%
%LPD*%
G01*
G04 APERTURE LIST*
%TA.AperFunction,Profile*%
%ADD10C,0.100000*%
%TD*%
%ADD11C,0.200000*%
%ADD12C,0.040000*%
%ADD13C,0.100000*%
%ADD14C,0.152000*%
G04 APERTURE END LIST*
D10*
X10636000Y-5080000D02*
X19336000Y-5080000D01*
X10636000Y-11880000D02*
X10636000Y-5080000D01*
X19336000Y-11880000D02*
X19336000Y-5080000D01*
X10636000Y-11880000D02*
X19336000Y-11880000D01*
D11*
D12*
X11346500Y-7981000D02*
X11386500Y-8021000D01*
X11386500Y-7981000D02*
X11346500Y-8021000D01*
X11346500Y-10267000D02*
X11386500Y-10307000D01*
X11386500Y-10267000D02*
X11346500Y-10307000D01*
X11346500Y-10775000D02*
X11386500Y-10815000D01*
X11386500Y-10775000D02*
X11346500Y-10815000D01*
X11664000Y-7981000D02*
X11704000Y-8021000D01*
X11704000Y-7981000D02*
X11664000Y-8021000D01*
X11664000Y-9251000D02*
X11704000Y-9291000D01*
X11704000Y-9251000D02*
X11664000Y-9291000D01*
X13442000Y-5314000D02*
X13482000Y-5354000D01*
X13482000Y-5314000D02*
X13442000Y-5354000D01*
X13442000Y-6076000D02*
X13482000Y-6116000D01*
X13482000Y-6076000D02*
X13442000Y-6116000D01*
X14267500Y-8298500D02*
X14307500Y-8338500D01*
X14307500Y-8298500D02*
X14267500Y-8338500D01*
X15653000Y-9632000D02*
X15693000Y-9672000D01*
X15693000Y-9632000D02*
X15653000Y-9672000D01*
X16288000Y-7981000D02*
X16328000Y-8021000D01*
X16328000Y-7981000D02*
X16288000Y-8021000D01*
X16288000Y-8108000D02*
X16328000Y-8148000D01*
X16328000Y-8108000D02*
X16288000Y-8148000D01*
X16288000Y-8489000D02*
X16328000Y-8529000D01*
X16328000Y-8489000D02*
X16288000Y-8529000D01*
X16669000Y-9124000D02*
X16709000Y-9164000D01*
X16709000Y-9124000D02*
X16669000Y-9164000D01*
D13*
X11162500Y-9525000D02*
G75*
G03*
X11162500Y-9525000I-50000J0D01*
G01*
X11162500Y-9779000D02*
G75*
G03*
X11162500Y-9779000I-50000J0D01*
G01*
X11162500Y-10033000D02*
G75*
G03*
X11162500Y-10033000I-50000J0D01*
G01*
X11162500Y-10287000D02*
G75*
G03*
X11162500Y-10287000I-50000J0D01*
G01*
X11162500Y-10541000D02*
G75*
G03*
X11162500Y-10541000I-50000J0D01*
G01*
X11162500Y-10795000D02*
G75*
G03*
X11162500Y-10795000I-50000J0D01*
G01*
X11162500Y-11049000D02*
G75*
G03*
X11162500Y-11049000I-50000J0D01*
G01*
X13044250Y-5580000D02*
G75*
G03*
X13044250Y-5580000I-50000J0D01*
G01*
X13044250Y-7120000D02*
G75*
G03*
X13044250Y-7120000I-50000J0D01*
G01*
X15984250Y-6100000D02*
G75*
G03*
X15984250Y-6100000I-50000J0D01*
G01*
X15984250Y-6600000D02*
G75*
G03*
X15984250Y-6600000I-50000J0D01*
G01*
D14*
X18712500Y-5766000D02*
X18712500Y-5918000D01*
X18636500Y-5842000D02*
X18788500Y-5842000D01*
X18712500Y-6274000D02*
X18712500Y-6426000D01*
X18636500Y-6350000D02*
X18788500Y-6350000D01*
X18712500Y-6782000D02*
X18712500Y-6934000D01*
X18636500Y-6858000D02*
X18788500Y-6858000D01*
X18712500Y-7290000D02*
X18712500Y-7442000D01*
X18636500Y-7366000D02*
X18788500Y-7366000D01*
X18712500Y-8306000D02*
X18712500Y-8458000D01*
X18636500Y-8382000D02*
X18788500Y-8382000D01*
X18712500Y-8814000D02*
X18712500Y-8966000D01*
X18636500Y-8890000D02*
X18788500Y-8890000D01*
X18712500Y-9322000D02*
X18712500Y-9474000D01*
X18636500Y-9398000D02*
X18788500Y-9398000D01*
X18712500Y-9830000D02*
X18712500Y-9982000D01*
X18636500Y-9906000D02*
X18788500Y-9906000D01*
X18712500Y-10846000D02*
X18712500Y-10998000D01*
X18636500Y-10922000D02*
X18788500Y-10922000D01*
X18712500Y-11354000D02*
X18712500Y-11506000D01*
X18636500Y-11430000D02*
X18788500Y-11430000D01*
D11*
X10888619Y-12195476D02*
X10888619Y-11995476D01*
X10936238Y-11995476D01*
X10964810Y-12005000D01*
X10983857Y-12024048D01*
X10993381Y-12043095D01*
X11002905Y-12081190D01*
X11002905Y-12109762D01*
X10993381Y-12147857D01*
X10983857Y-12166905D01*
X10964810Y-12185952D01*
X10936238Y-12195476D01*
X10888619Y-12195476D01*
X11088619Y-12195476D02*
X11088619Y-12062143D01*
X11088619Y-12100238D02*
X11098143Y-12081190D01*
X11107667Y-12071667D01*
X11126714Y-12062143D01*
X11145762Y-12062143D01*
X11212428Y-12195476D02*
X11212428Y-12062143D01*
X11212428Y-11995476D02*
X11202905Y-12005000D01*
X11212428Y-12014524D01*
X11221952Y-12005000D01*
X11212428Y-11995476D01*
X11212428Y-12014524D01*
X11336238Y-12195476D02*
X11317190Y-12185952D01*
X11307667Y-12166905D01*
X11307667Y-11995476D01*
X11441000Y-12195476D02*
X11421952Y-12185952D01*
X11412428Y-12166905D01*
X11412428Y-11995476D01*
X11669571Y-12195476D02*
X11669571Y-11995476D01*
X11736238Y-12138333D01*
X11802905Y-11995476D01*
X11802905Y-12195476D01*
X11983857Y-12195476D02*
X11983857Y-12090714D01*
X11974333Y-12071667D01*
X11955286Y-12062143D01*
X11917190Y-12062143D01*
X11898143Y-12071667D01*
X11983857Y-12185952D02*
X11964809Y-12195476D01*
X11917190Y-12195476D01*
X11898143Y-12185952D01*
X11888619Y-12166905D01*
X11888619Y-12147857D01*
X11898143Y-12128809D01*
X11917190Y-12119286D01*
X11964809Y-12119286D01*
X11983857Y-12109762D01*
X12079095Y-12062143D02*
X12079095Y-12262143D01*
X12079095Y-12071667D02*
X12098143Y-12062143D01*
X12136238Y-12062143D01*
X12155286Y-12071667D01*
X12164809Y-12081190D01*
X12174333Y-12100238D01*
X12174333Y-12157381D01*
X12164809Y-12176428D01*
X12155286Y-12185952D01*
X12136238Y-12195476D01*
X12098143Y-12195476D01*
X12079095Y-12185952D01*
X12260048Y-12176428D02*
X12269571Y-12185952D01*
X12260048Y-12195476D01*
X12250524Y-12185952D01*
X12260048Y-12176428D01*
X12260048Y-12195476D01*
X12260048Y-12071667D02*
X12269571Y-12081190D01*
X12260048Y-12090714D01*
X12250524Y-12081190D01*
X12260048Y-12071667D01*
X12260048Y-12090714D01*
D12*
X10591000Y-12505000D02*
X10631000Y-12545000D01*
X10631000Y-12505000D02*
X10591000Y-12545000D01*
D11*
X10926714Y-12415476D02*
X10945762Y-12415476D01*
X10964810Y-12425000D01*
X10974333Y-12434524D01*
X10983857Y-12453571D01*
X10993381Y-12491667D01*
X10993381Y-12539286D01*
X10983857Y-12577381D01*
X10974333Y-12596428D01*
X10964810Y-12605952D01*
X10945762Y-12615476D01*
X10926714Y-12615476D01*
X10907667Y-12605952D01*
X10898143Y-12596428D01*
X10888619Y-12577381D01*
X10879095Y-12539286D01*
X10879095Y-12491667D01*
X10888619Y-12453571D01*
X10898143Y-12434524D01*
X10907667Y-12425000D01*
X10926714Y-12415476D01*
X11079095Y-12596428D02*
X11088619Y-12605952D01*
X11079095Y-12615476D01*
X11069571Y-12605952D01*
X11079095Y-12596428D01*
X11079095Y-12615476D01*
X11260048Y-12482143D02*
X11260048Y-12615476D01*
X11212428Y-12405952D02*
X11164810Y-12548809D01*
X11288619Y-12548809D01*
X11402905Y-12415476D02*
X11421952Y-12415476D01*
X11441000Y-12425000D01*
X11450524Y-12434524D01*
X11460048Y-12453571D01*
X11469571Y-12491667D01*
X11469571Y-12539286D01*
X11460048Y-12577381D01*
X11450524Y-12596428D01*
X11441000Y-12605952D01*
X11421952Y-12615476D01*
X11402905Y-12615476D01*
X11383857Y-12605952D01*
X11374333Y-12596428D01*
X11364809Y-12577381D01*
X11355286Y-12539286D01*
X11355286Y-12491667D01*
X11364809Y-12453571D01*
X11374333Y-12434524D01*
X11383857Y-12425000D01*
X11402905Y-12415476D01*
X11593381Y-12415476D02*
X11612428Y-12415476D01*
X11631476Y-12425000D01*
X11641000Y-12434524D01*
X11650524Y-12453571D01*
X11660048Y-12491667D01*
X11660048Y-12539286D01*
X11650524Y-12577381D01*
X11641000Y-12596428D01*
X11631476Y-12605952D01*
X11612428Y-12615476D01*
X11593381Y-12615476D01*
X11574333Y-12605952D01*
X11564809Y-12596428D01*
X11555286Y-12577381D01*
X11545762Y-12539286D01*
X11545762Y-12491667D01*
X11555286Y-12453571D01*
X11564809Y-12434524D01*
X11574333Y-12425000D01*
X11593381Y-12415476D01*
X11745762Y-12615476D02*
X11745762Y-12482143D01*
X11745762Y-12501190D02*
X11755286Y-12491667D01*
X11774333Y-12482143D01*
X11802905Y-12482143D01*
X11821952Y-12491667D01*
X11831476Y-12510714D01*
X11831476Y-12615476D01*
X11831476Y-12510714D02*
X11841000Y-12491667D01*
X11860048Y-12482143D01*
X11888619Y-12482143D01*
X11907667Y-12491667D01*
X11917190Y-12510714D01*
X11917190Y-12615476D01*
X12012428Y-12615476D02*
X12012428Y-12482143D01*
X12012428Y-12501190D02*
X12021952Y-12491667D01*
X12041000Y-12482143D01*
X12069571Y-12482143D01*
X12088619Y-12491667D01*
X12098143Y-12510714D01*
X12098143Y-12615476D01*
X12098143Y-12510714D02*
X12107667Y-12491667D01*
X12126714Y-12482143D01*
X12155286Y-12482143D01*
X12174333Y-12491667D01*
X12183857Y-12510714D01*
X12183857Y-12615476D01*
X12574333Y-12405952D02*
X12402905Y-12663095D01*
X12831476Y-12415476D02*
X12850524Y-12415476D01*
X12869571Y-12425000D01*
X12879095Y-12434524D01*
X12888619Y-12453571D01*
X12898143Y-12491667D01*
X12898143Y-12539286D01*
X12888619Y-12577381D01*
X12879095Y-12596428D01*
X12869571Y-12605952D01*
X12850524Y-12615476D01*
X12831476Y-12615476D01*
X12812428Y-12605952D01*
X12802905Y-12596428D01*
X12793381Y-12577381D01*
X12783857Y-12539286D01*
X12783857Y-12491667D01*
X12793381Y-12453571D01*
X12802905Y-12434524D01*
X12812428Y-12425000D01*
X12831476Y-12415476D01*
X12983857Y-12596428D02*
X12993381Y-12605952D01*
X12983857Y-12615476D01*
X12974333Y-12605952D01*
X12983857Y-12596428D01*
X12983857Y-12615476D01*
X13117190Y-12415476D02*
X13136238Y-12415476D01*
X13155286Y-12425000D01*
X13164809Y-12434524D01*
X13174333Y-12453571D01*
X13183857Y-12491667D01*
X13183857Y-12539286D01*
X13174333Y-12577381D01*
X13164809Y-12596428D01*
X13155286Y-12605952D01*
X13136238Y-12615476D01*
X13117190Y-12615476D01*
X13098143Y-12605952D01*
X13088619Y-12596428D01*
X13079095Y-12577381D01*
X13069571Y-12539286D01*
X13069571Y-12491667D01*
X13079095Y-12453571D01*
X13088619Y-12434524D01*
X13098143Y-12425000D01*
X13117190Y-12415476D01*
X13374333Y-12615476D02*
X13260048Y-12615476D01*
X13317190Y-12615476D02*
X13317190Y-12415476D01*
X13298143Y-12444048D01*
X13279095Y-12463095D01*
X13260048Y-12472619D01*
X13555286Y-12415476D02*
X13460048Y-12415476D01*
X13450524Y-12510714D01*
X13460048Y-12501190D01*
X13479095Y-12491667D01*
X13526714Y-12491667D01*
X13545762Y-12501190D01*
X13555286Y-12510714D01*
X13564809Y-12529762D01*
X13564809Y-12577381D01*
X13555286Y-12596428D01*
X13545762Y-12605952D01*
X13526714Y-12615476D01*
X13479095Y-12615476D01*
X13460048Y-12605952D01*
X13450524Y-12596428D01*
X13631476Y-12415476D02*
X13764809Y-12415476D01*
X13679095Y-12615476D01*
X13831476Y-12415476D02*
X13831476Y-12453571D01*
X13907667Y-12415476D02*
X13907667Y-12453571D01*
X14202905Y-12691667D02*
X14193381Y-12682143D01*
X14174333Y-12653571D01*
X14164809Y-12634524D01*
X14155286Y-12605952D01*
X14145762Y-12558333D01*
X14145762Y-12520238D01*
X14155286Y-12472619D01*
X14164809Y-12444048D01*
X14174333Y-12425000D01*
X14193381Y-12396428D01*
X14202905Y-12386905D01*
X14383857Y-12615476D02*
X14269571Y-12615476D01*
X14326714Y-12615476D02*
X14326714Y-12415476D01*
X14307667Y-12444048D01*
X14288619Y-12463095D01*
X14269571Y-12472619D01*
X14450524Y-12415476D02*
X14574333Y-12415476D01*
X14507667Y-12491667D01*
X14536238Y-12491667D01*
X14555286Y-12501190D01*
X14564809Y-12510714D01*
X14574333Y-12529762D01*
X14574333Y-12577381D01*
X14564809Y-12596428D01*
X14555286Y-12605952D01*
X14536238Y-12615476D01*
X14479095Y-12615476D01*
X14460048Y-12605952D01*
X14450524Y-12596428D01*
X14812428Y-12615476D02*
X14812428Y-12415476D01*
X14898143Y-12615476D02*
X14898143Y-12510714D01*
X14888619Y-12491667D01*
X14869571Y-12482143D01*
X14841000Y-12482143D01*
X14821952Y-12491667D01*
X14812428Y-12501190D01*
X15021952Y-12615476D02*
X15002905Y-12605952D01*
X14993381Y-12596428D01*
X14983857Y-12577381D01*
X14983857Y-12520238D01*
X14993381Y-12501190D01*
X15002905Y-12491667D01*
X15021952Y-12482143D01*
X15050524Y-12482143D01*
X15069571Y-12491667D01*
X15079095Y-12501190D01*
X15088619Y-12520238D01*
X15088619Y-12577381D01*
X15079095Y-12596428D01*
X15069571Y-12605952D01*
X15050524Y-12615476D01*
X15021952Y-12615476D01*
X15202905Y-12615476D02*
X15183857Y-12605952D01*
X15174333Y-12586905D01*
X15174333Y-12415476D01*
X15355286Y-12605952D02*
X15336238Y-12615476D01*
X15298143Y-12615476D01*
X15279095Y-12605952D01*
X15269571Y-12586905D01*
X15269571Y-12510714D01*
X15279095Y-12491667D01*
X15298143Y-12482143D01*
X15336238Y-12482143D01*
X15355286Y-12491667D01*
X15364809Y-12510714D01*
X15364809Y-12529762D01*
X15269571Y-12548809D01*
X15441000Y-12605952D02*
X15460048Y-12615476D01*
X15498143Y-12615476D01*
X15517190Y-12605952D01*
X15526714Y-12586905D01*
X15526714Y-12577381D01*
X15517190Y-12558333D01*
X15498143Y-12548809D01*
X15469571Y-12548809D01*
X15450524Y-12539286D01*
X15441000Y-12520238D01*
X15441000Y-12510714D01*
X15450524Y-12491667D01*
X15469571Y-12482143D01*
X15498143Y-12482143D01*
X15517190Y-12491667D01*
X15593381Y-12691667D02*
X15602905Y-12682143D01*
X15621952Y-12653571D01*
X15631476Y-12634524D01*
X15641000Y-12605952D01*
X15650524Y-12558333D01*
X15650524Y-12520238D01*
X15641000Y-12472619D01*
X15631476Y-12444048D01*
X15621952Y-12425000D01*
X15602905Y-12396428D01*
X15593381Y-12386905D01*
D13*
X10631000Y-12789000D02*
G75*
G03*
X10631000Y-12789000I-50000J0D01*
G01*
D11*
X10993381Y-12879476D02*
X10879095Y-12879476D01*
X10936238Y-12879476D02*
X10936238Y-12679476D01*
X10917190Y-12708048D01*
X10898143Y-12727095D01*
X10879095Y-12736619D01*
X11079095Y-12860428D02*
X11088619Y-12869952D01*
X11079095Y-12879476D01*
X11069571Y-12869952D01*
X11079095Y-12860428D01*
X11079095Y-12879476D01*
X11212428Y-12679476D02*
X11231476Y-12679476D01*
X11250524Y-12689000D01*
X11260048Y-12698524D01*
X11269571Y-12717571D01*
X11279095Y-12755667D01*
X11279095Y-12803286D01*
X11269571Y-12841381D01*
X11260048Y-12860428D01*
X11250524Y-12869952D01*
X11231476Y-12879476D01*
X11212428Y-12879476D01*
X11193381Y-12869952D01*
X11183857Y-12860428D01*
X11174333Y-12841381D01*
X11164810Y-12803286D01*
X11164810Y-12755667D01*
X11174333Y-12717571D01*
X11183857Y-12698524D01*
X11193381Y-12689000D01*
X11212428Y-12679476D01*
X11402905Y-12679476D02*
X11421952Y-12679476D01*
X11441000Y-12689000D01*
X11450524Y-12698524D01*
X11460048Y-12717571D01*
X11469571Y-12755667D01*
X11469571Y-12803286D01*
X11460048Y-12841381D01*
X11450524Y-12860428D01*
X11441000Y-12869952D01*
X11421952Y-12879476D01*
X11402905Y-12879476D01*
X11383857Y-12869952D01*
X11374333Y-12860428D01*
X11364809Y-12841381D01*
X11355286Y-12803286D01*
X11355286Y-12755667D01*
X11364809Y-12717571D01*
X11374333Y-12698524D01*
X11383857Y-12689000D01*
X11402905Y-12679476D01*
X11593381Y-12679476D02*
X11612428Y-12679476D01*
X11631476Y-12689000D01*
X11641000Y-12698524D01*
X11650524Y-12717571D01*
X11660048Y-12755667D01*
X11660048Y-12803286D01*
X11650524Y-12841381D01*
X11641000Y-12860428D01*
X11631476Y-12869952D01*
X11612428Y-12879476D01*
X11593381Y-12879476D01*
X11574333Y-12869952D01*
X11564809Y-12860428D01*
X11555286Y-12841381D01*
X11545762Y-12803286D01*
X11545762Y-12755667D01*
X11555286Y-12717571D01*
X11564809Y-12698524D01*
X11574333Y-12689000D01*
X11593381Y-12679476D01*
X11745762Y-12879476D02*
X11745762Y-12746143D01*
X11745762Y-12765190D02*
X11755286Y-12755667D01*
X11774333Y-12746143D01*
X11802905Y-12746143D01*
X11821952Y-12755667D01*
X11831476Y-12774714D01*
X11831476Y-12879476D01*
X11831476Y-12774714D02*
X11841000Y-12755667D01*
X11860048Y-12746143D01*
X11888619Y-12746143D01*
X11907667Y-12755667D01*
X11917190Y-12774714D01*
X11917190Y-12879476D01*
X12012428Y-12879476D02*
X12012428Y-12746143D01*
X12012428Y-12765190D02*
X12021952Y-12755667D01*
X12041000Y-12746143D01*
X12069571Y-12746143D01*
X12088619Y-12755667D01*
X12098143Y-12774714D01*
X12098143Y-12879476D01*
X12098143Y-12774714D02*
X12107667Y-12755667D01*
X12126714Y-12746143D01*
X12155286Y-12746143D01*
X12174333Y-12755667D01*
X12183857Y-12774714D01*
X12183857Y-12879476D01*
X12574333Y-12669952D02*
X12402905Y-12927095D01*
X12831476Y-12679476D02*
X12850524Y-12679476D01*
X12869571Y-12689000D01*
X12879095Y-12698524D01*
X12888619Y-12717571D01*
X12898143Y-12755667D01*
X12898143Y-12803286D01*
X12888619Y-12841381D01*
X12879095Y-12860428D01*
X12869571Y-12869952D01*
X12850524Y-12879476D01*
X12831476Y-12879476D01*
X12812428Y-12869952D01*
X12802905Y-12860428D01*
X12793381Y-12841381D01*
X12783857Y-12803286D01*
X12783857Y-12755667D01*
X12793381Y-12717571D01*
X12802905Y-12698524D01*
X12812428Y-12689000D01*
X12831476Y-12679476D01*
X12983857Y-12860428D02*
X12993381Y-12869952D01*
X12983857Y-12879476D01*
X12974333Y-12869952D01*
X12983857Y-12860428D01*
X12983857Y-12879476D01*
X13117190Y-12679476D02*
X13136238Y-12679476D01*
X13155286Y-12689000D01*
X13164809Y-12698524D01*
X13174333Y-12717571D01*
X13183857Y-12755667D01*
X13183857Y-12803286D01*
X13174333Y-12841381D01*
X13164809Y-12860428D01*
X13155286Y-12869952D01*
X13136238Y-12879476D01*
X13117190Y-12879476D01*
X13098143Y-12869952D01*
X13088619Y-12860428D01*
X13079095Y-12841381D01*
X13069571Y-12803286D01*
X13069571Y-12755667D01*
X13079095Y-12717571D01*
X13088619Y-12698524D01*
X13098143Y-12689000D01*
X13117190Y-12679476D01*
X13250524Y-12679476D02*
X13374333Y-12679476D01*
X13307667Y-12755667D01*
X13336238Y-12755667D01*
X13355286Y-12765190D01*
X13364809Y-12774714D01*
X13374333Y-12793762D01*
X13374333Y-12841381D01*
X13364809Y-12860428D01*
X13355286Y-12869952D01*
X13336238Y-12879476D01*
X13279095Y-12879476D01*
X13260048Y-12869952D01*
X13250524Y-12860428D01*
X13469571Y-12879476D02*
X13507667Y-12879476D01*
X13526714Y-12869952D01*
X13536238Y-12860428D01*
X13555286Y-12831857D01*
X13564809Y-12793762D01*
X13564809Y-12717571D01*
X13555286Y-12698524D01*
X13545762Y-12689000D01*
X13526714Y-12679476D01*
X13488619Y-12679476D01*
X13469571Y-12689000D01*
X13460048Y-12698524D01*
X13450524Y-12717571D01*
X13450524Y-12765190D01*
X13460048Y-12784238D01*
X13469571Y-12793762D01*
X13488619Y-12803286D01*
X13526714Y-12803286D01*
X13545762Y-12793762D01*
X13555286Y-12784238D01*
X13564809Y-12765190D01*
X13736238Y-12746143D02*
X13736238Y-12879476D01*
X13688619Y-12669952D02*
X13641000Y-12812809D01*
X13764809Y-12812809D01*
X13831476Y-12679476D02*
X13831476Y-12717571D01*
X13907667Y-12679476D02*
X13907667Y-12717571D01*
X14202905Y-12955667D02*
X14193381Y-12946143D01*
X14174333Y-12917571D01*
X14164809Y-12898524D01*
X14155286Y-12869952D01*
X14145762Y-12822333D01*
X14145762Y-12784238D01*
X14155286Y-12736619D01*
X14164809Y-12708048D01*
X14174333Y-12689000D01*
X14193381Y-12660428D01*
X14202905Y-12650905D01*
X14383857Y-12879476D02*
X14269571Y-12879476D01*
X14326714Y-12879476D02*
X14326714Y-12679476D01*
X14307667Y-12708048D01*
X14288619Y-12727095D01*
X14269571Y-12736619D01*
X14574333Y-12879476D02*
X14460048Y-12879476D01*
X14517190Y-12879476D02*
X14517190Y-12679476D01*
X14498143Y-12708048D01*
X14479095Y-12727095D01*
X14460048Y-12736619D01*
X14812428Y-12879476D02*
X14812428Y-12679476D01*
X14898143Y-12879476D02*
X14898143Y-12774714D01*
X14888619Y-12755667D01*
X14869571Y-12746143D01*
X14841000Y-12746143D01*
X14821952Y-12755667D01*
X14812428Y-12765190D01*
X15021952Y-12879476D02*
X15002905Y-12869952D01*
X14993381Y-12860428D01*
X14983857Y-12841381D01*
X14983857Y-12784238D01*
X14993381Y-12765190D01*
X15002905Y-12755667D01*
X15021952Y-12746143D01*
X15050524Y-12746143D01*
X15069571Y-12755667D01*
X15079095Y-12765190D01*
X15088619Y-12784238D01*
X15088619Y-12841381D01*
X15079095Y-12860428D01*
X15069571Y-12869952D01*
X15050524Y-12879476D01*
X15021952Y-12879476D01*
X15202905Y-12879476D02*
X15183857Y-12869952D01*
X15174333Y-12850905D01*
X15174333Y-12679476D01*
X15355286Y-12869952D02*
X15336238Y-12879476D01*
X15298143Y-12879476D01*
X15279095Y-12869952D01*
X15269571Y-12850905D01*
X15269571Y-12774714D01*
X15279095Y-12755667D01*
X15298143Y-12746143D01*
X15336238Y-12746143D01*
X15355286Y-12755667D01*
X15364809Y-12774714D01*
X15364809Y-12793762D01*
X15269571Y-12812809D01*
X15441000Y-12869952D02*
X15460048Y-12879476D01*
X15498143Y-12879476D01*
X15517190Y-12869952D01*
X15526714Y-12850905D01*
X15526714Y-12841381D01*
X15517190Y-12822333D01*
X15498143Y-12812809D01*
X15469571Y-12812809D01*
X15450524Y-12803286D01*
X15441000Y-12784238D01*
X15441000Y-12774714D01*
X15450524Y-12755667D01*
X15469571Y-12746143D01*
X15498143Y-12746143D01*
X15517190Y-12755667D01*
X15593381Y-12955667D02*
X15602905Y-12946143D01*
X15621952Y-12917571D01*
X15631476Y-12898524D01*
X15641000Y-12869952D01*
X15650524Y-12822333D01*
X15650524Y-12784238D01*
X15641000Y-12736619D01*
X15631476Y-12708048D01*
X15621952Y-12689000D01*
X15602905Y-12660428D01*
X15593381Y-12650905D01*
D14*
X10555000Y-12977000D02*
X10555000Y-13129000D01*
X10479000Y-13053000D02*
X10631000Y-13053000D01*
D11*
X10993381Y-13143476D02*
X10879095Y-13143476D01*
X10936238Y-13143476D02*
X10936238Y-12943476D01*
X10917190Y-12972048D01*
X10898143Y-12991095D01*
X10879095Y-13000619D01*
X11079095Y-13124428D02*
X11088619Y-13133952D01*
X11079095Y-13143476D01*
X11069571Y-13133952D01*
X11079095Y-13124428D01*
X11079095Y-13143476D01*
X11269571Y-12943476D02*
X11174333Y-12943476D01*
X11164810Y-13038714D01*
X11174333Y-13029190D01*
X11193381Y-13019667D01*
X11241000Y-13019667D01*
X11260048Y-13029190D01*
X11269571Y-13038714D01*
X11279095Y-13057762D01*
X11279095Y-13105381D01*
X11269571Y-13124428D01*
X11260048Y-13133952D01*
X11241000Y-13143476D01*
X11193381Y-13143476D01*
X11174333Y-13133952D01*
X11164810Y-13124428D01*
X11355286Y-12962524D02*
X11364809Y-12953000D01*
X11383857Y-12943476D01*
X11431476Y-12943476D01*
X11450524Y-12953000D01*
X11460048Y-12962524D01*
X11469571Y-12981571D01*
X11469571Y-13000619D01*
X11460048Y-13029190D01*
X11345762Y-13143476D01*
X11469571Y-13143476D01*
X11593381Y-12943476D02*
X11612428Y-12943476D01*
X11631476Y-12953000D01*
X11641000Y-12962524D01*
X11650524Y-12981571D01*
X11660048Y-13019667D01*
X11660048Y-13067286D01*
X11650524Y-13105381D01*
X11641000Y-13124428D01*
X11631476Y-13133952D01*
X11612428Y-13143476D01*
X11593381Y-13143476D01*
X11574333Y-13133952D01*
X11564809Y-13124428D01*
X11555286Y-13105381D01*
X11545762Y-13067286D01*
X11545762Y-13019667D01*
X11555286Y-12981571D01*
X11564809Y-12962524D01*
X11574333Y-12953000D01*
X11593381Y-12943476D01*
X11745762Y-13143476D02*
X11745762Y-13010143D01*
X11745762Y-13029190D02*
X11755286Y-13019667D01*
X11774333Y-13010143D01*
X11802905Y-13010143D01*
X11821952Y-13019667D01*
X11831476Y-13038714D01*
X11831476Y-13143476D01*
X11831476Y-13038714D02*
X11841000Y-13019667D01*
X11860048Y-13010143D01*
X11888619Y-13010143D01*
X11907667Y-13019667D01*
X11917190Y-13038714D01*
X11917190Y-13143476D01*
X12012428Y-13143476D02*
X12012428Y-13010143D01*
X12012428Y-13029190D02*
X12021952Y-13019667D01*
X12041000Y-13010143D01*
X12069571Y-13010143D01*
X12088619Y-13019667D01*
X12098143Y-13038714D01*
X12098143Y-13143476D01*
X12098143Y-13038714D02*
X12107667Y-13019667D01*
X12126714Y-13010143D01*
X12155286Y-13010143D01*
X12174333Y-13019667D01*
X12183857Y-13038714D01*
X12183857Y-13143476D01*
X12574333Y-12933952D02*
X12402905Y-13191095D01*
X12831476Y-12943476D02*
X12850524Y-12943476D01*
X12869571Y-12953000D01*
X12879095Y-12962524D01*
X12888619Y-12981571D01*
X12898143Y-13019667D01*
X12898143Y-13067286D01*
X12888619Y-13105381D01*
X12879095Y-13124428D01*
X12869571Y-13133952D01*
X12850524Y-13143476D01*
X12831476Y-13143476D01*
X12812428Y-13133952D01*
X12802905Y-13124428D01*
X12793381Y-13105381D01*
X12783857Y-13067286D01*
X12783857Y-13019667D01*
X12793381Y-12981571D01*
X12802905Y-12962524D01*
X12812428Y-12953000D01*
X12831476Y-12943476D01*
X12983857Y-13124428D02*
X12993381Y-13133952D01*
X12983857Y-13143476D01*
X12974333Y-13133952D01*
X12983857Y-13124428D01*
X12983857Y-13143476D01*
X13117190Y-12943476D02*
X13136238Y-12943476D01*
X13155286Y-12953000D01*
X13164809Y-12962524D01*
X13174333Y-12981571D01*
X13183857Y-13019667D01*
X13183857Y-13067286D01*
X13174333Y-13105381D01*
X13164809Y-13124428D01*
X13155286Y-13133952D01*
X13136238Y-13143476D01*
X13117190Y-13143476D01*
X13098143Y-13133952D01*
X13088619Y-13124428D01*
X13079095Y-13105381D01*
X13069571Y-13067286D01*
X13069571Y-13019667D01*
X13079095Y-12981571D01*
X13088619Y-12962524D01*
X13098143Y-12953000D01*
X13117190Y-12943476D01*
X13364809Y-12943476D02*
X13269571Y-12943476D01*
X13260048Y-13038714D01*
X13269571Y-13029190D01*
X13288619Y-13019667D01*
X13336238Y-13019667D01*
X13355286Y-13029190D01*
X13364809Y-13038714D01*
X13374333Y-13057762D01*
X13374333Y-13105381D01*
X13364809Y-13124428D01*
X13355286Y-13133952D01*
X13336238Y-13143476D01*
X13288619Y-13143476D01*
X13269571Y-13133952D01*
X13260048Y-13124428D01*
X13469571Y-13143476D02*
X13507667Y-13143476D01*
X13526714Y-13133952D01*
X13536238Y-13124428D01*
X13555286Y-13095857D01*
X13564809Y-13057762D01*
X13564809Y-12981571D01*
X13555286Y-12962524D01*
X13545762Y-12953000D01*
X13526714Y-12943476D01*
X13488619Y-12943476D01*
X13469571Y-12953000D01*
X13460048Y-12962524D01*
X13450524Y-12981571D01*
X13450524Y-13029190D01*
X13460048Y-13048238D01*
X13469571Y-13057762D01*
X13488619Y-13067286D01*
X13526714Y-13067286D01*
X13545762Y-13057762D01*
X13555286Y-13048238D01*
X13564809Y-13029190D01*
X13679095Y-13029190D02*
X13660048Y-13019667D01*
X13650524Y-13010143D01*
X13641000Y-12991095D01*
X13641000Y-12981571D01*
X13650524Y-12962524D01*
X13660048Y-12953000D01*
X13679095Y-12943476D01*
X13717190Y-12943476D01*
X13736238Y-12953000D01*
X13745762Y-12962524D01*
X13755286Y-12981571D01*
X13755286Y-12991095D01*
X13745762Y-13010143D01*
X13736238Y-13019667D01*
X13717190Y-13029190D01*
X13679095Y-13029190D01*
X13660048Y-13038714D01*
X13650524Y-13048238D01*
X13641000Y-13067286D01*
X13641000Y-13105381D01*
X13650524Y-13124428D01*
X13660048Y-13133952D01*
X13679095Y-13143476D01*
X13717190Y-13143476D01*
X13736238Y-13133952D01*
X13745762Y-13124428D01*
X13755286Y-13105381D01*
X13755286Y-13067286D01*
X13745762Y-13048238D01*
X13736238Y-13038714D01*
X13717190Y-13029190D01*
X13831476Y-12943476D02*
X13831476Y-12981571D01*
X13907667Y-12943476D02*
X13907667Y-12981571D01*
X14202905Y-13219667D02*
X14193381Y-13210143D01*
X14174333Y-13181571D01*
X14164809Y-13162524D01*
X14155286Y-13133952D01*
X14145762Y-13086333D01*
X14145762Y-13048238D01*
X14155286Y-13000619D01*
X14164809Y-12972048D01*
X14174333Y-12953000D01*
X14193381Y-12924428D01*
X14202905Y-12914905D01*
X14383857Y-13143476D02*
X14269571Y-13143476D01*
X14326714Y-13143476D02*
X14326714Y-12943476D01*
X14307667Y-12972048D01*
X14288619Y-12991095D01*
X14269571Y-13000619D01*
X14507667Y-12943476D02*
X14526714Y-12943476D01*
X14545762Y-12953000D01*
X14555286Y-12962524D01*
X14564809Y-12981571D01*
X14574333Y-13019667D01*
X14574333Y-13067286D01*
X14564809Y-13105381D01*
X14555286Y-13124428D01*
X14545762Y-13133952D01*
X14526714Y-13143476D01*
X14507667Y-13143476D01*
X14488619Y-13133952D01*
X14479095Y-13124428D01*
X14469571Y-13105381D01*
X14460048Y-13067286D01*
X14460048Y-13019667D01*
X14469571Y-12981571D01*
X14479095Y-12962524D01*
X14488619Y-12953000D01*
X14507667Y-12943476D01*
X14812428Y-13143476D02*
X14812428Y-12943476D01*
X14898143Y-13143476D02*
X14898143Y-13038714D01*
X14888619Y-13019667D01*
X14869571Y-13010143D01*
X14841000Y-13010143D01*
X14821952Y-13019667D01*
X14812428Y-13029190D01*
X15021952Y-13143476D02*
X15002905Y-13133952D01*
X14993381Y-13124428D01*
X14983857Y-13105381D01*
X14983857Y-13048238D01*
X14993381Y-13029190D01*
X15002905Y-13019667D01*
X15021952Y-13010143D01*
X15050524Y-13010143D01*
X15069571Y-13019667D01*
X15079095Y-13029190D01*
X15088619Y-13048238D01*
X15088619Y-13105381D01*
X15079095Y-13124428D01*
X15069571Y-13133952D01*
X15050524Y-13143476D01*
X15021952Y-13143476D01*
X15202905Y-13143476D02*
X15183857Y-13133952D01*
X15174333Y-13114905D01*
X15174333Y-12943476D01*
X15355286Y-13133952D02*
X15336238Y-13143476D01*
X15298143Y-13143476D01*
X15279095Y-13133952D01*
X15269571Y-13114905D01*
X15269571Y-13038714D01*
X15279095Y-13019667D01*
X15298143Y-13010143D01*
X15336238Y-13010143D01*
X15355286Y-13019667D01*
X15364809Y-13038714D01*
X15364809Y-13057762D01*
X15269571Y-13076809D01*
X15441000Y-13133952D02*
X15460048Y-13143476D01*
X15498143Y-13143476D01*
X15517190Y-13133952D01*
X15526714Y-13114905D01*
X15526714Y-13105381D01*
X15517190Y-13086333D01*
X15498143Y-13076809D01*
X15469571Y-13076809D01*
X15450524Y-13067286D01*
X15441000Y-13048238D01*
X15441000Y-13038714D01*
X15450524Y-13019667D01*
X15469571Y-13010143D01*
X15498143Y-13010143D01*
X15517190Y-13019667D01*
X15593381Y-13219667D02*
X15602905Y-13210143D01*
X15621952Y-13181571D01*
X15631476Y-13162524D01*
X15641000Y-13133952D01*
X15650524Y-13086333D01*
X15650524Y-13048238D01*
X15641000Y-13000619D01*
X15631476Y-12972048D01*
X15621952Y-12953000D01*
X15602905Y-12924428D01*
X15593381Y-12914905D01*
M02*
