M48
; DRILL file {KiCad (6.0.0-0)} date 2022 March 09, Wednesday 14:38:03
; FORMAT={-:-/ absolute / metric / decimal}
; #@! TF.CreationDate,2022-03-09T14:38:03+01:00
; #@! TF.GenerationSoftware,Kicad,Pcbnew,(6.0.0-0)
; #@! TF.FileFunction,Plated,1,2,PTH
FMAT,2
METRIC
; #@! TA.AperFunction,Plated,PTH,ViaDrill
T1C0.400
; #@! TA.AperFunction,Plated,PTH,ComponentDrill
T2C1.000
; #@! TA.AperFunction,Plated,PTH,ComponentDrill
T3C1.520
%
G90
G05
T1
X113.665Y-80.01
X113.665Y-102.87
X113.665Y-107.95
X116.84Y-80.01
X116.84Y-92.71
X134.62Y-53.34
X134.62Y-60.96
X142.875Y-83.185
X156.73Y-96.52
X163.08Y-80.01
X163.08Y-81.28
X163.08Y-85.09
X166.89Y-91.44
T2
X111.125Y-95.25
X111.125Y-97.79
X111.125Y-100.33
X111.125Y-102.87
X111.125Y-105.41
X111.125Y-107.95
X111.125Y-110.49
X129.942Y-55.8
X129.942Y-71.2
X159.343Y-61.0
X159.343Y-66.0
T3
X187.125Y-58.42
X187.125Y-63.5
X187.125Y-68.58
X187.125Y-73.66
X187.125Y-83.82
X187.125Y-88.9
X187.125Y-93.98
X187.125Y-99.06
X187.125Y-109.22
X187.125Y-114.3
T0
M30
