G04 #@! TF.GenerationSoftware,KiCad,Pcbnew,(6.0.0)*
G04 #@! TF.CreationDate,2022-08-19T14:16:46+02:00*
G04 #@! TF.ProjectId,top,746f702e-6b69-4636-9164-5f7063625858,rev?*
G04 #@! TF.SameCoordinates,Original*
G04 #@! TF.FileFunction,Copper,L1,Top*
G04 #@! TF.FilePolarity,Positive*
%FSLAX46Y46*%
G04 Gerber Fmt 4.6, Leading zero omitted, Abs format (unit mm)*
G04 Created by KiCad (PCBNEW (6.0.0)) date 2022-08-19 14:16:46*
%MOMM*%
%LPD*%
G01*
G04 APERTURE LIST*
G04 Aperture macros list*
%AMRoundRect*
0 Rectangle with rounded corners*
0 $1 Rounding radius*
0 $2 $3 $4 $5 $6 $7 $8 $9 X,Y pos of 4 corners*
0 Add a 4 corners polygon primitive as box body*
4,1,4,$2,$3,$4,$5,$6,$7,$8,$9,$2,$3,0*
0 Add four circle primitives for the rounded corners*
1,1,$1+$1,$2,$3*
1,1,$1+$1,$4,$5*
1,1,$1+$1,$6,$7*
1,1,$1+$1,$8,$9*
0 Add four rect primitives between the rounded corners*
20,1,$1+$1,$2,$3,$4,$5,0*
20,1,$1+$1,$4,$5,$6,$7,0*
20,1,$1+$1,$6,$7,$8,$9,0*
20,1,$1+$1,$8,$9,$2,$3,0*%
G04 Aperture macros list end*
G04 #@! TA.AperFunction,SMDPad,CuDef*
%ADD10R,2.000000X1.780000*%
G04 #@! TD*
G04 #@! TA.AperFunction,SMDPad,CuDef*
%ADD11RoundRect,0.200000X0.275000X-0.200000X0.275000X0.200000X-0.275000X0.200000X-0.275000X-0.200000X0*%
G04 #@! TD*
G04 #@! TA.AperFunction,ComponentPad*
%ADD12R,1.700000X1.700000*%
G04 #@! TD*
G04 #@! TA.AperFunction,ComponentPad*
%ADD13O,1.700000X1.700000*%
G04 #@! TD*
G04 #@! TA.AperFunction,SMDPad,CuDef*
%ADD14RoundRect,0.250000X-0.262500X-0.450000X0.262500X-0.450000X0.262500X0.450000X-0.262500X0.450000X0*%
G04 #@! TD*
G04 #@! TA.AperFunction,SMDPad,CuDef*
%ADD15RoundRect,0.200000X0.200000X0.275000X-0.200000X0.275000X-0.200000X-0.275000X0.200000X-0.275000X0*%
G04 #@! TD*
G04 #@! TA.AperFunction,ViaPad*
%ADD16C,0.800000*%
G04 #@! TD*
G04 #@! TA.AperFunction,Conductor*
%ADD17C,0.250000*%
G04 #@! TD*
G04 APERTURE END LIST*
D10*
X115570000Y-73660000D03*
X115570000Y-76200000D03*
X115570000Y-78740000D03*
X125100000Y-78740000D03*
X125100000Y-76200000D03*
X125100000Y-73660000D03*
X159361500Y-61976000D03*
X159361500Y-64516000D03*
X159361500Y-67056000D03*
X166981500Y-67056000D03*
X166981500Y-64516000D03*
X166981500Y-61976000D03*
X115570000Y-83312000D03*
X115570000Y-85852000D03*
X115570000Y-88392000D03*
X125100000Y-88392000D03*
X125100000Y-85852000D03*
X125100000Y-83312000D03*
X115570000Y-64008000D03*
X115570000Y-66548000D03*
X115570000Y-69088000D03*
X125100000Y-69088000D03*
X125100000Y-66548000D03*
X125100000Y-64008000D03*
D11*
X156972000Y-82716500D03*
X156972000Y-81066500D03*
D12*
X111188000Y-81188000D03*
D13*
X111188000Y-83728000D03*
X111188000Y-86268000D03*
X111188000Y-88808000D03*
D10*
X115631000Y-141224000D03*
X115631000Y-143764000D03*
X115631000Y-146304000D03*
X125161000Y-146304000D03*
X125161000Y-143764000D03*
X125161000Y-141224000D03*
X159512000Y-131318000D03*
X159512000Y-133858000D03*
X159512000Y-136398000D03*
X167132000Y-136398000D03*
X167132000Y-133858000D03*
X167132000Y-131318000D03*
D11*
X156821500Y-62801000D03*
X156821500Y-61151000D03*
D10*
X159512000Y-101600000D03*
X159512000Y-104140000D03*
X159512000Y-106680000D03*
X167132000Y-106680000D03*
X167132000Y-104140000D03*
X167132000Y-101600000D03*
D13*
X133504000Y-87630000D03*
X133504000Y-90170000D03*
D12*
X133504000Y-92710000D03*
D13*
X133504000Y-95250000D03*
X133504000Y-97790000D03*
X133504000Y-100330000D03*
X133504000Y-102870000D03*
D12*
X133504000Y-105410000D03*
D13*
X133504000Y-107950000D03*
X133504000Y-110490000D03*
X133504000Y-113030000D03*
X133504000Y-115570000D03*
D12*
X133504000Y-118110000D03*
D13*
X133504000Y-120650000D03*
X133504000Y-123190000D03*
X133504000Y-125730000D03*
X133504000Y-128270000D03*
D12*
X133504000Y-130810000D03*
D13*
X133504000Y-133350000D03*
X133504000Y-135890000D03*
X151284000Y-135890000D03*
X151284000Y-133350000D03*
D12*
X151284000Y-130810000D03*
D13*
X151284000Y-128270000D03*
X151284000Y-125730000D03*
X151284000Y-123190000D03*
X151284000Y-120650000D03*
D12*
X151284000Y-118110000D03*
D13*
X151284000Y-115570000D03*
X151284000Y-113030000D03*
X151284000Y-110490000D03*
X151284000Y-107950000D03*
D12*
X151284000Y-105410000D03*
D13*
X151284000Y-102870000D03*
X151284000Y-100330000D03*
X151284000Y-97790000D03*
X151284000Y-95250000D03*
D12*
X151284000Y-92710000D03*
D13*
X151284000Y-90170000D03*
X151284000Y-87630000D03*
D10*
X115631000Y-102616000D03*
X115631000Y-105156000D03*
X115631000Y-107696000D03*
X125161000Y-107696000D03*
X125161000Y-105156000D03*
X125161000Y-102616000D03*
D14*
X132541000Y-76200000D03*
X134366000Y-76200000D03*
D11*
X156821500Y-52895000D03*
X156821500Y-51245000D03*
X127701000Y-75501000D03*
X127701000Y-73851000D03*
D10*
X159512000Y-121515500D03*
X159512000Y-124055500D03*
X159512000Y-126595500D03*
X167132000Y-126595500D03*
X167132000Y-124055500D03*
X167132000Y-121515500D03*
D12*
X111188000Y-130083000D03*
D13*
X111188000Y-132623000D03*
X111188000Y-135163000D03*
X111188000Y-137703000D03*
X111188000Y-140243000D03*
D10*
X159361500Y-52070000D03*
X159361500Y-54610000D03*
X159361500Y-57150000D03*
X166981500Y-57150000D03*
X166981500Y-54610000D03*
X166981500Y-52070000D03*
X115631000Y-131572000D03*
X115631000Y-134112000D03*
X115631000Y-136652000D03*
X125161000Y-136652000D03*
X125161000Y-134112000D03*
X125161000Y-131572000D03*
D11*
X156972000Y-112434500D03*
X156972000Y-110784500D03*
D14*
X132541000Y-78740000D03*
X134366000Y-78740000D03*
D11*
X127762000Y-94805000D03*
X127762000Y-93155000D03*
X156972000Y-92519000D03*
X156972000Y-90869000D03*
D15*
X134175000Y-73914000D03*
X132525000Y-73914000D03*
D11*
X156972000Y-72810500D03*
X156972000Y-71160500D03*
D10*
X136967000Y-76200000D03*
X136967000Y-78740000D03*
X136967000Y-81280000D03*
X146497000Y-81280000D03*
X146497000Y-78740000D03*
X146497000Y-76200000D03*
D11*
X156972000Y-102425000D03*
X156972000Y-100775000D03*
D10*
X159512000Y-71985500D03*
X159512000Y-74525500D03*
X159512000Y-77065500D03*
X167132000Y-77065500D03*
X167132000Y-74525500D03*
X167132000Y-71985500D03*
D11*
X127701000Y-85153000D03*
X127701000Y-83503000D03*
X127701000Y-65849000D03*
X127701000Y-64199000D03*
X127762000Y-133413000D03*
X127762000Y-131763000D03*
X127603500Y-56038500D03*
X127603500Y-54388500D03*
D12*
X171513000Y-69758000D03*
D13*
X171513000Y-72298000D03*
X171513000Y-74838000D03*
X171513000Y-77378000D03*
X171513000Y-79918000D03*
X171513000Y-82458000D03*
X171513000Y-84998000D03*
X171513000Y-87538000D03*
D11*
X156972000Y-122340500D03*
X156972000Y-120690500D03*
D10*
X159512000Y-141224000D03*
X159512000Y-143764000D03*
X159512000Y-146304000D03*
X167132000Y-146304000D03*
X167132000Y-143764000D03*
X167132000Y-141224000D03*
D12*
X171513000Y-131973000D03*
D13*
X171513000Y-129433000D03*
X171513000Y-126893000D03*
X171513000Y-124353000D03*
X171513000Y-121813000D03*
X171513000Y-119273000D03*
X171513000Y-116733000D03*
X171513000Y-114193000D03*
D10*
X159512000Y-111609500D03*
X159512000Y-114149500D03*
X159512000Y-116689500D03*
X167132000Y-116689500D03*
X167132000Y-114149500D03*
X167132000Y-111609500D03*
X115631000Y-92964000D03*
X115631000Y-95504000D03*
X115631000Y-98044000D03*
X125161000Y-98044000D03*
X125161000Y-95504000D03*
X125161000Y-92964000D03*
D11*
X127762000Y-143065000D03*
X127762000Y-141415000D03*
D12*
X111188000Y-57693000D03*
D13*
X111188000Y-60233000D03*
X111188000Y-62773000D03*
X111188000Y-65313000D03*
X111188000Y-67853000D03*
D11*
X127762000Y-114109000D03*
X127762000Y-112459000D03*
D10*
X115472500Y-54197500D03*
X115472500Y-56737500D03*
X115472500Y-59277500D03*
X125002500Y-59277500D03*
X125002500Y-56737500D03*
X125002500Y-54197500D03*
X159512000Y-81891500D03*
X159512000Y-84431500D03*
X159512000Y-86971500D03*
X167132000Y-86971500D03*
X167132000Y-84431500D03*
X167132000Y-81891500D03*
D12*
X111188000Y-107858000D03*
D13*
X111188000Y-110398000D03*
X111188000Y-112938000D03*
X111188000Y-115478000D03*
X111188000Y-118018000D03*
D11*
X156972000Y-132143000D03*
X156972000Y-130493000D03*
X127762000Y-123761000D03*
X127762000Y-122111000D03*
D10*
X115631000Y-121920000D03*
X115631000Y-124460000D03*
X115631000Y-127000000D03*
X125161000Y-127000000D03*
X125161000Y-124460000D03*
X125161000Y-121920000D03*
D12*
X171513000Y-105308000D03*
D13*
X171513000Y-102768000D03*
X171513000Y-100228000D03*
X171513000Y-97688000D03*
D11*
X127762000Y-104457000D03*
X127762000Y-102807000D03*
D10*
X115631000Y-112268000D03*
X115631000Y-114808000D03*
X115631000Y-117348000D03*
X125161000Y-117348000D03*
X125161000Y-114808000D03*
X125161000Y-112268000D03*
D11*
X156972000Y-142049000D03*
X156972000Y-140399000D03*
D10*
X159512000Y-91694000D03*
X159512000Y-94234000D03*
X159512000Y-96774000D03*
X167132000Y-96774000D03*
X167132000Y-94234000D03*
X167132000Y-91694000D03*
D16*
X164441500Y-63500000D03*
X122682000Y-98044000D03*
X122682000Y-102616000D03*
X122682000Y-83312000D03*
X122682000Y-78740000D03*
X128270000Y-98298000D03*
X130048000Y-85090000D03*
X164592000Y-73509500D03*
X136652000Y-83566000D03*
X164441500Y-53594000D03*
X164592000Y-83415500D03*
X127508000Y-120650000D03*
X127508000Y-101346000D03*
X127508000Y-110998000D03*
X127508000Y-91694000D03*
X127508000Y-139954000D03*
X127508000Y-62738000D03*
X127508000Y-52832000D03*
X127508000Y-72390000D03*
X127508000Y-82042000D03*
X127508000Y-77216000D03*
X127508000Y-106426000D03*
X127508000Y-130302000D03*
X127508000Y-79502000D03*
X164592000Y-142748000D03*
X164592000Y-132842000D03*
X118303000Y-66548000D03*
X164592000Y-123039500D03*
X164592000Y-113133500D03*
X164592000Y-103124000D03*
X164592000Y-93218000D03*
X120589000Y-66548000D03*
X118110000Y-129286000D03*
X130810000Y-76200000D03*
X155448000Y-71628000D03*
X117856000Y-90678000D03*
X130810000Y-71628000D03*
X139700000Y-67564000D03*
X120491500Y-56737500D03*
X118205500Y-56737500D03*
X146050000Y-69850000D03*
X139700000Y-68834000D03*
X147320000Y-69850000D03*
X139700000Y-70104000D03*
X129286000Y-74930000D03*
X129286000Y-73152000D03*
X120589000Y-76200000D03*
X118303000Y-76200000D03*
X148590000Y-69850000D03*
X140716000Y-84074000D03*
X120589000Y-85852000D03*
X118303000Y-85852000D03*
X149606000Y-82550000D03*
X120650000Y-114808000D03*
X118364000Y-114808000D03*
X120650000Y-124460000D03*
X118364000Y-124460000D03*
X120650000Y-134112000D03*
X118364000Y-134112000D03*
X120650000Y-143764000D03*
X118364000Y-143764000D03*
X146050000Y-139192000D03*
X130556000Y-109474000D03*
X120650000Y-95504000D03*
X118364000Y-95504000D03*
X129540000Y-108712000D03*
X145034000Y-140462000D03*
X120650000Y-105156000D03*
X118364000Y-105156000D03*
X166981500Y-59332500D03*
X166981500Y-69238500D03*
X167132000Y-79248000D03*
X167132000Y-89154000D03*
X167132000Y-148486500D03*
X167132000Y-138580500D03*
X167132000Y-128778000D03*
X167132000Y-118872000D03*
X167132000Y-108862500D03*
X167132000Y-98956500D03*
D17*
X164441500Y-63500000D02*
X165457500Y-64516000D01*
X165457500Y-64516000D02*
X166981500Y-64516000D01*
X125161000Y-98044000D02*
X122682000Y-98044000D01*
X159512000Y-94234000D02*
X161798000Y-94234000D01*
X161798000Y-104140000D02*
X161798000Y-114046000D01*
X159361500Y-54610000D02*
X161544000Y-54610000D01*
X160782000Y-143764000D02*
X159512000Y-143764000D01*
X161798000Y-54356000D02*
X161798000Y-51054000D01*
X161798000Y-64516000D02*
X161798000Y-54356000D01*
X125161000Y-117348000D02*
X122682000Y-117348000D01*
X125002500Y-59277500D02*
X122777500Y-59277500D01*
X122682000Y-145288000D02*
X123698000Y-146304000D01*
X161694500Y-124055500D02*
X161798000Y-123952000D01*
X122682000Y-83312000D02*
X122682000Y-88392000D01*
X161694500Y-84431500D02*
X161798000Y-84328000D01*
X123952000Y-49784000D02*
X122682000Y-51054000D01*
X161798000Y-142748000D02*
X160782000Y-143764000D01*
X153670000Y-91440000D02*
X152400000Y-92710000D01*
X125100000Y-69088000D02*
X122682000Y-69088000D01*
X125161000Y-107696000D02*
X122682000Y-107696000D01*
X125161000Y-136652000D02*
X122682000Y-136652000D01*
X159512000Y-124055500D02*
X161694500Y-124055500D01*
X122682000Y-51054000D02*
X122682000Y-59182000D01*
X148336000Y-81280000D02*
X146497000Y-81280000D01*
X161798000Y-64516000D02*
X161798000Y-74676000D01*
X122777500Y-59277500D02*
X122682000Y-59182000D01*
X159512000Y-114149500D02*
X161694500Y-114149500D01*
X122682000Y-88392000D02*
X122682000Y-98044000D01*
X122682000Y-136652000D02*
X122682000Y-145288000D01*
X161647500Y-74525500D02*
X161798000Y-74676000D01*
X161798000Y-51054000D02*
X160528000Y-49784000D01*
X159361500Y-64516000D02*
X161798000Y-64516000D01*
X122682000Y-69088000D02*
X122682000Y-78740000D01*
X122682000Y-117348000D02*
X122682000Y-127000000D01*
X161798000Y-133858000D02*
X161798000Y-142748000D01*
X161798000Y-114046000D02*
X161798000Y-123952000D01*
X159512000Y-133858000D02*
X161798000Y-133858000D01*
X160528000Y-49784000D02*
X123952000Y-49784000D01*
X122682000Y-110236000D02*
X122682000Y-117348000D01*
X155090500Y-74525500D02*
X148336000Y-81280000D01*
X159512000Y-74525500D02*
X155090500Y-74525500D01*
X161694500Y-114149500D02*
X161798000Y-114046000D01*
X159512000Y-74525500D02*
X161647500Y-74525500D01*
X161798000Y-84328000D02*
X161798000Y-94234000D01*
X153670000Y-88091000D02*
X153670000Y-91440000D01*
X159512000Y-84431500D02*
X161694500Y-84431500D01*
X122682000Y-59182000D02*
X122682000Y-69088000D01*
X122520000Y-110398000D02*
X122682000Y-110236000D01*
X159512000Y-84431500D02*
X157329500Y-84431500D01*
X161798000Y-94234000D02*
X161798000Y-104140000D01*
X161798000Y-74676000D02*
X161798000Y-84328000D01*
X161544000Y-54610000D02*
X161798000Y-54356000D01*
X123698000Y-146304000D02*
X125161000Y-146304000D01*
X152400000Y-92710000D02*
X151284000Y-92710000D01*
X122682000Y-127000000D02*
X122682000Y-136652000D01*
X159512000Y-104140000D02*
X161798000Y-104140000D01*
X161798000Y-123952000D02*
X161798000Y-133858000D01*
X125100000Y-88392000D02*
X122682000Y-88392000D01*
X122682000Y-102616000D02*
X122682000Y-110236000D01*
X111188000Y-110398000D02*
X122520000Y-110398000D01*
X125161000Y-127000000D02*
X122682000Y-127000000D01*
X157329500Y-84431500D02*
X153670000Y-88091000D01*
X125100000Y-78740000D02*
X122682000Y-78740000D01*
X130048000Y-85090000D02*
X138684000Y-85090000D01*
X112268000Y-100330000D02*
X126238000Y-100330000D01*
X128270000Y-98298000D02*
X126238000Y-100330000D01*
X138684000Y-85090000D02*
X143764000Y-90170000D01*
X111188000Y-101410000D02*
X112268000Y-100330000D01*
X143764000Y-90170000D02*
X151284000Y-90170000D01*
X111188000Y-107858000D02*
X111188000Y-101410000D01*
X164592000Y-73509500D02*
X165608000Y-74525500D01*
X165608000Y-74525500D02*
X167132000Y-74525500D01*
X136652000Y-83566000D02*
X139700000Y-83566000D01*
X146497000Y-78740000D02*
X141732000Y-78740000D01*
X141732000Y-78740000D02*
X141732000Y-81534000D01*
X141732000Y-74422000D02*
X141732000Y-78740000D01*
X141224000Y-73914000D02*
X134175000Y-73914000D01*
X139700000Y-83566000D02*
X141732000Y-81534000D01*
X141732000Y-74422000D02*
X141224000Y-73914000D01*
X164441500Y-53594000D02*
X165457500Y-54610000D01*
X165457500Y-54610000D02*
X166981500Y-54610000D01*
X165608000Y-84431500D02*
X167132000Y-84431500D01*
X164592000Y-83415500D02*
X165608000Y-84431500D01*
X127762000Y-141415000D02*
X127762000Y-140208000D01*
X138430000Y-85852000D02*
X130810000Y-85852000D01*
X130810000Y-85852000D02*
X127508000Y-89154000D01*
X127508000Y-89154000D02*
X127508000Y-91694000D01*
X127701000Y-64199000D02*
X127701000Y-62931000D01*
X127701000Y-82235000D02*
X127508000Y-82042000D01*
X127762000Y-111252000D02*
X127508000Y-110998000D01*
X127508000Y-77216000D02*
X127508000Y-79502000D01*
X127701000Y-83503000D02*
X127701000Y-82235000D01*
X127762000Y-130556000D02*
X127508000Y-130302000D01*
X127508000Y-110998000D02*
X127508000Y-106426000D01*
X127762000Y-140208000D02*
X127508000Y-139954000D01*
X127762000Y-112459000D02*
X127762000Y-111252000D01*
X151284000Y-97790000D02*
X150368000Y-97790000D01*
X150368000Y-97790000D02*
X138430000Y-85852000D01*
X127762000Y-101600000D02*
X127508000Y-101346000D01*
X127603500Y-52927500D02*
X127508000Y-52832000D01*
X127762000Y-91948000D02*
X127508000Y-91694000D01*
X127701000Y-73851000D02*
X127701000Y-72583000D01*
X127762000Y-93155000D02*
X127762000Y-91948000D01*
X127762000Y-122111000D02*
X127762000Y-120904000D01*
X127762000Y-102807000D02*
X127762000Y-101600000D01*
X127762000Y-131763000D02*
X127762000Y-130556000D01*
X132525000Y-73914000D02*
X127764000Y-73914000D01*
X127764000Y-73914000D02*
X127701000Y-73851000D01*
X127701000Y-62931000D02*
X127508000Y-62738000D01*
X127603500Y-54388500D02*
X127603500Y-52927500D01*
X127762000Y-120904000D02*
X127508000Y-120650000D01*
X127701000Y-72583000D02*
X127508000Y-72390000D01*
X165608000Y-143764000D02*
X167132000Y-143764000D01*
X164592000Y-142748000D02*
X165608000Y-143764000D01*
X134366000Y-76200000D02*
X136967000Y-76200000D01*
X164592000Y-132842000D02*
X165608000Y-133858000D01*
X165608000Y-133858000D02*
X167132000Y-133858000D01*
X115570000Y-66548000D02*
X118303000Y-66548000D01*
X165608000Y-124055500D02*
X167132000Y-124055500D01*
X164592000Y-123039500D02*
X165608000Y-124055500D01*
X165608000Y-114149500D02*
X167132000Y-114149500D01*
X164592000Y-113133500D02*
X165608000Y-114149500D01*
X165608000Y-104140000D02*
X167132000Y-104140000D01*
X164592000Y-103124000D02*
X165608000Y-104140000D01*
X164592000Y-93218000D02*
X165608000Y-94234000D01*
X165608000Y-94234000D02*
X167132000Y-94234000D01*
X118049000Y-64008000D02*
X120589000Y-66548000D01*
X115570000Y-64008000D02*
X118049000Y-64008000D01*
X118110000Y-129286000D02*
X111985000Y-129286000D01*
X111985000Y-129286000D02*
X111188000Y-130083000D01*
X114046000Y-90678000D02*
X117856000Y-90678000D01*
X130810000Y-76200000D02*
X132541000Y-76200000D01*
X113284000Y-89916000D02*
X114046000Y-90678000D01*
X111188000Y-81188000D02*
X112176000Y-81188000D01*
X113284000Y-82296000D02*
X113284000Y-89916000D01*
X155448000Y-71628000D02*
X130810000Y-71628000D01*
X112176000Y-81188000D02*
X113284000Y-82296000D01*
X134366000Y-78740000D02*
X136967000Y-78740000D01*
X128682500Y-56737500D02*
X127603500Y-56737500D01*
X139509000Y-67564000D02*
X139700000Y-67564000D01*
X128682500Y-56737500D02*
X139509000Y-67564000D01*
X127603500Y-56038500D02*
X127603500Y-56737500D01*
X127603500Y-56737500D02*
X125002500Y-56737500D01*
X115472500Y-54197500D02*
X117951500Y-54197500D01*
X117951500Y-54197500D02*
X120491500Y-56737500D01*
X115472500Y-56737500D02*
X118205500Y-56737500D01*
X158599500Y-52070000D02*
X157774500Y-52895000D01*
X159361500Y-52070000D02*
X158599500Y-52070000D01*
X157774500Y-52895000D02*
X156821500Y-52895000D01*
X146050000Y-62016500D02*
X146050000Y-69850000D01*
X156821500Y-51245000D02*
X146050000Y-62016500D01*
X139700000Y-68834000D02*
X130810000Y-68834000D01*
X130810000Y-68834000D02*
X128524000Y-66548000D01*
X127701000Y-65849000D02*
X127701000Y-66487000D01*
X125100000Y-66548000D02*
X128524000Y-66548000D01*
X127701000Y-66487000D02*
X127762000Y-66548000D01*
X159361500Y-61976000D02*
X158599500Y-61976000D01*
X158599500Y-61976000D02*
X157774500Y-62801000D01*
X157774500Y-62801000D02*
X156821500Y-62801000D01*
X156821500Y-61151000D02*
X156019000Y-61151000D01*
X156019000Y-61151000D02*
X147320000Y-69850000D01*
X127701000Y-75501000D02*
X128715000Y-75501000D01*
X128715000Y-75501000D02*
X129286000Y-74930000D01*
X127002000Y-76200000D02*
X127701000Y-75501000D01*
X129540000Y-70104000D02*
X129286000Y-70358000D01*
X129286000Y-73152000D02*
X129286000Y-70358000D01*
X125100000Y-76200000D02*
X127002000Y-76200000D01*
X139700000Y-70104000D02*
X129540000Y-70104000D01*
X118049000Y-73660000D02*
X120589000Y-76200000D01*
X115570000Y-73660000D02*
X118049000Y-73660000D01*
X115570000Y-76200000D02*
X118303000Y-76200000D01*
X157925000Y-72810500D02*
X156972000Y-72810500D01*
X159512000Y-71985500D02*
X158750000Y-71985500D01*
X158750000Y-71985500D02*
X157925000Y-72810500D01*
X155661500Y-69850000D02*
X148590000Y-69850000D01*
X156972000Y-71160500D02*
X155661500Y-69850000D01*
X128526000Y-84328000D02*
X127701000Y-85153000D01*
X140716000Y-84074000D02*
X140462000Y-84328000D01*
X140462000Y-84328000D02*
X128526000Y-84328000D01*
X127002000Y-85852000D02*
X127701000Y-85153000D01*
X125100000Y-85852000D02*
X127002000Y-85852000D01*
X115570000Y-83312000D02*
X118049000Y-83312000D01*
X118049000Y-83312000D02*
X120589000Y-85852000D01*
X115570000Y-85852000D02*
X118303000Y-85852000D01*
X158750000Y-81891500D02*
X157925000Y-82716500D01*
X157925000Y-82716500D02*
X156972000Y-82716500D01*
X159512000Y-81891500D02*
X158750000Y-81891500D01*
X156972000Y-81066500D02*
X151089500Y-81066500D01*
X151089500Y-81066500D02*
X149606000Y-82550000D01*
X147828000Y-141986000D02*
X151284000Y-138530000D01*
X131572000Y-141986000D02*
X147828000Y-141986000D01*
X127063000Y-134112000D02*
X127762000Y-133413000D01*
X125161000Y-134112000D02*
X127063000Y-134112000D01*
X127762000Y-133413000D02*
X127762000Y-138176000D01*
X151284000Y-138530000D02*
X151284000Y-135890000D01*
X127762000Y-138176000D02*
X131572000Y-141986000D01*
X115631000Y-112268000D02*
X118110000Y-112268000D01*
X118110000Y-112268000D02*
X120650000Y-114808000D01*
X115631000Y-114808000D02*
X118364000Y-114808000D01*
X157925000Y-142049000D02*
X156972000Y-142049000D01*
X159512000Y-141224000D02*
X158750000Y-141224000D01*
X158750000Y-141224000D02*
X157925000Y-142049000D01*
X156972000Y-120690500D02*
X155915500Y-120690500D01*
X155915500Y-120690500D02*
X153416000Y-123190000D01*
X153416000Y-123190000D02*
X151284000Y-123190000D01*
X148273000Y-143065000D02*
X127762000Y-143065000D01*
X152908000Y-133858000D02*
X152908000Y-138430000D01*
X151284000Y-133350000D02*
X152400000Y-133350000D01*
X152908000Y-138430000D02*
X148273000Y-143065000D01*
X125161000Y-143764000D02*
X127063000Y-143764000D01*
X127063000Y-143764000D02*
X127762000Y-143065000D01*
X152400000Y-133350000D02*
X152908000Y-133858000D01*
X118110000Y-121920000D02*
X120650000Y-124460000D01*
X115631000Y-121920000D02*
X118110000Y-121920000D01*
X115631000Y-124460000D02*
X118364000Y-124460000D01*
X159512000Y-131318000D02*
X158750000Y-131318000D01*
X157925000Y-132143000D02*
X156972000Y-132143000D01*
X158750000Y-131318000D02*
X157925000Y-132143000D01*
X151284000Y-128270000D02*
X152400000Y-128270000D01*
X156972000Y-140399000D02*
X156972000Y-137160000D01*
X155194000Y-131064000D02*
X155194000Y-135382000D01*
X152400000Y-128270000D02*
X155194000Y-131064000D01*
X155194000Y-135382000D02*
X156972000Y-137160000D01*
X127762000Y-114109000D02*
X127762000Y-114808000D01*
X133504000Y-133350000D02*
X131572000Y-133350000D01*
X130302000Y-115316000D02*
X129794000Y-114808000D01*
X125161000Y-114808000D02*
X127762000Y-114808000D01*
X129794000Y-114808000D02*
X127762000Y-114808000D01*
X130302000Y-132080000D02*
X130302000Y-115316000D01*
X131572000Y-133350000D02*
X130302000Y-132080000D01*
X115631000Y-131572000D02*
X118110000Y-131572000D01*
X118110000Y-131572000D02*
X120650000Y-134112000D01*
X115631000Y-134112000D02*
X118364000Y-134112000D01*
X158750000Y-121515500D02*
X157925000Y-122340500D01*
X159512000Y-121515500D02*
X158750000Y-121515500D01*
X157925000Y-122340500D02*
X156972000Y-122340500D01*
X154726500Y-110784500D02*
X153162000Y-112349000D01*
X153162000Y-112349000D02*
X153162000Y-119888000D01*
X156972000Y-110784500D02*
X154726500Y-110784500D01*
X152400000Y-120650000D02*
X151284000Y-120650000D01*
X153162000Y-119888000D02*
X152400000Y-120650000D01*
X127762000Y-123761000D02*
X127762000Y-124460000D01*
X131318000Y-135890000D02*
X129286000Y-133858000D01*
X125161000Y-124460000D02*
X128524000Y-124460000D01*
X129286000Y-125222000D02*
X128524000Y-124460000D01*
X129286000Y-133858000D02*
X129286000Y-125222000D01*
X133504000Y-135890000D02*
X131318000Y-135890000D01*
X115631000Y-141224000D02*
X118110000Y-141224000D01*
X118110000Y-141224000D02*
X120650000Y-143764000D01*
X115631000Y-143764000D02*
X118364000Y-143764000D01*
X157925000Y-112434500D02*
X156972000Y-112434500D01*
X158750000Y-111609500D02*
X157925000Y-112434500D01*
X159512000Y-111609500D02*
X158750000Y-111609500D01*
X153924000Y-125730000D02*
X151284000Y-125730000D01*
X156972000Y-130493000D02*
X156972000Y-128778000D01*
X156972000Y-128778000D02*
X153924000Y-125730000D01*
X127762000Y-94805000D02*
X127762000Y-95504000D01*
X127762000Y-95504000D02*
X129286000Y-95504000D01*
X149098000Y-115570000D02*
X151284000Y-115570000D01*
X130556000Y-96774000D02*
X130556000Y-109474000D01*
X125161000Y-95504000D02*
X127762000Y-95504000D01*
X129286000Y-95504000D02*
X130556000Y-96774000D01*
X146050000Y-139192000D02*
X146050000Y-118618000D01*
X146050000Y-118618000D02*
X149098000Y-115570000D01*
X115631000Y-92964000D02*
X118110000Y-92964000D01*
X118110000Y-92964000D02*
X120650000Y-95504000D01*
X115631000Y-95504000D02*
X118364000Y-95504000D01*
X157925000Y-102425000D02*
X156972000Y-102425000D01*
X158750000Y-101600000D02*
X157925000Y-102425000D01*
X159512000Y-101600000D02*
X158750000Y-101600000D01*
X156972000Y-100775000D02*
X156019000Y-100775000D01*
X153924000Y-107950000D02*
X151284000Y-107950000D01*
X154940000Y-106934000D02*
X153924000Y-107950000D01*
X156019000Y-100775000D02*
X154940000Y-101854000D01*
X154940000Y-101854000D02*
X154940000Y-106934000D01*
X127762000Y-104457000D02*
X127762000Y-105156000D01*
X128270000Y-105156000D02*
X129540000Y-106426000D01*
X129540000Y-106426000D02*
X129540000Y-108712000D01*
X145034000Y-112776000D02*
X147320000Y-110490000D01*
X145034000Y-140462000D02*
X145034000Y-112776000D01*
X147320000Y-110490000D02*
X151284000Y-110490000D01*
X125161000Y-105156000D02*
X128270000Y-105156000D01*
X118110000Y-102616000D02*
X120650000Y-105156000D01*
X115631000Y-102616000D02*
X118110000Y-102616000D01*
X115631000Y-105156000D02*
X118364000Y-105156000D01*
X157925000Y-92519000D02*
X156972000Y-92519000D01*
X158750000Y-91694000D02*
X157925000Y-92519000D01*
X159512000Y-91694000D02*
X158750000Y-91694000D01*
X156972000Y-90869000D02*
X156147000Y-90869000D01*
X152654000Y-102870000D02*
X151284000Y-102870000D01*
X153924000Y-101600000D02*
X152654000Y-102870000D01*
X156147000Y-90869000D02*
X153924000Y-93092000D01*
X153924000Y-93092000D02*
X153924000Y-101600000D01*
X166981500Y-57150000D02*
X166981500Y-59332500D01*
X170088000Y-77378000D02*
X169418000Y-76708000D01*
X166981500Y-67056000D02*
X166981500Y-69238500D01*
X169418000Y-70104000D02*
X168552500Y-69238500D01*
X171513000Y-77378000D02*
X170088000Y-77378000D01*
X169418000Y-76708000D02*
X169418000Y-70104000D01*
X168552500Y-69238500D02*
X166981500Y-69238500D01*
X167132000Y-77065500D02*
X167132000Y-79248000D01*
X169418000Y-81788000D02*
X169418000Y-80010000D01*
X171513000Y-82458000D02*
X170088000Y-82458000D01*
X169418000Y-80010000D02*
X168656000Y-79248000D01*
X168656000Y-79248000D02*
X167132000Y-79248000D01*
X170088000Y-82458000D02*
X169418000Y-81788000D01*
X167698500Y-87538000D02*
X167132000Y-86971500D01*
X171513000Y-87538000D02*
X167698500Y-87538000D01*
X167132000Y-86971500D02*
X167132000Y-89154000D01*
X169926000Y-131020000D02*
X169926000Y-144780000D01*
X168402000Y-146304000D02*
X167132000Y-146304000D01*
X169926000Y-144780000D02*
X168402000Y-146304000D01*
X167132000Y-146304000D02*
X167132000Y-148486500D01*
X171513000Y-129433000D02*
X169926000Y-131020000D01*
X167132000Y-136398000D02*
X168656000Y-136398000D01*
X167132000Y-136398000D02*
X167132000Y-138580500D01*
X169164000Y-126702000D02*
X171513000Y-124353000D01*
X168656000Y-136398000D02*
X169164000Y-135890000D01*
X169164000Y-135890000D02*
X169164000Y-126702000D01*
X167132000Y-126595500D02*
X167536500Y-126595500D01*
X167536500Y-126595500D02*
X169164000Y-124968000D01*
X169779000Y-119273000D02*
X171513000Y-119273000D01*
X169164000Y-119888000D02*
X169779000Y-119273000D01*
X167132000Y-126595500D02*
X167132000Y-128778000D01*
X169164000Y-124968000D02*
X169164000Y-119888000D01*
X167132000Y-116689500D02*
X167790500Y-116689500D01*
X167132000Y-116689500D02*
X167132000Y-118872000D01*
X170287000Y-114193000D02*
X171513000Y-114193000D01*
X167790500Y-116689500D02*
X170287000Y-114193000D01*
X169164000Y-105918000D02*
X168402000Y-106680000D01*
X171513000Y-102768000D02*
X169774000Y-102768000D01*
X169774000Y-102768000D02*
X169164000Y-103378000D01*
X169164000Y-103378000D02*
X169164000Y-105918000D01*
X168402000Y-106680000D02*
X167132000Y-106680000D01*
X167132000Y-106680000D02*
X167132000Y-108862500D01*
X167132000Y-96774000D02*
X170599000Y-96774000D01*
X170599000Y-96774000D02*
X171513000Y-97688000D01*
X167132000Y-96774000D02*
X167132000Y-98956500D01*
X109890000Y-88808000D02*
X109220000Y-88138000D01*
X114046000Y-80772000D02*
X130509000Y-80772000D01*
X109982000Y-79248000D02*
X112522000Y-79248000D01*
X112522000Y-79248000D02*
X114046000Y-80772000D01*
X130509000Y-80772000D02*
X132541000Y-78740000D01*
X111188000Y-88808000D02*
X109890000Y-88808000D01*
X109220000Y-80010000D02*
X109982000Y-79248000D01*
X109220000Y-88138000D02*
X109220000Y-80010000D01*
M02*
