G04 #@! TF.GenerationSoftware,KiCad,Pcbnew,(6.0.0)*
G04 #@! TF.CreationDate,2022-08-19T14:16:46+02:00*
G04 #@! TF.ProjectId,top,746f702e-6b69-4636-9164-5f7063625858,rev?*
G04 #@! TF.SameCoordinates,Original*
G04 #@! TF.FileFunction,Legend,Top*
G04 #@! TF.FilePolarity,Positive*
%FSLAX46Y46*%
G04 Gerber Fmt 4.6, Leading zero omitted, Abs format (unit mm)*
G04 Created by KiCad (PCBNEW (6.0.0)) date 2022-08-19 14:16:46*
%MOMM*%
%LPD*%
G01*
G04 APERTURE LIST*
G04 Aperture macros list*
%AMRoundRect*
0 Rectangle with rounded corners*
0 $1 Rounding radius*
0 $2 $3 $4 $5 $6 $7 $8 $9 X,Y pos of 4 corners*
0 Add a 4 corners polygon primitive as box body*
4,1,4,$2,$3,$4,$5,$6,$7,$8,$9,$2,$3,0*
0 Add four circle primitives for the rounded corners*
1,1,$1+$1,$2,$3*
1,1,$1+$1,$4,$5*
1,1,$1+$1,$6,$7*
1,1,$1+$1,$8,$9*
0 Add four rect primitives between the rounded corners*
20,1,$1+$1,$2,$3,$4,$5,0*
20,1,$1+$1,$4,$5,$6,$7,0*
20,1,$1+$1,$6,$7,$8,$9,0*
20,1,$1+$1,$8,$9,$2,$3,0*%
G04 Aperture macros list end*
%ADD10C,0.150000*%
%ADD11C,0.120000*%
%ADD12R,2.000000X1.780000*%
%ADD13RoundRect,0.200000X0.275000X-0.200000X0.275000X0.200000X-0.275000X0.200000X-0.275000X-0.200000X0*%
%ADD14R,1.700000X1.700000*%
%ADD15O,1.700000X1.700000*%
%ADD16RoundRect,0.250000X-0.262500X-0.450000X0.262500X-0.450000X0.262500X0.450000X-0.262500X0.450000X0*%
%ADD17RoundRect,0.200000X0.200000X0.275000X-0.200000X0.275000X-0.200000X-0.275000X0.200000X-0.275000X0*%
G04 APERTURE END LIST*
D10*
X119573095Y-70782380D02*
X119573095Y-71591904D01*
X119620714Y-71687142D01*
X119668333Y-71734761D01*
X119763571Y-71782380D01*
X119954047Y-71782380D01*
X120049285Y-71734761D01*
X120096904Y-71687142D01*
X120144523Y-71591904D01*
X120144523Y-70782380D01*
X120525476Y-70782380D02*
X121192142Y-70782380D01*
X120763571Y-71782380D01*
X155805595Y-65746380D02*
X155805595Y-66555904D01*
X155853214Y-66651142D01*
X155900833Y-66698761D01*
X155996071Y-66746380D01*
X156186547Y-66746380D01*
X156281785Y-66698761D01*
X156329404Y-66651142D01*
X156377023Y-66555904D01*
X156377023Y-65746380D01*
X157281785Y-65746380D02*
X157091309Y-65746380D01*
X156996071Y-65794000D01*
X156948452Y-65841619D01*
X156853214Y-65984476D01*
X156805595Y-66174952D01*
X156805595Y-66555904D01*
X156853214Y-66651142D01*
X156900833Y-66698761D01*
X156996071Y-66746380D01*
X157186547Y-66746380D01*
X157281785Y-66698761D01*
X157329404Y-66651142D01*
X157377023Y-66555904D01*
X157377023Y-66317809D01*
X157329404Y-66222571D01*
X157281785Y-66174952D01*
X157186547Y-66127333D01*
X156996071Y-66127333D01*
X156900833Y-66174952D01*
X156853214Y-66222571D01*
X156805595Y-66317809D01*
X119573095Y-80434380D02*
X119573095Y-81243904D01*
X119620714Y-81339142D01*
X119668333Y-81386761D01*
X119763571Y-81434380D01*
X119954047Y-81434380D01*
X120049285Y-81386761D01*
X120096904Y-81339142D01*
X120144523Y-81243904D01*
X120144523Y-80434380D01*
X120668333Y-81434380D02*
X120858809Y-81434380D01*
X120954047Y-81386761D01*
X121001666Y-81339142D01*
X121096904Y-81196285D01*
X121144523Y-81005809D01*
X121144523Y-80624857D01*
X121096904Y-80529619D01*
X121049285Y-80482000D01*
X120954047Y-80434380D01*
X120763571Y-80434380D01*
X120668333Y-80482000D01*
X120620714Y-80529619D01*
X120573095Y-80624857D01*
X120573095Y-80862952D01*
X120620714Y-80958190D01*
X120668333Y-81005809D01*
X120763571Y-81053428D01*
X120954047Y-81053428D01*
X121049285Y-81005809D01*
X121096904Y-80958190D01*
X121144523Y-80862952D01*
X119573095Y-61130380D02*
X119573095Y-61939904D01*
X119620714Y-62035142D01*
X119668333Y-62082761D01*
X119763571Y-62130380D01*
X119954047Y-62130380D01*
X120049285Y-62082761D01*
X120096904Y-62035142D01*
X120144523Y-61939904D01*
X120144523Y-61130380D01*
X121096904Y-61130380D02*
X120620714Y-61130380D01*
X120573095Y-61606571D01*
X120620714Y-61558952D01*
X120715952Y-61511333D01*
X120954047Y-61511333D01*
X121049285Y-61558952D01*
X121096904Y-61606571D01*
X121144523Y-61701809D01*
X121144523Y-61939904D01*
X121096904Y-62035142D01*
X121049285Y-62082761D01*
X120954047Y-62130380D01*
X120715952Y-62130380D01*
X120620714Y-62082761D01*
X120573095Y-62035142D01*
X156075142Y-84629880D02*
X155741809Y-84153690D01*
X155503714Y-84629880D02*
X155503714Y-83629880D01*
X155884666Y-83629880D01*
X155979904Y-83677500D01*
X156027523Y-83725119D01*
X156075142Y-83820357D01*
X156075142Y-83963214D01*
X156027523Y-84058452D01*
X155979904Y-84106071D01*
X155884666Y-84153690D01*
X155503714Y-84153690D01*
X156456095Y-83725119D02*
X156503714Y-83677500D01*
X156598952Y-83629880D01*
X156837047Y-83629880D01*
X156932285Y-83677500D01*
X156979904Y-83725119D01*
X157027523Y-83820357D01*
X157027523Y-83915595D01*
X156979904Y-84058452D01*
X156408476Y-84629880D01*
X157027523Y-84629880D01*
X157598952Y-84058452D02*
X157503714Y-84010833D01*
X157456095Y-83963214D01*
X157408476Y-83867976D01*
X157408476Y-83820357D01*
X157456095Y-83725119D01*
X157503714Y-83677500D01*
X157598952Y-83629880D01*
X157789428Y-83629880D01*
X157884666Y-83677500D01*
X157932285Y-83725119D01*
X157979904Y-83820357D01*
X157979904Y-83867976D01*
X157932285Y-83963214D01*
X157884666Y-84010833D01*
X157789428Y-84058452D01*
X157598952Y-84058452D01*
X157503714Y-84106071D01*
X157456095Y-84153690D01*
X157408476Y-84248928D01*
X157408476Y-84439404D01*
X157456095Y-84534642D01*
X157503714Y-84582261D01*
X157598952Y-84629880D01*
X157789428Y-84629880D01*
X157884666Y-84582261D01*
X157932285Y-84534642D01*
X157979904Y-84439404D01*
X157979904Y-84248928D01*
X157932285Y-84153690D01*
X157884666Y-84106071D01*
X157789428Y-84058452D01*
X110854666Y-78310380D02*
X110854666Y-79024666D01*
X110807047Y-79167523D01*
X110711809Y-79262761D01*
X110568952Y-79310380D01*
X110473714Y-79310380D01*
X111759428Y-78310380D02*
X111568952Y-78310380D01*
X111473714Y-78358000D01*
X111426095Y-78405619D01*
X111330857Y-78548476D01*
X111283238Y-78738952D01*
X111283238Y-79119904D01*
X111330857Y-79215142D01*
X111378476Y-79262761D01*
X111473714Y-79310380D01*
X111664190Y-79310380D01*
X111759428Y-79262761D01*
X111807047Y-79215142D01*
X111854666Y-79119904D01*
X111854666Y-78881809D01*
X111807047Y-78786571D01*
X111759428Y-78738952D01*
X111664190Y-78691333D01*
X111473714Y-78691333D01*
X111378476Y-78738952D01*
X111330857Y-78786571D01*
X111283238Y-78881809D01*
X119157904Y-138346380D02*
X119157904Y-139155904D01*
X119205523Y-139251142D01*
X119253142Y-139298761D01*
X119348380Y-139346380D01*
X119538857Y-139346380D01*
X119634095Y-139298761D01*
X119681714Y-139251142D01*
X119729333Y-139155904D01*
X119729333Y-138346380D01*
X120729333Y-139346380D02*
X120157904Y-139346380D01*
X120443619Y-139346380D02*
X120443619Y-138346380D01*
X120348380Y-138489238D01*
X120253142Y-138584476D01*
X120157904Y-138632095D01*
X121062666Y-138346380D02*
X121729333Y-138346380D01*
X121300761Y-139346380D01*
X155479904Y-135088380D02*
X155479904Y-135897904D01*
X155527523Y-135993142D01*
X155575142Y-136040761D01*
X155670380Y-136088380D01*
X155860857Y-136088380D01*
X155956095Y-136040761D01*
X156003714Y-135993142D01*
X156051333Y-135897904D01*
X156051333Y-135088380D01*
X157051333Y-136088380D02*
X156479904Y-136088380D01*
X156765619Y-136088380D02*
X156765619Y-135088380D01*
X156670380Y-135231238D01*
X156575142Y-135326476D01*
X156479904Y-135374095D01*
X157908476Y-135421714D02*
X157908476Y-136088380D01*
X157670380Y-135040761D02*
X157432285Y-135755047D01*
X158051333Y-135755047D01*
X155924642Y-64714380D02*
X155591309Y-64238190D01*
X155353214Y-64714380D02*
X155353214Y-63714380D01*
X155734166Y-63714380D01*
X155829404Y-63762000D01*
X155877023Y-63809619D01*
X155924642Y-63904857D01*
X155924642Y-64047714D01*
X155877023Y-64142952D01*
X155829404Y-64190571D01*
X155734166Y-64238190D01*
X155353214Y-64238190D01*
X156877023Y-64714380D02*
X156305595Y-64714380D01*
X156591309Y-64714380D02*
X156591309Y-63714380D01*
X156496071Y-63857238D01*
X156400833Y-63952476D01*
X156305595Y-64000095D01*
X157734166Y-64047714D02*
X157734166Y-64714380D01*
X157496071Y-63666761D02*
X157257976Y-64381047D01*
X157877023Y-64381047D01*
X155479904Y-105370380D02*
X155479904Y-106179904D01*
X155527523Y-106275142D01*
X155575142Y-106322761D01*
X155670380Y-106370380D01*
X155860857Y-106370380D01*
X155956095Y-106322761D01*
X156003714Y-106275142D01*
X156051333Y-106179904D01*
X156051333Y-105370380D01*
X156479904Y-105465619D02*
X156527523Y-105418000D01*
X156622761Y-105370380D01*
X156860857Y-105370380D01*
X156956095Y-105418000D01*
X157003714Y-105465619D01*
X157051333Y-105560857D01*
X157051333Y-105656095D01*
X157003714Y-105798952D01*
X156432285Y-106370380D01*
X157051333Y-106370380D01*
X157670380Y-105370380D02*
X157765619Y-105370380D01*
X157860857Y-105418000D01*
X157908476Y-105465619D01*
X157956095Y-105560857D01*
X158003714Y-105751333D01*
X158003714Y-105989428D01*
X157956095Y-106179904D01*
X157908476Y-106275142D01*
X157860857Y-106322761D01*
X157765619Y-106370380D01*
X157670380Y-106370380D01*
X157575142Y-106322761D01*
X157527523Y-106275142D01*
X157479904Y-106179904D01*
X157432285Y-105989428D01*
X157432285Y-105751333D01*
X157479904Y-105560857D01*
X157527523Y-105465619D01*
X157575142Y-105418000D01*
X157670380Y-105370380D01*
X141986095Y-109442380D02*
X141986095Y-110251904D01*
X142033714Y-110347142D01*
X142081333Y-110394761D01*
X142176571Y-110442380D01*
X142367047Y-110442380D01*
X142462285Y-110394761D01*
X142509904Y-110347142D01*
X142557523Y-110251904D01*
X142557523Y-109442380D01*
X143557523Y-110442380D02*
X142986095Y-110442380D01*
X143271809Y-110442380D02*
X143271809Y-109442380D01*
X143176571Y-109585238D01*
X143081333Y-109680476D01*
X142986095Y-109728095D01*
X119157904Y-99738380D02*
X119157904Y-100547904D01*
X119205523Y-100643142D01*
X119253142Y-100690761D01*
X119348380Y-100738380D01*
X119538857Y-100738380D01*
X119634095Y-100690761D01*
X119681714Y-100643142D01*
X119729333Y-100547904D01*
X119729333Y-99738380D01*
X120157904Y-99833619D02*
X120205523Y-99786000D01*
X120300761Y-99738380D01*
X120538857Y-99738380D01*
X120634095Y-99786000D01*
X120681714Y-99833619D01*
X120729333Y-99928857D01*
X120729333Y-100024095D01*
X120681714Y-100166952D01*
X120110285Y-100738380D01*
X120729333Y-100738380D01*
X121681714Y-100738380D02*
X121110285Y-100738380D01*
X121396000Y-100738380D02*
X121396000Y-99738380D01*
X121300761Y-99881238D01*
X121205523Y-99976476D01*
X121110285Y-100024095D01*
X130643333Y-76652380D02*
X130310000Y-76176190D01*
X130071904Y-76652380D02*
X130071904Y-75652380D01*
X130452857Y-75652380D01*
X130548095Y-75700000D01*
X130595714Y-75747619D01*
X130643333Y-75842857D01*
X130643333Y-75985714D01*
X130595714Y-76080952D01*
X130548095Y-76128571D01*
X130452857Y-76176190D01*
X130071904Y-76176190D01*
X131024285Y-75747619D02*
X131071904Y-75700000D01*
X131167142Y-75652380D01*
X131405238Y-75652380D01*
X131500476Y-75700000D01*
X131548095Y-75747619D01*
X131595714Y-75842857D01*
X131595714Y-75938095D01*
X131548095Y-76080952D01*
X130976666Y-76652380D01*
X131595714Y-76652380D01*
X156400833Y-54808380D02*
X156067500Y-54332190D01*
X155829404Y-54808380D02*
X155829404Y-53808380D01*
X156210357Y-53808380D01*
X156305595Y-53856000D01*
X156353214Y-53903619D01*
X156400833Y-53998857D01*
X156400833Y-54141714D01*
X156353214Y-54236952D01*
X156305595Y-54284571D01*
X156210357Y-54332190D01*
X155829404Y-54332190D01*
X156734166Y-53808380D02*
X157400833Y-53808380D01*
X156972261Y-54808380D01*
X127058142Y-72842380D02*
X126724809Y-72366190D01*
X126486714Y-72842380D02*
X126486714Y-71842380D01*
X126867666Y-71842380D01*
X126962904Y-71890000D01*
X127010523Y-71937619D01*
X127058142Y-72032857D01*
X127058142Y-72175714D01*
X127010523Y-72270952D01*
X126962904Y-72318571D01*
X126867666Y-72366190D01*
X126486714Y-72366190D01*
X128010523Y-72842380D02*
X127439095Y-72842380D01*
X127724809Y-72842380D02*
X127724809Y-71842380D01*
X127629571Y-71985238D01*
X127534333Y-72080476D01*
X127439095Y-72128095D01*
X128581952Y-72270952D02*
X128486714Y-72223333D01*
X128439095Y-72175714D01*
X128391476Y-72080476D01*
X128391476Y-72032857D01*
X128439095Y-71937619D01*
X128486714Y-71890000D01*
X128581952Y-71842380D01*
X128772428Y-71842380D01*
X128867666Y-71890000D01*
X128915285Y-71937619D01*
X128962904Y-72032857D01*
X128962904Y-72080476D01*
X128915285Y-72175714D01*
X128867666Y-72223333D01*
X128772428Y-72270952D01*
X128581952Y-72270952D01*
X128486714Y-72318571D01*
X128439095Y-72366190D01*
X128391476Y-72461428D01*
X128391476Y-72651904D01*
X128439095Y-72747142D01*
X128486714Y-72794761D01*
X128581952Y-72842380D01*
X128772428Y-72842380D01*
X128867666Y-72794761D01*
X128915285Y-72747142D01*
X128962904Y-72651904D01*
X128962904Y-72461428D01*
X128915285Y-72366190D01*
X128867666Y-72318571D01*
X128772428Y-72270952D01*
X155479904Y-125285880D02*
X155479904Y-126095404D01*
X155527523Y-126190642D01*
X155575142Y-126238261D01*
X155670380Y-126285880D01*
X155860857Y-126285880D01*
X155956095Y-126238261D01*
X156003714Y-126190642D01*
X156051333Y-126095404D01*
X156051333Y-125285880D01*
X157051333Y-126285880D02*
X156479904Y-126285880D01*
X156765619Y-126285880D02*
X156765619Y-125285880D01*
X156670380Y-125428738D01*
X156575142Y-125523976D01*
X156479904Y-125571595D01*
X157908476Y-125285880D02*
X157718000Y-125285880D01*
X157622761Y-125333500D01*
X157575142Y-125381119D01*
X157479904Y-125523976D01*
X157432285Y-125714452D01*
X157432285Y-126095404D01*
X157479904Y-126190642D01*
X157527523Y-126238261D01*
X157622761Y-126285880D01*
X157813238Y-126285880D01*
X157908476Y-126238261D01*
X157956095Y-126190642D01*
X158003714Y-126095404D01*
X158003714Y-125857309D01*
X157956095Y-125762071D01*
X157908476Y-125714452D01*
X157813238Y-125666833D01*
X157622761Y-125666833D01*
X157527523Y-125714452D01*
X157479904Y-125762071D01*
X157432285Y-125857309D01*
X110854666Y-127205380D02*
X110854666Y-127919666D01*
X110807047Y-128062523D01*
X110711809Y-128157761D01*
X110568952Y-128205380D01*
X110473714Y-128205380D01*
X111759428Y-127538714D02*
X111759428Y-128205380D01*
X111521333Y-127157761D02*
X111283238Y-127872047D01*
X111902285Y-127872047D01*
X155805595Y-55840380D02*
X155805595Y-56649904D01*
X155853214Y-56745142D01*
X155900833Y-56792761D01*
X155996071Y-56840380D01*
X156186547Y-56840380D01*
X156281785Y-56792761D01*
X156329404Y-56745142D01*
X156377023Y-56649904D01*
X156377023Y-55840380D01*
X157281785Y-56173714D02*
X157281785Y-56840380D01*
X157043690Y-55792761D02*
X156805595Y-56507047D01*
X157424642Y-56507047D01*
X119157904Y-128694380D02*
X119157904Y-129503904D01*
X119205523Y-129599142D01*
X119253142Y-129646761D01*
X119348380Y-129694380D01*
X119538857Y-129694380D01*
X119634095Y-129646761D01*
X119681714Y-129599142D01*
X119729333Y-129503904D01*
X119729333Y-128694380D01*
X120729333Y-129694380D02*
X120157904Y-129694380D01*
X120443619Y-129694380D02*
X120443619Y-128694380D01*
X120348380Y-128837238D01*
X120253142Y-128932476D01*
X120157904Y-128980095D01*
X121634095Y-128694380D02*
X121157904Y-128694380D01*
X121110285Y-129170571D01*
X121157904Y-129122952D01*
X121253142Y-129075333D01*
X121491238Y-129075333D01*
X121586476Y-129122952D01*
X121634095Y-129170571D01*
X121681714Y-129265809D01*
X121681714Y-129503904D01*
X121634095Y-129599142D01*
X121586476Y-129646761D01*
X121491238Y-129694380D01*
X121253142Y-129694380D01*
X121157904Y-129646761D01*
X121110285Y-129599142D01*
X156075142Y-114347880D02*
X155741809Y-113871690D01*
X155503714Y-114347880D02*
X155503714Y-113347880D01*
X155884666Y-113347880D01*
X155979904Y-113395500D01*
X156027523Y-113443119D01*
X156075142Y-113538357D01*
X156075142Y-113681214D01*
X156027523Y-113776452D01*
X155979904Y-113824071D01*
X155884666Y-113871690D01*
X155503714Y-113871690D01*
X156979904Y-113347880D02*
X156503714Y-113347880D01*
X156456095Y-113824071D01*
X156503714Y-113776452D01*
X156598952Y-113728833D01*
X156837047Y-113728833D01*
X156932285Y-113776452D01*
X156979904Y-113824071D01*
X157027523Y-113919309D01*
X157027523Y-114157404D01*
X156979904Y-114252642D01*
X156932285Y-114300261D01*
X156837047Y-114347880D01*
X156598952Y-114347880D01*
X156503714Y-114300261D01*
X156456095Y-114252642D01*
X157884666Y-113347880D02*
X157694190Y-113347880D01*
X157598952Y-113395500D01*
X157551333Y-113443119D01*
X157456095Y-113585976D01*
X157408476Y-113776452D01*
X157408476Y-114157404D01*
X157456095Y-114252642D01*
X157503714Y-114300261D01*
X157598952Y-114347880D01*
X157789428Y-114347880D01*
X157884666Y-114300261D01*
X157932285Y-114252642D01*
X157979904Y-114157404D01*
X157979904Y-113919309D01*
X157932285Y-113824071D01*
X157884666Y-113776452D01*
X157789428Y-113728833D01*
X157598952Y-113728833D01*
X157503714Y-113776452D01*
X157456095Y-113824071D01*
X157408476Y-113919309D01*
X130643333Y-79192380D02*
X130310000Y-78716190D01*
X130071904Y-79192380D02*
X130071904Y-78192380D01*
X130452857Y-78192380D01*
X130548095Y-78240000D01*
X130595714Y-78287619D01*
X130643333Y-78382857D01*
X130643333Y-78525714D01*
X130595714Y-78620952D01*
X130548095Y-78668571D01*
X130452857Y-78716190D01*
X130071904Y-78716190D01*
X130976666Y-78192380D02*
X131595714Y-78192380D01*
X131262380Y-78573333D01*
X131405238Y-78573333D01*
X131500476Y-78620952D01*
X131548095Y-78668571D01*
X131595714Y-78763809D01*
X131595714Y-79001904D01*
X131548095Y-79097142D01*
X131500476Y-79144761D01*
X131405238Y-79192380D01*
X131119523Y-79192380D01*
X131024285Y-79144761D01*
X130976666Y-79097142D01*
X127119142Y-92146380D02*
X126785809Y-91670190D01*
X126547714Y-92146380D02*
X126547714Y-91146380D01*
X126928666Y-91146380D01*
X127023904Y-91194000D01*
X127071523Y-91241619D01*
X127119142Y-91336857D01*
X127119142Y-91479714D01*
X127071523Y-91574952D01*
X127023904Y-91622571D01*
X126928666Y-91670190D01*
X126547714Y-91670190D01*
X127976285Y-91146380D02*
X127785809Y-91146380D01*
X127690571Y-91194000D01*
X127642952Y-91241619D01*
X127547714Y-91384476D01*
X127500095Y-91574952D01*
X127500095Y-91955904D01*
X127547714Y-92051142D01*
X127595333Y-92098761D01*
X127690571Y-92146380D01*
X127881047Y-92146380D01*
X127976285Y-92098761D01*
X128023904Y-92051142D01*
X128071523Y-91955904D01*
X128071523Y-91717809D01*
X128023904Y-91622571D01*
X127976285Y-91574952D01*
X127881047Y-91527333D01*
X127690571Y-91527333D01*
X127595333Y-91574952D01*
X127547714Y-91622571D01*
X127500095Y-91717809D01*
X128690571Y-91146380D02*
X128785809Y-91146380D01*
X128881047Y-91194000D01*
X128928666Y-91241619D01*
X128976285Y-91336857D01*
X129023904Y-91527333D01*
X129023904Y-91765428D01*
X128976285Y-91955904D01*
X128928666Y-92051142D01*
X128881047Y-92098761D01*
X128785809Y-92146380D01*
X128690571Y-92146380D01*
X128595333Y-92098761D01*
X128547714Y-92051142D01*
X128500095Y-91955904D01*
X128452476Y-91765428D01*
X128452476Y-91527333D01*
X128500095Y-91336857D01*
X128547714Y-91241619D01*
X128595333Y-91194000D01*
X128690571Y-91146380D01*
X156075142Y-94432380D02*
X155741809Y-93956190D01*
X155503714Y-94432380D02*
X155503714Y-93432380D01*
X155884666Y-93432380D01*
X155979904Y-93480000D01*
X156027523Y-93527619D01*
X156075142Y-93622857D01*
X156075142Y-93765714D01*
X156027523Y-93860952D01*
X155979904Y-93908571D01*
X155884666Y-93956190D01*
X155503714Y-93956190D01*
X156408476Y-93432380D02*
X157075142Y-93432380D01*
X156646571Y-94432380D01*
X157646571Y-93432380D02*
X157741809Y-93432380D01*
X157837047Y-93480000D01*
X157884666Y-93527619D01*
X157932285Y-93622857D01*
X157979904Y-93813333D01*
X157979904Y-94051428D01*
X157932285Y-94241904D01*
X157884666Y-94337142D01*
X157837047Y-94384761D01*
X157741809Y-94432380D01*
X157646571Y-94432380D01*
X157551333Y-94384761D01*
X157503714Y-94337142D01*
X157456095Y-94241904D01*
X157408476Y-94051428D01*
X157408476Y-93813333D01*
X157456095Y-93622857D01*
X157503714Y-93527619D01*
X157551333Y-93480000D01*
X157646571Y-93432380D01*
X133183333Y-72842380D02*
X132850000Y-72366190D01*
X132611904Y-72842380D02*
X132611904Y-71842380D01*
X132992857Y-71842380D01*
X133088095Y-71890000D01*
X133135714Y-71937619D01*
X133183333Y-72032857D01*
X133183333Y-72175714D01*
X133135714Y-72270952D01*
X133088095Y-72318571D01*
X132992857Y-72366190D01*
X132611904Y-72366190D01*
X134135714Y-72842380D02*
X133564285Y-72842380D01*
X133850000Y-72842380D02*
X133850000Y-71842380D01*
X133754761Y-71985238D01*
X133659523Y-72080476D01*
X133564285Y-72128095D01*
X156075142Y-74723880D02*
X155741809Y-74247690D01*
X155503714Y-74723880D02*
X155503714Y-73723880D01*
X155884666Y-73723880D01*
X155979904Y-73771500D01*
X156027523Y-73819119D01*
X156075142Y-73914357D01*
X156075142Y-74057214D01*
X156027523Y-74152452D01*
X155979904Y-74200071D01*
X155884666Y-74247690D01*
X155503714Y-74247690D01*
X156456095Y-73819119D02*
X156503714Y-73771500D01*
X156598952Y-73723880D01*
X156837047Y-73723880D01*
X156932285Y-73771500D01*
X156979904Y-73819119D01*
X157027523Y-73914357D01*
X157027523Y-74009595D01*
X156979904Y-74152452D01*
X156408476Y-74723880D01*
X157027523Y-74723880D01*
X157979904Y-74723880D02*
X157408476Y-74723880D01*
X157694190Y-74723880D02*
X157694190Y-73723880D01*
X157598952Y-73866738D01*
X157503714Y-73961976D01*
X157408476Y-74009595D01*
X140970095Y-73322380D02*
X140970095Y-74131904D01*
X141017714Y-74227142D01*
X141065333Y-74274761D01*
X141160571Y-74322380D01*
X141351047Y-74322380D01*
X141446285Y-74274761D01*
X141493904Y-74227142D01*
X141541523Y-74131904D01*
X141541523Y-73322380D01*
X141970095Y-73417619D02*
X142017714Y-73370000D01*
X142112952Y-73322380D01*
X142351047Y-73322380D01*
X142446285Y-73370000D01*
X142493904Y-73417619D01*
X142541523Y-73512857D01*
X142541523Y-73608095D01*
X142493904Y-73750952D01*
X141922476Y-74322380D01*
X142541523Y-74322380D01*
X156075142Y-104338380D02*
X155741809Y-103862190D01*
X155503714Y-104338380D02*
X155503714Y-103338380D01*
X155884666Y-103338380D01*
X155979904Y-103386000D01*
X156027523Y-103433619D01*
X156075142Y-103528857D01*
X156075142Y-103671714D01*
X156027523Y-103766952D01*
X155979904Y-103814571D01*
X155884666Y-103862190D01*
X155503714Y-103862190D01*
X156932285Y-103338380D02*
X156741809Y-103338380D01*
X156646571Y-103386000D01*
X156598952Y-103433619D01*
X156503714Y-103576476D01*
X156456095Y-103766952D01*
X156456095Y-104147904D01*
X156503714Y-104243142D01*
X156551333Y-104290761D01*
X156646571Y-104338380D01*
X156837047Y-104338380D01*
X156932285Y-104290761D01*
X156979904Y-104243142D01*
X157027523Y-104147904D01*
X157027523Y-103909809D01*
X156979904Y-103814571D01*
X156932285Y-103766952D01*
X156837047Y-103719333D01*
X156646571Y-103719333D01*
X156551333Y-103766952D01*
X156503714Y-103814571D01*
X156456095Y-103909809D01*
X157360857Y-103338380D02*
X157979904Y-103338380D01*
X157646571Y-103719333D01*
X157789428Y-103719333D01*
X157884666Y-103766952D01*
X157932285Y-103814571D01*
X157979904Y-103909809D01*
X157979904Y-104147904D01*
X157932285Y-104243142D01*
X157884666Y-104290761D01*
X157789428Y-104338380D01*
X157503714Y-104338380D01*
X157408476Y-104290761D01*
X157360857Y-104243142D01*
X155956095Y-75755880D02*
X155956095Y-76565404D01*
X156003714Y-76660642D01*
X156051333Y-76708261D01*
X156146571Y-76755880D01*
X156337047Y-76755880D01*
X156432285Y-76708261D01*
X156479904Y-76660642D01*
X156527523Y-76565404D01*
X156527523Y-75755880D01*
X157146571Y-76184452D02*
X157051333Y-76136833D01*
X157003714Y-76089214D01*
X156956095Y-75993976D01*
X156956095Y-75946357D01*
X157003714Y-75851119D01*
X157051333Y-75803500D01*
X157146571Y-75755880D01*
X157337047Y-75755880D01*
X157432285Y-75803500D01*
X157479904Y-75851119D01*
X157527523Y-75946357D01*
X157527523Y-75993976D01*
X157479904Y-76089214D01*
X157432285Y-76136833D01*
X157337047Y-76184452D01*
X157146571Y-76184452D01*
X157051333Y-76232071D01*
X157003714Y-76279690D01*
X156956095Y-76374928D01*
X156956095Y-76565404D01*
X157003714Y-76660642D01*
X157051333Y-76708261D01*
X157146571Y-76755880D01*
X157337047Y-76755880D01*
X157432285Y-76708261D01*
X157479904Y-76660642D01*
X157527523Y-76565404D01*
X157527523Y-76374928D01*
X157479904Y-76279690D01*
X157432285Y-76232071D01*
X157337047Y-76184452D01*
X127058142Y-82494380D02*
X126724809Y-82018190D01*
X126486714Y-82494380D02*
X126486714Y-81494380D01*
X126867666Y-81494380D01*
X126962904Y-81542000D01*
X127010523Y-81589619D01*
X127058142Y-81684857D01*
X127058142Y-81827714D01*
X127010523Y-81922952D01*
X126962904Y-81970571D01*
X126867666Y-82018190D01*
X126486714Y-82018190D01*
X127439095Y-81589619D02*
X127486714Y-81542000D01*
X127581952Y-81494380D01*
X127820047Y-81494380D01*
X127915285Y-81542000D01*
X127962904Y-81589619D01*
X128010523Y-81684857D01*
X128010523Y-81780095D01*
X127962904Y-81922952D01*
X127391476Y-82494380D01*
X128010523Y-82494380D01*
X128915285Y-81494380D02*
X128439095Y-81494380D01*
X128391476Y-81970571D01*
X128439095Y-81922952D01*
X128534333Y-81875333D01*
X128772428Y-81875333D01*
X128867666Y-81922952D01*
X128915285Y-81970571D01*
X128962904Y-82065809D01*
X128962904Y-82303904D01*
X128915285Y-82399142D01*
X128867666Y-82446761D01*
X128772428Y-82494380D01*
X128534333Y-82494380D01*
X128439095Y-82446761D01*
X128391476Y-82399142D01*
X127058142Y-63190380D02*
X126724809Y-62714190D01*
X126486714Y-63190380D02*
X126486714Y-62190380D01*
X126867666Y-62190380D01*
X126962904Y-62238000D01*
X127010523Y-62285619D01*
X127058142Y-62380857D01*
X127058142Y-62523714D01*
X127010523Y-62618952D01*
X126962904Y-62666571D01*
X126867666Y-62714190D01*
X126486714Y-62714190D01*
X128010523Y-63190380D02*
X127439095Y-63190380D01*
X127724809Y-63190380D02*
X127724809Y-62190380D01*
X127629571Y-62333238D01*
X127534333Y-62428476D01*
X127439095Y-62476095D01*
X128962904Y-63190380D02*
X128391476Y-63190380D01*
X128677190Y-63190380D02*
X128677190Y-62190380D01*
X128581952Y-62333238D01*
X128486714Y-62428476D01*
X128391476Y-62476095D01*
X127119142Y-130754380D02*
X126785809Y-130278190D01*
X126547714Y-130754380D02*
X126547714Y-129754380D01*
X126928666Y-129754380D01*
X127023904Y-129802000D01*
X127071523Y-129849619D01*
X127119142Y-129944857D01*
X127119142Y-130087714D01*
X127071523Y-130182952D01*
X127023904Y-130230571D01*
X126928666Y-130278190D01*
X126547714Y-130278190D01*
X127976285Y-130087714D02*
X127976285Y-130754380D01*
X127738190Y-129706761D02*
X127500095Y-130421047D01*
X128119142Y-130421047D01*
X128928666Y-129754380D02*
X128738190Y-129754380D01*
X128642952Y-129802000D01*
X128595333Y-129849619D01*
X128500095Y-129992476D01*
X128452476Y-130182952D01*
X128452476Y-130563904D01*
X128500095Y-130659142D01*
X128547714Y-130706761D01*
X128642952Y-130754380D01*
X128833428Y-130754380D01*
X128928666Y-130706761D01*
X128976285Y-130659142D01*
X129023904Y-130563904D01*
X129023904Y-130325809D01*
X128976285Y-130230571D01*
X128928666Y-130182952D01*
X128833428Y-130135333D01*
X128642952Y-130135333D01*
X128547714Y-130182952D01*
X128500095Y-130230571D01*
X128452476Y-130325809D01*
X127436833Y-53379880D02*
X127103500Y-52903690D01*
X126865404Y-53379880D02*
X126865404Y-52379880D01*
X127246357Y-52379880D01*
X127341595Y-52427500D01*
X127389214Y-52475119D01*
X127436833Y-52570357D01*
X127436833Y-52713214D01*
X127389214Y-52808452D01*
X127341595Y-52856071D01*
X127246357Y-52903690D01*
X126865404Y-52903690D01*
X128293976Y-52713214D02*
X128293976Y-53379880D01*
X128055880Y-52332261D02*
X127817785Y-53046547D01*
X128436833Y-53046547D01*
X171179666Y-66670380D02*
X171179666Y-67384666D01*
X171132047Y-67527523D01*
X171036809Y-67622761D01*
X170893952Y-67670380D01*
X170798714Y-67670380D01*
X171560619Y-66670380D02*
X172179666Y-66670380D01*
X171846333Y-67051333D01*
X171989190Y-67051333D01*
X172084428Y-67098952D01*
X172132047Y-67146571D01*
X172179666Y-67241809D01*
X172179666Y-67479904D01*
X172132047Y-67575142D01*
X172084428Y-67622761D01*
X171989190Y-67670380D01*
X171703476Y-67670380D01*
X171608238Y-67622761D01*
X171560619Y-67575142D01*
X156075142Y-124253880D02*
X155741809Y-123777690D01*
X155503714Y-124253880D02*
X155503714Y-123253880D01*
X155884666Y-123253880D01*
X155979904Y-123301500D01*
X156027523Y-123349119D01*
X156075142Y-123444357D01*
X156075142Y-123587214D01*
X156027523Y-123682452D01*
X155979904Y-123730071D01*
X155884666Y-123777690D01*
X155503714Y-123777690D01*
X156932285Y-123587214D02*
X156932285Y-124253880D01*
X156694190Y-123206261D02*
X156456095Y-123920547D01*
X157075142Y-123920547D01*
X157503714Y-124253880D02*
X157694190Y-124253880D01*
X157789428Y-124206261D01*
X157837047Y-124158642D01*
X157932285Y-124015785D01*
X157979904Y-123825309D01*
X157979904Y-123444357D01*
X157932285Y-123349119D01*
X157884666Y-123301500D01*
X157789428Y-123253880D01*
X157598952Y-123253880D01*
X157503714Y-123301500D01*
X157456095Y-123349119D01*
X157408476Y-123444357D01*
X157408476Y-123682452D01*
X157456095Y-123777690D01*
X157503714Y-123825309D01*
X157598952Y-123872928D01*
X157789428Y-123872928D01*
X157884666Y-123825309D01*
X157932285Y-123777690D01*
X157979904Y-123682452D01*
X155479904Y-144994380D02*
X155479904Y-145803904D01*
X155527523Y-145899142D01*
X155575142Y-145946761D01*
X155670380Y-145994380D01*
X155860857Y-145994380D01*
X155956095Y-145946761D01*
X156003714Y-145899142D01*
X156051333Y-145803904D01*
X156051333Y-144994380D01*
X157051333Y-145994380D02*
X156479904Y-145994380D01*
X156765619Y-145994380D02*
X156765619Y-144994380D01*
X156670380Y-145137238D01*
X156575142Y-145232476D01*
X156479904Y-145280095D01*
X157432285Y-145089619D02*
X157479904Y-145042000D01*
X157575142Y-144994380D01*
X157813238Y-144994380D01*
X157908476Y-145042000D01*
X157956095Y-145089619D01*
X158003714Y-145184857D01*
X158003714Y-145280095D01*
X157956095Y-145422952D01*
X157384666Y-145994380D01*
X158003714Y-145994380D01*
X171179666Y-111120380D02*
X171179666Y-111834666D01*
X171132047Y-111977523D01*
X171036809Y-112072761D01*
X170893952Y-112120380D01*
X170798714Y-112120380D01*
X172132047Y-111120380D02*
X171655857Y-111120380D01*
X171608238Y-111596571D01*
X171655857Y-111548952D01*
X171751095Y-111501333D01*
X171989190Y-111501333D01*
X172084428Y-111548952D01*
X172132047Y-111596571D01*
X172179666Y-111691809D01*
X172179666Y-111929904D01*
X172132047Y-112025142D01*
X172084428Y-112072761D01*
X171989190Y-112120380D01*
X171751095Y-112120380D01*
X171655857Y-112072761D01*
X171608238Y-112025142D01*
X155479904Y-115379880D02*
X155479904Y-116189404D01*
X155527523Y-116284642D01*
X155575142Y-116332261D01*
X155670380Y-116379880D01*
X155860857Y-116379880D01*
X155956095Y-116332261D01*
X156003714Y-116284642D01*
X156051333Y-116189404D01*
X156051333Y-115379880D01*
X157051333Y-116379880D02*
X156479904Y-116379880D01*
X156765619Y-116379880D02*
X156765619Y-115379880D01*
X156670380Y-115522738D01*
X156575142Y-115617976D01*
X156479904Y-115665595D01*
X157622761Y-115808452D02*
X157527523Y-115760833D01*
X157479904Y-115713214D01*
X157432285Y-115617976D01*
X157432285Y-115570357D01*
X157479904Y-115475119D01*
X157527523Y-115427500D01*
X157622761Y-115379880D01*
X157813238Y-115379880D01*
X157908476Y-115427500D01*
X157956095Y-115475119D01*
X158003714Y-115570357D01*
X158003714Y-115617976D01*
X157956095Y-115713214D01*
X157908476Y-115760833D01*
X157813238Y-115808452D01*
X157622761Y-115808452D01*
X157527523Y-115856071D01*
X157479904Y-115903690D01*
X157432285Y-115998928D01*
X157432285Y-116189404D01*
X157479904Y-116284642D01*
X157527523Y-116332261D01*
X157622761Y-116379880D01*
X157813238Y-116379880D01*
X157908476Y-116332261D01*
X157956095Y-116284642D01*
X158003714Y-116189404D01*
X158003714Y-115998928D01*
X157956095Y-115903690D01*
X157908476Y-115856071D01*
X157813238Y-115808452D01*
X119157904Y-90086380D02*
X119157904Y-90895904D01*
X119205523Y-90991142D01*
X119253142Y-91038761D01*
X119348380Y-91086380D01*
X119538857Y-91086380D01*
X119634095Y-91038761D01*
X119681714Y-90991142D01*
X119729333Y-90895904D01*
X119729333Y-90086380D01*
X120729333Y-91086380D02*
X120157904Y-91086380D01*
X120443619Y-91086380D02*
X120443619Y-90086380D01*
X120348380Y-90229238D01*
X120253142Y-90324476D01*
X120157904Y-90372095D01*
X121205523Y-91086380D02*
X121396000Y-91086380D01*
X121491238Y-91038761D01*
X121538857Y-90991142D01*
X121634095Y-90848285D01*
X121681714Y-90657809D01*
X121681714Y-90276857D01*
X121634095Y-90181619D01*
X121586476Y-90134000D01*
X121491238Y-90086380D01*
X121300761Y-90086380D01*
X121205523Y-90134000D01*
X121157904Y-90181619D01*
X121110285Y-90276857D01*
X121110285Y-90514952D01*
X121157904Y-90610190D01*
X121205523Y-90657809D01*
X121300761Y-90705428D01*
X121491238Y-90705428D01*
X121586476Y-90657809D01*
X121634095Y-90610190D01*
X121681714Y-90514952D01*
X127119142Y-140406380D02*
X126785809Y-139930190D01*
X126547714Y-140406380D02*
X126547714Y-139406380D01*
X126928666Y-139406380D01*
X127023904Y-139454000D01*
X127071523Y-139501619D01*
X127119142Y-139596857D01*
X127119142Y-139739714D01*
X127071523Y-139834952D01*
X127023904Y-139882571D01*
X126928666Y-139930190D01*
X126547714Y-139930190D01*
X128023904Y-139406380D02*
X127547714Y-139406380D01*
X127500095Y-139882571D01*
X127547714Y-139834952D01*
X127642952Y-139787333D01*
X127881047Y-139787333D01*
X127976285Y-139834952D01*
X128023904Y-139882571D01*
X128071523Y-139977809D01*
X128071523Y-140215904D01*
X128023904Y-140311142D01*
X127976285Y-140358761D01*
X127881047Y-140406380D01*
X127642952Y-140406380D01*
X127547714Y-140358761D01*
X127500095Y-140311142D01*
X128404857Y-139406380D02*
X129023904Y-139406380D01*
X128690571Y-139787333D01*
X128833428Y-139787333D01*
X128928666Y-139834952D01*
X128976285Y-139882571D01*
X129023904Y-139977809D01*
X129023904Y-140215904D01*
X128976285Y-140311142D01*
X128928666Y-140358761D01*
X128833428Y-140406380D01*
X128547714Y-140406380D01*
X128452476Y-140358761D01*
X128404857Y-140311142D01*
X110854666Y-54815380D02*
X110854666Y-55529666D01*
X110807047Y-55672523D01*
X110711809Y-55767761D01*
X110568952Y-55815380D01*
X110473714Y-55815380D01*
X111283238Y-54910619D02*
X111330857Y-54863000D01*
X111426095Y-54815380D01*
X111664190Y-54815380D01*
X111759428Y-54863000D01*
X111807047Y-54910619D01*
X111854666Y-55005857D01*
X111854666Y-55101095D01*
X111807047Y-55243952D01*
X111235619Y-55815380D01*
X111854666Y-55815380D01*
X127119142Y-111450380D02*
X126785809Y-110974190D01*
X126547714Y-111450380D02*
X126547714Y-110450380D01*
X126928666Y-110450380D01*
X127023904Y-110498000D01*
X127071523Y-110545619D01*
X127119142Y-110640857D01*
X127119142Y-110783714D01*
X127071523Y-110878952D01*
X127023904Y-110926571D01*
X126928666Y-110974190D01*
X126547714Y-110974190D01*
X127452476Y-110450380D02*
X128071523Y-110450380D01*
X127738190Y-110831333D01*
X127881047Y-110831333D01*
X127976285Y-110878952D01*
X128023904Y-110926571D01*
X128071523Y-111021809D01*
X128071523Y-111259904D01*
X128023904Y-111355142D01*
X127976285Y-111402761D01*
X127881047Y-111450380D01*
X127595333Y-111450380D01*
X127500095Y-111402761D01*
X127452476Y-111355142D01*
X128452476Y-110545619D02*
X128500095Y-110498000D01*
X128595333Y-110450380D01*
X128833428Y-110450380D01*
X128928666Y-110498000D01*
X128976285Y-110545619D01*
X129023904Y-110640857D01*
X129023904Y-110736095D01*
X128976285Y-110878952D01*
X128404857Y-111450380D01*
X129023904Y-111450380D01*
X119475595Y-51319880D02*
X119475595Y-52129404D01*
X119523214Y-52224642D01*
X119570833Y-52272261D01*
X119666071Y-52319880D01*
X119856547Y-52319880D01*
X119951785Y-52272261D01*
X119999404Y-52224642D01*
X120047023Y-52129404D01*
X120047023Y-51319880D01*
X120427976Y-51319880D02*
X121047023Y-51319880D01*
X120713690Y-51700833D01*
X120856547Y-51700833D01*
X120951785Y-51748452D01*
X120999404Y-51796071D01*
X121047023Y-51891309D01*
X121047023Y-52129404D01*
X120999404Y-52224642D01*
X120951785Y-52272261D01*
X120856547Y-52319880D01*
X120570833Y-52319880D01*
X120475595Y-52272261D01*
X120427976Y-52224642D01*
X155479904Y-85661880D02*
X155479904Y-86471404D01*
X155527523Y-86566642D01*
X155575142Y-86614261D01*
X155670380Y-86661880D01*
X155860857Y-86661880D01*
X155956095Y-86614261D01*
X156003714Y-86566642D01*
X156051333Y-86471404D01*
X156051333Y-85661880D01*
X157051333Y-86661880D02*
X156479904Y-86661880D01*
X156765619Y-86661880D02*
X156765619Y-85661880D01*
X156670380Y-85804738D01*
X156575142Y-85899976D01*
X156479904Y-85947595D01*
X157670380Y-85661880D02*
X157765619Y-85661880D01*
X157860857Y-85709500D01*
X157908476Y-85757119D01*
X157956095Y-85852357D01*
X158003714Y-86042833D01*
X158003714Y-86280928D01*
X157956095Y-86471404D01*
X157908476Y-86566642D01*
X157860857Y-86614261D01*
X157765619Y-86661880D01*
X157670380Y-86661880D01*
X157575142Y-86614261D01*
X157527523Y-86566642D01*
X157479904Y-86471404D01*
X157432285Y-86280928D01*
X157432285Y-86042833D01*
X157479904Y-85852357D01*
X157527523Y-85757119D01*
X157575142Y-85709500D01*
X157670380Y-85661880D01*
X110854666Y-104980380D02*
X110854666Y-105694666D01*
X110807047Y-105837523D01*
X110711809Y-105932761D01*
X110568952Y-105980380D01*
X110473714Y-105980380D01*
X111854666Y-105980380D02*
X111283238Y-105980380D01*
X111568952Y-105980380D02*
X111568952Y-104980380D01*
X111473714Y-105123238D01*
X111378476Y-105218476D01*
X111283238Y-105266095D01*
X156075142Y-134056380D02*
X155741809Y-133580190D01*
X155503714Y-134056380D02*
X155503714Y-133056380D01*
X155884666Y-133056380D01*
X155979904Y-133104000D01*
X156027523Y-133151619D01*
X156075142Y-133246857D01*
X156075142Y-133389714D01*
X156027523Y-133484952D01*
X155979904Y-133532571D01*
X155884666Y-133580190D01*
X155503714Y-133580190D01*
X156932285Y-133389714D02*
X156932285Y-134056380D01*
X156694190Y-133008761D02*
X156456095Y-133723047D01*
X157075142Y-133723047D01*
X157408476Y-133151619D02*
X157456095Y-133104000D01*
X157551333Y-133056380D01*
X157789428Y-133056380D01*
X157884666Y-133104000D01*
X157932285Y-133151619D01*
X157979904Y-133246857D01*
X157979904Y-133342095D01*
X157932285Y-133484952D01*
X157360857Y-134056380D01*
X157979904Y-134056380D01*
X127119142Y-121102380D02*
X126785809Y-120626190D01*
X126547714Y-121102380D02*
X126547714Y-120102380D01*
X126928666Y-120102380D01*
X127023904Y-120150000D01*
X127071523Y-120197619D01*
X127119142Y-120292857D01*
X127119142Y-120435714D01*
X127071523Y-120530952D01*
X127023904Y-120578571D01*
X126928666Y-120626190D01*
X126547714Y-120626190D01*
X127452476Y-120102380D02*
X128071523Y-120102380D01*
X127738190Y-120483333D01*
X127881047Y-120483333D01*
X127976285Y-120530952D01*
X128023904Y-120578571D01*
X128071523Y-120673809D01*
X128071523Y-120911904D01*
X128023904Y-121007142D01*
X127976285Y-121054761D01*
X127881047Y-121102380D01*
X127595333Y-121102380D01*
X127500095Y-121054761D01*
X127452476Y-121007142D01*
X128547714Y-121102380D02*
X128738190Y-121102380D01*
X128833428Y-121054761D01*
X128881047Y-121007142D01*
X128976285Y-120864285D01*
X129023904Y-120673809D01*
X129023904Y-120292857D01*
X128976285Y-120197619D01*
X128928666Y-120150000D01*
X128833428Y-120102380D01*
X128642952Y-120102380D01*
X128547714Y-120150000D01*
X128500095Y-120197619D01*
X128452476Y-120292857D01*
X128452476Y-120530952D01*
X128500095Y-120626190D01*
X128547714Y-120673809D01*
X128642952Y-120721428D01*
X128833428Y-120721428D01*
X128928666Y-120673809D01*
X128976285Y-120626190D01*
X129023904Y-120530952D01*
X119157904Y-119042380D02*
X119157904Y-119851904D01*
X119205523Y-119947142D01*
X119253142Y-119994761D01*
X119348380Y-120042380D01*
X119538857Y-120042380D01*
X119634095Y-119994761D01*
X119681714Y-119947142D01*
X119729333Y-119851904D01*
X119729333Y-119042380D01*
X120729333Y-120042380D02*
X120157904Y-120042380D01*
X120443619Y-120042380D02*
X120443619Y-119042380D01*
X120348380Y-119185238D01*
X120253142Y-119280476D01*
X120157904Y-119328095D01*
X121062666Y-119042380D02*
X121681714Y-119042380D01*
X121348380Y-119423333D01*
X121491238Y-119423333D01*
X121586476Y-119470952D01*
X121634095Y-119518571D01*
X121681714Y-119613809D01*
X121681714Y-119851904D01*
X121634095Y-119947142D01*
X121586476Y-119994761D01*
X121491238Y-120042380D01*
X121205523Y-120042380D01*
X121110285Y-119994761D01*
X121062666Y-119947142D01*
X171179666Y-94610380D02*
X171179666Y-95324666D01*
X171132047Y-95467523D01*
X171036809Y-95562761D01*
X170893952Y-95610380D01*
X170798714Y-95610380D01*
X171560619Y-94610380D02*
X172227285Y-94610380D01*
X171798714Y-95610380D01*
X127119142Y-101798380D02*
X126785809Y-101322190D01*
X126547714Y-101798380D02*
X126547714Y-100798380D01*
X126928666Y-100798380D01*
X127023904Y-100846000D01*
X127071523Y-100893619D01*
X127119142Y-100988857D01*
X127119142Y-101131714D01*
X127071523Y-101226952D01*
X127023904Y-101274571D01*
X126928666Y-101322190D01*
X126547714Y-101322190D01*
X127976285Y-100798380D02*
X127785809Y-100798380D01*
X127690571Y-100846000D01*
X127642952Y-100893619D01*
X127547714Y-101036476D01*
X127500095Y-101226952D01*
X127500095Y-101607904D01*
X127547714Y-101703142D01*
X127595333Y-101750761D01*
X127690571Y-101798380D01*
X127881047Y-101798380D01*
X127976285Y-101750761D01*
X128023904Y-101703142D01*
X128071523Y-101607904D01*
X128071523Y-101369809D01*
X128023904Y-101274571D01*
X127976285Y-101226952D01*
X127881047Y-101179333D01*
X127690571Y-101179333D01*
X127595333Y-101226952D01*
X127547714Y-101274571D01*
X127500095Y-101369809D01*
X128404857Y-100798380D02*
X129071523Y-100798380D01*
X128642952Y-101798380D01*
X119157904Y-109390380D02*
X119157904Y-110199904D01*
X119205523Y-110295142D01*
X119253142Y-110342761D01*
X119348380Y-110390380D01*
X119538857Y-110390380D01*
X119634095Y-110342761D01*
X119681714Y-110295142D01*
X119729333Y-110199904D01*
X119729333Y-109390380D01*
X120729333Y-110390380D02*
X120157904Y-110390380D01*
X120443619Y-110390380D02*
X120443619Y-109390380D01*
X120348380Y-109533238D01*
X120253142Y-109628476D01*
X120157904Y-109676095D01*
X121681714Y-110390380D02*
X121110285Y-110390380D01*
X121396000Y-110390380D02*
X121396000Y-109390380D01*
X121300761Y-109533238D01*
X121205523Y-109628476D01*
X121110285Y-109676095D01*
X156075142Y-143962380D02*
X155741809Y-143486190D01*
X155503714Y-143962380D02*
X155503714Y-142962380D01*
X155884666Y-142962380D01*
X155979904Y-143010000D01*
X156027523Y-143057619D01*
X156075142Y-143152857D01*
X156075142Y-143295714D01*
X156027523Y-143390952D01*
X155979904Y-143438571D01*
X155884666Y-143486190D01*
X155503714Y-143486190D01*
X156408476Y-142962380D02*
X157027523Y-142962380D01*
X156694190Y-143343333D01*
X156837047Y-143343333D01*
X156932285Y-143390952D01*
X156979904Y-143438571D01*
X157027523Y-143533809D01*
X157027523Y-143771904D01*
X156979904Y-143867142D01*
X156932285Y-143914761D01*
X156837047Y-143962380D01*
X156551333Y-143962380D01*
X156456095Y-143914761D01*
X156408476Y-143867142D01*
X157932285Y-142962380D02*
X157456095Y-142962380D01*
X157408476Y-143438571D01*
X157456095Y-143390952D01*
X157551333Y-143343333D01*
X157789428Y-143343333D01*
X157884666Y-143390952D01*
X157932285Y-143438571D01*
X157979904Y-143533809D01*
X157979904Y-143771904D01*
X157932285Y-143867142D01*
X157884666Y-143914761D01*
X157789428Y-143962380D01*
X157551333Y-143962380D01*
X157456095Y-143914761D01*
X157408476Y-143867142D01*
X155479904Y-95464380D02*
X155479904Y-96273904D01*
X155527523Y-96369142D01*
X155575142Y-96416761D01*
X155670380Y-96464380D01*
X155860857Y-96464380D01*
X155956095Y-96416761D01*
X156003714Y-96369142D01*
X156051333Y-96273904D01*
X156051333Y-95464380D01*
X156479904Y-95559619D02*
X156527523Y-95512000D01*
X156622761Y-95464380D01*
X156860857Y-95464380D01*
X156956095Y-95512000D01*
X157003714Y-95559619D01*
X157051333Y-95654857D01*
X157051333Y-95750095D01*
X157003714Y-95892952D01*
X156432285Y-96464380D01*
X157051333Y-96464380D01*
X157432285Y-95559619D02*
X157479904Y-95512000D01*
X157575142Y-95464380D01*
X157813238Y-95464380D01*
X157908476Y-95512000D01*
X157956095Y-95559619D01*
X158003714Y-95654857D01*
X158003714Y-95750095D01*
X157956095Y-95892952D01*
X157384666Y-96464380D01*
X158003714Y-96464380D01*
D11*
X117100000Y-72330000D02*
X117100000Y-80070000D01*
X123570000Y-72330000D02*
X121335000Y-72330000D01*
X123570000Y-80070000D02*
X123570000Y-72330000D01*
X117100000Y-80070000D02*
X123570000Y-80070000D01*
X119335000Y-72330000D02*
X117100000Y-72330000D01*
X119335000Y-72330000D02*
G75*
G03*
X121335000Y-72330000I1000000J0D01*
G01*
X162171500Y-60646000D02*
X160721500Y-60646000D01*
X165621500Y-68386000D02*
X165621500Y-60646000D01*
X165621500Y-60646000D02*
X164171500Y-60646000D01*
X160721500Y-68386000D02*
X165621500Y-68386000D01*
X160721500Y-60646000D02*
X160721500Y-68386000D01*
X162171500Y-60646000D02*
G75*
G03*
X164171500Y-60646000I1000000J0D01*
G01*
X117100000Y-81982000D02*
X117100000Y-89722000D01*
X123570000Y-81982000D02*
X121335000Y-81982000D01*
X123570000Y-89722000D02*
X123570000Y-81982000D01*
X117100000Y-89722000D02*
X123570000Y-89722000D01*
X119335000Y-81982000D02*
X117100000Y-81982000D01*
X119335000Y-81982000D02*
G75*
G03*
X121335000Y-81982000I1000000J0D01*
G01*
X117100000Y-62678000D02*
X117100000Y-70418000D01*
X117100000Y-70418000D02*
X123570000Y-70418000D01*
X119335000Y-62678000D02*
X117100000Y-62678000D01*
X123570000Y-62678000D02*
X121335000Y-62678000D01*
X123570000Y-70418000D02*
X123570000Y-62678000D01*
X119335000Y-62678000D02*
G75*
G03*
X121335000Y-62678000I1000000J0D01*
G01*
X157494500Y-82128758D02*
X157494500Y-81654242D01*
X156449500Y-82128758D02*
X156449500Y-81654242D01*
X109858000Y-82458000D02*
X109858000Y-90138000D01*
X109858000Y-81188000D02*
X109858000Y-79858000D01*
X112518000Y-82458000D02*
X112518000Y-90138000D01*
X109858000Y-90138000D02*
X112518000Y-90138000D01*
X109858000Y-79858000D02*
X111188000Y-79858000D01*
X109858000Y-82458000D02*
X112518000Y-82458000D01*
X117161000Y-139894000D02*
X117161000Y-147634000D01*
X123631000Y-139894000D02*
X121396000Y-139894000D01*
X123631000Y-147634000D02*
X123631000Y-139894000D01*
X117161000Y-147634000D02*
X123631000Y-147634000D01*
X119396000Y-139894000D02*
X117161000Y-139894000D01*
X119396000Y-139894000D02*
G75*
G03*
X121396000Y-139894000I1000000J0D01*
G01*
X162322000Y-129988000D02*
X160872000Y-129988000D01*
X165772000Y-137728000D02*
X165772000Y-129988000D01*
X165772000Y-129988000D02*
X164322000Y-129988000D01*
X160872000Y-129988000D02*
X160872000Y-137728000D01*
X160872000Y-137728000D02*
X165772000Y-137728000D01*
X162322000Y-129988000D02*
G75*
G03*
X164322000Y-129988000I1000000J0D01*
G01*
X157344000Y-62213258D02*
X157344000Y-61738742D01*
X156299000Y-62213258D02*
X156299000Y-61738742D01*
X160872000Y-108010000D02*
X165772000Y-108010000D01*
X165772000Y-108010000D02*
X165772000Y-100270000D01*
X165772000Y-100270000D02*
X164322000Y-100270000D01*
X162322000Y-100270000D02*
X160872000Y-100270000D01*
X160872000Y-100270000D02*
X160872000Y-108010000D01*
X162322000Y-100270000D02*
G75*
G03*
X164322000Y-100270000I1000000J0D01*
G01*
X152894000Y-98860000D02*
X152894000Y-99260000D01*
X131894000Y-96360000D02*
X131894000Y-96760000D01*
X152894000Y-91260000D02*
X152894000Y-91660000D01*
X131894000Y-88927000D02*
X134901000Y-88927000D01*
X152894000Y-109060000D02*
X152894000Y-109460000D01*
X152894000Y-121760000D02*
X152894000Y-122160000D01*
X152894000Y-103960000D02*
X152894000Y-104360000D01*
X152894000Y-131860000D02*
X152894000Y-132260000D01*
X131894000Y-93760000D02*
X131894000Y-94160000D01*
X152894000Y-101360000D02*
X152894000Y-101760000D01*
X152894000Y-116660000D02*
X152894000Y-117060000D01*
X131894000Y-91260000D02*
X131894000Y-91660000D01*
X152894000Y-114060000D02*
X152894000Y-114460000D01*
X131894000Y-119160000D02*
X131894000Y-119560000D01*
X131894000Y-106460000D02*
X131894000Y-106860000D01*
X131894000Y-111560000D02*
X131894000Y-111960000D01*
X152894000Y-93760000D02*
X152894000Y-94160000D01*
X138694000Y-137260000D02*
X131894000Y-137260000D01*
X131894000Y-129360000D02*
X131894000Y-129760000D01*
X152894000Y-119160000D02*
X152894000Y-119560000D01*
X152894000Y-124260000D02*
X152894000Y-124660000D01*
X131894000Y-98860000D02*
X131894000Y-99260000D01*
X152894000Y-106460000D02*
X152894000Y-106860000D01*
X134901000Y-88927000D02*
X134901000Y-86260000D01*
X152894000Y-111560000D02*
X152894000Y-111960000D01*
X131894000Y-124260000D02*
X131894000Y-124660000D01*
X131894000Y-134460000D02*
X131894000Y-134860000D01*
X131894000Y-131860000D02*
X131894000Y-132260000D01*
X131894000Y-114060000D02*
X131894000Y-114460000D01*
X152894000Y-137260000D02*
X146094000Y-137260000D01*
X131894000Y-121760000D02*
X131894000Y-122160000D01*
X131894000Y-103960000D02*
X131894000Y-104360000D01*
X152894000Y-126860000D02*
X152894000Y-127260000D01*
X152894000Y-129360000D02*
X152894000Y-129760000D01*
X131894000Y-86260000D02*
X152894000Y-86260000D01*
X131894000Y-88660000D02*
X131894000Y-89060000D01*
X131894000Y-86260000D02*
X131894000Y-86560000D01*
X131894000Y-109060000D02*
X131894000Y-109460000D01*
X152894000Y-88660000D02*
X152894000Y-89060000D01*
X131894000Y-126860000D02*
X131894000Y-127260000D01*
X131894000Y-116660000D02*
X131894000Y-117060000D01*
X131894000Y-101360000D02*
X131894000Y-101760000D01*
X152894000Y-86260000D02*
X152894000Y-86560000D01*
X152894000Y-96360000D02*
X152894000Y-96760000D01*
X152894000Y-134460000D02*
X152894000Y-134860000D01*
X117161000Y-101286000D02*
X117161000Y-109026000D01*
X123631000Y-101286000D02*
X121396000Y-101286000D01*
X123631000Y-109026000D02*
X123631000Y-101286000D01*
X117161000Y-109026000D02*
X123631000Y-109026000D01*
X119396000Y-101286000D02*
X117161000Y-101286000D01*
X119396000Y-101286000D02*
G75*
G03*
X121396000Y-101286000I1000000J0D01*
G01*
X133226436Y-75465000D02*
X133680564Y-75465000D01*
X133226436Y-76935000D02*
X133680564Y-76935000D01*
X157344000Y-52307258D02*
X157344000Y-51832742D01*
X156299000Y-52307258D02*
X156299000Y-51832742D01*
X128223500Y-74913258D02*
X128223500Y-74438742D01*
X127178500Y-74913258D02*
X127178500Y-74438742D01*
X162322000Y-120185500D02*
X160872000Y-120185500D01*
X165772000Y-127925500D02*
X165772000Y-120185500D01*
X160872000Y-127925500D02*
X165772000Y-127925500D01*
X160872000Y-120185500D02*
X160872000Y-127925500D01*
X165772000Y-120185500D02*
X164322000Y-120185500D01*
X162322000Y-120185500D02*
G75*
G03*
X164322000Y-120185500I1000000J0D01*
G01*
X109858000Y-131353000D02*
X112518000Y-131353000D01*
X109858000Y-130083000D02*
X109858000Y-128753000D01*
X109858000Y-128753000D02*
X111188000Y-128753000D01*
X109858000Y-131353000D02*
X109858000Y-141573000D01*
X112518000Y-131353000D02*
X112518000Y-141573000D01*
X109858000Y-141573000D02*
X112518000Y-141573000D01*
X160721500Y-58480000D02*
X165621500Y-58480000D01*
X165621500Y-58480000D02*
X165621500Y-50740000D01*
X162171500Y-50740000D02*
X160721500Y-50740000D01*
X165621500Y-50740000D02*
X164171500Y-50740000D01*
X160721500Y-50740000D02*
X160721500Y-58480000D01*
X162171500Y-50740000D02*
G75*
G03*
X164171500Y-50740000I1000000J0D01*
G01*
X117161000Y-130242000D02*
X117161000Y-137982000D01*
X117161000Y-137982000D02*
X123631000Y-137982000D01*
X119396000Y-130242000D02*
X117161000Y-130242000D01*
X123631000Y-130242000D02*
X121396000Y-130242000D01*
X123631000Y-137982000D02*
X123631000Y-130242000D01*
X119396000Y-130242000D02*
G75*
G03*
X121396000Y-130242000I1000000J0D01*
G01*
X156449500Y-111846758D02*
X156449500Y-111372242D01*
X157494500Y-111846758D02*
X157494500Y-111372242D01*
X133226436Y-79475000D02*
X133680564Y-79475000D01*
X133226436Y-78005000D02*
X133680564Y-78005000D01*
X128284500Y-94217258D02*
X128284500Y-93742742D01*
X127239500Y-94217258D02*
X127239500Y-93742742D01*
X156449500Y-91931258D02*
X156449500Y-91456742D01*
X157494500Y-91931258D02*
X157494500Y-91456742D01*
X133587258Y-74436500D02*
X133112742Y-74436500D01*
X133587258Y-73391500D02*
X133112742Y-73391500D01*
X157494500Y-72222758D02*
X157494500Y-71748242D01*
X156449500Y-72222758D02*
X156449500Y-71748242D01*
X138497000Y-74870000D02*
X138497000Y-82610000D01*
X144967000Y-74870000D02*
X142732000Y-74870000D01*
X140732000Y-74870000D02*
X138497000Y-74870000D01*
X138497000Y-82610000D02*
X144967000Y-82610000D01*
X144967000Y-82610000D02*
X144967000Y-74870000D01*
X140732000Y-74870000D02*
G75*
G03*
X142732000Y-74870000I1000000J0D01*
G01*
X157494500Y-101837258D02*
X157494500Y-101362742D01*
X156449500Y-101837258D02*
X156449500Y-101362742D01*
X160872000Y-70655500D02*
X160872000Y-78395500D01*
X160872000Y-78395500D02*
X165772000Y-78395500D01*
X165772000Y-78395500D02*
X165772000Y-70655500D01*
X165772000Y-70655500D02*
X164322000Y-70655500D01*
X162322000Y-70655500D02*
X160872000Y-70655500D01*
X162322000Y-70655500D02*
G75*
G03*
X164322000Y-70655500I1000000J0D01*
G01*
X128223500Y-84565258D02*
X128223500Y-84090742D01*
X127178500Y-84565258D02*
X127178500Y-84090742D01*
X128223500Y-65261258D02*
X128223500Y-64786742D01*
X127178500Y-65261258D02*
X127178500Y-64786742D01*
X128284500Y-132825258D02*
X128284500Y-132350742D01*
X127239500Y-132825258D02*
X127239500Y-132350742D01*
X128126000Y-55450758D02*
X128126000Y-54976242D01*
X127081000Y-55450758D02*
X127081000Y-54976242D01*
X170183000Y-71028000D02*
X172843000Y-71028000D01*
X170183000Y-69758000D02*
X170183000Y-68428000D01*
X170183000Y-68428000D02*
X171513000Y-68428000D01*
X170183000Y-88868000D02*
X172843000Y-88868000D01*
X170183000Y-71028000D02*
X170183000Y-88868000D01*
X172843000Y-71028000D02*
X172843000Y-88868000D01*
X156449500Y-121752758D02*
X156449500Y-121278242D01*
X157494500Y-121752758D02*
X157494500Y-121278242D01*
X165772000Y-139894000D02*
X164322000Y-139894000D01*
X160872000Y-147634000D02*
X165772000Y-147634000D01*
X165772000Y-147634000D02*
X165772000Y-139894000D01*
X160872000Y-139894000D02*
X160872000Y-147634000D01*
X162322000Y-139894000D02*
X160872000Y-139894000D01*
X162322000Y-139894000D02*
G75*
G03*
X164322000Y-139894000I1000000J0D01*
G01*
X172843000Y-131973000D02*
X172843000Y-133303000D01*
X172843000Y-112863000D02*
X170183000Y-112863000D01*
X172843000Y-133303000D02*
X171513000Y-133303000D01*
X172843000Y-130703000D02*
X172843000Y-112863000D01*
X170183000Y-130703000D02*
X170183000Y-112863000D01*
X172843000Y-130703000D02*
X170183000Y-130703000D01*
X160872000Y-110279500D02*
X160872000Y-118019500D01*
X165772000Y-110279500D02*
X164322000Y-110279500D01*
X165772000Y-118019500D02*
X165772000Y-110279500D01*
X160872000Y-118019500D02*
X165772000Y-118019500D01*
X162322000Y-110279500D02*
X160872000Y-110279500D01*
X162322000Y-110279500D02*
G75*
G03*
X164322000Y-110279500I1000000J0D01*
G01*
X117161000Y-91634000D02*
X117161000Y-99374000D01*
X117161000Y-99374000D02*
X123631000Y-99374000D01*
X119396000Y-91634000D02*
X117161000Y-91634000D01*
X123631000Y-91634000D02*
X121396000Y-91634000D01*
X123631000Y-99374000D02*
X123631000Y-91634000D01*
X119396000Y-91634000D02*
G75*
G03*
X121396000Y-91634000I1000000J0D01*
G01*
X128284500Y-142477258D02*
X128284500Y-142002742D01*
X127239500Y-142477258D02*
X127239500Y-142002742D01*
X109858000Y-58963000D02*
X109858000Y-69183000D01*
X109858000Y-56363000D02*
X111188000Y-56363000D01*
X112518000Y-58963000D02*
X112518000Y-69183000D01*
X109858000Y-58963000D02*
X112518000Y-58963000D01*
X109858000Y-57693000D02*
X109858000Y-56363000D01*
X109858000Y-69183000D02*
X112518000Y-69183000D01*
X128284500Y-113521258D02*
X128284500Y-113046742D01*
X127239500Y-113521258D02*
X127239500Y-113046742D01*
X117002500Y-52867500D02*
X117002500Y-60607500D01*
X117002500Y-60607500D02*
X123472500Y-60607500D01*
X119237500Y-52867500D02*
X117002500Y-52867500D01*
X123472500Y-52867500D02*
X121237500Y-52867500D01*
X123472500Y-60607500D02*
X123472500Y-52867500D01*
X119237500Y-52867500D02*
G75*
G03*
X121237500Y-52867500I1000000J0D01*
G01*
X160872000Y-88301500D02*
X165772000Y-88301500D01*
X165772000Y-88301500D02*
X165772000Y-80561500D01*
X160872000Y-80561500D02*
X160872000Y-88301500D01*
X162322000Y-80561500D02*
X160872000Y-80561500D01*
X165772000Y-80561500D02*
X164322000Y-80561500D01*
X162322000Y-80561500D02*
G75*
G03*
X164322000Y-80561500I1000000J0D01*
G01*
X109858000Y-107858000D02*
X109858000Y-106528000D01*
X109858000Y-106528000D02*
X111188000Y-106528000D01*
X109858000Y-119348000D02*
X112518000Y-119348000D01*
X112518000Y-109128000D02*
X112518000Y-119348000D01*
X109858000Y-109128000D02*
X112518000Y-109128000D01*
X109858000Y-109128000D02*
X109858000Y-119348000D01*
X157494500Y-131555258D02*
X157494500Y-131080742D01*
X156449500Y-131555258D02*
X156449500Y-131080742D01*
X128284500Y-123173258D02*
X128284500Y-122698742D01*
X127239500Y-123173258D02*
X127239500Y-122698742D01*
X117161000Y-120590000D02*
X117161000Y-128330000D01*
X123631000Y-120590000D02*
X121396000Y-120590000D01*
X123631000Y-128330000D02*
X123631000Y-120590000D01*
X117161000Y-128330000D02*
X123631000Y-128330000D01*
X119396000Y-120590000D02*
X117161000Y-120590000D01*
X119396000Y-120590000D02*
G75*
G03*
X121396000Y-120590000I1000000J0D01*
G01*
X172843000Y-105308000D02*
X172843000Y-106638000D01*
X172843000Y-104038000D02*
X170183000Y-104038000D01*
X172843000Y-106638000D02*
X171513000Y-106638000D01*
X172843000Y-96358000D02*
X170183000Y-96358000D01*
X170183000Y-104038000D02*
X170183000Y-96358000D01*
X172843000Y-104038000D02*
X172843000Y-96358000D01*
X128284500Y-103869258D02*
X128284500Y-103394742D01*
X127239500Y-103869258D02*
X127239500Y-103394742D01*
X117161000Y-110938000D02*
X117161000Y-118678000D01*
X117161000Y-118678000D02*
X123631000Y-118678000D01*
X119396000Y-110938000D02*
X117161000Y-110938000D01*
X123631000Y-110938000D02*
X121396000Y-110938000D01*
X123631000Y-118678000D02*
X123631000Y-110938000D01*
X119396000Y-110938000D02*
G75*
G03*
X121396000Y-110938000I1000000J0D01*
G01*
X157494500Y-141461258D02*
X157494500Y-140986742D01*
X156449500Y-141461258D02*
X156449500Y-140986742D01*
X162322000Y-90364000D02*
X160872000Y-90364000D01*
X160872000Y-98104000D02*
X165772000Y-98104000D01*
X160872000Y-90364000D02*
X160872000Y-98104000D01*
X165772000Y-90364000D02*
X164322000Y-90364000D01*
X165772000Y-98104000D02*
X165772000Y-90364000D01*
X162322000Y-90364000D02*
G75*
G03*
X164322000Y-90364000I1000000J0D01*
G01*
%LPC*%
D12*
X115570000Y-73660000D03*
X115570000Y-76200000D03*
X115570000Y-78740000D03*
X125100000Y-78740000D03*
X125100000Y-76200000D03*
X125100000Y-73660000D03*
X159361500Y-61976000D03*
X159361500Y-64516000D03*
X159361500Y-67056000D03*
X166981500Y-67056000D03*
X166981500Y-64516000D03*
X166981500Y-61976000D03*
X115570000Y-83312000D03*
X115570000Y-85852000D03*
X115570000Y-88392000D03*
X125100000Y-88392000D03*
X125100000Y-85852000D03*
X125100000Y-83312000D03*
X115570000Y-64008000D03*
X115570000Y-66548000D03*
X115570000Y-69088000D03*
X125100000Y-69088000D03*
X125100000Y-66548000D03*
X125100000Y-64008000D03*
D13*
X156972000Y-82716500D03*
X156972000Y-81066500D03*
D14*
X111188000Y-81188000D03*
D15*
X111188000Y-83728000D03*
X111188000Y-86268000D03*
X111188000Y-88808000D03*
D12*
X115631000Y-141224000D03*
X115631000Y-143764000D03*
X115631000Y-146304000D03*
X125161000Y-146304000D03*
X125161000Y-143764000D03*
X125161000Y-141224000D03*
X159512000Y-131318000D03*
X159512000Y-133858000D03*
X159512000Y-136398000D03*
X167132000Y-136398000D03*
X167132000Y-133858000D03*
X167132000Y-131318000D03*
D13*
X156821500Y-62801000D03*
X156821500Y-61151000D03*
D12*
X159512000Y-101600000D03*
X159512000Y-104140000D03*
X159512000Y-106680000D03*
X167132000Y-106680000D03*
X167132000Y-104140000D03*
X167132000Y-101600000D03*
D15*
X133504000Y-87630000D03*
X133504000Y-90170000D03*
D14*
X133504000Y-92710000D03*
D15*
X133504000Y-95250000D03*
X133504000Y-97790000D03*
X133504000Y-100330000D03*
X133504000Y-102870000D03*
D14*
X133504000Y-105410000D03*
D15*
X133504000Y-107950000D03*
X133504000Y-110490000D03*
X133504000Y-113030000D03*
X133504000Y-115570000D03*
D14*
X133504000Y-118110000D03*
D15*
X133504000Y-120650000D03*
X133504000Y-123190000D03*
X133504000Y-125730000D03*
X133504000Y-128270000D03*
D14*
X133504000Y-130810000D03*
D15*
X133504000Y-133350000D03*
X133504000Y-135890000D03*
X151284000Y-135890000D03*
X151284000Y-133350000D03*
D14*
X151284000Y-130810000D03*
D15*
X151284000Y-128270000D03*
X151284000Y-125730000D03*
X151284000Y-123190000D03*
X151284000Y-120650000D03*
D14*
X151284000Y-118110000D03*
D15*
X151284000Y-115570000D03*
X151284000Y-113030000D03*
X151284000Y-110490000D03*
X151284000Y-107950000D03*
D14*
X151284000Y-105410000D03*
D15*
X151284000Y-102870000D03*
X151284000Y-100330000D03*
X151284000Y-97790000D03*
X151284000Y-95250000D03*
D14*
X151284000Y-92710000D03*
D15*
X151284000Y-90170000D03*
X151284000Y-87630000D03*
D12*
X115631000Y-102616000D03*
X115631000Y-105156000D03*
X115631000Y-107696000D03*
X125161000Y-107696000D03*
X125161000Y-105156000D03*
X125161000Y-102616000D03*
D16*
X132541000Y-76200000D03*
X134366000Y-76200000D03*
D13*
X156821500Y-52895000D03*
X156821500Y-51245000D03*
X127701000Y-75501000D03*
X127701000Y-73851000D03*
D12*
X159512000Y-121515500D03*
X159512000Y-124055500D03*
X159512000Y-126595500D03*
X167132000Y-126595500D03*
X167132000Y-124055500D03*
X167132000Y-121515500D03*
D14*
X111188000Y-130083000D03*
D15*
X111188000Y-132623000D03*
X111188000Y-135163000D03*
X111188000Y-137703000D03*
X111188000Y-140243000D03*
D12*
X159361500Y-52070000D03*
X159361500Y-54610000D03*
X159361500Y-57150000D03*
X166981500Y-57150000D03*
X166981500Y-54610000D03*
X166981500Y-52070000D03*
X115631000Y-131572000D03*
X115631000Y-134112000D03*
X115631000Y-136652000D03*
X125161000Y-136652000D03*
X125161000Y-134112000D03*
X125161000Y-131572000D03*
D13*
X156972000Y-112434500D03*
X156972000Y-110784500D03*
D16*
X132541000Y-78740000D03*
X134366000Y-78740000D03*
D13*
X127762000Y-94805000D03*
X127762000Y-93155000D03*
X156972000Y-92519000D03*
X156972000Y-90869000D03*
D17*
X134175000Y-73914000D03*
X132525000Y-73914000D03*
D13*
X156972000Y-72810500D03*
X156972000Y-71160500D03*
D12*
X136967000Y-76200000D03*
X136967000Y-78740000D03*
X136967000Y-81280000D03*
X146497000Y-81280000D03*
X146497000Y-78740000D03*
X146497000Y-76200000D03*
D13*
X156972000Y-102425000D03*
X156972000Y-100775000D03*
D12*
X159512000Y-71985500D03*
X159512000Y-74525500D03*
X159512000Y-77065500D03*
X167132000Y-77065500D03*
X167132000Y-74525500D03*
X167132000Y-71985500D03*
D13*
X127701000Y-85153000D03*
X127701000Y-83503000D03*
X127701000Y-65849000D03*
X127701000Y-64199000D03*
X127762000Y-133413000D03*
X127762000Y-131763000D03*
X127603500Y-56038500D03*
X127603500Y-54388500D03*
D14*
X171513000Y-69758000D03*
D15*
X171513000Y-72298000D03*
X171513000Y-74838000D03*
X171513000Y-77378000D03*
X171513000Y-79918000D03*
X171513000Y-82458000D03*
X171513000Y-84998000D03*
X171513000Y-87538000D03*
D13*
X156972000Y-122340500D03*
X156972000Y-120690500D03*
D12*
X159512000Y-141224000D03*
X159512000Y-143764000D03*
X159512000Y-146304000D03*
X167132000Y-146304000D03*
X167132000Y-143764000D03*
X167132000Y-141224000D03*
D14*
X171513000Y-131973000D03*
D15*
X171513000Y-129433000D03*
X171513000Y-126893000D03*
X171513000Y-124353000D03*
X171513000Y-121813000D03*
X171513000Y-119273000D03*
X171513000Y-116733000D03*
X171513000Y-114193000D03*
D12*
X159512000Y-111609500D03*
X159512000Y-114149500D03*
X159512000Y-116689500D03*
X167132000Y-116689500D03*
X167132000Y-114149500D03*
X167132000Y-111609500D03*
X115631000Y-92964000D03*
X115631000Y-95504000D03*
X115631000Y-98044000D03*
X125161000Y-98044000D03*
X125161000Y-95504000D03*
X125161000Y-92964000D03*
D13*
X127762000Y-143065000D03*
X127762000Y-141415000D03*
D14*
X111188000Y-57693000D03*
D15*
X111188000Y-60233000D03*
X111188000Y-62773000D03*
X111188000Y-65313000D03*
X111188000Y-67853000D03*
D13*
X127762000Y-114109000D03*
X127762000Y-112459000D03*
D12*
X115472500Y-54197500D03*
X115472500Y-56737500D03*
X115472500Y-59277500D03*
X125002500Y-59277500D03*
X125002500Y-56737500D03*
X125002500Y-54197500D03*
X159512000Y-81891500D03*
X159512000Y-84431500D03*
X159512000Y-86971500D03*
X167132000Y-86971500D03*
X167132000Y-84431500D03*
X167132000Y-81891500D03*
D14*
X111188000Y-107858000D03*
D15*
X111188000Y-110398000D03*
X111188000Y-112938000D03*
X111188000Y-115478000D03*
X111188000Y-118018000D03*
D13*
X156972000Y-132143000D03*
X156972000Y-130493000D03*
X127762000Y-123761000D03*
X127762000Y-122111000D03*
D12*
X115631000Y-121920000D03*
X115631000Y-124460000D03*
X115631000Y-127000000D03*
X125161000Y-127000000D03*
X125161000Y-124460000D03*
X125161000Y-121920000D03*
D14*
X171513000Y-105308000D03*
D15*
X171513000Y-102768000D03*
X171513000Y-100228000D03*
X171513000Y-97688000D03*
D13*
X127762000Y-104457000D03*
X127762000Y-102807000D03*
D12*
X115631000Y-112268000D03*
X115631000Y-114808000D03*
X115631000Y-117348000D03*
X125161000Y-117348000D03*
X125161000Y-114808000D03*
X125161000Y-112268000D03*
D13*
X156972000Y-142049000D03*
X156972000Y-140399000D03*
D12*
X159512000Y-91694000D03*
X159512000Y-94234000D03*
X159512000Y-96774000D03*
X167132000Y-96774000D03*
X167132000Y-94234000D03*
X167132000Y-91694000D03*
M02*
