G04 #@! TF.GenerationSoftware,KiCad,Pcbnew,(6.0.0)*
G04 #@! TF.CreationDate,2022-08-19T14:16:46+02:00*
G04 #@! TF.ProjectId,top,746f702e-6b69-4636-9164-5f7063625858,rev?*
G04 #@! TF.SameCoordinates,Original*
G04 #@! TF.FileFunction,Legend,Bot*
G04 #@! TF.FilePolarity,Positive*
%FSLAX46Y46*%
G04 Gerber Fmt 4.6, Leading zero omitted, Abs format (unit mm)*
G04 Created by KiCad (PCBNEW (6.0.0)) date 2022-08-19 14:16:46*
%MOMM*%
%LPD*%
G01*
G04 APERTURE LIST*
G04 Aperture macros list*
%AMRoundRect*
0 Rectangle with rounded corners*
0 $1 Rounding radius*
0 $2 $3 $4 $5 $6 $7 $8 $9 X,Y pos of 4 corners*
0 Add a 4 corners polygon primitive as box body*
4,1,4,$2,$3,$4,$5,$6,$7,$8,$9,$2,$3,0*
0 Add four circle primitives for the rounded corners*
1,1,$1+$1,$2,$3*
1,1,$1+$1,$4,$5*
1,1,$1+$1,$6,$7*
1,1,$1+$1,$8,$9*
0 Add four rect primitives between the rounded corners*
20,1,$1+$1,$2,$3,$4,$5,0*
20,1,$1+$1,$4,$5,$6,$7,0*
20,1,$1+$1,$6,$7,$8,$9,0*
20,1,$1+$1,$8,$9,$2,$3,0*%
G04 Aperture macros list end*
%ADD10C,0.150000*%
%ADD11C,0.120000*%
%ADD12R,1.700000X1.700000*%
%ADD13O,1.700000X1.700000*%
%ADD14R,1.800000X2.500000*%
%ADD15RoundRect,0.250000X-0.450000X0.262500X-0.450000X-0.262500X0.450000X-0.262500X0.450000X0.262500X0*%
%ADD16RoundRect,0.200000X0.275000X-0.200000X0.275000X0.200000X-0.275000X0.200000X-0.275000X-0.200000X0*%
%ADD17RoundRect,0.250000X0.262500X0.450000X-0.262500X0.450000X-0.262500X-0.450000X0.262500X-0.450000X0*%
%ADD18R,0.900000X1.200000*%
%ADD19RoundRect,0.250000X-0.262500X-0.450000X0.262500X-0.450000X0.262500X0.450000X-0.262500X0.450000X0*%
%ADD20RoundRect,0.250000X0.450000X-0.262500X0.450000X0.262500X-0.450000X0.262500X-0.450000X-0.262500X0*%
%ADD21RoundRect,0.250000X-0.325000X-0.650000X0.325000X-0.650000X0.325000X0.650000X-0.325000X0.650000X0*%
G04 APERTURE END LIST*
D10*
X159710285Y-114315880D02*
X159710285Y-113315880D01*
X159472190Y-113315880D01*
X159329333Y-113363500D01*
X159234095Y-113458738D01*
X159186476Y-113553976D01*
X159138857Y-113744452D01*
X159138857Y-113887309D01*
X159186476Y-114077785D01*
X159234095Y-114173023D01*
X159329333Y-114268261D01*
X159472190Y-114315880D01*
X159710285Y-114315880D01*
X158186476Y-114315880D02*
X158757904Y-114315880D01*
X158472190Y-114315880D02*
X158472190Y-113315880D01*
X158567428Y-113458738D01*
X158662666Y-113553976D01*
X158757904Y-113601595D01*
X157329333Y-113315880D02*
X157519809Y-113315880D01*
X157615047Y-113363500D01*
X157662666Y-113411119D01*
X157757904Y-113553976D01*
X157805523Y-113744452D01*
X157805523Y-114125404D01*
X157757904Y-114220642D01*
X157710285Y-114268261D01*
X157615047Y-114315880D01*
X157424571Y-114315880D01*
X157329333Y-114268261D01*
X157281714Y-114220642D01*
X157234095Y-114125404D01*
X157234095Y-113887309D01*
X157281714Y-113792071D01*
X157329333Y-113744452D01*
X157424571Y-113696833D01*
X157615047Y-113696833D01*
X157710285Y-113744452D01*
X157757904Y-113792071D01*
X157805523Y-113887309D01*
X165488857Y-74215880D02*
X165822190Y-73739690D01*
X166060285Y-74215880D02*
X166060285Y-73215880D01*
X165679333Y-73215880D01*
X165584095Y-73263500D01*
X165536476Y-73311119D01*
X165488857Y-73406357D01*
X165488857Y-73549214D01*
X165536476Y-73644452D01*
X165584095Y-73692071D01*
X165679333Y-73739690D01*
X166060285Y-73739690D01*
X165107904Y-73311119D02*
X165060285Y-73263500D01*
X164965047Y-73215880D01*
X164726952Y-73215880D01*
X164631714Y-73263500D01*
X164584095Y-73311119D01*
X164536476Y-73406357D01*
X164536476Y-73501595D01*
X164584095Y-73644452D01*
X165155523Y-74215880D01*
X164536476Y-74215880D01*
X164203142Y-73215880D02*
X163584095Y-73215880D01*
X163917428Y-73596833D01*
X163774571Y-73596833D01*
X163679333Y-73644452D01*
X163631714Y-73692071D01*
X163584095Y-73787309D01*
X163584095Y-74025404D01*
X163631714Y-74120642D01*
X163679333Y-74168261D01*
X163774571Y-74215880D01*
X164060285Y-74215880D01*
X164155523Y-74168261D01*
X164203142Y-74120642D01*
X167520857Y-138731880D02*
X167854190Y-138255690D01*
X168092285Y-138731880D02*
X168092285Y-137731880D01*
X167711333Y-137731880D01*
X167616095Y-137779500D01*
X167568476Y-137827119D01*
X167520857Y-137922357D01*
X167520857Y-138065214D01*
X167568476Y-138160452D01*
X167616095Y-138208071D01*
X167711333Y-138255690D01*
X168092285Y-138255690D01*
X166663714Y-138065214D02*
X166663714Y-138731880D01*
X166901809Y-137684261D02*
X167139904Y-138398547D01*
X166520857Y-138398547D01*
X166235142Y-137731880D02*
X165616095Y-137731880D01*
X165949428Y-138112833D01*
X165806571Y-138112833D01*
X165711333Y-138160452D01*
X165663714Y-138208071D01*
X165616095Y-138303309D01*
X165616095Y-138541404D01*
X165663714Y-138636642D01*
X165711333Y-138684261D01*
X165806571Y-138731880D01*
X166092285Y-138731880D01*
X166187523Y-138684261D01*
X166235142Y-138636642D01*
X123263857Y-74112380D02*
X123597190Y-73636190D01*
X123835285Y-74112380D02*
X123835285Y-73112380D01*
X123454333Y-73112380D01*
X123359095Y-73160000D01*
X123311476Y-73207619D01*
X123263857Y-73302857D01*
X123263857Y-73445714D01*
X123311476Y-73540952D01*
X123359095Y-73588571D01*
X123454333Y-73636190D01*
X123835285Y-73636190D01*
X122311476Y-74112380D02*
X122882904Y-74112380D01*
X122597190Y-74112380D02*
X122597190Y-73112380D01*
X122692428Y-73255238D01*
X122787666Y-73350476D01*
X122882904Y-73398095D01*
X121835285Y-74112380D02*
X121644809Y-74112380D01*
X121549571Y-74064761D01*
X121501952Y-74017142D01*
X121406714Y-73874285D01*
X121359095Y-73683809D01*
X121359095Y-73302857D01*
X121406714Y-73207619D01*
X121454333Y-73160000D01*
X121549571Y-73112380D01*
X121740047Y-73112380D01*
X121835285Y-73160000D01*
X121882904Y-73207619D01*
X121930523Y-73302857D01*
X121930523Y-73540952D01*
X121882904Y-73636190D01*
X121835285Y-73683809D01*
X121740047Y-73731428D01*
X121549571Y-73731428D01*
X121454333Y-73683809D01*
X121406714Y-73636190D01*
X121359095Y-73540952D01*
X163655595Y-56078380D02*
X163655595Y-55078380D01*
X163417500Y-55078380D01*
X163274642Y-55126000D01*
X163179404Y-55221238D01*
X163131785Y-55316476D01*
X163084166Y-55506952D01*
X163084166Y-55649809D01*
X163131785Y-55840285D01*
X163179404Y-55935523D01*
X163274642Y-56030761D01*
X163417500Y-56078380D01*
X163655595Y-56078380D01*
X162131785Y-56078380D02*
X162703214Y-56078380D01*
X162417500Y-56078380D02*
X162417500Y-55078380D01*
X162512738Y-55221238D01*
X162607976Y-55316476D01*
X162703214Y-55364095D01*
X163806095Y-75993880D02*
X163806095Y-74993880D01*
X163568000Y-74993880D01*
X163425142Y-75041500D01*
X163329904Y-75136738D01*
X163282285Y-75231976D01*
X163234666Y-75422452D01*
X163234666Y-75565309D01*
X163282285Y-75755785D01*
X163329904Y-75851023D01*
X163425142Y-75946261D01*
X163568000Y-75993880D01*
X163806095Y-75993880D01*
X162329904Y-74993880D02*
X162806095Y-74993880D01*
X162853714Y-75470071D01*
X162806095Y-75422452D01*
X162710857Y-75374833D01*
X162472761Y-75374833D01*
X162377523Y-75422452D01*
X162329904Y-75470071D01*
X162282285Y-75565309D01*
X162282285Y-75803404D01*
X162329904Y-75898642D01*
X162377523Y-75946261D01*
X162472761Y-75993880D01*
X162710857Y-75993880D01*
X162806095Y-75946261D01*
X162853714Y-75898642D01*
X123324857Y-108148380D02*
X123658190Y-107672190D01*
X123896285Y-108148380D02*
X123896285Y-107148380D01*
X123515333Y-107148380D01*
X123420095Y-107196000D01*
X123372476Y-107243619D01*
X123324857Y-107338857D01*
X123324857Y-107481714D01*
X123372476Y-107576952D01*
X123420095Y-107624571D01*
X123515333Y-107672190D01*
X123896285Y-107672190D01*
X122467714Y-107148380D02*
X122658190Y-107148380D01*
X122753428Y-107196000D01*
X122801047Y-107243619D01*
X122896285Y-107386476D01*
X122943904Y-107576952D01*
X122943904Y-107957904D01*
X122896285Y-108053142D01*
X122848666Y-108100761D01*
X122753428Y-108148380D01*
X122562952Y-108148380D01*
X122467714Y-108100761D01*
X122420095Y-108053142D01*
X122372476Y-107957904D01*
X122372476Y-107719809D01*
X122420095Y-107624571D01*
X122467714Y-107576952D01*
X122562952Y-107529333D01*
X122753428Y-107529333D01*
X122848666Y-107576952D01*
X122896285Y-107624571D01*
X122943904Y-107719809D01*
X121896285Y-108148380D02*
X121705809Y-108148380D01*
X121610571Y-108100761D01*
X121562952Y-108053142D01*
X121467714Y-107910285D01*
X121420095Y-107719809D01*
X121420095Y-107338857D01*
X121467714Y-107243619D01*
X121515333Y-107196000D01*
X121610571Y-107148380D01*
X121801047Y-107148380D01*
X121896285Y-107196000D01*
X121943904Y-107243619D01*
X121991523Y-107338857D01*
X121991523Y-107576952D01*
X121943904Y-107672190D01*
X121896285Y-107719809D01*
X121801047Y-107767428D01*
X121610571Y-107767428D01*
X121515333Y-107719809D01*
X121467714Y-107672190D01*
X121420095Y-107576952D01*
X165488857Y-133548380D02*
X165822190Y-133072190D01*
X166060285Y-133548380D02*
X166060285Y-132548380D01*
X165679333Y-132548380D01*
X165584095Y-132596000D01*
X165536476Y-132643619D01*
X165488857Y-132738857D01*
X165488857Y-132881714D01*
X165536476Y-132976952D01*
X165584095Y-133024571D01*
X165679333Y-133072190D01*
X166060285Y-133072190D01*
X164631714Y-132881714D02*
X164631714Y-133548380D01*
X164869809Y-132500761D02*
X165107904Y-133215047D01*
X164488857Y-133215047D01*
X163679333Y-132881714D02*
X163679333Y-133548380D01*
X163917428Y-132500761D02*
X164155523Y-133215047D01*
X163536476Y-133215047D01*
X165488857Y-113839880D02*
X165822190Y-113363690D01*
X166060285Y-113839880D02*
X166060285Y-112839880D01*
X165679333Y-112839880D01*
X165584095Y-112887500D01*
X165536476Y-112935119D01*
X165488857Y-113030357D01*
X165488857Y-113173214D01*
X165536476Y-113268452D01*
X165584095Y-113316071D01*
X165679333Y-113363690D01*
X166060285Y-113363690D01*
X164584095Y-112839880D02*
X165060285Y-112839880D01*
X165107904Y-113316071D01*
X165060285Y-113268452D01*
X164965047Y-113220833D01*
X164726952Y-113220833D01*
X164631714Y-113268452D01*
X164584095Y-113316071D01*
X164536476Y-113411309D01*
X164536476Y-113649404D01*
X164584095Y-113744642D01*
X164631714Y-113792261D01*
X164726952Y-113839880D01*
X164965047Y-113839880D01*
X165060285Y-113792261D01*
X165107904Y-113744642D01*
X163965047Y-113268452D02*
X164060285Y-113220833D01*
X164107904Y-113173214D01*
X164155523Y-113077976D01*
X164155523Y-113030357D01*
X164107904Y-112935119D01*
X164060285Y-112887500D01*
X163965047Y-112839880D01*
X163774571Y-112839880D01*
X163679333Y-112887500D01*
X163631714Y-112935119D01*
X163584095Y-113030357D01*
X163584095Y-113077976D01*
X163631714Y-113173214D01*
X163679333Y-113220833D01*
X163774571Y-113268452D01*
X163965047Y-113268452D01*
X164060285Y-113316071D01*
X164107904Y-113363690D01*
X164155523Y-113458928D01*
X164155523Y-113649404D01*
X164107904Y-113744642D01*
X164060285Y-113792261D01*
X163965047Y-113839880D01*
X163774571Y-113839880D01*
X163679333Y-113792261D01*
X163631714Y-113744642D01*
X163584095Y-113649404D01*
X163584095Y-113458928D01*
X163631714Y-113363690D01*
X163679333Y-113316071D01*
X163774571Y-113268452D01*
X162694857Y-123745880D02*
X163028190Y-123269690D01*
X163266285Y-123745880D02*
X163266285Y-122745880D01*
X162885333Y-122745880D01*
X162790095Y-122793500D01*
X162742476Y-122841119D01*
X162694857Y-122936357D01*
X162694857Y-123079214D01*
X162742476Y-123174452D01*
X162790095Y-123222071D01*
X162885333Y-123269690D01*
X163266285Y-123269690D01*
X161790095Y-122745880D02*
X162266285Y-122745880D01*
X162313904Y-123222071D01*
X162266285Y-123174452D01*
X162171047Y-123126833D01*
X161932952Y-123126833D01*
X161837714Y-123174452D01*
X161790095Y-123222071D01*
X161742476Y-123317309D01*
X161742476Y-123555404D01*
X161790095Y-123650642D01*
X161837714Y-123698261D01*
X161932952Y-123745880D01*
X162171047Y-123745880D01*
X162266285Y-123698261D01*
X162313904Y-123650642D01*
X161361523Y-122841119D02*
X161313904Y-122793500D01*
X161218666Y-122745880D01*
X160980571Y-122745880D01*
X160885333Y-122793500D01*
X160837714Y-122841119D01*
X160790095Y-122936357D01*
X160790095Y-123031595D01*
X160837714Y-123174452D01*
X161409142Y-123745880D01*
X160790095Y-123745880D01*
X123324857Y-122372380D02*
X123658190Y-121896190D01*
X123896285Y-122372380D02*
X123896285Y-121372380D01*
X123515333Y-121372380D01*
X123420095Y-121420000D01*
X123372476Y-121467619D01*
X123324857Y-121562857D01*
X123324857Y-121705714D01*
X123372476Y-121800952D01*
X123420095Y-121848571D01*
X123515333Y-121896190D01*
X123896285Y-121896190D01*
X122467714Y-121705714D02*
X122467714Y-122372380D01*
X122705809Y-121324761D02*
X122943904Y-122039047D01*
X122324857Y-122039047D01*
X121753428Y-121372380D02*
X121658190Y-121372380D01*
X121562952Y-121420000D01*
X121515333Y-121467619D01*
X121467714Y-121562857D01*
X121420095Y-121753333D01*
X121420095Y-121991428D01*
X121467714Y-122181904D01*
X121515333Y-122277142D01*
X121562952Y-122324761D01*
X121658190Y-122372380D01*
X121753428Y-122372380D01*
X121848666Y-122324761D01*
X121896285Y-122277142D01*
X121943904Y-122181904D01*
X121991523Y-121991428D01*
X121991523Y-121753333D01*
X121943904Y-121562857D01*
X121896285Y-121467619D01*
X121848666Y-121420000D01*
X121753428Y-121372380D01*
X163710857Y-98147142D02*
X163758476Y-98194761D01*
X163901333Y-98242380D01*
X163996571Y-98242380D01*
X164139428Y-98194761D01*
X164234666Y-98099523D01*
X164282285Y-98004285D01*
X164329904Y-97813809D01*
X164329904Y-97670952D01*
X164282285Y-97480476D01*
X164234666Y-97385238D01*
X164139428Y-97290000D01*
X163996571Y-97242380D01*
X163901333Y-97242380D01*
X163758476Y-97290000D01*
X163710857Y-97337619D01*
X162758476Y-98242380D02*
X163329904Y-98242380D01*
X163044190Y-98242380D02*
X163044190Y-97242380D01*
X163139428Y-97385238D01*
X163234666Y-97480476D01*
X163329904Y-97528095D01*
X162139428Y-97242380D02*
X162044190Y-97242380D01*
X161948952Y-97290000D01*
X161901333Y-97337619D01*
X161853714Y-97432857D01*
X161806095Y-97623333D01*
X161806095Y-97861428D01*
X161853714Y-98051904D01*
X161901333Y-98147142D01*
X161948952Y-98194761D01*
X162044190Y-98242380D01*
X162139428Y-98242380D01*
X162234666Y-98194761D01*
X162282285Y-98147142D01*
X162329904Y-98051904D01*
X162377523Y-97861428D01*
X162377523Y-97623333D01*
X162329904Y-97432857D01*
X162282285Y-97337619D01*
X162234666Y-97290000D01*
X162139428Y-97242380D01*
X123263857Y-69540380D02*
X123597190Y-69064190D01*
X123835285Y-69540380D02*
X123835285Y-68540380D01*
X123454333Y-68540380D01*
X123359095Y-68588000D01*
X123311476Y-68635619D01*
X123263857Y-68730857D01*
X123263857Y-68873714D01*
X123311476Y-68968952D01*
X123359095Y-69016571D01*
X123454333Y-69064190D01*
X123835285Y-69064190D01*
X122311476Y-69540380D02*
X122882904Y-69540380D01*
X122597190Y-69540380D02*
X122597190Y-68540380D01*
X122692428Y-68683238D01*
X122787666Y-68778476D01*
X122882904Y-68826095D01*
X121978142Y-68540380D02*
X121359095Y-68540380D01*
X121692428Y-68921333D01*
X121549571Y-68921333D01*
X121454333Y-68968952D01*
X121406714Y-69016571D01*
X121359095Y-69111809D01*
X121359095Y-69349904D01*
X121406714Y-69445142D01*
X121454333Y-69492761D01*
X121549571Y-69540380D01*
X121835285Y-69540380D01*
X121930523Y-69492761D01*
X121978142Y-69445142D01*
X163806095Y-85899880D02*
X163806095Y-84899880D01*
X163568000Y-84899880D01*
X163425142Y-84947500D01*
X163329904Y-85042738D01*
X163282285Y-85137976D01*
X163234666Y-85328452D01*
X163234666Y-85471309D01*
X163282285Y-85661785D01*
X163329904Y-85757023D01*
X163425142Y-85852261D01*
X163568000Y-85899880D01*
X163806095Y-85899880D01*
X162901333Y-84899880D02*
X162234666Y-84899880D01*
X162663238Y-85899880D01*
X122690166Y-59729880D02*
X123023500Y-59253690D01*
X123261595Y-59729880D02*
X123261595Y-58729880D01*
X122880642Y-58729880D01*
X122785404Y-58777500D01*
X122737785Y-58825119D01*
X122690166Y-58920357D01*
X122690166Y-59063214D01*
X122737785Y-59158452D01*
X122785404Y-59206071D01*
X122880642Y-59253690D01*
X123261595Y-59253690D01*
X121833023Y-58729880D02*
X122023500Y-58729880D01*
X122118738Y-58777500D01*
X122166357Y-58825119D01*
X122261595Y-58967976D01*
X122309214Y-59158452D01*
X122309214Y-59539404D01*
X122261595Y-59634642D01*
X122213976Y-59682261D01*
X122118738Y-59729880D01*
X121928261Y-59729880D01*
X121833023Y-59682261D01*
X121785404Y-59634642D01*
X121737785Y-59539404D01*
X121737785Y-59301309D01*
X121785404Y-59206071D01*
X121833023Y-59158452D01*
X121928261Y-59110833D01*
X122118738Y-59110833D01*
X122213976Y-59158452D01*
X122261595Y-59206071D01*
X122309214Y-59301309D01*
X123263857Y-64460380D02*
X123597190Y-63984190D01*
X123835285Y-64460380D02*
X123835285Y-63460380D01*
X123454333Y-63460380D01*
X123359095Y-63508000D01*
X123311476Y-63555619D01*
X123263857Y-63650857D01*
X123263857Y-63793714D01*
X123311476Y-63888952D01*
X123359095Y-63936571D01*
X123454333Y-63984190D01*
X123835285Y-63984190D01*
X122311476Y-64460380D02*
X122882904Y-64460380D01*
X122597190Y-64460380D02*
X122597190Y-63460380D01*
X122692428Y-63603238D01*
X122787666Y-63698476D01*
X122882904Y-63746095D01*
X121930523Y-63555619D02*
X121882904Y-63508000D01*
X121787666Y-63460380D01*
X121549571Y-63460380D01*
X121454333Y-63508000D01*
X121406714Y-63555619D01*
X121359095Y-63650857D01*
X121359095Y-63746095D01*
X121406714Y-63888952D01*
X121978142Y-64460380D01*
X121359095Y-64460380D01*
X159234095Y-74691880D02*
X159234095Y-73691880D01*
X158996000Y-73691880D01*
X158853142Y-73739500D01*
X158757904Y-73834738D01*
X158710285Y-73929976D01*
X158662666Y-74120452D01*
X158662666Y-74263309D01*
X158710285Y-74453785D01*
X158757904Y-74549023D01*
X158853142Y-74644261D01*
X158996000Y-74691880D01*
X159234095Y-74691880D01*
X157805523Y-73691880D02*
X157996000Y-73691880D01*
X158091238Y-73739500D01*
X158138857Y-73787119D01*
X158234095Y-73929976D01*
X158281714Y-74120452D01*
X158281714Y-74501404D01*
X158234095Y-74596642D01*
X158186476Y-74644261D01*
X158091238Y-74691880D01*
X157900761Y-74691880D01*
X157805523Y-74644261D01*
X157757904Y-74596642D01*
X157710285Y-74501404D01*
X157710285Y-74263309D01*
X157757904Y-74168071D01*
X157805523Y-74120452D01*
X157900761Y-74072833D01*
X158091238Y-74072833D01*
X158186476Y-74120452D01*
X158234095Y-74168071D01*
X158281714Y-74263309D01*
X164282285Y-115617880D02*
X164282285Y-114617880D01*
X164044190Y-114617880D01*
X163901333Y-114665500D01*
X163806095Y-114760738D01*
X163758476Y-114855976D01*
X163710857Y-115046452D01*
X163710857Y-115189309D01*
X163758476Y-115379785D01*
X163806095Y-115475023D01*
X163901333Y-115570261D01*
X164044190Y-115617880D01*
X164282285Y-115617880D01*
X162758476Y-115617880D02*
X163329904Y-115617880D01*
X163044190Y-115617880D02*
X163044190Y-114617880D01*
X163139428Y-114760738D01*
X163234666Y-114855976D01*
X163329904Y-114903595D01*
X161853714Y-114617880D02*
X162329904Y-114617880D01*
X162377523Y-115094071D01*
X162329904Y-115046452D01*
X162234666Y-114998833D01*
X161996571Y-114998833D01*
X161901333Y-115046452D01*
X161853714Y-115094071D01*
X161806095Y-115189309D01*
X161806095Y-115427404D01*
X161853714Y-115522642D01*
X161901333Y-115570261D01*
X161996571Y-115617880D01*
X162234666Y-115617880D01*
X162329904Y-115570261D01*
X162377523Y-115522642D01*
X162544357Y-54300380D02*
X162877690Y-53824190D01*
X163115785Y-54300380D02*
X163115785Y-53300380D01*
X162734833Y-53300380D01*
X162639595Y-53348000D01*
X162591976Y-53395619D01*
X162544357Y-53490857D01*
X162544357Y-53633714D01*
X162591976Y-53728952D01*
X162639595Y-53776571D01*
X162734833Y-53824190D01*
X163115785Y-53824190D01*
X161591976Y-54300380D02*
X162163404Y-54300380D01*
X161877690Y-54300380D02*
X161877690Y-53300380D01*
X161972928Y-53443238D01*
X162068166Y-53538476D01*
X162163404Y-53586095D01*
X160972928Y-53300380D02*
X160877690Y-53300380D01*
X160782452Y-53348000D01*
X160734833Y-53395619D01*
X160687214Y-53490857D01*
X160639595Y-53681333D01*
X160639595Y-53919428D01*
X160687214Y-54109904D01*
X160734833Y-54205142D01*
X160782452Y-54252761D01*
X160877690Y-54300380D01*
X160972928Y-54300380D01*
X161068166Y-54252761D01*
X161115785Y-54205142D01*
X161163404Y-54109904D01*
X161211023Y-53919428D01*
X161211023Y-53681333D01*
X161163404Y-53490857D01*
X161115785Y-53395619D01*
X161068166Y-53348000D01*
X160972928Y-53300380D01*
X123263857Y-79192380D02*
X123597190Y-78716190D01*
X123835285Y-79192380D02*
X123835285Y-78192380D01*
X123454333Y-78192380D01*
X123359095Y-78240000D01*
X123311476Y-78287619D01*
X123263857Y-78382857D01*
X123263857Y-78525714D01*
X123311476Y-78620952D01*
X123359095Y-78668571D01*
X123454333Y-78716190D01*
X123835285Y-78716190D01*
X122882904Y-78287619D02*
X122835285Y-78240000D01*
X122740047Y-78192380D01*
X122501952Y-78192380D01*
X122406714Y-78240000D01*
X122359095Y-78287619D01*
X122311476Y-78382857D01*
X122311476Y-78478095D01*
X122359095Y-78620952D01*
X122930523Y-79192380D01*
X122311476Y-79192380D01*
X121692428Y-78192380D02*
X121597190Y-78192380D01*
X121501952Y-78240000D01*
X121454333Y-78287619D01*
X121406714Y-78382857D01*
X121359095Y-78573333D01*
X121359095Y-78811428D01*
X121406714Y-79001904D01*
X121454333Y-79097142D01*
X121501952Y-79144761D01*
X121597190Y-79192380D01*
X121692428Y-79192380D01*
X121787666Y-79144761D01*
X121835285Y-79097142D01*
X121882904Y-79001904D01*
X121930523Y-78811428D01*
X121930523Y-78573333D01*
X121882904Y-78382857D01*
X121835285Y-78287619D01*
X121787666Y-78240000D01*
X121692428Y-78192380D01*
X123263857Y-83764380D02*
X123597190Y-83288190D01*
X123835285Y-83764380D02*
X123835285Y-82764380D01*
X123454333Y-82764380D01*
X123359095Y-82812000D01*
X123311476Y-82859619D01*
X123263857Y-82954857D01*
X123263857Y-83097714D01*
X123311476Y-83192952D01*
X123359095Y-83240571D01*
X123454333Y-83288190D01*
X123835285Y-83288190D01*
X122882904Y-82859619D02*
X122835285Y-82812000D01*
X122740047Y-82764380D01*
X122501952Y-82764380D01*
X122406714Y-82812000D01*
X122359095Y-82859619D01*
X122311476Y-82954857D01*
X122311476Y-83050095D01*
X122359095Y-83192952D01*
X122930523Y-83764380D01*
X122311476Y-83764380D01*
X121454333Y-82764380D02*
X121644809Y-82764380D01*
X121740047Y-82812000D01*
X121787666Y-82859619D01*
X121882904Y-83002476D01*
X121930523Y-83192952D01*
X121930523Y-83573904D01*
X121882904Y-83669142D01*
X121835285Y-83716761D01*
X121740047Y-83764380D01*
X121549571Y-83764380D01*
X121454333Y-83716761D01*
X121406714Y-83669142D01*
X121359095Y-83573904D01*
X121359095Y-83335809D01*
X121406714Y-83240571D01*
X121454333Y-83192952D01*
X121549571Y-83145333D01*
X121740047Y-83145333D01*
X121835285Y-83192952D01*
X121882904Y-83240571D01*
X121930523Y-83335809D01*
X159710285Y-143930380D02*
X159710285Y-142930380D01*
X159472190Y-142930380D01*
X159329333Y-142978000D01*
X159234095Y-143073238D01*
X159186476Y-143168476D01*
X159138857Y-143358952D01*
X159138857Y-143501809D01*
X159186476Y-143692285D01*
X159234095Y-143787523D01*
X159329333Y-143882761D01*
X159472190Y-143930380D01*
X159710285Y-143930380D01*
X158186476Y-143930380D02*
X158757904Y-143930380D01*
X158472190Y-143930380D02*
X158472190Y-142930380D01*
X158567428Y-143073238D01*
X158662666Y-143168476D01*
X158757904Y-143216095D01*
X157567428Y-142930380D02*
X157472190Y-142930380D01*
X157376952Y-142978000D01*
X157329333Y-143025619D01*
X157281714Y-143120857D01*
X157234095Y-143311333D01*
X157234095Y-143549428D01*
X157281714Y-143739904D01*
X157329333Y-143835142D01*
X157376952Y-143882761D01*
X157472190Y-143930380D01*
X157567428Y-143930380D01*
X157662666Y-143882761D01*
X157710285Y-143835142D01*
X157757904Y-143739904D01*
X157805523Y-143549428D01*
X157805523Y-143311333D01*
X157757904Y-143120857D01*
X157710285Y-143025619D01*
X157662666Y-142978000D01*
X157567428Y-142930380D01*
X167520857Y-99107880D02*
X167854190Y-98631690D01*
X168092285Y-99107880D02*
X168092285Y-98107880D01*
X167711333Y-98107880D01*
X167616095Y-98155500D01*
X167568476Y-98203119D01*
X167520857Y-98298357D01*
X167520857Y-98441214D01*
X167568476Y-98536452D01*
X167616095Y-98584071D01*
X167711333Y-98631690D01*
X168092285Y-98631690D01*
X167187523Y-98107880D02*
X166520857Y-98107880D01*
X166949428Y-99107880D01*
X165616095Y-99107880D02*
X166187523Y-99107880D01*
X165901809Y-99107880D02*
X165901809Y-98107880D01*
X165997047Y-98250738D01*
X166092285Y-98345976D01*
X166187523Y-98393595D01*
X167520857Y-89305380D02*
X167854190Y-88829190D01*
X168092285Y-89305380D02*
X168092285Y-88305380D01*
X167711333Y-88305380D01*
X167616095Y-88353000D01*
X167568476Y-88400619D01*
X167520857Y-88495857D01*
X167520857Y-88638714D01*
X167568476Y-88733952D01*
X167616095Y-88781571D01*
X167711333Y-88829190D01*
X168092285Y-88829190D01*
X167139904Y-88400619D02*
X167092285Y-88353000D01*
X166997047Y-88305380D01*
X166758952Y-88305380D01*
X166663714Y-88353000D01*
X166616095Y-88400619D01*
X166568476Y-88495857D01*
X166568476Y-88591095D01*
X166616095Y-88733952D01*
X167187523Y-89305380D01*
X166568476Y-89305380D01*
X166092285Y-89305380D02*
X165901809Y-89305380D01*
X165806571Y-89257761D01*
X165758952Y-89210142D01*
X165663714Y-89067285D01*
X165616095Y-88876809D01*
X165616095Y-88495857D01*
X165663714Y-88400619D01*
X165711333Y-88353000D01*
X165806571Y-88305380D01*
X165997047Y-88305380D01*
X166092285Y-88353000D01*
X166139904Y-88400619D01*
X166187523Y-88495857D01*
X166187523Y-88733952D01*
X166139904Y-88829190D01*
X166092285Y-88876809D01*
X165997047Y-88924428D01*
X165806571Y-88924428D01*
X165711333Y-88876809D01*
X165663714Y-88829190D01*
X165616095Y-88733952D01*
X123324857Y-117800380D02*
X123658190Y-117324190D01*
X123896285Y-117800380D02*
X123896285Y-116800380D01*
X123515333Y-116800380D01*
X123420095Y-116848000D01*
X123372476Y-116895619D01*
X123324857Y-116990857D01*
X123324857Y-117133714D01*
X123372476Y-117228952D01*
X123420095Y-117276571D01*
X123515333Y-117324190D01*
X123896285Y-117324190D01*
X122991523Y-116800380D02*
X122372476Y-116800380D01*
X122705809Y-117181333D01*
X122562952Y-117181333D01*
X122467714Y-117228952D01*
X122420095Y-117276571D01*
X122372476Y-117371809D01*
X122372476Y-117609904D01*
X122420095Y-117705142D01*
X122467714Y-117752761D01*
X122562952Y-117800380D01*
X122848666Y-117800380D01*
X122943904Y-117752761D01*
X122991523Y-117705142D01*
X121515333Y-117133714D02*
X121515333Y-117800380D01*
X121753428Y-116752761D02*
X121991523Y-117467047D01*
X121372476Y-117467047D01*
X163655595Y-65984380D02*
X163655595Y-64984380D01*
X163417500Y-64984380D01*
X163274642Y-65032000D01*
X163179404Y-65127238D01*
X163131785Y-65222476D01*
X163084166Y-65412952D01*
X163084166Y-65555809D01*
X163131785Y-65746285D01*
X163179404Y-65841523D01*
X163274642Y-65936761D01*
X163417500Y-65984380D01*
X163655595Y-65984380D01*
X162750833Y-64984380D02*
X162131785Y-64984380D01*
X162465119Y-65365333D01*
X162322261Y-65365333D01*
X162227023Y-65412952D01*
X162179404Y-65460571D01*
X162131785Y-65555809D01*
X162131785Y-65793904D01*
X162179404Y-65889142D01*
X162227023Y-65936761D01*
X162322261Y-65984380D01*
X162607976Y-65984380D01*
X162703214Y-65936761D01*
X162750833Y-65889142D01*
X162694857Y-133548380D02*
X163028190Y-133072190D01*
X163266285Y-133548380D02*
X163266285Y-132548380D01*
X162885333Y-132548380D01*
X162790095Y-132596000D01*
X162742476Y-132643619D01*
X162694857Y-132738857D01*
X162694857Y-132881714D01*
X162742476Y-132976952D01*
X162790095Y-133024571D01*
X162885333Y-133072190D01*
X163266285Y-133072190D01*
X161837714Y-132881714D02*
X161837714Y-133548380D01*
X162075809Y-132500761D02*
X162313904Y-133215047D01*
X161694857Y-133215047D01*
X160837714Y-132548380D02*
X161313904Y-132548380D01*
X161361523Y-133024571D01*
X161313904Y-132976952D01*
X161218666Y-132929333D01*
X160980571Y-132929333D01*
X160885333Y-132976952D01*
X160837714Y-133024571D01*
X160790095Y-133119809D01*
X160790095Y-133357904D01*
X160837714Y-133453142D01*
X160885333Y-133500761D01*
X160980571Y-133548380D01*
X161218666Y-133548380D01*
X161313904Y-133500761D01*
X161361523Y-133453142D01*
X159710285Y-124221880D02*
X159710285Y-123221880D01*
X159472190Y-123221880D01*
X159329333Y-123269500D01*
X159234095Y-123364738D01*
X159186476Y-123459976D01*
X159138857Y-123650452D01*
X159138857Y-123793309D01*
X159186476Y-123983785D01*
X159234095Y-124079023D01*
X159329333Y-124174261D01*
X159472190Y-124221880D01*
X159710285Y-124221880D01*
X158186476Y-124221880D02*
X158757904Y-124221880D01*
X158472190Y-124221880D02*
X158472190Y-123221880D01*
X158567428Y-123364738D01*
X158662666Y-123459976D01*
X158757904Y-123507595D01*
X157329333Y-123555214D02*
X157329333Y-124221880D01*
X157567428Y-123174261D02*
X157805523Y-123888547D01*
X157186476Y-123888547D01*
X163234666Y-108053142D02*
X163282285Y-108100761D01*
X163425142Y-108148380D01*
X163520380Y-108148380D01*
X163663238Y-108100761D01*
X163758476Y-108005523D01*
X163806095Y-107910285D01*
X163853714Y-107719809D01*
X163853714Y-107576952D01*
X163806095Y-107386476D01*
X163758476Y-107291238D01*
X163663238Y-107196000D01*
X163520380Y-107148380D01*
X163425142Y-107148380D01*
X163282285Y-107196000D01*
X163234666Y-107243619D01*
X162758476Y-108148380D02*
X162568000Y-108148380D01*
X162472761Y-108100761D01*
X162425142Y-108053142D01*
X162329904Y-107910285D01*
X162282285Y-107719809D01*
X162282285Y-107338857D01*
X162329904Y-107243619D01*
X162377523Y-107196000D01*
X162472761Y-107148380D01*
X162663238Y-107148380D01*
X162758476Y-107196000D01*
X162806095Y-107243619D01*
X162853714Y-107338857D01*
X162853714Y-107576952D01*
X162806095Y-107672190D01*
X162758476Y-107719809D01*
X162663238Y-107767428D01*
X162472761Y-107767428D01*
X162377523Y-107719809D01*
X162329904Y-107672190D01*
X162282285Y-107576952D01*
X166894166Y-59483880D02*
X167227500Y-59007690D01*
X167465595Y-59483880D02*
X167465595Y-58483880D01*
X167084642Y-58483880D01*
X166989404Y-58531500D01*
X166941785Y-58579119D01*
X166894166Y-58674357D01*
X166894166Y-58817214D01*
X166941785Y-58912452D01*
X166989404Y-58960071D01*
X167084642Y-59007690D01*
X167465595Y-59007690D01*
X166322738Y-58912452D02*
X166417976Y-58864833D01*
X166465595Y-58817214D01*
X166513214Y-58721976D01*
X166513214Y-58674357D01*
X166465595Y-58579119D01*
X166417976Y-58531500D01*
X166322738Y-58483880D01*
X166132261Y-58483880D01*
X166037023Y-58531500D01*
X165989404Y-58579119D01*
X165941785Y-58674357D01*
X165941785Y-58721976D01*
X165989404Y-58817214D01*
X166037023Y-58864833D01*
X166132261Y-58912452D01*
X166322738Y-58912452D01*
X166417976Y-58960071D01*
X166465595Y-59007690D01*
X166513214Y-59102928D01*
X166513214Y-59293404D01*
X166465595Y-59388642D01*
X166417976Y-59436261D01*
X166322738Y-59483880D01*
X166132261Y-59483880D01*
X166037023Y-59436261D01*
X165989404Y-59388642D01*
X165941785Y-59293404D01*
X165941785Y-59102928D01*
X165989404Y-59007690D01*
X166037023Y-58960071D01*
X166132261Y-58912452D01*
X163234666Y-78438642D02*
X163282285Y-78486261D01*
X163425142Y-78533880D01*
X163520380Y-78533880D01*
X163663238Y-78486261D01*
X163758476Y-78391023D01*
X163806095Y-78295785D01*
X163853714Y-78105309D01*
X163853714Y-77962452D01*
X163806095Y-77771976D01*
X163758476Y-77676738D01*
X163663238Y-77581500D01*
X163520380Y-77533880D01*
X163425142Y-77533880D01*
X163282285Y-77581500D01*
X163234666Y-77629119D01*
X162901333Y-77533880D02*
X162282285Y-77533880D01*
X162615619Y-77914833D01*
X162472761Y-77914833D01*
X162377523Y-77962452D01*
X162329904Y-78010071D01*
X162282285Y-78105309D01*
X162282285Y-78343404D01*
X162329904Y-78438642D01*
X162377523Y-78486261D01*
X162472761Y-78533880D01*
X162758476Y-78533880D01*
X162853714Y-78486261D01*
X162901333Y-78438642D01*
X123324857Y-98496380D02*
X123658190Y-98020190D01*
X123896285Y-98496380D02*
X123896285Y-97496380D01*
X123515333Y-97496380D01*
X123420095Y-97544000D01*
X123372476Y-97591619D01*
X123324857Y-97686857D01*
X123324857Y-97829714D01*
X123372476Y-97924952D01*
X123420095Y-97972571D01*
X123515333Y-98020190D01*
X123896285Y-98020190D01*
X122467714Y-97496380D02*
X122658190Y-97496380D01*
X122753428Y-97544000D01*
X122801047Y-97591619D01*
X122896285Y-97734476D01*
X122943904Y-97924952D01*
X122943904Y-98305904D01*
X122896285Y-98401142D01*
X122848666Y-98448761D01*
X122753428Y-98496380D01*
X122562952Y-98496380D01*
X122467714Y-98448761D01*
X122420095Y-98401142D01*
X122372476Y-98305904D01*
X122372476Y-98067809D01*
X122420095Y-97972571D01*
X122467714Y-97924952D01*
X122562952Y-97877333D01*
X122753428Y-97877333D01*
X122848666Y-97924952D01*
X122896285Y-97972571D01*
X122943904Y-98067809D01*
X121991523Y-97591619D02*
X121943904Y-97544000D01*
X121848666Y-97496380D01*
X121610571Y-97496380D01*
X121515333Y-97544000D01*
X121467714Y-97591619D01*
X121420095Y-97686857D01*
X121420095Y-97782095D01*
X121467714Y-97924952D01*
X122039142Y-98496380D01*
X121420095Y-98496380D01*
X167520857Y-148637880D02*
X167854190Y-148161690D01*
X168092285Y-148637880D02*
X168092285Y-147637880D01*
X167711333Y-147637880D01*
X167616095Y-147685500D01*
X167568476Y-147733119D01*
X167520857Y-147828357D01*
X167520857Y-147971214D01*
X167568476Y-148066452D01*
X167616095Y-148114071D01*
X167711333Y-148161690D01*
X168092285Y-148161690D01*
X167187523Y-147637880D02*
X166568476Y-147637880D01*
X166901809Y-148018833D01*
X166758952Y-148018833D01*
X166663714Y-148066452D01*
X166616095Y-148114071D01*
X166568476Y-148209309D01*
X166568476Y-148447404D01*
X166616095Y-148542642D01*
X166663714Y-148590261D01*
X166758952Y-148637880D01*
X167044666Y-148637880D01*
X167139904Y-148590261D01*
X167187523Y-148542642D01*
X165711333Y-147637880D02*
X165901809Y-147637880D01*
X165997047Y-147685500D01*
X166044666Y-147733119D01*
X166139904Y-147875976D01*
X166187523Y-148066452D01*
X166187523Y-148447404D01*
X166139904Y-148542642D01*
X166092285Y-148590261D01*
X165997047Y-148637880D01*
X165806571Y-148637880D01*
X165711333Y-148590261D01*
X165663714Y-148542642D01*
X165616095Y-148447404D01*
X165616095Y-148209309D01*
X165663714Y-148114071D01*
X165711333Y-148066452D01*
X165806571Y-148018833D01*
X165997047Y-148018833D01*
X166092285Y-148066452D01*
X166139904Y-148114071D01*
X166187523Y-148209309D01*
X162694857Y-103830380D02*
X163028190Y-103354190D01*
X163266285Y-103830380D02*
X163266285Y-102830380D01*
X162885333Y-102830380D01*
X162790095Y-102878000D01*
X162742476Y-102925619D01*
X162694857Y-103020857D01*
X162694857Y-103163714D01*
X162742476Y-103258952D01*
X162790095Y-103306571D01*
X162885333Y-103354190D01*
X163266285Y-103354190D01*
X161837714Y-102830380D02*
X162028190Y-102830380D01*
X162123428Y-102878000D01*
X162171047Y-102925619D01*
X162266285Y-103068476D01*
X162313904Y-103258952D01*
X162313904Y-103639904D01*
X162266285Y-103735142D01*
X162218666Y-103782761D01*
X162123428Y-103830380D01*
X161932952Y-103830380D01*
X161837714Y-103782761D01*
X161790095Y-103735142D01*
X161742476Y-103639904D01*
X161742476Y-103401809D01*
X161790095Y-103306571D01*
X161837714Y-103258952D01*
X161932952Y-103211333D01*
X162123428Y-103211333D01*
X162218666Y-103258952D01*
X162266285Y-103306571D01*
X162313904Y-103401809D01*
X160885333Y-102830380D02*
X161075809Y-102830380D01*
X161171047Y-102878000D01*
X161218666Y-102925619D01*
X161313904Y-103068476D01*
X161361523Y-103258952D01*
X161361523Y-103639904D01*
X161313904Y-103735142D01*
X161266285Y-103782761D01*
X161171047Y-103830380D01*
X160980571Y-103830380D01*
X160885333Y-103782761D01*
X160837714Y-103735142D01*
X160790095Y-103639904D01*
X160790095Y-103401809D01*
X160837714Y-103306571D01*
X160885333Y-103258952D01*
X160980571Y-103211333D01*
X161171047Y-103211333D01*
X161266285Y-103258952D01*
X161313904Y-103306571D01*
X161361523Y-103401809D01*
X163084166Y-68429142D02*
X163131785Y-68476761D01*
X163274642Y-68524380D01*
X163369880Y-68524380D01*
X163512738Y-68476761D01*
X163607976Y-68381523D01*
X163655595Y-68286285D01*
X163703214Y-68095809D01*
X163703214Y-67952952D01*
X163655595Y-67762476D01*
X163607976Y-67667238D01*
X163512738Y-67572000D01*
X163369880Y-67524380D01*
X163274642Y-67524380D01*
X163131785Y-67572000D01*
X163084166Y-67619619D01*
X162703214Y-67619619D02*
X162655595Y-67572000D01*
X162560357Y-67524380D01*
X162322261Y-67524380D01*
X162227023Y-67572000D01*
X162179404Y-67619619D01*
X162131785Y-67714857D01*
X162131785Y-67810095D01*
X162179404Y-67952952D01*
X162750833Y-68524380D01*
X162131785Y-68524380D01*
X122690166Y-54649880D02*
X123023500Y-54173690D01*
X123261595Y-54649880D02*
X123261595Y-53649880D01*
X122880642Y-53649880D01*
X122785404Y-53697500D01*
X122737785Y-53745119D01*
X122690166Y-53840357D01*
X122690166Y-53983214D01*
X122737785Y-54078452D01*
X122785404Y-54126071D01*
X122880642Y-54173690D01*
X123261595Y-54173690D01*
X121785404Y-53649880D02*
X122261595Y-53649880D01*
X122309214Y-54126071D01*
X122261595Y-54078452D01*
X122166357Y-54030833D01*
X121928261Y-54030833D01*
X121833023Y-54078452D01*
X121785404Y-54126071D01*
X121737785Y-54221309D01*
X121737785Y-54459404D01*
X121785404Y-54554642D01*
X121833023Y-54602261D01*
X121928261Y-54649880D01*
X122166357Y-54649880D01*
X122261595Y-54602261D01*
X122309214Y-54554642D01*
X159710285Y-94400380D02*
X159710285Y-93400380D01*
X159472190Y-93400380D01*
X159329333Y-93448000D01*
X159234095Y-93543238D01*
X159186476Y-93638476D01*
X159138857Y-93828952D01*
X159138857Y-93971809D01*
X159186476Y-94162285D01*
X159234095Y-94257523D01*
X159329333Y-94352761D01*
X159472190Y-94400380D01*
X159710285Y-94400380D01*
X158757904Y-93495619D02*
X158710285Y-93448000D01*
X158615047Y-93400380D01*
X158376952Y-93400380D01*
X158281714Y-93448000D01*
X158234095Y-93495619D01*
X158186476Y-93590857D01*
X158186476Y-93686095D01*
X158234095Y-93828952D01*
X158805523Y-94400380D01*
X158186476Y-94400380D01*
X157567428Y-93400380D02*
X157472190Y-93400380D01*
X157376952Y-93448000D01*
X157329333Y-93495619D01*
X157281714Y-93590857D01*
X157234095Y-93781333D01*
X157234095Y-94019428D01*
X157281714Y-94209904D01*
X157329333Y-94305142D01*
X157376952Y-94352761D01*
X157472190Y-94400380D01*
X157567428Y-94400380D01*
X157662666Y-94352761D01*
X157710285Y-94305142D01*
X157757904Y-94209904D01*
X157805523Y-94019428D01*
X157805523Y-93781333D01*
X157757904Y-93590857D01*
X157710285Y-93495619D01*
X157662666Y-93448000D01*
X157567428Y-93400380D01*
X165488857Y-143454380D02*
X165822190Y-142978190D01*
X166060285Y-143454380D02*
X166060285Y-142454380D01*
X165679333Y-142454380D01*
X165584095Y-142502000D01*
X165536476Y-142549619D01*
X165488857Y-142644857D01*
X165488857Y-142787714D01*
X165536476Y-142882952D01*
X165584095Y-142930571D01*
X165679333Y-142978190D01*
X166060285Y-142978190D01*
X165155523Y-142454380D02*
X164536476Y-142454380D01*
X164869809Y-142835333D01*
X164726952Y-142835333D01*
X164631714Y-142882952D01*
X164584095Y-142930571D01*
X164536476Y-143025809D01*
X164536476Y-143263904D01*
X164584095Y-143359142D01*
X164631714Y-143406761D01*
X164726952Y-143454380D01*
X165012666Y-143454380D01*
X165107904Y-143406761D01*
X165155523Y-143359142D01*
X164203142Y-142454380D02*
X163536476Y-142454380D01*
X163965047Y-143454380D01*
X159083595Y-64682380D02*
X159083595Y-63682380D01*
X158845500Y-63682380D01*
X158702642Y-63730000D01*
X158607404Y-63825238D01*
X158559785Y-63920476D01*
X158512166Y-64110952D01*
X158512166Y-64253809D01*
X158559785Y-64444285D01*
X158607404Y-64539523D01*
X158702642Y-64634761D01*
X158845500Y-64682380D01*
X159083595Y-64682380D01*
X157655023Y-64015714D02*
X157655023Y-64682380D01*
X157893119Y-63634761D02*
X158131214Y-64349047D01*
X157512166Y-64349047D01*
X163234666Y-88344642D02*
X163282285Y-88392261D01*
X163425142Y-88439880D01*
X163520380Y-88439880D01*
X163663238Y-88392261D01*
X163758476Y-88297023D01*
X163806095Y-88201785D01*
X163853714Y-88011309D01*
X163853714Y-87868452D01*
X163806095Y-87677976D01*
X163758476Y-87582738D01*
X163663238Y-87487500D01*
X163520380Y-87439880D01*
X163425142Y-87439880D01*
X163282285Y-87487500D01*
X163234666Y-87535119D01*
X162377523Y-87773214D02*
X162377523Y-88439880D01*
X162615619Y-87392261D02*
X162853714Y-88106547D01*
X162234666Y-88106547D01*
X165488857Y-84121880D02*
X165822190Y-83645690D01*
X166060285Y-84121880D02*
X166060285Y-83121880D01*
X165679333Y-83121880D01*
X165584095Y-83169500D01*
X165536476Y-83217119D01*
X165488857Y-83312357D01*
X165488857Y-83455214D01*
X165536476Y-83550452D01*
X165584095Y-83598071D01*
X165679333Y-83645690D01*
X166060285Y-83645690D01*
X165155523Y-83121880D02*
X164536476Y-83121880D01*
X164869809Y-83502833D01*
X164726952Y-83502833D01*
X164631714Y-83550452D01*
X164584095Y-83598071D01*
X164536476Y-83693309D01*
X164536476Y-83931404D01*
X164584095Y-84026642D01*
X164631714Y-84074261D01*
X164726952Y-84121880D01*
X165012666Y-84121880D01*
X165107904Y-84074261D01*
X165155523Y-84026642D01*
X163917428Y-83121880D02*
X163822190Y-83121880D01*
X163726952Y-83169500D01*
X163679333Y-83217119D01*
X163631714Y-83312357D01*
X163584095Y-83502833D01*
X163584095Y-83740928D01*
X163631714Y-83931404D01*
X163679333Y-84026642D01*
X163726952Y-84074261D01*
X163822190Y-84121880D01*
X163917428Y-84121880D01*
X164012666Y-84074261D01*
X164060285Y-84026642D01*
X164107904Y-83931404D01*
X164155523Y-83740928D01*
X164155523Y-83502833D01*
X164107904Y-83312357D01*
X164060285Y-83217119D01*
X164012666Y-83169500D01*
X163917428Y-83121880D01*
X163806095Y-145232380D02*
X163806095Y-144232380D01*
X163568000Y-144232380D01*
X163425142Y-144280000D01*
X163329904Y-144375238D01*
X163282285Y-144470476D01*
X163234666Y-144660952D01*
X163234666Y-144803809D01*
X163282285Y-144994285D01*
X163329904Y-145089523D01*
X163425142Y-145184761D01*
X163568000Y-145232380D01*
X163806095Y-145232380D01*
X162758476Y-145232380D02*
X162568000Y-145232380D01*
X162472761Y-145184761D01*
X162425142Y-145137142D01*
X162329904Y-144994285D01*
X162282285Y-144803809D01*
X162282285Y-144422857D01*
X162329904Y-144327619D01*
X162377523Y-144280000D01*
X162472761Y-144232380D01*
X162663238Y-144232380D01*
X162758476Y-144280000D01*
X162806095Y-144327619D01*
X162853714Y-144422857D01*
X162853714Y-144660952D01*
X162806095Y-144756190D01*
X162758476Y-144803809D01*
X162663238Y-144851428D01*
X162472761Y-144851428D01*
X162377523Y-144803809D01*
X162329904Y-144756190D01*
X162282285Y-144660952D01*
X162694857Y-84121880D02*
X163028190Y-83645690D01*
X163266285Y-84121880D02*
X163266285Y-83121880D01*
X162885333Y-83121880D01*
X162790095Y-83169500D01*
X162742476Y-83217119D01*
X162694857Y-83312357D01*
X162694857Y-83455214D01*
X162742476Y-83550452D01*
X162790095Y-83598071D01*
X162885333Y-83645690D01*
X163266285Y-83645690D01*
X162361523Y-83121880D02*
X161742476Y-83121880D01*
X162075809Y-83502833D01*
X161932952Y-83502833D01*
X161837714Y-83550452D01*
X161790095Y-83598071D01*
X161742476Y-83693309D01*
X161742476Y-83931404D01*
X161790095Y-84026642D01*
X161837714Y-84074261D01*
X161932952Y-84121880D01*
X162218666Y-84121880D01*
X162313904Y-84074261D01*
X162361523Y-84026642D01*
X160790095Y-84121880D02*
X161361523Y-84121880D01*
X161075809Y-84121880D02*
X161075809Y-83121880D01*
X161171047Y-83264738D01*
X161266285Y-83359976D01*
X161361523Y-83407595D01*
X159710285Y-134024380D02*
X159710285Y-133024380D01*
X159472190Y-133024380D01*
X159329333Y-133072000D01*
X159234095Y-133167238D01*
X159186476Y-133262476D01*
X159138857Y-133452952D01*
X159138857Y-133595809D01*
X159186476Y-133786285D01*
X159234095Y-133881523D01*
X159329333Y-133976761D01*
X159472190Y-134024380D01*
X159710285Y-134024380D01*
X158186476Y-134024380D02*
X158757904Y-134024380D01*
X158472190Y-134024380D02*
X158472190Y-133024380D01*
X158567428Y-133167238D01*
X158662666Y-133262476D01*
X158757904Y-133310095D01*
X157805523Y-133119619D02*
X157757904Y-133072000D01*
X157662666Y-133024380D01*
X157424571Y-133024380D01*
X157329333Y-133072000D01*
X157281714Y-133119619D01*
X157234095Y-133214857D01*
X157234095Y-133310095D01*
X157281714Y-133452952D01*
X157853142Y-134024380D01*
X157234095Y-134024380D01*
X123324857Y-146756380D02*
X123658190Y-146280190D01*
X123896285Y-146756380D02*
X123896285Y-145756380D01*
X123515333Y-145756380D01*
X123420095Y-145804000D01*
X123372476Y-145851619D01*
X123324857Y-145946857D01*
X123324857Y-146089714D01*
X123372476Y-146184952D01*
X123420095Y-146232571D01*
X123515333Y-146280190D01*
X123896285Y-146280190D01*
X122420095Y-145756380D02*
X122896285Y-145756380D01*
X122943904Y-146232571D01*
X122896285Y-146184952D01*
X122801047Y-146137333D01*
X122562952Y-146137333D01*
X122467714Y-146184952D01*
X122420095Y-146232571D01*
X122372476Y-146327809D01*
X122372476Y-146565904D01*
X122420095Y-146661142D01*
X122467714Y-146708761D01*
X122562952Y-146756380D01*
X122801047Y-146756380D01*
X122896285Y-146708761D01*
X122943904Y-146661142D01*
X121467714Y-145756380D02*
X121943904Y-145756380D01*
X121991523Y-146232571D01*
X121943904Y-146184952D01*
X121848666Y-146137333D01*
X121610571Y-146137333D01*
X121515333Y-146184952D01*
X121467714Y-146232571D01*
X121420095Y-146327809D01*
X121420095Y-146565904D01*
X121467714Y-146661142D01*
X121515333Y-146708761D01*
X121610571Y-146756380D01*
X121848666Y-146756380D01*
X121943904Y-146708761D01*
X121991523Y-146661142D01*
X162694857Y-113839880D02*
X163028190Y-113363690D01*
X163266285Y-113839880D02*
X163266285Y-112839880D01*
X162885333Y-112839880D01*
X162790095Y-112887500D01*
X162742476Y-112935119D01*
X162694857Y-113030357D01*
X162694857Y-113173214D01*
X162742476Y-113268452D01*
X162790095Y-113316071D01*
X162885333Y-113363690D01*
X163266285Y-113363690D01*
X161790095Y-112839880D02*
X162266285Y-112839880D01*
X162313904Y-113316071D01*
X162266285Y-113268452D01*
X162171047Y-113220833D01*
X161932952Y-113220833D01*
X161837714Y-113268452D01*
X161790095Y-113316071D01*
X161742476Y-113411309D01*
X161742476Y-113649404D01*
X161790095Y-113744642D01*
X161837714Y-113792261D01*
X161932952Y-113839880D01*
X162171047Y-113839880D01*
X162266285Y-113792261D01*
X162313904Y-113744642D01*
X161266285Y-113839880D02*
X161075809Y-113839880D01*
X160980571Y-113792261D01*
X160932952Y-113744642D01*
X160837714Y-113601785D01*
X160790095Y-113411309D01*
X160790095Y-113030357D01*
X160837714Y-112935119D01*
X160885333Y-112887500D01*
X160980571Y-112839880D01*
X161171047Y-112839880D01*
X161266285Y-112887500D01*
X161313904Y-112935119D01*
X161361523Y-113030357D01*
X161361523Y-113268452D01*
X161313904Y-113363690D01*
X161266285Y-113411309D01*
X161171047Y-113458928D01*
X160980571Y-113458928D01*
X160885333Y-113411309D01*
X160837714Y-113363690D01*
X160790095Y-113268452D01*
X164282285Y-95702380D02*
X164282285Y-94702380D01*
X164044190Y-94702380D01*
X163901333Y-94750000D01*
X163806095Y-94845238D01*
X163758476Y-94940476D01*
X163710857Y-95130952D01*
X163710857Y-95273809D01*
X163758476Y-95464285D01*
X163806095Y-95559523D01*
X163901333Y-95654761D01*
X164044190Y-95702380D01*
X164282285Y-95702380D01*
X162758476Y-95702380D02*
X163329904Y-95702380D01*
X163044190Y-95702380D02*
X163044190Y-94702380D01*
X163139428Y-94845238D01*
X163234666Y-94940476D01*
X163329904Y-94988095D01*
X162282285Y-95702380D02*
X162091809Y-95702380D01*
X161996571Y-95654761D01*
X161948952Y-95607142D01*
X161853714Y-95464285D01*
X161806095Y-95273809D01*
X161806095Y-94892857D01*
X161853714Y-94797619D01*
X161901333Y-94750000D01*
X161996571Y-94702380D01*
X162187047Y-94702380D01*
X162282285Y-94750000D01*
X162329904Y-94797619D01*
X162377523Y-94892857D01*
X162377523Y-95130952D01*
X162329904Y-95226190D01*
X162282285Y-95273809D01*
X162187047Y-95321428D01*
X161996571Y-95321428D01*
X161901333Y-95273809D01*
X161853714Y-95226190D01*
X161806095Y-95130952D01*
X167520857Y-119023380D02*
X167854190Y-118547190D01*
X168092285Y-119023380D02*
X168092285Y-118023380D01*
X167711333Y-118023380D01*
X167616095Y-118071000D01*
X167568476Y-118118619D01*
X167520857Y-118213857D01*
X167520857Y-118356714D01*
X167568476Y-118451952D01*
X167616095Y-118499571D01*
X167711333Y-118547190D01*
X168092285Y-118547190D01*
X166616095Y-118023380D02*
X167092285Y-118023380D01*
X167139904Y-118499571D01*
X167092285Y-118451952D01*
X166997047Y-118404333D01*
X166758952Y-118404333D01*
X166663714Y-118451952D01*
X166616095Y-118499571D01*
X166568476Y-118594809D01*
X166568476Y-118832904D01*
X166616095Y-118928142D01*
X166663714Y-118975761D01*
X166758952Y-119023380D01*
X166997047Y-119023380D01*
X167092285Y-118975761D01*
X167139904Y-118928142D01*
X166235142Y-118023380D02*
X165568476Y-118023380D01*
X165997047Y-119023380D01*
X165338357Y-64206380D02*
X165671690Y-63730190D01*
X165909785Y-64206380D02*
X165909785Y-63206380D01*
X165528833Y-63206380D01*
X165433595Y-63254000D01*
X165385976Y-63301619D01*
X165338357Y-63396857D01*
X165338357Y-63539714D01*
X165385976Y-63634952D01*
X165433595Y-63682571D01*
X165528833Y-63730190D01*
X165909785Y-63730190D01*
X164385976Y-64206380D02*
X164957404Y-64206380D01*
X164671690Y-64206380D02*
X164671690Y-63206380D01*
X164766928Y-63349238D01*
X164862166Y-63444476D01*
X164957404Y-63492095D01*
X163528833Y-63206380D02*
X163719309Y-63206380D01*
X163814547Y-63254000D01*
X163862166Y-63301619D01*
X163957404Y-63444476D01*
X164005023Y-63634952D01*
X164005023Y-64015904D01*
X163957404Y-64111142D01*
X163909785Y-64158761D01*
X163814547Y-64206380D01*
X163624071Y-64206380D01*
X163528833Y-64158761D01*
X163481214Y-64111142D01*
X163433595Y-64015904D01*
X163433595Y-63777809D01*
X163481214Y-63682571D01*
X163528833Y-63634952D01*
X163624071Y-63587333D01*
X163814547Y-63587333D01*
X163909785Y-63634952D01*
X163957404Y-63682571D01*
X164005023Y-63777809D01*
X167520857Y-128929380D02*
X167854190Y-128453190D01*
X168092285Y-128929380D02*
X168092285Y-127929380D01*
X167711333Y-127929380D01*
X167616095Y-127977000D01*
X167568476Y-128024619D01*
X167520857Y-128119857D01*
X167520857Y-128262714D01*
X167568476Y-128357952D01*
X167616095Y-128405571D01*
X167711333Y-128453190D01*
X168092285Y-128453190D01*
X166616095Y-127929380D02*
X167092285Y-127929380D01*
X167139904Y-128405571D01*
X167092285Y-128357952D01*
X166997047Y-128310333D01*
X166758952Y-128310333D01*
X166663714Y-128357952D01*
X166616095Y-128405571D01*
X166568476Y-128500809D01*
X166568476Y-128738904D01*
X166616095Y-128834142D01*
X166663714Y-128881761D01*
X166758952Y-128929380D01*
X166997047Y-128929380D01*
X167092285Y-128881761D01*
X167139904Y-128834142D01*
X165949428Y-127929380D02*
X165854190Y-127929380D01*
X165758952Y-127977000D01*
X165711333Y-128024619D01*
X165663714Y-128119857D01*
X165616095Y-128310333D01*
X165616095Y-128548428D01*
X165663714Y-128738904D01*
X165711333Y-128834142D01*
X165758952Y-128881761D01*
X165854190Y-128929380D01*
X165949428Y-128929380D01*
X166044666Y-128881761D01*
X166092285Y-128834142D01*
X166139904Y-128738904D01*
X166187523Y-128548428D01*
X166187523Y-128310333D01*
X166139904Y-128119857D01*
X166092285Y-128024619D01*
X166044666Y-127977000D01*
X165949428Y-127929380D01*
X123324857Y-103068380D02*
X123658190Y-102592190D01*
X123896285Y-103068380D02*
X123896285Y-102068380D01*
X123515333Y-102068380D01*
X123420095Y-102116000D01*
X123372476Y-102163619D01*
X123324857Y-102258857D01*
X123324857Y-102401714D01*
X123372476Y-102496952D01*
X123420095Y-102544571D01*
X123515333Y-102592190D01*
X123896285Y-102592190D01*
X122467714Y-102068380D02*
X122658190Y-102068380D01*
X122753428Y-102116000D01*
X122801047Y-102163619D01*
X122896285Y-102306476D01*
X122943904Y-102496952D01*
X122943904Y-102877904D01*
X122896285Y-102973142D01*
X122848666Y-103020761D01*
X122753428Y-103068380D01*
X122562952Y-103068380D01*
X122467714Y-103020761D01*
X122420095Y-102973142D01*
X122372476Y-102877904D01*
X122372476Y-102639809D01*
X122420095Y-102544571D01*
X122467714Y-102496952D01*
X122562952Y-102449333D01*
X122753428Y-102449333D01*
X122848666Y-102496952D01*
X122896285Y-102544571D01*
X122943904Y-102639809D01*
X121801047Y-102496952D02*
X121896285Y-102449333D01*
X121943904Y-102401714D01*
X121991523Y-102306476D01*
X121991523Y-102258857D01*
X121943904Y-102163619D01*
X121896285Y-102116000D01*
X121801047Y-102068380D01*
X121610571Y-102068380D01*
X121515333Y-102116000D01*
X121467714Y-102163619D01*
X121420095Y-102258857D01*
X121420095Y-102306476D01*
X121467714Y-102401714D01*
X121515333Y-102449333D01*
X121610571Y-102496952D01*
X121801047Y-102496952D01*
X121896285Y-102544571D01*
X121943904Y-102592190D01*
X121991523Y-102687428D01*
X121991523Y-102877904D01*
X121943904Y-102973142D01*
X121896285Y-103020761D01*
X121801047Y-103068380D01*
X121610571Y-103068380D01*
X121515333Y-103020761D01*
X121467714Y-102973142D01*
X121420095Y-102877904D01*
X121420095Y-102687428D01*
X121467714Y-102592190D01*
X121515333Y-102544571D01*
X121610571Y-102496952D01*
X162694857Y-143454380D02*
X163028190Y-142978190D01*
X163266285Y-143454380D02*
X163266285Y-142454380D01*
X162885333Y-142454380D01*
X162790095Y-142502000D01*
X162742476Y-142549619D01*
X162694857Y-142644857D01*
X162694857Y-142787714D01*
X162742476Y-142882952D01*
X162790095Y-142930571D01*
X162885333Y-142978190D01*
X163266285Y-142978190D01*
X162361523Y-142454380D02*
X161742476Y-142454380D01*
X162075809Y-142835333D01*
X161932952Y-142835333D01*
X161837714Y-142882952D01*
X161790095Y-142930571D01*
X161742476Y-143025809D01*
X161742476Y-143263904D01*
X161790095Y-143359142D01*
X161837714Y-143406761D01*
X161932952Y-143454380D01*
X162218666Y-143454380D01*
X162313904Y-143406761D01*
X162361523Y-143359142D01*
X161171047Y-142882952D02*
X161266285Y-142835333D01*
X161313904Y-142787714D01*
X161361523Y-142692476D01*
X161361523Y-142644857D01*
X161313904Y-142549619D01*
X161266285Y-142502000D01*
X161171047Y-142454380D01*
X160980571Y-142454380D01*
X160885333Y-142502000D01*
X160837714Y-142549619D01*
X160790095Y-142644857D01*
X160790095Y-142692476D01*
X160837714Y-142787714D01*
X160885333Y-142835333D01*
X160980571Y-142882952D01*
X161171047Y-142882952D01*
X161266285Y-142930571D01*
X161313904Y-142978190D01*
X161361523Y-143073428D01*
X161361523Y-143263904D01*
X161313904Y-143359142D01*
X161266285Y-143406761D01*
X161171047Y-143454380D01*
X160980571Y-143454380D01*
X160885333Y-143406761D01*
X160837714Y-143359142D01*
X160790095Y-143263904D01*
X160790095Y-143073428D01*
X160837714Y-142978190D01*
X160885333Y-142930571D01*
X160980571Y-142882952D01*
X165488857Y-103830380D02*
X165822190Y-103354190D01*
X166060285Y-103830380D02*
X166060285Y-102830380D01*
X165679333Y-102830380D01*
X165584095Y-102878000D01*
X165536476Y-102925619D01*
X165488857Y-103020857D01*
X165488857Y-103163714D01*
X165536476Y-103258952D01*
X165584095Y-103306571D01*
X165679333Y-103354190D01*
X166060285Y-103354190D01*
X164631714Y-102830380D02*
X164822190Y-102830380D01*
X164917428Y-102878000D01*
X164965047Y-102925619D01*
X165060285Y-103068476D01*
X165107904Y-103258952D01*
X165107904Y-103639904D01*
X165060285Y-103735142D01*
X165012666Y-103782761D01*
X164917428Y-103830380D01*
X164726952Y-103830380D01*
X164631714Y-103782761D01*
X164584095Y-103735142D01*
X164536476Y-103639904D01*
X164536476Y-103401809D01*
X164584095Y-103306571D01*
X164631714Y-103258952D01*
X164726952Y-103211333D01*
X164917428Y-103211333D01*
X165012666Y-103258952D01*
X165060285Y-103306571D01*
X165107904Y-103401809D01*
X163631714Y-102830380D02*
X164107904Y-102830380D01*
X164155523Y-103306571D01*
X164107904Y-103258952D01*
X164012666Y-103211333D01*
X163774571Y-103211333D01*
X163679333Y-103258952D01*
X163631714Y-103306571D01*
X163584095Y-103401809D01*
X163584095Y-103639904D01*
X163631714Y-103735142D01*
X163679333Y-103782761D01*
X163774571Y-103830380D01*
X164012666Y-103830380D01*
X164107904Y-103782761D01*
X164155523Y-103735142D01*
X163234666Y-147677142D02*
X163282285Y-147724761D01*
X163425142Y-147772380D01*
X163520380Y-147772380D01*
X163663238Y-147724761D01*
X163758476Y-147629523D01*
X163806095Y-147534285D01*
X163853714Y-147343809D01*
X163853714Y-147200952D01*
X163806095Y-147010476D01*
X163758476Y-146915238D01*
X163663238Y-146820000D01*
X163520380Y-146772380D01*
X163425142Y-146772380D01*
X163282285Y-146820000D01*
X163234666Y-146867619D01*
X162329904Y-146772380D02*
X162806095Y-146772380D01*
X162853714Y-147248571D01*
X162806095Y-147200952D01*
X162710857Y-147153333D01*
X162472761Y-147153333D01*
X162377523Y-147200952D01*
X162329904Y-147248571D01*
X162282285Y-147343809D01*
X162282285Y-147581904D01*
X162329904Y-147677142D01*
X162377523Y-147724761D01*
X162472761Y-147772380D01*
X162710857Y-147772380D01*
X162806095Y-147724761D01*
X162853714Y-147677142D01*
X123324857Y-127452380D02*
X123658190Y-126976190D01*
X123896285Y-127452380D02*
X123896285Y-126452380D01*
X123515333Y-126452380D01*
X123420095Y-126500000D01*
X123372476Y-126547619D01*
X123324857Y-126642857D01*
X123324857Y-126785714D01*
X123372476Y-126880952D01*
X123420095Y-126928571D01*
X123515333Y-126976190D01*
X123896285Y-126976190D01*
X122467714Y-126785714D02*
X122467714Y-127452380D01*
X122705809Y-126404761D02*
X122943904Y-127119047D01*
X122324857Y-127119047D01*
X121420095Y-127452380D02*
X121991523Y-127452380D01*
X121705809Y-127452380D02*
X121705809Y-126452380D01*
X121801047Y-126595238D01*
X121896285Y-126690476D01*
X121991523Y-126738095D01*
X164862166Y-54300380D02*
X165195500Y-53824190D01*
X165433595Y-54300380D02*
X165433595Y-53300380D01*
X165052642Y-53300380D01*
X164957404Y-53348000D01*
X164909785Y-53395619D01*
X164862166Y-53490857D01*
X164862166Y-53633714D01*
X164909785Y-53728952D01*
X164957404Y-53776571D01*
X165052642Y-53824190D01*
X165433595Y-53824190D01*
X164385976Y-54300380D02*
X164195500Y-54300380D01*
X164100261Y-54252761D01*
X164052642Y-54205142D01*
X163957404Y-54062285D01*
X163909785Y-53871809D01*
X163909785Y-53490857D01*
X163957404Y-53395619D01*
X164005023Y-53348000D01*
X164100261Y-53300380D01*
X164290738Y-53300380D01*
X164385976Y-53348000D01*
X164433595Y-53395619D01*
X164481214Y-53490857D01*
X164481214Y-53728952D01*
X164433595Y-53824190D01*
X164385976Y-53871809D01*
X164290738Y-53919428D01*
X164100261Y-53919428D01*
X164005023Y-53871809D01*
X163957404Y-53824190D01*
X163909785Y-53728952D01*
X123324857Y-137104380D02*
X123658190Y-136628190D01*
X123896285Y-137104380D02*
X123896285Y-136104380D01*
X123515333Y-136104380D01*
X123420095Y-136152000D01*
X123372476Y-136199619D01*
X123324857Y-136294857D01*
X123324857Y-136437714D01*
X123372476Y-136532952D01*
X123420095Y-136580571D01*
X123515333Y-136628190D01*
X123896285Y-136628190D01*
X122467714Y-136437714D02*
X122467714Y-137104380D01*
X122705809Y-136056761D02*
X122943904Y-136771047D01*
X122324857Y-136771047D01*
X121801047Y-136532952D02*
X121896285Y-136485333D01*
X121943904Y-136437714D01*
X121991523Y-136342476D01*
X121991523Y-136294857D01*
X121943904Y-136199619D01*
X121896285Y-136152000D01*
X121801047Y-136104380D01*
X121610571Y-136104380D01*
X121515333Y-136152000D01*
X121467714Y-136199619D01*
X121420095Y-136294857D01*
X121420095Y-136342476D01*
X121467714Y-136437714D01*
X121515333Y-136485333D01*
X121610571Y-136532952D01*
X121801047Y-136532952D01*
X121896285Y-136580571D01*
X121943904Y-136628190D01*
X121991523Y-136723428D01*
X121991523Y-136913904D01*
X121943904Y-137009142D01*
X121896285Y-137056761D01*
X121801047Y-137104380D01*
X121610571Y-137104380D01*
X121515333Y-137056761D01*
X121467714Y-137009142D01*
X121420095Y-136913904D01*
X121420095Y-136723428D01*
X121467714Y-136628190D01*
X121515333Y-136580571D01*
X121610571Y-136532952D01*
X163084166Y-58523142D02*
X163131785Y-58570761D01*
X163274642Y-58618380D01*
X163369880Y-58618380D01*
X163512738Y-58570761D01*
X163607976Y-58475523D01*
X163655595Y-58380285D01*
X163703214Y-58189809D01*
X163703214Y-58046952D01*
X163655595Y-57856476D01*
X163607976Y-57761238D01*
X163512738Y-57666000D01*
X163369880Y-57618380D01*
X163274642Y-57618380D01*
X163131785Y-57666000D01*
X163084166Y-57713619D01*
X162131785Y-58618380D02*
X162703214Y-58618380D01*
X162417500Y-58618380D02*
X162417500Y-57618380D01*
X162512738Y-57761238D01*
X162607976Y-57856476D01*
X162703214Y-57904095D01*
X163234666Y-127968642D02*
X163282285Y-128016261D01*
X163425142Y-128063880D01*
X163520380Y-128063880D01*
X163663238Y-128016261D01*
X163758476Y-127921023D01*
X163806095Y-127825785D01*
X163853714Y-127635309D01*
X163853714Y-127492452D01*
X163806095Y-127301976D01*
X163758476Y-127206738D01*
X163663238Y-127111500D01*
X163520380Y-127063880D01*
X163425142Y-127063880D01*
X163282285Y-127111500D01*
X163234666Y-127159119D01*
X162901333Y-127063880D02*
X162234666Y-127063880D01*
X162663238Y-128063880D01*
X162694857Y-93924380D02*
X163028190Y-93448190D01*
X163266285Y-93924380D02*
X163266285Y-92924380D01*
X162885333Y-92924380D01*
X162790095Y-92972000D01*
X162742476Y-93019619D01*
X162694857Y-93114857D01*
X162694857Y-93257714D01*
X162742476Y-93352952D01*
X162790095Y-93400571D01*
X162885333Y-93448190D01*
X163266285Y-93448190D01*
X162361523Y-92924380D02*
X161694857Y-92924380D01*
X162123428Y-93924380D01*
X161409142Y-92924380D02*
X160790095Y-92924380D01*
X161123428Y-93305333D01*
X160980571Y-93305333D01*
X160885333Y-93352952D01*
X160837714Y-93400571D01*
X160790095Y-93495809D01*
X160790095Y-93733904D01*
X160837714Y-93829142D01*
X160885333Y-93876761D01*
X160980571Y-93924380D01*
X161266285Y-93924380D01*
X161361523Y-93876761D01*
X161409142Y-93829142D01*
X162694857Y-74215880D02*
X163028190Y-73739690D01*
X163266285Y-74215880D02*
X163266285Y-73215880D01*
X162885333Y-73215880D01*
X162790095Y-73263500D01*
X162742476Y-73311119D01*
X162694857Y-73406357D01*
X162694857Y-73549214D01*
X162742476Y-73644452D01*
X162790095Y-73692071D01*
X162885333Y-73739690D01*
X163266285Y-73739690D01*
X162313904Y-73311119D02*
X162266285Y-73263500D01*
X162171047Y-73215880D01*
X161932952Y-73215880D01*
X161837714Y-73263500D01*
X161790095Y-73311119D01*
X161742476Y-73406357D01*
X161742476Y-73501595D01*
X161790095Y-73644452D01*
X162361523Y-74215880D01*
X161742476Y-74215880D01*
X160885333Y-73549214D02*
X160885333Y-74215880D01*
X161123428Y-73168261D02*
X161361523Y-73882547D01*
X160742476Y-73882547D01*
X165488857Y-123745880D02*
X165822190Y-123269690D01*
X166060285Y-123745880D02*
X166060285Y-122745880D01*
X165679333Y-122745880D01*
X165584095Y-122793500D01*
X165536476Y-122841119D01*
X165488857Y-122936357D01*
X165488857Y-123079214D01*
X165536476Y-123174452D01*
X165584095Y-123222071D01*
X165679333Y-123269690D01*
X166060285Y-123269690D01*
X164584095Y-122745880D02*
X165060285Y-122745880D01*
X165107904Y-123222071D01*
X165060285Y-123174452D01*
X164965047Y-123126833D01*
X164726952Y-123126833D01*
X164631714Y-123174452D01*
X164584095Y-123222071D01*
X164536476Y-123317309D01*
X164536476Y-123555404D01*
X164584095Y-123650642D01*
X164631714Y-123698261D01*
X164726952Y-123745880D01*
X164965047Y-123745880D01*
X165060285Y-123698261D01*
X165107904Y-123650642D01*
X163584095Y-123745880D02*
X164155523Y-123745880D01*
X163869809Y-123745880D02*
X163869809Y-122745880D01*
X163965047Y-122888738D01*
X164060285Y-122983976D01*
X164155523Y-123031595D01*
X159083595Y-54776380D02*
X159083595Y-53776380D01*
X158845500Y-53776380D01*
X158702642Y-53824000D01*
X158607404Y-53919238D01*
X158559785Y-54014476D01*
X158512166Y-54204952D01*
X158512166Y-54347809D01*
X158559785Y-54538285D01*
X158607404Y-54633523D01*
X158702642Y-54728761D01*
X158845500Y-54776380D01*
X159083595Y-54776380D01*
X158131214Y-53871619D02*
X158083595Y-53824000D01*
X157988357Y-53776380D01*
X157750261Y-53776380D01*
X157655023Y-53824000D01*
X157607404Y-53871619D01*
X157559785Y-53966857D01*
X157559785Y-54062095D01*
X157607404Y-54204952D01*
X158178833Y-54776380D01*
X157559785Y-54776380D01*
X159710285Y-104306380D02*
X159710285Y-103306380D01*
X159472190Y-103306380D01*
X159329333Y-103354000D01*
X159234095Y-103449238D01*
X159186476Y-103544476D01*
X159138857Y-103734952D01*
X159138857Y-103877809D01*
X159186476Y-104068285D01*
X159234095Y-104163523D01*
X159329333Y-104258761D01*
X159472190Y-104306380D01*
X159710285Y-104306380D01*
X158186476Y-104306380D02*
X158757904Y-104306380D01*
X158472190Y-104306380D02*
X158472190Y-103306380D01*
X158567428Y-103449238D01*
X158662666Y-103544476D01*
X158757904Y-103592095D01*
X157615047Y-103734952D02*
X157710285Y-103687333D01*
X157757904Y-103639714D01*
X157805523Y-103544476D01*
X157805523Y-103496857D01*
X157757904Y-103401619D01*
X157710285Y-103354000D01*
X157615047Y-103306380D01*
X157424571Y-103306380D01*
X157329333Y-103354000D01*
X157281714Y-103401619D01*
X157234095Y-103496857D01*
X157234095Y-103544476D01*
X157281714Y-103639714D01*
X157329333Y-103687333D01*
X157424571Y-103734952D01*
X157615047Y-103734952D01*
X157710285Y-103782571D01*
X157757904Y-103830190D01*
X157805523Y-103925428D01*
X157805523Y-104115904D01*
X157757904Y-104211142D01*
X157710285Y-104258761D01*
X157615047Y-104306380D01*
X157424571Y-104306380D01*
X157329333Y-104258761D01*
X157281714Y-104211142D01*
X157234095Y-104115904D01*
X157234095Y-103925428D01*
X157281714Y-103830190D01*
X157329333Y-103782571D01*
X157424571Y-103734952D01*
X164282285Y-125523880D02*
X164282285Y-124523880D01*
X164044190Y-124523880D01*
X163901333Y-124571500D01*
X163806095Y-124666738D01*
X163758476Y-124761976D01*
X163710857Y-124952452D01*
X163710857Y-125095309D01*
X163758476Y-125285785D01*
X163806095Y-125381023D01*
X163901333Y-125476261D01*
X164044190Y-125523880D01*
X164282285Y-125523880D01*
X162758476Y-125523880D02*
X163329904Y-125523880D01*
X163044190Y-125523880D02*
X163044190Y-124523880D01*
X163139428Y-124666738D01*
X163234666Y-124761976D01*
X163329904Y-124809595D01*
X162425142Y-124523880D02*
X161806095Y-124523880D01*
X162139428Y-124904833D01*
X161996571Y-124904833D01*
X161901333Y-124952452D01*
X161853714Y-125000071D01*
X161806095Y-125095309D01*
X161806095Y-125333404D01*
X161853714Y-125428642D01*
X161901333Y-125476261D01*
X161996571Y-125523880D01*
X162282285Y-125523880D01*
X162377523Y-125476261D01*
X162425142Y-125428642D01*
X167370357Y-69389880D02*
X167703690Y-68913690D01*
X167941785Y-69389880D02*
X167941785Y-68389880D01*
X167560833Y-68389880D01*
X167465595Y-68437500D01*
X167417976Y-68485119D01*
X167370357Y-68580357D01*
X167370357Y-68723214D01*
X167417976Y-68818452D01*
X167465595Y-68866071D01*
X167560833Y-68913690D01*
X167941785Y-68913690D01*
X166417976Y-69389880D02*
X166989404Y-69389880D01*
X166703690Y-69389880D02*
X166703690Y-68389880D01*
X166798928Y-68532738D01*
X166894166Y-68627976D01*
X166989404Y-68675595D01*
X165513214Y-68389880D02*
X165989404Y-68389880D01*
X166037023Y-68866071D01*
X165989404Y-68818452D01*
X165894166Y-68770833D01*
X165656071Y-68770833D01*
X165560833Y-68818452D01*
X165513214Y-68866071D01*
X165465595Y-68961309D01*
X165465595Y-69199404D01*
X165513214Y-69294642D01*
X165560833Y-69342261D01*
X165656071Y-69389880D01*
X165894166Y-69389880D01*
X165989404Y-69342261D01*
X166037023Y-69294642D01*
X162544357Y-64206380D02*
X162877690Y-63730190D01*
X163115785Y-64206380D02*
X163115785Y-63206380D01*
X162734833Y-63206380D01*
X162639595Y-63254000D01*
X162591976Y-63301619D01*
X162544357Y-63396857D01*
X162544357Y-63539714D01*
X162591976Y-63634952D01*
X162639595Y-63682571D01*
X162734833Y-63730190D01*
X163115785Y-63730190D01*
X161591976Y-64206380D02*
X162163404Y-64206380D01*
X161877690Y-64206380D02*
X161877690Y-63206380D01*
X161972928Y-63349238D01*
X162068166Y-63444476D01*
X162163404Y-63492095D01*
X161258642Y-63206380D02*
X160591976Y-63206380D01*
X161020547Y-64206380D01*
X163234666Y-118062642D02*
X163282285Y-118110261D01*
X163425142Y-118157880D01*
X163520380Y-118157880D01*
X163663238Y-118110261D01*
X163758476Y-118015023D01*
X163806095Y-117919785D01*
X163853714Y-117729309D01*
X163853714Y-117586452D01*
X163806095Y-117395976D01*
X163758476Y-117300738D01*
X163663238Y-117205500D01*
X163520380Y-117157880D01*
X163425142Y-117157880D01*
X163282285Y-117205500D01*
X163234666Y-117253119D01*
X162663238Y-117586452D02*
X162758476Y-117538833D01*
X162806095Y-117491214D01*
X162853714Y-117395976D01*
X162853714Y-117348357D01*
X162806095Y-117253119D01*
X162758476Y-117205500D01*
X162663238Y-117157880D01*
X162472761Y-117157880D01*
X162377523Y-117205500D01*
X162329904Y-117253119D01*
X162282285Y-117348357D01*
X162282285Y-117395976D01*
X162329904Y-117491214D01*
X162377523Y-117538833D01*
X162472761Y-117586452D01*
X162663238Y-117586452D01*
X162758476Y-117634071D01*
X162806095Y-117681690D01*
X162853714Y-117776928D01*
X162853714Y-117967404D01*
X162806095Y-118062642D01*
X162758476Y-118110261D01*
X162663238Y-118157880D01*
X162472761Y-118157880D01*
X162377523Y-118110261D01*
X162329904Y-118062642D01*
X162282285Y-117967404D01*
X162282285Y-117776928D01*
X162329904Y-117681690D01*
X162377523Y-117634071D01*
X162472761Y-117586452D01*
X123324857Y-93416380D02*
X123658190Y-92940190D01*
X123896285Y-93416380D02*
X123896285Y-92416380D01*
X123515333Y-92416380D01*
X123420095Y-92464000D01*
X123372476Y-92511619D01*
X123324857Y-92606857D01*
X123324857Y-92749714D01*
X123372476Y-92844952D01*
X123420095Y-92892571D01*
X123515333Y-92940190D01*
X123896285Y-92940190D01*
X122467714Y-92416380D02*
X122658190Y-92416380D01*
X122753428Y-92464000D01*
X122801047Y-92511619D01*
X122896285Y-92654476D01*
X122943904Y-92844952D01*
X122943904Y-93225904D01*
X122896285Y-93321142D01*
X122848666Y-93368761D01*
X122753428Y-93416380D01*
X122562952Y-93416380D01*
X122467714Y-93368761D01*
X122420095Y-93321142D01*
X122372476Y-93225904D01*
X122372476Y-92987809D01*
X122420095Y-92892571D01*
X122467714Y-92844952D01*
X122562952Y-92797333D01*
X122753428Y-92797333D01*
X122848666Y-92844952D01*
X122896285Y-92892571D01*
X122943904Y-92987809D01*
X121420095Y-93416380D02*
X121991523Y-93416380D01*
X121705809Y-93416380D02*
X121705809Y-92416380D01*
X121801047Y-92559238D01*
X121896285Y-92654476D01*
X121991523Y-92702095D01*
X159234095Y-84597880D02*
X159234095Y-83597880D01*
X158996000Y-83597880D01*
X158853142Y-83645500D01*
X158757904Y-83740738D01*
X158710285Y-83835976D01*
X158662666Y-84026452D01*
X158662666Y-84169309D01*
X158710285Y-84359785D01*
X158757904Y-84455023D01*
X158853142Y-84550261D01*
X158996000Y-84597880D01*
X159234095Y-84597880D01*
X158091238Y-84026452D02*
X158186476Y-83978833D01*
X158234095Y-83931214D01*
X158281714Y-83835976D01*
X158281714Y-83788357D01*
X158234095Y-83693119D01*
X158186476Y-83645500D01*
X158091238Y-83597880D01*
X157900761Y-83597880D01*
X157805523Y-83645500D01*
X157757904Y-83693119D01*
X157710285Y-83788357D01*
X157710285Y-83835976D01*
X157757904Y-83931214D01*
X157805523Y-83978833D01*
X157900761Y-84026452D01*
X158091238Y-84026452D01*
X158186476Y-84074071D01*
X158234095Y-84121690D01*
X158281714Y-84216928D01*
X158281714Y-84407404D01*
X158234095Y-84502642D01*
X158186476Y-84550261D01*
X158091238Y-84597880D01*
X157900761Y-84597880D01*
X157805523Y-84550261D01*
X157757904Y-84502642D01*
X157710285Y-84407404D01*
X157710285Y-84216928D01*
X157757904Y-84121690D01*
X157805523Y-84074071D01*
X157900761Y-84026452D01*
X123263857Y-88844380D02*
X123597190Y-88368190D01*
X123835285Y-88844380D02*
X123835285Y-87844380D01*
X123454333Y-87844380D01*
X123359095Y-87892000D01*
X123311476Y-87939619D01*
X123263857Y-88034857D01*
X123263857Y-88177714D01*
X123311476Y-88272952D01*
X123359095Y-88320571D01*
X123454333Y-88368190D01*
X123835285Y-88368190D01*
X122882904Y-87939619D02*
X122835285Y-87892000D01*
X122740047Y-87844380D01*
X122501952Y-87844380D01*
X122406714Y-87892000D01*
X122359095Y-87939619D01*
X122311476Y-88034857D01*
X122311476Y-88130095D01*
X122359095Y-88272952D01*
X122930523Y-88844380D01*
X122311476Y-88844380D01*
X121978142Y-87844380D02*
X121311476Y-87844380D01*
X121740047Y-88844380D01*
X123324857Y-141676380D02*
X123658190Y-141200190D01*
X123896285Y-141676380D02*
X123896285Y-140676380D01*
X123515333Y-140676380D01*
X123420095Y-140724000D01*
X123372476Y-140771619D01*
X123324857Y-140866857D01*
X123324857Y-141009714D01*
X123372476Y-141104952D01*
X123420095Y-141152571D01*
X123515333Y-141200190D01*
X123896285Y-141200190D01*
X122420095Y-140676380D02*
X122896285Y-140676380D01*
X122943904Y-141152571D01*
X122896285Y-141104952D01*
X122801047Y-141057333D01*
X122562952Y-141057333D01*
X122467714Y-141104952D01*
X122420095Y-141152571D01*
X122372476Y-141247809D01*
X122372476Y-141485904D01*
X122420095Y-141581142D01*
X122467714Y-141628761D01*
X122562952Y-141676380D01*
X122801047Y-141676380D01*
X122896285Y-141628761D01*
X122943904Y-141581142D01*
X121515333Y-141009714D02*
X121515333Y-141676380D01*
X121753428Y-140628761D02*
X121991523Y-141343047D01*
X121372476Y-141343047D01*
X123324857Y-132024380D02*
X123658190Y-131548190D01*
X123896285Y-132024380D02*
X123896285Y-131024380D01*
X123515333Y-131024380D01*
X123420095Y-131072000D01*
X123372476Y-131119619D01*
X123324857Y-131214857D01*
X123324857Y-131357714D01*
X123372476Y-131452952D01*
X123420095Y-131500571D01*
X123515333Y-131548190D01*
X123896285Y-131548190D01*
X122467714Y-131357714D02*
X122467714Y-132024380D01*
X122705809Y-130976761D02*
X122943904Y-131691047D01*
X122324857Y-131691047D01*
X122039142Y-131024380D02*
X121372476Y-131024380D01*
X121801047Y-132024380D01*
X167520857Y-109013880D02*
X167854190Y-108537690D01*
X168092285Y-109013880D02*
X168092285Y-108013880D01*
X167711333Y-108013880D01*
X167616095Y-108061500D01*
X167568476Y-108109119D01*
X167520857Y-108204357D01*
X167520857Y-108347214D01*
X167568476Y-108442452D01*
X167616095Y-108490071D01*
X167711333Y-108537690D01*
X168092285Y-108537690D01*
X166663714Y-108013880D02*
X166854190Y-108013880D01*
X166949428Y-108061500D01*
X166997047Y-108109119D01*
X167092285Y-108251976D01*
X167139904Y-108442452D01*
X167139904Y-108823404D01*
X167092285Y-108918642D01*
X167044666Y-108966261D01*
X166949428Y-109013880D01*
X166758952Y-109013880D01*
X166663714Y-108966261D01*
X166616095Y-108918642D01*
X166568476Y-108823404D01*
X166568476Y-108585309D01*
X166616095Y-108490071D01*
X166663714Y-108442452D01*
X166758952Y-108394833D01*
X166949428Y-108394833D01*
X167044666Y-108442452D01*
X167092285Y-108490071D01*
X167139904Y-108585309D01*
X165711333Y-108347214D02*
X165711333Y-109013880D01*
X165949428Y-107966261D02*
X166187523Y-108680547D01*
X165568476Y-108680547D01*
X164282285Y-105608380D02*
X164282285Y-104608380D01*
X164044190Y-104608380D01*
X163901333Y-104656000D01*
X163806095Y-104751238D01*
X163758476Y-104846476D01*
X163710857Y-105036952D01*
X163710857Y-105179809D01*
X163758476Y-105370285D01*
X163806095Y-105465523D01*
X163901333Y-105560761D01*
X164044190Y-105608380D01*
X164282285Y-105608380D01*
X162758476Y-105608380D02*
X163329904Y-105608380D01*
X163044190Y-105608380D02*
X163044190Y-104608380D01*
X163139428Y-104751238D01*
X163234666Y-104846476D01*
X163329904Y-104894095D01*
X162425142Y-104608380D02*
X161758476Y-104608380D01*
X162187047Y-105608380D01*
X165488857Y-93924380D02*
X165822190Y-93448190D01*
X166060285Y-93924380D02*
X166060285Y-92924380D01*
X165679333Y-92924380D01*
X165584095Y-92972000D01*
X165536476Y-93019619D01*
X165488857Y-93114857D01*
X165488857Y-93257714D01*
X165536476Y-93352952D01*
X165584095Y-93400571D01*
X165679333Y-93448190D01*
X166060285Y-93448190D01*
X165155523Y-92924380D02*
X164488857Y-92924380D01*
X164917428Y-93924380D01*
X164155523Y-93019619D02*
X164107904Y-92972000D01*
X164012666Y-92924380D01*
X163774571Y-92924380D01*
X163679333Y-92972000D01*
X163631714Y-93019619D01*
X163584095Y-93114857D01*
X163584095Y-93210095D01*
X163631714Y-93352952D01*
X164203142Y-93924380D01*
X163584095Y-93924380D01*
X164282285Y-135326380D02*
X164282285Y-134326380D01*
X164044190Y-134326380D01*
X163901333Y-134374000D01*
X163806095Y-134469238D01*
X163758476Y-134564476D01*
X163710857Y-134754952D01*
X163710857Y-134897809D01*
X163758476Y-135088285D01*
X163806095Y-135183523D01*
X163901333Y-135278761D01*
X164044190Y-135326380D01*
X164282285Y-135326380D01*
X162758476Y-135326380D02*
X163329904Y-135326380D01*
X163044190Y-135326380D02*
X163044190Y-134326380D01*
X163139428Y-134469238D01*
X163234666Y-134564476D01*
X163329904Y-134612095D01*
X161806095Y-135326380D02*
X162377523Y-135326380D01*
X162091809Y-135326380D02*
X162091809Y-134326380D01*
X162187047Y-134469238D01*
X162282285Y-134564476D01*
X162377523Y-134612095D01*
X163234666Y-137771142D02*
X163282285Y-137818761D01*
X163425142Y-137866380D01*
X163520380Y-137866380D01*
X163663238Y-137818761D01*
X163758476Y-137723523D01*
X163806095Y-137628285D01*
X163853714Y-137437809D01*
X163853714Y-137294952D01*
X163806095Y-137104476D01*
X163758476Y-137009238D01*
X163663238Y-136914000D01*
X163520380Y-136866380D01*
X163425142Y-136866380D01*
X163282285Y-136914000D01*
X163234666Y-136961619D01*
X162377523Y-136866380D02*
X162568000Y-136866380D01*
X162663238Y-136914000D01*
X162710857Y-136961619D01*
X162806095Y-137104476D01*
X162853714Y-137294952D01*
X162853714Y-137675904D01*
X162806095Y-137771142D01*
X162758476Y-137818761D01*
X162663238Y-137866380D01*
X162472761Y-137866380D01*
X162377523Y-137818761D01*
X162329904Y-137771142D01*
X162282285Y-137675904D01*
X162282285Y-137437809D01*
X162329904Y-137342571D01*
X162377523Y-137294952D01*
X162472761Y-137247333D01*
X162663238Y-137247333D01*
X162758476Y-137294952D01*
X162806095Y-137342571D01*
X162853714Y-137437809D01*
X167520857Y-79399380D02*
X167854190Y-78923190D01*
X168092285Y-79399380D02*
X168092285Y-78399380D01*
X167711333Y-78399380D01*
X167616095Y-78447000D01*
X167568476Y-78494619D01*
X167520857Y-78589857D01*
X167520857Y-78732714D01*
X167568476Y-78827952D01*
X167616095Y-78875571D01*
X167711333Y-78923190D01*
X168092285Y-78923190D01*
X167139904Y-78494619D02*
X167092285Y-78447000D01*
X166997047Y-78399380D01*
X166758952Y-78399380D01*
X166663714Y-78447000D01*
X166616095Y-78494619D01*
X166568476Y-78589857D01*
X166568476Y-78685095D01*
X166616095Y-78827952D01*
X167187523Y-79399380D01*
X166568476Y-79399380D01*
X166187523Y-78494619D02*
X166139904Y-78447000D01*
X166044666Y-78399380D01*
X165806571Y-78399380D01*
X165711333Y-78447000D01*
X165663714Y-78494619D01*
X165616095Y-78589857D01*
X165616095Y-78685095D01*
X165663714Y-78827952D01*
X166235142Y-79399380D01*
X165616095Y-79399380D01*
X123324857Y-112720380D02*
X123658190Y-112244190D01*
X123896285Y-112720380D02*
X123896285Y-111720380D01*
X123515333Y-111720380D01*
X123420095Y-111768000D01*
X123372476Y-111815619D01*
X123324857Y-111910857D01*
X123324857Y-112053714D01*
X123372476Y-112148952D01*
X123420095Y-112196571D01*
X123515333Y-112244190D01*
X123896285Y-112244190D01*
X122991523Y-111720380D02*
X122372476Y-111720380D01*
X122705809Y-112101333D01*
X122562952Y-112101333D01*
X122467714Y-112148952D01*
X122420095Y-112196571D01*
X122372476Y-112291809D01*
X122372476Y-112529904D01*
X122420095Y-112625142D01*
X122467714Y-112672761D01*
X122562952Y-112720380D01*
X122848666Y-112720380D01*
X122943904Y-112672761D01*
X122991523Y-112625142D01*
X122039142Y-111720380D02*
X121420095Y-111720380D01*
X121753428Y-112101333D01*
X121610571Y-112101333D01*
X121515333Y-112148952D01*
X121467714Y-112196571D01*
X121420095Y-112291809D01*
X121420095Y-112529904D01*
X121467714Y-112625142D01*
X121515333Y-112672761D01*
X121610571Y-112720380D01*
X121896285Y-112720380D01*
X121991523Y-112672761D01*
X122039142Y-112625142D01*
D11*
X157100000Y-110463500D02*
X157100000Y-115863500D01*
X157100000Y-110463500D02*
X160400000Y-110463500D01*
X160400000Y-110463500D02*
X160400000Y-115863500D01*
X163857000Y-71146936D02*
X163857000Y-71601064D01*
X165327000Y-71146936D02*
X165327000Y-71601064D01*
X165847500Y-136127258D02*
X165847500Y-135652742D01*
X166892500Y-136127258D02*
X166892500Y-135652742D01*
X119546064Y-74395000D02*
X119091936Y-74395000D01*
X119546064Y-72925000D02*
X119091936Y-72925000D01*
X160667500Y-56626000D02*
X160667500Y-54626000D01*
X160667500Y-56626000D02*
X164567500Y-56626000D01*
X160667500Y-54626000D02*
X164567500Y-54626000D01*
X160818000Y-74541500D02*
X164718000Y-74541500D01*
X160818000Y-76541500D02*
X164718000Y-76541500D01*
X160818000Y-76541500D02*
X160818000Y-74541500D01*
X119152936Y-106961000D02*
X119607064Y-106961000D01*
X119152936Y-108431000D02*
X119607064Y-108431000D01*
X163857000Y-130479436D02*
X163857000Y-130933564D01*
X165327000Y-130479436D02*
X165327000Y-130933564D01*
X165327000Y-110770936D02*
X165327000Y-111225064D01*
X163857000Y-110770936D02*
X163857000Y-111225064D01*
X161571000Y-121131064D02*
X161571000Y-120676936D01*
X163041000Y-121131064D02*
X163041000Y-120676936D01*
X119607064Y-122655000D02*
X119152936Y-122655000D01*
X119607064Y-121185000D02*
X119152936Y-121185000D01*
X162356748Y-98700000D02*
X163779252Y-98700000D01*
X162356748Y-96880000D02*
X163779252Y-96880000D01*
X119091936Y-68353000D02*
X119546064Y-68353000D01*
X119091936Y-69823000D02*
X119546064Y-69823000D01*
X160818000Y-84447500D02*
X164718000Y-84447500D01*
X160818000Y-86447500D02*
X160818000Y-84447500D01*
X160818000Y-86447500D02*
X164718000Y-86447500D01*
X118994436Y-58542500D02*
X119448564Y-58542500D01*
X118994436Y-60012500D02*
X119448564Y-60012500D01*
X119546064Y-64743000D02*
X119091936Y-64743000D01*
X119546064Y-63273000D02*
X119091936Y-63273000D01*
X157100000Y-70839500D02*
X160400000Y-70839500D01*
X157100000Y-70839500D02*
X157100000Y-76239500D01*
X160400000Y-70839500D02*
X160400000Y-76239500D01*
X160818000Y-116165500D02*
X160818000Y-114165500D01*
X160818000Y-116165500D02*
X164718000Y-116165500D01*
X160818000Y-114165500D02*
X164718000Y-114165500D01*
X161420500Y-51685564D02*
X161420500Y-51231436D01*
X162890500Y-51685564D02*
X162890500Y-51231436D01*
X119091936Y-78005000D02*
X119546064Y-78005000D01*
X119091936Y-79475000D02*
X119546064Y-79475000D01*
X119546064Y-84047000D02*
X119091936Y-84047000D01*
X119546064Y-82577000D02*
X119091936Y-82577000D01*
X157100000Y-140078000D02*
X157100000Y-145478000D01*
X157100000Y-140078000D02*
X160400000Y-140078000D01*
X160400000Y-140078000D02*
X160400000Y-145478000D01*
X165847500Y-96503258D02*
X165847500Y-96028742D01*
X166892500Y-96503258D02*
X166892500Y-96028742D01*
X165847500Y-86700758D02*
X165847500Y-86226242D01*
X166892500Y-86700758D02*
X166892500Y-86226242D01*
X119152936Y-116613000D02*
X119607064Y-116613000D01*
X119152936Y-118083000D02*
X119607064Y-118083000D01*
X160667500Y-66532000D02*
X164567500Y-66532000D01*
X160667500Y-66532000D02*
X160667500Y-64532000D01*
X160667500Y-64532000D02*
X164567500Y-64532000D01*
X161571000Y-130933564D02*
X161571000Y-130479436D01*
X163041000Y-130933564D02*
X163041000Y-130479436D01*
X157100000Y-120369500D02*
X157100000Y-125769500D01*
X160400000Y-120369500D02*
X160400000Y-125769500D01*
X157100000Y-120369500D02*
X160400000Y-120369500D01*
X162356748Y-108606000D02*
X163779252Y-108606000D01*
X162356748Y-106786000D02*
X163779252Y-106786000D01*
X165697000Y-56879258D02*
X165697000Y-56404742D01*
X166742000Y-56879258D02*
X166742000Y-56404742D01*
X162356748Y-77171500D02*
X163779252Y-77171500D01*
X162356748Y-78991500D02*
X163779252Y-78991500D01*
X119152936Y-97309000D02*
X119607064Y-97309000D01*
X119152936Y-98779000D02*
X119607064Y-98779000D01*
X165847500Y-146033258D02*
X165847500Y-145558742D01*
X166892500Y-146033258D02*
X166892500Y-145558742D01*
X161571000Y-101215564D02*
X161571000Y-100761436D01*
X163041000Y-101215564D02*
X163041000Y-100761436D01*
X162206248Y-67162000D02*
X163628752Y-67162000D01*
X162206248Y-68982000D02*
X163628752Y-68982000D01*
X119448564Y-54932500D02*
X118994436Y-54932500D01*
X119448564Y-53462500D02*
X118994436Y-53462500D01*
X157100000Y-90548000D02*
X160400000Y-90548000D01*
X160400000Y-90548000D02*
X160400000Y-95948000D01*
X157100000Y-90548000D02*
X157100000Y-95948000D01*
X165327000Y-140385436D02*
X165327000Y-140839564D01*
X163857000Y-140385436D02*
X163857000Y-140839564D01*
X156949500Y-60830000D02*
X156949500Y-66230000D01*
X160249500Y-60830000D02*
X160249500Y-66230000D01*
X156949500Y-60830000D02*
X160249500Y-60830000D01*
X162356748Y-87077500D02*
X163779252Y-87077500D01*
X162356748Y-88897500D02*
X163779252Y-88897500D01*
X163857000Y-81052936D02*
X163857000Y-81507064D01*
X165327000Y-81052936D02*
X165327000Y-81507064D01*
X160818000Y-145780000D02*
X164718000Y-145780000D01*
X160818000Y-145780000D02*
X160818000Y-143780000D01*
X160818000Y-143780000D02*
X164718000Y-143780000D01*
X163041000Y-81507064D02*
X163041000Y-81052936D01*
X161571000Y-81507064D02*
X161571000Y-81052936D01*
X157100000Y-130172000D02*
X157100000Y-135572000D01*
X160400000Y-130172000D02*
X160400000Y-135572000D01*
X157100000Y-130172000D02*
X160400000Y-130172000D01*
X119152936Y-145569000D02*
X119607064Y-145569000D01*
X119152936Y-147039000D02*
X119607064Y-147039000D01*
X161571000Y-111225064D02*
X161571000Y-110770936D01*
X163041000Y-111225064D02*
X163041000Y-110770936D01*
X160818000Y-96250000D02*
X164718000Y-96250000D01*
X160818000Y-96250000D02*
X160818000Y-94250000D01*
X160818000Y-94250000D02*
X164718000Y-94250000D01*
X165847500Y-116418758D02*
X165847500Y-115944242D01*
X166892500Y-116418758D02*
X166892500Y-115944242D01*
X163706500Y-61137436D02*
X163706500Y-61591564D01*
X165176500Y-61137436D02*
X165176500Y-61591564D01*
X166892500Y-126324758D02*
X166892500Y-125850242D01*
X165847500Y-126324758D02*
X165847500Y-125850242D01*
X119607064Y-103351000D02*
X119152936Y-103351000D01*
X119607064Y-101881000D02*
X119152936Y-101881000D01*
X163041000Y-140839564D02*
X163041000Y-140385436D01*
X161571000Y-140839564D02*
X161571000Y-140385436D01*
X165327000Y-100761436D02*
X165327000Y-101215564D01*
X163857000Y-100761436D02*
X163857000Y-101215564D01*
X162356748Y-146410000D02*
X163779252Y-146410000D01*
X162356748Y-148230000D02*
X163779252Y-148230000D01*
X119152936Y-126265000D02*
X119607064Y-126265000D01*
X119152936Y-127735000D02*
X119607064Y-127735000D01*
X165176500Y-51231436D02*
X165176500Y-51685564D01*
X163706500Y-51231436D02*
X163706500Y-51685564D01*
X119152936Y-135917000D02*
X119607064Y-135917000D01*
X119152936Y-137387000D02*
X119607064Y-137387000D01*
X162206248Y-59076000D02*
X163628752Y-59076000D01*
X162206248Y-57256000D02*
X163628752Y-57256000D01*
X162356748Y-126701500D02*
X163779252Y-126701500D01*
X162356748Y-128521500D02*
X163779252Y-128521500D01*
X163041000Y-91309564D02*
X163041000Y-90855436D01*
X161571000Y-91309564D02*
X161571000Y-90855436D01*
X163041000Y-71601064D02*
X163041000Y-71146936D01*
X161571000Y-71601064D02*
X161571000Y-71146936D01*
X165327000Y-120676936D02*
X165327000Y-121131064D01*
X163857000Y-120676936D02*
X163857000Y-121131064D01*
X156949500Y-50924000D02*
X160249500Y-50924000D01*
X160249500Y-50924000D02*
X160249500Y-56324000D01*
X156949500Y-50924000D02*
X156949500Y-56324000D01*
X157100000Y-100454000D02*
X157100000Y-105854000D01*
X157100000Y-100454000D02*
X160400000Y-100454000D01*
X160400000Y-100454000D02*
X160400000Y-105854000D01*
X160818000Y-124071500D02*
X164718000Y-124071500D01*
X160818000Y-126071500D02*
X160818000Y-124071500D01*
X160818000Y-126071500D02*
X164718000Y-126071500D01*
X166742000Y-66785258D02*
X166742000Y-66310742D01*
X165697000Y-66785258D02*
X165697000Y-66310742D01*
X161420500Y-61591564D02*
X161420500Y-61137436D01*
X162890500Y-61591564D02*
X162890500Y-61137436D01*
X162356748Y-116795500D02*
X163779252Y-116795500D01*
X162356748Y-118615500D02*
X163779252Y-118615500D01*
X119607064Y-93699000D02*
X119152936Y-93699000D01*
X119607064Y-92229000D02*
X119152936Y-92229000D01*
X160400000Y-80745500D02*
X160400000Y-86145500D01*
X157100000Y-80745500D02*
X160400000Y-80745500D01*
X157100000Y-80745500D02*
X157100000Y-86145500D01*
X119091936Y-87657000D02*
X119546064Y-87657000D01*
X119091936Y-89127000D02*
X119546064Y-89127000D01*
X119607064Y-141959000D02*
X119152936Y-141959000D01*
X119607064Y-140489000D02*
X119152936Y-140489000D01*
X119607064Y-132307000D02*
X119152936Y-132307000D01*
X119607064Y-130837000D02*
X119152936Y-130837000D01*
X165847500Y-106409258D02*
X165847500Y-105934742D01*
X166892500Y-106409258D02*
X166892500Y-105934742D01*
X160818000Y-106156000D02*
X160818000Y-104156000D01*
X160818000Y-104156000D02*
X164718000Y-104156000D01*
X160818000Y-106156000D02*
X164718000Y-106156000D01*
X163857000Y-90855436D02*
X163857000Y-91309564D01*
X165327000Y-90855436D02*
X165327000Y-91309564D01*
X160818000Y-135874000D02*
X164718000Y-135874000D01*
X160818000Y-135874000D02*
X160818000Y-133874000D01*
X160818000Y-133874000D02*
X164718000Y-133874000D01*
X162356748Y-136504000D02*
X163779252Y-136504000D01*
X162356748Y-138324000D02*
X163779252Y-138324000D01*
X165847500Y-76794758D02*
X165847500Y-76320242D01*
X166892500Y-76794758D02*
X166892500Y-76320242D01*
X119607064Y-113003000D02*
X119152936Y-113003000D01*
X119607064Y-111533000D02*
X119152936Y-111533000D01*
%LPC*%
D12*
X111188000Y-81188000D03*
D13*
X111188000Y-83728000D03*
X111188000Y-86268000D03*
X111188000Y-88808000D03*
X133504000Y-87630000D03*
X133504000Y-90170000D03*
D12*
X133504000Y-92710000D03*
D13*
X133504000Y-95250000D03*
X133504000Y-97790000D03*
X133504000Y-100330000D03*
X133504000Y-102870000D03*
D12*
X133504000Y-105410000D03*
D13*
X133504000Y-107950000D03*
X133504000Y-110490000D03*
X133504000Y-113030000D03*
X133504000Y-115570000D03*
D12*
X133504000Y-118110000D03*
D13*
X133504000Y-120650000D03*
X133504000Y-123190000D03*
X133504000Y-125730000D03*
X133504000Y-128270000D03*
D12*
X133504000Y-130810000D03*
D13*
X133504000Y-133350000D03*
X133504000Y-135890000D03*
X151284000Y-135890000D03*
X151284000Y-133350000D03*
D12*
X151284000Y-130810000D03*
D13*
X151284000Y-128270000D03*
X151284000Y-125730000D03*
X151284000Y-123190000D03*
X151284000Y-120650000D03*
D12*
X151284000Y-118110000D03*
D13*
X151284000Y-115570000D03*
X151284000Y-113030000D03*
X151284000Y-110490000D03*
X151284000Y-107950000D03*
D12*
X151284000Y-105410000D03*
D13*
X151284000Y-102870000D03*
X151284000Y-100330000D03*
X151284000Y-97790000D03*
X151284000Y-95250000D03*
D12*
X151284000Y-92710000D03*
D13*
X151284000Y-90170000D03*
X151284000Y-87630000D03*
D12*
X111188000Y-130083000D03*
D13*
X111188000Y-132623000D03*
X111188000Y-135163000D03*
X111188000Y-137703000D03*
X111188000Y-140243000D03*
D12*
X171513000Y-69758000D03*
D13*
X171513000Y-72298000D03*
X171513000Y-74838000D03*
X171513000Y-77378000D03*
X171513000Y-79918000D03*
X171513000Y-82458000D03*
X171513000Y-84998000D03*
X171513000Y-87538000D03*
D12*
X171513000Y-131973000D03*
D13*
X171513000Y-129433000D03*
X171513000Y-126893000D03*
X171513000Y-124353000D03*
X171513000Y-121813000D03*
X171513000Y-119273000D03*
X171513000Y-116733000D03*
X171513000Y-114193000D03*
D12*
X111188000Y-57693000D03*
D13*
X111188000Y-60233000D03*
X111188000Y-62773000D03*
X111188000Y-65313000D03*
X111188000Y-67853000D03*
D12*
X111188000Y-107858000D03*
D13*
X111188000Y-110398000D03*
X111188000Y-112938000D03*
X111188000Y-115478000D03*
X111188000Y-118018000D03*
D12*
X171513000Y-105308000D03*
D13*
X171513000Y-102768000D03*
X171513000Y-100228000D03*
X171513000Y-97688000D03*
D14*
X158750000Y-111863500D03*
X158750000Y-115863500D03*
D15*
X164592000Y-70461500D03*
X164592000Y-72286500D03*
D16*
X166370000Y-136715000D03*
X166370000Y-135065000D03*
D17*
X120231500Y-73660000D03*
X118406500Y-73660000D03*
D18*
X161267500Y-55626000D03*
X164567500Y-55626000D03*
X161418000Y-75541500D03*
X164718000Y-75541500D03*
D19*
X118467500Y-107696000D03*
X120292500Y-107696000D03*
D15*
X164592000Y-129794000D03*
X164592000Y-131619000D03*
X164592000Y-110085500D03*
X164592000Y-111910500D03*
D20*
X162306000Y-121816500D03*
X162306000Y-119991500D03*
D17*
X120292500Y-121920000D03*
X118467500Y-121920000D03*
D21*
X161593000Y-97790000D03*
X164543000Y-97790000D03*
D19*
X118406500Y-69088000D03*
X120231500Y-69088000D03*
D18*
X161418000Y-85447500D03*
X164718000Y-85447500D03*
D19*
X118309000Y-59277500D03*
X120134000Y-59277500D03*
D17*
X120231500Y-64008000D03*
X118406500Y-64008000D03*
D14*
X158750000Y-72239500D03*
X158750000Y-76239500D03*
D18*
X161418000Y-115165500D03*
X164718000Y-115165500D03*
D20*
X162155500Y-52371000D03*
X162155500Y-50546000D03*
D19*
X118406500Y-78740000D03*
X120231500Y-78740000D03*
D17*
X120231500Y-83312000D03*
X118406500Y-83312000D03*
D14*
X158750000Y-141478000D03*
X158750000Y-145478000D03*
D16*
X166370000Y-97091000D03*
X166370000Y-95441000D03*
X166370000Y-87288500D03*
X166370000Y-85638500D03*
D19*
X118467500Y-117348000D03*
X120292500Y-117348000D03*
D18*
X161267500Y-65532000D03*
X164567500Y-65532000D03*
D20*
X162306000Y-131619000D03*
X162306000Y-129794000D03*
D14*
X158750000Y-121769500D03*
X158750000Y-125769500D03*
D21*
X161593000Y-107696000D03*
X164543000Y-107696000D03*
D16*
X166219500Y-57467000D03*
X166219500Y-55817000D03*
D21*
X161593000Y-78081500D03*
X164543000Y-78081500D03*
D19*
X118467500Y-98044000D03*
X120292500Y-98044000D03*
D16*
X166370000Y-146621000D03*
X166370000Y-144971000D03*
D20*
X162306000Y-101901000D03*
X162306000Y-100076000D03*
D21*
X161442500Y-68072000D03*
X164392500Y-68072000D03*
D17*
X120134000Y-54197500D03*
X118309000Y-54197500D03*
D14*
X158750000Y-91948000D03*
X158750000Y-95948000D03*
D15*
X164592000Y-139700000D03*
X164592000Y-141525000D03*
D14*
X158599500Y-62230000D03*
X158599500Y-66230000D03*
D21*
X161593000Y-87987500D03*
X164543000Y-87987500D03*
D15*
X164592000Y-80367500D03*
X164592000Y-82192500D03*
D18*
X161418000Y-144780000D03*
X164718000Y-144780000D03*
D20*
X162306000Y-82192500D03*
X162306000Y-80367500D03*
D14*
X158750000Y-131572000D03*
X158750000Y-135572000D03*
D19*
X118467500Y-146304000D03*
X120292500Y-146304000D03*
D20*
X162306000Y-111910500D03*
X162306000Y-110085500D03*
D18*
X161418000Y-95250000D03*
X164718000Y-95250000D03*
D16*
X166370000Y-117006500D03*
X166370000Y-115356500D03*
D15*
X164441500Y-60452000D03*
X164441500Y-62277000D03*
D16*
X166370000Y-126912500D03*
X166370000Y-125262500D03*
D17*
X120292500Y-102616000D03*
X118467500Y-102616000D03*
D20*
X162306000Y-141525000D03*
X162306000Y-139700000D03*
D15*
X164592000Y-100076000D03*
X164592000Y-101901000D03*
D21*
X161593000Y-147320000D03*
X164543000Y-147320000D03*
D19*
X118467500Y-127000000D03*
X120292500Y-127000000D03*
D15*
X164441500Y-50546000D03*
X164441500Y-52371000D03*
D19*
X118467500Y-136652000D03*
X120292500Y-136652000D03*
D21*
X161442500Y-58166000D03*
X164392500Y-58166000D03*
X161593000Y-127611500D03*
X164543000Y-127611500D03*
D20*
X162306000Y-91995000D03*
X162306000Y-90170000D03*
X162306000Y-72286500D03*
X162306000Y-70461500D03*
D15*
X164592000Y-119991500D03*
X164592000Y-121816500D03*
D14*
X158599500Y-52324000D03*
X158599500Y-56324000D03*
X158750000Y-101854000D03*
X158750000Y-105854000D03*
D18*
X161418000Y-125071500D03*
X164718000Y-125071500D03*
D16*
X166219500Y-67373000D03*
X166219500Y-65723000D03*
D20*
X162155500Y-62277000D03*
X162155500Y-60452000D03*
D21*
X161593000Y-117705500D03*
X164543000Y-117705500D03*
D17*
X120292500Y-92964000D03*
X118467500Y-92964000D03*
D14*
X158750000Y-82145500D03*
X158750000Y-86145500D03*
D19*
X118406500Y-88392000D03*
X120231500Y-88392000D03*
D17*
X120292500Y-141224000D03*
X118467500Y-141224000D03*
X120292500Y-131572000D03*
X118467500Y-131572000D03*
D16*
X166370000Y-106997000D03*
X166370000Y-105347000D03*
D18*
X161418000Y-105156000D03*
X164718000Y-105156000D03*
D15*
X164592000Y-90170000D03*
X164592000Y-91995000D03*
D18*
X161418000Y-134874000D03*
X164718000Y-134874000D03*
D21*
X161593000Y-137414000D03*
X164543000Y-137414000D03*
D16*
X166370000Y-77382500D03*
X166370000Y-75732500D03*
D17*
X120292500Y-112268000D03*
X118467500Y-112268000D03*
M02*
