G04 #@! TF.GenerationSoftware,KiCad,Pcbnew,(6.0.0)*
G04 #@! TF.CreationDate,2022-08-19T14:16:46+02:00*
G04 #@! TF.ProjectId,top,746f702e-6b69-4636-9164-5f7063625858,rev?*
G04 #@! TF.SameCoordinates,Original*
G04 #@! TF.FileFunction,Copper,L2,Bot*
G04 #@! TF.FilePolarity,Positive*
%FSLAX46Y46*%
G04 Gerber Fmt 4.6, Leading zero omitted, Abs format (unit mm)*
G04 Created by KiCad (PCBNEW (6.0.0)) date 2022-08-19 14:16:46*
%MOMM*%
%LPD*%
G01*
G04 APERTURE LIST*
G04 Aperture macros list*
%AMRoundRect*
0 Rectangle with rounded corners*
0 $1 Rounding radius*
0 $2 $3 $4 $5 $6 $7 $8 $9 X,Y pos of 4 corners*
0 Add a 4 corners polygon primitive as box body*
4,1,4,$2,$3,$4,$5,$6,$7,$8,$9,$2,$3,0*
0 Add four circle primitives for the rounded corners*
1,1,$1+$1,$2,$3*
1,1,$1+$1,$4,$5*
1,1,$1+$1,$6,$7*
1,1,$1+$1,$8,$9*
0 Add four rect primitives between the rounded corners*
20,1,$1+$1,$2,$3,$4,$5,0*
20,1,$1+$1,$4,$5,$6,$7,0*
20,1,$1+$1,$6,$7,$8,$9,0*
20,1,$1+$1,$8,$9,$2,$3,0*%
G04 Aperture macros list end*
G04 #@! TA.AperFunction,ComponentPad*
%ADD10R,1.700000X1.700000*%
G04 #@! TD*
G04 #@! TA.AperFunction,ComponentPad*
%ADD11O,1.700000X1.700000*%
G04 #@! TD*
G04 #@! TA.AperFunction,SMDPad,CuDef*
%ADD12R,1.800000X2.500000*%
G04 #@! TD*
G04 #@! TA.AperFunction,SMDPad,CuDef*
%ADD13RoundRect,0.250000X-0.450000X0.262500X-0.450000X-0.262500X0.450000X-0.262500X0.450000X0.262500X0*%
G04 #@! TD*
G04 #@! TA.AperFunction,SMDPad,CuDef*
%ADD14RoundRect,0.200000X0.275000X-0.200000X0.275000X0.200000X-0.275000X0.200000X-0.275000X-0.200000X0*%
G04 #@! TD*
G04 #@! TA.AperFunction,SMDPad,CuDef*
%ADD15RoundRect,0.250000X0.262500X0.450000X-0.262500X0.450000X-0.262500X-0.450000X0.262500X-0.450000X0*%
G04 #@! TD*
G04 #@! TA.AperFunction,SMDPad,CuDef*
%ADD16R,0.900000X1.200000*%
G04 #@! TD*
G04 #@! TA.AperFunction,SMDPad,CuDef*
%ADD17RoundRect,0.250000X-0.262500X-0.450000X0.262500X-0.450000X0.262500X0.450000X-0.262500X0.450000X0*%
G04 #@! TD*
G04 #@! TA.AperFunction,SMDPad,CuDef*
%ADD18RoundRect,0.250000X0.450000X-0.262500X0.450000X0.262500X-0.450000X0.262500X-0.450000X-0.262500X0*%
G04 #@! TD*
G04 #@! TA.AperFunction,SMDPad,CuDef*
%ADD19RoundRect,0.250000X-0.325000X-0.650000X0.325000X-0.650000X0.325000X0.650000X-0.325000X0.650000X0*%
G04 #@! TD*
G04 #@! TA.AperFunction,ViaPad*
%ADD20C,0.800000*%
G04 #@! TD*
G04 #@! TA.AperFunction,Conductor*
%ADD21C,0.250000*%
G04 #@! TD*
G04 APERTURE END LIST*
D10*
X111188000Y-81188000D03*
D11*
X111188000Y-83728000D03*
X111188000Y-86268000D03*
X111188000Y-88808000D03*
X133504000Y-87630000D03*
X133504000Y-90170000D03*
D10*
X133504000Y-92710000D03*
D11*
X133504000Y-95250000D03*
X133504000Y-97790000D03*
X133504000Y-100330000D03*
X133504000Y-102870000D03*
D10*
X133504000Y-105410000D03*
D11*
X133504000Y-107950000D03*
X133504000Y-110490000D03*
X133504000Y-113030000D03*
X133504000Y-115570000D03*
D10*
X133504000Y-118110000D03*
D11*
X133504000Y-120650000D03*
X133504000Y-123190000D03*
X133504000Y-125730000D03*
X133504000Y-128270000D03*
D10*
X133504000Y-130810000D03*
D11*
X133504000Y-133350000D03*
X133504000Y-135890000D03*
X151284000Y-135890000D03*
X151284000Y-133350000D03*
D10*
X151284000Y-130810000D03*
D11*
X151284000Y-128270000D03*
X151284000Y-125730000D03*
X151284000Y-123190000D03*
X151284000Y-120650000D03*
D10*
X151284000Y-118110000D03*
D11*
X151284000Y-115570000D03*
X151284000Y-113030000D03*
X151284000Y-110490000D03*
X151284000Y-107950000D03*
D10*
X151284000Y-105410000D03*
D11*
X151284000Y-102870000D03*
X151284000Y-100330000D03*
X151284000Y-97790000D03*
X151284000Y-95250000D03*
D10*
X151284000Y-92710000D03*
D11*
X151284000Y-90170000D03*
X151284000Y-87630000D03*
D10*
X111188000Y-130083000D03*
D11*
X111188000Y-132623000D03*
X111188000Y-135163000D03*
X111188000Y-137703000D03*
X111188000Y-140243000D03*
D10*
X171513000Y-69758000D03*
D11*
X171513000Y-72298000D03*
X171513000Y-74838000D03*
X171513000Y-77378000D03*
X171513000Y-79918000D03*
X171513000Y-82458000D03*
X171513000Y-84998000D03*
X171513000Y-87538000D03*
D10*
X171513000Y-131973000D03*
D11*
X171513000Y-129433000D03*
X171513000Y-126893000D03*
X171513000Y-124353000D03*
X171513000Y-121813000D03*
X171513000Y-119273000D03*
X171513000Y-116733000D03*
X171513000Y-114193000D03*
D10*
X111188000Y-57693000D03*
D11*
X111188000Y-60233000D03*
X111188000Y-62773000D03*
X111188000Y-65313000D03*
X111188000Y-67853000D03*
D10*
X111188000Y-107858000D03*
D11*
X111188000Y-110398000D03*
X111188000Y-112938000D03*
X111188000Y-115478000D03*
X111188000Y-118018000D03*
D10*
X171513000Y-105308000D03*
D11*
X171513000Y-102768000D03*
X171513000Y-100228000D03*
X171513000Y-97688000D03*
D12*
X158750000Y-111863500D03*
X158750000Y-115863500D03*
D13*
X164592000Y-70461500D03*
X164592000Y-72286500D03*
D14*
X166370000Y-136715000D03*
X166370000Y-135065000D03*
D15*
X120231500Y-73660000D03*
X118406500Y-73660000D03*
D16*
X161267500Y-55626000D03*
X164567500Y-55626000D03*
X161418000Y-75541500D03*
X164718000Y-75541500D03*
D17*
X118467500Y-107696000D03*
X120292500Y-107696000D03*
D13*
X164592000Y-129794000D03*
X164592000Y-131619000D03*
X164592000Y-110085500D03*
X164592000Y-111910500D03*
D18*
X162306000Y-121816500D03*
X162306000Y-119991500D03*
D15*
X120292500Y-121920000D03*
X118467500Y-121920000D03*
D19*
X161593000Y-97790000D03*
X164543000Y-97790000D03*
D17*
X118406500Y-69088000D03*
X120231500Y-69088000D03*
D16*
X161418000Y-85447500D03*
X164718000Y-85447500D03*
D17*
X118309000Y-59277500D03*
X120134000Y-59277500D03*
D15*
X120231500Y-64008000D03*
X118406500Y-64008000D03*
D12*
X158750000Y-72239500D03*
X158750000Y-76239500D03*
D16*
X161418000Y-115165500D03*
X164718000Y-115165500D03*
D18*
X162155500Y-52371000D03*
X162155500Y-50546000D03*
D17*
X118406500Y-78740000D03*
X120231500Y-78740000D03*
D15*
X120231500Y-83312000D03*
X118406500Y-83312000D03*
D12*
X158750000Y-141478000D03*
X158750000Y-145478000D03*
D14*
X166370000Y-97091000D03*
X166370000Y-95441000D03*
X166370000Y-87288500D03*
X166370000Y-85638500D03*
D17*
X118467500Y-117348000D03*
X120292500Y-117348000D03*
D16*
X161267500Y-65532000D03*
X164567500Y-65532000D03*
D18*
X162306000Y-131619000D03*
X162306000Y-129794000D03*
D12*
X158750000Y-121769500D03*
X158750000Y-125769500D03*
D19*
X161593000Y-107696000D03*
X164543000Y-107696000D03*
D14*
X166219500Y-57467000D03*
X166219500Y-55817000D03*
D19*
X161593000Y-78081500D03*
X164543000Y-78081500D03*
D17*
X118467500Y-98044000D03*
X120292500Y-98044000D03*
D14*
X166370000Y-146621000D03*
X166370000Y-144971000D03*
D18*
X162306000Y-101901000D03*
X162306000Y-100076000D03*
D19*
X161442500Y-68072000D03*
X164392500Y-68072000D03*
D15*
X120134000Y-54197500D03*
X118309000Y-54197500D03*
D12*
X158750000Y-91948000D03*
X158750000Y-95948000D03*
D13*
X164592000Y-139700000D03*
X164592000Y-141525000D03*
D12*
X158599500Y-62230000D03*
X158599500Y-66230000D03*
D19*
X161593000Y-87987500D03*
X164543000Y-87987500D03*
D13*
X164592000Y-80367500D03*
X164592000Y-82192500D03*
D16*
X161418000Y-144780000D03*
X164718000Y-144780000D03*
D18*
X162306000Y-82192500D03*
X162306000Y-80367500D03*
D12*
X158750000Y-131572000D03*
X158750000Y-135572000D03*
D17*
X118467500Y-146304000D03*
X120292500Y-146304000D03*
D18*
X162306000Y-111910500D03*
X162306000Y-110085500D03*
D16*
X161418000Y-95250000D03*
X164718000Y-95250000D03*
D14*
X166370000Y-117006500D03*
X166370000Y-115356500D03*
D13*
X164441500Y-60452000D03*
X164441500Y-62277000D03*
D14*
X166370000Y-126912500D03*
X166370000Y-125262500D03*
D15*
X120292500Y-102616000D03*
X118467500Y-102616000D03*
D18*
X162306000Y-141525000D03*
X162306000Y-139700000D03*
D13*
X164592000Y-100076000D03*
X164592000Y-101901000D03*
D19*
X161593000Y-147320000D03*
X164543000Y-147320000D03*
D17*
X118467500Y-127000000D03*
X120292500Y-127000000D03*
D13*
X164441500Y-50546000D03*
X164441500Y-52371000D03*
D17*
X118467500Y-136652000D03*
X120292500Y-136652000D03*
D19*
X161442500Y-58166000D03*
X164392500Y-58166000D03*
X161593000Y-127611500D03*
X164543000Y-127611500D03*
D18*
X162306000Y-91995000D03*
X162306000Y-90170000D03*
X162306000Y-72286500D03*
X162306000Y-70461500D03*
D13*
X164592000Y-119991500D03*
X164592000Y-121816500D03*
D12*
X158599500Y-52324000D03*
X158599500Y-56324000D03*
X158750000Y-101854000D03*
X158750000Y-105854000D03*
D16*
X161418000Y-125071500D03*
X164718000Y-125071500D03*
D14*
X166219500Y-67373000D03*
X166219500Y-65723000D03*
D18*
X162155500Y-62277000D03*
X162155500Y-60452000D03*
D19*
X161593000Y-117705500D03*
X164543000Y-117705500D03*
D15*
X120292500Y-92964000D03*
X118467500Y-92964000D03*
D12*
X158750000Y-82145500D03*
X158750000Y-86145500D03*
D17*
X118406500Y-88392000D03*
X120231500Y-88392000D03*
D15*
X120292500Y-141224000D03*
X118467500Y-141224000D03*
X120292500Y-131572000D03*
X118467500Y-131572000D03*
D14*
X166370000Y-106997000D03*
X166370000Y-105347000D03*
D16*
X161418000Y-105156000D03*
X164718000Y-105156000D03*
D13*
X164592000Y-90170000D03*
X164592000Y-91995000D03*
D16*
X161418000Y-134874000D03*
X164718000Y-134874000D03*
D19*
X161593000Y-137414000D03*
X164543000Y-137414000D03*
D14*
X166370000Y-77382500D03*
X166370000Y-75732500D03*
D15*
X120292500Y-112268000D03*
X118467500Y-112268000D03*
D20*
X164441500Y-63500000D03*
X122682000Y-98044000D03*
X122682000Y-102616000D03*
X122682000Y-83312000D03*
X122682000Y-78740000D03*
X128270000Y-98298000D03*
X130048000Y-85090000D03*
X164592000Y-73509500D03*
X136652000Y-83566000D03*
X164441500Y-53594000D03*
X164592000Y-83415500D03*
X127508000Y-120650000D03*
X127508000Y-101346000D03*
X127508000Y-110998000D03*
X127508000Y-91694000D03*
X127508000Y-139954000D03*
X127508000Y-62738000D03*
X127508000Y-52832000D03*
X127508000Y-72390000D03*
X127508000Y-82042000D03*
X127508000Y-77216000D03*
X127508000Y-106426000D03*
X127508000Y-130302000D03*
X127508000Y-79502000D03*
X164592000Y-142748000D03*
X164592000Y-132842000D03*
X118303000Y-66548000D03*
X164592000Y-123039500D03*
X164592000Y-113133500D03*
X164592000Y-103124000D03*
X164592000Y-93218000D03*
X120589000Y-66548000D03*
X118110000Y-129286000D03*
X130810000Y-76200000D03*
X155448000Y-71628000D03*
X117856000Y-90678000D03*
X130810000Y-71628000D03*
X139700000Y-67564000D03*
X120491500Y-56737500D03*
X118205500Y-56737500D03*
X146050000Y-69850000D03*
X139700000Y-68834000D03*
X147320000Y-69850000D03*
X139700000Y-70104000D03*
X129286000Y-74930000D03*
X129286000Y-73152000D03*
X120589000Y-76200000D03*
X118303000Y-76200000D03*
X148590000Y-69850000D03*
X140716000Y-84074000D03*
X120589000Y-85852000D03*
X118303000Y-85852000D03*
X149606000Y-82550000D03*
X120650000Y-114808000D03*
X118364000Y-114808000D03*
X120650000Y-124460000D03*
X118364000Y-124460000D03*
X120650000Y-134112000D03*
X118364000Y-134112000D03*
X120650000Y-143764000D03*
X118364000Y-143764000D03*
X146050000Y-139192000D03*
X130556000Y-109474000D03*
X120650000Y-95504000D03*
X118364000Y-95504000D03*
X129540000Y-108712000D03*
X145034000Y-140462000D03*
X120650000Y-105156000D03*
X118364000Y-105156000D03*
X166981500Y-59332500D03*
X166981500Y-69238500D03*
X167132000Y-79248000D03*
X167132000Y-89154000D03*
X167132000Y-148486500D03*
X167132000Y-138580500D03*
X167132000Y-128778000D03*
X167132000Y-118872000D03*
X167132000Y-108862500D03*
X167132000Y-98956500D03*
D21*
X161267500Y-67897000D02*
X161442500Y-68072000D01*
X164441500Y-62277000D02*
X164441500Y-63500000D01*
X161267500Y-65532000D02*
X161267500Y-67897000D01*
X163171500Y-63500000D02*
X164441500Y-63500000D01*
X161267500Y-65532000D02*
X161267500Y-65404000D01*
X161267500Y-65404000D02*
X163171500Y-63500000D01*
X162108500Y-62230000D02*
X162155500Y-62277000D01*
X158599500Y-62230000D02*
X162108500Y-62230000D01*
X122682000Y-78740000D02*
X122682000Y-83312000D01*
X122682000Y-98044000D02*
X122682000Y-102616000D01*
X130048000Y-96520000D02*
X128270000Y-98298000D01*
X130048000Y-96520000D02*
X130048000Y-85090000D01*
X161418000Y-75541500D02*
X161418000Y-77906500D01*
X161418000Y-75541500D02*
X163450000Y-73509500D01*
X163450000Y-73509500D02*
X164592000Y-73509500D01*
X164592000Y-72286500D02*
X164592000Y-73509500D01*
X161418000Y-77906500D02*
X161593000Y-78081500D01*
X136652000Y-94234000D02*
X135636000Y-95250000D01*
X135636000Y-95250000D02*
X133504000Y-95250000D01*
X136652000Y-94234000D02*
X136652000Y-83566000D01*
X161267500Y-55626000D02*
X163299500Y-53594000D01*
X161267500Y-57991000D02*
X161442500Y-58166000D01*
X163299500Y-53594000D02*
X164441500Y-53594000D01*
X161267500Y-55626000D02*
X161267500Y-57991000D01*
X164441500Y-52371000D02*
X164441500Y-53594000D01*
X161418000Y-87812500D02*
X161593000Y-87987500D01*
X161418000Y-85447500D02*
X161418000Y-87812500D01*
X163322000Y-83415500D02*
X164592000Y-83415500D01*
X161418000Y-85447500D02*
X161418000Y-85319500D01*
X161418000Y-85319500D02*
X163322000Y-83415500D01*
X164592000Y-82192500D02*
X164592000Y-83415500D01*
X127508000Y-106426000D02*
X127508000Y-101346000D01*
X127508000Y-79502000D02*
X127508000Y-82042000D01*
X127508000Y-52832000D02*
X127508000Y-62738000D01*
X127508000Y-62738000D02*
X127508000Y-72390000D01*
X127508000Y-82042000D02*
X127508000Y-91694000D01*
X127508000Y-91694000D02*
X127508000Y-101346000D01*
X127508000Y-72390000D02*
X127508000Y-77216000D01*
X127508000Y-120650000D02*
X127508000Y-130302000D01*
X127508000Y-110998000D02*
X127508000Y-120650000D01*
X127508000Y-130302000D02*
X127508000Y-139954000D01*
X161418000Y-144780000D02*
X161418000Y-144652000D01*
X161418000Y-144652000D02*
X163322000Y-142748000D01*
X163322000Y-142748000D02*
X164592000Y-142748000D01*
X161418000Y-147145000D02*
X161593000Y-147320000D01*
X164592000Y-141525000D02*
X164592000Y-142748000D01*
X161418000Y-144780000D02*
X161418000Y-147145000D01*
X116332000Y-109220000D02*
X126238000Y-109220000D01*
X111188000Y-112938000D02*
X112614000Y-112938000D01*
X129540000Y-99314000D02*
X131064000Y-97790000D01*
X129540000Y-105918000D02*
X129540000Y-99314000D01*
X112614000Y-112938000D02*
X116332000Y-109220000D01*
X131064000Y-97790000D02*
X133504000Y-97790000D01*
X126238000Y-109220000D02*
X129540000Y-105918000D01*
X162155500Y-50546000D02*
X164441500Y-50546000D01*
X163450000Y-132842000D02*
X164592000Y-132842000D01*
X161418000Y-137239000D02*
X161593000Y-137414000D01*
X161418000Y-134874000D02*
X161418000Y-137239000D01*
X164592000Y-131619000D02*
X164592000Y-132842000D01*
X161418000Y-134874000D02*
X163450000Y-132842000D01*
X120231500Y-68476500D02*
X120231500Y-69088000D01*
X118303000Y-66548000D02*
X120231500Y-68476500D01*
X129989520Y-106104197D02*
X129989520Y-101346000D01*
X126424197Y-109669520D02*
X129989520Y-106104197D01*
X116996480Y-109669520D02*
X126424197Y-109669520D01*
X131005520Y-100330000D02*
X133504000Y-100330000D01*
X111188000Y-115478000D02*
X116996480Y-109669520D01*
X129989520Y-101346000D02*
X131005520Y-100330000D01*
X161418000Y-125071500D02*
X161418000Y-124943500D01*
X164592000Y-121816500D02*
X164592000Y-123039500D01*
X161418000Y-127436500D02*
X161593000Y-127611500D01*
X163322000Y-123039500D02*
X164592000Y-123039500D01*
X161418000Y-125071500D02*
X161418000Y-127436500D01*
X161418000Y-124943500D02*
X163322000Y-123039500D01*
X161418000Y-115165500D02*
X163450000Y-113133500D01*
X163450000Y-113133500D02*
X164592000Y-113133500D01*
X161418000Y-115165500D02*
X161418000Y-117530500D01*
X164592000Y-111910500D02*
X164592000Y-113133500D01*
X161418000Y-117530500D02*
X161593000Y-117705500D01*
X161418000Y-107521000D02*
X161593000Y-107696000D01*
X164592000Y-101901000D02*
X164592000Y-103124000D01*
X161418000Y-105028000D02*
X163322000Y-103124000D01*
X161418000Y-105156000D02*
X161418000Y-107521000D01*
X161418000Y-105156000D02*
X161418000Y-105028000D01*
X163322000Y-103124000D02*
X164592000Y-103124000D01*
X161418000Y-95250000D02*
X163450000Y-93218000D01*
X161418000Y-97615000D02*
X161593000Y-97790000D01*
X164592000Y-91995000D02*
X164592000Y-93218000D01*
X163450000Y-93218000D02*
X164592000Y-93218000D01*
X161418000Y-95250000D02*
X161418000Y-97615000D01*
X162108500Y-52324000D02*
X162155500Y-52371000D01*
X158599500Y-52324000D02*
X162108500Y-52324000D01*
X118406500Y-64365500D02*
X118406500Y-64008000D01*
X120589000Y-66548000D02*
X118406500Y-64365500D01*
X121666000Y-81877500D02*
X120231500Y-83312000D01*
X121666000Y-73660000D02*
X121666000Y-81877500D01*
X120491500Y-54197500D02*
X121666000Y-55372000D01*
X156464000Y-52832000D02*
X156464000Y-66040000D01*
X158750000Y-76239500D02*
X156503500Y-76239500D01*
X158599500Y-66230000D02*
X156654000Y-66230000D01*
X156464000Y-84582000D02*
X158027500Y-86145500D01*
X121666000Y-64008000D02*
X121666000Y-73660000D01*
X121666000Y-55372000D02*
X121666000Y-64008000D01*
X120134000Y-54197500D02*
X120491500Y-54197500D01*
X156503500Y-76239500D02*
X156464000Y-76200000D01*
X157290000Y-56324000D02*
X156464000Y-57150000D01*
X156464000Y-76200000D02*
X156464000Y-84582000D01*
X111188000Y-54166000D02*
X113538000Y-51816000D01*
X111188000Y-57693000D02*
X111188000Y-54166000D01*
X158599500Y-56324000D02*
X157290000Y-56324000D01*
X120134000Y-54197500D02*
X120134000Y-51824000D01*
X120231500Y-73660000D02*
X121666000Y-73660000D01*
X156464000Y-66040000D02*
X156464000Y-76200000D01*
X120231500Y-64008000D02*
X121666000Y-64008000D01*
X158027500Y-86145500D02*
X158750000Y-86145500D01*
X155448000Y-51816000D02*
X156464000Y-52832000D01*
X156654000Y-66230000D02*
X156464000Y-66040000D01*
X113538000Y-51816000D02*
X155448000Y-51816000D01*
X162259000Y-72239500D02*
X162306000Y-72286500D01*
X158750000Y-72239500D02*
X162259000Y-72239500D01*
X158750000Y-82145500D02*
X162259000Y-82145500D01*
X162259000Y-82145500D02*
X162306000Y-82192500D01*
X158750000Y-141478000D02*
X162259000Y-141478000D01*
X162259000Y-141478000D02*
X162306000Y-141525000D01*
X121920000Y-131572000D02*
X121920000Y-129286000D01*
X157694500Y-115863500D02*
X156464000Y-117094000D01*
X121920000Y-113895500D02*
X120292500Y-112268000D01*
X156464000Y-117094000D02*
X156464000Y-125730000D01*
X158750000Y-135572000D02*
X156654000Y-135572000D01*
X156464000Y-125730000D02*
X156464000Y-135382000D01*
X121920000Y-141224000D02*
X121920000Y-131572000D01*
X158750000Y-115863500D02*
X157694500Y-115863500D01*
X158750000Y-145478000D02*
X156528000Y-145478000D01*
X156464000Y-145414000D02*
X156528000Y-145478000D01*
X156654000Y-135572000D02*
X156464000Y-135382000D01*
X121920000Y-129286000D02*
X118110000Y-129286000D01*
X121920000Y-129286000D02*
X121920000Y-121920000D01*
X156528000Y-145478000D02*
X123380000Y-145478000D01*
X121920000Y-144018000D02*
X121920000Y-141224000D01*
X121920000Y-121920000D02*
X121920000Y-113895500D01*
X120292500Y-131572000D02*
X121920000Y-131572000D01*
X156464000Y-135382000D02*
X156464000Y-145414000D01*
X123380000Y-145478000D02*
X121920000Y-144018000D01*
X158750000Y-125769500D02*
X156503500Y-125769500D01*
X156503500Y-125769500D02*
X156464000Y-125730000D01*
X120292500Y-121920000D02*
X121920000Y-121920000D01*
X120292500Y-141224000D02*
X121920000Y-141224000D01*
X158750000Y-131572000D02*
X162259000Y-131572000D01*
X162259000Y-131572000D02*
X162306000Y-131619000D01*
X158750000Y-121769500D02*
X162259000Y-121769500D01*
X162259000Y-121769500D02*
X162306000Y-121816500D01*
X158750000Y-111863500D02*
X162259000Y-111863500D01*
X162259000Y-111863500D02*
X162306000Y-111910500D01*
X162259000Y-101854000D02*
X162306000Y-101901000D01*
X158750000Y-101854000D02*
X162259000Y-101854000D01*
X157416000Y-105854000D02*
X156464000Y-104902000D01*
X124714000Y-86360000D02*
X124714000Y-79248000D01*
X124714000Y-79248000D02*
X125476000Y-78486000D01*
X120292500Y-92964000D02*
X121816500Y-94488000D01*
X120292500Y-92964000D02*
X120292500Y-90781500D01*
X158750000Y-105854000D02*
X157416000Y-105854000D01*
X120292500Y-90781500D02*
X120396000Y-90678000D01*
X130810000Y-71628000D02*
X130810000Y-76200000D01*
X129794000Y-78486000D02*
X130810000Y-77470000D01*
X158750000Y-95948000D02*
X156528000Y-95948000D01*
X125476000Y-78486000D02*
X129794000Y-78486000D01*
X121816500Y-94488000D02*
X121816500Y-101092000D01*
X130810000Y-77470000D02*
X130810000Y-76200000D01*
X156528000Y-95948000D02*
X156464000Y-96012000D01*
X121816500Y-101092000D02*
X120292500Y-102616000D01*
X156464000Y-104902000D02*
X156464000Y-96012000D01*
X155448000Y-85090000D02*
X155448000Y-71628000D01*
X120396000Y-90678000D02*
X124714000Y-86360000D01*
X117856000Y-90678000D02*
X120396000Y-90678000D01*
X156464000Y-96012000D02*
X156464000Y-86106000D01*
X155448000Y-85090000D02*
X156464000Y-86106000D01*
X158750000Y-91948000D02*
X162259000Y-91948000D01*
X162259000Y-91948000D02*
X162306000Y-91995000D01*
X118309000Y-59277500D02*
X117353500Y-60233000D01*
X117353500Y-60233000D02*
X111188000Y-60233000D01*
X118110000Y-69088000D02*
X118406500Y-69088000D01*
X113065000Y-62773000D02*
X116586000Y-66294000D01*
X116586000Y-67564000D02*
X118110000Y-69088000D01*
X111188000Y-62773000D02*
X113065000Y-62773000D01*
X116586000Y-66294000D02*
X116586000Y-67564000D01*
X113065000Y-65313000D02*
X115062000Y-67310000D01*
X115062000Y-67310000D02*
X115062000Y-75395500D01*
X111188000Y-65313000D02*
X113065000Y-65313000D01*
X115062000Y-75395500D02*
X118406500Y-78740000D01*
X111188000Y-74104000D02*
X116332000Y-79248000D01*
X118110000Y-88392000D02*
X118406500Y-88392000D01*
X116332000Y-86614000D02*
X118110000Y-88392000D01*
X111188000Y-67853000D02*
X111188000Y-74104000D01*
X116332000Y-79248000D02*
X116332000Y-86614000D01*
X130556000Y-103124000D02*
X130810000Y-102870000D01*
X130556000Y-106173435D02*
X130556000Y-103124000D01*
X117464960Y-110119040D02*
X126610395Y-110119040D01*
X126610395Y-110119040D02*
X130556000Y-106173435D01*
X113792000Y-115414000D02*
X113792000Y-113792000D01*
X113792000Y-113792000D02*
X117464960Y-110119040D01*
X130810000Y-102870000D02*
X133504000Y-102870000D01*
X111188000Y-118018000D02*
X113792000Y-115414000D01*
X111188000Y-137703000D02*
X117416500Y-137703000D01*
X117416500Y-137703000D02*
X118467500Y-136652000D01*
X118467500Y-146304000D02*
X117249000Y-146304000D01*
X117249000Y-146304000D02*
X111188000Y-140243000D01*
X112741000Y-132623000D02*
X114808000Y-130556000D01*
X114808000Y-121007500D02*
X118467500Y-117348000D01*
X114808000Y-130556000D02*
X114808000Y-121007500D01*
X111188000Y-132623000D02*
X112741000Y-132623000D01*
X116332000Y-129032000D02*
X118364000Y-127000000D01*
X111188000Y-135163000D02*
X113503000Y-135163000D01*
X113503000Y-135163000D02*
X116332000Y-132334000D01*
X116332000Y-132334000D02*
X116332000Y-129032000D01*
X118364000Y-127000000D02*
X118467500Y-127000000D01*
X111188000Y-83728000D02*
X113192000Y-83728000D01*
X113192000Y-83728000D02*
X115062000Y-85598000D01*
X115062000Y-94638500D02*
X118467500Y-98044000D01*
X115062000Y-85598000D02*
X115062000Y-94638500D01*
X114046000Y-103274500D02*
X118467500Y-107696000D01*
X111188000Y-86268000D02*
X112938000Y-86268000D01*
X112938000Y-86268000D02*
X114046000Y-87376000D01*
X114046000Y-87376000D02*
X114046000Y-103274500D01*
X137922000Y-69342000D02*
X139700000Y-67564000D01*
X137922000Y-103532000D02*
X137922000Y-69342000D01*
X133504000Y-107950000D02*
X137922000Y-103532000D01*
X118309000Y-54555000D02*
X118309000Y-54197500D01*
X120491500Y-56737500D02*
X118309000Y-54555000D01*
X118205500Y-56737500D02*
X120134000Y-58666000D01*
X120134000Y-58666000D02*
X120134000Y-59277500D01*
X146050000Y-108104000D02*
X133504000Y-120650000D01*
X146050000Y-69850000D02*
X146050000Y-108104000D01*
X138430000Y-70104000D02*
X139700000Y-68834000D01*
X133504000Y-110490000D02*
X138430000Y-105564000D01*
X138430000Y-105564000D02*
X138430000Y-70104000D01*
X147320000Y-69850000D02*
X146499520Y-70670480D01*
X146499520Y-110194480D02*
X133504000Y-123190000D01*
X146499520Y-70670480D02*
X146499520Y-110194480D01*
X162155500Y-60452000D02*
X164441500Y-60452000D01*
X129286000Y-74930000D02*
X129286000Y-73152000D01*
X133504000Y-113030000D02*
X138938000Y-107596000D01*
X138938000Y-107596000D02*
X138938000Y-70866000D01*
X138938000Y-70866000D02*
X139700000Y-70104000D01*
X120589000Y-76200000D02*
X118406500Y-74017500D01*
X118406500Y-74017500D02*
X118406500Y-73660000D01*
X120231500Y-78128500D02*
X120231500Y-78740000D01*
X118303000Y-76200000D02*
X120231500Y-78128500D01*
X148590000Y-69850000D02*
X147066000Y-71374000D01*
X147066000Y-71374000D02*
X147066000Y-112168000D01*
X147066000Y-112168000D02*
X133504000Y-125730000D01*
X162306000Y-70461500D02*
X164592000Y-70461500D01*
X139523000Y-85267000D02*
X140716000Y-84074000D01*
X139523000Y-109551000D02*
X139523000Y-85267000D01*
X133504000Y-115570000D02*
X139523000Y-109551000D01*
X120589000Y-85852000D02*
X118406500Y-83669500D01*
X118406500Y-83669500D02*
X118406500Y-83312000D01*
X118303000Y-85852000D02*
X120231500Y-87780500D01*
X120231500Y-87780500D02*
X120231500Y-88392000D01*
X147574000Y-84582000D02*
X147574000Y-114200000D01*
X149606000Y-82550000D02*
X147574000Y-84582000D01*
X147574000Y-114200000D02*
X133504000Y-128270000D01*
X162306000Y-80367500D02*
X164592000Y-80367500D01*
X120650000Y-114808000D02*
X118467500Y-112625500D01*
X118467500Y-112625500D02*
X118467500Y-112268000D01*
X120292500Y-116736500D02*
X120292500Y-117348000D01*
X118364000Y-114808000D02*
X120292500Y-116736500D01*
X162306000Y-139700000D02*
X164592000Y-139700000D01*
X118467500Y-122277500D02*
X118467500Y-121920000D01*
X120650000Y-124460000D02*
X118467500Y-122277500D01*
X120292500Y-126388500D02*
X120292500Y-127000000D01*
X118364000Y-124460000D02*
X120292500Y-126388500D01*
X162306000Y-129794000D02*
X164592000Y-129794000D01*
X120650000Y-134112000D02*
X118467500Y-131929500D01*
X118467500Y-131929500D02*
X118467500Y-131572000D01*
X118364000Y-134112000D02*
X120292500Y-136040500D01*
X120292500Y-136040500D02*
X120292500Y-136652000D01*
X162306000Y-119991500D02*
X164592000Y-119991500D01*
X120650000Y-143764000D02*
X118467500Y-141581500D01*
X118467500Y-141581500D02*
X118467500Y-141224000D01*
X118364000Y-143764000D02*
X120292500Y-145692500D01*
X120292500Y-145692500D02*
X120292500Y-146304000D01*
X162306000Y-110085500D02*
X164592000Y-110085500D01*
X132588000Y-139192000D02*
X146050000Y-139192000D01*
X130556000Y-137160000D02*
X132588000Y-139192000D01*
X130556000Y-109474000D02*
X130556000Y-137160000D01*
X120650000Y-95504000D02*
X118467500Y-93321500D01*
X118467500Y-93321500D02*
X118467500Y-92964000D01*
X120292500Y-97432500D02*
X120292500Y-98044000D01*
X118364000Y-95504000D02*
X120292500Y-97432500D01*
X162306000Y-100076000D02*
X164592000Y-100076000D01*
X129540000Y-137922000D02*
X132080000Y-140462000D01*
X129540000Y-108712000D02*
X129540000Y-137922000D01*
X132080000Y-140462000D02*
X145034000Y-140462000D01*
X118467500Y-102973500D02*
X118467500Y-102616000D01*
X120650000Y-105156000D02*
X118467500Y-102973500D01*
X118364000Y-105156000D02*
X120292500Y-107084500D01*
X120292500Y-107084500D02*
X120292500Y-107696000D01*
X162306000Y-90170000D02*
X164592000Y-90170000D01*
X166981500Y-58229000D02*
X166219500Y-57467000D01*
X169164000Y-71628000D02*
X169164000Y-61515000D01*
X169164000Y-61515000D02*
X166981500Y-59332500D01*
X166981500Y-59332500D02*
X166981500Y-58229000D01*
X171513000Y-72298000D02*
X169834000Y-72298000D01*
X169834000Y-72298000D02*
X169164000Y-71628000D01*
X166981500Y-69238500D02*
X166981500Y-68135000D01*
X166981500Y-68135000D02*
X166219500Y-67373000D01*
X167132000Y-78144500D02*
X166370000Y-77382500D01*
X167132000Y-79248000D02*
X167132000Y-78144500D01*
X167132000Y-89154000D02*
X167132000Y-88050500D01*
X167132000Y-88050500D02*
X166370000Y-87288500D01*
X167132000Y-147383000D02*
X166370000Y-146621000D01*
X167132000Y-148486500D02*
X167132000Y-147383000D01*
X167132000Y-137477000D02*
X166370000Y-136715000D01*
X167132000Y-138580500D02*
X167132000Y-137477000D01*
X167132000Y-128778000D02*
X167132000Y-127674500D01*
X167132000Y-127674500D02*
X166370000Y-126912500D01*
X167132000Y-117768500D02*
X166370000Y-117006500D01*
X167132000Y-118872000D02*
X167132000Y-117768500D01*
X167132000Y-108862500D02*
X167132000Y-107759000D01*
X167132000Y-107759000D02*
X166370000Y-106997000D01*
X167132000Y-97853000D02*
X166370000Y-97091000D01*
X167132000Y-98956500D02*
X167132000Y-97853000D01*
X166156500Y-55880000D02*
X166219500Y-55817000D01*
X170625000Y-55817000D02*
X166219500Y-55817000D01*
X164567500Y-57991000D02*
X164392500Y-58166000D01*
X171513000Y-56705000D02*
X170625000Y-55817000D01*
X171513000Y-69758000D02*
X171513000Y-56705000D01*
X164567500Y-55880000D02*
X166156500Y-55880000D01*
X164567500Y-55626000D02*
X164567500Y-57991000D01*
X166028500Y-65532000D02*
X166219500Y-65723000D01*
X168148000Y-66294000D02*
X167577000Y-65723000D01*
X167577000Y-65723000D02*
X166219500Y-65723000D01*
X168148000Y-73152000D02*
X168148000Y-66294000D01*
X169834000Y-74838000D02*
X168148000Y-73152000D01*
X164567500Y-65532000D02*
X166028500Y-65532000D01*
X164567500Y-65532000D02*
X164567500Y-67897000D01*
X171513000Y-74838000D02*
X169834000Y-74838000D01*
X164567500Y-67897000D02*
X164392500Y-68072000D01*
X166219500Y-65723000D02*
X166219500Y-65682500D01*
X171513000Y-79918000D02*
X169834000Y-79918000D01*
X166307000Y-75795500D02*
X166370000Y-75732500D01*
X169164000Y-79248000D02*
X169164000Y-76708000D01*
X164718000Y-77906500D02*
X164543000Y-78081500D01*
X164718000Y-75795500D02*
X166307000Y-75795500D01*
X164718000Y-75541500D02*
X164718000Y-77906500D01*
X169164000Y-76708000D02*
X168188500Y-75732500D01*
X169834000Y-79918000D02*
X169164000Y-79248000D01*
X168188500Y-75732500D02*
X166370000Y-75732500D01*
X167010500Y-84998000D02*
X171513000Y-84998000D01*
X164718000Y-85447500D02*
X166179000Y-85447500D01*
X166370000Y-85638500D02*
X166370000Y-85598000D01*
X164718000Y-85447500D02*
X164718000Y-87812500D01*
X166179000Y-85447500D02*
X166370000Y-85638500D01*
X164718000Y-87812500D02*
X164543000Y-87987500D01*
X166370000Y-85638500D02*
X167010500Y-84998000D01*
X164718000Y-144780000D02*
X166179000Y-144780000D01*
X166370000Y-144971000D02*
X171513000Y-139828000D01*
X171513000Y-139828000D02*
X171513000Y-131973000D01*
X164718000Y-144780000D02*
X164718000Y-147145000D01*
X164718000Y-147145000D02*
X164543000Y-147320000D01*
X166179000Y-144780000D02*
X166370000Y-144971000D01*
X164718000Y-135128000D02*
X166307000Y-135128000D01*
X166370000Y-135065000D02*
X166370000Y-132036000D01*
X164718000Y-134874000D02*
X164718000Y-137239000D01*
X166370000Y-132036000D02*
X171513000Y-126893000D01*
X164718000Y-137239000D02*
X164543000Y-137414000D01*
X166307000Y-135128000D02*
X166370000Y-135065000D01*
X164718000Y-127436500D02*
X164543000Y-127611500D01*
X169779000Y-121813000D02*
X171513000Y-121813000D01*
X164718000Y-125071500D02*
X164718000Y-127436500D01*
X166370000Y-125222000D02*
X169779000Y-121813000D01*
X166179000Y-125071500D02*
X166370000Y-125262500D01*
X164718000Y-125071500D02*
X166179000Y-125071500D01*
X166370000Y-125262500D02*
X166370000Y-125222000D01*
X164718000Y-117530500D02*
X164543000Y-117705500D01*
X164718000Y-115165500D02*
X164718000Y-117530500D01*
X166307000Y-115419500D02*
X166370000Y-115356500D01*
X169565000Y-116733000D02*
X168188500Y-115356500D01*
X164718000Y-115419500D02*
X166307000Y-115419500D01*
X171513000Y-116733000D02*
X169565000Y-116733000D01*
X168188500Y-115356500D02*
X166370000Y-115356500D01*
X164718000Y-105156000D02*
X166179000Y-105156000D01*
X166409000Y-105308000D02*
X166370000Y-105347000D01*
X164718000Y-107521000D02*
X164543000Y-107696000D01*
X166179000Y-105156000D02*
X166370000Y-105347000D01*
X171513000Y-105308000D02*
X166409000Y-105308000D01*
X164718000Y-105156000D02*
X164718000Y-107521000D01*
X164718000Y-95504000D02*
X166307000Y-95504000D01*
X169164000Y-96012000D02*
X168593000Y-95441000D01*
X166307000Y-95504000D02*
X166370000Y-95441000D01*
X169824000Y-100228000D02*
X169164000Y-99568000D01*
X168593000Y-95441000D02*
X166370000Y-95441000D01*
X171513000Y-100228000D02*
X169824000Y-100228000D01*
X164718000Y-97615000D02*
X164543000Y-97790000D01*
X164718000Y-95250000D02*
X164718000Y-97615000D01*
X169164000Y-99568000D02*
X169164000Y-96012000D01*
M02*
