%FSLAX45Y45*%
G04 Gerber Fmt 4.5, Leading zero omitted, Abs format (unit mm)*
G04 Created by KiCad (PCBNEW (6.0.0)) date 2022-08-19 14:17:07*
%MOMM*%
%LPD*%
G01*
G04 APERTURE LIST*
%TA.AperFunction,Profile*%
%ADD10C,0.100000*%
%TD*%
%ADD11C,0.200000*%
%ADD12C,0.040000*%
%ADD13C,0.100000*%
%ADD14C,0.102000*%
G04 APERTURE END LIST*
D10*
X17475200Y-14935200D02*
X17475200Y-4851400D01*
X10820400Y-14935200D02*
X10820400Y-4851400D01*
X10820400Y-4851400D02*
X17475200Y-4851400D01*
X10820400Y-14935200D02*
X17475200Y-14935200D01*
D11*
D12*
X11765600Y-9047800D02*
X11805600Y-9087800D01*
X11805600Y-9047800D02*
X11765600Y-9087800D01*
X11791000Y-12908600D02*
X11831000Y-12948600D01*
X11831000Y-12908600D02*
X11791000Y-12948600D01*
X11800550Y-5653750D02*
X11840550Y-5693750D01*
X11840550Y-5653750D02*
X11800550Y-5693750D01*
X11810300Y-6634800D02*
X11850300Y-6674800D01*
X11850300Y-6634800D02*
X11810300Y-6674800D01*
X11810300Y-7600000D02*
X11850300Y-7640000D01*
X11850300Y-7600000D02*
X11810300Y-7640000D01*
X11810300Y-8565200D02*
X11850300Y-8605200D01*
X11850300Y-8565200D02*
X11810300Y-8605200D01*
X11816400Y-9530400D02*
X11856400Y-9570400D01*
X11856400Y-9530400D02*
X11816400Y-9570400D01*
X11816400Y-10495600D02*
X11856400Y-10535600D01*
X11856400Y-10495600D02*
X11816400Y-10535600D01*
X11816400Y-11460800D02*
X11856400Y-11500800D01*
X11856400Y-11460800D02*
X11816400Y-11500800D01*
X11816400Y-12426000D02*
X11856400Y-12466000D01*
X11856400Y-12426000D02*
X11816400Y-12466000D01*
X11816400Y-13391200D02*
X11856400Y-13431200D01*
X11856400Y-13391200D02*
X11816400Y-13431200D01*
X11816400Y-14356400D02*
X11856400Y-14396400D01*
X11856400Y-14356400D02*
X11816400Y-14396400D01*
X12029150Y-5653750D02*
X12069150Y-5693750D01*
X12069150Y-5653750D02*
X12029150Y-5693750D01*
X12038900Y-6634800D02*
X12078900Y-6674800D01*
X12078900Y-6634800D02*
X12038900Y-6674800D01*
X12038900Y-7600000D02*
X12078900Y-7640000D01*
X12078900Y-7600000D02*
X12038900Y-7640000D01*
X12038900Y-8565200D02*
X12078900Y-8605200D01*
X12078900Y-8565200D02*
X12038900Y-8605200D01*
X12045000Y-9530400D02*
X12085000Y-9570400D01*
X12085000Y-9530400D02*
X12045000Y-9570400D01*
X12045000Y-10495600D02*
X12085000Y-10535600D01*
X12085000Y-10495600D02*
X12045000Y-10535600D01*
X12045000Y-11460800D02*
X12085000Y-11500800D01*
X12085000Y-11460800D02*
X12045000Y-11500800D01*
X12045000Y-12426000D02*
X12085000Y-12466000D01*
X12085000Y-12426000D02*
X12045000Y-12466000D01*
X12045000Y-13391200D02*
X12085000Y-13431200D01*
X12085000Y-13391200D02*
X12045000Y-13431200D01*
X12045000Y-14356400D02*
X12085000Y-14396400D01*
X12085000Y-14356400D02*
X12045000Y-14396400D01*
X12248200Y-7854000D02*
X12288200Y-7894000D01*
X12288200Y-7854000D02*
X12248200Y-7894000D01*
X12248200Y-8311200D02*
X12288200Y-8351200D01*
X12288200Y-8311200D02*
X12248200Y-8351200D01*
X12248200Y-9784400D02*
X12288200Y-9824400D01*
X12288200Y-9784400D02*
X12248200Y-9824400D01*
X12248200Y-10241600D02*
X12288200Y-10281600D01*
X12288200Y-10241600D02*
X12248200Y-10281600D01*
X12730800Y-5263200D02*
X12770800Y-5303200D01*
X12770800Y-5263200D02*
X12730800Y-5303200D01*
X12730800Y-6253800D02*
X12770800Y-6293800D01*
X12770800Y-6253800D02*
X12730800Y-6293800D01*
X12730800Y-7219000D02*
X12770800Y-7259000D01*
X12770800Y-7219000D02*
X12730800Y-7259000D01*
X12730800Y-7701600D02*
X12770800Y-7741600D01*
X12770800Y-7701600D02*
X12730800Y-7741600D01*
X12730800Y-7930200D02*
X12770800Y-7970200D01*
X12770800Y-7930200D02*
X12730800Y-7970200D01*
X12730800Y-8184200D02*
X12770800Y-8224200D01*
X12770800Y-8184200D02*
X12730800Y-8224200D01*
X12730800Y-9149400D02*
X12770800Y-9189400D01*
X12770800Y-9149400D02*
X12730800Y-9189400D01*
X12730800Y-10114600D02*
X12770800Y-10154600D01*
X12770800Y-10114600D02*
X12730800Y-10154600D01*
X12730800Y-10622600D02*
X12770800Y-10662600D01*
X12770800Y-10622600D02*
X12730800Y-10662600D01*
X12730800Y-11079800D02*
X12770800Y-11119800D01*
X12770800Y-11079800D02*
X12730800Y-11119800D01*
X12730800Y-12045000D02*
X12770800Y-12085000D01*
X12770800Y-12045000D02*
X12730800Y-12085000D01*
X12730800Y-13010200D02*
X12770800Y-13050200D01*
X12770800Y-13010200D02*
X12730800Y-13050200D01*
X12730800Y-13975400D02*
X12770800Y-14015400D01*
X12770800Y-13975400D02*
X12730800Y-14015400D01*
X12807000Y-9809800D02*
X12847000Y-9849800D01*
X12847000Y-9809800D02*
X12807000Y-9849800D01*
X12908600Y-7295200D02*
X12948600Y-7335200D01*
X12948600Y-7295200D02*
X12908600Y-7335200D01*
X12908600Y-7473000D02*
X12948600Y-7513000D01*
X12948600Y-7473000D02*
X12908600Y-7513000D01*
X12934000Y-10851200D02*
X12974000Y-10891200D01*
X12974000Y-10851200D02*
X12934000Y-10891200D01*
X12984800Y-8489000D02*
X13024800Y-8529000D01*
X13024800Y-8489000D02*
X12984800Y-8529000D01*
X13035600Y-10927400D02*
X13075600Y-10967400D01*
X13075600Y-10927400D02*
X13035600Y-10967400D01*
X13061000Y-7142800D02*
X13101000Y-7182800D01*
X13101000Y-7142800D02*
X13061000Y-7182800D01*
X13061000Y-7600000D02*
X13101000Y-7640000D01*
X13101000Y-7600000D02*
X13061000Y-7640000D01*
X13645200Y-8336600D02*
X13685200Y-8376600D01*
X13685200Y-8336600D02*
X13645200Y-8376600D01*
X13950000Y-6736400D02*
X13990000Y-6776400D01*
X13990000Y-6736400D02*
X13950000Y-6776400D01*
X13950000Y-6863400D02*
X13990000Y-6903400D01*
X13990000Y-6863400D02*
X13950000Y-6903400D01*
X13950000Y-6990400D02*
X13990000Y-7030400D01*
X13990000Y-6990400D02*
X13950000Y-7030400D01*
X14051600Y-8387400D02*
X14091600Y-8427400D01*
X14091600Y-8387400D02*
X14051600Y-8427400D01*
X14483400Y-14026200D02*
X14523400Y-14066200D01*
X14523400Y-14026200D02*
X14483400Y-14066200D01*
X14585000Y-6965000D02*
X14625000Y-7005000D01*
X14625000Y-6965000D02*
X14585000Y-7005000D01*
X14585000Y-13899200D02*
X14625000Y-13939200D01*
X14625000Y-13899200D02*
X14585000Y-13939200D01*
X14712000Y-6965000D02*
X14752000Y-7005000D01*
X14752000Y-6965000D02*
X14712000Y-7005000D01*
X14839000Y-6965000D02*
X14879000Y-7005000D01*
X14879000Y-6965000D02*
X14839000Y-7005000D01*
X14940600Y-8235000D02*
X14980600Y-8275000D01*
X14980600Y-8235000D02*
X14940600Y-8275000D01*
X15524800Y-7142800D02*
X15564800Y-7182800D01*
X15564800Y-7142800D02*
X15524800Y-7182800D01*
X16424150Y-5339400D02*
X16464150Y-5379400D01*
X16464150Y-5339400D02*
X16424150Y-5379400D01*
X16424150Y-6330000D02*
X16464150Y-6370000D01*
X16464150Y-6330000D02*
X16424150Y-6370000D01*
X16439200Y-7330950D02*
X16479200Y-7370950D01*
X16479200Y-7330950D02*
X16439200Y-7370950D01*
X16439200Y-8321550D02*
X16479200Y-8361550D01*
X16479200Y-8321550D02*
X16439200Y-8361550D01*
X16439200Y-9301800D02*
X16479200Y-9341800D01*
X16479200Y-9301800D02*
X16439200Y-9341800D01*
X16439200Y-10292400D02*
X16479200Y-10332400D01*
X16479200Y-10292400D02*
X16439200Y-10332400D01*
X16439200Y-11293350D02*
X16479200Y-11333350D01*
X16479200Y-11293350D02*
X16439200Y-11333350D01*
X16439200Y-12283950D02*
X16479200Y-12323950D01*
X16479200Y-12283950D02*
X16439200Y-12323950D01*
X16439200Y-13264200D02*
X16479200Y-13304200D01*
X16479200Y-13264200D02*
X16439200Y-13304200D01*
X16439200Y-14254800D02*
X16479200Y-14294800D01*
X16479200Y-14254800D02*
X16439200Y-14294800D01*
X16678150Y-5913250D02*
X16718150Y-5953250D01*
X16718150Y-5913250D02*
X16678150Y-5953250D01*
X16678150Y-6903850D02*
X16718150Y-6943850D01*
X16718150Y-6903850D02*
X16678150Y-6943850D01*
X16693200Y-7904800D02*
X16733200Y-7944800D01*
X16733200Y-7904800D02*
X16693200Y-7944800D01*
X16693200Y-8895400D02*
X16733200Y-8935400D01*
X16733200Y-8895400D02*
X16693200Y-8935400D01*
X16693200Y-9875650D02*
X16733200Y-9915650D01*
X16733200Y-9875650D02*
X16693200Y-9915650D01*
X16693200Y-10866250D02*
X16733200Y-10906250D01*
X16733200Y-10866250D02*
X16693200Y-10906250D01*
X16693200Y-11867200D02*
X16733200Y-11907200D01*
X16733200Y-11867200D02*
X16693200Y-11907200D01*
X16693200Y-12857800D02*
X16733200Y-12897800D01*
X16733200Y-12857800D02*
X16693200Y-12897800D01*
X16693200Y-13838050D02*
X16733200Y-13878050D01*
X16733200Y-13838050D02*
X16693200Y-13878050D01*
X16693200Y-14828650D02*
X16733200Y-14868650D01*
X16733200Y-14828650D02*
X16693200Y-14868650D01*
D13*
X11168800Y-5769300D02*
G75*
G03*
X11168800Y-5769300I-50000J0D01*
G01*
X11168800Y-6023300D02*
G75*
G03*
X11168800Y-6023300I-50000J0D01*
G01*
X11168800Y-6277300D02*
G75*
G03*
X11168800Y-6277300I-50000J0D01*
G01*
X11168800Y-6531300D02*
G75*
G03*
X11168800Y-6531300I-50000J0D01*
G01*
X11168800Y-6785300D02*
G75*
G03*
X11168800Y-6785300I-50000J0D01*
G01*
X11168800Y-8118800D02*
G75*
G03*
X11168800Y-8118800I-50000J0D01*
G01*
X11168800Y-8372800D02*
G75*
G03*
X11168800Y-8372800I-50000J0D01*
G01*
X11168800Y-8626800D02*
G75*
G03*
X11168800Y-8626800I-50000J0D01*
G01*
X11168800Y-8880800D02*
G75*
G03*
X11168800Y-8880800I-50000J0D01*
G01*
X11168800Y-10785800D02*
G75*
G03*
X11168800Y-10785800I-50000J0D01*
G01*
X11168800Y-11039800D02*
G75*
G03*
X11168800Y-11039800I-50000J0D01*
G01*
X11168800Y-11293800D02*
G75*
G03*
X11168800Y-11293800I-50000J0D01*
G01*
X11168800Y-11547800D02*
G75*
G03*
X11168800Y-11547800I-50000J0D01*
G01*
X11168800Y-11801800D02*
G75*
G03*
X11168800Y-11801800I-50000J0D01*
G01*
X11168800Y-13008300D02*
G75*
G03*
X11168800Y-13008300I-50000J0D01*
G01*
X11168800Y-13262300D02*
G75*
G03*
X11168800Y-13262300I-50000J0D01*
G01*
X11168800Y-13516300D02*
G75*
G03*
X11168800Y-13516300I-50000J0D01*
G01*
X11168800Y-13770300D02*
G75*
G03*
X11168800Y-13770300I-50000J0D01*
G01*
X11168800Y-14024300D02*
G75*
G03*
X11168800Y-14024300I-50000J0D01*
G01*
X17201300Y-6975800D02*
G75*
G03*
X17201300Y-6975800I-50000J0D01*
G01*
X17201300Y-7229800D02*
G75*
G03*
X17201300Y-7229800I-50000J0D01*
G01*
X17201300Y-7483800D02*
G75*
G03*
X17201300Y-7483800I-50000J0D01*
G01*
X17201300Y-7737800D02*
G75*
G03*
X17201300Y-7737800I-50000J0D01*
G01*
X17201300Y-7991800D02*
G75*
G03*
X17201300Y-7991800I-50000J0D01*
G01*
X17201300Y-8245800D02*
G75*
G03*
X17201300Y-8245800I-50000J0D01*
G01*
X17201300Y-8499800D02*
G75*
G03*
X17201300Y-8499800I-50000J0D01*
G01*
X17201300Y-8753800D02*
G75*
G03*
X17201300Y-8753800I-50000J0D01*
G01*
X17201300Y-9768800D02*
G75*
G03*
X17201300Y-9768800I-50000J0D01*
G01*
X17201300Y-10022800D02*
G75*
G03*
X17201300Y-10022800I-50000J0D01*
G01*
X17201300Y-10276800D02*
G75*
G03*
X17201300Y-10276800I-50000J0D01*
G01*
X17201300Y-10530800D02*
G75*
G03*
X17201300Y-10530800I-50000J0D01*
G01*
X17201300Y-11419300D02*
G75*
G03*
X17201300Y-11419300I-50000J0D01*
G01*
X17201300Y-11673300D02*
G75*
G03*
X17201300Y-11673300I-50000J0D01*
G01*
X17201300Y-11927300D02*
G75*
G03*
X17201300Y-11927300I-50000J0D01*
G01*
X17201300Y-12181300D02*
G75*
G03*
X17201300Y-12181300I-50000J0D01*
G01*
X17201300Y-12435300D02*
G75*
G03*
X17201300Y-12435300I-50000J0D01*
G01*
X17201300Y-12689300D02*
G75*
G03*
X17201300Y-12689300I-50000J0D01*
G01*
X17201300Y-12943300D02*
G75*
G03*
X17201300Y-12943300I-50000J0D01*
G01*
X17201300Y-13197300D02*
G75*
G03*
X17201300Y-13197300I-50000J0D01*
G01*
D14*
X13350400Y-8712000D02*
X13350400Y-8814000D01*
X13299400Y-8763000D02*
X13401400Y-8763000D01*
X13350400Y-8966000D02*
X13350400Y-9068000D01*
X13299400Y-9017000D02*
X13401400Y-9017000D01*
X13350400Y-9220000D02*
X13350400Y-9322000D01*
X13299400Y-9271000D02*
X13401400Y-9271000D01*
X13350400Y-9474000D02*
X13350400Y-9576000D01*
X13299400Y-9525000D02*
X13401400Y-9525000D01*
X13350400Y-9728000D02*
X13350400Y-9830000D01*
X13299400Y-9779000D02*
X13401400Y-9779000D01*
X13350400Y-9982000D02*
X13350400Y-10084000D01*
X13299400Y-10033000D02*
X13401400Y-10033000D01*
X13350400Y-10236000D02*
X13350400Y-10338000D01*
X13299400Y-10287000D02*
X13401400Y-10287000D01*
X13350400Y-10490000D02*
X13350400Y-10592000D01*
X13299400Y-10541000D02*
X13401400Y-10541000D01*
X13350400Y-10744000D02*
X13350400Y-10846000D01*
X13299400Y-10795000D02*
X13401400Y-10795000D01*
X13350400Y-10998000D02*
X13350400Y-11100000D01*
X13299400Y-11049000D02*
X13401400Y-11049000D01*
X13350400Y-11252000D02*
X13350400Y-11354000D01*
X13299400Y-11303000D02*
X13401400Y-11303000D01*
X13350400Y-11506000D02*
X13350400Y-11608000D01*
X13299400Y-11557000D02*
X13401400Y-11557000D01*
X13350400Y-11760000D02*
X13350400Y-11862000D01*
X13299400Y-11811000D02*
X13401400Y-11811000D01*
X13350400Y-12014000D02*
X13350400Y-12116000D01*
X13299400Y-12065000D02*
X13401400Y-12065000D01*
X13350400Y-12268000D02*
X13350400Y-12370000D01*
X13299400Y-12319000D02*
X13401400Y-12319000D01*
X13350400Y-12522000D02*
X13350400Y-12624000D01*
X13299400Y-12573000D02*
X13401400Y-12573000D01*
X13350400Y-12776000D02*
X13350400Y-12878000D01*
X13299400Y-12827000D02*
X13401400Y-12827000D01*
X13350400Y-13030000D02*
X13350400Y-13132000D01*
X13299400Y-13081000D02*
X13401400Y-13081000D01*
X13350400Y-13284000D02*
X13350400Y-13386000D01*
X13299400Y-13335000D02*
X13401400Y-13335000D01*
X13350400Y-13538000D02*
X13350400Y-13640000D01*
X13299400Y-13589000D02*
X13401400Y-13589000D01*
X15128400Y-8712000D02*
X15128400Y-8814000D01*
X15077400Y-8763000D02*
X15179400Y-8763000D01*
X15128400Y-8966000D02*
X15128400Y-9068000D01*
X15077400Y-9017000D02*
X15179400Y-9017000D01*
X15128400Y-9220000D02*
X15128400Y-9322000D01*
X15077400Y-9271000D02*
X15179400Y-9271000D01*
X15128400Y-9474000D02*
X15128400Y-9576000D01*
X15077400Y-9525000D02*
X15179400Y-9525000D01*
X15128400Y-9728000D02*
X15128400Y-9830000D01*
X15077400Y-9779000D02*
X15179400Y-9779000D01*
X15128400Y-9982000D02*
X15128400Y-10084000D01*
X15077400Y-10033000D02*
X15179400Y-10033000D01*
X15128400Y-10236000D02*
X15128400Y-10338000D01*
X15077400Y-10287000D02*
X15179400Y-10287000D01*
X15128400Y-10490000D02*
X15128400Y-10592000D01*
X15077400Y-10541000D02*
X15179400Y-10541000D01*
X15128400Y-10744000D02*
X15128400Y-10846000D01*
X15077400Y-10795000D02*
X15179400Y-10795000D01*
X15128400Y-10998000D02*
X15128400Y-11100000D01*
X15077400Y-11049000D02*
X15179400Y-11049000D01*
X15128400Y-11252000D02*
X15128400Y-11354000D01*
X15077400Y-11303000D02*
X15179400Y-11303000D01*
X15128400Y-11506000D02*
X15128400Y-11608000D01*
X15077400Y-11557000D02*
X15179400Y-11557000D01*
X15128400Y-11760000D02*
X15128400Y-11862000D01*
X15077400Y-11811000D02*
X15179400Y-11811000D01*
X15128400Y-12014000D02*
X15128400Y-12116000D01*
X15077400Y-12065000D02*
X15179400Y-12065000D01*
X15128400Y-12268000D02*
X15128400Y-12370000D01*
X15077400Y-12319000D02*
X15179400Y-12319000D01*
X15128400Y-12522000D02*
X15128400Y-12624000D01*
X15077400Y-12573000D02*
X15179400Y-12573000D01*
X15128400Y-12776000D02*
X15128400Y-12878000D01*
X15077400Y-12827000D02*
X15179400Y-12827000D01*
X15128400Y-13030000D02*
X15128400Y-13132000D01*
X15077400Y-13081000D02*
X15179400Y-13081000D01*
X15128400Y-13284000D02*
X15128400Y-13386000D01*
X15077400Y-13335000D02*
X15179400Y-13335000D01*
X15128400Y-13538000D02*
X15128400Y-13640000D01*
X15077400Y-13589000D02*
X15179400Y-13589000D01*
D11*
X11073019Y-15250676D02*
X11073019Y-15050676D01*
X11120638Y-15050676D01*
X11149210Y-15060200D01*
X11168257Y-15079248D01*
X11177781Y-15098295D01*
X11187305Y-15136390D01*
X11187305Y-15164962D01*
X11177781Y-15203057D01*
X11168257Y-15222105D01*
X11149210Y-15241152D01*
X11120638Y-15250676D01*
X11073019Y-15250676D01*
X11273019Y-15250676D02*
X11273019Y-15117343D01*
X11273019Y-15155438D02*
X11282543Y-15136390D01*
X11292067Y-15126867D01*
X11311114Y-15117343D01*
X11330162Y-15117343D01*
X11396828Y-15250676D02*
X11396828Y-15117343D01*
X11396828Y-15050676D02*
X11387305Y-15060200D01*
X11396828Y-15069724D01*
X11406352Y-15060200D01*
X11396828Y-15050676D01*
X11396828Y-15069724D01*
X11520638Y-15250676D02*
X11501590Y-15241152D01*
X11492067Y-15222105D01*
X11492067Y-15050676D01*
X11625400Y-15250676D02*
X11606352Y-15241152D01*
X11596828Y-15222105D01*
X11596828Y-15050676D01*
X11853971Y-15250676D02*
X11853971Y-15050676D01*
X11920638Y-15193533D01*
X11987305Y-15050676D01*
X11987305Y-15250676D01*
X12168257Y-15250676D02*
X12168257Y-15145914D01*
X12158733Y-15126867D01*
X12139686Y-15117343D01*
X12101590Y-15117343D01*
X12082543Y-15126867D01*
X12168257Y-15241152D02*
X12149209Y-15250676D01*
X12101590Y-15250676D01*
X12082543Y-15241152D01*
X12073019Y-15222105D01*
X12073019Y-15203057D01*
X12082543Y-15184009D01*
X12101590Y-15174486D01*
X12149209Y-15174486D01*
X12168257Y-15164962D01*
X12263495Y-15117343D02*
X12263495Y-15317343D01*
X12263495Y-15126867D02*
X12282543Y-15117343D01*
X12320638Y-15117343D01*
X12339686Y-15126867D01*
X12349209Y-15136390D01*
X12358733Y-15155438D01*
X12358733Y-15212581D01*
X12349209Y-15231628D01*
X12339686Y-15241152D01*
X12320638Y-15250676D01*
X12282543Y-15250676D01*
X12263495Y-15241152D01*
X12444448Y-15231628D02*
X12453971Y-15241152D01*
X12444448Y-15250676D01*
X12434924Y-15241152D01*
X12444448Y-15231628D01*
X12444448Y-15250676D01*
X12444448Y-15126867D02*
X12453971Y-15136390D01*
X12444448Y-15145914D01*
X12434924Y-15136390D01*
X12444448Y-15126867D01*
X12444448Y-15145914D01*
D12*
X10775400Y-15560200D02*
X10815400Y-15600200D01*
X10815400Y-15560200D02*
X10775400Y-15600200D01*
D11*
X11111114Y-15470676D02*
X11130162Y-15470676D01*
X11149210Y-15480200D01*
X11158733Y-15489724D01*
X11168257Y-15508771D01*
X11177781Y-15546867D01*
X11177781Y-15594486D01*
X11168257Y-15632581D01*
X11158733Y-15651628D01*
X11149210Y-15661152D01*
X11130162Y-15670676D01*
X11111114Y-15670676D01*
X11092067Y-15661152D01*
X11082543Y-15651628D01*
X11073019Y-15632581D01*
X11063495Y-15594486D01*
X11063495Y-15546867D01*
X11073019Y-15508771D01*
X11082543Y-15489724D01*
X11092067Y-15480200D01*
X11111114Y-15470676D01*
X11263495Y-15651628D02*
X11273019Y-15661152D01*
X11263495Y-15670676D01*
X11253971Y-15661152D01*
X11263495Y-15651628D01*
X11263495Y-15670676D01*
X11444448Y-15537343D02*
X11444448Y-15670676D01*
X11396828Y-15461152D02*
X11349209Y-15604009D01*
X11473019Y-15604009D01*
X11587305Y-15470676D02*
X11606352Y-15470676D01*
X11625400Y-15480200D01*
X11634924Y-15489724D01*
X11644448Y-15508771D01*
X11653971Y-15546867D01*
X11653971Y-15594486D01*
X11644448Y-15632581D01*
X11634924Y-15651628D01*
X11625400Y-15661152D01*
X11606352Y-15670676D01*
X11587305Y-15670676D01*
X11568257Y-15661152D01*
X11558733Y-15651628D01*
X11549209Y-15632581D01*
X11539686Y-15594486D01*
X11539686Y-15546867D01*
X11549209Y-15508771D01*
X11558733Y-15489724D01*
X11568257Y-15480200D01*
X11587305Y-15470676D01*
X11777781Y-15470676D02*
X11796828Y-15470676D01*
X11815876Y-15480200D01*
X11825400Y-15489724D01*
X11834924Y-15508771D01*
X11844448Y-15546867D01*
X11844448Y-15594486D01*
X11834924Y-15632581D01*
X11825400Y-15651628D01*
X11815876Y-15661152D01*
X11796828Y-15670676D01*
X11777781Y-15670676D01*
X11758733Y-15661152D01*
X11749209Y-15651628D01*
X11739686Y-15632581D01*
X11730162Y-15594486D01*
X11730162Y-15546867D01*
X11739686Y-15508771D01*
X11749209Y-15489724D01*
X11758733Y-15480200D01*
X11777781Y-15470676D01*
X11930162Y-15670676D02*
X11930162Y-15537343D01*
X11930162Y-15556390D02*
X11939686Y-15546867D01*
X11958733Y-15537343D01*
X11987305Y-15537343D01*
X12006352Y-15546867D01*
X12015876Y-15565914D01*
X12015876Y-15670676D01*
X12015876Y-15565914D02*
X12025400Y-15546867D01*
X12044448Y-15537343D01*
X12073019Y-15537343D01*
X12092067Y-15546867D01*
X12101590Y-15565914D01*
X12101590Y-15670676D01*
X12196828Y-15670676D02*
X12196828Y-15537343D01*
X12196828Y-15556390D02*
X12206352Y-15546867D01*
X12225400Y-15537343D01*
X12253971Y-15537343D01*
X12273019Y-15546867D01*
X12282543Y-15565914D01*
X12282543Y-15670676D01*
X12282543Y-15565914D02*
X12292067Y-15546867D01*
X12311114Y-15537343D01*
X12339686Y-15537343D01*
X12358733Y-15546867D01*
X12368257Y-15565914D01*
X12368257Y-15670676D01*
X12758733Y-15461152D02*
X12587305Y-15718295D01*
X13015876Y-15470676D02*
X13034924Y-15470676D01*
X13053971Y-15480200D01*
X13063495Y-15489724D01*
X13073019Y-15508771D01*
X13082543Y-15546867D01*
X13082543Y-15594486D01*
X13073019Y-15632581D01*
X13063495Y-15651628D01*
X13053971Y-15661152D01*
X13034924Y-15670676D01*
X13015876Y-15670676D01*
X12996828Y-15661152D01*
X12987305Y-15651628D01*
X12977781Y-15632581D01*
X12968257Y-15594486D01*
X12968257Y-15546867D01*
X12977781Y-15508771D01*
X12987305Y-15489724D01*
X12996828Y-15480200D01*
X13015876Y-15470676D01*
X13168257Y-15651628D02*
X13177781Y-15661152D01*
X13168257Y-15670676D01*
X13158733Y-15661152D01*
X13168257Y-15651628D01*
X13168257Y-15670676D01*
X13301590Y-15470676D02*
X13320638Y-15470676D01*
X13339686Y-15480200D01*
X13349209Y-15489724D01*
X13358733Y-15508771D01*
X13368257Y-15546867D01*
X13368257Y-15594486D01*
X13358733Y-15632581D01*
X13349209Y-15651628D01*
X13339686Y-15661152D01*
X13320638Y-15670676D01*
X13301590Y-15670676D01*
X13282543Y-15661152D01*
X13273019Y-15651628D01*
X13263495Y-15632581D01*
X13253971Y-15594486D01*
X13253971Y-15546867D01*
X13263495Y-15508771D01*
X13273019Y-15489724D01*
X13282543Y-15480200D01*
X13301590Y-15470676D01*
X13558733Y-15670676D02*
X13444448Y-15670676D01*
X13501590Y-15670676D02*
X13501590Y-15470676D01*
X13482543Y-15499248D01*
X13463495Y-15518295D01*
X13444448Y-15527819D01*
X13739686Y-15470676D02*
X13644448Y-15470676D01*
X13634924Y-15565914D01*
X13644448Y-15556390D01*
X13663495Y-15546867D01*
X13711114Y-15546867D01*
X13730162Y-15556390D01*
X13739686Y-15565914D01*
X13749209Y-15584962D01*
X13749209Y-15632581D01*
X13739686Y-15651628D01*
X13730162Y-15661152D01*
X13711114Y-15670676D01*
X13663495Y-15670676D01*
X13644448Y-15661152D01*
X13634924Y-15651628D01*
X13815876Y-15470676D02*
X13949209Y-15470676D01*
X13863495Y-15670676D01*
X14015876Y-15470676D02*
X14015876Y-15508771D01*
X14092067Y-15470676D02*
X14092067Y-15508771D01*
X14387305Y-15746867D02*
X14377781Y-15737343D01*
X14358733Y-15708771D01*
X14349209Y-15689724D01*
X14339686Y-15661152D01*
X14330162Y-15613533D01*
X14330162Y-15575438D01*
X14339686Y-15527819D01*
X14349209Y-15499248D01*
X14358733Y-15480200D01*
X14377781Y-15451628D01*
X14387305Y-15442105D01*
X14444448Y-15470676D02*
X14577781Y-15470676D01*
X14492067Y-15670676D01*
X14663495Y-15670676D02*
X14701590Y-15670676D01*
X14720638Y-15661152D01*
X14730162Y-15651628D01*
X14749209Y-15623057D01*
X14758733Y-15584962D01*
X14758733Y-15508771D01*
X14749209Y-15489724D01*
X14739686Y-15480200D01*
X14720638Y-15470676D01*
X14682543Y-15470676D01*
X14663495Y-15480200D01*
X14653971Y-15489724D01*
X14644448Y-15508771D01*
X14644448Y-15556390D01*
X14653971Y-15575438D01*
X14663495Y-15584962D01*
X14682543Y-15594486D01*
X14720638Y-15594486D01*
X14739686Y-15584962D01*
X14749209Y-15575438D01*
X14758733Y-15556390D01*
X14996828Y-15670676D02*
X14996828Y-15470676D01*
X15082543Y-15670676D02*
X15082543Y-15565914D01*
X15073019Y-15546867D01*
X15053971Y-15537343D01*
X15025400Y-15537343D01*
X15006352Y-15546867D01*
X14996828Y-15556390D01*
X15206352Y-15670676D02*
X15187305Y-15661152D01*
X15177781Y-15651628D01*
X15168257Y-15632581D01*
X15168257Y-15575438D01*
X15177781Y-15556390D01*
X15187305Y-15546867D01*
X15206352Y-15537343D01*
X15234924Y-15537343D01*
X15253971Y-15546867D01*
X15263495Y-15556390D01*
X15273019Y-15575438D01*
X15273019Y-15632581D01*
X15263495Y-15651628D01*
X15253971Y-15661152D01*
X15234924Y-15670676D01*
X15206352Y-15670676D01*
X15387305Y-15670676D02*
X15368257Y-15661152D01*
X15358733Y-15642105D01*
X15358733Y-15470676D01*
X15539686Y-15661152D02*
X15520638Y-15670676D01*
X15482543Y-15670676D01*
X15463495Y-15661152D01*
X15453971Y-15642105D01*
X15453971Y-15565914D01*
X15463495Y-15546867D01*
X15482543Y-15537343D01*
X15520638Y-15537343D01*
X15539686Y-15546867D01*
X15549209Y-15565914D01*
X15549209Y-15584962D01*
X15453971Y-15604009D01*
X15625400Y-15661152D02*
X15644448Y-15670676D01*
X15682543Y-15670676D01*
X15701590Y-15661152D01*
X15711114Y-15642105D01*
X15711114Y-15632581D01*
X15701590Y-15613533D01*
X15682543Y-15604009D01*
X15653971Y-15604009D01*
X15634924Y-15594486D01*
X15625400Y-15575438D01*
X15625400Y-15565914D01*
X15634924Y-15546867D01*
X15653971Y-15537343D01*
X15682543Y-15537343D01*
X15701590Y-15546867D01*
X15777781Y-15746867D02*
X15787305Y-15737343D01*
X15806352Y-15708771D01*
X15815876Y-15689724D01*
X15825400Y-15661152D01*
X15834924Y-15613533D01*
X15834924Y-15575438D01*
X15825400Y-15527819D01*
X15815876Y-15499248D01*
X15806352Y-15480200D01*
X15787305Y-15451628D01*
X15777781Y-15442105D01*
D13*
X10815400Y-15844200D02*
G75*
G03*
X10815400Y-15844200I-50000J0D01*
G01*
D11*
X11177781Y-15934676D02*
X11063495Y-15934676D01*
X11120638Y-15934676D02*
X11120638Y-15734676D01*
X11101590Y-15763248D01*
X11082543Y-15782295D01*
X11063495Y-15791819D01*
X11263495Y-15915628D02*
X11273019Y-15925152D01*
X11263495Y-15934676D01*
X11253971Y-15925152D01*
X11263495Y-15915628D01*
X11263495Y-15934676D01*
X11396828Y-15734676D02*
X11415876Y-15734676D01*
X11434924Y-15744200D01*
X11444448Y-15753724D01*
X11453971Y-15772771D01*
X11463495Y-15810867D01*
X11463495Y-15858486D01*
X11453971Y-15896581D01*
X11444448Y-15915628D01*
X11434924Y-15925152D01*
X11415876Y-15934676D01*
X11396828Y-15934676D01*
X11377781Y-15925152D01*
X11368257Y-15915628D01*
X11358733Y-15896581D01*
X11349209Y-15858486D01*
X11349209Y-15810867D01*
X11358733Y-15772771D01*
X11368257Y-15753724D01*
X11377781Y-15744200D01*
X11396828Y-15734676D01*
X11587305Y-15734676D02*
X11606352Y-15734676D01*
X11625400Y-15744200D01*
X11634924Y-15753724D01*
X11644448Y-15772771D01*
X11653971Y-15810867D01*
X11653971Y-15858486D01*
X11644448Y-15896581D01*
X11634924Y-15915628D01*
X11625400Y-15925152D01*
X11606352Y-15934676D01*
X11587305Y-15934676D01*
X11568257Y-15925152D01*
X11558733Y-15915628D01*
X11549209Y-15896581D01*
X11539686Y-15858486D01*
X11539686Y-15810867D01*
X11549209Y-15772771D01*
X11558733Y-15753724D01*
X11568257Y-15744200D01*
X11587305Y-15734676D01*
X11777781Y-15734676D02*
X11796828Y-15734676D01*
X11815876Y-15744200D01*
X11825400Y-15753724D01*
X11834924Y-15772771D01*
X11844448Y-15810867D01*
X11844448Y-15858486D01*
X11834924Y-15896581D01*
X11825400Y-15915628D01*
X11815876Y-15925152D01*
X11796828Y-15934676D01*
X11777781Y-15934676D01*
X11758733Y-15925152D01*
X11749209Y-15915628D01*
X11739686Y-15896581D01*
X11730162Y-15858486D01*
X11730162Y-15810867D01*
X11739686Y-15772771D01*
X11749209Y-15753724D01*
X11758733Y-15744200D01*
X11777781Y-15734676D01*
X11930162Y-15934676D02*
X11930162Y-15801343D01*
X11930162Y-15820390D02*
X11939686Y-15810867D01*
X11958733Y-15801343D01*
X11987305Y-15801343D01*
X12006352Y-15810867D01*
X12015876Y-15829914D01*
X12015876Y-15934676D01*
X12015876Y-15829914D02*
X12025400Y-15810867D01*
X12044448Y-15801343D01*
X12073019Y-15801343D01*
X12092067Y-15810867D01*
X12101590Y-15829914D01*
X12101590Y-15934676D01*
X12196828Y-15934676D02*
X12196828Y-15801343D01*
X12196828Y-15820390D02*
X12206352Y-15810867D01*
X12225400Y-15801343D01*
X12253971Y-15801343D01*
X12273019Y-15810867D01*
X12282543Y-15829914D01*
X12282543Y-15934676D01*
X12282543Y-15829914D02*
X12292067Y-15810867D01*
X12311114Y-15801343D01*
X12339686Y-15801343D01*
X12358733Y-15810867D01*
X12368257Y-15829914D01*
X12368257Y-15934676D01*
X12758733Y-15725152D02*
X12587305Y-15982295D01*
X13015876Y-15734676D02*
X13034924Y-15734676D01*
X13053971Y-15744200D01*
X13063495Y-15753724D01*
X13073019Y-15772771D01*
X13082543Y-15810867D01*
X13082543Y-15858486D01*
X13073019Y-15896581D01*
X13063495Y-15915628D01*
X13053971Y-15925152D01*
X13034924Y-15934676D01*
X13015876Y-15934676D01*
X12996828Y-15925152D01*
X12987305Y-15915628D01*
X12977781Y-15896581D01*
X12968257Y-15858486D01*
X12968257Y-15810867D01*
X12977781Y-15772771D01*
X12987305Y-15753724D01*
X12996828Y-15744200D01*
X13015876Y-15734676D01*
X13168257Y-15915628D02*
X13177781Y-15925152D01*
X13168257Y-15934676D01*
X13158733Y-15925152D01*
X13168257Y-15915628D01*
X13168257Y-15934676D01*
X13301590Y-15734676D02*
X13320638Y-15734676D01*
X13339686Y-15744200D01*
X13349209Y-15753724D01*
X13358733Y-15772771D01*
X13368257Y-15810867D01*
X13368257Y-15858486D01*
X13358733Y-15896581D01*
X13349209Y-15915628D01*
X13339686Y-15925152D01*
X13320638Y-15934676D01*
X13301590Y-15934676D01*
X13282543Y-15925152D01*
X13273019Y-15915628D01*
X13263495Y-15896581D01*
X13253971Y-15858486D01*
X13253971Y-15810867D01*
X13263495Y-15772771D01*
X13273019Y-15753724D01*
X13282543Y-15744200D01*
X13301590Y-15734676D01*
X13434924Y-15734676D02*
X13558733Y-15734676D01*
X13492067Y-15810867D01*
X13520638Y-15810867D01*
X13539686Y-15820390D01*
X13549209Y-15829914D01*
X13558733Y-15848962D01*
X13558733Y-15896581D01*
X13549209Y-15915628D01*
X13539686Y-15925152D01*
X13520638Y-15934676D01*
X13463495Y-15934676D01*
X13444448Y-15925152D01*
X13434924Y-15915628D01*
X13653971Y-15934676D02*
X13692067Y-15934676D01*
X13711114Y-15925152D01*
X13720638Y-15915628D01*
X13739686Y-15887057D01*
X13749209Y-15848962D01*
X13749209Y-15772771D01*
X13739686Y-15753724D01*
X13730162Y-15744200D01*
X13711114Y-15734676D01*
X13673019Y-15734676D01*
X13653971Y-15744200D01*
X13644448Y-15753724D01*
X13634924Y-15772771D01*
X13634924Y-15820390D01*
X13644448Y-15839438D01*
X13653971Y-15848962D01*
X13673019Y-15858486D01*
X13711114Y-15858486D01*
X13730162Y-15848962D01*
X13739686Y-15839438D01*
X13749209Y-15820390D01*
X13920638Y-15801343D02*
X13920638Y-15934676D01*
X13873019Y-15725152D02*
X13825400Y-15868009D01*
X13949209Y-15868009D01*
X14015876Y-15734676D02*
X14015876Y-15772771D01*
X14092067Y-15734676D02*
X14092067Y-15772771D01*
X14387305Y-16010867D02*
X14377781Y-16001343D01*
X14358733Y-15972771D01*
X14349209Y-15953724D01*
X14339686Y-15925152D01*
X14330162Y-15877533D01*
X14330162Y-15839438D01*
X14339686Y-15791819D01*
X14349209Y-15763248D01*
X14358733Y-15744200D01*
X14377781Y-15715628D01*
X14387305Y-15706105D01*
X14444448Y-15734676D02*
X14568257Y-15734676D01*
X14501590Y-15810867D01*
X14530162Y-15810867D01*
X14549209Y-15820390D01*
X14558733Y-15829914D01*
X14568257Y-15848962D01*
X14568257Y-15896581D01*
X14558733Y-15915628D01*
X14549209Y-15925152D01*
X14530162Y-15934676D01*
X14473019Y-15934676D01*
X14453971Y-15925152D01*
X14444448Y-15915628D01*
X14663495Y-15934676D02*
X14701590Y-15934676D01*
X14720638Y-15925152D01*
X14730162Y-15915628D01*
X14749209Y-15887057D01*
X14758733Y-15848962D01*
X14758733Y-15772771D01*
X14749209Y-15753724D01*
X14739686Y-15744200D01*
X14720638Y-15734676D01*
X14682543Y-15734676D01*
X14663495Y-15744200D01*
X14653971Y-15753724D01*
X14644448Y-15772771D01*
X14644448Y-15820390D01*
X14653971Y-15839438D01*
X14663495Y-15848962D01*
X14682543Y-15858486D01*
X14720638Y-15858486D01*
X14739686Y-15848962D01*
X14749209Y-15839438D01*
X14758733Y-15820390D01*
X14996828Y-15934676D02*
X14996828Y-15734676D01*
X15082543Y-15934676D02*
X15082543Y-15829914D01*
X15073019Y-15810867D01*
X15053971Y-15801343D01*
X15025400Y-15801343D01*
X15006352Y-15810867D01*
X14996828Y-15820390D01*
X15206352Y-15934676D02*
X15187305Y-15925152D01*
X15177781Y-15915628D01*
X15168257Y-15896581D01*
X15168257Y-15839438D01*
X15177781Y-15820390D01*
X15187305Y-15810867D01*
X15206352Y-15801343D01*
X15234924Y-15801343D01*
X15253971Y-15810867D01*
X15263495Y-15820390D01*
X15273019Y-15839438D01*
X15273019Y-15896581D01*
X15263495Y-15915628D01*
X15253971Y-15925152D01*
X15234924Y-15934676D01*
X15206352Y-15934676D01*
X15387305Y-15934676D02*
X15368257Y-15925152D01*
X15358733Y-15906105D01*
X15358733Y-15734676D01*
X15539686Y-15925152D02*
X15520638Y-15934676D01*
X15482543Y-15934676D01*
X15463495Y-15925152D01*
X15453971Y-15906105D01*
X15453971Y-15829914D01*
X15463495Y-15810867D01*
X15482543Y-15801343D01*
X15520638Y-15801343D01*
X15539686Y-15810867D01*
X15549209Y-15829914D01*
X15549209Y-15848962D01*
X15453971Y-15868009D01*
X15625400Y-15925152D02*
X15644448Y-15934676D01*
X15682543Y-15934676D01*
X15701590Y-15925152D01*
X15711114Y-15906105D01*
X15711114Y-15896581D01*
X15701590Y-15877533D01*
X15682543Y-15868009D01*
X15653971Y-15868009D01*
X15634924Y-15858486D01*
X15625400Y-15839438D01*
X15625400Y-15829914D01*
X15634924Y-15810867D01*
X15653971Y-15801343D01*
X15682543Y-15801343D01*
X15701590Y-15810867D01*
X15777781Y-16010867D02*
X15787305Y-16001343D01*
X15806352Y-15972771D01*
X15815876Y-15953724D01*
X15825400Y-15925152D01*
X15834924Y-15877533D01*
X15834924Y-15839438D01*
X15825400Y-15791819D01*
X15815876Y-15763248D01*
X15806352Y-15744200D01*
X15787305Y-15715628D01*
X15777781Y-15706105D01*
D14*
X10764400Y-16057200D02*
X10764400Y-16159200D01*
X10713400Y-16108200D02*
X10815400Y-16108200D01*
D11*
X11177781Y-16198676D02*
X11063495Y-16198676D01*
X11120638Y-16198676D02*
X11120638Y-15998676D01*
X11101590Y-16027248D01*
X11082543Y-16046295D01*
X11063495Y-16055819D01*
X11263495Y-16179628D02*
X11273019Y-16189152D01*
X11263495Y-16198676D01*
X11253971Y-16189152D01*
X11263495Y-16179628D01*
X11263495Y-16198676D01*
X11396828Y-15998676D02*
X11415876Y-15998676D01*
X11434924Y-16008200D01*
X11444448Y-16017724D01*
X11453971Y-16036771D01*
X11463495Y-16074867D01*
X11463495Y-16122486D01*
X11453971Y-16160581D01*
X11444448Y-16179628D01*
X11434924Y-16189152D01*
X11415876Y-16198676D01*
X11396828Y-16198676D01*
X11377781Y-16189152D01*
X11368257Y-16179628D01*
X11358733Y-16160581D01*
X11349209Y-16122486D01*
X11349209Y-16074867D01*
X11358733Y-16036771D01*
X11368257Y-16017724D01*
X11377781Y-16008200D01*
X11396828Y-15998676D01*
X11539686Y-16017724D02*
X11549209Y-16008200D01*
X11568257Y-15998676D01*
X11615876Y-15998676D01*
X11634924Y-16008200D01*
X11644448Y-16017724D01*
X11653971Y-16036771D01*
X11653971Y-16055819D01*
X11644448Y-16084390D01*
X11530162Y-16198676D01*
X11653971Y-16198676D01*
X11777781Y-15998676D02*
X11796828Y-15998676D01*
X11815876Y-16008200D01*
X11825400Y-16017724D01*
X11834924Y-16036771D01*
X11844448Y-16074867D01*
X11844448Y-16122486D01*
X11834924Y-16160581D01*
X11825400Y-16179628D01*
X11815876Y-16189152D01*
X11796828Y-16198676D01*
X11777781Y-16198676D01*
X11758733Y-16189152D01*
X11749209Y-16179628D01*
X11739686Y-16160581D01*
X11730162Y-16122486D01*
X11730162Y-16074867D01*
X11739686Y-16036771D01*
X11749209Y-16017724D01*
X11758733Y-16008200D01*
X11777781Y-15998676D01*
X11930162Y-16198676D02*
X11930162Y-16065343D01*
X11930162Y-16084390D02*
X11939686Y-16074867D01*
X11958733Y-16065343D01*
X11987305Y-16065343D01*
X12006352Y-16074867D01*
X12015876Y-16093914D01*
X12015876Y-16198676D01*
X12015876Y-16093914D02*
X12025400Y-16074867D01*
X12044448Y-16065343D01*
X12073019Y-16065343D01*
X12092067Y-16074867D01*
X12101590Y-16093914D01*
X12101590Y-16198676D01*
X12196828Y-16198676D02*
X12196828Y-16065343D01*
X12196828Y-16084390D02*
X12206352Y-16074867D01*
X12225400Y-16065343D01*
X12253971Y-16065343D01*
X12273019Y-16074867D01*
X12282543Y-16093914D01*
X12282543Y-16198676D01*
X12282543Y-16093914D02*
X12292067Y-16074867D01*
X12311114Y-16065343D01*
X12339686Y-16065343D01*
X12358733Y-16074867D01*
X12368257Y-16093914D01*
X12368257Y-16198676D01*
X12758733Y-15989152D02*
X12587305Y-16246295D01*
X13015876Y-15998676D02*
X13034924Y-15998676D01*
X13053971Y-16008200D01*
X13063495Y-16017724D01*
X13073019Y-16036771D01*
X13082543Y-16074867D01*
X13082543Y-16122486D01*
X13073019Y-16160581D01*
X13063495Y-16179628D01*
X13053971Y-16189152D01*
X13034924Y-16198676D01*
X13015876Y-16198676D01*
X12996828Y-16189152D01*
X12987305Y-16179628D01*
X12977781Y-16160581D01*
X12968257Y-16122486D01*
X12968257Y-16074867D01*
X12977781Y-16036771D01*
X12987305Y-16017724D01*
X12996828Y-16008200D01*
X13015876Y-15998676D01*
X13168257Y-16179628D02*
X13177781Y-16189152D01*
X13168257Y-16198676D01*
X13158733Y-16189152D01*
X13168257Y-16179628D01*
X13168257Y-16198676D01*
X13301590Y-15998676D02*
X13320638Y-15998676D01*
X13339686Y-16008200D01*
X13349209Y-16017724D01*
X13358733Y-16036771D01*
X13368257Y-16074867D01*
X13368257Y-16122486D01*
X13358733Y-16160581D01*
X13349209Y-16179628D01*
X13339686Y-16189152D01*
X13320638Y-16198676D01*
X13301590Y-16198676D01*
X13282543Y-16189152D01*
X13273019Y-16179628D01*
X13263495Y-16160581D01*
X13253971Y-16122486D01*
X13253971Y-16074867D01*
X13263495Y-16036771D01*
X13273019Y-16017724D01*
X13282543Y-16008200D01*
X13301590Y-15998676D01*
X13539686Y-16065343D02*
X13539686Y-16198676D01*
X13492067Y-15989152D02*
X13444448Y-16132009D01*
X13568257Y-16132009D01*
X13682543Y-15998676D02*
X13701590Y-15998676D01*
X13720638Y-16008200D01*
X13730162Y-16017724D01*
X13739686Y-16036771D01*
X13749209Y-16074867D01*
X13749209Y-16122486D01*
X13739686Y-16160581D01*
X13730162Y-16179628D01*
X13720638Y-16189152D01*
X13701590Y-16198676D01*
X13682543Y-16198676D01*
X13663495Y-16189152D01*
X13653971Y-16179628D01*
X13644448Y-16160581D01*
X13634924Y-16122486D01*
X13634924Y-16074867D01*
X13644448Y-16036771D01*
X13653971Y-16017724D01*
X13663495Y-16008200D01*
X13682543Y-15998676D01*
X13825400Y-16017724D02*
X13834924Y-16008200D01*
X13853971Y-15998676D01*
X13901590Y-15998676D01*
X13920638Y-16008200D01*
X13930162Y-16017724D01*
X13939686Y-16036771D01*
X13939686Y-16055819D01*
X13930162Y-16084390D01*
X13815876Y-16198676D01*
X13939686Y-16198676D01*
X14015876Y-15998676D02*
X14015876Y-16036771D01*
X14092067Y-15998676D02*
X14092067Y-16036771D01*
X14387305Y-16274867D02*
X14377781Y-16265343D01*
X14358733Y-16236771D01*
X14349209Y-16217724D01*
X14339686Y-16189152D01*
X14330162Y-16141533D01*
X14330162Y-16103438D01*
X14339686Y-16055819D01*
X14349209Y-16027248D01*
X14358733Y-16008200D01*
X14377781Y-15979628D01*
X14387305Y-15970105D01*
X14549209Y-16065343D02*
X14549209Y-16198676D01*
X14501590Y-15989152D02*
X14453971Y-16132009D01*
X14577781Y-16132009D01*
X14692067Y-15998676D02*
X14711114Y-15998676D01*
X14730162Y-16008200D01*
X14739686Y-16017724D01*
X14749209Y-16036771D01*
X14758733Y-16074867D01*
X14758733Y-16122486D01*
X14749209Y-16160581D01*
X14739686Y-16179628D01*
X14730162Y-16189152D01*
X14711114Y-16198676D01*
X14692067Y-16198676D01*
X14673019Y-16189152D01*
X14663495Y-16179628D01*
X14653971Y-16160581D01*
X14644448Y-16122486D01*
X14644448Y-16074867D01*
X14653971Y-16036771D01*
X14663495Y-16017724D01*
X14673019Y-16008200D01*
X14692067Y-15998676D01*
X14996828Y-16198676D02*
X14996828Y-15998676D01*
X15082543Y-16198676D02*
X15082543Y-16093914D01*
X15073019Y-16074867D01*
X15053971Y-16065343D01*
X15025400Y-16065343D01*
X15006352Y-16074867D01*
X14996828Y-16084390D01*
X15206352Y-16198676D02*
X15187305Y-16189152D01*
X15177781Y-16179628D01*
X15168257Y-16160581D01*
X15168257Y-16103438D01*
X15177781Y-16084390D01*
X15187305Y-16074867D01*
X15206352Y-16065343D01*
X15234924Y-16065343D01*
X15253971Y-16074867D01*
X15263495Y-16084390D01*
X15273019Y-16103438D01*
X15273019Y-16160581D01*
X15263495Y-16179628D01*
X15253971Y-16189152D01*
X15234924Y-16198676D01*
X15206352Y-16198676D01*
X15387305Y-16198676D02*
X15368257Y-16189152D01*
X15358733Y-16170105D01*
X15358733Y-15998676D01*
X15539686Y-16189152D02*
X15520638Y-16198676D01*
X15482543Y-16198676D01*
X15463495Y-16189152D01*
X15453971Y-16170105D01*
X15453971Y-16093914D01*
X15463495Y-16074867D01*
X15482543Y-16065343D01*
X15520638Y-16065343D01*
X15539686Y-16074867D01*
X15549209Y-16093914D01*
X15549209Y-16112962D01*
X15453971Y-16132009D01*
X15625400Y-16189152D02*
X15644448Y-16198676D01*
X15682543Y-16198676D01*
X15701590Y-16189152D01*
X15711114Y-16170105D01*
X15711114Y-16160581D01*
X15701590Y-16141533D01*
X15682543Y-16132009D01*
X15653971Y-16132009D01*
X15634924Y-16122486D01*
X15625400Y-16103438D01*
X15625400Y-16093914D01*
X15634924Y-16074867D01*
X15653971Y-16065343D01*
X15682543Y-16065343D01*
X15701590Y-16074867D01*
X15777781Y-16274867D02*
X15787305Y-16265343D01*
X15806352Y-16236771D01*
X15815876Y-16217724D01*
X15825400Y-16189152D01*
X15834924Y-16141533D01*
X15834924Y-16103438D01*
X15825400Y-16055819D01*
X15815876Y-16027248D01*
X15806352Y-16008200D01*
X15787305Y-15979628D01*
X15777781Y-15970105D01*
M02*
