M48
; DRILL file {KiCad (6.0.0)} date Fri Aug 19 14:17:06 2022
; FORMAT={-:-/ absolute / metric / decimal}
; #@! TF.CreationDate,2022-08-19T14:17:06+02:00
; #@! TF.GenerationSoftware,Kicad,Pcbnew,(6.0.0)
; #@! TF.FileFunction,Plated,1,2,PTH
FMAT,2
METRIC
; #@! TA.AperFunction,Plated,PTH,ViaDrill
T1C0.400
; #@! TA.AperFunction,Plated,PTH,ComponentDrill
T2C1.000
; #@! TA.AperFunction,Plated,PTH,ComponentDrill
T3C1.020
%
G90
G05
T1
X117.856Y-90.678
X118.11Y-129.286
X118.206Y-56.737
X118.303Y-66.548
X118.303Y-76.2
X118.303Y-85.852
X118.364Y-95.504
X118.364Y-105.156
X118.364Y-114.808
X118.364Y-124.46
X118.364Y-134.112
X118.364Y-143.764
X120.491Y-56.737
X120.589Y-66.548
X120.589Y-76.2
X120.589Y-85.852
X120.65Y-95.504
X120.65Y-105.156
X120.65Y-114.808
X120.65Y-124.46
X120.65Y-134.112
X120.65Y-143.764
X122.682Y-78.74
X122.682Y-83.312
X122.682Y-98.044
X122.682Y-102.616
X127.508Y-52.832
X127.508Y-62.738
X127.508Y-72.39
X127.508Y-77.216
X127.508Y-79.502
X127.508Y-82.042
X127.508Y-91.694
X127.508Y-101.346
X127.508Y-106.426
X127.508Y-110.998
X127.508Y-120.65
X127.508Y-130.302
X127.508Y-139.954
X128.27Y-98.298
X129.286Y-73.152
X129.286Y-74.93
X129.54Y-108.712
X130.048Y-85.09
X130.556Y-109.474
X130.81Y-71.628
X130.81Y-76.2
X136.652Y-83.566
X139.7Y-67.564
X139.7Y-68.834
X139.7Y-70.104
X140.716Y-84.074
X145.034Y-140.462
X146.05Y-69.85
X146.05Y-139.192
X147.32Y-69.85
X148.59Y-69.85
X149.606Y-82.55
X155.448Y-71.628
X164.441Y-53.594
X164.441Y-63.5
X164.592Y-73.51
X164.592Y-83.415
X164.592Y-93.218
X164.592Y-103.124
X164.592Y-113.133
X164.592Y-123.039
X164.592Y-132.842
X164.592Y-142.748
X166.981Y-59.332
X166.981Y-69.239
X167.132Y-79.248
X167.132Y-89.154
X167.132Y-98.956
X167.132Y-108.862
X167.132Y-118.872
X167.132Y-128.778
X167.132Y-138.581
X167.132Y-148.487
T2
X111.188Y-57.693
X111.188Y-60.233
X111.188Y-62.773
X111.188Y-65.313
X111.188Y-67.853
X111.188Y-81.188
X111.188Y-83.728
X111.188Y-86.268
X111.188Y-88.808
X111.188Y-107.858
X111.188Y-110.398
X111.188Y-112.938
X111.188Y-115.478
X111.188Y-118.018
X111.188Y-130.083
X111.188Y-132.623
X111.188Y-135.163
X111.188Y-137.703
X111.188Y-140.243
X171.513Y-69.758
X171.513Y-72.298
X171.513Y-74.838
X171.513Y-77.378
X171.513Y-79.918
X171.513Y-82.458
X171.513Y-84.998
X171.513Y-87.538
X171.513Y-97.688
X171.513Y-100.228
X171.513Y-102.768
X171.513Y-105.308
X171.513Y-114.193
X171.513Y-116.733
X171.513Y-119.273
X171.513Y-121.813
X171.513Y-124.353
X171.513Y-126.893
X171.513Y-129.433
X171.513Y-131.973
T3
X133.504Y-87.63
X133.504Y-90.17
X133.504Y-92.71
X133.504Y-95.25
X133.504Y-97.79
X133.504Y-100.33
X133.504Y-102.87
X133.504Y-105.41
X133.504Y-107.95
X133.504Y-110.49
X133.504Y-113.03
X133.504Y-115.57
X133.504Y-118.11
X133.504Y-120.65
X133.504Y-123.19
X133.504Y-125.73
X133.504Y-128.27
X133.504Y-130.81
X133.504Y-133.35
X133.504Y-135.89
X151.284Y-87.63
X151.284Y-90.17
X151.284Y-92.71
X151.284Y-95.25
X151.284Y-97.79
X151.284Y-100.33
X151.284Y-102.87
X151.284Y-105.41
X151.284Y-107.95
X151.284Y-110.49
X151.284Y-113.03
X151.284Y-115.57
X151.284Y-118.11
X151.284Y-120.65
X151.284Y-123.19
X151.284Y-125.73
X151.284Y-128.27
X151.284Y-130.81
X151.284Y-133.35
X151.284Y-135.89
T0
M30
