G04 #@! TF.GenerationSoftware,KiCad,Pcbnew,(6.0.0)*
G04 #@! TF.CreationDate,2022-08-19T14:16:46+02:00*
G04 #@! TF.ProjectId,top,746f702e-6b69-4636-9164-5f7063625858,rev?*
G04 #@! TF.SameCoordinates,Original*
G04 #@! TF.FileFunction,Paste,Top*
G04 #@! TF.FilePolarity,Positive*
%FSLAX46Y46*%
G04 Gerber Fmt 4.6, Leading zero omitted, Abs format (unit mm)*
G04 Created by KiCad (PCBNEW (6.0.0)) date 2022-08-19 14:16:46*
%MOMM*%
%LPD*%
G01*
G04 APERTURE LIST*
G04 Aperture macros list*
%AMRoundRect*
0 Rectangle with rounded corners*
0 $1 Rounding radius*
0 $2 $3 $4 $5 $6 $7 $8 $9 X,Y pos of 4 corners*
0 Add a 4 corners polygon primitive as box body*
4,1,4,$2,$3,$4,$5,$6,$7,$8,$9,$2,$3,0*
0 Add four circle primitives for the rounded corners*
1,1,$1+$1,$2,$3*
1,1,$1+$1,$4,$5*
1,1,$1+$1,$6,$7*
1,1,$1+$1,$8,$9*
0 Add four rect primitives between the rounded corners*
20,1,$1+$1,$2,$3,$4,$5,0*
20,1,$1+$1,$4,$5,$6,$7,0*
20,1,$1+$1,$6,$7,$8,$9,0*
20,1,$1+$1,$8,$9,$2,$3,0*%
G04 Aperture macros list end*
%ADD10R,2.000000X1.780000*%
%ADD11RoundRect,0.200000X0.275000X-0.200000X0.275000X0.200000X-0.275000X0.200000X-0.275000X-0.200000X0*%
%ADD12RoundRect,0.250000X-0.262500X-0.450000X0.262500X-0.450000X0.262500X0.450000X-0.262500X0.450000X0*%
%ADD13RoundRect,0.200000X0.200000X0.275000X-0.200000X0.275000X-0.200000X-0.275000X0.200000X-0.275000X0*%
G04 APERTURE END LIST*
D10*
X115570000Y-73660000D03*
X115570000Y-76200000D03*
X115570000Y-78740000D03*
X125100000Y-78740000D03*
X125100000Y-76200000D03*
X125100000Y-73660000D03*
X159361500Y-61976000D03*
X159361500Y-64516000D03*
X159361500Y-67056000D03*
X166981500Y-67056000D03*
X166981500Y-64516000D03*
X166981500Y-61976000D03*
X115570000Y-83312000D03*
X115570000Y-85852000D03*
X115570000Y-88392000D03*
X125100000Y-88392000D03*
X125100000Y-85852000D03*
X125100000Y-83312000D03*
X115570000Y-64008000D03*
X115570000Y-66548000D03*
X115570000Y-69088000D03*
X125100000Y-69088000D03*
X125100000Y-66548000D03*
X125100000Y-64008000D03*
D11*
X156972000Y-82716500D03*
X156972000Y-81066500D03*
D10*
X115631000Y-141224000D03*
X115631000Y-143764000D03*
X115631000Y-146304000D03*
X125161000Y-146304000D03*
X125161000Y-143764000D03*
X125161000Y-141224000D03*
X159512000Y-131318000D03*
X159512000Y-133858000D03*
X159512000Y-136398000D03*
X167132000Y-136398000D03*
X167132000Y-133858000D03*
X167132000Y-131318000D03*
D11*
X156821500Y-62801000D03*
X156821500Y-61151000D03*
D10*
X159512000Y-101600000D03*
X159512000Y-104140000D03*
X159512000Y-106680000D03*
X167132000Y-106680000D03*
X167132000Y-104140000D03*
X167132000Y-101600000D03*
X115631000Y-102616000D03*
X115631000Y-105156000D03*
X115631000Y-107696000D03*
X125161000Y-107696000D03*
X125161000Y-105156000D03*
X125161000Y-102616000D03*
D12*
X132541000Y-76200000D03*
X134366000Y-76200000D03*
D11*
X156821500Y-52895000D03*
X156821500Y-51245000D03*
X127701000Y-75501000D03*
X127701000Y-73851000D03*
D10*
X159512000Y-121515500D03*
X159512000Y-124055500D03*
X159512000Y-126595500D03*
X167132000Y-126595500D03*
X167132000Y-124055500D03*
X167132000Y-121515500D03*
X159361500Y-52070000D03*
X159361500Y-54610000D03*
X159361500Y-57150000D03*
X166981500Y-57150000D03*
X166981500Y-54610000D03*
X166981500Y-52070000D03*
X115631000Y-131572000D03*
X115631000Y-134112000D03*
X115631000Y-136652000D03*
X125161000Y-136652000D03*
X125161000Y-134112000D03*
X125161000Y-131572000D03*
D11*
X156972000Y-112434500D03*
X156972000Y-110784500D03*
D12*
X132541000Y-78740000D03*
X134366000Y-78740000D03*
D11*
X127762000Y-94805000D03*
X127762000Y-93155000D03*
X156972000Y-92519000D03*
X156972000Y-90869000D03*
D13*
X134175000Y-73914000D03*
X132525000Y-73914000D03*
D11*
X156972000Y-72810500D03*
X156972000Y-71160500D03*
D10*
X136967000Y-76200000D03*
X136967000Y-78740000D03*
X136967000Y-81280000D03*
X146497000Y-81280000D03*
X146497000Y-78740000D03*
X146497000Y-76200000D03*
D11*
X156972000Y-102425000D03*
X156972000Y-100775000D03*
D10*
X159512000Y-71985500D03*
X159512000Y-74525500D03*
X159512000Y-77065500D03*
X167132000Y-77065500D03*
X167132000Y-74525500D03*
X167132000Y-71985500D03*
D11*
X127701000Y-85153000D03*
X127701000Y-83503000D03*
X127701000Y-65849000D03*
X127701000Y-64199000D03*
X127762000Y-133413000D03*
X127762000Y-131763000D03*
X127603500Y-56038500D03*
X127603500Y-54388500D03*
X156972000Y-122340500D03*
X156972000Y-120690500D03*
D10*
X159512000Y-141224000D03*
X159512000Y-143764000D03*
X159512000Y-146304000D03*
X167132000Y-146304000D03*
X167132000Y-143764000D03*
X167132000Y-141224000D03*
X159512000Y-111609500D03*
X159512000Y-114149500D03*
X159512000Y-116689500D03*
X167132000Y-116689500D03*
X167132000Y-114149500D03*
X167132000Y-111609500D03*
X115631000Y-92964000D03*
X115631000Y-95504000D03*
X115631000Y-98044000D03*
X125161000Y-98044000D03*
X125161000Y-95504000D03*
X125161000Y-92964000D03*
D11*
X127762000Y-143065000D03*
X127762000Y-141415000D03*
X127762000Y-114109000D03*
X127762000Y-112459000D03*
D10*
X115472500Y-54197500D03*
X115472500Y-56737500D03*
X115472500Y-59277500D03*
X125002500Y-59277500D03*
X125002500Y-56737500D03*
X125002500Y-54197500D03*
X159512000Y-81891500D03*
X159512000Y-84431500D03*
X159512000Y-86971500D03*
X167132000Y-86971500D03*
X167132000Y-84431500D03*
X167132000Y-81891500D03*
D11*
X156972000Y-132143000D03*
X156972000Y-130493000D03*
X127762000Y-123761000D03*
X127762000Y-122111000D03*
D10*
X115631000Y-121920000D03*
X115631000Y-124460000D03*
X115631000Y-127000000D03*
X125161000Y-127000000D03*
X125161000Y-124460000D03*
X125161000Y-121920000D03*
D11*
X127762000Y-104457000D03*
X127762000Y-102807000D03*
D10*
X115631000Y-112268000D03*
X115631000Y-114808000D03*
X115631000Y-117348000D03*
X125161000Y-117348000D03*
X125161000Y-114808000D03*
X125161000Y-112268000D03*
D11*
X156972000Y-142049000D03*
X156972000Y-140399000D03*
D10*
X159512000Y-91694000D03*
X159512000Y-94234000D03*
X159512000Y-96774000D03*
X167132000Y-96774000D03*
X167132000Y-94234000D03*
X167132000Y-91694000D03*
M02*
