%FSLAX45Y45*%
G04 Gerber Fmt 4.5, Leading zero omitted, Abs format (unit mm)*
G04 Created by KiCad (PCBNEW (6.0.0)) date 2022-08-19 14:17:07*
%MOMM*%
%LPD*%
G01*
G04 APERTURE LIST*
%TA.AperFunction,Profile*%
%ADD10C,0.100000*%
%TD*%
%ADD11C,0.200000*%
G04 APERTURE END LIST*
D10*
X17475200Y-14935200D02*
X17475200Y-4851400D01*
X10820400Y-14935200D02*
X10820400Y-4851400D01*
X10820400Y-4851400D02*
X17475200Y-4851400D01*
X10820400Y-14935200D02*
X17475200Y-14935200D01*
D11*
X11073019Y-15250676D02*
X11073019Y-15050676D01*
X11120638Y-15050676D01*
X11149210Y-15060200D01*
X11168257Y-15079248D01*
X11177781Y-15098295D01*
X11187305Y-15136390D01*
X11187305Y-15164962D01*
X11177781Y-15203057D01*
X11168257Y-15222105D01*
X11149210Y-15241152D01*
X11120638Y-15250676D01*
X11073019Y-15250676D01*
X11273019Y-15250676D02*
X11273019Y-15117343D01*
X11273019Y-15155438D02*
X11282543Y-15136390D01*
X11292067Y-15126867D01*
X11311114Y-15117343D01*
X11330162Y-15117343D01*
X11396828Y-15250676D02*
X11396828Y-15117343D01*
X11396828Y-15050676D02*
X11387305Y-15060200D01*
X11396828Y-15069724D01*
X11406352Y-15060200D01*
X11396828Y-15050676D01*
X11396828Y-15069724D01*
X11520638Y-15250676D02*
X11501590Y-15241152D01*
X11492067Y-15222105D01*
X11492067Y-15050676D01*
X11625400Y-15250676D02*
X11606352Y-15241152D01*
X11596828Y-15222105D01*
X11596828Y-15050676D01*
X11853971Y-15250676D02*
X11853971Y-15050676D01*
X11920638Y-15193533D01*
X11987305Y-15050676D01*
X11987305Y-15250676D01*
X12168257Y-15250676D02*
X12168257Y-15145914D01*
X12158733Y-15126867D01*
X12139686Y-15117343D01*
X12101590Y-15117343D01*
X12082543Y-15126867D01*
X12168257Y-15241152D02*
X12149209Y-15250676D01*
X12101590Y-15250676D01*
X12082543Y-15241152D01*
X12073019Y-15222105D01*
X12073019Y-15203057D01*
X12082543Y-15184009D01*
X12101590Y-15174486D01*
X12149209Y-15174486D01*
X12168257Y-15164962D01*
X12263495Y-15117343D02*
X12263495Y-15317343D01*
X12263495Y-15126867D02*
X12282543Y-15117343D01*
X12320638Y-15117343D01*
X12339686Y-15126867D01*
X12349209Y-15136390D01*
X12358733Y-15155438D01*
X12358733Y-15212581D01*
X12349209Y-15231628D01*
X12339686Y-15241152D01*
X12320638Y-15250676D01*
X12282543Y-15250676D01*
X12263495Y-15241152D01*
X12444448Y-15231628D02*
X12453971Y-15241152D01*
X12444448Y-15250676D01*
X12434924Y-15241152D01*
X12444448Y-15231628D01*
X12444448Y-15250676D01*
X12444448Y-15126867D02*
X12453971Y-15136390D01*
X12444448Y-15145914D01*
X12434924Y-15136390D01*
X12444448Y-15126867D01*
X12444448Y-15145914D01*
M02*
