M48
; DRILL file {KiCad (7.0.0)} date Sat Jan 27 17:52:15 2024
; FORMAT={-:-/ absolute / inch / decimal}
; #@! TF.CreationDate,2024-01-27T17:52:15+01:00
; #@! TF.GenerationSoftware,Kicad,Pcbnew,(7.0.0)
; #@! TF.FileFunction,Plated,1,2,PTH
FMAT,2
INCH
; #@! TA.AperFunction,Plated,PTH,ViaDrill
T1C0.0157
; #@! TA.AperFunction,Plated,PTH,ViaDrill
T2C0.0236
; #@! TA.AperFunction,Plated,PTH,ComponentDrill
T3C0.0276
; #@! TA.AperFunction,Plated,PTH,ComponentDrill
T4C0.0299
; #@! TA.AperFunction,Plated,PTH,ComponentDrill
T5C0.0315
; #@! TA.AperFunction,Plated,PTH,ComponentDrill
T6C0.0394
; #@! TA.AperFunction,Plated,PTH,ComponentDrill
T7C0.0433
; #@! TA.AperFunction,Plated,PTH,ComponentDrill
T8C0.0512
; #@! TA.AperFunction,Plated,PTH,ComponentDrill
T9C0.0598
; #@! TA.AperFunction,Plated,PTH,ComponentDrill
T10C0.0984
; #@! TA.AperFunction,Plated,PTH,ComponentDrill
T11C0.1260
; #@! TA.AperFunction,Plated,PTH,ComponentDrill
T12C0.1969
%
G90
G05
T1
X4.85Y-2.75
X4.95Y-2.8
X4.95Y-2.9
X5.0Y-2.75
X5.0Y-2.9
X5.05Y-2.7
X5.05Y-2.9
X5.15Y-3.25
X5.3Y-2.7
X5.35Y-2.75
X5.75Y-2.975
X5.8Y-2.6
X6.25Y-2.975
X6.3Y-2.6
X6.75Y-2.975
X6.8Y-2.6
X6.8Y-2.7
X7.25Y-2.975
X7.55Y-2.8
X7.6Y-2.7
X7.7Y-2.25
X7.7Y-2.75
X8.05Y-2.8
T2
X4.7625Y-2.175
X4.9375Y-2.325
T3
X6.6843Y-1.9094
X6.7843Y-1.9094
X6.8843Y-1.9094
X6.9843Y-1.9094
X7.7843Y-1.9094
X7.8843Y-1.9094
X7.9843Y-1.9094
X8.0843Y-1.9094
T4
X4.248Y-3.3465
X4.948Y-3.1465
X4.948Y-3.3465
T5
X4.248Y-2.1465
X4.248Y-2.3465
T6
X6.4606Y-1.9094
X6.6864Y-2.2453
X6.6864Y-3.2453
X6.7864Y-2.2453
X6.7864Y-3.2453
X6.8864Y-2.2453
X6.8864Y-3.2453
X6.9864Y-2.2453
X6.9864Y-3.2453
X7.0864Y-2.2453
X7.0864Y-3.2453
X7.1864Y-2.2453
X7.1864Y-3.2453
X7.2864Y-2.2453
X7.2864Y-3.2453
X7.3864Y-2.2453
X7.3864Y-3.2453
X7.4864Y-2.2453
X7.4864Y-3.2453
X7.5864Y-2.2453
X7.5864Y-3.2453
T7
X2.9728Y-2.6307
X2.9728Y-2.7307
X2.9728Y-2.8307
X3.2459Y-2.6303
X3.2459Y-2.7303
X3.2459Y-2.8303
X3.6817Y-2.6283
X3.6817Y-2.7283
X3.6817Y-2.8283
X3.9547Y-2.628
X3.9547Y-2.728
X3.9547Y-2.828
T8
X7.4Y-3.45
X7.4Y-4.3358
T9
X5.2157Y-2.0157
X5.4157Y-2.0157
X5.6157Y-2.0157
X5.8157Y-2.0157
X6.0157Y-2.0157
X6.2157Y-2.0157
T10
X3.11Y-2.2307
X3.11Y-3.2307
X3.8189Y-2.2283
X3.8189Y-3.2283
T11
X3.4341Y-2.251
X7.9518Y-2.251
X7.9518Y-4.3868
T12
X6.4364Y-2.1953
X6.4364Y-3.2953
T0
M30
