%TF.GenerationSoftware,KiCad,Pcbnew,(7.0.0)*%
%TF.CreationDate,2024-01-27T17:52:15+01:00*%
%TF.ProjectId,bed-smart-plug,6265642d-736d-4617-9274-2d706c75672e,rev?*%
%TF.SameCoordinates,Original*%
%TF.FileFunction,Copper,L2,Bot*%
%TF.FilePolarity,Positive*%
%FSLAX46Y46*%
G04 Gerber Fmt 4.6, Leading zero omitted, Abs format (unit mm)*
G04 Created by KiCad (PCBNEW (7.0.0)) date 2024-01-27 17:52:15*
%MOMM*%
%LPD*%
G01*
G04 APERTURE LIST*
%TA.AperFunction,ComponentPad*%
%ADD10C,6.000000*%
%TD*%
%TA.AperFunction,ComponentPad*%
%ADD11C,6.400000*%
%TD*%
%TA.AperFunction,ComponentPad*%
%ADD12C,8.000000*%
%TD*%
%TA.AperFunction,ComponentPad*%
%ADD13C,3.000000*%
%TD*%
%TA.AperFunction,ComponentPad*%
%ADD14O,2.000000X1.905000*%
%TD*%
%TA.AperFunction,ComponentPad*%
%ADD15R,2.000000X1.905000*%
%TD*%
%TA.AperFunction,ComponentPad*%
%ADD16R,1.700000X1.700000*%
%TD*%
%TA.AperFunction,ComponentPad*%
%ADD17R,1.778000X1.778000*%
%TD*%
%TA.AperFunction,ComponentPad*%
%ADD18C,1.778000*%
%TD*%
%TA.AperFunction,ComponentPad*%
%ADD19C,1.200000*%
%TD*%
%TA.AperFunction,ComponentPad*%
%ADD20R,2.300000X2.000000*%
%TD*%
%TA.AperFunction,ComponentPad*%
%ADD21C,2.300000*%
%TD*%
%TA.AperFunction,ComponentPad*%
%ADD22R,3.000000X3.000000*%
%TD*%
%TA.AperFunction,ViaPad*%
%ADD23C,1.200000*%
%TD*%
%TA.AperFunction,ViaPad*%
%ADD24C,0.800000*%
%TD*%
%TA.AperFunction,Conductor*%
%ADD25C,0.250000*%
%TD*%
%TA.AperFunction,Conductor*%
%ADD26C,1.000000*%
%TD*%
G04 APERTURE END LIST*
D10*
%TO.P,HS1,1*%
%TO.N,N/C*%
X78995000Y-56660000D03*
X78995000Y-82060000D03*
%TD*%
D11*
%TO.P,,1*%
%TO.N,N/C*%
X201975000Y-57175000D03*
%TD*%
D12*
%TO.P,,1*%
%TO.N,N/C*%
X163485000Y-83700000D03*
%TD*%
D13*
%TO.P,F1,1*%
%TO.N,LINE*%
X187960000Y-110130000D03*
%TO.P,F1,2*%
%TO.N,Net-(Q1-A2)*%
X187960000Y-87630000D03*
%TD*%
D11*
%TO.P,,1*%
%TO.N,N/C*%
X87225000Y-57175000D03*
%TD*%
D14*
%TO.P,Q3,3,G*%
%TO.N,Net-(Q3-G)*%
X93514999Y-71839999D03*
%TO.P,Q3,2,A2*%
%TO.N,Net-(Q1-A2)*%
X93514999Y-69299999D03*
D15*
%TO.P,Q3,1,A1*%
%TO.N,Net-(J2-Pin_5)*%
X93514999Y-66759999D03*
%TD*%
D12*
%TO.P,,1*%
%TO.N,N/C*%
X163485000Y-55760000D03*
%TD*%
D16*
%TO.P,AE1,1,A*%
%TO.N,Net-(AE1-A)*%
X164099999Y-48499999D03*
%TD*%
D17*
%TO.P,U1,1,+5V*%
%TO.N,+5V*%
X169834999Y-82429999D03*
D18*
%TO.P,U1,2,+3.3V_(out)*%
%TO.N,+3V3*%
X172375000Y-82430000D03*
%TO.P,U1,3,GND*%
%TO.N,GND*%
X174915000Y-82430000D03*
%TO.P,U1,4,ESP_EN*%
%TO.N,unconnected-(U1-ESP_EN-Pad4)*%
X177455000Y-82430000D03*
%TO.P,U1,5,GPIO0*%
%TO.N,unconnected-(U1-GPIO0-Pad5)*%
X179995000Y-82430000D03*
%TO.P,U1,6,GPIO1*%
%TO.N,unconnected-(U1-GPIO1-Pad6)*%
X182535000Y-82430000D03*
%TO.P,U1,7,GPIO2*%
%TO.N,Net-(U1-GPIO2)*%
X185075000Y-82430000D03*
%TO.P,U1,8,GPIO3*%
%TO.N,Net-(U1-GPIO3)*%
X187615000Y-82430000D03*
%TO.P,U1,9,GPIO4*%
%TO.N,Net-(U1-GPIO4)*%
X190155000Y-82430000D03*
%TO.P,U1,10,GPIO5*%
%TO.N,Net-(U1-GPIO5)*%
X192695000Y-82430000D03*
%TO.P,U1,11,GPIO13*%
%TO.N,Net-(U1-GPIO13)*%
X192695000Y-57030000D03*
%TO.P,U1,12,GPIO14*%
%TO.N,unconnected-(U1-GPIO14-Pad12)*%
X190155000Y-57030000D03*
%TO.P,U1,13,GPIO15*%
%TO.N,unconnected-(U1-GPIO15-Pad13)*%
X187615000Y-57030000D03*
%TO.P,U1,14,GPIO16*%
%TO.N,unconnected-(U1-GPIO16-Pad14)*%
X185075000Y-57030000D03*
%TO.P,U1,15,GPIO32*%
%TO.N,unconnected-(U1-GPIO32-Pad15)*%
X182535000Y-57030000D03*
%TO.P,U1,16,GPIO33*%
%TO.N,unconnected-(U1-GPIO33-Pad16)*%
X179995000Y-57030000D03*
%TO.P,U1,17,GPIO34*%
%TO.N,unconnected-(U1-GPIO34-Pad17)*%
X177455000Y-57030000D03*
%TO.P,U1,18,GPIO35*%
%TO.N,unconnected-(U1-GPIO35-Pad18)*%
X174915000Y-57030000D03*
%TO.P,U1,19,GPIO36*%
%TO.N,Net-(U1-GPIO36)*%
X172375000Y-57030000D03*
%TO.P,U1,20,GPIO39*%
%TO.N,unconnected-(U1-GPIO39-Pad20)*%
X169835000Y-57030000D03*
%TD*%
D14*
%TO.P,Q4,3,G*%
%TO.N,Net-(Q4-G)*%
X100449999Y-66749999D03*
%TO.P,Q4,2,A2*%
%TO.N,Net-(Q1-A2)*%
X100449999Y-69289999D03*
D15*
%TO.P,Q4,1,A1*%
%TO.N,Net-(J2-Pin_6)*%
X100449999Y-71829999D03*
%TD*%
D19*
%TO.P,U2,1,Antenna*%
%TO.N,Net-(AE1-A)*%
X169780000Y-48500000D03*
%TO.P,U2,2,GND*%
%TO.N,GND*%
X172320000Y-48500000D03*
%TO.P,U2,3,GND*%
X174860000Y-48500000D03*
%TO.P,U2,4,VCC*%
%TO.N,+3V3*%
X177400000Y-48500000D03*
%TO.P,U2,5,VCC*%
X197720000Y-48500000D03*
%TO.P,U2,6,DATA*%
%TO.N,Net-(R2-Pad2)*%
X200260000Y-48500000D03*
%TO.P,U2,7,DATA*%
X202800000Y-48500000D03*
%TO.P,U2,8,GND*%
%TO.N,GND*%
X205340000Y-48500000D03*
%TD*%
D20*
%TO.P,PS1,1,AC/L*%
%TO.N,LINE*%
X107899999Y-54519999D03*
D21*
%TO.P,PS1,3,AC/N*%
%TO.N,NEUT*%
X107900000Y-59600000D03*
%TO.P,PS1,5,NC*%
%TO.N,unconnected-(PS1-NC-Pad5)*%
X107900000Y-85000000D03*
%TO.P,PS1,14,-Vo*%
%TO.N,GND*%
X125680000Y-85000000D03*
%TO.P,PS1,16,+Vo*%
%TO.N,+5V*%
X125680000Y-79920000D03*
%TD*%
D22*
%TO.P,J2,1,Pin_1*%
%TO.N,LINE*%
X132479999Y-51199999D03*
D13*
%TO.P,J2,2,Pin_2*%
%TO.N,NEUT*%
X137560000Y-51200000D03*
%TO.P,J2,3,Pin_3*%
%TO.N,Net-(J2-Pin_3)*%
X142640000Y-51200000D03*
%TO.P,J2,4,Pin_4*%
%TO.N,Net-(J2-Pin_4)*%
X147720000Y-51200000D03*
%TO.P,J2,5,Pin_5*%
%TO.N,Net-(J2-Pin_5)*%
X152800000Y-51200000D03*
%TO.P,J2,6,Pin_6*%
%TO.N,Net-(J2-Pin_6)*%
X157880000Y-51200000D03*
%TD*%
D10*
%TO.P,HS2,1*%
%TO.N,N/C*%
X97000000Y-82000000D03*
X97000000Y-56600000D03*
%TD*%
D11*
%TO.P,,1*%
%TO.N,N/C*%
X201975000Y-111425000D03*
%TD*%
D15*
%TO.P,Q2,1,A1*%
%TO.N,Net-(J2-Pin_4)*%
X82444999Y-71889999D03*
D14*
%TO.P,Q2,2,A2*%
%TO.N,Net-(Q1-A2)*%
X82444999Y-69349999D03*
%TO.P,Q2,3,G*%
%TO.N,Net-(Q2-G)*%
X82444999Y-66809999D03*
%TD*%
D15*
%TO.P,Q1,1,A1*%
%TO.N,Net-(J2-Pin_3)*%
X75509999Y-66819999D03*
D14*
%TO.P,Q1,2,A2*%
%TO.N,Net-(Q1-A2)*%
X75509999Y-69359999D03*
%TO.P,Q1,3,G*%
%TO.N,Net-(Q1-G)*%
X75509999Y-71899999D03*
%TD*%
D23*
%TO.N,Net-(J2-Pin_5)*%
X125412500Y-59055000D03*
%TO.N,Net-(J2-Pin_3)*%
X120967500Y-55245000D03*
D24*
%TO.N,Net-(U1-GPIO5)*%
X184150000Y-75565000D03*
%TO.N,Net-(U1-GPIO2)*%
X146050000Y-75565000D03*
%TO.N,Net-(U1-GPIO3)*%
X158750000Y-75565000D03*
%TO.N,Net-(U1-GPIO4)*%
X171450000Y-75565000D03*
%TO.N,GND*%
X130810000Y-82550000D03*
%TO.N,Net-(Q3-G)*%
X125730000Y-71120000D03*
X125730000Y-73660000D03*
%TO.N,Net-(Q2-G)*%
X127000000Y-73660000D03*
X127000000Y-69850000D03*
%TO.N,Net-(Q1-G)*%
X128270000Y-73660000D03*
X128270000Y-68580000D03*
%TO.N,Net-(Q2-G)*%
X135890000Y-69850000D03*
%TO.N,Net-(Q1-G)*%
X134620000Y-68580000D03*
%TO.N,Net-(Q3-G)*%
X172720000Y-68580000D03*
X172720000Y-66040000D03*
%TO.N,Net-(Q2-G)*%
X160020000Y-66040000D03*
%TO.N,Net-(Q1-G)*%
X147320000Y-66040000D03*
%TO.N,Net-(Q1-A2)*%
X123190000Y-69850000D03*
%TO.N,GND*%
X204470000Y-71120000D03*
X191770000Y-71120000D03*
%TO.N,+3V3*%
X195580000Y-69850000D03*
X195580000Y-57150000D03*
%TO.N,Net-(U1-GPIO13)*%
X193040000Y-68580000D03*
%TD*%
D25*
%TO.N,+5V*%
X127495000Y-78105000D02*
X125680000Y-79920000D01*
X169835000Y-79665000D02*
X168275000Y-78105000D01*
X169835000Y-82430000D02*
X169835000Y-79665000D01*
X168275000Y-78105000D02*
X127495000Y-78105000D01*
%TO.N,Net-(U1-GPIO2)*%
X147320000Y-76835000D02*
X146050000Y-75565000D01*
X168910000Y-76835000D02*
X147320000Y-76835000D01*
X184150000Y-79375000D02*
X171450000Y-79375000D01*
X185075000Y-80300000D02*
X184150000Y-79375000D01*
X185075000Y-82430000D02*
X185075000Y-80300000D01*
X171450000Y-79375000D02*
X168910000Y-76835000D01*
%TO.N,Net-(U1-GPIO3)*%
X169545000Y-75565000D02*
X158750000Y-75565000D01*
X185420000Y-78105000D02*
X172085000Y-78105000D01*
X187615000Y-80300000D02*
X185420000Y-78105000D01*
X187615000Y-82430000D02*
X187615000Y-80300000D01*
X172085000Y-78105000D02*
X169545000Y-75565000D01*
D26*
%TO.N,Net-(J2-Pin_3)*%
X95163972Y-61595000D02*
X92623972Y-64135000D01*
X78195000Y-64135000D02*
X75510000Y-66820000D01*
X106680000Y-64135000D02*
X104140000Y-61595000D01*
X104140000Y-61595000D02*
X95163972Y-61595000D01*
X92623972Y-64135000D02*
X78195000Y-64135000D01*
X120967500Y-55245000D02*
X112077500Y-64135000D01*
X112077500Y-64135000D02*
X106680000Y-64135000D01*
%TO.N,Net-(J2-Pin_5)*%
X96140000Y-64135000D02*
X93515000Y-66760000D01*
X102870000Y-64135000D02*
X96140000Y-64135000D01*
X105410000Y-66675000D02*
X102870000Y-64135000D01*
X117792500Y-66675000D02*
X105410000Y-66675000D01*
X125412500Y-59055000D02*
X117792500Y-66675000D01*
%TO.N,LINE*%
X132480000Y-68980000D02*
X132480000Y-51200000D01*
X135890000Y-72390000D02*
X132480000Y-68980000D01*
X196215000Y-101875000D02*
X196215000Y-80010000D01*
X187960000Y-110130000D02*
X196215000Y-101875000D01*
X196215000Y-80010000D02*
X188595000Y-72390000D01*
X188595000Y-72390000D02*
X135890000Y-72390000D01*
D25*
%TO.N,Net-(U1-GPIO5)*%
X192695000Y-80300000D02*
X187960000Y-75565000D01*
X192695000Y-82430000D02*
X192695000Y-80300000D01*
X187960000Y-75565000D02*
X184150000Y-75565000D01*
%TO.N,Net-(U1-GPIO4)*%
X172720000Y-76835000D02*
X171450000Y-75565000D01*
X186690000Y-76835000D02*
X172720000Y-76835000D01*
X190155000Y-80300000D02*
X186690000Y-76835000D01*
X190155000Y-82430000D02*
X190155000Y-80300000D01*
%TO.N,GND*%
X130810000Y-82550000D02*
X128130000Y-82550000D01*
X128130000Y-82550000D02*
X125680000Y-85000000D01*
%TO.N,Net-(Q3-G)*%
X125730000Y-71120000D02*
X125730000Y-73660000D01*
%TO.N,Net-(Q2-G)*%
X127000000Y-69850000D02*
X127000000Y-73660000D01*
%TO.N,Net-(Q1-G)*%
X128270000Y-68580000D02*
X128270000Y-73660000D01*
%TO.N,Net-(Q2-G)*%
X135890000Y-69850000D02*
X156210000Y-69850000D01*
%TO.N,Net-(Q1-G)*%
X134620000Y-68580000D02*
X144780000Y-68580000D01*
%TO.N,Net-(Q3-G)*%
X172720000Y-66040000D02*
X172720000Y-68580000D01*
%TO.N,Net-(Q2-G)*%
X160020000Y-66040000D02*
X156210000Y-69850000D01*
%TO.N,Net-(Q1-G)*%
X147320000Y-66040000D02*
X144780000Y-68580000D01*
%TO.N,Net-(Q1-A2)*%
X123190000Y-69850000D02*
X104775000Y-69850000D01*
X104775000Y-69850000D02*
X104457500Y-70167500D01*
D26*
X123420000Y-89130000D02*
X104457500Y-70167500D01*
X104457500Y-70167500D02*
X103580000Y-69290000D01*
D25*
%TO.N,GND*%
X194310000Y-71120000D02*
X204470000Y-71120000D01*
X203040000Y-50800000D02*
X205340000Y-48500000D01*
X177160000Y-50800000D02*
X194310000Y-50800000D01*
X194310000Y-50800000D02*
X203040000Y-50800000D01*
X174860000Y-48500000D02*
X177160000Y-50800000D01*
X191770000Y-71120000D02*
X194310000Y-71120000D01*
X172320000Y-48500000D02*
X174860000Y-48500000D01*
X194310000Y-50800000D02*
X194310000Y-71120000D01*
%TO.N,+3V3*%
X195580000Y-57150000D02*
X195580000Y-69850000D01*
D26*
%TO.N,Net-(Q1-A2)*%
X82445000Y-69350000D02*
X75520000Y-69350000D01*
X93515000Y-69300000D02*
X82495000Y-69300000D01*
X187960000Y-87630000D02*
X186460000Y-89130000D01*
X75520000Y-69350000D02*
X75510000Y-69360000D01*
X82495000Y-69300000D02*
X82445000Y-69350000D01*
X100450000Y-69290000D02*
X93525000Y-69290000D01*
X103580000Y-69290000D02*
X100450000Y-69290000D01*
X93525000Y-69290000D02*
X93515000Y-69300000D01*
X186460000Y-89130000D02*
X123420000Y-89130000D01*
D25*
%TO.N,Net-(U1-GPIO13)*%
X192695000Y-68235000D02*
X193040000Y-68580000D01*
X192695000Y-57030000D02*
X192695000Y-68235000D01*
%TD*%
M02*
