%TF.GenerationSoftware,KiCad,Pcbnew,8.0.3*%
%TF.CreationDate,2025-06-16T15:41:18+02:00*%
%TF.ProjectId,gate-driver,67617465-2d64-4726-9976-65722e6b6963,rev?*%
%TF.SameCoordinates,Original*%
%TF.FileFunction,Other,Comment*%
%FSLAX46Y46*%
G04 Gerber Fmt 4.6, Leading zero omitted, Abs format (unit mm)*
G04 Created by KiCad (PCBNEW 8.0.3) date 2025-06-16 15:41:18*
%MOMM*%
%LPD*%
G01*
G04 APERTURE LIST*
%ADD10C,0.150000*%
G04 APERTURE END LIST*
D10*
X99658809Y-78954819D02*
X99658809Y-77954819D01*
X100230237Y-78954819D02*
X99801666Y-78383390D01*
X100230237Y-77954819D02*
X99658809Y-78526247D01*
X100658809Y-78431009D02*
X100992142Y-78431009D01*
X101134999Y-78954819D02*
X100658809Y-78954819D01*
X100658809Y-78954819D02*
X100658809Y-77954819D01*
X100658809Y-77954819D02*
X101134999Y-77954819D01*
X101563571Y-78431009D02*
X101896904Y-78431009D01*
X102039761Y-78954819D02*
X101563571Y-78954819D01*
X101563571Y-78954819D02*
X101563571Y-77954819D01*
X101563571Y-77954819D02*
X102039761Y-77954819D01*
X102468333Y-78954819D02*
X102468333Y-77954819D01*
X102468333Y-77954819D02*
X102849285Y-77954819D01*
X102849285Y-77954819D02*
X102944523Y-78002438D01*
X102944523Y-78002438D02*
X102992142Y-78050057D01*
X102992142Y-78050057D02*
X103039761Y-78145295D01*
X103039761Y-78145295D02*
X103039761Y-78288152D01*
X103039761Y-78288152D02*
X102992142Y-78383390D01*
X102992142Y-78383390D02*
X102944523Y-78431009D01*
X102944523Y-78431009D02*
X102849285Y-78478628D01*
X102849285Y-78478628D02*
X102468333Y-78478628D01*
X104420714Y-77954819D02*
X104611190Y-77954819D01*
X104611190Y-77954819D02*
X104706428Y-78002438D01*
X104706428Y-78002438D02*
X104801666Y-78097676D01*
X104801666Y-78097676D02*
X104849285Y-78288152D01*
X104849285Y-78288152D02*
X104849285Y-78621485D01*
X104849285Y-78621485D02*
X104801666Y-78811961D01*
X104801666Y-78811961D02*
X104706428Y-78907200D01*
X104706428Y-78907200D02*
X104611190Y-78954819D01*
X104611190Y-78954819D02*
X104420714Y-78954819D01*
X104420714Y-78954819D02*
X104325476Y-78907200D01*
X104325476Y-78907200D02*
X104230238Y-78811961D01*
X104230238Y-78811961D02*
X104182619Y-78621485D01*
X104182619Y-78621485D02*
X104182619Y-78288152D01*
X104182619Y-78288152D02*
X104230238Y-78097676D01*
X104230238Y-78097676D02*
X104325476Y-78002438D01*
X104325476Y-78002438D02*
X104420714Y-77954819D01*
X105277857Y-77954819D02*
X105277857Y-78764342D01*
X105277857Y-78764342D02*
X105325476Y-78859580D01*
X105325476Y-78859580D02*
X105373095Y-78907200D01*
X105373095Y-78907200D02*
X105468333Y-78954819D01*
X105468333Y-78954819D02*
X105658809Y-78954819D01*
X105658809Y-78954819D02*
X105754047Y-78907200D01*
X105754047Y-78907200D02*
X105801666Y-78859580D01*
X105801666Y-78859580D02*
X105849285Y-78764342D01*
X105849285Y-78764342D02*
X105849285Y-77954819D01*
X106182619Y-77954819D02*
X106754047Y-77954819D01*
X106468333Y-78954819D02*
X106468333Y-77954819D01*
X99492142Y-76414819D02*
X99492142Y-75414819D01*
X99492142Y-75414819D02*
X100063570Y-76414819D01*
X100063570Y-76414819D02*
X100063570Y-75414819D01*
X100682618Y-76414819D02*
X100587380Y-76367200D01*
X100587380Y-76367200D02*
X100539761Y-76319580D01*
X100539761Y-76319580D02*
X100492142Y-76224342D01*
X100492142Y-76224342D02*
X100492142Y-75938628D01*
X100492142Y-75938628D02*
X100539761Y-75843390D01*
X100539761Y-75843390D02*
X100587380Y-75795771D01*
X100587380Y-75795771D02*
X100682618Y-75748152D01*
X100682618Y-75748152D02*
X100825475Y-75748152D01*
X100825475Y-75748152D02*
X100920713Y-75795771D01*
X100920713Y-75795771D02*
X100968332Y-75843390D01*
X100968332Y-75843390D02*
X101015951Y-75938628D01*
X101015951Y-75938628D02*
X101015951Y-76224342D01*
X101015951Y-76224342D02*
X100968332Y-76319580D01*
X100968332Y-76319580D02*
X100920713Y-76367200D01*
X100920713Y-76367200D02*
X100825475Y-76414819D01*
X100825475Y-76414819D02*
X100682618Y-76414819D01*
X102634999Y-76367200D02*
X102539761Y-76414819D01*
X102539761Y-76414819D02*
X102349285Y-76414819D01*
X102349285Y-76414819D02*
X102254047Y-76367200D01*
X102254047Y-76367200D02*
X102206428Y-76319580D01*
X102206428Y-76319580D02*
X102158809Y-76224342D01*
X102158809Y-76224342D02*
X102158809Y-75938628D01*
X102158809Y-75938628D02*
X102206428Y-75843390D01*
X102206428Y-75843390D02*
X102254047Y-75795771D01*
X102254047Y-75795771D02*
X102349285Y-75748152D01*
X102349285Y-75748152D02*
X102539761Y-75748152D01*
X102539761Y-75748152D02*
X102634999Y-75795771D01*
X103206428Y-76414819D02*
X103111190Y-76367200D01*
X103111190Y-76367200D02*
X103063571Y-76319580D01*
X103063571Y-76319580D02*
X103015952Y-76224342D01*
X103015952Y-76224342D02*
X103015952Y-75938628D01*
X103015952Y-75938628D02*
X103063571Y-75843390D01*
X103063571Y-75843390D02*
X103111190Y-75795771D01*
X103111190Y-75795771D02*
X103206428Y-75748152D01*
X103206428Y-75748152D02*
X103349285Y-75748152D01*
X103349285Y-75748152D02*
X103444523Y-75795771D01*
X103444523Y-75795771D02*
X103492142Y-75843390D01*
X103492142Y-75843390D02*
X103539761Y-75938628D01*
X103539761Y-75938628D02*
X103539761Y-76224342D01*
X103539761Y-76224342D02*
X103492142Y-76319580D01*
X103492142Y-76319580D02*
X103444523Y-76367200D01*
X103444523Y-76367200D02*
X103349285Y-76414819D01*
X103349285Y-76414819D02*
X103206428Y-76414819D01*
X103968333Y-75748152D02*
X103968333Y-76748152D01*
X103968333Y-75795771D02*
X104063571Y-75748152D01*
X104063571Y-75748152D02*
X104254047Y-75748152D01*
X104254047Y-75748152D02*
X104349285Y-75795771D01*
X104349285Y-75795771D02*
X104396904Y-75843390D01*
X104396904Y-75843390D02*
X104444523Y-75938628D01*
X104444523Y-75938628D02*
X104444523Y-76224342D01*
X104444523Y-76224342D02*
X104396904Y-76319580D01*
X104396904Y-76319580D02*
X104349285Y-76367200D01*
X104349285Y-76367200D02*
X104254047Y-76414819D01*
X104254047Y-76414819D02*
X104063571Y-76414819D01*
X104063571Y-76414819D02*
X103968333Y-76367200D01*
X104873095Y-75748152D02*
X104873095Y-76748152D01*
X104873095Y-75795771D02*
X104968333Y-75748152D01*
X104968333Y-75748152D02*
X105158809Y-75748152D01*
X105158809Y-75748152D02*
X105254047Y-75795771D01*
X105254047Y-75795771D02*
X105301666Y-75843390D01*
X105301666Y-75843390D02*
X105349285Y-75938628D01*
X105349285Y-75938628D02*
X105349285Y-76224342D01*
X105349285Y-76224342D02*
X105301666Y-76319580D01*
X105301666Y-76319580D02*
X105254047Y-76367200D01*
X105254047Y-76367200D02*
X105158809Y-76414819D01*
X105158809Y-76414819D02*
X104968333Y-76414819D01*
X104968333Y-76414819D02*
X104873095Y-76367200D01*
X106158809Y-76367200D02*
X106063571Y-76414819D01*
X106063571Y-76414819D02*
X105873095Y-76414819D01*
X105873095Y-76414819D02*
X105777857Y-76367200D01*
X105777857Y-76367200D02*
X105730238Y-76271961D01*
X105730238Y-76271961D02*
X105730238Y-75891009D01*
X105730238Y-75891009D02*
X105777857Y-75795771D01*
X105777857Y-75795771D02*
X105873095Y-75748152D01*
X105873095Y-75748152D02*
X106063571Y-75748152D01*
X106063571Y-75748152D02*
X106158809Y-75795771D01*
X106158809Y-75795771D02*
X106206428Y-75891009D01*
X106206428Y-75891009D02*
X106206428Y-75986247D01*
X106206428Y-75986247D02*
X105730238Y-76081485D01*
X106635000Y-76414819D02*
X106635000Y-75748152D01*
X106635000Y-75938628D02*
X106682619Y-75843390D01*
X106682619Y-75843390D02*
X106730238Y-75795771D01*
X106730238Y-75795771D02*
X106825476Y-75748152D01*
X106825476Y-75748152D02*
X106920714Y-75748152D01*
%TO.C,REF\u002A\u002A*%
X101900000Y-82000000D02*
G75*
G02*
X98100000Y-82000000I-1900000J0D01*
G01*
X98100000Y-82000000D02*
G75*
G02*
X101900000Y-82000000I1900000J0D01*
G01*
X101900000Y-50000000D02*
G75*
G02*
X98100000Y-50000000I-1900000J0D01*
G01*
X98100000Y-50000000D02*
G75*
G02*
X101900000Y-50000000I1900000J0D01*
G01*
X141900000Y-50000000D02*
G75*
G02*
X138100000Y-50000000I-1900000J0D01*
G01*
X138100000Y-50000000D02*
G75*
G02*
X141900000Y-50000000I1900000J0D01*
G01*
X141900000Y-82000000D02*
G75*
G02*
X138100000Y-82000000I-1900000J0D01*
G01*
X138100000Y-82000000D02*
G75*
G02*
X141900000Y-82000000I1900000J0D01*
G01*
%TD*%
M02*
