M48
; DRILL file {KiCad 8.0.3} date 2025-06-16T15:41:18+0200
; FORMAT={-:-/ absolute / inch / decimal}
; #@! TF.CreationDate,2025-06-16T15:41:18+02:00
; #@! TF.GenerationSoftware,Kicad,Pcbnew,8.0.3
; #@! TF.FileFunction,Plated,1,2,PTH
FMAT,2
INCH
; #@! TA.AperFunction,Plated,PTH,ComponentDrill
T1C0.0394
; #@! TA.AperFunction,Plated,PTH,ComponentDrill
T2C0.0866
%
G90
G05
T1
X3.6104Y-2.1406
X3.6104Y-2.2406
X3.6104Y-2.3406
X3.6104Y-2.4406
X3.6104Y-2.5406
X3.6104Y-2.6406
X3.6104Y-2.7406
X3.6104Y-2.8406
X4.5104Y-2.1406
X4.5104Y-2.2406
X4.5104Y-2.3406
X4.5104Y-2.4406
X4.5104Y-2.5406
X4.5104Y-2.6406
X4.5104Y-2.7406
X4.5104Y-2.8406
X5.2049Y-2.4752
X5.2049Y-2.5752
X5.2049Y-2.6752
T2
X3.937Y-1.9685
X3.937Y-3.2283
X5.5118Y-1.9685
X5.5118Y-3.2283
M30
