%TF.GenerationSoftware,KiCad,Pcbnew,8.0.3*%
%TF.CreationDate,2025-06-16T15:41:18+02:00*%
%TF.ProjectId,gate-driver,67617465-2d64-4726-9976-65722e6b6963,rev?*%
%TF.SameCoordinates,Original*%
%TF.FileFunction,Copper,L1,Top*%
%TF.FilePolarity,Positive*%
%FSLAX46Y46*%
G04 Gerber Fmt 4.6, Leading zero omitted, Abs format (unit mm)*
G04 Created by KiCad (PCBNEW 8.0.3) date 2025-06-16 15:41:18*
%MOMM*%
%LPD*%
G01*
G04 APERTURE LIST*
%TA.AperFunction,ComponentPad*%
%ADD10R,1.700000X1.700000*%
%TD*%
%TA.AperFunction,ComponentPad*%
%ADD11O,1.700000X1.700000*%
%TD*%
%TA.AperFunction,ComponentPad*%
%ADD12C,3.800000*%
%TD*%
%TA.AperFunction,ComponentPad*%
%ADD13R,2.000000X2.000000*%
%TD*%
%TA.AperFunction,ComponentPad*%
%ADD14O,2.000000X1.600000*%
%TD*%
%TA.AperFunction,Conductor*%
%ADD15C,0.250000*%
%TD*%
G04 APERTURE END LIST*
D10*
%TO.P,J1,1,Pin_1*%
%TO.N,GND*%
X132205000Y-62870000D03*
D11*
%TO.P,J1,2,Pin_2*%
%TO.N,+5V*%
X132205000Y-65410000D03*
%TO.P,J1,3,Pin_3*%
%TO.N,Net-(J1-Pin_3)*%
X132205000Y-67950000D03*
%TD*%
D12*
%TO.P,REF\u002A\u002A,1*%
%TO.N,N/C*%
X100000000Y-82000000D03*
%TD*%
%TO.P,REF\u002A\u002A,1*%
%TO.N,N/C*%
X100000000Y-50000000D03*
%TD*%
%TO.P,REF\u002A\u002A,1*%
%TO.N,N/C*%
X140000000Y-50000000D03*
%TD*%
%TO.P,REF\u002A\u002A,1*%
%TO.N,N/C*%
X140000000Y-82000000D03*
%TD*%
D13*
%TO.P,U1,1,~{RST}*%
%TO.N,unconnected-(U1-~{RST}-Pad1)*%
X114565000Y-72150000D03*
D14*
%TO.P,U1,2,A0*%
%TO.N,unconnected-(U1-A0-Pad2)*%
X114565000Y-69610000D03*
%TO.P,U1,3,D0*%
%TO.N,unconnected-(U1-D0-Pad3)*%
X114565000Y-67070000D03*
%TO.P,U1,4,SCK/D5*%
%TO.N,unconnected-(U1-SCK{slash}D5-Pad4)*%
X114565000Y-64530000D03*
%TO.P,U1,5,MISO/D6*%
%TO.N,unconnected-(U1-MISO{slash}D6-Pad5)*%
X114565000Y-61990000D03*
%TO.P,U1,6,MOSI/D7*%
%TO.N,unconnected-(U1-MOSI{slash}D7-Pad6)*%
X114565000Y-59450000D03*
%TO.P,U1,7,CS/D8*%
%TO.N,unconnected-(U1-CS{slash}D8-Pad7)*%
X114565000Y-56910000D03*
%TO.P,U1,8,3V3*%
%TO.N,unconnected-(U1-3V3-Pad8)*%
X114565000Y-54370000D03*
%TO.P,U1,9,5V*%
%TO.N,+5V*%
X91705000Y-54370000D03*
%TO.P,U1,10,GND*%
%TO.N,GND*%
X91705000Y-56910000D03*
%TO.P,U1,11,D4*%
%TO.N,unconnected-(U1-D4-Pad11)*%
X91705000Y-59450000D03*
%TO.P,U1,12,D3*%
%TO.N,unconnected-(U1-D3-Pad12)*%
X91705000Y-61990000D03*
%TO.P,U1,13,SDA/D2*%
%TO.N,Net-(J1-Pin_3)*%
X91705000Y-64530000D03*
%TO.P,U1,14,SCL/D1*%
%TO.N,unconnected-(U1-SCL{slash}D1-Pad14)*%
X91705000Y-67070000D03*
%TO.P,U1,15,RX*%
%TO.N,unconnected-(U1-RX-Pad15)*%
X91705000Y-69610000D03*
%TO.P,U1,16,TX*%
%TO.N,unconnected-(U1-TX-Pad16)*%
X91705000Y-72150000D03*
%TD*%
D15*
%TO.N,Net-(J1-Pin_3)*%
X91705000Y-64530000D02*
X100045000Y-64530000D01*
X100045000Y-64530000D02*
X112705000Y-51870000D01*
X112705000Y-51870000D02*
X116205000Y-51870000D01*
X116205000Y-51870000D02*
X129205000Y-64870000D01*
X129205000Y-64870000D02*
X129205000Y-66870000D01*
X129205000Y-66870000D02*
X130285000Y-67950000D01*
X130285000Y-67950000D02*
X132205000Y-67950000D01*
%TO.N,GND*%
X91705000Y-56910000D02*
X105665000Y-56910000D01*
X129205000Y-62870000D02*
X132205000Y-62870000D01*
X105665000Y-56910000D02*
X112205000Y-50370000D01*
X112205000Y-50370000D02*
X116705000Y-50370000D01*
X116705000Y-50370000D02*
X129205000Y-62870000D01*
%TO.N,+5V*%
X133665000Y-65410000D02*
X132205000Y-65410000D01*
X134205000Y-59370000D02*
X135205000Y-60370000D01*
X135205000Y-60370000D02*
X135205000Y-63870000D01*
X127705000Y-59370000D02*
X134205000Y-59370000D01*
X135205000Y-63870000D02*
X133665000Y-65410000D01*
X117205000Y-48870000D02*
X127705000Y-59370000D01*
X111705000Y-48870000D02*
X117205000Y-48870000D01*
X106205000Y-54370000D02*
X111705000Y-48870000D01*
X91705000Y-54370000D02*
X106205000Y-54370000D01*
%TD*%
M02*
