%FSLAX45Y45*%
G04 Gerber Fmt 4.5, Leading zero omitted, Abs format (unit mm)*
G04 Created by KiCad (PCBNEW (6.0.0)) date 2022-11-23 20:41:33*
%MOMM*%
%LPD*%
G01*
G04 APERTURE LIST*
%TA.AperFunction,Profile*%
%ADD10C,0.100000*%
%TD*%
%ADD11C,0.200000*%
%ADD12C,0.040000*%
%ADD13C,0.076000*%
%ADD14C,0.080000*%
%ADD15C,0.100000*%
%ADD16C,0.152000*%
G04 APERTURE END LIST*
D10*
X10000000Y-5000000D02*
X20000000Y-5000000D01*
X10000000Y-15000000D02*
X10000000Y-5000000D01*
X20000000Y-15000000D02*
X20000000Y-5000000D01*
X10000000Y-15000000D02*
X20000000Y-15000000D01*
D11*
D12*
X12756200Y-7244400D02*
X12796200Y-7284400D01*
X12796200Y-7244400D02*
X12756200Y-7284400D01*
X14737400Y-13645200D02*
X14777400Y-13685200D01*
X14777400Y-13645200D02*
X14737400Y-13685200D01*
X14737400Y-14026200D02*
X14777400Y-14066200D01*
X14777400Y-14026200D02*
X14737400Y-14066200D01*
X14966000Y-6139500D02*
X15006000Y-6179500D01*
X15006000Y-6139500D02*
X14966000Y-6179500D01*
X15169200Y-6482400D02*
X15209200Y-6522400D01*
X15209200Y-6482400D02*
X15169200Y-6522400D01*
X15601000Y-5822000D02*
X15641000Y-5862000D01*
X15641000Y-5822000D02*
X15601000Y-5862000D01*
X15601000Y-6393500D02*
X15641000Y-6433500D01*
X15641000Y-6393500D02*
X15601000Y-6433500D01*
X15601000Y-7981000D02*
X15641000Y-8021000D01*
X15641000Y-7981000D02*
X15601000Y-8021000D01*
X15601000Y-9568500D02*
X15641000Y-9608500D01*
X15641000Y-9568500D02*
X15601000Y-9608500D01*
X15601000Y-10775000D02*
X15641000Y-10815000D01*
X15641000Y-10775000D02*
X15601000Y-10815000D01*
X15728000Y-7092000D02*
X15768000Y-7132000D01*
X15768000Y-7092000D02*
X15728000Y-7132000D01*
X15728000Y-8679500D02*
X15768000Y-8719500D01*
X15768000Y-8679500D02*
X15728000Y-8719500D01*
X15728000Y-10267000D02*
X15768000Y-10307000D01*
X15768000Y-10267000D02*
X15728000Y-10307000D01*
X15804200Y-12331900D02*
X15844200Y-12371900D01*
X15844200Y-12331900D02*
X15804200Y-12371900D01*
X15855000Y-10965500D02*
X15895000Y-11005500D01*
X15895000Y-10965500D02*
X15855000Y-11005500D01*
X15918500Y-10775000D02*
X15958500Y-10815000D01*
X15958500Y-10775000D02*
X15918500Y-10815000D01*
X15931200Y-12404350D02*
X15971200Y-12444350D01*
X15971200Y-12404350D02*
X15931200Y-12444350D01*
X15931200Y-13594400D02*
X15971200Y-13634400D01*
X15971200Y-13594400D02*
X15931200Y-13634400D01*
X16058200Y-12476800D02*
X16098200Y-12516800D01*
X16098200Y-12476800D02*
X16058200Y-12516800D01*
X16185200Y-12553000D02*
X16225200Y-12593000D01*
X16225200Y-12553000D02*
X16185200Y-12593000D01*
X16236000Y-11600500D02*
X16276000Y-11640500D01*
X16276000Y-11600500D02*
X16236000Y-11640500D01*
X16363000Y-11727500D02*
X16403000Y-11767500D01*
X16403000Y-11727500D02*
X16363000Y-11767500D01*
X16413800Y-12222800D02*
X16453800Y-12262800D01*
X16453800Y-12222800D02*
X16413800Y-12262800D01*
X16617000Y-6012500D02*
X16657000Y-6052500D01*
X16657000Y-6012500D02*
X16617000Y-6052500D01*
X16617000Y-12713051D02*
X16657000Y-12753051D01*
X16657000Y-12713051D02*
X16617000Y-12753051D01*
X16617430Y-12120770D02*
X16657430Y-12160770D01*
X16657430Y-12120770D02*
X16617430Y-12160770D01*
X16718600Y-12121200D02*
X16758600Y-12161200D01*
X16758600Y-12121200D02*
X16718600Y-12161200D01*
X16719030Y-12712621D02*
X16759030Y-12752621D01*
X16759030Y-12712621D02*
X16719030Y-12752621D01*
X17277400Y-13061000D02*
X17317400Y-13101000D01*
X17317400Y-13061000D02*
X17277400Y-13101000D01*
D13*
X11482250Y-11176000D02*
G75*
G03*
X11482250Y-11176000I-38000J0D01*
G01*
X13260250Y-10668000D02*
G75*
G03*
X13260250Y-10668000I-38000J0D01*
G01*
X13260250Y-11176000D02*
G75*
G03*
X13260250Y-11176000I-38000J0D01*
G01*
D14*
X11444250Y-8088000D02*
X11444250Y-8168000D01*
X11404250Y-8128000D02*
X11484250Y-8128000D01*
X11444250Y-8596000D02*
X11444250Y-8676000D01*
X11404250Y-8636000D02*
X11484250Y-8636000D01*
X11569000Y-5623500D02*
X11569000Y-5703500D01*
X11529000Y-5663500D02*
X11609000Y-5663500D01*
X11569000Y-7123500D02*
X11569000Y-7203500D01*
X11529000Y-7163500D02*
X11609000Y-7163500D01*
X13069000Y-6123500D02*
X13069000Y-6203500D01*
X13029000Y-6163500D02*
X13109000Y-6163500D01*
X13069000Y-6623500D02*
X13069000Y-6703500D01*
X13029000Y-6663500D02*
X13109000Y-6663500D01*
D15*
X12531856Y-12159856D02*
X12531856Y-12089144D01*
X12461144Y-12089144D01*
X12461144Y-12159856D01*
X12531856Y-12159856D01*
X12531856Y-14699856D02*
X12531856Y-14629144D01*
X12461144Y-14629144D01*
X12461144Y-14699856D01*
X12531856Y-14699856D01*
X12785856Y-12159856D02*
X12785856Y-12089144D01*
X12715144Y-12089144D01*
X12715144Y-12159856D01*
X12785856Y-12159856D01*
X12785856Y-14699856D02*
X12785856Y-14629144D01*
X12715144Y-14629144D01*
X12715144Y-14699856D01*
X12785856Y-14699856D01*
X13039856Y-12159856D02*
X13039856Y-12089144D01*
X12969144Y-12089144D01*
X12969144Y-12159856D01*
X13039856Y-12159856D01*
X13039856Y-14699856D02*
X13039856Y-14629144D01*
X12969144Y-14629144D01*
X12969144Y-14699856D01*
X13039856Y-14699856D01*
X13293856Y-12159856D02*
X13293856Y-12089144D01*
X13223144Y-12089144D01*
X13223144Y-12159856D01*
X13293856Y-12159856D01*
X13293856Y-14699856D02*
X13293856Y-14629144D01*
X13223144Y-14629144D01*
X13223144Y-14699856D01*
X13293856Y-14699856D01*
X13547856Y-12159856D02*
X13547856Y-12089144D01*
X13477144Y-12089144D01*
X13477144Y-12159856D01*
X13547856Y-12159856D01*
X13547856Y-14699856D02*
X13547856Y-14629144D01*
X13477144Y-14629144D01*
X13477144Y-14699856D01*
X13547856Y-14699856D01*
X13801856Y-12159856D02*
X13801856Y-12089144D01*
X13731144Y-12089144D01*
X13731144Y-12159856D01*
X13801856Y-12159856D01*
X13801856Y-14699856D02*
X13801856Y-14629144D01*
X13731144Y-14629144D01*
X13731144Y-14699856D01*
X13801856Y-14699856D01*
X13878356Y-6893356D02*
X13878356Y-6822644D01*
X13807644Y-6822644D01*
X13807644Y-6893356D01*
X13878356Y-6893356D01*
X13878356Y-7147356D02*
X13878356Y-7076644D01*
X13807644Y-7076644D01*
X13807644Y-7147356D01*
X13878356Y-7147356D01*
X13878356Y-7401356D02*
X13878356Y-7330644D01*
X13807644Y-7330644D01*
X13807644Y-7401356D01*
X13878356Y-7401356D01*
X14055856Y-12159856D02*
X14055856Y-12089144D01*
X13985144Y-12089144D01*
X13985144Y-12159856D01*
X14055856Y-12159856D01*
X14055856Y-14699856D02*
X14055856Y-14629144D01*
X13985144Y-14629144D01*
X13985144Y-14699856D01*
X14055856Y-14699856D01*
X14132356Y-6893356D02*
X14132356Y-6822644D01*
X14061644Y-6822644D01*
X14061644Y-6893356D01*
X14132356Y-6893356D01*
X14132356Y-7147356D02*
X14132356Y-7076644D01*
X14061644Y-7076644D01*
X14061644Y-7147356D01*
X14132356Y-7147356D01*
X14132356Y-7401356D02*
X14132356Y-7330644D01*
X14061644Y-7330644D01*
X14061644Y-7401356D01*
X14132356Y-7401356D01*
X14259356Y-5624856D02*
X14259356Y-5554144D01*
X14188644Y-5554144D01*
X14188644Y-5624856D01*
X14259356Y-5624856D01*
X14259356Y-5878856D02*
X14259356Y-5808144D01*
X14188644Y-5808144D01*
X14188644Y-5878856D01*
X14259356Y-5878856D01*
X14259356Y-6132856D02*
X14259356Y-6062144D01*
X14188644Y-6062144D01*
X14188644Y-6132856D01*
X14259356Y-6132856D01*
X14309856Y-12159856D02*
X14309856Y-12089144D01*
X14239144Y-12089144D01*
X14239144Y-12159856D01*
X14309856Y-12159856D01*
X14309856Y-14699856D02*
X14309856Y-14629144D01*
X14239144Y-14629144D01*
X14239144Y-14699856D01*
X14309856Y-14699856D01*
X14563856Y-12159856D02*
X14563856Y-12089144D01*
X14493144Y-12089144D01*
X14493144Y-12159856D01*
X14563856Y-12159856D01*
X14563856Y-14699856D02*
X14563856Y-14629144D01*
X14493144Y-14629144D01*
X14493144Y-14699856D01*
X14563856Y-14699856D01*
X14639856Y-6894856D02*
X14639856Y-6824144D01*
X14569144Y-6824144D01*
X14569144Y-6894856D01*
X14639856Y-6894856D01*
X14639856Y-7148856D02*
X14639856Y-7078144D01*
X14569144Y-7078144D01*
X14569144Y-7148856D01*
X14639856Y-7148856D01*
X14639856Y-7402856D02*
X14639856Y-7332144D01*
X14569144Y-7332144D01*
X14569144Y-7402856D01*
X14639856Y-7402856D01*
X14639856Y-8482356D02*
X14639856Y-8411644D01*
X14569144Y-8411644D01*
X14569144Y-8482356D01*
X14639856Y-8482356D01*
X14639856Y-8736356D02*
X14639856Y-8665644D01*
X14569144Y-8665644D01*
X14569144Y-8736356D01*
X14639856Y-8736356D01*
X14639856Y-8990356D02*
X14639856Y-8919644D01*
X14569144Y-8919644D01*
X14569144Y-8990356D01*
X14639856Y-8990356D01*
X14639856Y-10069856D02*
X14639856Y-9999144D01*
X14569144Y-9999144D01*
X14569144Y-10069856D01*
X14639856Y-10069856D01*
X14639856Y-10323856D02*
X14639856Y-10253144D01*
X14569144Y-10253144D01*
X14569144Y-10323856D01*
X14639856Y-10323856D01*
X14639856Y-10577856D02*
X14639856Y-10507144D01*
X14569144Y-10507144D01*
X14569144Y-10577856D01*
X14639856Y-10577856D01*
X14817856Y-12159856D02*
X14817856Y-12089144D01*
X14747144Y-12089144D01*
X14747144Y-12159856D01*
X14817856Y-12159856D01*
X14817856Y-14699856D02*
X14817856Y-14629144D01*
X14747144Y-14629144D01*
X14747144Y-14699856D01*
X14817856Y-14699856D01*
X14893856Y-6894856D02*
X14893856Y-6824144D01*
X14823144Y-6824144D01*
X14823144Y-6894856D01*
X14893856Y-6894856D01*
X14893856Y-7148856D02*
X14893856Y-7078144D01*
X14823144Y-7078144D01*
X14823144Y-7148856D01*
X14893856Y-7148856D01*
X14893856Y-7402856D02*
X14893856Y-7332144D01*
X14823144Y-7332144D01*
X14823144Y-7402856D01*
X14893856Y-7402856D01*
X14893856Y-8482356D02*
X14893856Y-8411644D01*
X14823144Y-8411644D01*
X14823144Y-8482356D01*
X14893856Y-8482356D01*
X14893856Y-8736356D02*
X14893856Y-8665644D01*
X14823144Y-8665644D01*
X14823144Y-8736356D01*
X14893856Y-8736356D01*
X14893856Y-8990356D02*
X14893856Y-8919644D01*
X14823144Y-8919644D01*
X14823144Y-8990356D01*
X14893856Y-8990356D01*
X14893856Y-10069856D02*
X14893856Y-9999144D01*
X14823144Y-9999144D01*
X14823144Y-10069856D01*
X14893856Y-10069856D01*
X14893856Y-10323856D02*
X14893856Y-10253144D01*
X14823144Y-10253144D01*
X14823144Y-10323856D01*
X14893856Y-10323856D01*
X14893856Y-10577856D02*
X14893856Y-10507144D01*
X14823144Y-10507144D01*
X14823144Y-10577856D01*
X14893856Y-10577856D01*
X16354856Y-6512356D02*
X16354856Y-6441644D01*
X16284144Y-6441644D01*
X16284144Y-6512356D01*
X16354856Y-6512356D01*
X16354856Y-6766356D02*
X16354856Y-6695644D01*
X16284144Y-6695644D01*
X16284144Y-6766356D01*
X16354856Y-6766356D01*
X16354856Y-7020356D02*
X16354856Y-6949644D01*
X16284144Y-6949644D01*
X16284144Y-7020356D01*
X16354856Y-7020356D01*
X16354856Y-8099856D02*
X16354856Y-8029144D01*
X16284144Y-8029144D01*
X16284144Y-8099856D01*
X16354856Y-8099856D01*
X16354856Y-8353856D02*
X16354856Y-8283144D01*
X16284144Y-8283144D01*
X16284144Y-8353856D01*
X16354856Y-8353856D01*
X16354856Y-8607856D02*
X16354856Y-8537144D01*
X16284144Y-8537144D01*
X16284144Y-8607856D01*
X16354856Y-8607856D01*
X16354856Y-9687356D02*
X16354856Y-9616644D01*
X16284144Y-9616644D01*
X16284144Y-9687356D01*
X16354856Y-9687356D01*
X16354856Y-9941356D02*
X16354856Y-9870644D01*
X16284144Y-9870644D01*
X16284144Y-9941356D01*
X16354856Y-9941356D01*
X16354856Y-10195356D02*
X16354856Y-10124644D01*
X16284144Y-10124644D01*
X16284144Y-10195356D01*
X16354856Y-10195356D01*
X16735856Y-5432856D02*
X16735856Y-5362144D01*
X16665144Y-5362144D01*
X16665144Y-5432856D01*
X16735856Y-5432856D01*
X17180356Y-5432856D02*
X17180356Y-5362144D01*
X17109644Y-5362144D01*
X17109644Y-5432856D01*
X17180356Y-5432856D01*
X17180356Y-6512356D02*
X17180356Y-6441644D01*
X17109644Y-6441644D01*
X17109644Y-6512356D01*
X17180356Y-6512356D01*
X17180356Y-6766356D02*
X17180356Y-6695644D01*
X17109644Y-6695644D01*
X17109644Y-6766356D01*
X17180356Y-6766356D01*
X17180356Y-7020356D02*
X17180356Y-6949644D01*
X17109644Y-6949644D01*
X17109644Y-7020356D01*
X17180356Y-7020356D01*
X17180356Y-7274356D02*
X17180356Y-7203644D01*
X17109644Y-7203644D01*
X17109644Y-7274356D01*
X17180356Y-7274356D01*
X17180356Y-7528356D02*
X17180356Y-7457644D01*
X17109644Y-7457644D01*
X17109644Y-7528356D01*
X17180356Y-7528356D01*
X17180356Y-8099856D02*
X17180356Y-8029144D01*
X17109644Y-8029144D01*
X17109644Y-8099856D01*
X17180356Y-8099856D01*
X17180356Y-8353856D02*
X17180356Y-8283144D01*
X17109644Y-8283144D01*
X17109644Y-8353856D01*
X17180356Y-8353856D01*
X17180356Y-8607856D02*
X17180356Y-8537144D01*
X17109644Y-8537144D01*
X17109644Y-8607856D01*
X17180356Y-8607856D01*
X17180356Y-8861856D02*
X17180356Y-8791144D01*
X17109644Y-8791144D01*
X17109644Y-8861856D01*
X17180356Y-8861856D01*
X17180356Y-9115856D02*
X17180356Y-9045144D01*
X17109644Y-9045144D01*
X17109644Y-9115856D01*
X17180356Y-9115856D01*
X17180356Y-9687356D02*
X17180356Y-9616644D01*
X17109644Y-9616644D01*
X17109644Y-9687356D01*
X17180356Y-9687356D01*
X17180356Y-9941356D02*
X17180356Y-9870644D01*
X17109644Y-9870644D01*
X17109644Y-9941356D01*
X17180356Y-9941356D01*
X17180356Y-10195356D02*
X17180356Y-10124644D01*
X17109644Y-10124644D01*
X17109644Y-10195356D01*
X17180356Y-10195356D01*
X17180356Y-10449356D02*
X17180356Y-10378644D01*
X17109644Y-10378644D01*
X17109644Y-10449356D01*
X17180356Y-10449356D01*
X17180356Y-10703356D02*
X17180356Y-10632644D01*
X17109644Y-10632644D01*
X17109644Y-10703356D01*
X17180356Y-10703356D01*
X17434356Y-6512356D02*
X17434356Y-6441644D01*
X17363644Y-6441644D01*
X17363644Y-6512356D01*
X17434356Y-6512356D01*
X17434356Y-6766356D02*
X17434356Y-6695644D01*
X17363644Y-6695644D01*
X17363644Y-6766356D01*
X17434356Y-6766356D01*
X17434356Y-7020356D02*
X17434356Y-6949644D01*
X17363644Y-6949644D01*
X17363644Y-7020356D01*
X17434356Y-7020356D01*
X17434356Y-7274356D02*
X17434356Y-7203644D01*
X17363644Y-7203644D01*
X17363644Y-7274356D01*
X17434356Y-7274356D01*
X17434356Y-7528356D02*
X17434356Y-7457644D01*
X17363644Y-7457644D01*
X17363644Y-7528356D01*
X17434356Y-7528356D01*
X17434356Y-8099856D02*
X17434356Y-8029144D01*
X17363644Y-8029144D01*
X17363644Y-8099856D01*
X17434356Y-8099856D01*
X17434356Y-8353856D02*
X17434356Y-8283144D01*
X17363644Y-8283144D01*
X17363644Y-8353856D01*
X17434356Y-8353856D01*
X17434356Y-8607856D02*
X17434356Y-8537144D01*
X17363644Y-8537144D01*
X17363644Y-8607856D01*
X17434356Y-8607856D01*
X17434356Y-8861856D02*
X17434356Y-8791144D01*
X17363644Y-8791144D01*
X17363644Y-8861856D01*
X17434356Y-8861856D01*
X17434356Y-9115856D02*
X17434356Y-9045144D01*
X17363644Y-9045144D01*
X17363644Y-9115856D01*
X17434356Y-9115856D01*
X17434356Y-9687356D02*
X17434356Y-9616644D01*
X17363644Y-9616644D01*
X17363644Y-9687356D01*
X17434356Y-9687356D01*
X17434356Y-9941356D02*
X17434356Y-9870644D01*
X17363644Y-9870644D01*
X17363644Y-9941356D01*
X17434356Y-9941356D01*
X17434356Y-10195356D02*
X17434356Y-10124644D01*
X17363644Y-10124644D01*
X17363644Y-10195356D01*
X17434356Y-10195356D01*
X17434356Y-10449356D02*
X17434356Y-10378644D01*
X17363644Y-10378644D01*
X17363644Y-10449356D01*
X17434356Y-10449356D01*
X17434356Y-10703356D02*
X17434356Y-10632644D01*
X17363644Y-10632644D01*
X17363644Y-10703356D01*
X17434356Y-10703356D01*
X17624856Y-5432856D02*
X17624856Y-5362144D01*
X17554144Y-5362144D01*
X17554144Y-5432856D01*
X17624856Y-5432856D01*
D16*
X10541000Y-5537000D02*
X10617000Y-5461000D01*
X10541000Y-5385000D01*
X10465000Y-5461000D01*
X10541000Y-5537000D01*
X10541000Y-6045000D02*
X10617000Y-5969000D01*
X10541000Y-5893000D01*
X10465000Y-5969000D01*
X10541000Y-6045000D01*
X19494500Y-5473500D02*
X19570500Y-5397500D01*
X19494500Y-5321500D01*
X19418500Y-5397500D01*
X19494500Y-5473500D01*
X19494500Y-5981500D02*
X19570500Y-5905500D01*
X19494500Y-5829500D01*
X19418500Y-5905500D01*
X19494500Y-5981500D01*
X19494500Y-6807000D02*
X19570500Y-6731000D01*
X19494500Y-6655000D01*
X19418500Y-6731000D01*
X19494500Y-6807000D01*
X19494500Y-7315000D02*
X19570500Y-7239000D01*
X19494500Y-7163000D01*
X19418500Y-7239000D01*
X19494500Y-7315000D01*
X19494500Y-8394500D02*
X19570500Y-8318500D01*
X19494500Y-8242500D01*
X19418500Y-8318500D01*
X19494500Y-8394500D01*
X19494500Y-8902500D02*
X19570500Y-8826500D01*
X19494500Y-8750500D01*
X19418500Y-8826500D01*
X19494500Y-8902500D01*
X19494500Y-9982000D02*
X19570500Y-9906000D01*
X19494500Y-9830000D01*
X19418500Y-9906000D01*
X19494500Y-9982000D01*
X19494500Y-10490000D02*
X19570500Y-10414000D01*
X19494500Y-10338000D01*
X19418500Y-10414000D01*
X19494500Y-10490000D01*
D11*
X10252619Y-15315476D02*
X10252619Y-15115476D01*
X10300238Y-15115476D01*
X10328810Y-15125000D01*
X10347857Y-15144048D01*
X10357381Y-15163095D01*
X10366905Y-15201190D01*
X10366905Y-15229762D01*
X10357381Y-15267857D01*
X10347857Y-15286905D01*
X10328810Y-15305952D01*
X10300238Y-15315476D01*
X10252619Y-15315476D01*
X10452619Y-15315476D02*
X10452619Y-15182143D01*
X10452619Y-15220238D02*
X10462143Y-15201190D01*
X10471667Y-15191667D01*
X10490714Y-15182143D01*
X10509762Y-15182143D01*
X10576429Y-15315476D02*
X10576429Y-15182143D01*
X10576429Y-15115476D02*
X10566905Y-15125000D01*
X10576429Y-15134524D01*
X10585952Y-15125000D01*
X10576429Y-15115476D01*
X10576429Y-15134524D01*
X10700238Y-15315476D02*
X10681190Y-15305952D01*
X10671667Y-15286905D01*
X10671667Y-15115476D01*
X10805000Y-15315476D02*
X10785952Y-15305952D01*
X10776429Y-15286905D01*
X10776429Y-15115476D01*
X11033571Y-15315476D02*
X11033571Y-15115476D01*
X11100238Y-15258333D01*
X11166905Y-15115476D01*
X11166905Y-15315476D01*
X11347857Y-15315476D02*
X11347857Y-15210714D01*
X11338333Y-15191667D01*
X11319286Y-15182143D01*
X11281190Y-15182143D01*
X11262143Y-15191667D01*
X11347857Y-15305952D02*
X11328809Y-15315476D01*
X11281190Y-15315476D01*
X11262143Y-15305952D01*
X11252619Y-15286905D01*
X11252619Y-15267857D01*
X11262143Y-15248809D01*
X11281190Y-15239286D01*
X11328809Y-15239286D01*
X11347857Y-15229762D01*
X11443095Y-15182143D02*
X11443095Y-15382143D01*
X11443095Y-15191667D02*
X11462143Y-15182143D01*
X11500238Y-15182143D01*
X11519286Y-15191667D01*
X11528809Y-15201190D01*
X11538333Y-15220238D01*
X11538333Y-15277381D01*
X11528809Y-15296428D01*
X11519286Y-15305952D01*
X11500238Y-15315476D01*
X11462143Y-15315476D01*
X11443095Y-15305952D01*
X11624048Y-15296428D02*
X11633571Y-15305952D01*
X11624048Y-15315476D01*
X11614524Y-15305952D01*
X11624048Y-15296428D01*
X11624048Y-15315476D01*
X11624048Y-15191667D02*
X11633571Y-15201190D01*
X11624048Y-15210714D01*
X11614524Y-15201190D01*
X11624048Y-15191667D01*
X11624048Y-15210714D01*
D12*
X9955000Y-15625000D02*
X9995000Y-15665000D01*
X9995000Y-15625000D02*
X9955000Y-15665000D01*
D11*
X10290714Y-15535476D02*
X10309762Y-15535476D01*
X10328810Y-15545000D01*
X10338333Y-15554524D01*
X10347857Y-15573571D01*
X10357381Y-15611667D01*
X10357381Y-15659286D01*
X10347857Y-15697381D01*
X10338333Y-15716428D01*
X10328810Y-15725952D01*
X10309762Y-15735476D01*
X10290714Y-15735476D01*
X10271667Y-15725952D01*
X10262143Y-15716428D01*
X10252619Y-15697381D01*
X10243095Y-15659286D01*
X10243095Y-15611667D01*
X10252619Y-15573571D01*
X10262143Y-15554524D01*
X10271667Y-15545000D01*
X10290714Y-15535476D01*
X10443095Y-15716428D02*
X10452619Y-15725952D01*
X10443095Y-15735476D01*
X10433571Y-15725952D01*
X10443095Y-15716428D01*
X10443095Y-15735476D01*
X10624048Y-15602143D02*
X10624048Y-15735476D01*
X10576429Y-15525952D02*
X10528810Y-15668809D01*
X10652619Y-15668809D01*
X10766905Y-15535476D02*
X10785952Y-15535476D01*
X10805000Y-15545000D01*
X10814524Y-15554524D01*
X10824048Y-15573571D01*
X10833571Y-15611667D01*
X10833571Y-15659286D01*
X10824048Y-15697381D01*
X10814524Y-15716428D01*
X10805000Y-15725952D01*
X10785952Y-15735476D01*
X10766905Y-15735476D01*
X10747857Y-15725952D01*
X10738333Y-15716428D01*
X10728810Y-15697381D01*
X10719286Y-15659286D01*
X10719286Y-15611667D01*
X10728810Y-15573571D01*
X10738333Y-15554524D01*
X10747857Y-15545000D01*
X10766905Y-15535476D01*
X10957381Y-15535476D02*
X10976429Y-15535476D01*
X10995476Y-15545000D01*
X11005000Y-15554524D01*
X11014524Y-15573571D01*
X11024048Y-15611667D01*
X11024048Y-15659286D01*
X11014524Y-15697381D01*
X11005000Y-15716428D01*
X10995476Y-15725952D01*
X10976429Y-15735476D01*
X10957381Y-15735476D01*
X10938333Y-15725952D01*
X10928810Y-15716428D01*
X10919286Y-15697381D01*
X10909762Y-15659286D01*
X10909762Y-15611667D01*
X10919286Y-15573571D01*
X10928810Y-15554524D01*
X10938333Y-15545000D01*
X10957381Y-15535476D01*
X11109762Y-15735476D02*
X11109762Y-15602143D01*
X11109762Y-15621190D02*
X11119286Y-15611667D01*
X11138333Y-15602143D01*
X11166905Y-15602143D01*
X11185952Y-15611667D01*
X11195476Y-15630714D01*
X11195476Y-15735476D01*
X11195476Y-15630714D02*
X11205000Y-15611667D01*
X11224048Y-15602143D01*
X11252619Y-15602143D01*
X11271667Y-15611667D01*
X11281190Y-15630714D01*
X11281190Y-15735476D01*
X11376428Y-15735476D02*
X11376428Y-15602143D01*
X11376428Y-15621190D02*
X11385952Y-15611667D01*
X11405000Y-15602143D01*
X11433571Y-15602143D01*
X11452619Y-15611667D01*
X11462143Y-15630714D01*
X11462143Y-15735476D01*
X11462143Y-15630714D02*
X11471667Y-15611667D01*
X11490714Y-15602143D01*
X11519286Y-15602143D01*
X11538333Y-15611667D01*
X11547857Y-15630714D01*
X11547857Y-15735476D01*
X11938333Y-15525952D02*
X11766905Y-15783095D01*
X12195476Y-15535476D02*
X12214524Y-15535476D01*
X12233571Y-15545000D01*
X12243095Y-15554524D01*
X12252619Y-15573571D01*
X12262143Y-15611667D01*
X12262143Y-15659286D01*
X12252619Y-15697381D01*
X12243095Y-15716428D01*
X12233571Y-15725952D01*
X12214524Y-15735476D01*
X12195476Y-15735476D01*
X12176428Y-15725952D01*
X12166905Y-15716428D01*
X12157381Y-15697381D01*
X12147857Y-15659286D01*
X12147857Y-15611667D01*
X12157381Y-15573571D01*
X12166905Y-15554524D01*
X12176428Y-15545000D01*
X12195476Y-15535476D01*
X12347857Y-15716428D02*
X12357381Y-15725952D01*
X12347857Y-15735476D01*
X12338333Y-15725952D01*
X12347857Y-15716428D01*
X12347857Y-15735476D01*
X12481190Y-15535476D02*
X12500238Y-15535476D01*
X12519286Y-15545000D01*
X12528809Y-15554524D01*
X12538333Y-15573571D01*
X12547857Y-15611667D01*
X12547857Y-15659286D01*
X12538333Y-15697381D01*
X12528809Y-15716428D01*
X12519286Y-15725952D01*
X12500238Y-15735476D01*
X12481190Y-15735476D01*
X12462143Y-15725952D01*
X12452619Y-15716428D01*
X12443095Y-15697381D01*
X12433571Y-15659286D01*
X12433571Y-15611667D01*
X12443095Y-15573571D01*
X12452619Y-15554524D01*
X12462143Y-15545000D01*
X12481190Y-15535476D01*
X12738333Y-15735476D02*
X12624048Y-15735476D01*
X12681190Y-15735476D02*
X12681190Y-15535476D01*
X12662143Y-15564048D01*
X12643095Y-15583095D01*
X12624048Y-15592619D01*
X12919286Y-15535476D02*
X12824048Y-15535476D01*
X12814524Y-15630714D01*
X12824048Y-15621190D01*
X12843095Y-15611667D01*
X12890714Y-15611667D01*
X12909762Y-15621190D01*
X12919286Y-15630714D01*
X12928809Y-15649762D01*
X12928809Y-15697381D01*
X12919286Y-15716428D01*
X12909762Y-15725952D01*
X12890714Y-15735476D01*
X12843095Y-15735476D01*
X12824048Y-15725952D01*
X12814524Y-15716428D01*
X12995476Y-15535476D02*
X13128809Y-15535476D01*
X13043095Y-15735476D01*
X13195476Y-15535476D02*
X13195476Y-15573571D01*
X13271667Y-15535476D02*
X13271667Y-15573571D01*
X13566905Y-15811667D02*
X13557381Y-15802143D01*
X13538333Y-15773571D01*
X13528809Y-15754524D01*
X13519286Y-15725952D01*
X13509762Y-15678333D01*
X13509762Y-15640238D01*
X13519286Y-15592619D01*
X13528809Y-15564048D01*
X13538333Y-15545000D01*
X13557381Y-15516428D01*
X13566905Y-15506905D01*
X13633571Y-15554524D02*
X13643095Y-15545000D01*
X13662143Y-15535476D01*
X13709762Y-15535476D01*
X13728809Y-15545000D01*
X13738333Y-15554524D01*
X13747857Y-15573571D01*
X13747857Y-15592619D01*
X13738333Y-15621190D01*
X13624048Y-15735476D01*
X13747857Y-15735476D01*
X13843095Y-15735476D02*
X13881190Y-15735476D01*
X13900238Y-15725952D01*
X13909762Y-15716428D01*
X13928809Y-15687857D01*
X13938333Y-15649762D01*
X13938333Y-15573571D01*
X13928809Y-15554524D01*
X13919286Y-15545000D01*
X13900238Y-15535476D01*
X13862143Y-15535476D01*
X13843095Y-15545000D01*
X13833571Y-15554524D01*
X13824048Y-15573571D01*
X13824048Y-15621190D01*
X13833571Y-15640238D01*
X13843095Y-15649762D01*
X13862143Y-15659286D01*
X13900238Y-15659286D01*
X13919286Y-15649762D01*
X13928809Y-15640238D01*
X13938333Y-15621190D01*
X14176428Y-15735476D02*
X14176428Y-15535476D01*
X14262143Y-15735476D02*
X14262143Y-15630714D01*
X14252619Y-15611667D01*
X14233571Y-15602143D01*
X14205000Y-15602143D01*
X14185952Y-15611667D01*
X14176428Y-15621190D01*
X14385952Y-15735476D02*
X14366905Y-15725952D01*
X14357381Y-15716428D01*
X14347857Y-15697381D01*
X14347857Y-15640238D01*
X14357381Y-15621190D01*
X14366905Y-15611667D01*
X14385952Y-15602143D01*
X14414524Y-15602143D01*
X14433571Y-15611667D01*
X14443095Y-15621190D01*
X14452619Y-15640238D01*
X14452619Y-15697381D01*
X14443095Y-15716428D01*
X14433571Y-15725952D01*
X14414524Y-15735476D01*
X14385952Y-15735476D01*
X14566905Y-15735476D02*
X14547857Y-15725952D01*
X14538333Y-15706905D01*
X14538333Y-15535476D01*
X14719286Y-15725952D02*
X14700238Y-15735476D01*
X14662143Y-15735476D01*
X14643095Y-15725952D01*
X14633571Y-15706905D01*
X14633571Y-15630714D01*
X14643095Y-15611667D01*
X14662143Y-15602143D01*
X14700238Y-15602143D01*
X14719286Y-15611667D01*
X14728809Y-15630714D01*
X14728809Y-15649762D01*
X14633571Y-15668809D01*
X14805000Y-15725952D02*
X14824048Y-15735476D01*
X14862143Y-15735476D01*
X14881190Y-15725952D01*
X14890714Y-15706905D01*
X14890714Y-15697381D01*
X14881190Y-15678333D01*
X14862143Y-15668809D01*
X14833571Y-15668809D01*
X14814524Y-15659286D01*
X14805000Y-15640238D01*
X14805000Y-15630714D01*
X14814524Y-15611667D01*
X14833571Y-15602143D01*
X14862143Y-15602143D01*
X14881190Y-15611667D01*
X14957381Y-15811667D02*
X14966905Y-15802143D01*
X14985952Y-15773571D01*
X14995476Y-15754524D01*
X15005000Y-15725952D01*
X15014524Y-15678333D01*
X15014524Y-15640238D01*
X15005000Y-15592619D01*
X14995476Y-15564048D01*
X14985952Y-15545000D01*
X14966905Y-15516428D01*
X14957381Y-15506905D01*
D13*
X9995000Y-15909000D02*
G75*
G03*
X9995000Y-15909000I-38000J0D01*
G01*
D11*
X10290714Y-15799476D02*
X10309762Y-15799476D01*
X10328810Y-15809000D01*
X10338333Y-15818524D01*
X10347857Y-15837571D01*
X10357381Y-15875667D01*
X10357381Y-15923286D01*
X10347857Y-15961381D01*
X10338333Y-15980428D01*
X10328810Y-15989952D01*
X10309762Y-15999476D01*
X10290714Y-15999476D01*
X10271667Y-15989952D01*
X10262143Y-15980428D01*
X10252619Y-15961381D01*
X10243095Y-15923286D01*
X10243095Y-15875667D01*
X10252619Y-15837571D01*
X10262143Y-15818524D01*
X10271667Y-15809000D01*
X10290714Y-15799476D01*
X10443095Y-15980428D02*
X10452619Y-15989952D01*
X10443095Y-15999476D01*
X10433571Y-15989952D01*
X10443095Y-15980428D01*
X10443095Y-15999476D01*
X10519286Y-15799476D02*
X10652619Y-15799476D01*
X10566905Y-15999476D01*
X10814524Y-15799476D02*
X10776429Y-15799476D01*
X10757381Y-15809000D01*
X10747857Y-15818524D01*
X10728810Y-15847095D01*
X10719286Y-15885190D01*
X10719286Y-15961381D01*
X10728810Y-15980428D01*
X10738333Y-15989952D01*
X10757381Y-15999476D01*
X10795476Y-15999476D01*
X10814524Y-15989952D01*
X10824048Y-15980428D01*
X10833571Y-15961381D01*
X10833571Y-15913762D01*
X10824048Y-15894714D01*
X10814524Y-15885190D01*
X10795476Y-15875667D01*
X10757381Y-15875667D01*
X10738333Y-15885190D01*
X10728810Y-15894714D01*
X10719286Y-15913762D01*
X10957381Y-15799476D02*
X10976429Y-15799476D01*
X10995476Y-15809000D01*
X11005000Y-15818524D01*
X11014524Y-15837571D01*
X11024048Y-15875667D01*
X11024048Y-15923286D01*
X11014524Y-15961381D01*
X11005000Y-15980428D01*
X10995476Y-15989952D01*
X10976429Y-15999476D01*
X10957381Y-15999476D01*
X10938333Y-15989952D01*
X10928810Y-15980428D01*
X10919286Y-15961381D01*
X10909762Y-15923286D01*
X10909762Y-15875667D01*
X10919286Y-15837571D01*
X10928810Y-15818524D01*
X10938333Y-15809000D01*
X10957381Y-15799476D01*
X11109762Y-15999476D02*
X11109762Y-15866143D01*
X11109762Y-15885190D02*
X11119286Y-15875667D01*
X11138333Y-15866143D01*
X11166905Y-15866143D01*
X11185952Y-15875667D01*
X11195476Y-15894714D01*
X11195476Y-15999476D01*
X11195476Y-15894714D02*
X11205000Y-15875667D01*
X11224048Y-15866143D01*
X11252619Y-15866143D01*
X11271667Y-15875667D01*
X11281190Y-15894714D01*
X11281190Y-15999476D01*
X11376428Y-15999476D02*
X11376428Y-15866143D01*
X11376428Y-15885190D02*
X11385952Y-15875667D01*
X11405000Y-15866143D01*
X11433571Y-15866143D01*
X11452619Y-15875667D01*
X11462143Y-15894714D01*
X11462143Y-15999476D01*
X11462143Y-15894714D02*
X11471667Y-15875667D01*
X11490714Y-15866143D01*
X11519286Y-15866143D01*
X11538333Y-15875667D01*
X11547857Y-15894714D01*
X11547857Y-15999476D01*
X11938333Y-15789952D02*
X11766905Y-16047095D01*
X12195476Y-15799476D02*
X12214524Y-15799476D01*
X12233571Y-15809000D01*
X12243095Y-15818524D01*
X12252619Y-15837571D01*
X12262143Y-15875667D01*
X12262143Y-15923286D01*
X12252619Y-15961381D01*
X12243095Y-15980428D01*
X12233571Y-15989952D01*
X12214524Y-15999476D01*
X12195476Y-15999476D01*
X12176428Y-15989952D01*
X12166905Y-15980428D01*
X12157381Y-15961381D01*
X12147857Y-15923286D01*
X12147857Y-15875667D01*
X12157381Y-15837571D01*
X12166905Y-15818524D01*
X12176428Y-15809000D01*
X12195476Y-15799476D01*
X12347857Y-15980428D02*
X12357381Y-15989952D01*
X12347857Y-15999476D01*
X12338333Y-15989952D01*
X12347857Y-15980428D01*
X12347857Y-15999476D01*
X12481190Y-15799476D02*
X12500238Y-15799476D01*
X12519286Y-15809000D01*
X12528809Y-15818524D01*
X12538333Y-15837571D01*
X12547857Y-15875667D01*
X12547857Y-15923286D01*
X12538333Y-15961381D01*
X12528809Y-15980428D01*
X12519286Y-15989952D01*
X12500238Y-15999476D01*
X12481190Y-15999476D01*
X12462143Y-15989952D01*
X12452619Y-15980428D01*
X12443095Y-15961381D01*
X12433571Y-15923286D01*
X12433571Y-15875667D01*
X12443095Y-15837571D01*
X12452619Y-15818524D01*
X12462143Y-15809000D01*
X12481190Y-15799476D01*
X12624048Y-15818524D02*
X12633571Y-15809000D01*
X12652619Y-15799476D01*
X12700238Y-15799476D01*
X12719286Y-15809000D01*
X12728809Y-15818524D01*
X12738333Y-15837571D01*
X12738333Y-15856619D01*
X12728809Y-15885190D01*
X12614524Y-15999476D01*
X12738333Y-15999476D01*
X12833571Y-15999476D02*
X12871667Y-15999476D01*
X12890714Y-15989952D01*
X12900238Y-15980428D01*
X12919286Y-15951857D01*
X12928809Y-15913762D01*
X12928809Y-15837571D01*
X12919286Y-15818524D01*
X12909762Y-15809000D01*
X12890714Y-15799476D01*
X12852619Y-15799476D01*
X12833571Y-15809000D01*
X12824048Y-15818524D01*
X12814524Y-15837571D01*
X12814524Y-15885190D01*
X12824048Y-15904238D01*
X12833571Y-15913762D01*
X12852619Y-15923286D01*
X12890714Y-15923286D01*
X12909762Y-15913762D01*
X12919286Y-15904238D01*
X12928809Y-15885190D01*
X13024048Y-15999476D02*
X13062143Y-15999476D01*
X13081190Y-15989952D01*
X13090714Y-15980428D01*
X13109762Y-15951857D01*
X13119286Y-15913762D01*
X13119286Y-15837571D01*
X13109762Y-15818524D01*
X13100238Y-15809000D01*
X13081190Y-15799476D01*
X13043095Y-15799476D01*
X13024048Y-15809000D01*
X13014524Y-15818524D01*
X13005000Y-15837571D01*
X13005000Y-15885190D01*
X13014524Y-15904238D01*
X13024048Y-15913762D01*
X13043095Y-15923286D01*
X13081190Y-15923286D01*
X13100238Y-15913762D01*
X13109762Y-15904238D01*
X13119286Y-15885190D01*
X13195476Y-15799476D02*
X13195476Y-15837571D01*
X13271667Y-15799476D02*
X13271667Y-15837571D01*
X13566905Y-16075667D02*
X13557381Y-16066143D01*
X13538333Y-16037571D01*
X13528809Y-16018524D01*
X13519286Y-15989952D01*
X13509762Y-15942333D01*
X13509762Y-15904238D01*
X13519286Y-15856619D01*
X13528809Y-15828048D01*
X13538333Y-15809000D01*
X13557381Y-15780428D01*
X13566905Y-15770905D01*
X13624048Y-15799476D02*
X13747857Y-15799476D01*
X13681190Y-15875667D01*
X13709762Y-15875667D01*
X13728809Y-15885190D01*
X13738333Y-15894714D01*
X13747857Y-15913762D01*
X13747857Y-15961381D01*
X13738333Y-15980428D01*
X13728809Y-15989952D01*
X13709762Y-15999476D01*
X13652619Y-15999476D01*
X13633571Y-15989952D01*
X13624048Y-15980428D01*
X13985952Y-15999476D02*
X13985952Y-15799476D01*
X14071667Y-15999476D02*
X14071667Y-15894714D01*
X14062143Y-15875667D01*
X14043095Y-15866143D01*
X14014524Y-15866143D01*
X13995476Y-15875667D01*
X13985952Y-15885190D01*
X14195476Y-15999476D02*
X14176428Y-15989952D01*
X14166905Y-15980428D01*
X14157381Y-15961381D01*
X14157381Y-15904238D01*
X14166905Y-15885190D01*
X14176428Y-15875667D01*
X14195476Y-15866143D01*
X14224048Y-15866143D01*
X14243095Y-15875667D01*
X14252619Y-15885190D01*
X14262143Y-15904238D01*
X14262143Y-15961381D01*
X14252619Y-15980428D01*
X14243095Y-15989952D01*
X14224048Y-15999476D01*
X14195476Y-15999476D01*
X14376428Y-15999476D02*
X14357381Y-15989952D01*
X14347857Y-15970905D01*
X14347857Y-15799476D01*
X14528809Y-15989952D02*
X14509762Y-15999476D01*
X14471667Y-15999476D01*
X14452619Y-15989952D01*
X14443095Y-15970905D01*
X14443095Y-15894714D01*
X14452619Y-15875667D01*
X14471667Y-15866143D01*
X14509762Y-15866143D01*
X14528809Y-15875667D01*
X14538333Y-15894714D01*
X14538333Y-15913762D01*
X14443095Y-15932809D01*
X14614524Y-15989952D02*
X14633571Y-15999476D01*
X14671667Y-15999476D01*
X14690714Y-15989952D01*
X14700238Y-15970905D01*
X14700238Y-15961381D01*
X14690714Y-15942333D01*
X14671667Y-15932809D01*
X14643095Y-15932809D01*
X14624048Y-15923286D01*
X14614524Y-15904238D01*
X14614524Y-15894714D01*
X14624048Y-15875667D01*
X14643095Y-15866143D01*
X14671667Y-15866143D01*
X14690714Y-15875667D01*
X14766905Y-16075667D02*
X14776428Y-16066143D01*
X14795476Y-16037571D01*
X14805000Y-16018524D01*
X14814524Y-15989952D01*
X14824048Y-15942333D01*
X14824048Y-15904238D01*
X14814524Y-15856619D01*
X14805000Y-15828048D01*
X14795476Y-15809000D01*
X14776428Y-15780428D01*
X14766905Y-15770905D01*
D14*
X9955000Y-16133000D02*
X9955000Y-16213000D01*
X9915000Y-16173000D02*
X9995000Y-16173000D01*
D11*
X10290714Y-16063476D02*
X10309762Y-16063476D01*
X10328810Y-16073000D01*
X10338333Y-16082524D01*
X10347857Y-16101571D01*
X10357381Y-16139667D01*
X10357381Y-16187286D01*
X10347857Y-16225381D01*
X10338333Y-16244428D01*
X10328810Y-16253952D01*
X10309762Y-16263476D01*
X10290714Y-16263476D01*
X10271667Y-16253952D01*
X10262143Y-16244428D01*
X10252619Y-16225381D01*
X10243095Y-16187286D01*
X10243095Y-16139667D01*
X10252619Y-16101571D01*
X10262143Y-16082524D01*
X10271667Y-16073000D01*
X10290714Y-16063476D01*
X10443095Y-16244428D02*
X10452619Y-16253952D01*
X10443095Y-16263476D01*
X10433571Y-16253952D01*
X10443095Y-16244428D01*
X10443095Y-16263476D01*
X10566905Y-16149190D02*
X10547857Y-16139667D01*
X10538333Y-16130143D01*
X10528810Y-16111095D01*
X10528810Y-16101571D01*
X10538333Y-16082524D01*
X10547857Y-16073000D01*
X10566905Y-16063476D01*
X10605000Y-16063476D01*
X10624048Y-16073000D01*
X10633571Y-16082524D01*
X10643095Y-16101571D01*
X10643095Y-16111095D01*
X10633571Y-16130143D01*
X10624048Y-16139667D01*
X10605000Y-16149190D01*
X10566905Y-16149190D01*
X10547857Y-16158714D01*
X10538333Y-16168238D01*
X10528810Y-16187286D01*
X10528810Y-16225381D01*
X10538333Y-16244428D01*
X10547857Y-16253952D01*
X10566905Y-16263476D01*
X10605000Y-16263476D01*
X10624048Y-16253952D01*
X10633571Y-16244428D01*
X10643095Y-16225381D01*
X10643095Y-16187286D01*
X10633571Y-16168238D01*
X10624048Y-16158714D01*
X10605000Y-16149190D01*
X10766905Y-16063476D02*
X10785952Y-16063476D01*
X10805000Y-16073000D01*
X10814524Y-16082524D01*
X10824048Y-16101571D01*
X10833571Y-16139667D01*
X10833571Y-16187286D01*
X10824048Y-16225381D01*
X10814524Y-16244428D01*
X10805000Y-16253952D01*
X10785952Y-16263476D01*
X10766905Y-16263476D01*
X10747857Y-16253952D01*
X10738333Y-16244428D01*
X10728810Y-16225381D01*
X10719286Y-16187286D01*
X10719286Y-16139667D01*
X10728810Y-16101571D01*
X10738333Y-16082524D01*
X10747857Y-16073000D01*
X10766905Y-16063476D01*
X10957381Y-16063476D02*
X10976429Y-16063476D01*
X10995476Y-16073000D01*
X11005000Y-16082524D01*
X11014524Y-16101571D01*
X11024048Y-16139667D01*
X11024048Y-16187286D01*
X11014524Y-16225381D01*
X11005000Y-16244428D01*
X10995476Y-16253952D01*
X10976429Y-16263476D01*
X10957381Y-16263476D01*
X10938333Y-16253952D01*
X10928810Y-16244428D01*
X10919286Y-16225381D01*
X10909762Y-16187286D01*
X10909762Y-16139667D01*
X10919286Y-16101571D01*
X10928810Y-16082524D01*
X10938333Y-16073000D01*
X10957381Y-16063476D01*
X11109762Y-16263476D02*
X11109762Y-16130143D01*
X11109762Y-16149190D02*
X11119286Y-16139667D01*
X11138333Y-16130143D01*
X11166905Y-16130143D01*
X11185952Y-16139667D01*
X11195476Y-16158714D01*
X11195476Y-16263476D01*
X11195476Y-16158714D02*
X11205000Y-16139667D01*
X11224048Y-16130143D01*
X11252619Y-16130143D01*
X11271667Y-16139667D01*
X11281190Y-16158714D01*
X11281190Y-16263476D01*
X11376428Y-16263476D02*
X11376428Y-16130143D01*
X11376428Y-16149190D02*
X11385952Y-16139667D01*
X11405000Y-16130143D01*
X11433571Y-16130143D01*
X11452619Y-16139667D01*
X11462143Y-16158714D01*
X11462143Y-16263476D01*
X11462143Y-16158714D02*
X11471667Y-16139667D01*
X11490714Y-16130143D01*
X11519286Y-16130143D01*
X11538333Y-16139667D01*
X11547857Y-16158714D01*
X11547857Y-16263476D01*
X11938333Y-16053952D02*
X11766905Y-16311095D01*
X12195476Y-16063476D02*
X12214524Y-16063476D01*
X12233571Y-16073000D01*
X12243095Y-16082524D01*
X12252619Y-16101571D01*
X12262143Y-16139667D01*
X12262143Y-16187286D01*
X12252619Y-16225381D01*
X12243095Y-16244428D01*
X12233571Y-16253952D01*
X12214524Y-16263476D01*
X12195476Y-16263476D01*
X12176428Y-16253952D01*
X12166905Y-16244428D01*
X12157381Y-16225381D01*
X12147857Y-16187286D01*
X12147857Y-16139667D01*
X12157381Y-16101571D01*
X12166905Y-16082524D01*
X12176428Y-16073000D01*
X12195476Y-16063476D01*
X12347857Y-16244428D02*
X12357381Y-16253952D01*
X12347857Y-16263476D01*
X12338333Y-16253952D01*
X12347857Y-16244428D01*
X12347857Y-16263476D01*
X12481190Y-16063476D02*
X12500238Y-16063476D01*
X12519286Y-16073000D01*
X12528809Y-16082524D01*
X12538333Y-16101571D01*
X12547857Y-16139667D01*
X12547857Y-16187286D01*
X12538333Y-16225381D01*
X12528809Y-16244428D01*
X12519286Y-16253952D01*
X12500238Y-16263476D01*
X12481190Y-16263476D01*
X12462143Y-16253952D01*
X12452619Y-16244428D01*
X12443095Y-16225381D01*
X12433571Y-16187286D01*
X12433571Y-16139667D01*
X12443095Y-16101571D01*
X12452619Y-16082524D01*
X12462143Y-16073000D01*
X12481190Y-16063476D01*
X12614524Y-16063476D02*
X12738333Y-16063476D01*
X12671667Y-16139667D01*
X12700238Y-16139667D01*
X12719286Y-16149190D01*
X12728809Y-16158714D01*
X12738333Y-16177762D01*
X12738333Y-16225381D01*
X12728809Y-16244428D01*
X12719286Y-16253952D01*
X12700238Y-16263476D01*
X12643095Y-16263476D01*
X12624048Y-16253952D01*
X12614524Y-16244428D01*
X12928809Y-16263476D02*
X12814524Y-16263476D01*
X12871667Y-16263476D02*
X12871667Y-16063476D01*
X12852619Y-16092048D01*
X12833571Y-16111095D01*
X12814524Y-16120619D01*
X13109762Y-16063476D02*
X13014524Y-16063476D01*
X13005000Y-16158714D01*
X13014524Y-16149190D01*
X13033571Y-16139667D01*
X13081190Y-16139667D01*
X13100238Y-16149190D01*
X13109762Y-16158714D01*
X13119286Y-16177762D01*
X13119286Y-16225381D01*
X13109762Y-16244428D01*
X13100238Y-16253952D01*
X13081190Y-16263476D01*
X13033571Y-16263476D01*
X13014524Y-16253952D01*
X13005000Y-16244428D01*
X13195476Y-16063476D02*
X13195476Y-16101571D01*
X13271667Y-16063476D02*
X13271667Y-16101571D01*
X13566905Y-16339667D02*
X13557381Y-16330143D01*
X13538333Y-16301571D01*
X13528809Y-16282524D01*
X13519286Y-16253952D01*
X13509762Y-16206333D01*
X13509762Y-16168238D01*
X13519286Y-16120619D01*
X13528809Y-16092048D01*
X13538333Y-16073000D01*
X13557381Y-16044428D01*
X13566905Y-16034905D01*
X13728809Y-16063476D02*
X13690714Y-16063476D01*
X13671667Y-16073000D01*
X13662143Y-16082524D01*
X13643095Y-16111095D01*
X13633571Y-16149190D01*
X13633571Y-16225381D01*
X13643095Y-16244428D01*
X13652619Y-16253952D01*
X13671667Y-16263476D01*
X13709762Y-16263476D01*
X13728809Y-16253952D01*
X13738333Y-16244428D01*
X13747857Y-16225381D01*
X13747857Y-16177762D01*
X13738333Y-16158714D01*
X13728809Y-16149190D01*
X13709762Y-16139667D01*
X13671667Y-16139667D01*
X13652619Y-16149190D01*
X13643095Y-16158714D01*
X13633571Y-16177762D01*
X13985952Y-16263476D02*
X13985952Y-16063476D01*
X14071667Y-16263476D02*
X14071667Y-16158714D01*
X14062143Y-16139667D01*
X14043095Y-16130143D01*
X14014524Y-16130143D01*
X13995476Y-16139667D01*
X13985952Y-16149190D01*
X14195476Y-16263476D02*
X14176428Y-16253952D01*
X14166905Y-16244428D01*
X14157381Y-16225381D01*
X14157381Y-16168238D01*
X14166905Y-16149190D01*
X14176428Y-16139667D01*
X14195476Y-16130143D01*
X14224048Y-16130143D01*
X14243095Y-16139667D01*
X14252619Y-16149190D01*
X14262143Y-16168238D01*
X14262143Y-16225381D01*
X14252619Y-16244428D01*
X14243095Y-16253952D01*
X14224048Y-16263476D01*
X14195476Y-16263476D01*
X14376428Y-16263476D02*
X14357381Y-16253952D01*
X14347857Y-16234905D01*
X14347857Y-16063476D01*
X14528809Y-16253952D02*
X14509762Y-16263476D01*
X14471667Y-16263476D01*
X14452619Y-16253952D01*
X14443095Y-16234905D01*
X14443095Y-16158714D01*
X14452619Y-16139667D01*
X14471667Y-16130143D01*
X14509762Y-16130143D01*
X14528809Y-16139667D01*
X14538333Y-16158714D01*
X14538333Y-16177762D01*
X14443095Y-16196809D01*
X14614524Y-16253952D02*
X14633571Y-16263476D01*
X14671667Y-16263476D01*
X14690714Y-16253952D01*
X14700238Y-16234905D01*
X14700238Y-16225381D01*
X14690714Y-16206333D01*
X14671667Y-16196809D01*
X14643095Y-16196809D01*
X14624048Y-16187286D01*
X14614524Y-16168238D01*
X14614524Y-16158714D01*
X14624048Y-16139667D01*
X14643095Y-16130143D01*
X14671667Y-16130143D01*
X14690714Y-16139667D01*
X14766905Y-16339667D02*
X14776428Y-16330143D01*
X14795476Y-16301571D01*
X14805000Y-16282524D01*
X14814524Y-16253952D01*
X14824048Y-16206333D01*
X14824048Y-16168238D01*
X14814524Y-16120619D01*
X14805000Y-16092048D01*
X14795476Y-16073000D01*
X14776428Y-16044428D01*
X14766905Y-16034905D01*
D15*
X9980356Y-16472356D02*
X9980356Y-16401644D01*
X9909644Y-16401644D01*
X9909644Y-16472356D01*
X9980356Y-16472356D01*
D11*
X10357381Y-16527476D02*
X10243095Y-16527476D01*
X10300238Y-16527476D02*
X10300238Y-16327476D01*
X10281190Y-16356048D01*
X10262143Y-16375095D01*
X10243095Y-16384619D01*
X10443095Y-16508428D02*
X10452619Y-16517952D01*
X10443095Y-16527476D01*
X10433571Y-16517952D01*
X10443095Y-16508428D01*
X10443095Y-16527476D01*
X10576429Y-16327476D02*
X10595476Y-16327476D01*
X10614524Y-16337000D01*
X10624048Y-16346524D01*
X10633571Y-16365571D01*
X10643095Y-16403667D01*
X10643095Y-16451286D01*
X10633571Y-16489381D01*
X10624048Y-16508428D01*
X10614524Y-16517952D01*
X10595476Y-16527476D01*
X10576429Y-16527476D01*
X10557381Y-16517952D01*
X10547857Y-16508428D01*
X10538333Y-16489381D01*
X10528810Y-16451286D01*
X10528810Y-16403667D01*
X10538333Y-16365571D01*
X10547857Y-16346524D01*
X10557381Y-16337000D01*
X10576429Y-16327476D01*
X10766905Y-16327476D02*
X10785952Y-16327476D01*
X10805000Y-16337000D01*
X10814524Y-16346524D01*
X10824048Y-16365571D01*
X10833571Y-16403667D01*
X10833571Y-16451286D01*
X10824048Y-16489381D01*
X10814524Y-16508428D01*
X10805000Y-16517952D01*
X10785952Y-16527476D01*
X10766905Y-16527476D01*
X10747857Y-16517952D01*
X10738333Y-16508428D01*
X10728810Y-16489381D01*
X10719286Y-16451286D01*
X10719286Y-16403667D01*
X10728810Y-16365571D01*
X10738333Y-16346524D01*
X10747857Y-16337000D01*
X10766905Y-16327476D01*
X10957381Y-16327476D02*
X10976429Y-16327476D01*
X10995476Y-16337000D01*
X11005000Y-16346524D01*
X11014524Y-16365571D01*
X11024048Y-16403667D01*
X11024048Y-16451286D01*
X11014524Y-16489381D01*
X11005000Y-16508428D01*
X10995476Y-16517952D01*
X10976429Y-16527476D01*
X10957381Y-16527476D01*
X10938333Y-16517952D01*
X10928810Y-16508428D01*
X10919286Y-16489381D01*
X10909762Y-16451286D01*
X10909762Y-16403667D01*
X10919286Y-16365571D01*
X10928810Y-16346524D01*
X10938333Y-16337000D01*
X10957381Y-16327476D01*
X11109762Y-16527476D02*
X11109762Y-16394143D01*
X11109762Y-16413190D02*
X11119286Y-16403667D01*
X11138333Y-16394143D01*
X11166905Y-16394143D01*
X11185952Y-16403667D01*
X11195476Y-16422714D01*
X11195476Y-16527476D01*
X11195476Y-16422714D02*
X11205000Y-16403667D01*
X11224048Y-16394143D01*
X11252619Y-16394143D01*
X11271667Y-16403667D01*
X11281190Y-16422714D01*
X11281190Y-16527476D01*
X11376428Y-16527476D02*
X11376428Y-16394143D01*
X11376428Y-16413190D02*
X11385952Y-16403667D01*
X11405000Y-16394143D01*
X11433571Y-16394143D01*
X11452619Y-16403667D01*
X11462143Y-16422714D01*
X11462143Y-16527476D01*
X11462143Y-16422714D02*
X11471667Y-16403667D01*
X11490714Y-16394143D01*
X11519286Y-16394143D01*
X11538333Y-16403667D01*
X11547857Y-16422714D01*
X11547857Y-16527476D01*
X11938333Y-16317952D02*
X11766905Y-16575095D01*
X12195476Y-16327476D02*
X12214524Y-16327476D01*
X12233571Y-16337000D01*
X12243095Y-16346524D01*
X12252619Y-16365571D01*
X12262143Y-16403667D01*
X12262143Y-16451286D01*
X12252619Y-16489381D01*
X12243095Y-16508428D01*
X12233571Y-16517952D01*
X12214524Y-16527476D01*
X12195476Y-16527476D01*
X12176428Y-16517952D01*
X12166905Y-16508428D01*
X12157381Y-16489381D01*
X12147857Y-16451286D01*
X12147857Y-16403667D01*
X12157381Y-16365571D01*
X12166905Y-16346524D01*
X12176428Y-16337000D01*
X12195476Y-16327476D01*
X12347857Y-16508428D02*
X12357381Y-16517952D01*
X12347857Y-16527476D01*
X12338333Y-16517952D01*
X12347857Y-16508428D01*
X12347857Y-16527476D01*
X12481190Y-16327476D02*
X12500238Y-16327476D01*
X12519286Y-16337000D01*
X12528809Y-16346524D01*
X12538333Y-16365571D01*
X12547857Y-16403667D01*
X12547857Y-16451286D01*
X12538333Y-16489381D01*
X12528809Y-16508428D01*
X12519286Y-16517952D01*
X12500238Y-16527476D01*
X12481190Y-16527476D01*
X12462143Y-16517952D01*
X12452619Y-16508428D01*
X12443095Y-16489381D01*
X12433571Y-16451286D01*
X12433571Y-16403667D01*
X12443095Y-16365571D01*
X12452619Y-16346524D01*
X12462143Y-16337000D01*
X12481190Y-16327476D01*
X12614524Y-16327476D02*
X12738333Y-16327476D01*
X12671667Y-16403667D01*
X12700238Y-16403667D01*
X12719286Y-16413190D01*
X12728809Y-16422714D01*
X12738333Y-16441762D01*
X12738333Y-16489381D01*
X12728809Y-16508428D01*
X12719286Y-16517952D01*
X12700238Y-16527476D01*
X12643095Y-16527476D01*
X12624048Y-16517952D01*
X12614524Y-16508428D01*
X12833571Y-16527476D02*
X12871667Y-16527476D01*
X12890714Y-16517952D01*
X12900238Y-16508428D01*
X12919286Y-16479857D01*
X12928809Y-16441762D01*
X12928809Y-16365571D01*
X12919286Y-16346524D01*
X12909762Y-16337000D01*
X12890714Y-16327476D01*
X12852619Y-16327476D01*
X12833571Y-16337000D01*
X12824048Y-16346524D01*
X12814524Y-16365571D01*
X12814524Y-16413190D01*
X12824048Y-16432238D01*
X12833571Y-16441762D01*
X12852619Y-16451286D01*
X12890714Y-16451286D01*
X12909762Y-16441762D01*
X12919286Y-16432238D01*
X12928809Y-16413190D01*
X13100238Y-16394143D02*
X13100238Y-16527476D01*
X13052619Y-16317952D02*
X13005000Y-16460809D01*
X13128809Y-16460809D01*
X13195476Y-16327476D02*
X13195476Y-16365571D01*
X13271667Y-16327476D02*
X13271667Y-16365571D01*
X13566905Y-16603667D02*
X13557381Y-16594143D01*
X13538333Y-16565571D01*
X13528809Y-16546524D01*
X13519286Y-16517952D01*
X13509762Y-16470333D01*
X13509762Y-16432238D01*
X13519286Y-16384619D01*
X13528809Y-16356048D01*
X13538333Y-16337000D01*
X13557381Y-16308428D01*
X13566905Y-16298905D01*
X13671667Y-16413190D02*
X13652619Y-16403667D01*
X13643095Y-16394143D01*
X13633571Y-16375095D01*
X13633571Y-16365571D01*
X13643095Y-16346524D01*
X13652619Y-16337000D01*
X13671667Y-16327476D01*
X13709762Y-16327476D01*
X13728809Y-16337000D01*
X13738333Y-16346524D01*
X13747857Y-16365571D01*
X13747857Y-16375095D01*
X13738333Y-16394143D01*
X13728809Y-16403667D01*
X13709762Y-16413190D01*
X13671667Y-16413190D01*
X13652619Y-16422714D01*
X13643095Y-16432238D01*
X13633571Y-16451286D01*
X13633571Y-16489381D01*
X13643095Y-16508428D01*
X13652619Y-16517952D01*
X13671667Y-16527476D01*
X13709762Y-16527476D01*
X13728809Y-16517952D01*
X13738333Y-16508428D01*
X13747857Y-16489381D01*
X13747857Y-16451286D01*
X13738333Y-16432238D01*
X13728809Y-16422714D01*
X13709762Y-16413190D01*
X13843095Y-16527476D02*
X13881190Y-16527476D01*
X13900238Y-16517952D01*
X13909762Y-16508428D01*
X13928809Y-16479857D01*
X13938333Y-16441762D01*
X13938333Y-16365571D01*
X13928809Y-16346524D01*
X13919286Y-16337000D01*
X13900238Y-16327476D01*
X13862143Y-16327476D01*
X13843095Y-16337000D01*
X13833571Y-16346524D01*
X13824048Y-16365571D01*
X13824048Y-16413190D01*
X13833571Y-16432238D01*
X13843095Y-16441762D01*
X13862143Y-16451286D01*
X13900238Y-16451286D01*
X13919286Y-16441762D01*
X13928809Y-16432238D01*
X13938333Y-16413190D01*
X14176428Y-16527476D02*
X14176428Y-16327476D01*
X14262143Y-16527476D02*
X14262143Y-16422714D01*
X14252619Y-16403667D01*
X14233571Y-16394143D01*
X14205000Y-16394143D01*
X14185952Y-16403667D01*
X14176428Y-16413190D01*
X14385952Y-16527476D02*
X14366905Y-16517952D01*
X14357381Y-16508428D01*
X14347857Y-16489381D01*
X14347857Y-16432238D01*
X14357381Y-16413190D01*
X14366905Y-16403667D01*
X14385952Y-16394143D01*
X14414524Y-16394143D01*
X14433571Y-16403667D01*
X14443095Y-16413190D01*
X14452619Y-16432238D01*
X14452619Y-16489381D01*
X14443095Y-16508428D01*
X14433571Y-16517952D01*
X14414524Y-16527476D01*
X14385952Y-16527476D01*
X14566905Y-16527476D02*
X14547857Y-16517952D01*
X14538333Y-16498905D01*
X14538333Y-16327476D01*
X14719286Y-16517952D02*
X14700238Y-16527476D01*
X14662143Y-16527476D01*
X14643095Y-16517952D01*
X14633571Y-16498905D01*
X14633571Y-16422714D01*
X14643095Y-16403667D01*
X14662143Y-16394143D01*
X14700238Y-16394143D01*
X14719286Y-16403667D01*
X14728809Y-16422714D01*
X14728809Y-16441762D01*
X14633571Y-16460809D01*
X14805000Y-16517952D02*
X14824048Y-16527476D01*
X14862143Y-16527476D01*
X14881190Y-16517952D01*
X14890714Y-16498905D01*
X14890714Y-16489381D01*
X14881190Y-16470333D01*
X14862143Y-16460809D01*
X14833571Y-16460809D01*
X14814524Y-16451286D01*
X14805000Y-16432238D01*
X14805000Y-16422714D01*
X14814524Y-16403667D01*
X14833571Y-16394143D01*
X14862143Y-16394143D01*
X14881190Y-16403667D01*
X14957381Y-16603667D02*
X14966905Y-16594143D01*
X14985952Y-16565571D01*
X14995476Y-16546524D01*
X15005000Y-16517952D01*
X15014524Y-16470333D01*
X15014524Y-16432238D01*
X15005000Y-16384619D01*
X14995476Y-16356048D01*
X14985952Y-16337000D01*
X14966905Y-16308428D01*
X14957381Y-16298905D01*
D16*
X9919000Y-16777000D02*
X9995000Y-16701000D01*
X9919000Y-16625000D01*
X9843000Y-16701000D01*
X9919000Y-16777000D01*
D11*
X10357381Y-16791476D02*
X10243095Y-16791476D01*
X10300238Y-16791476D02*
X10300238Y-16591476D01*
X10281190Y-16620048D01*
X10262143Y-16639095D01*
X10243095Y-16648619D01*
X10443095Y-16772428D02*
X10452619Y-16781952D01*
X10443095Y-16791476D01*
X10433571Y-16781952D01*
X10443095Y-16772428D01*
X10443095Y-16791476D01*
X10633571Y-16591476D02*
X10538333Y-16591476D01*
X10528810Y-16686714D01*
X10538333Y-16677190D01*
X10557381Y-16667667D01*
X10605000Y-16667667D01*
X10624048Y-16677190D01*
X10633571Y-16686714D01*
X10643095Y-16705762D01*
X10643095Y-16753381D01*
X10633571Y-16772428D01*
X10624048Y-16781952D01*
X10605000Y-16791476D01*
X10557381Y-16791476D01*
X10538333Y-16781952D01*
X10528810Y-16772428D01*
X10719286Y-16610524D02*
X10728810Y-16601000D01*
X10747857Y-16591476D01*
X10795476Y-16591476D01*
X10814524Y-16601000D01*
X10824048Y-16610524D01*
X10833571Y-16629571D01*
X10833571Y-16648619D01*
X10824048Y-16677190D01*
X10709762Y-16791476D01*
X10833571Y-16791476D01*
X10957381Y-16591476D02*
X10976429Y-16591476D01*
X10995476Y-16601000D01*
X11005000Y-16610524D01*
X11014524Y-16629571D01*
X11024048Y-16667667D01*
X11024048Y-16715286D01*
X11014524Y-16753381D01*
X11005000Y-16772428D01*
X10995476Y-16781952D01*
X10976429Y-16791476D01*
X10957381Y-16791476D01*
X10938333Y-16781952D01*
X10928810Y-16772428D01*
X10919286Y-16753381D01*
X10909762Y-16715286D01*
X10909762Y-16667667D01*
X10919286Y-16629571D01*
X10928810Y-16610524D01*
X10938333Y-16601000D01*
X10957381Y-16591476D01*
X11109762Y-16791476D02*
X11109762Y-16658143D01*
X11109762Y-16677190D02*
X11119286Y-16667667D01*
X11138333Y-16658143D01*
X11166905Y-16658143D01*
X11185952Y-16667667D01*
X11195476Y-16686714D01*
X11195476Y-16791476D01*
X11195476Y-16686714D02*
X11205000Y-16667667D01*
X11224048Y-16658143D01*
X11252619Y-16658143D01*
X11271667Y-16667667D01*
X11281190Y-16686714D01*
X11281190Y-16791476D01*
X11376428Y-16791476D02*
X11376428Y-16658143D01*
X11376428Y-16677190D02*
X11385952Y-16667667D01*
X11405000Y-16658143D01*
X11433571Y-16658143D01*
X11452619Y-16667667D01*
X11462143Y-16686714D01*
X11462143Y-16791476D01*
X11462143Y-16686714D02*
X11471667Y-16667667D01*
X11490714Y-16658143D01*
X11519286Y-16658143D01*
X11538333Y-16667667D01*
X11547857Y-16686714D01*
X11547857Y-16791476D01*
X11938333Y-16581952D02*
X11766905Y-16839095D01*
X12195476Y-16591476D02*
X12214524Y-16591476D01*
X12233571Y-16601000D01*
X12243095Y-16610524D01*
X12252619Y-16629571D01*
X12262143Y-16667667D01*
X12262143Y-16715286D01*
X12252619Y-16753381D01*
X12243095Y-16772428D01*
X12233571Y-16781952D01*
X12214524Y-16791476D01*
X12195476Y-16791476D01*
X12176428Y-16781952D01*
X12166905Y-16772428D01*
X12157381Y-16753381D01*
X12147857Y-16715286D01*
X12147857Y-16667667D01*
X12157381Y-16629571D01*
X12166905Y-16610524D01*
X12176428Y-16601000D01*
X12195476Y-16591476D01*
X12347857Y-16772428D02*
X12357381Y-16781952D01*
X12347857Y-16791476D01*
X12338333Y-16781952D01*
X12347857Y-16772428D01*
X12347857Y-16791476D01*
X12481190Y-16591476D02*
X12500238Y-16591476D01*
X12519286Y-16601000D01*
X12528809Y-16610524D01*
X12538333Y-16629571D01*
X12547857Y-16667667D01*
X12547857Y-16715286D01*
X12538333Y-16753381D01*
X12528809Y-16772428D01*
X12519286Y-16781952D01*
X12500238Y-16791476D01*
X12481190Y-16791476D01*
X12462143Y-16781952D01*
X12452619Y-16772428D01*
X12443095Y-16753381D01*
X12433571Y-16715286D01*
X12433571Y-16667667D01*
X12443095Y-16629571D01*
X12452619Y-16610524D01*
X12462143Y-16601000D01*
X12481190Y-16591476D01*
X12728809Y-16591476D02*
X12633571Y-16591476D01*
X12624048Y-16686714D01*
X12633571Y-16677190D01*
X12652619Y-16667667D01*
X12700238Y-16667667D01*
X12719286Y-16677190D01*
X12728809Y-16686714D01*
X12738333Y-16705762D01*
X12738333Y-16753381D01*
X12728809Y-16772428D01*
X12719286Y-16781952D01*
X12700238Y-16791476D01*
X12652619Y-16791476D01*
X12633571Y-16781952D01*
X12624048Y-16772428D01*
X12833571Y-16791476D02*
X12871667Y-16791476D01*
X12890714Y-16781952D01*
X12900238Y-16772428D01*
X12919286Y-16743857D01*
X12928809Y-16705762D01*
X12928809Y-16629571D01*
X12919286Y-16610524D01*
X12909762Y-16601000D01*
X12890714Y-16591476D01*
X12852619Y-16591476D01*
X12833571Y-16601000D01*
X12824048Y-16610524D01*
X12814524Y-16629571D01*
X12814524Y-16677190D01*
X12824048Y-16696238D01*
X12833571Y-16705762D01*
X12852619Y-16715286D01*
X12890714Y-16715286D01*
X12909762Y-16705762D01*
X12919286Y-16696238D01*
X12928809Y-16677190D01*
X13043095Y-16677190D02*
X13024048Y-16667667D01*
X13014524Y-16658143D01*
X13005000Y-16639095D01*
X13005000Y-16629571D01*
X13014524Y-16610524D01*
X13024048Y-16601000D01*
X13043095Y-16591476D01*
X13081190Y-16591476D01*
X13100238Y-16601000D01*
X13109762Y-16610524D01*
X13119286Y-16629571D01*
X13119286Y-16639095D01*
X13109762Y-16658143D01*
X13100238Y-16667667D01*
X13081190Y-16677190D01*
X13043095Y-16677190D01*
X13024048Y-16686714D01*
X13014524Y-16696238D01*
X13005000Y-16715286D01*
X13005000Y-16753381D01*
X13014524Y-16772428D01*
X13024048Y-16781952D01*
X13043095Y-16791476D01*
X13081190Y-16791476D01*
X13100238Y-16781952D01*
X13109762Y-16772428D01*
X13119286Y-16753381D01*
X13119286Y-16715286D01*
X13109762Y-16696238D01*
X13100238Y-16686714D01*
X13081190Y-16677190D01*
X13195476Y-16591476D02*
X13195476Y-16629571D01*
X13271667Y-16591476D02*
X13271667Y-16629571D01*
X13566905Y-16867667D02*
X13557381Y-16858143D01*
X13538333Y-16829571D01*
X13528809Y-16810524D01*
X13519286Y-16781952D01*
X13509762Y-16734333D01*
X13509762Y-16696238D01*
X13519286Y-16648619D01*
X13528809Y-16620048D01*
X13538333Y-16601000D01*
X13557381Y-16572428D01*
X13566905Y-16562905D01*
X13747857Y-16791476D02*
X13633571Y-16791476D01*
X13690714Y-16791476D02*
X13690714Y-16591476D01*
X13671667Y-16620048D01*
X13652619Y-16639095D01*
X13633571Y-16648619D01*
X13871667Y-16591476D02*
X13890714Y-16591476D01*
X13909762Y-16601000D01*
X13919286Y-16610524D01*
X13928809Y-16629571D01*
X13938333Y-16667667D01*
X13938333Y-16715286D01*
X13928809Y-16753381D01*
X13919286Y-16772428D01*
X13909762Y-16781952D01*
X13890714Y-16791476D01*
X13871667Y-16791476D01*
X13852619Y-16781952D01*
X13843095Y-16772428D01*
X13833571Y-16753381D01*
X13824048Y-16715286D01*
X13824048Y-16667667D01*
X13833571Y-16629571D01*
X13843095Y-16610524D01*
X13852619Y-16601000D01*
X13871667Y-16591476D01*
X14176428Y-16791476D02*
X14176428Y-16591476D01*
X14262143Y-16791476D02*
X14262143Y-16686714D01*
X14252619Y-16667667D01*
X14233571Y-16658143D01*
X14205000Y-16658143D01*
X14185952Y-16667667D01*
X14176428Y-16677190D01*
X14385952Y-16791476D02*
X14366905Y-16781952D01*
X14357381Y-16772428D01*
X14347857Y-16753381D01*
X14347857Y-16696238D01*
X14357381Y-16677190D01*
X14366905Y-16667667D01*
X14385952Y-16658143D01*
X14414524Y-16658143D01*
X14433571Y-16667667D01*
X14443095Y-16677190D01*
X14452619Y-16696238D01*
X14452619Y-16753381D01*
X14443095Y-16772428D01*
X14433571Y-16781952D01*
X14414524Y-16791476D01*
X14385952Y-16791476D01*
X14566905Y-16791476D02*
X14547857Y-16781952D01*
X14538333Y-16762905D01*
X14538333Y-16591476D01*
X14719286Y-16781952D02*
X14700238Y-16791476D01*
X14662143Y-16791476D01*
X14643095Y-16781952D01*
X14633571Y-16762905D01*
X14633571Y-16686714D01*
X14643095Y-16667667D01*
X14662143Y-16658143D01*
X14700238Y-16658143D01*
X14719286Y-16667667D01*
X14728809Y-16686714D01*
X14728809Y-16705762D01*
X14633571Y-16724809D01*
X14805000Y-16781952D02*
X14824048Y-16791476D01*
X14862143Y-16791476D01*
X14881190Y-16781952D01*
X14890714Y-16762905D01*
X14890714Y-16753381D01*
X14881190Y-16734333D01*
X14862143Y-16724809D01*
X14833571Y-16724809D01*
X14814524Y-16715286D01*
X14805000Y-16696238D01*
X14805000Y-16686714D01*
X14814524Y-16667667D01*
X14833571Y-16658143D01*
X14862143Y-16658143D01*
X14881190Y-16667667D01*
X14957381Y-16867667D02*
X14966905Y-16858143D01*
X14985952Y-16829571D01*
X14995476Y-16810524D01*
X15005000Y-16781952D01*
X15014524Y-16734333D01*
X15014524Y-16696238D01*
X15005000Y-16648619D01*
X14995476Y-16620048D01*
X14985952Y-16601000D01*
X14966905Y-16572428D01*
X14957381Y-16562905D01*
M02*
