M48
; DRILL file {KiCad (6.0.0)} date Wed Nov 23 20:41:32 2022
; FORMAT={-:-/ absolute / metric / decimal}
; #@! TF.CreationDate,2022-11-23T20:41:32+01:00
; #@! TF.GenerationSoftware,Kicad,Pcbnew,(6.0.0)
; #@! TF.FileFunction,Plated,1,2,PTH
FMAT,2
METRIC
; #@! TA.AperFunction,Plated,PTH,ViaDrill
T1C0.400
; #@! TA.AperFunction,Plated,PTH,ComponentDrill
T2C0.760
; #@! TA.AperFunction,Plated,PTH,ComponentDrill
T3C0.800
; #@! TA.AperFunction,Plated,PTH,ComponentDrill
T4C1.000
; #@! TA.AperFunction,Plated,PTH,ComponentDrill
T5C1.520
%
G90
G05
T1
X127.762Y-72.644
X147.574Y-136.652
X147.574Y-140.462
X149.86Y-61.595
X151.892Y-65.024
X156.21Y-58.42
X156.21Y-64.135
X156.21Y-80.01
X156.21Y-95.885
X156.21Y-107.95
X157.48Y-71.12
X157.48Y-86.995
X157.48Y-102.87
X158.242Y-123.519
X158.75Y-109.855
X159.385Y-107.95
X159.512Y-124.243
X159.512Y-136.144
X160.782Y-124.968
X162.052Y-125.73
X162.56Y-116.205
X163.83Y-117.475
X164.338Y-122.428
X166.37Y-60.325
X166.37Y-127.331
X166.374Y-121.408
X167.386Y-121.412
X167.39Y-127.326
X172.974Y-130.81
T2
X114.442Y-111.76
X132.222Y-106.68
X132.222Y-111.76
T3
X114.442Y-81.28
X114.442Y-86.36
X115.69Y-56.635
X115.69Y-71.635
X130.69Y-61.635
X130.69Y-66.635
T4
X124.965Y-121.245
X124.965Y-146.645
X127.505Y-121.245
X127.505Y-146.645
X130.045Y-121.245
X130.045Y-146.645
X132.585Y-121.245
X132.585Y-146.645
X135.125Y-121.245
X135.125Y-146.645
X137.665Y-121.245
X137.665Y-146.645
X138.43Y-68.58
X138.43Y-71.12
X138.43Y-73.66
X140.205Y-121.245
X140.205Y-146.645
X140.97Y-68.58
X140.97Y-71.12
X140.97Y-73.66
X142.24Y-55.895
X142.24Y-58.435
X142.24Y-60.975
X142.745Y-121.245
X142.745Y-146.645
X145.285Y-121.245
X145.285Y-146.645
X146.045Y-68.595
X146.045Y-71.135
X146.045Y-73.675
X146.045Y-84.47
X146.045Y-87.01
X146.045Y-89.55
X146.045Y-100.345
X146.045Y-102.885
X146.045Y-105.425
X147.825Y-121.245
X147.825Y-146.645
X148.585Y-68.595
X148.585Y-71.135
X148.585Y-73.675
X148.585Y-84.47
X148.585Y-87.01
X148.585Y-89.55
X148.585Y-100.345
X148.585Y-102.885
X148.585Y-105.425
X163.195Y-64.77
X163.195Y-67.31
X163.195Y-69.85
X163.195Y-80.645
X163.195Y-83.185
X163.195Y-85.725
X163.195Y-96.52
X163.195Y-99.06
X163.195Y-101.6
X167.005Y-53.975
X171.45Y-53.975
X171.45Y-64.77
X171.45Y-67.31
X171.45Y-69.85
X171.45Y-72.39
X171.45Y-74.93
X171.45Y-80.645
X171.45Y-83.185
X171.45Y-85.725
X171.45Y-88.265
X171.45Y-90.805
X171.45Y-96.52
X171.45Y-99.06
X171.45Y-101.6
X171.45Y-104.14
X171.45Y-106.68
X173.99Y-64.77
X173.99Y-67.31
X173.99Y-69.85
X173.99Y-72.39
X173.99Y-74.93
X173.99Y-80.645
X173.99Y-83.185
X173.99Y-85.725
X173.99Y-88.265
X173.99Y-90.805
X173.99Y-96.52
X173.99Y-99.06
X173.99Y-101.6
X173.99Y-104.14
X173.99Y-106.68
X175.895Y-53.975
T5
X105.41Y-54.61
X105.41Y-59.69
X194.945Y-53.975
X194.945Y-59.055
X194.945Y-67.31
X194.945Y-72.39
X194.945Y-83.185
X194.945Y-88.265
X194.945Y-99.06
X194.945Y-104.14
T0
M30
