G04 #@! TF.GenerationSoftware,KiCad,Pcbnew,(6.0.0)*
G04 #@! TF.CreationDate,2022-11-23T20:41:05+01:00*
G04 #@! TF.ProjectId,prototype-3,70726f74-6f74-4797-9065-2d332e6b6963,rev?*
G04 #@! TF.SameCoordinates,Original*
G04 #@! TF.FileFunction,Copper,L1,Top*
G04 #@! TF.FilePolarity,Positive*
%FSLAX46Y46*%
G04 Gerber Fmt 4.6, Leading zero omitted, Abs format (unit mm)*
G04 Created by KiCad (PCBNEW (6.0.0)) date 2022-11-23 20:41:05*
%MOMM*%
%LPD*%
G01*
G04 APERTURE LIST*
G04 Aperture macros list*
%AMRoundRect*
0 Rectangle with rounded corners*
0 $1 Rounding radius*
0 $2 $3 $4 $5 $6 $7 $8 $9 X,Y pos of 4 corners*
0 Add a 4 corners polygon primitive as box body*
4,1,4,$2,$3,$4,$5,$6,$7,$8,$9,$2,$3,0*
0 Add four circle primitives for the rounded corners*
1,1,$1+$1,$2,$3*
1,1,$1+$1,$4,$5*
1,1,$1+$1,$6,$7*
1,1,$1+$1,$8,$9*
0 Add four rect primitives between the rounded corners*
20,1,$1+$1,$2,$3,$4,$5,0*
20,1,$1+$1,$4,$5,$6,$7,0*
20,1,$1+$1,$6,$7,$8,$9,0*
20,1,$1+$1,$8,$9,$2,$3,0*%
G04 Aperture macros list end*
G04 #@! TA.AperFunction,SMDPad,CuDef*
%ADD10R,2.000000X1.780000*%
G04 #@! TD*
G04 #@! TA.AperFunction,SMDPad,CuDef*
%ADD11RoundRect,0.200000X-0.200000X-0.275000X0.200000X-0.275000X0.200000X0.275000X-0.200000X0.275000X0*%
G04 #@! TD*
G04 #@! TA.AperFunction,SMDPad,CuDef*
%ADD12RoundRect,0.250000X0.262500X0.450000X-0.262500X0.450000X-0.262500X-0.450000X0.262500X-0.450000X0*%
G04 #@! TD*
G04 #@! TA.AperFunction,SMDPad,CuDef*
%ADD13RoundRect,0.200000X0.200000X0.275000X-0.200000X0.275000X-0.200000X-0.275000X0.200000X-0.275000X0*%
G04 #@! TD*
G04 #@! TA.AperFunction,ComponentPad*
%ADD14R,1.700000X1.700000*%
G04 #@! TD*
G04 #@! TA.AperFunction,ComponentPad*
%ADD15O,1.700000X1.700000*%
G04 #@! TD*
G04 #@! TA.AperFunction,SMDPad,CuDef*
%ADD16RoundRect,0.200000X-0.275000X0.200000X-0.275000X-0.200000X0.275000X-0.200000X0.275000X0.200000X0*%
G04 #@! TD*
G04 #@! TA.AperFunction,SMDPad,CuDef*
%ADD17RoundRect,0.150000X-0.150000X0.825000X-0.150000X-0.825000X0.150000X-0.825000X0.150000X0.825000X0*%
G04 #@! TD*
G04 #@! TA.AperFunction,ComponentPad*
%ADD18R,3.000000X3.000000*%
G04 #@! TD*
G04 #@! TA.AperFunction,ComponentPad*
%ADD19C,3.000000*%
G04 #@! TD*
G04 #@! TA.AperFunction,SMDPad,CuDef*
%ADD20RoundRect,0.200000X0.275000X-0.200000X0.275000X0.200000X-0.275000X0.200000X-0.275000X-0.200000X0*%
G04 #@! TD*
G04 #@! TA.AperFunction,SMDPad,CuDef*
%ADD21RoundRect,0.243750X0.456250X-0.243750X0.456250X0.243750X-0.456250X0.243750X-0.456250X-0.243750X0*%
G04 #@! TD*
G04 #@! TA.AperFunction,SMDPad,CuDef*
%ADD22RoundRect,0.150000X0.150000X-0.587500X0.150000X0.587500X-0.150000X0.587500X-0.150000X-0.587500X0*%
G04 #@! TD*
G04 #@! TA.AperFunction,ComponentPad*
%ADD23R,1.778000X1.778000*%
G04 #@! TD*
G04 #@! TA.AperFunction,ComponentPad*
%ADD24C,1.778000*%
G04 #@! TD*
G04 #@! TA.AperFunction,SMDPad,CuDef*
%ADD25RoundRect,0.150000X-0.150000X0.512500X-0.150000X-0.512500X0.150000X-0.512500X0.150000X0.512500X0*%
G04 #@! TD*
G04 #@! TA.AperFunction,ComponentPad*
%ADD26R,1.300000X1.300000*%
G04 #@! TD*
G04 #@! TA.AperFunction,ComponentPad*
%ADD27C,1.300000*%
G04 #@! TD*
G04 #@! TA.AperFunction,SMDPad,CuDef*
%ADD28R,1.100000X0.250000*%
G04 #@! TD*
G04 #@! TA.AperFunction,ComponentPad*
%ADD29R,2.300000X2.000000*%
G04 #@! TD*
G04 #@! TA.AperFunction,ComponentPad*
%ADD30C,2.300000*%
G04 #@! TD*
G04 #@! TA.AperFunction,ViaPad*
%ADD31C,0.800000*%
G04 #@! TD*
G04 #@! TA.AperFunction,Conductor*
%ADD32C,0.250000*%
G04 #@! TD*
G04 APERTURE END LIST*
D10*
X187960000Y-55880000D03*
X187960000Y-53340000D03*
X180340000Y-53340000D03*
X180340000Y-55880000D03*
D11*
X148400000Y-55880000D03*
X150050000Y-55880000D03*
X161925000Y-111125000D03*
X163575000Y-111125000D03*
D12*
X186332500Y-106680000D03*
X184507500Y-106680000D03*
D11*
X157290000Y-67310000D03*
X158940000Y-67310000D03*
D12*
X186332500Y-80645000D03*
X184507500Y-80645000D03*
D13*
X158940000Y-65405000D03*
X157290000Y-65405000D03*
D11*
X161925000Y-114935000D03*
X163575000Y-114935000D03*
D14*
X138430000Y-68580000D03*
D15*
X140970000Y-68580000D03*
X138430000Y-71120000D03*
X140970000Y-71120000D03*
X138430000Y-73660000D03*
X140970000Y-73660000D03*
D12*
X186332500Y-104140000D03*
X184507500Y-104140000D03*
D16*
X137160000Y-53785000D03*
X137160000Y-55435000D03*
D13*
X158940000Y-69215000D03*
X157290000Y-69215000D03*
D17*
X161925000Y-129097000D03*
X160655000Y-129097000D03*
X159385000Y-129097000D03*
X158115000Y-129097000D03*
X156845000Y-129097000D03*
X155575000Y-129097000D03*
X154305000Y-129097000D03*
X153035000Y-129097000D03*
X153035000Y-134047000D03*
X154305000Y-134047000D03*
X155575000Y-134047000D03*
X156845000Y-134047000D03*
X158115000Y-134047000D03*
X159385000Y-134047000D03*
X160655000Y-134047000D03*
X161925000Y-134047000D03*
D11*
X157290000Y-83185000D03*
X158940000Y-83185000D03*
X175070000Y-57785000D03*
X176720000Y-57785000D03*
D13*
X163575000Y-113030000D03*
X161925000Y-113030000D03*
D11*
X162370000Y-90170000D03*
X164020000Y-90170000D03*
D13*
X158940000Y-81280000D03*
X157290000Y-81280000D03*
D14*
X142240000Y-55895000D03*
D15*
X142240000Y-58435000D03*
X142240000Y-60975000D03*
D18*
X194945000Y-99060000D03*
D19*
X194945000Y-104140000D03*
D20*
X160655000Y-54165000D03*
X160655000Y-52515000D03*
X137160000Y-63055000D03*
X137160000Y-61405000D03*
D12*
X186332500Y-101600000D03*
X184507500Y-101600000D03*
D13*
X158940000Y-85090000D03*
X157290000Y-85090000D03*
D11*
X162370000Y-74295000D03*
X164020000Y-74295000D03*
D12*
X186332500Y-74930000D03*
X184507500Y-74930000D03*
D13*
X158940000Y-100965000D03*
X157290000Y-100965000D03*
D14*
X171450000Y-96520000D03*
D15*
X173990000Y-96520000D03*
X171450000Y-99060000D03*
X173990000Y-99060000D03*
X171450000Y-101600000D03*
X173990000Y-101600000D03*
X171450000Y-104140000D03*
X173990000Y-104140000D03*
X171450000Y-106680000D03*
X173990000Y-106680000D03*
D12*
X186332500Y-99060000D03*
X184507500Y-99060000D03*
D14*
X146045000Y-84470000D03*
D15*
X148585000Y-84470000D03*
X146045000Y-87010000D03*
X148585000Y-87010000D03*
X146045000Y-89550000D03*
X148585000Y-89550000D03*
D12*
X186332500Y-90805000D03*
X184507500Y-90805000D03*
X186332500Y-83185000D03*
X184507500Y-83185000D03*
D21*
X158115000Y-54277500D03*
X158115000Y-52402500D03*
D14*
X146045000Y-100345000D03*
D15*
X148585000Y-100345000D03*
X146045000Y-102885000D03*
X148585000Y-102885000D03*
X146045000Y-105425000D03*
X148585000Y-105425000D03*
D14*
X163195000Y-64770000D03*
D15*
X163195000Y-67310000D03*
X163195000Y-69850000D03*
D14*
X163195000Y-96520000D03*
D15*
X163195000Y-99060000D03*
X163195000Y-101600000D03*
D22*
X170500000Y-59992500D03*
X172400000Y-59992500D03*
X171450000Y-58117500D03*
D23*
X147825000Y-121245000D03*
D24*
X145285000Y-121245000D03*
X142745000Y-121245000D03*
X140205000Y-121245000D03*
X137665000Y-121245000D03*
X135125000Y-121245000D03*
X132585000Y-121245000D03*
X130045000Y-121245000D03*
X127505000Y-121245000D03*
X124965000Y-121245000D03*
X124965000Y-146645000D03*
X127505000Y-146645000D03*
X130045000Y-146645000D03*
X132585000Y-146645000D03*
X135125000Y-146645000D03*
X137665000Y-146645000D03*
X140205000Y-146645000D03*
X142745000Y-146645000D03*
X145285000Y-146645000D03*
X147825000Y-146645000D03*
D20*
X163195000Y-54165000D03*
X163195000Y-52515000D03*
D25*
X159890000Y-111892500D03*
X158940000Y-111892500D03*
X157990000Y-111892500D03*
X157990000Y-114167500D03*
X159890000Y-114167500D03*
D26*
X115690000Y-56635000D03*
D27*
X115690000Y-71635000D03*
X130690000Y-61635000D03*
X130690000Y-66635000D03*
D13*
X189230000Y-59055000D03*
X187580000Y-59055000D03*
X150050000Y-57785000D03*
X148400000Y-57785000D03*
D11*
X162370000Y-106045000D03*
X164020000Y-106045000D03*
D14*
X171450000Y-80645000D03*
D15*
X173990000Y-80645000D03*
X171450000Y-83185000D03*
X173990000Y-83185000D03*
X171450000Y-85725000D03*
X173990000Y-85725000D03*
X171450000Y-88265000D03*
X173990000Y-88265000D03*
X171450000Y-90805000D03*
X173990000Y-90805000D03*
D11*
X148400000Y-59690000D03*
X150050000Y-59690000D03*
D28*
X171187000Y-132775511D03*
X171187000Y-132275511D03*
X171187000Y-131775511D03*
X171187000Y-131275511D03*
X171187000Y-130775511D03*
X166887000Y-130775511D03*
X166887000Y-131275511D03*
X166887000Y-131775511D03*
X166887000Y-132275511D03*
X166887000Y-132775511D03*
D12*
X186332500Y-67310000D03*
X184507500Y-67310000D03*
X186332500Y-72390000D03*
X184507500Y-72390000D03*
X186332500Y-69850000D03*
X184507500Y-69850000D03*
D11*
X157290000Y-99060000D03*
X158940000Y-99060000D03*
D14*
X175895000Y-53975000D03*
D13*
X158940000Y-97155000D03*
X157290000Y-97155000D03*
D18*
X194945000Y-83185000D03*
D19*
X194945000Y-88265000D03*
D14*
X167005000Y-53975000D03*
X171450000Y-64770000D03*
D15*
X173990000Y-64770000D03*
X171450000Y-67310000D03*
X173990000Y-67310000D03*
X171450000Y-69850000D03*
X173990000Y-69850000D03*
X171450000Y-72390000D03*
X173990000Y-72390000D03*
X171450000Y-74930000D03*
X173990000Y-74930000D03*
D14*
X163195000Y-80645000D03*
D15*
X163195000Y-83185000D03*
X163195000Y-85725000D03*
D14*
X171450000Y-53975000D03*
D18*
X194945000Y-67310000D03*
D19*
X194945000Y-72390000D03*
D12*
X186332500Y-88265000D03*
X184507500Y-88265000D03*
D14*
X146045000Y-68595000D03*
D15*
X148585000Y-68595000D03*
X146045000Y-71135000D03*
X148585000Y-71135000D03*
X146045000Y-73675000D03*
X148585000Y-73675000D03*
D18*
X194945000Y-59055000D03*
D19*
X194945000Y-53975000D03*
D12*
X186332500Y-64770000D03*
X184507500Y-64770000D03*
D16*
X137160000Y-57595000D03*
X137160000Y-59245000D03*
D12*
X186332500Y-85725000D03*
X184507500Y-85725000D03*
D29*
X114442500Y-81280000D03*
D30*
X114442500Y-86360000D03*
X114442500Y-111760000D03*
X132222500Y-111760000D03*
X132222500Y-106680000D03*
D18*
X105410000Y-54610000D03*
D19*
X105410000Y-59690000D03*
D12*
X186332500Y-96520000D03*
X184507500Y-96520000D03*
D31*
X157480000Y-86995000D03*
X158750000Y-109855000D03*
X157480000Y-71120000D03*
X162560000Y-116205000D03*
X172974000Y-130810000D03*
X149860000Y-61595000D03*
X157480000Y-102870000D03*
X159512000Y-136144000D03*
X156210000Y-95885000D03*
X156210000Y-80010000D03*
X156210000Y-58420000D03*
X156210000Y-107950000D03*
X164338000Y-122428000D03*
X163830000Y-117475000D03*
X156210000Y-64135000D03*
X151892000Y-65024000D03*
X127762000Y-72644000D03*
X162052000Y-125730000D03*
X160782000Y-124968000D03*
X166374299Y-121407701D03*
X166370000Y-127330511D03*
X159512000Y-124243500D03*
X167386000Y-121412000D03*
X167390299Y-127326212D03*
X158242000Y-123519000D03*
X166370000Y-60325000D03*
X159385000Y-107950000D03*
X147574000Y-140462000D03*
X147574000Y-136652000D03*
D32*
X161925000Y-111125000D02*
X161925000Y-111950000D01*
X159890000Y-111892500D02*
X161867500Y-111892500D01*
X161925000Y-113030000D02*
X161925000Y-114935000D01*
X161867500Y-111892500D02*
X161925000Y-111950000D01*
X161925000Y-111950000D02*
X161925000Y-113030000D01*
X159004000Y-132588000D02*
X153416000Y-132588000D01*
X153035000Y-134047000D02*
X149795000Y-134047000D01*
X133260000Y-111760000D02*
X132222500Y-111760000D01*
X157290000Y-85090000D02*
X157290000Y-86805000D01*
X157290000Y-86805000D02*
X157480000Y-86995000D01*
X142745000Y-121245000D02*
X133260000Y-111760000D01*
X172974000Y-131826000D02*
X172974000Y-130810000D01*
X171450000Y-53975000D02*
X171450000Y-58117500D01*
X149795000Y-134047000D02*
X142745000Y-126997000D01*
X158750000Y-109855000D02*
X158750000Y-111702500D01*
X153416000Y-132588000D02*
X153035000Y-132969000D01*
X163575000Y-114935000D02*
X163575000Y-115190000D01*
X159385000Y-132969000D02*
X159004000Y-132588000D01*
X171782500Y-57785000D02*
X171450000Y-58117500D01*
X157290000Y-69215000D02*
X157290000Y-70930000D01*
X172532489Y-132775511D02*
X172974000Y-132334000D01*
X158750000Y-111702500D02*
X158940000Y-111892500D01*
X159385000Y-134047000D02*
X159385000Y-136017000D01*
X157290000Y-83185000D02*
X157290000Y-85090000D01*
X142745000Y-126997000D02*
X142745000Y-121245000D01*
X163575000Y-113030000D02*
X163575000Y-114935000D01*
X150050000Y-57785000D02*
X150050000Y-59690000D01*
X172974000Y-132334000D02*
X172974000Y-131826000D01*
X157290000Y-70930000D02*
X157480000Y-71120000D01*
X159385000Y-136017000D02*
X159512000Y-136144000D01*
X159385000Y-134047000D02*
X159385000Y-132969000D01*
X150050000Y-61405000D02*
X149860000Y-61595000D01*
X153035000Y-132969000D02*
X153035000Y-134047000D01*
X157290000Y-100965000D02*
X157290000Y-102680000D01*
X163575000Y-115190000D02*
X162560000Y-116205000D01*
X157290000Y-67310000D02*
X157290000Y-69215000D01*
X157290000Y-102680000D02*
X157480000Y-102870000D01*
X175070000Y-57785000D02*
X171782500Y-57785000D01*
X172923511Y-131775511D02*
X172974000Y-131826000D01*
X157290000Y-99060000D02*
X157290000Y-100965000D01*
X171187000Y-132775511D02*
X172532489Y-132775511D01*
X171187000Y-131775511D02*
X172923511Y-131775511D01*
X150050000Y-59690000D02*
X150050000Y-61405000D01*
X148385000Y-55895000D02*
X142240000Y-55895000D01*
X148400000Y-57785000D02*
X148400000Y-55880000D01*
X148400000Y-59690000D02*
X148400000Y-57785000D01*
X148400000Y-55880000D02*
X148385000Y-55895000D01*
X133260000Y-106680000D02*
X132222500Y-106680000D01*
X147825000Y-121245000D02*
X133260000Y-106680000D01*
X160655000Y-117475000D02*
X163830000Y-117475000D01*
X160020000Y-115570000D02*
X160020000Y-114297500D01*
X156210000Y-53975000D02*
X156210000Y-53340000D01*
X163195000Y-51435000D02*
X159082500Y-51435000D01*
X159082500Y-51435000D02*
X158115000Y-52402500D01*
X157290000Y-81090000D02*
X156210000Y-80010000D01*
X160655000Y-117475000D02*
X159385000Y-116205000D01*
X181610000Y-51435000D02*
X182245000Y-52070000D01*
X163195000Y-52515000D02*
X163195000Y-51435000D01*
X166887000Y-131775511D02*
X164196489Y-131775511D01*
X159385000Y-116205000D02*
X157480000Y-116205000D01*
X163830000Y-117475000D02*
X165100000Y-116205000D01*
X154305000Y-55880000D02*
X156210000Y-57785000D01*
X157290000Y-65405000D02*
X157290000Y-65215000D01*
X164196489Y-131775511D02*
X161925000Y-134047000D01*
X157290000Y-65215000D02*
X156210000Y-64135000D01*
X164465000Y-111125000D02*
X165100000Y-111760000D01*
X159766000Y-131318000D02*
X149860000Y-131318000D01*
X156210000Y-57785000D02*
X156210000Y-58420000D01*
X156210000Y-53340000D02*
X157147500Y-52402500D01*
X164338000Y-131634000D02*
X164338000Y-122428000D01*
X145285000Y-126743000D02*
X145285000Y-121245000D01*
X159385000Y-116205000D02*
X160020000Y-115570000D01*
X160655000Y-134047000D02*
X160655000Y-132207000D01*
X160655000Y-132207000D02*
X159766000Y-131318000D01*
X149860000Y-131318000D02*
X145285000Y-126743000D01*
X154305000Y-55880000D02*
X156210000Y-53975000D01*
X157290000Y-96965000D02*
X156210000Y-95885000D01*
X163575000Y-111125000D02*
X164465000Y-111125000D01*
X157480000Y-116205000D02*
X156210000Y-114935000D01*
X182245000Y-55245000D02*
X181610000Y-55880000D01*
X157290000Y-97155000D02*
X157290000Y-96965000D01*
X156210000Y-107950000D02*
X156210000Y-114935000D01*
X165100000Y-111760000D02*
X165100000Y-116205000D01*
X160655000Y-134047000D02*
X161925000Y-134047000D01*
X164196489Y-131775511D02*
X164338000Y-131634000D01*
X160020000Y-114297500D02*
X159890000Y-114167500D01*
X157290000Y-81280000D02*
X157290000Y-81090000D01*
X182245000Y-52070000D02*
X182245000Y-55245000D01*
X163195000Y-51435000D02*
X181610000Y-51435000D01*
X150050000Y-55880000D02*
X154305000Y-55880000D01*
X181610000Y-55880000D02*
X180340000Y-55880000D01*
X157147500Y-52402500D02*
X158115000Y-52402500D01*
X163195000Y-64770000D02*
X159575000Y-64770000D01*
X158940000Y-67310000D02*
X158940000Y-65405000D01*
X158940000Y-69215000D02*
X158940000Y-67310000D01*
X159575000Y-64770000D02*
X158940000Y-65405000D01*
X158940000Y-83185000D02*
X158940000Y-81280000D01*
X158940000Y-85090000D02*
X158940000Y-83185000D01*
X163195000Y-80645000D02*
X159575000Y-80645000D01*
X159575000Y-80645000D02*
X158940000Y-81280000D01*
X163195000Y-96520000D02*
X159575000Y-96520000D01*
X159575000Y-96520000D02*
X158940000Y-97155000D01*
X158940000Y-100965000D02*
X158940000Y-99060000D01*
X158940000Y-99060000D02*
X158940000Y-97155000D01*
X118110000Y-77612500D02*
X118110000Y-59055000D01*
X118110000Y-59055000D02*
X115690000Y-56635000D01*
X113665000Y-54610000D02*
X115690000Y-56635000D01*
X114442500Y-81280000D02*
X118110000Y-77612500D01*
X105410000Y-54610000D02*
X113665000Y-54610000D01*
X113030000Y-86360000D02*
X114442500Y-86360000D01*
X111760000Y-85090000D02*
X113030000Y-86360000D01*
X105410000Y-59690000D02*
X115690000Y-69970000D01*
X115690000Y-69970000D02*
X115690000Y-71635000D01*
X111760000Y-75565000D02*
X111760000Y-85090000D01*
X115690000Y-71635000D02*
X111760000Y-75565000D01*
X194945000Y-59055000D02*
X189230000Y-59055000D01*
X148585000Y-100345000D02*
X148585000Y-102885000D01*
X162370000Y-106045000D02*
X161750000Y-105425000D01*
X148585000Y-102885000D02*
X148585000Y-105425000D01*
X161750000Y-105425000D02*
X148585000Y-105425000D01*
X158115000Y-54277500D02*
X158892500Y-54277500D01*
X158892500Y-54277500D02*
X160655000Y-52515000D01*
X127762000Y-72644000D02*
X127762000Y-116422000D01*
X167005000Y-53975000D02*
X163385000Y-53975000D01*
X167005000Y-56497500D02*
X170500000Y-59992500D01*
X155448000Y-61468000D02*
X151892000Y-65024000D01*
X163385000Y-53975000D02*
X163195000Y-54165000D01*
X155448000Y-61468000D02*
X169024500Y-61468000D01*
X167005000Y-53975000D02*
X167005000Y-56497500D01*
X170500000Y-59992500D02*
X169024500Y-61468000D01*
X127762000Y-116422000D02*
X132585000Y-121245000D01*
X160655000Y-54165000D02*
X163195000Y-54165000D01*
X176720000Y-58230000D02*
X176720000Y-57785000D01*
X174957500Y-59992500D02*
X176720000Y-58230000D01*
X180340000Y-53340000D02*
X176530000Y-53340000D01*
X172400000Y-59992500D02*
X174957500Y-59992500D01*
X175895000Y-53975000D02*
X175895000Y-55245000D01*
X176720000Y-56070000D02*
X176720000Y-57785000D01*
X175895000Y-55245000D02*
X176720000Y-56070000D01*
X176530000Y-53340000D02*
X175895000Y-53975000D01*
X187960000Y-53340000D02*
X194310000Y-53340000D01*
X194310000Y-53340000D02*
X194945000Y-53975000D01*
X163897802Y-120591520D02*
X153610085Y-120591520D01*
X169926000Y-131064000D02*
X170137511Y-131275511D01*
X135890000Y-80772000D02*
X135890000Y-73660000D01*
X169926000Y-126619718D02*
X169926000Y-131064000D01*
X170137511Y-131275511D02*
X171187000Y-131275511D01*
X153610085Y-120591520D02*
X141653440Y-108634876D01*
X141653440Y-86535440D02*
X135890000Y-80772000D01*
X135890000Y-73660000D02*
X138430000Y-71120000D01*
X141653440Y-108634876D02*
X141653440Y-86535440D01*
X169926000Y-126619718D02*
X163897802Y-120591520D01*
X161925000Y-125857000D02*
X162052000Y-125730000D01*
X161925000Y-129097000D02*
X161925000Y-125857000D01*
X171187000Y-127245000D02*
X171187000Y-130775511D01*
X142102960Y-86517538D02*
X142102960Y-108448678D01*
X143510000Y-85110498D02*
X142102960Y-86517538D01*
X164084000Y-120142000D02*
X171187000Y-127245000D01*
X143510000Y-73670000D02*
X143510000Y-85110498D01*
X142102960Y-108448678D02*
X153796282Y-120142000D01*
X146045000Y-71135000D02*
X143510000Y-73670000D01*
X153796282Y-120142000D02*
X164084000Y-120142000D01*
X160655000Y-129097000D02*
X160655000Y-125095000D01*
X160655000Y-125095000D02*
X160782000Y-124968000D01*
X154178000Y-137668000D02*
X155575000Y-136271000D01*
X124965000Y-146645000D02*
X124965000Y-145037000D01*
X124965000Y-145037000D02*
X132334000Y-137668000D01*
X155575000Y-136271000D02*
X155575000Y-134047000D01*
X132334000Y-137668000D02*
X154178000Y-137668000D01*
X154686000Y-138684000D02*
X156845000Y-136525000D01*
X133858000Y-138684000D02*
X154686000Y-138684000D01*
X156845000Y-136525000D02*
X156845000Y-134047000D01*
X127505000Y-146645000D02*
X127505000Y-145037000D01*
X127505000Y-145037000D02*
X133858000Y-138684000D01*
X135636000Y-139446000D02*
X155702000Y-139446000D01*
X130045000Y-145037000D02*
X135636000Y-139446000D01*
X155702000Y-139446000D02*
X158115000Y-137033000D01*
X130045000Y-146645000D02*
X130045000Y-145037000D01*
X158115000Y-137033000D02*
X158115000Y-134047000D01*
X137160000Y-63055000D02*
X140970000Y-66865000D01*
X140970000Y-73660000D02*
X140970000Y-71120000D01*
X140970000Y-66865000D02*
X140970000Y-68580000D01*
X140970000Y-68580000D02*
X140970000Y-71120000D01*
X148585000Y-84470000D02*
X148585000Y-87010000D01*
X161750000Y-89550000D02*
X148585000Y-89550000D01*
X162370000Y-90170000D02*
X161750000Y-89550000D01*
X148585000Y-87010000D02*
X148585000Y-89550000D01*
X148585000Y-71135000D02*
X148585000Y-73675000D01*
X161750000Y-73675000D02*
X148585000Y-73675000D01*
X148585000Y-68595000D02*
X148585000Y-71135000D01*
X162370000Y-74295000D02*
X161750000Y-73675000D01*
X166365701Y-121407701D02*
X166374299Y-121407701D01*
X164592000Y-119634000D02*
X166365701Y-121407701D01*
X142552480Y-108262480D02*
X153924000Y-119634000D01*
X142552480Y-87825520D02*
X142552480Y-108262480D01*
X143368000Y-87010000D02*
X142552480Y-87825520D01*
X146045000Y-87010000D02*
X143368000Y-87010000D01*
X166887000Y-127847511D02*
X166887000Y-130775511D01*
X153924000Y-119634000D02*
X164592000Y-119634000D01*
X166370000Y-127330511D02*
X166887000Y-127847511D01*
X159385000Y-129097000D02*
X159385000Y-124370500D01*
X159385000Y-124370500D02*
X159512000Y-124243500D01*
X167386000Y-121394788D02*
X167386000Y-121412000D01*
X165117212Y-119126000D02*
X167386000Y-121394788D01*
X143002000Y-107950000D02*
X154178000Y-119126000D01*
X143002000Y-103632000D02*
X143002000Y-107950000D01*
X167390299Y-127326212D02*
X167635701Y-127326212D01*
X154178000Y-119126000D02*
X165117212Y-119126000D01*
X143749000Y-102885000D02*
X143002000Y-103632000D01*
X167759000Y-131275511D02*
X166887000Y-131275511D01*
X146045000Y-102885000D02*
X143749000Y-102885000D01*
X167635701Y-127326212D02*
X168148000Y-127838511D01*
X168148000Y-130886511D02*
X167759000Y-131275511D01*
X168148000Y-127838511D02*
X168148000Y-130886511D01*
X158115000Y-123646000D02*
X158242000Y-123519000D01*
X158115000Y-129097000D02*
X158115000Y-123646000D01*
X130690000Y-60255000D02*
X130690000Y-61635000D01*
X137160000Y-53785000D02*
X130690000Y-60255000D01*
X137605000Y-53785000D02*
X139700000Y-55880000D01*
X140350000Y-58435000D02*
X142240000Y-58435000D01*
X137160000Y-53785000D02*
X137605000Y-53785000D01*
X139700000Y-57785000D02*
X140350000Y-58435000D01*
X139700000Y-55880000D02*
X139700000Y-57785000D01*
X155575000Y-60325000D02*
X166370000Y-60325000D01*
X144765000Y-63500000D02*
X152400000Y-63500000D01*
X157990000Y-111892500D02*
X157990000Y-109345000D01*
X157990000Y-109345000D02*
X159385000Y-107950000D01*
X157990000Y-114167500D02*
X157990000Y-111892500D01*
X152400000Y-63500000D02*
X155575000Y-60325000D01*
X142240000Y-60975000D02*
X144765000Y-63500000D01*
X171450000Y-64770000D02*
X171450000Y-67310000D01*
X171450000Y-67310000D02*
X171450000Y-69850000D01*
X194945000Y-72390000D02*
X196215000Y-72390000D01*
X195580000Y-62865000D02*
X172720000Y-62865000D01*
X196215000Y-72390000D02*
X197485000Y-71120000D01*
X197485000Y-64770000D02*
X195580000Y-62865000D01*
X197485000Y-71120000D02*
X197485000Y-64770000D01*
X171450000Y-64135000D02*
X171450000Y-64770000D01*
X171450000Y-72390000D02*
X171450000Y-74930000D01*
X172720000Y-62865000D02*
X171450000Y-64135000D01*
X171450000Y-69850000D02*
X171450000Y-72390000D01*
X171450000Y-67310000D02*
X163195000Y-67310000D01*
X172720000Y-78740000D02*
X171450000Y-80010000D01*
X171450000Y-80645000D02*
X171450000Y-83185000D01*
X197485000Y-80645000D02*
X195580000Y-78740000D01*
X196215000Y-88265000D02*
X197485000Y-86995000D01*
X171450000Y-85725000D02*
X171450000Y-88265000D01*
X194945000Y-88265000D02*
X196215000Y-88265000D01*
X171450000Y-83185000D02*
X163195000Y-83185000D01*
X171450000Y-80010000D02*
X171450000Y-80645000D01*
X171450000Y-88265000D02*
X171450000Y-90805000D01*
X195580000Y-78740000D02*
X172720000Y-78740000D01*
X197485000Y-86995000D02*
X197485000Y-80645000D01*
X171450000Y-83185000D02*
X171450000Y-85725000D01*
X171450000Y-99060000D02*
X163195000Y-99060000D01*
X171450000Y-96520000D02*
X171450000Y-99060000D01*
X195580000Y-94615000D02*
X172720000Y-94615000D01*
X171450000Y-104140000D02*
X171450000Y-106680000D01*
X171450000Y-95885000D02*
X171450000Y-96520000D01*
X197485000Y-96520000D02*
X195580000Y-94615000D01*
X172720000Y-94615000D02*
X171450000Y-95885000D01*
X197485000Y-102870000D02*
X197485000Y-96520000D01*
X171450000Y-101600000D02*
X171450000Y-104140000D01*
X171450000Y-99060000D02*
X171450000Y-101600000D01*
X194945000Y-104140000D02*
X196215000Y-104140000D01*
X196215000Y-104140000D02*
X197485000Y-102870000D01*
X173990000Y-64770000D02*
X184507500Y-64770000D01*
X184507500Y-67310000D02*
X173990000Y-67310000D01*
X173990000Y-69850000D02*
X184507500Y-69850000D01*
X184507500Y-72390000D02*
X173990000Y-72390000D01*
X173990000Y-74930000D02*
X184507500Y-74930000D01*
X173990000Y-80645000D02*
X184507500Y-80645000D01*
X184507500Y-83185000D02*
X173990000Y-83185000D01*
X173990000Y-85725000D02*
X184507500Y-85725000D01*
X184507500Y-88265000D02*
X173990000Y-88265000D01*
X173990000Y-90805000D02*
X184507500Y-90805000D01*
X173990000Y-96520000D02*
X184507500Y-96520000D01*
X184507500Y-99060000D02*
X173990000Y-99060000D01*
X173990000Y-101600000D02*
X184507500Y-101600000D01*
X184507500Y-104140000D02*
X173990000Y-104140000D01*
X173990000Y-106680000D02*
X184507500Y-106680000D01*
X186332500Y-72390000D02*
X186332500Y-74930000D01*
X185420000Y-77470000D02*
X167195000Y-77470000D01*
X194945000Y-67310000D02*
X186332500Y-67310000D01*
X186332500Y-64770000D02*
X186332500Y-67310000D01*
X186332500Y-67310000D02*
X186332500Y-69850000D01*
X186332500Y-74930000D02*
X186332500Y-76557500D01*
X167195000Y-77470000D02*
X164020000Y-74295000D01*
X186332500Y-69850000D02*
X186332500Y-72390000D01*
X186332500Y-76557500D02*
X185420000Y-77470000D01*
X186332500Y-80645000D02*
X186332500Y-83185000D01*
X186332500Y-85725000D02*
X186332500Y-88265000D01*
X186332500Y-92432500D02*
X185420000Y-93345000D01*
X186332500Y-83185000D02*
X186332500Y-85725000D01*
X185420000Y-93345000D02*
X167195000Y-93345000D01*
X186332500Y-88265000D02*
X186332500Y-90805000D01*
X167195000Y-93345000D02*
X164020000Y-90170000D01*
X186332500Y-90805000D02*
X186332500Y-92432500D01*
X194945000Y-83185000D02*
X186332500Y-83185000D01*
X186332500Y-96520000D02*
X186332500Y-99060000D01*
X186332500Y-104140000D02*
X186332500Y-106680000D01*
X185420000Y-109220000D02*
X167195000Y-109220000D01*
X186332500Y-101600000D02*
X186332500Y-104140000D01*
X167195000Y-109220000D02*
X164020000Y-106045000D01*
X186332500Y-108307500D02*
X185420000Y-109220000D01*
X186332500Y-99060000D02*
X186332500Y-101600000D01*
X186332500Y-106680000D02*
X186332500Y-108307500D01*
X194945000Y-99060000D02*
X186332500Y-99060000D01*
X187960000Y-55880000D02*
X187960000Y-58675000D01*
X187960000Y-58675000D02*
X187580000Y-59055000D01*
X137160000Y-57595000D02*
X137605000Y-57595000D01*
X137605000Y-57595000D02*
X138430000Y-58420000D01*
X137350000Y-61405000D02*
X137160000Y-61405000D01*
X138430000Y-58420000D02*
X138430000Y-60325000D01*
X138430000Y-60325000D02*
X137350000Y-61405000D01*
X137160000Y-55435000D02*
X137160000Y-57595000D01*
X137160000Y-59245000D02*
X130690000Y-65715000D01*
X130690000Y-65715000D02*
X130690000Y-66635000D01*
X132585000Y-146645000D02*
X132585000Y-145037000D01*
X137160000Y-140462000D02*
X147574000Y-140462000D01*
X154305000Y-136017000D02*
X153670000Y-136652000D01*
X153670000Y-136652000D02*
X147574000Y-136652000D01*
X132585000Y-145037000D02*
X137160000Y-140462000D01*
X154305000Y-134047000D02*
X154305000Y-136017000D01*
X166887000Y-132275511D02*
X165666489Y-132275511D01*
X164846000Y-133096000D02*
X164846000Y-135128000D01*
X145821520Y-143568480D02*
X142745000Y-146645000D01*
X156405520Y-143568480D02*
X145821520Y-143568480D01*
X165666489Y-132275511D02*
X164846000Y-133096000D01*
X164846000Y-135128000D02*
X156405520Y-143568480D01*
X145285000Y-145037000D02*
X145285000Y-146645000D01*
X166887000Y-132775511D02*
X166887000Y-135119000D01*
X157988000Y-144018000D02*
X146304000Y-144018000D01*
X166887000Y-135119000D02*
X157988000Y-144018000D01*
X146304000Y-144018000D02*
X145285000Y-145037000D01*
M02*
