G04 #@! TF.GenerationSoftware,KiCad,Pcbnew,(6.0.0)*
G04 #@! TF.CreationDate,2022-11-23T20:41:05+01:00*
G04 #@! TF.ProjectId,prototype-3,70726f74-6f74-4797-9065-2d332e6b6963,rev?*
G04 #@! TF.SameCoordinates,Original*
G04 #@! TF.FileFunction,Copper,L2,Bot*
G04 #@! TF.FilePolarity,Positive*
%FSLAX46Y46*%
G04 Gerber Fmt 4.6, Leading zero omitted, Abs format (unit mm)*
G04 Created by KiCad (PCBNEW (6.0.0)) date 2022-11-23 20:41:05*
%MOMM*%
%LPD*%
G01*
G04 APERTURE LIST*
G04 #@! TA.AperFunction,ComponentPad*
%ADD10R,1.700000X1.700000*%
G04 #@! TD*
G04 #@! TA.AperFunction,ComponentPad*
%ADD11O,1.700000X1.700000*%
G04 #@! TD*
G04 #@! TA.AperFunction,ComponentPad*
%ADD12R,3.000000X3.000000*%
G04 #@! TD*
G04 #@! TA.AperFunction,ComponentPad*
%ADD13C,3.000000*%
G04 #@! TD*
G04 #@! TA.AperFunction,ComponentPad*
%ADD14R,1.778000X1.778000*%
G04 #@! TD*
G04 #@! TA.AperFunction,ComponentPad*
%ADD15C,1.778000*%
G04 #@! TD*
G04 #@! TA.AperFunction,ComponentPad*
%ADD16R,1.300000X1.300000*%
G04 #@! TD*
G04 #@! TA.AperFunction,ComponentPad*
%ADD17C,1.300000*%
G04 #@! TD*
G04 #@! TA.AperFunction,ComponentPad*
%ADD18R,2.300000X2.000000*%
G04 #@! TD*
G04 #@! TA.AperFunction,ComponentPad*
%ADD19C,2.300000*%
G04 #@! TD*
G04 #@! TA.AperFunction,ViaPad*
%ADD20C,0.800000*%
G04 #@! TD*
G04 #@! TA.AperFunction,Conductor*
%ADD21C,0.250000*%
G04 #@! TD*
G04 APERTURE END LIST*
D10*
X138430000Y-68580000D03*
D11*
X140970000Y-68580000D03*
X138430000Y-71120000D03*
X140970000Y-71120000D03*
X138430000Y-73660000D03*
X140970000Y-73660000D03*
D10*
X142240000Y-55895000D03*
D11*
X142240000Y-58435000D03*
X142240000Y-60975000D03*
D12*
X194945000Y-99060000D03*
D13*
X194945000Y-104140000D03*
D10*
X171450000Y-96520000D03*
D11*
X173990000Y-96520000D03*
X171450000Y-99060000D03*
X173990000Y-99060000D03*
X171450000Y-101600000D03*
X173990000Y-101600000D03*
X171450000Y-104140000D03*
X173990000Y-104140000D03*
X171450000Y-106680000D03*
X173990000Y-106680000D03*
D10*
X146045000Y-84470000D03*
D11*
X148585000Y-84470000D03*
X146045000Y-87010000D03*
X148585000Y-87010000D03*
X146045000Y-89550000D03*
X148585000Y-89550000D03*
D10*
X146045000Y-100345000D03*
D11*
X148585000Y-100345000D03*
X146045000Y-102885000D03*
X148585000Y-102885000D03*
X146045000Y-105425000D03*
X148585000Y-105425000D03*
D10*
X163195000Y-64770000D03*
D11*
X163195000Y-67310000D03*
X163195000Y-69850000D03*
D10*
X163195000Y-96520000D03*
D11*
X163195000Y-99060000D03*
X163195000Y-101600000D03*
D14*
X147825000Y-121245000D03*
D15*
X145285000Y-121245000D03*
X142745000Y-121245000D03*
X140205000Y-121245000D03*
X137665000Y-121245000D03*
X135125000Y-121245000D03*
X132585000Y-121245000D03*
X130045000Y-121245000D03*
X127505000Y-121245000D03*
X124965000Y-121245000D03*
X124965000Y-146645000D03*
X127505000Y-146645000D03*
X130045000Y-146645000D03*
X132585000Y-146645000D03*
X135125000Y-146645000D03*
X137665000Y-146645000D03*
X140205000Y-146645000D03*
X142745000Y-146645000D03*
X145285000Y-146645000D03*
X147825000Y-146645000D03*
D16*
X115690000Y-56635000D03*
D17*
X115690000Y-71635000D03*
X130690000Y-61635000D03*
X130690000Y-66635000D03*
D10*
X171450000Y-80645000D03*
D11*
X173990000Y-80645000D03*
X171450000Y-83185000D03*
X173990000Y-83185000D03*
X171450000Y-85725000D03*
X173990000Y-85725000D03*
X171450000Y-88265000D03*
X173990000Y-88265000D03*
X171450000Y-90805000D03*
X173990000Y-90805000D03*
D10*
X175895000Y-53975000D03*
D12*
X194945000Y-83185000D03*
D13*
X194945000Y-88265000D03*
D10*
X167005000Y-53975000D03*
X171450000Y-64770000D03*
D11*
X173990000Y-64770000D03*
X171450000Y-67310000D03*
X173990000Y-67310000D03*
X171450000Y-69850000D03*
X173990000Y-69850000D03*
X171450000Y-72390000D03*
X173990000Y-72390000D03*
X171450000Y-74930000D03*
X173990000Y-74930000D03*
D10*
X163195000Y-80645000D03*
D11*
X163195000Y-83185000D03*
X163195000Y-85725000D03*
D10*
X171450000Y-53975000D03*
D12*
X194945000Y-67310000D03*
D13*
X194945000Y-72390000D03*
D10*
X146045000Y-68595000D03*
D11*
X148585000Y-68595000D03*
X146045000Y-71135000D03*
X148585000Y-71135000D03*
X146045000Y-73675000D03*
X148585000Y-73675000D03*
D12*
X194945000Y-59055000D03*
D13*
X194945000Y-53975000D03*
D18*
X114442500Y-81280000D03*
D19*
X114442500Y-86360000D03*
X114442500Y-111760000D03*
X132222500Y-111760000D03*
X132222500Y-106680000D03*
D12*
X105410000Y-54610000D03*
D13*
X105410000Y-59690000D03*
D20*
X157480000Y-86995000D03*
X158750000Y-109855000D03*
X157480000Y-71120000D03*
X162560000Y-116205000D03*
X172974000Y-130810000D03*
X149860000Y-61595000D03*
X157480000Y-102870000D03*
X159512000Y-136144000D03*
X156210000Y-95885000D03*
X156210000Y-80010000D03*
X156210000Y-58420000D03*
X156210000Y-107950000D03*
X164338000Y-122428000D03*
X163830000Y-117475000D03*
X156210000Y-64135000D03*
X151892000Y-65024000D03*
X127762000Y-72644000D03*
X162052000Y-125730000D03*
X160782000Y-124968000D03*
X166374299Y-121407701D03*
X166370000Y-127330511D03*
X159512000Y-124243500D03*
X167386000Y-121412000D03*
X167390299Y-127326212D03*
X158242000Y-123519000D03*
X166370000Y-60325000D03*
X159385000Y-107950000D03*
X147574000Y-140462000D03*
X147574000Y-136652000D03*
D21*
X149860000Y-61595000D02*
X154305000Y-57150000D01*
X168910000Y-136144000D02*
X159512000Y-136144000D01*
X162560000Y-111760000D02*
X160655000Y-109855000D01*
X172974000Y-132080000D02*
X168910000Y-136144000D01*
X157480000Y-102870000D02*
X157480000Y-86995000D01*
X157480000Y-102870000D02*
X157480000Y-109220000D01*
X172974000Y-130810000D02*
X172974000Y-132080000D01*
X157480000Y-109220000D02*
X158115000Y-109855000D01*
X158115000Y-109855000D02*
X158750000Y-109855000D01*
X157480000Y-86995000D02*
X157480000Y-71120000D01*
X172974000Y-123190000D02*
X172974000Y-130810000D01*
X157480000Y-71120000D02*
X157480000Y-57150000D01*
X162560000Y-116205000D02*
X165989000Y-116205000D01*
X160655000Y-109855000D02*
X158750000Y-109855000D01*
X168275000Y-57150000D02*
X157480000Y-57150000D01*
X157480000Y-57150000D02*
X154305000Y-57150000D01*
X171450000Y-53975000D02*
X168275000Y-57150000D01*
X165989000Y-116205000D02*
X172974000Y-123190000D01*
X162560000Y-116205000D02*
X162560000Y-111760000D01*
X156210000Y-80010000D02*
X156210000Y-64135000D01*
X156210000Y-95885000D02*
X156210000Y-80010000D01*
X164338000Y-122428000D02*
X164338000Y-117983000D01*
X156210000Y-64135000D02*
X156210000Y-58420000D01*
X156210000Y-95885000D02*
X156210000Y-107950000D01*
X164338000Y-117983000D02*
X163830000Y-117475000D01*
X135125000Y-145285000D02*
X117475000Y-127635000D01*
X117475000Y-127635000D02*
X117475000Y-84455000D01*
X135890000Y-66040000D02*
X144145000Y-66040000D01*
X117475000Y-84455000D02*
X135890000Y-66040000D01*
X146045000Y-67940000D02*
X146045000Y-68595000D01*
X135125000Y-146645000D02*
X135125000Y-145285000D01*
X144145000Y-66040000D02*
X146045000Y-67940000D01*
X135382000Y-65024000D02*
X151892000Y-65024000D01*
X135382000Y-65024000D02*
X127762000Y-72644000D01*
X118110000Y-85090000D02*
X118110000Y-127090000D01*
X118110000Y-127090000D02*
X137665000Y-146645000D01*
X138430000Y-68580000D02*
X134620000Y-68580000D01*
X134620000Y-68580000D02*
X118110000Y-85090000D01*
X162052000Y-125730000D02*
X155956000Y-125730000D01*
X138430000Y-108204000D02*
X138430000Y-73660000D01*
X155956000Y-125730000D02*
X138430000Y-108204000D01*
X146045000Y-73675000D02*
X144511000Y-73675000D01*
X144511000Y-73675000D02*
X138879520Y-79306480D01*
X138879520Y-108017803D02*
X155829717Y-124968000D01*
X138879520Y-79306480D02*
X138879520Y-108017803D01*
X155829717Y-124968000D02*
X160782000Y-124968000D01*
X166374299Y-121407701D02*
X166370000Y-121412000D01*
X166370000Y-121412000D02*
X166370000Y-127330511D01*
X155740934Y-124243500D02*
X139329040Y-107831606D01*
X159512000Y-124243500D02*
X155740934Y-124243500D01*
X146045000Y-89550000D02*
X139329040Y-96265960D01*
X139329040Y-107831606D02*
X139329040Y-96265960D01*
X167386000Y-121412000D02*
X167386000Y-127321913D01*
X167386000Y-127321913D02*
X167390299Y-127326212D01*
X146045000Y-105425000D02*
X146045000Y-113911849D01*
X146045000Y-113911849D02*
X155652151Y-123519000D01*
X155652151Y-123519000D02*
X158242000Y-123519000D01*
X165100000Y-101600000D02*
X163195000Y-101600000D01*
X166370000Y-69850000D02*
X166370000Y-60325000D01*
X163195000Y-69850000D02*
X166370000Y-69850000D01*
X159385000Y-105410000D02*
X159385000Y-107950000D01*
X163195000Y-101600000D02*
X159385000Y-105410000D01*
X166370000Y-85725000D02*
X166370000Y-100330000D01*
X166370000Y-100330000D02*
X165100000Y-101600000D01*
X166370000Y-69850000D02*
X166370000Y-85725000D01*
X166370000Y-85725000D02*
X163195000Y-85725000D01*
X147574000Y-136652000D02*
X147574000Y-140462000D01*
M02*
