M48
; DRILL file {KiCad (6.0.0-0)} date 2022 October 14, Friday 11:14:00
; FORMAT={-:-/ absolute / metric / decimal}
; #@! TF.CreationDate,2022-10-14T11:14:00+02:00
; #@! TF.GenerationSoftware,Kicad,Pcbnew,(6.0.0-0)
; #@! TF.FileFunction,Plated,1,2,PTH
FMAT,2
METRIC
; #@! TA.AperFunction,Plated,PTH,ViaDrill
T1C0.400
; #@! TA.AperFunction,Plated,PTH,ComponentDrill
T2C0.600
; #@! TA.AperFunction,Plated,PTH,ComponentDrill
T3C0.950
; #@! TA.AperFunction,Plated,PTH,ComponentDrill
T4C1.000
; #@! TA.AperFunction,Plated,PTH,ComponentDrill
T5C1.100
; #@! TA.AperFunction,Plated,PTH,ComponentDrill
T6C1.300
; #@! TA.AperFunction,Plated,PTH,ComponentDrill
T7C1.520
; #@! TA.AperFunction,Plated,PTH,ComponentDrill
T8C2.300
; #@! TA.AperFunction,Plated,PTH,ComponentDrill
T9C4.300
; #@! TA.AperFunction,Plated,PTH,ComponentDrill
T10C4.400
%
G90
G05
T1
X130.81Y-139.7
X140.335Y-144.78
X201.93Y-108.585
X201.93Y-109.855
T2
X33.975Y-90.24
X34.92Y-87.96
X34.92Y-92.52
X37.2Y-87.015
X37.2Y-93.465
X39.48Y-87.96
X39.48Y-92.52
X40.425Y-90.24
X41.275Y-21.24
X41.275Y-159.24
X42.22Y-18.96
X42.22Y-23.52
X42.22Y-156.96
X42.22Y-161.52
X44.5Y-18.015
X44.5Y-24.465
X44.5Y-156.015
X44.5Y-162.465
X46.78Y-18.96
X46.78Y-23.52
X46.78Y-156.96
X46.78Y-161.52
X47.725Y-21.24
X47.725Y-159.24
X242.675Y-21.24
X242.675Y-159.24
X243.62Y-18.96
X243.62Y-23.52
X243.62Y-156.96
X243.62Y-161.52
X245.9Y-18.015
X245.9Y-24.465
X245.9Y-156.015
X245.9Y-162.465
X248.18Y-18.96
X248.18Y-23.52
X248.18Y-156.96
X248.18Y-161.52
X249.125Y-21.24
X249.125Y-159.24
X249.975Y-90.24
X250.92Y-87.96
X250.92Y-92.52
X253.2Y-87.015
X253.2Y-93.465
X255.48Y-87.96
X255.48Y-92.52
X256.425Y-90.24
T3
X159.06Y-101.32
X161.56Y-101.32
X163.56Y-101.32
X166.06Y-101.32
T4
X124.42Y-63.63
X124.42Y-66.17
X124.42Y-68.71
X124.42Y-71.25
X124.42Y-73.79
X124.42Y-76.33
X124.42Y-78.87
X124.42Y-81.41
X124.42Y-83.95
X124.42Y-86.49
X127.0Y-137.16
X127.0Y-139.7
X127.0Y-142.24
X127.0Y-144.78
X137.16Y-137.16
X137.16Y-139.7
X137.16Y-142.24
X149.82Y-63.63
X149.82Y-66.17
X149.82Y-68.71
X149.82Y-71.25
X149.82Y-73.79
X149.82Y-76.33
X149.82Y-78.87
X149.82Y-81.41
X149.82Y-83.95
X149.82Y-86.49
X183.16Y-43.18
X185.66Y-78.18
X190.66Y-78.18
X210.66Y-78.18
X215.66Y-78.18
X218.16Y-43.18
T5
X217.433Y-100.34
X219.973Y-100.34
X227.593Y-100.34
X235.213Y-100.34
T6
X66.293Y-134.612
X66.293Y-154.933
X112.012Y-134.612
X112.012Y-144.772
T7
X193.04Y-124.46
X198.12Y-124.46
X212.725Y-124.46
X217.805Y-124.46
X231.14Y-124.46
X236.22Y-124.46
T8
X155.99Y-104.03
X169.13Y-104.03
T9
X37.2Y-90.24
X44.5Y-21.24
X44.5Y-159.24
X245.9Y-21.24
X245.9Y-159.24
X253.2Y-90.24
T10
X161.91Y-36.93
X161.91Y-84.43
X239.41Y-36.93
X239.41Y-84.43
T0
M30
