%FSLAX45Y45*%
G04 Gerber Fmt 4.5, Leading zero omitted, Abs format (unit mm)*
G04 Created by KiCad (PCBNEW (6.0.0-0)) date 2022-10-14 11:14:02*
%MOMM*%
%LPD*%
G01*
G04 APERTURE LIST*
%TA.AperFunction,Profile*%
%ADD10C,0.100000*%
%TD*%
%ADD11C,0.200000*%
%ADD12C,0.040000*%
%ADD13C,0.060000*%
%ADD14C,0.095000*%
%ADD15C,0.100000*%
%ADD16C,0.110000*%
%ADD17C,0.130000*%
%ADD18C,0.152000*%
%ADD19C,0.230000*%
%ADD20C,0.430000*%
%ADD21C,0.440000*%
G04 APERTURE END LIST*
D10*
X15520000Y-1524000D02*
X25120000Y-1524000D01*
X3020000Y-14724000D02*
X3920000Y-14724000D01*
X13520000Y-2524000D02*
X15520000Y-2524000D01*
X25120000Y-16524000D02*
X25120000Y-14724000D01*
X13520000Y-15524000D02*
X15520000Y-15524000D01*
X25120000Y-14724000D02*
X26020000Y-14724000D01*
X26020000Y-3324000D02*
X26020000Y-14724000D01*
X15520000Y-1524000D02*
X15520000Y-2524000D01*
X25120000Y-3324000D02*
X25120000Y-1524000D01*
X15520000Y-15524000D02*
X15520000Y-16524000D01*
X3920000Y-16524000D02*
X3920000Y-14724000D01*
X25120000Y-3324000D02*
X26020000Y-3324000D01*
X13520000Y-16524000D02*
X3920000Y-16524000D01*
X3920000Y-1524000D02*
X13520000Y-1524000D01*
X25120000Y-16524000D02*
X15520000Y-16524000D01*
X13520000Y-1524000D02*
X13520000Y-2524000D01*
X3020000Y-14724000D02*
X3020000Y-3324000D01*
X13520000Y-15524000D02*
X13520000Y-16524000D01*
X3920000Y-1524000D02*
X3920000Y-3324000D01*
X3020000Y-3324000D02*
X3920000Y-3324000D01*
D11*
D12*
X13061000Y-13950000D02*
X13101000Y-13990000D01*
X13101000Y-13950000D02*
X13061000Y-13990000D01*
X14013500Y-14458000D02*
X14053500Y-14498000D01*
X14053500Y-14458000D02*
X14013500Y-14498000D01*
X20173000Y-10838500D02*
X20213000Y-10878500D01*
X20213000Y-10838500D02*
X20173000Y-10878500D01*
X20173000Y-10965500D02*
X20213000Y-11005500D01*
X20213000Y-10965500D02*
X20173000Y-11005500D01*
D13*
X3427500Y-9024000D02*
G75*
G03*
X3427500Y-9024000I-30000J0D01*
G01*
X3521958Y-8795958D02*
G75*
G03*
X3521958Y-8795958I-30000J0D01*
G01*
X3521958Y-9252042D02*
G75*
G03*
X3521958Y-9252042I-30000J0D01*
G01*
X3750000Y-8701500D02*
G75*
G03*
X3750000Y-8701500I-30000J0D01*
G01*
X3750000Y-9346500D02*
G75*
G03*
X3750000Y-9346500I-30000J0D01*
G01*
X3978042Y-8795958D02*
G75*
G03*
X3978042Y-8795958I-30000J0D01*
G01*
X3978042Y-9252042D02*
G75*
G03*
X3978042Y-9252042I-30000J0D01*
G01*
X4072500Y-9024000D02*
G75*
G03*
X4072500Y-9024000I-30000J0D01*
G01*
X4157500Y-2124000D02*
G75*
G03*
X4157500Y-2124000I-30000J0D01*
G01*
X4157500Y-15924000D02*
G75*
G03*
X4157500Y-15924000I-30000J0D01*
G01*
X4251958Y-1895958D02*
G75*
G03*
X4251958Y-1895958I-30000J0D01*
G01*
X4251958Y-2352042D02*
G75*
G03*
X4251958Y-2352042I-30000J0D01*
G01*
X4251958Y-15695958D02*
G75*
G03*
X4251958Y-15695958I-30000J0D01*
G01*
X4251958Y-16152042D02*
G75*
G03*
X4251958Y-16152042I-30000J0D01*
G01*
X4480000Y-1801500D02*
G75*
G03*
X4480000Y-1801500I-30000J0D01*
G01*
X4480000Y-2446500D02*
G75*
G03*
X4480000Y-2446500I-30000J0D01*
G01*
X4480000Y-15601500D02*
G75*
G03*
X4480000Y-15601500I-30000J0D01*
G01*
X4480000Y-16246500D02*
G75*
G03*
X4480000Y-16246500I-30000J0D01*
G01*
X4708042Y-1895958D02*
G75*
G03*
X4708042Y-1895958I-30000J0D01*
G01*
X4708042Y-2352042D02*
G75*
G03*
X4708042Y-2352042I-30000J0D01*
G01*
X4708042Y-15695958D02*
G75*
G03*
X4708042Y-15695958I-30000J0D01*
G01*
X4708042Y-16152042D02*
G75*
G03*
X4708042Y-16152042I-30000J0D01*
G01*
X4802500Y-2124000D02*
G75*
G03*
X4802500Y-2124000I-30000J0D01*
G01*
X4802500Y-15924000D02*
G75*
G03*
X4802500Y-15924000I-30000J0D01*
G01*
X24297500Y-2124000D02*
G75*
G03*
X24297500Y-2124000I-30000J0D01*
G01*
X24297500Y-15924000D02*
G75*
G03*
X24297500Y-15924000I-30000J0D01*
G01*
X24391958Y-1895958D02*
G75*
G03*
X24391958Y-1895958I-30000J0D01*
G01*
X24391958Y-2352042D02*
G75*
G03*
X24391958Y-2352042I-30000J0D01*
G01*
X24391958Y-15695958D02*
G75*
G03*
X24391958Y-15695958I-30000J0D01*
G01*
X24391958Y-16152042D02*
G75*
G03*
X24391958Y-16152042I-30000J0D01*
G01*
X24620000Y-1801500D02*
G75*
G03*
X24620000Y-1801500I-30000J0D01*
G01*
X24620000Y-2446500D02*
G75*
G03*
X24620000Y-2446500I-30000J0D01*
G01*
X24620000Y-15601500D02*
G75*
G03*
X24620000Y-15601500I-30000J0D01*
G01*
X24620000Y-16246500D02*
G75*
G03*
X24620000Y-16246500I-30000J0D01*
G01*
X24848042Y-1895958D02*
G75*
G03*
X24848042Y-1895958I-30000J0D01*
G01*
X24848042Y-2352042D02*
G75*
G03*
X24848042Y-2352042I-30000J0D01*
G01*
X24848042Y-15695958D02*
G75*
G03*
X24848042Y-15695958I-30000J0D01*
G01*
X24848042Y-16152042D02*
G75*
G03*
X24848042Y-16152042I-30000J0D01*
G01*
X24942500Y-2124000D02*
G75*
G03*
X24942500Y-2124000I-30000J0D01*
G01*
X24942500Y-15924000D02*
G75*
G03*
X24942500Y-15924000I-30000J0D01*
G01*
X25027500Y-9024000D02*
G75*
G03*
X25027500Y-9024000I-30000J0D01*
G01*
X25121958Y-8795958D02*
G75*
G03*
X25121958Y-8795958I-30000J0D01*
G01*
X25121958Y-9252042D02*
G75*
G03*
X25121958Y-9252042I-30000J0D01*
G01*
X25350000Y-8701500D02*
G75*
G03*
X25350000Y-8701500I-30000J0D01*
G01*
X25350000Y-9346500D02*
G75*
G03*
X25350000Y-9346500I-30000J0D01*
G01*
X25578042Y-8795958D02*
G75*
G03*
X25578042Y-8795958I-30000J0D01*
G01*
X25578042Y-9252042D02*
G75*
G03*
X25578042Y-9252042I-30000J0D01*
G01*
X25672500Y-9024000D02*
G75*
G03*
X25672500Y-9024000I-30000J0D01*
G01*
D14*
X15906000Y-10084500D02*
X15906000Y-10179500D01*
X15858500Y-10132000D02*
X15953500Y-10132000D01*
X16156000Y-10084500D02*
X16156000Y-10179500D01*
X16108500Y-10132000D02*
X16203500Y-10132000D01*
X16356000Y-10084500D02*
X16356000Y-10179500D01*
X16308500Y-10132000D02*
X16403500Y-10132000D01*
X16606000Y-10084500D02*
X16606000Y-10179500D01*
X16558500Y-10132000D02*
X16653500Y-10132000D01*
D15*
X12477356Y-6398356D02*
X12477356Y-6327644D01*
X12406644Y-6327644D01*
X12406644Y-6398356D01*
X12477356Y-6398356D01*
X12477356Y-6652356D02*
X12477356Y-6581644D01*
X12406644Y-6581644D01*
X12406644Y-6652356D01*
X12477356Y-6652356D01*
X12477356Y-6906356D02*
X12477356Y-6835644D01*
X12406644Y-6835644D01*
X12406644Y-6906356D01*
X12477356Y-6906356D01*
X12477356Y-7160356D02*
X12477356Y-7089644D01*
X12406644Y-7089644D01*
X12406644Y-7160356D01*
X12477356Y-7160356D01*
X12477356Y-7414356D02*
X12477356Y-7343644D01*
X12406644Y-7343644D01*
X12406644Y-7414356D01*
X12477356Y-7414356D01*
X12477356Y-7668356D02*
X12477356Y-7597644D01*
X12406644Y-7597644D01*
X12406644Y-7668356D01*
X12477356Y-7668356D01*
X12477356Y-7922356D02*
X12477356Y-7851644D01*
X12406644Y-7851644D01*
X12406644Y-7922356D01*
X12477356Y-7922356D01*
X12477356Y-8176356D02*
X12477356Y-8105644D01*
X12406644Y-8105644D01*
X12406644Y-8176356D01*
X12477356Y-8176356D01*
X12477356Y-8430356D02*
X12477356Y-8359644D01*
X12406644Y-8359644D01*
X12406644Y-8430356D01*
X12477356Y-8430356D01*
X12477356Y-8684356D02*
X12477356Y-8613644D01*
X12406644Y-8613644D01*
X12406644Y-8684356D01*
X12477356Y-8684356D01*
X12735356Y-13751356D02*
X12735356Y-13680644D01*
X12664644Y-13680644D01*
X12664644Y-13751356D01*
X12735356Y-13751356D01*
X12735356Y-14005356D02*
X12735356Y-13934644D01*
X12664644Y-13934644D01*
X12664644Y-14005356D01*
X12735356Y-14005356D01*
X12735356Y-14259356D02*
X12735356Y-14188644D01*
X12664644Y-14188644D01*
X12664644Y-14259356D01*
X12735356Y-14259356D01*
X12735356Y-14513356D02*
X12735356Y-14442644D01*
X12664644Y-14442644D01*
X12664644Y-14513356D01*
X12735356Y-14513356D01*
X13751356Y-13751356D02*
X13751356Y-13680644D01*
X13680644Y-13680644D01*
X13680644Y-13751356D01*
X13751356Y-13751356D01*
X13751356Y-14005356D02*
X13751356Y-13934644D01*
X13680644Y-13934644D01*
X13680644Y-14005356D01*
X13751356Y-14005356D01*
X13751356Y-14259356D02*
X13751356Y-14188644D01*
X13680644Y-14188644D01*
X13680644Y-14259356D01*
X13751356Y-14259356D01*
X15017356Y-6398356D02*
X15017356Y-6327644D01*
X14946644Y-6327644D01*
X14946644Y-6398356D01*
X15017356Y-6398356D01*
X15017356Y-6652356D02*
X15017356Y-6581644D01*
X14946644Y-6581644D01*
X14946644Y-6652356D01*
X15017356Y-6652356D01*
X15017356Y-6906356D02*
X15017356Y-6835644D01*
X14946644Y-6835644D01*
X14946644Y-6906356D01*
X15017356Y-6906356D01*
X15017356Y-7160356D02*
X15017356Y-7089644D01*
X14946644Y-7089644D01*
X14946644Y-7160356D01*
X15017356Y-7160356D01*
X15017356Y-7414356D02*
X15017356Y-7343644D01*
X14946644Y-7343644D01*
X14946644Y-7414356D01*
X15017356Y-7414356D01*
X15017356Y-7668356D02*
X15017356Y-7597644D01*
X14946644Y-7597644D01*
X14946644Y-7668356D01*
X15017356Y-7668356D01*
X15017356Y-7922356D02*
X15017356Y-7851644D01*
X14946644Y-7851644D01*
X14946644Y-7922356D01*
X15017356Y-7922356D01*
X15017356Y-8176356D02*
X15017356Y-8105644D01*
X14946644Y-8105644D01*
X14946644Y-8176356D01*
X15017356Y-8176356D01*
X15017356Y-8430356D02*
X15017356Y-8359644D01*
X14946644Y-8359644D01*
X14946644Y-8430356D01*
X15017356Y-8430356D01*
X15017356Y-8684356D02*
X15017356Y-8613644D01*
X14946644Y-8613644D01*
X14946644Y-8684356D01*
X15017356Y-8684356D01*
X18351356Y-4353356D02*
X18351356Y-4282644D01*
X18280644Y-4282644D01*
X18280644Y-4353356D01*
X18351356Y-4353356D01*
X18601356Y-7853356D02*
X18601356Y-7782644D01*
X18530644Y-7782644D01*
X18530644Y-7853356D01*
X18601356Y-7853356D01*
X19101356Y-7853356D02*
X19101356Y-7782644D01*
X19030644Y-7782644D01*
X19030644Y-7853356D01*
X19101356Y-7853356D01*
X21101356Y-7853356D02*
X21101356Y-7782644D01*
X21030644Y-7782644D01*
X21030644Y-7853356D01*
X21101356Y-7853356D01*
X21601356Y-7853356D02*
X21601356Y-7782644D01*
X21530644Y-7782644D01*
X21530644Y-7853356D01*
X21601356Y-7853356D01*
X21851356Y-4353356D02*
X21851356Y-4282644D01*
X21780644Y-4282644D01*
X21780644Y-4353356D01*
X21851356Y-4353356D01*
D16*
X21743308Y-10089000D02*
X21798308Y-10034000D01*
X21743308Y-9979000D01*
X21688308Y-10034000D01*
X21743308Y-10089000D01*
X21997308Y-10089000D02*
X22052308Y-10034000D01*
X21997308Y-9979000D01*
X21942308Y-10034000D01*
X21997308Y-10089000D01*
X22759308Y-10089000D02*
X22814308Y-10034000D01*
X22759308Y-9979000D01*
X22704308Y-10034000D01*
X22759308Y-10089000D01*
X23521308Y-10089000D02*
X23576308Y-10034000D01*
X23521308Y-9979000D01*
X23466308Y-10034000D01*
X23521308Y-10089000D01*
D17*
X6564250Y-13396250D02*
X6694250Y-13526250D01*
X6694250Y-13396250D02*
X6564250Y-13526250D01*
X6694250Y-13461250D02*
G75*
G03*
X6694250Y-13461250I-65000J0D01*
G01*
X6564250Y-15428250D02*
X6694250Y-15558250D01*
X6694250Y-15428250D02*
X6564250Y-15558250D01*
X6694250Y-15493250D02*
G75*
G03*
X6694250Y-15493250I-65000J0D01*
G01*
X11136250Y-13396250D02*
X11266250Y-13526250D01*
X11266250Y-13396250D02*
X11136250Y-13526250D01*
X11266250Y-13461250D02*
G75*
G03*
X11266250Y-13461250I-65000J0D01*
G01*
X11136250Y-14412250D02*
X11266250Y-14542250D01*
X11266250Y-14412250D02*
X11136250Y-14542250D01*
X11266250Y-14477250D02*
G75*
G03*
X11266250Y-14477250I-65000J0D01*
G01*
D18*
X19228000Y-12370000D02*
X19380000Y-12522000D01*
X19380000Y-12370000D02*
X19228000Y-12522000D01*
X19304000Y-12370000D02*
X19304000Y-12522000D01*
X19228000Y-12446000D02*
X19380000Y-12446000D01*
X19736000Y-12370000D02*
X19888000Y-12522000D01*
X19888000Y-12370000D02*
X19736000Y-12522000D01*
X19812000Y-12370000D02*
X19812000Y-12522000D01*
X19736000Y-12446000D02*
X19888000Y-12446000D01*
X21196500Y-12370000D02*
X21348500Y-12522000D01*
X21348500Y-12370000D02*
X21196500Y-12522000D01*
X21272500Y-12370000D02*
X21272500Y-12522000D01*
X21196500Y-12446000D02*
X21348500Y-12446000D01*
X21704500Y-12370000D02*
X21856500Y-12522000D01*
X21856500Y-12370000D02*
X21704500Y-12522000D01*
X21780500Y-12370000D02*
X21780500Y-12522000D01*
X21704500Y-12446000D02*
X21856500Y-12446000D01*
X23038000Y-12370000D02*
X23190000Y-12522000D01*
X23190000Y-12370000D02*
X23038000Y-12522000D01*
X23114000Y-12370000D02*
X23114000Y-12522000D01*
X23038000Y-12446000D02*
X23190000Y-12446000D01*
X23546000Y-12370000D02*
X23698000Y-12522000D01*
X23698000Y-12370000D02*
X23546000Y-12522000D01*
X23622000Y-12370000D02*
X23622000Y-12522000D01*
X23546000Y-12446000D02*
X23698000Y-12446000D01*
D19*
X15484000Y-10288000D02*
X15714000Y-10518000D01*
X15714000Y-10288000D02*
X15484000Y-10518000D01*
X15680318Y-10484318D02*
X15680318Y-10321682D01*
X15517682Y-10321682D01*
X15517682Y-10484318D01*
X15680318Y-10484318D01*
X16798000Y-10288000D02*
X17028000Y-10518000D01*
X17028000Y-10288000D02*
X16798000Y-10518000D01*
X16994318Y-10484318D02*
X16994318Y-10321682D01*
X16831682Y-10321682D01*
X16831682Y-10484318D01*
X16994318Y-10484318D01*
D20*
X3505000Y-8809000D02*
X3935000Y-9239000D01*
X3935000Y-8809000D02*
X3505000Y-9239000D01*
X3720000Y-9239000D02*
X3935000Y-9024000D01*
X3720000Y-8809000D01*
X3505000Y-9024000D01*
X3720000Y-9239000D01*
X4235000Y-1909000D02*
X4665000Y-2339000D01*
X4665000Y-1909000D02*
X4235000Y-2339000D01*
X4450000Y-2339000D02*
X4665000Y-2124000D01*
X4450000Y-1909000D01*
X4235000Y-2124000D01*
X4450000Y-2339000D01*
X4235000Y-15709000D02*
X4665000Y-16139000D01*
X4665000Y-15709000D02*
X4235000Y-16139000D01*
X4450000Y-16139000D02*
X4665000Y-15924000D01*
X4450000Y-15709000D01*
X4235000Y-15924000D01*
X4450000Y-16139000D01*
X24375000Y-1909000D02*
X24805000Y-2339000D01*
X24805000Y-1909000D02*
X24375000Y-2339000D01*
X24590000Y-2339000D02*
X24805000Y-2124000D01*
X24590000Y-1909000D01*
X24375000Y-2124000D01*
X24590000Y-2339000D01*
X24375000Y-15709000D02*
X24805000Y-16139000D01*
X24805000Y-15709000D02*
X24375000Y-16139000D01*
X24590000Y-16139000D02*
X24805000Y-15924000D01*
X24590000Y-15709000D01*
X24375000Y-15924000D01*
X24590000Y-16139000D01*
X25105000Y-8809000D02*
X25535000Y-9239000D01*
X25535000Y-8809000D02*
X25105000Y-9239000D01*
X25320000Y-9239000D02*
X25535000Y-9024000D01*
X25320000Y-8809000D01*
X25105000Y-9024000D01*
X25320000Y-9239000D01*
D21*
X16191000Y-3473000D02*
X16191000Y-3913000D01*
X15971000Y-3693000D02*
X16411000Y-3693000D01*
X16411000Y-3693000D02*
G75*
G03*
X16411000Y-3693000I-220000J0D01*
G01*
X16191000Y-8223000D02*
X16191000Y-8663000D01*
X15971000Y-8443000D02*
X16411000Y-8443000D01*
X16411000Y-8443000D02*
G75*
G03*
X16411000Y-8443000I-220000J0D01*
G01*
X23941000Y-3473000D02*
X23941000Y-3913000D01*
X23721000Y-3693000D02*
X24161000Y-3693000D01*
X24161000Y-3693000D02*
G75*
G03*
X24161000Y-3693000I-220000J0D01*
G01*
X23941000Y-8223000D02*
X23941000Y-8663000D01*
X23721000Y-8443000D02*
X24161000Y-8443000D01*
X24161000Y-8443000D02*
G75*
G03*
X24161000Y-8443000I-220000J0D01*
G01*
D11*
X3272619Y-16839476D02*
X3272619Y-16639476D01*
X3320238Y-16639476D01*
X3348809Y-16649000D01*
X3367857Y-16668048D01*
X3377381Y-16687095D01*
X3386905Y-16725190D01*
X3386905Y-16753762D01*
X3377381Y-16791857D01*
X3367857Y-16810905D01*
X3348809Y-16829952D01*
X3320238Y-16839476D01*
X3272619Y-16839476D01*
X3472619Y-16839476D02*
X3472619Y-16706143D01*
X3472619Y-16744238D02*
X3482143Y-16725190D01*
X3491667Y-16715667D01*
X3510714Y-16706143D01*
X3529762Y-16706143D01*
X3596428Y-16839476D02*
X3596428Y-16706143D01*
X3596428Y-16639476D02*
X3586905Y-16649000D01*
X3596428Y-16658524D01*
X3605952Y-16649000D01*
X3596428Y-16639476D01*
X3596428Y-16658524D01*
X3720238Y-16839476D02*
X3701190Y-16829952D01*
X3691667Y-16810905D01*
X3691667Y-16639476D01*
X3825000Y-16839476D02*
X3805952Y-16829952D01*
X3796428Y-16810905D01*
X3796428Y-16639476D01*
X4053571Y-16839476D02*
X4053571Y-16639476D01*
X4120238Y-16782333D01*
X4186905Y-16639476D01*
X4186905Y-16839476D01*
X4367857Y-16839476D02*
X4367857Y-16734714D01*
X4358333Y-16715667D01*
X4339286Y-16706143D01*
X4301190Y-16706143D01*
X4282143Y-16715667D01*
X4367857Y-16829952D02*
X4348810Y-16839476D01*
X4301190Y-16839476D01*
X4282143Y-16829952D01*
X4272619Y-16810905D01*
X4272619Y-16791857D01*
X4282143Y-16772809D01*
X4301190Y-16763286D01*
X4348810Y-16763286D01*
X4367857Y-16753762D01*
X4463095Y-16706143D02*
X4463095Y-16906143D01*
X4463095Y-16715667D02*
X4482143Y-16706143D01*
X4520238Y-16706143D01*
X4539286Y-16715667D01*
X4548810Y-16725190D01*
X4558333Y-16744238D01*
X4558333Y-16801381D01*
X4548810Y-16820429D01*
X4539286Y-16829952D01*
X4520238Y-16839476D01*
X4482143Y-16839476D01*
X4463095Y-16829952D01*
X4644048Y-16820429D02*
X4653571Y-16829952D01*
X4644048Y-16839476D01*
X4634524Y-16829952D01*
X4644048Y-16820429D01*
X4644048Y-16839476D01*
X4644048Y-16715667D02*
X4653571Y-16725190D01*
X4644048Y-16734714D01*
X4634524Y-16725190D01*
X4644048Y-16715667D01*
X4644048Y-16734714D01*
D12*
X2975000Y-17149000D02*
X3015000Y-17189000D01*
X3015000Y-17149000D02*
X2975000Y-17189000D01*
D11*
X3310714Y-17059476D02*
X3329762Y-17059476D01*
X3348809Y-17069000D01*
X3358333Y-17078524D01*
X3367857Y-17097571D01*
X3377381Y-17135667D01*
X3377381Y-17183286D01*
X3367857Y-17221381D01*
X3358333Y-17240429D01*
X3348809Y-17249952D01*
X3329762Y-17259476D01*
X3310714Y-17259476D01*
X3291667Y-17249952D01*
X3282143Y-17240429D01*
X3272619Y-17221381D01*
X3263095Y-17183286D01*
X3263095Y-17135667D01*
X3272619Y-17097571D01*
X3282143Y-17078524D01*
X3291667Y-17069000D01*
X3310714Y-17059476D01*
X3463095Y-17240429D02*
X3472619Y-17249952D01*
X3463095Y-17259476D01*
X3453571Y-17249952D01*
X3463095Y-17240429D01*
X3463095Y-17259476D01*
X3644048Y-17126143D02*
X3644048Y-17259476D01*
X3596428Y-17049952D02*
X3548809Y-17192810D01*
X3672619Y-17192810D01*
X3786905Y-17059476D02*
X3805952Y-17059476D01*
X3825000Y-17069000D01*
X3834524Y-17078524D01*
X3844048Y-17097571D01*
X3853571Y-17135667D01*
X3853571Y-17183286D01*
X3844048Y-17221381D01*
X3834524Y-17240429D01*
X3825000Y-17249952D01*
X3805952Y-17259476D01*
X3786905Y-17259476D01*
X3767857Y-17249952D01*
X3758333Y-17240429D01*
X3748809Y-17221381D01*
X3739286Y-17183286D01*
X3739286Y-17135667D01*
X3748809Y-17097571D01*
X3758333Y-17078524D01*
X3767857Y-17069000D01*
X3786905Y-17059476D01*
X3977381Y-17059476D02*
X3996428Y-17059476D01*
X4015476Y-17069000D01*
X4025000Y-17078524D01*
X4034524Y-17097571D01*
X4044048Y-17135667D01*
X4044048Y-17183286D01*
X4034524Y-17221381D01*
X4025000Y-17240429D01*
X4015476Y-17249952D01*
X3996428Y-17259476D01*
X3977381Y-17259476D01*
X3958333Y-17249952D01*
X3948809Y-17240429D01*
X3939286Y-17221381D01*
X3929762Y-17183286D01*
X3929762Y-17135667D01*
X3939286Y-17097571D01*
X3948809Y-17078524D01*
X3958333Y-17069000D01*
X3977381Y-17059476D01*
X4129762Y-17259476D02*
X4129762Y-17126143D01*
X4129762Y-17145190D02*
X4139286Y-17135667D01*
X4158333Y-17126143D01*
X4186905Y-17126143D01*
X4205952Y-17135667D01*
X4215476Y-17154714D01*
X4215476Y-17259476D01*
X4215476Y-17154714D02*
X4225000Y-17135667D01*
X4244048Y-17126143D01*
X4272619Y-17126143D01*
X4291667Y-17135667D01*
X4301190Y-17154714D01*
X4301190Y-17259476D01*
X4396429Y-17259476D02*
X4396429Y-17126143D01*
X4396429Y-17145190D02*
X4405952Y-17135667D01*
X4425000Y-17126143D01*
X4453571Y-17126143D01*
X4472619Y-17135667D01*
X4482143Y-17154714D01*
X4482143Y-17259476D01*
X4482143Y-17154714D02*
X4491667Y-17135667D01*
X4510714Y-17126143D01*
X4539286Y-17126143D01*
X4558333Y-17135667D01*
X4567857Y-17154714D01*
X4567857Y-17259476D01*
X4958333Y-17049952D02*
X4786905Y-17307095D01*
X5215476Y-17059476D02*
X5234524Y-17059476D01*
X5253571Y-17069000D01*
X5263095Y-17078524D01*
X5272619Y-17097571D01*
X5282143Y-17135667D01*
X5282143Y-17183286D01*
X5272619Y-17221381D01*
X5263095Y-17240429D01*
X5253571Y-17249952D01*
X5234524Y-17259476D01*
X5215476Y-17259476D01*
X5196429Y-17249952D01*
X5186905Y-17240429D01*
X5177381Y-17221381D01*
X5167857Y-17183286D01*
X5167857Y-17135667D01*
X5177381Y-17097571D01*
X5186905Y-17078524D01*
X5196429Y-17069000D01*
X5215476Y-17059476D01*
X5367857Y-17240429D02*
X5377381Y-17249952D01*
X5367857Y-17259476D01*
X5358333Y-17249952D01*
X5367857Y-17240429D01*
X5367857Y-17259476D01*
X5501190Y-17059476D02*
X5520238Y-17059476D01*
X5539286Y-17069000D01*
X5548810Y-17078524D01*
X5558333Y-17097571D01*
X5567857Y-17135667D01*
X5567857Y-17183286D01*
X5558333Y-17221381D01*
X5548810Y-17240429D01*
X5539286Y-17249952D01*
X5520238Y-17259476D01*
X5501190Y-17259476D01*
X5482143Y-17249952D01*
X5472619Y-17240429D01*
X5463095Y-17221381D01*
X5453571Y-17183286D01*
X5453571Y-17135667D01*
X5463095Y-17097571D01*
X5472619Y-17078524D01*
X5482143Y-17069000D01*
X5501190Y-17059476D01*
X5758333Y-17259476D02*
X5644048Y-17259476D01*
X5701190Y-17259476D02*
X5701190Y-17059476D01*
X5682143Y-17088048D01*
X5663095Y-17107095D01*
X5644048Y-17116619D01*
X5939286Y-17059476D02*
X5844048Y-17059476D01*
X5834524Y-17154714D01*
X5844048Y-17145190D01*
X5863095Y-17135667D01*
X5910714Y-17135667D01*
X5929762Y-17145190D01*
X5939286Y-17154714D01*
X5948809Y-17173762D01*
X5948809Y-17221381D01*
X5939286Y-17240429D01*
X5929762Y-17249952D01*
X5910714Y-17259476D01*
X5863095Y-17259476D01*
X5844048Y-17249952D01*
X5834524Y-17240429D01*
X6015476Y-17059476D02*
X6148809Y-17059476D01*
X6063095Y-17259476D01*
X6215476Y-17059476D02*
X6215476Y-17097571D01*
X6291667Y-17059476D02*
X6291667Y-17097571D01*
X6586905Y-17335667D02*
X6577381Y-17326143D01*
X6558333Y-17297571D01*
X6548809Y-17278524D01*
X6539286Y-17249952D01*
X6529762Y-17202333D01*
X6529762Y-17164238D01*
X6539286Y-17116619D01*
X6548809Y-17088048D01*
X6558333Y-17069000D01*
X6577381Y-17040429D01*
X6586905Y-17030905D01*
X6748809Y-17126143D02*
X6748809Y-17259476D01*
X6701190Y-17049952D02*
X6653571Y-17192810D01*
X6777381Y-17192810D01*
X7005952Y-17259476D02*
X7005952Y-17059476D01*
X7091667Y-17259476D02*
X7091667Y-17154714D01*
X7082143Y-17135667D01*
X7063095Y-17126143D01*
X7034524Y-17126143D01*
X7015476Y-17135667D01*
X7005952Y-17145190D01*
X7215476Y-17259476D02*
X7196428Y-17249952D01*
X7186905Y-17240429D01*
X7177381Y-17221381D01*
X7177381Y-17164238D01*
X7186905Y-17145190D01*
X7196428Y-17135667D01*
X7215476Y-17126143D01*
X7244048Y-17126143D01*
X7263095Y-17135667D01*
X7272619Y-17145190D01*
X7282143Y-17164238D01*
X7282143Y-17221381D01*
X7272619Y-17240429D01*
X7263095Y-17249952D01*
X7244048Y-17259476D01*
X7215476Y-17259476D01*
X7396428Y-17259476D02*
X7377381Y-17249952D01*
X7367857Y-17230905D01*
X7367857Y-17059476D01*
X7548809Y-17249952D02*
X7529762Y-17259476D01*
X7491667Y-17259476D01*
X7472619Y-17249952D01*
X7463095Y-17230905D01*
X7463095Y-17154714D01*
X7472619Y-17135667D01*
X7491667Y-17126143D01*
X7529762Y-17126143D01*
X7548809Y-17135667D01*
X7558333Y-17154714D01*
X7558333Y-17173762D01*
X7463095Y-17192810D01*
X7634524Y-17249952D02*
X7653571Y-17259476D01*
X7691667Y-17259476D01*
X7710714Y-17249952D01*
X7720238Y-17230905D01*
X7720238Y-17221381D01*
X7710714Y-17202333D01*
X7691667Y-17192810D01*
X7663095Y-17192810D01*
X7644048Y-17183286D01*
X7634524Y-17164238D01*
X7634524Y-17154714D01*
X7644048Y-17135667D01*
X7663095Y-17126143D01*
X7691667Y-17126143D01*
X7710714Y-17135667D01*
X7786905Y-17335667D02*
X7796428Y-17326143D01*
X7815476Y-17297571D01*
X7825000Y-17278524D01*
X7834524Y-17249952D01*
X7844048Y-17202333D01*
X7844048Y-17164238D01*
X7834524Y-17116619D01*
X7825000Y-17088048D01*
X7815476Y-17069000D01*
X7796428Y-17040429D01*
X7786905Y-17030905D01*
D13*
X3015000Y-17433000D02*
G75*
G03*
X3015000Y-17433000I-30000J0D01*
G01*
D11*
X3310714Y-17323476D02*
X3329762Y-17323476D01*
X3348809Y-17333000D01*
X3358333Y-17342524D01*
X3367857Y-17361571D01*
X3377381Y-17399667D01*
X3377381Y-17447286D01*
X3367857Y-17485381D01*
X3358333Y-17504429D01*
X3348809Y-17513952D01*
X3329762Y-17523476D01*
X3310714Y-17523476D01*
X3291667Y-17513952D01*
X3282143Y-17504429D01*
X3272619Y-17485381D01*
X3263095Y-17447286D01*
X3263095Y-17399667D01*
X3272619Y-17361571D01*
X3282143Y-17342524D01*
X3291667Y-17333000D01*
X3310714Y-17323476D01*
X3463095Y-17504429D02*
X3472619Y-17513952D01*
X3463095Y-17523476D01*
X3453571Y-17513952D01*
X3463095Y-17504429D01*
X3463095Y-17523476D01*
X3644048Y-17323476D02*
X3605952Y-17323476D01*
X3586905Y-17333000D01*
X3577381Y-17342524D01*
X3558333Y-17371095D01*
X3548809Y-17409190D01*
X3548809Y-17485381D01*
X3558333Y-17504429D01*
X3567857Y-17513952D01*
X3586905Y-17523476D01*
X3625000Y-17523476D01*
X3644048Y-17513952D01*
X3653571Y-17504429D01*
X3663095Y-17485381D01*
X3663095Y-17437762D01*
X3653571Y-17418714D01*
X3644048Y-17409190D01*
X3625000Y-17399667D01*
X3586905Y-17399667D01*
X3567857Y-17409190D01*
X3558333Y-17418714D01*
X3548809Y-17437762D01*
X3786905Y-17323476D02*
X3805952Y-17323476D01*
X3825000Y-17333000D01*
X3834524Y-17342524D01*
X3844048Y-17361571D01*
X3853571Y-17399667D01*
X3853571Y-17447286D01*
X3844048Y-17485381D01*
X3834524Y-17504429D01*
X3825000Y-17513952D01*
X3805952Y-17523476D01*
X3786905Y-17523476D01*
X3767857Y-17513952D01*
X3758333Y-17504429D01*
X3748809Y-17485381D01*
X3739286Y-17447286D01*
X3739286Y-17399667D01*
X3748809Y-17361571D01*
X3758333Y-17342524D01*
X3767857Y-17333000D01*
X3786905Y-17323476D01*
X3977381Y-17323476D02*
X3996428Y-17323476D01*
X4015476Y-17333000D01*
X4025000Y-17342524D01*
X4034524Y-17361571D01*
X4044048Y-17399667D01*
X4044048Y-17447286D01*
X4034524Y-17485381D01*
X4025000Y-17504429D01*
X4015476Y-17513952D01*
X3996428Y-17523476D01*
X3977381Y-17523476D01*
X3958333Y-17513952D01*
X3948809Y-17504429D01*
X3939286Y-17485381D01*
X3929762Y-17447286D01*
X3929762Y-17399667D01*
X3939286Y-17361571D01*
X3948809Y-17342524D01*
X3958333Y-17333000D01*
X3977381Y-17323476D01*
X4129762Y-17523476D02*
X4129762Y-17390143D01*
X4129762Y-17409190D02*
X4139286Y-17399667D01*
X4158333Y-17390143D01*
X4186905Y-17390143D01*
X4205952Y-17399667D01*
X4215476Y-17418714D01*
X4215476Y-17523476D01*
X4215476Y-17418714D02*
X4225000Y-17399667D01*
X4244048Y-17390143D01*
X4272619Y-17390143D01*
X4291667Y-17399667D01*
X4301190Y-17418714D01*
X4301190Y-17523476D01*
X4396429Y-17523476D02*
X4396429Y-17390143D01*
X4396429Y-17409190D02*
X4405952Y-17399667D01*
X4425000Y-17390143D01*
X4453571Y-17390143D01*
X4472619Y-17399667D01*
X4482143Y-17418714D01*
X4482143Y-17523476D01*
X4482143Y-17418714D02*
X4491667Y-17399667D01*
X4510714Y-17390143D01*
X4539286Y-17390143D01*
X4558333Y-17399667D01*
X4567857Y-17418714D01*
X4567857Y-17523476D01*
X4958333Y-17313952D02*
X4786905Y-17571095D01*
X5215476Y-17323476D02*
X5234524Y-17323476D01*
X5253571Y-17333000D01*
X5263095Y-17342524D01*
X5272619Y-17361571D01*
X5282143Y-17399667D01*
X5282143Y-17447286D01*
X5272619Y-17485381D01*
X5263095Y-17504429D01*
X5253571Y-17513952D01*
X5234524Y-17523476D01*
X5215476Y-17523476D01*
X5196429Y-17513952D01*
X5186905Y-17504429D01*
X5177381Y-17485381D01*
X5167857Y-17447286D01*
X5167857Y-17399667D01*
X5177381Y-17361571D01*
X5186905Y-17342524D01*
X5196429Y-17333000D01*
X5215476Y-17323476D01*
X5367857Y-17504429D02*
X5377381Y-17513952D01*
X5367857Y-17523476D01*
X5358333Y-17513952D01*
X5367857Y-17504429D01*
X5367857Y-17523476D01*
X5501190Y-17323476D02*
X5520238Y-17323476D01*
X5539286Y-17333000D01*
X5548810Y-17342524D01*
X5558333Y-17361571D01*
X5567857Y-17399667D01*
X5567857Y-17447286D01*
X5558333Y-17485381D01*
X5548810Y-17504429D01*
X5539286Y-17513952D01*
X5520238Y-17523476D01*
X5501190Y-17523476D01*
X5482143Y-17513952D01*
X5472619Y-17504429D01*
X5463095Y-17485381D01*
X5453571Y-17447286D01*
X5453571Y-17399667D01*
X5463095Y-17361571D01*
X5472619Y-17342524D01*
X5482143Y-17333000D01*
X5501190Y-17323476D01*
X5644048Y-17342524D02*
X5653571Y-17333000D01*
X5672619Y-17323476D01*
X5720238Y-17323476D01*
X5739286Y-17333000D01*
X5748809Y-17342524D01*
X5758333Y-17361571D01*
X5758333Y-17380619D01*
X5748809Y-17409190D01*
X5634524Y-17523476D01*
X5758333Y-17523476D01*
X5825000Y-17323476D02*
X5948809Y-17323476D01*
X5882143Y-17399667D01*
X5910714Y-17399667D01*
X5929762Y-17409190D01*
X5939286Y-17418714D01*
X5948809Y-17437762D01*
X5948809Y-17485381D01*
X5939286Y-17504429D01*
X5929762Y-17513952D01*
X5910714Y-17523476D01*
X5853571Y-17523476D01*
X5834524Y-17513952D01*
X5825000Y-17504429D01*
X6120238Y-17323476D02*
X6082143Y-17323476D01*
X6063095Y-17333000D01*
X6053571Y-17342524D01*
X6034524Y-17371095D01*
X6025000Y-17409190D01*
X6025000Y-17485381D01*
X6034524Y-17504429D01*
X6044048Y-17513952D01*
X6063095Y-17523476D01*
X6101190Y-17523476D01*
X6120238Y-17513952D01*
X6129762Y-17504429D01*
X6139286Y-17485381D01*
X6139286Y-17437762D01*
X6129762Y-17418714D01*
X6120238Y-17409190D01*
X6101190Y-17399667D01*
X6063095Y-17399667D01*
X6044048Y-17409190D01*
X6034524Y-17418714D01*
X6025000Y-17437762D01*
X6215476Y-17323476D02*
X6215476Y-17361571D01*
X6291667Y-17323476D02*
X6291667Y-17361571D01*
X6586905Y-17599667D02*
X6577381Y-17590143D01*
X6558333Y-17561571D01*
X6548809Y-17542524D01*
X6539286Y-17513952D01*
X6529762Y-17466333D01*
X6529762Y-17428238D01*
X6539286Y-17380619D01*
X6548809Y-17352048D01*
X6558333Y-17333000D01*
X6577381Y-17304429D01*
X6586905Y-17294905D01*
X6748809Y-17390143D02*
X6748809Y-17523476D01*
X6701190Y-17313952D02*
X6653571Y-17456810D01*
X6777381Y-17456810D01*
X6882143Y-17409190D02*
X6863095Y-17399667D01*
X6853571Y-17390143D01*
X6844048Y-17371095D01*
X6844048Y-17361571D01*
X6853571Y-17342524D01*
X6863095Y-17333000D01*
X6882143Y-17323476D01*
X6920238Y-17323476D01*
X6939286Y-17333000D01*
X6948809Y-17342524D01*
X6958333Y-17361571D01*
X6958333Y-17371095D01*
X6948809Y-17390143D01*
X6939286Y-17399667D01*
X6920238Y-17409190D01*
X6882143Y-17409190D01*
X6863095Y-17418714D01*
X6853571Y-17428238D01*
X6844048Y-17447286D01*
X6844048Y-17485381D01*
X6853571Y-17504429D01*
X6863095Y-17513952D01*
X6882143Y-17523476D01*
X6920238Y-17523476D01*
X6939286Y-17513952D01*
X6948809Y-17504429D01*
X6958333Y-17485381D01*
X6958333Y-17447286D01*
X6948809Y-17428238D01*
X6939286Y-17418714D01*
X6920238Y-17409190D01*
X7196428Y-17523476D02*
X7196428Y-17323476D01*
X7282143Y-17523476D02*
X7282143Y-17418714D01*
X7272619Y-17399667D01*
X7253571Y-17390143D01*
X7225000Y-17390143D01*
X7205952Y-17399667D01*
X7196428Y-17409190D01*
X7405952Y-17523476D02*
X7386905Y-17513952D01*
X7377381Y-17504429D01*
X7367857Y-17485381D01*
X7367857Y-17428238D01*
X7377381Y-17409190D01*
X7386905Y-17399667D01*
X7405952Y-17390143D01*
X7434524Y-17390143D01*
X7453571Y-17399667D01*
X7463095Y-17409190D01*
X7472619Y-17428238D01*
X7472619Y-17485381D01*
X7463095Y-17504429D01*
X7453571Y-17513952D01*
X7434524Y-17523476D01*
X7405952Y-17523476D01*
X7586905Y-17523476D02*
X7567857Y-17513952D01*
X7558333Y-17494905D01*
X7558333Y-17323476D01*
X7739286Y-17513952D02*
X7720238Y-17523476D01*
X7682143Y-17523476D01*
X7663095Y-17513952D01*
X7653571Y-17494905D01*
X7653571Y-17418714D01*
X7663095Y-17399667D01*
X7682143Y-17390143D01*
X7720238Y-17390143D01*
X7739286Y-17399667D01*
X7748809Y-17418714D01*
X7748809Y-17437762D01*
X7653571Y-17456810D01*
X7825000Y-17513952D02*
X7844048Y-17523476D01*
X7882143Y-17523476D01*
X7901190Y-17513952D01*
X7910714Y-17494905D01*
X7910714Y-17485381D01*
X7901190Y-17466333D01*
X7882143Y-17456810D01*
X7853571Y-17456810D01*
X7834524Y-17447286D01*
X7825000Y-17428238D01*
X7825000Y-17418714D01*
X7834524Y-17399667D01*
X7853571Y-17390143D01*
X7882143Y-17390143D01*
X7901190Y-17399667D01*
X7977381Y-17599667D02*
X7986905Y-17590143D01*
X8005952Y-17561571D01*
X8015476Y-17542524D01*
X8025000Y-17513952D01*
X8034524Y-17466333D01*
X8034524Y-17428238D01*
X8025000Y-17380619D01*
X8015476Y-17352048D01*
X8005952Y-17333000D01*
X7986905Y-17304429D01*
X7977381Y-17294905D01*
D14*
X2967500Y-17649500D02*
X2967500Y-17744500D01*
X2920000Y-17697000D02*
X3015000Y-17697000D01*
D11*
X3310714Y-17587476D02*
X3329762Y-17587476D01*
X3348809Y-17597000D01*
X3358333Y-17606524D01*
X3367857Y-17625571D01*
X3377381Y-17663667D01*
X3377381Y-17711286D01*
X3367857Y-17749381D01*
X3358333Y-17768429D01*
X3348809Y-17777952D01*
X3329762Y-17787476D01*
X3310714Y-17787476D01*
X3291667Y-17777952D01*
X3282143Y-17768429D01*
X3272619Y-17749381D01*
X3263095Y-17711286D01*
X3263095Y-17663667D01*
X3272619Y-17625571D01*
X3282143Y-17606524D01*
X3291667Y-17597000D01*
X3310714Y-17587476D01*
X3463095Y-17768429D02*
X3472619Y-17777952D01*
X3463095Y-17787476D01*
X3453571Y-17777952D01*
X3463095Y-17768429D01*
X3463095Y-17787476D01*
X3567857Y-17787476D02*
X3605952Y-17787476D01*
X3625000Y-17777952D01*
X3634524Y-17768429D01*
X3653571Y-17739857D01*
X3663095Y-17701762D01*
X3663095Y-17625571D01*
X3653571Y-17606524D01*
X3644048Y-17597000D01*
X3625000Y-17587476D01*
X3586905Y-17587476D01*
X3567857Y-17597000D01*
X3558333Y-17606524D01*
X3548809Y-17625571D01*
X3548809Y-17673190D01*
X3558333Y-17692238D01*
X3567857Y-17701762D01*
X3586905Y-17711286D01*
X3625000Y-17711286D01*
X3644048Y-17701762D01*
X3653571Y-17692238D01*
X3663095Y-17673190D01*
X3844048Y-17587476D02*
X3748809Y-17587476D01*
X3739286Y-17682714D01*
X3748809Y-17673190D01*
X3767857Y-17663667D01*
X3815476Y-17663667D01*
X3834524Y-17673190D01*
X3844048Y-17682714D01*
X3853571Y-17701762D01*
X3853571Y-17749381D01*
X3844048Y-17768429D01*
X3834524Y-17777952D01*
X3815476Y-17787476D01*
X3767857Y-17787476D01*
X3748809Y-17777952D01*
X3739286Y-17768429D01*
X3977381Y-17587476D02*
X3996428Y-17587476D01*
X4015476Y-17597000D01*
X4025000Y-17606524D01*
X4034524Y-17625571D01*
X4044048Y-17663667D01*
X4044048Y-17711286D01*
X4034524Y-17749381D01*
X4025000Y-17768429D01*
X4015476Y-17777952D01*
X3996428Y-17787476D01*
X3977381Y-17787476D01*
X3958333Y-17777952D01*
X3948809Y-17768429D01*
X3939286Y-17749381D01*
X3929762Y-17711286D01*
X3929762Y-17663667D01*
X3939286Y-17625571D01*
X3948809Y-17606524D01*
X3958333Y-17597000D01*
X3977381Y-17587476D01*
X4129762Y-17787476D02*
X4129762Y-17654143D01*
X4129762Y-17673190D02*
X4139286Y-17663667D01*
X4158333Y-17654143D01*
X4186905Y-17654143D01*
X4205952Y-17663667D01*
X4215476Y-17682714D01*
X4215476Y-17787476D01*
X4215476Y-17682714D02*
X4225000Y-17663667D01*
X4244048Y-17654143D01*
X4272619Y-17654143D01*
X4291667Y-17663667D01*
X4301190Y-17682714D01*
X4301190Y-17787476D01*
X4396429Y-17787476D02*
X4396429Y-17654143D01*
X4396429Y-17673190D02*
X4405952Y-17663667D01*
X4425000Y-17654143D01*
X4453571Y-17654143D01*
X4472619Y-17663667D01*
X4482143Y-17682714D01*
X4482143Y-17787476D01*
X4482143Y-17682714D02*
X4491667Y-17663667D01*
X4510714Y-17654143D01*
X4539286Y-17654143D01*
X4558333Y-17663667D01*
X4567857Y-17682714D01*
X4567857Y-17787476D01*
X4958333Y-17577952D02*
X4786905Y-17835095D01*
X5215476Y-17587476D02*
X5234524Y-17587476D01*
X5253571Y-17597000D01*
X5263095Y-17606524D01*
X5272619Y-17625571D01*
X5282143Y-17663667D01*
X5282143Y-17711286D01*
X5272619Y-17749381D01*
X5263095Y-17768429D01*
X5253571Y-17777952D01*
X5234524Y-17787476D01*
X5215476Y-17787476D01*
X5196429Y-17777952D01*
X5186905Y-17768429D01*
X5177381Y-17749381D01*
X5167857Y-17711286D01*
X5167857Y-17663667D01*
X5177381Y-17625571D01*
X5186905Y-17606524D01*
X5196429Y-17597000D01*
X5215476Y-17587476D01*
X5367857Y-17768429D02*
X5377381Y-17777952D01*
X5367857Y-17787476D01*
X5358333Y-17777952D01*
X5367857Y-17768429D01*
X5367857Y-17787476D01*
X5501190Y-17587476D02*
X5520238Y-17587476D01*
X5539286Y-17597000D01*
X5548810Y-17606524D01*
X5558333Y-17625571D01*
X5567857Y-17663667D01*
X5567857Y-17711286D01*
X5558333Y-17749381D01*
X5548810Y-17768429D01*
X5539286Y-17777952D01*
X5520238Y-17787476D01*
X5501190Y-17787476D01*
X5482143Y-17777952D01*
X5472619Y-17768429D01*
X5463095Y-17749381D01*
X5453571Y-17711286D01*
X5453571Y-17663667D01*
X5463095Y-17625571D01*
X5472619Y-17606524D01*
X5482143Y-17597000D01*
X5501190Y-17587476D01*
X5634524Y-17587476D02*
X5758333Y-17587476D01*
X5691667Y-17663667D01*
X5720238Y-17663667D01*
X5739286Y-17673190D01*
X5748809Y-17682714D01*
X5758333Y-17701762D01*
X5758333Y-17749381D01*
X5748809Y-17768429D01*
X5739286Y-17777952D01*
X5720238Y-17787476D01*
X5663095Y-17787476D01*
X5644048Y-17777952D01*
X5634524Y-17768429D01*
X5825000Y-17587476D02*
X5958333Y-17587476D01*
X5872619Y-17787476D01*
X6120238Y-17654143D02*
X6120238Y-17787476D01*
X6072619Y-17577952D02*
X6025000Y-17720810D01*
X6148809Y-17720810D01*
X6215476Y-17587476D02*
X6215476Y-17625571D01*
X6291667Y-17587476D02*
X6291667Y-17625571D01*
X6586905Y-17863667D02*
X6577381Y-17854143D01*
X6558333Y-17825571D01*
X6548809Y-17806524D01*
X6539286Y-17777952D01*
X6529762Y-17730333D01*
X6529762Y-17692238D01*
X6539286Y-17644619D01*
X6548809Y-17616048D01*
X6558333Y-17597000D01*
X6577381Y-17568429D01*
X6586905Y-17558905D01*
X6748809Y-17654143D02*
X6748809Y-17787476D01*
X6701190Y-17577952D02*
X6653571Y-17720810D01*
X6777381Y-17720810D01*
X7005952Y-17787476D02*
X7005952Y-17587476D01*
X7091667Y-17787476D02*
X7091667Y-17682714D01*
X7082143Y-17663667D01*
X7063095Y-17654143D01*
X7034524Y-17654143D01*
X7015476Y-17663667D01*
X7005952Y-17673190D01*
X7215476Y-17787476D02*
X7196428Y-17777952D01*
X7186905Y-17768429D01*
X7177381Y-17749381D01*
X7177381Y-17692238D01*
X7186905Y-17673190D01*
X7196428Y-17663667D01*
X7215476Y-17654143D01*
X7244048Y-17654143D01*
X7263095Y-17663667D01*
X7272619Y-17673190D01*
X7282143Y-17692238D01*
X7282143Y-17749381D01*
X7272619Y-17768429D01*
X7263095Y-17777952D01*
X7244048Y-17787476D01*
X7215476Y-17787476D01*
X7396428Y-17787476D02*
X7377381Y-17777952D01*
X7367857Y-17758905D01*
X7367857Y-17587476D01*
X7548809Y-17777952D02*
X7529762Y-17787476D01*
X7491667Y-17787476D01*
X7472619Y-17777952D01*
X7463095Y-17758905D01*
X7463095Y-17682714D01*
X7472619Y-17663667D01*
X7491667Y-17654143D01*
X7529762Y-17654143D01*
X7548809Y-17663667D01*
X7558333Y-17682714D01*
X7558333Y-17701762D01*
X7463095Y-17720810D01*
X7634524Y-17777952D02*
X7653571Y-17787476D01*
X7691667Y-17787476D01*
X7710714Y-17777952D01*
X7720238Y-17758905D01*
X7720238Y-17749381D01*
X7710714Y-17730333D01*
X7691667Y-17720810D01*
X7663095Y-17720810D01*
X7644048Y-17711286D01*
X7634524Y-17692238D01*
X7634524Y-17682714D01*
X7644048Y-17663667D01*
X7663095Y-17654143D01*
X7691667Y-17654143D01*
X7710714Y-17663667D01*
X7786905Y-17863667D02*
X7796428Y-17854143D01*
X7815476Y-17825571D01*
X7825000Y-17806524D01*
X7834524Y-17777952D01*
X7844048Y-17730333D01*
X7844048Y-17692238D01*
X7834524Y-17644619D01*
X7825000Y-17616048D01*
X7815476Y-17597000D01*
X7796428Y-17568429D01*
X7786905Y-17558905D01*
D15*
X3000356Y-17996356D02*
X3000356Y-17925644D01*
X2929644Y-17925644D01*
X2929644Y-17996356D01*
X3000356Y-17996356D01*
D11*
X3377381Y-18051476D02*
X3263095Y-18051476D01*
X3320238Y-18051476D02*
X3320238Y-17851476D01*
X3301190Y-17880048D01*
X3282143Y-17899095D01*
X3263095Y-17908619D01*
X3463095Y-18032429D02*
X3472619Y-18041952D01*
X3463095Y-18051476D01*
X3453571Y-18041952D01*
X3463095Y-18032429D01*
X3463095Y-18051476D01*
X3596428Y-17851476D02*
X3615476Y-17851476D01*
X3634524Y-17861000D01*
X3644048Y-17870524D01*
X3653571Y-17889571D01*
X3663095Y-17927667D01*
X3663095Y-17975286D01*
X3653571Y-18013381D01*
X3644048Y-18032429D01*
X3634524Y-18041952D01*
X3615476Y-18051476D01*
X3596428Y-18051476D01*
X3577381Y-18041952D01*
X3567857Y-18032429D01*
X3558333Y-18013381D01*
X3548809Y-17975286D01*
X3548809Y-17927667D01*
X3558333Y-17889571D01*
X3567857Y-17870524D01*
X3577381Y-17861000D01*
X3596428Y-17851476D01*
X3786905Y-17851476D02*
X3805952Y-17851476D01*
X3825000Y-17861000D01*
X3834524Y-17870524D01*
X3844048Y-17889571D01*
X3853571Y-17927667D01*
X3853571Y-17975286D01*
X3844048Y-18013381D01*
X3834524Y-18032429D01*
X3825000Y-18041952D01*
X3805952Y-18051476D01*
X3786905Y-18051476D01*
X3767857Y-18041952D01*
X3758333Y-18032429D01*
X3748809Y-18013381D01*
X3739286Y-17975286D01*
X3739286Y-17927667D01*
X3748809Y-17889571D01*
X3758333Y-17870524D01*
X3767857Y-17861000D01*
X3786905Y-17851476D01*
X3977381Y-17851476D02*
X3996428Y-17851476D01*
X4015476Y-17861000D01*
X4025000Y-17870524D01*
X4034524Y-17889571D01*
X4044048Y-17927667D01*
X4044048Y-17975286D01*
X4034524Y-18013381D01*
X4025000Y-18032429D01*
X4015476Y-18041952D01*
X3996428Y-18051476D01*
X3977381Y-18051476D01*
X3958333Y-18041952D01*
X3948809Y-18032429D01*
X3939286Y-18013381D01*
X3929762Y-17975286D01*
X3929762Y-17927667D01*
X3939286Y-17889571D01*
X3948809Y-17870524D01*
X3958333Y-17861000D01*
X3977381Y-17851476D01*
X4129762Y-18051476D02*
X4129762Y-17918143D01*
X4129762Y-17937190D02*
X4139286Y-17927667D01*
X4158333Y-17918143D01*
X4186905Y-17918143D01*
X4205952Y-17927667D01*
X4215476Y-17946714D01*
X4215476Y-18051476D01*
X4215476Y-17946714D02*
X4225000Y-17927667D01*
X4244048Y-17918143D01*
X4272619Y-17918143D01*
X4291667Y-17927667D01*
X4301190Y-17946714D01*
X4301190Y-18051476D01*
X4396429Y-18051476D02*
X4396429Y-17918143D01*
X4396429Y-17937190D02*
X4405952Y-17927667D01*
X4425000Y-17918143D01*
X4453571Y-17918143D01*
X4472619Y-17927667D01*
X4482143Y-17946714D01*
X4482143Y-18051476D01*
X4482143Y-17946714D02*
X4491667Y-17927667D01*
X4510714Y-17918143D01*
X4539286Y-17918143D01*
X4558333Y-17927667D01*
X4567857Y-17946714D01*
X4567857Y-18051476D01*
X4958333Y-17841952D02*
X4786905Y-18099095D01*
X5215476Y-17851476D02*
X5234524Y-17851476D01*
X5253571Y-17861000D01*
X5263095Y-17870524D01*
X5272619Y-17889571D01*
X5282143Y-17927667D01*
X5282143Y-17975286D01*
X5272619Y-18013381D01*
X5263095Y-18032429D01*
X5253571Y-18041952D01*
X5234524Y-18051476D01*
X5215476Y-18051476D01*
X5196429Y-18041952D01*
X5186905Y-18032429D01*
X5177381Y-18013381D01*
X5167857Y-17975286D01*
X5167857Y-17927667D01*
X5177381Y-17889571D01*
X5186905Y-17870524D01*
X5196429Y-17861000D01*
X5215476Y-17851476D01*
X5367857Y-18032429D02*
X5377381Y-18041952D01*
X5367857Y-18051476D01*
X5358333Y-18041952D01*
X5367857Y-18032429D01*
X5367857Y-18051476D01*
X5501190Y-17851476D02*
X5520238Y-17851476D01*
X5539286Y-17861000D01*
X5548810Y-17870524D01*
X5558333Y-17889571D01*
X5567857Y-17927667D01*
X5567857Y-17975286D01*
X5558333Y-18013381D01*
X5548810Y-18032429D01*
X5539286Y-18041952D01*
X5520238Y-18051476D01*
X5501190Y-18051476D01*
X5482143Y-18041952D01*
X5472619Y-18032429D01*
X5463095Y-18013381D01*
X5453571Y-17975286D01*
X5453571Y-17927667D01*
X5463095Y-17889571D01*
X5472619Y-17870524D01*
X5482143Y-17861000D01*
X5501190Y-17851476D01*
X5634524Y-17851476D02*
X5758333Y-17851476D01*
X5691667Y-17927667D01*
X5720238Y-17927667D01*
X5739286Y-17937190D01*
X5748809Y-17946714D01*
X5758333Y-17965762D01*
X5758333Y-18013381D01*
X5748809Y-18032429D01*
X5739286Y-18041952D01*
X5720238Y-18051476D01*
X5663095Y-18051476D01*
X5644048Y-18041952D01*
X5634524Y-18032429D01*
X5853571Y-18051476D02*
X5891667Y-18051476D01*
X5910714Y-18041952D01*
X5920238Y-18032429D01*
X5939286Y-18003857D01*
X5948809Y-17965762D01*
X5948809Y-17889571D01*
X5939286Y-17870524D01*
X5929762Y-17861000D01*
X5910714Y-17851476D01*
X5872619Y-17851476D01*
X5853571Y-17861000D01*
X5844048Y-17870524D01*
X5834524Y-17889571D01*
X5834524Y-17937190D01*
X5844048Y-17956238D01*
X5853571Y-17965762D01*
X5872619Y-17975286D01*
X5910714Y-17975286D01*
X5929762Y-17965762D01*
X5939286Y-17956238D01*
X5948809Y-17937190D01*
X6120238Y-17918143D02*
X6120238Y-18051476D01*
X6072619Y-17841952D02*
X6025000Y-17984810D01*
X6148809Y-17984810D01*
X6215476Y-17851476D02*
X6215476Y-17889571D01*
X6291667Y-17851476D02*
X6291667Y-17889571D01*
X6586905Y-18127667D02*
X6577381Y-18118143D01*
X6558333Y-18089571D01*
X6548809Y-18070524D01*
X6539286Y-18041952D01*
X6529762Y-17994333D01*
X6529762Y-17956238D01*
X6539286Y-17908619D01*
X6548809Y-17880048D01*
X6558333Y-17861000D01*
X6577381Y-17832429D01*
X6586905Y-17822905D01*
X6644048Y-17851476D02*
X6767857Y-17851476D01*
X6701190Y-17927667D01*
X6729762Y-17927667D01*
X6748809Y-17937190D01*
X6758333Y-17946714D01*
X6767857Y-17965762D01*
X6767857Y-18013381D01*
X6758333Y-18032429D01*
X6748809Y-18041952D01*
X6729762Y-18051476D01*
X6672619Y-18051476D01*
X6653571Y-18041952D01*
X6644048Y-18032429D01*
X6834524Y-17851476D02*
X6958333Y-17851476D01*
X6891667Y-17927667D01*
X6920238Y-17927667D01*
X6939286Y-17937190D01*
X6948809Y-17946714D01*
X6958333Y-17965762D01*
X6958333Y-18013381D01*
X6948809Y-18032429D01*
X6939286Y-18041952D01*
X6920238Y-18051476D01*
X6863095Y-18051476D01*
X6844048Y-18041952D01*
X6834524Y-18032429D01*
X7196428Y-18051476D02*
X7196428Y-17851476D01*
X7282143Y-18051476D02*
X7282143Y-17946714D01*
X7272619Y-17927667D01*
X7253571Y-17918143D01*
X7225000Y-17918143D01*
X7205952Y-17927667D01*
X7196428Y-17937190D01*
X7405952Y-18051476D02*
X7386905Y-18041952D01*
X7377381Y-18032429D01*
X7367857Y-18013381D01*
X7367857Y-17956238D01*
X7377381Y-17937190D01*
X7386905Y-17927667D01*
X7405952Y-17918143D01*
X7434524Y-17918143D01*
X7453571Y-17927667D01*
X7463095Y-17937190D01*
X7472619Y-17956238D01*
X7472619Y-18013381D01*
X7463095Y-18032429D01*
X7453571Y-18041952D01*
X7434524Y-18051476D01*
X7405952Y-18051476D01*
X7586905Y-18051476D02*
X7567857Y-18041952D01*
X7558333Y-18022905D01*
X7558333Y-17851476D01*
X7739286Y-18041952D02*
X7720238Y-18051476D01*
X7682143Y-18051476D01*
X7663095Y-18041952D01*
X7653571Y-18022905D01*
X7653571Y-17946714D01*
X7663095Y-17927667D01*
X7682143Y-17918143D01*
X7720238Y-17918143D01*
X7739286Y-17927667D01*
X7748809Y-17946714D01*
X7748809Y-17965762D01*
X7653571Y-17984810D01*
X7825000Y-18041952D02*
X7844048Y-18051476D01*
X7882143Y-18051476D01*
X7901190Y-18041952D01*
X7910714Y-18022905D01*
X7910714Y-18013381D01*
X7901190Y-17994333D01*
X7882143Y-17984810D01*
X7853571Y-17984810D01*
X7834524Y-17975286D01*
X7825000Y-17956238D01*
X7825000Y-17946714D01*
X7834524Y-17927667D01*
X7853571Y-17918143D01*
X7882143Y-17918143D01*
X7901190Y-17927667D01*
X7977381Y-18127667D02*
X7986905Y-18118143D01*
X8005952Y-18089571D01*
X8015476Y-18070524D01*
X8025000Y-18041952D01*
X8034524Y-17994333D01*
X8034524Y-17956238D01*
X8025000Y-17908619D01*
X8015476Y-17880048D01*
X8005952Y-17861000D01*
X7986905Y-17832429D01*
X7977381Y-17822905D01*
D16*
X2960000Y-18280000D02*
X3015000Y-18225000D01*
X2960000Y-18170000D01*
X2905000Y-18225000D01*
X2960000Y-18280000D01*
D11*
X3377381Y-18315476D02*
X3263095Y-18315476D01*
X3320238Y-18315476D02*
X3320238Y-18115476D01*
X3301190Y-18144048D01*
X3282143Y-18163095D01*
X3263095Y-18172619D01*
X3463095Y-18296429D02*
X3472619Y-18305952D01*
X3463095Y-18315476D01*
X3453571Y-18305952D01*
X3463095Y-18296429D01*
X3463095Y-18315476D01*
X3663095Y-18315476D02*
X3548809Y-18315476D01*
X3605952Y-18315476D02*
X3605952Y-18115476D01*
X3586905Y-18144048D01*
X3567857Y-18163095D01*
X3548809Y-18172619D01*
X3786905Y-18115476D02*
X3805952Y-18115476D01*
X3825000Y-18125000D01*
X3834524Y-18134524D01*
X3844048Y-18153571D01*
X3853571Y-18191667D01*
X3853571Y-18239286D01*
X3844048Y-18277381D01*
X3834524Y-18296429D01*
X3825000Y-18305952D01*
X3805952Y-18315476D01*
X3786905Y-18315476D01*
X3767857Y-18305952D01*
X3758333Y-18296429D01*
X3748809Y-18277381D01*
X3739286Y-18239286D01*
X3739286Y-18191667D01*
X3748809Y-18153571D01*
X3758333Y-18134524D01*
X3767857Y-18125000D01*
X3786905Y-18115476D01*
X3977381Y-18115476D02*
X3996428Y-18115476D01*
X4015476Y-18125000D01*
X4025000Y-18134524D01*
X4034524Y-18153571D01*
X4044048Y-18191667D01*
X4044048Y-18239286D01*
X4034524Y-18277381D01*
X4025000Y-18296429D01*
X4015476Y-18305952D01*
X3996428Y-18315476D01*
X3977381Y-18315476D01*
X3958333Y-18305952D01*
X3948809Y-18296429D01*
X3939286Y-18277381D01*
X3929762Y-18239286D01*
X3929762Y-18191667D01*
X3939286Y-18153571D01*
X3948809Y-18134524D01*
X3958333Y-18125000D01*
X3977381Y-18115476D01*
X4129762Y-18315476D02*
X4129762Y-18182143D01*
X4129762Y-18201190D02*
X4139286Y-18191667D01*
X4158333Y-18182143D01*
X4186905Y-18182143D01*
X4205952Y-18191667D01*
X4215476Y-18210714D01*
X4215476Y-18315476D01*
X4215476Y-18210714D02*
X4225000Y-18191667D01*
X4244048Y-18182143D01*
X4272619Y-18182143D01*
X4291667Y-18191667D01*
X4301190Y-18210714D01*
X4301190Y-18315476D01*
X4396429Y-18315476D02*
X4396429Y-18182143D01*
X4396429Y-18201190D02*
X4405952Y-18191667D01*
X4425000Y-18182143D01*
X4453571Y-18182143D01*
X4472619Y-18191667D01*
X4482143Y-18210714D01*
X4482143Y-18315476D01*
X4482143Y-18210714D02*
X4491667Y-18191667D01*
X4510714Y-18182143D01*
X4539286Y-18182143D01*
X4558333Y-18191667D01*
X4567857Y-18210714D01*
X4567857Y-18315476D01*
X4958333Y-18105952D02*
X4786905Y-18363095D01*
X5215476Y-18115476D02*
X5234524Y-18115476D01*
X5253571Y-18125000D01*
X5263095Y-18134524D01*
X5272619Y-18153571D01*
X5282143Y-18191667D01*
X5282143Y-18239286D01*
X5272619Y-18277381D01*
X5263095Y-18296429D01*
X5253571Y-18305952D01*
X5234524Y-18315476D01*
X5215476Y-18315476D01*
X5196429Y-18305952D01*
X5186905Y-18296429D01*
X5177381Y-18277381D01*
X5167857Y-18239286D01*
X5167857Y-18191667D01*
X5177381Y-18153571D01*
X5186905Y-18134524D01*
X5196429Y-18125000D01*
X5215476Y-18115476D01*
X5367857Y-18296429D02*
X5377381Y-18305952D01*
X5367857Y-18315476D01*
X5358333Y-18305952D01*
X5367857Y-18296429D01*
X5367857Y-18315476D01*
X5501190Y-18115476D02*
X5520238Y-18115476D01*
X5539286Y-18125000D01*
X5548810Y-18134524D01*
X5558333Y-18153571D01*
X5567857Y-18191667D01*
X5567857Y-18239286D01*
X5558333Y-18277381D01*
X5548810Y-18296429D01*
X5539286Y-18305952D01*
X5520238Y-18315476D01*
X5501190Y-18315476D01*
X5482143Y-18305952D01*
X5472619Y-18296429D01*
X5463095Y-18277381D01*
X5453571Y-18239286D01*
X5453571Y-18191667D01*
X5463095Y-18153571D01*
X5472619Y-18134524D01*
X5482143Y-18125000D01*
X5501190Y-18115476D01*
X5739286Y-18182143D02*
X5739286Y-18315476D01*
X5691667Y-18105952D02*
X5644048Y-18248810D01*
X5767857Y-18248810D01*
X5825000Y-18115476D02*
X5948809Y-18115476D01*
X5882143Y-18191667D01*
X5910714Y-18191667D01*
X5929762Y-18201190D01*
X5939286Y-18210714D01*
X5948809Y-18229762D01*
X5948809Y-18277381D01*
X5939286Y-18296429D01*
X5929762Y-18305952D01*
X5910714Y-18315476D01*
X5853571Y-18315476D01*
X5834524Y-18305952D01*
X5825000Y-18296429D01*
X6015476Y-18115476D02*
X6139286Y-18115476D01*
X6072619Y-18191667D01*
X6101190Y-18191667D01*
X6120238Y-18201190D01*
X6129762Y-18210714D01*
X6139286Y-18229762D01*
X6139286Y-18277381D01*
X6129762Y-18296429D01*
X6120238Y-18305952D01*
X6101190Y-18315476D01*
X6044048Y-18315476D01*
X6025000Y-18305952D01*
X6015476Y-18296429D01*
X6215476Y-18115476D02*
X6215476Y-18153571D01*
X6291667Y-18115476D02*
X6291667Y-18153571D01*
X6586905Y-18391667D02*
X6577381Y-18382143D01*
X6558333Y-18353571D01*
X6548809Y-18334524D01*
X6539286Y-18305952D01*
X6529762Y-18258333D01*
X6529762Y-18220238D01*
X6539286Y-18172619D01*
X6548809Y-18144048D01*
X6558333Y-18125000D01*
X6577381Y-18096429D01*
X6586905Y-18086905D01*
X6748809Y-18182143D02*
X6748809Y-18315476D01*
X6701190Y-18105952D02*
X6653571Y-18248810D01*
X6777381Y-18248810D01*
X7005952Y-18315476D02*
X7005952Y-18115476D01*
X7091667Y-18315476D02*
X7091667Y-18210714D01*
X7082143Y-18191667D01*
X7063095Y-18182143D01*
X7034524Y-18182143D01*
X7015476Y-18191667D01*
X7005952Y-18201190D01*
X7215476Y-18315476D02*
X7196428Y-18305952D01*
X7186905Y-18296429D01*
X7177381Y-18277381D01*
X7177381Y-18220238D01*
X7186905Y-18201190D01*
X7196428Y-18191667D01*
X7215476Y-18182143D01*
X7244048Y-18182143D01*
X7263095Y-18191667D01*
X7272619Y-18201190D01*
X7282143Y-18220238D01*
X7282143Y-18277381D01*
X7272619Y-18296429D01*
X7263095Y-18305952D01*
X7244048Y-18315476D01*
X7215476Y-18315476D01*
X7396428Y-18315476D02*
X7377381Y-18305952D01*
X7367857Y-18286905D01*
X7367857Y-18115476D01*
X7548809Y-18305952D02*
X7529762Y-18315476D01*
X7491667Y-18315476D01*
X7472619Y-18305952D01*
X7463095Y-18286905D01*
X7463095Y-18210714D01*
X7472619Y-18191667D01*
X7491667Y-18182143D01*
X7529762Y-18182143D01*
X7548809Y-18191667D01*
X7558333Y-18210714D01*
X7558333Y-18229762D01*
X7463095Y-18248810D01*
X7634524Y-18305952D02*
X7653571Y-18315476D01*
X7691667Y-18315476D01*
X7710714Y-18305952D01*
X7720238Y-18286905D01*
X7720238Y-18277381D01*
X7710714Y-18258333D01*
X7691667Y-18248810D01*
X7663095Y-18248810D01*
X7644048Y-18239286D01*
X7634524Y-18220238D01*
X7634524Y-18210714D01*
X7644048Y-18191667D01*
X7663095Y-18182143D01*
X7691667Y-18182143D01*
X7710714Y-18191667D01*
X7786905Y-18391667D02*
X7796428Y-18382143D01*
X7815476Y-18353571D01*
X7825000Y-18334524D01*
X7834524Y-18305952D01*
X7844048Y-18258333D01*
X7844048Y-18220238D01*
X7834524Y-18172619D01*
X7825000Y-18144048D01*
X7815476Y-18125000D01*
X7796428Y-18096429D01*
X7786905Y-18086905D01*
D17*
X2885000Y-18424000D02*
X3015000Y-18554000D01*
X3015000Y-18424000D02*
X2885000Y-18554000D01*
X3015000Y-18489000D02*
G75*
G03*
X3015000Y-18489000I-65000J0D01*
G01*
D11*
X3377381Y-18579476D02*
X3263095Y-18579476D01*
X3320238Y-18579476D02*
X3320238Y-18379476D01*
X3301190Y-18408048D01*
X3282143Y-18427095D01*
X3263095Y-18436619D01*
X3463095Y-18560429D02*
X3472619Y-18569952D01*
X3463095Y-18579476D01*
X3453571Y-18569952D01*
X3463095Y-18560429D01*
X3463095Y-18579476D01*
X3539286Y-18379476D02*
X3663095Y-18379476D01*
X3596428Y-18455667D01*
X3625000Y-18455667D01*
X3644048Y-18465190D01*
X3653571Y-18474714D01*
X3663095Y-18493762D01*
X3663095Y-18541381D01*
X3653571Y-18560429D01*
X3644048Y-18569952D01*
X3625000Y-18579476D01*
X3567857Y-18579476D01*
X3548809Y-18569952D01*
X3539286Y-18560429D01*
X3786905Y-18379476D02*
X3805952Y-18379476D01*
X3825000Y-18389000D01*
X3834524Y-18398524D01*
X3844048Y-18417571D01*
X3853571Y-18455667D01*
X3853571Y-18503286D01*
X3844048Y-18541381D01*
X3834524Y-18560429D01*
X3825000Y-18569952D01*
X3805952Y-18579476D01*
X3786905Y-18579476D01*
X3767857Y-18569952D01*
X3758333Y-18560429D01*
X3748809Y-18541381D01*
X3739286Y-18503286D01*
X3739286Y-18455667D01*
X3748809Y-18417571D01*
X3758333Y-18398524D01*
X3767857Y-18389000D01*
X3786905Y-18379476D01*
X3977381Y-18379476D02*
X3996428Y-18379476D01*
X4015476Y-18389000D01*
X4025000Y-18398524D01*
X4034524Y-18417571D01*
X4044048Y-18455667D01*
X4044048Y-18503286D01*
X4034524Y-18541381D01*
X4025000Y-18560429D01*
X4015476Y-18569952D01*
X3996428Y-18579476D01*
X3977381Y-18579476D01*
X3958333Y-18569952D01*
X3948809Y-18560429D01*
X3939286Y-18541381D01*
X3929762Y-18503286D01*
X3929762Y-18455667D01*
X3939286Y-18417571D01*
X3948809Y-18398524D01*
X3958333Y-18389000D01*
X3977381Y-18379476D01*
X4129762Y-18579476D02*
X4129762Y-18446143D01*
X4129762Y-18465190D02*
X4139286Y-18455667D01*
X4158333Y-18446143D01*
X4186905Y-18446143D01*
X4205952Y-18455667D01*
X4215476Y-18474714D01*
X4215476Y-18579476D01*
X4215476Y-18474714D02*
X4225000Y-18455667D01*
X4244048Y-18446143D01*
X4272619Y-18446143D01*
X4291667Y-18455667D01*
X4301190Y-18474714D01*
X4301190Y-18579476D01*
X4396429Y-18579476D02*
X4396429Y-18446143D01*
X4396429Y-18465190D02*
X4405952Y-18455667D01*
X4425000Y-18446143D01*
X4453571Y-18446143D01*
X4472619Y-18455667D01*
X4482143Y-18474714D01*
X4482143Y-18579476D01*
X4482143Y-18474714D02*
X4491667Y-18455667D01*
X4510714Y-18446143D01*
X4539286Y-18446143D01*
X4558333Y-18455667D01*
X4567857Y-18474714D01*
X4567857Y-18579476D01*
X4958333Y-18369952D02*
X4786905Y-18627095D01*
X5215476Y-18379476D02*
X5234524Y-18379476D01*
X5253571Y-18389000D01*
X5263095Y-18398524D01*
X5272619Y-18417571D01*
X5282143Y-18455667D01*
X5282143Y-18503286D01*
X5272619Y-18541381D01*
X5263095Y-18560429D01*
X5253571Y-18569952D01*
X5234524Y-18579476D01*
X5215476Y-18579476D01*
X5196429Y-18569952D01*
X5186905Y-18560429D01*
X5177381Y-18541381D01*
X5167857Y-18503286D01*
X5167857Y-18455667D01*
X5177381Y-18417571D01*
X5186905Y-18398524D01*
X5196429Y-18389000D01*
X5215476Y-18379476D01*
X5367857Y-18560429D02*
X5377381Y-18569952D01*
X5367857Y-18579476D01*
X5358333Y-18569952D01*
X5367857Y-18560429D01*
X5367857Y-18579476D01*
X5501190Y-18379476D02*
X5520238Y-18379476D01*
X5539286Y-18389000D01*
X5548810Y-18398524D01*
X5558333Y-18417571D01*
X5567857Y-18455667D01*
X5567857Y-18503286D01*
X5558333Y-18541381D01*
X5548810Y-18560429D01*
X5539286Y-18569952D01*
X5520238Y-18579476D01*
X5501190Y-18579476D01*
X5482143Y-18569952D01*
X5472619Y-18560429D01*
X5463095Y-18541381D01*
X5453571Y-18503286D01*
X5453571Y-18455667D01*
X5463095Y-18417571D01*
X5472619Y-18398524D01*
X5482143Y-18389000D01*
X5501190Y-18379476D01*
X5748809Y-18379476D02*
X5653571Y-18379476D01*
X5644048Y-18474714D01*
X5653571Y-18465190D01*
X5672619Y-18455667D01*
X5720238Y-18455667D01*
X5739286Y-18465190D01*
X5748809Y-18474714D01*
X5758333Y-18493762D01*
X5758333Y-18541381D01*
X5748809Y-18560429D01*
X5739286Y-18569952D01*
X5720238Y-18579476D01*
X5672619Y-18579476D01*
X5653571Y-18569952D01*
X5644048Y-18560429D01*
X5948809Y-18579476D02*
X5834524Y-18579476D01*
X5891667Y-18579476D02*
X5891667Y-18379476D01*
X5872619Y-18408048D01*
X5853571Y-18427095D01*
X5834524Y-18436619D01*
X6025000Y-18398524D02*
X6034524Y-18389000D01*
X6053571Y-18379476D01*
X6101190Y-18379476D01*
X6120238Y-18389000D01*
X6129762Y-18398524D01*
X6139286Y-18417571D01*
X6139286Y-18436619D01*
X6129762Y-18465190D01*
X6015476Y-18579476D01*
X6139286Y-18579476D01*
X6215476Y-18379476D02*
X6215476Y-18417571D01*
X6291667Y-18379476D02*
X6291667Y-18417571D01*
X6586905Y-18655667D02*
X6577381Y-18646143D01*
X6558333Y-18617571D01*
X6548809Y-18598524D01*
X6539286Y-18569952D01*
X6529762Y-18522333D01*
X6529762Y-18484238D01*
X6539286Y-18436619D01*
X6548809Y-18408048D01*
X6558333Y-18389000D01*
X6577381Y-18360429D01*
X6586905Y-18350905D01*
X6748809Y-18446143D02*
X6748809Y-18579476D01*
X6701190Y-18369952D02*
X6653571Y-18512810D01*
X6777381Y-18512810D01*
X7005952Y-18579476D02*
X7005952Y-18379476D01*
X7091667Y-18579476D02*
X7091667Y-18474714D01*
X7082143Y-18455667D01*
X7063095Y-18446143D01*
X7034524Y-18446143D01*
X7015476Y-18455667D01*
X7005952Y-18465190D01*
X7215476Y-18579476D02*
X7196428Y-18569952D01*
X7186905Y-18560429D01*
X7177381Y-18541381D01*
X7177381Y-18484238D01*
X7186905Y-18465190D01*
X7196428Y-18455667D01*
X7215476Y-18446143D01*
X7244048Y-18446143D01*
X7263095Y-18455667D01*
X7272619Y-18465190D01*
X7282143Y-18484238D01*
X7282143Y-18541381D01*
X7272619Y-18560429D01*
X7263095Y-18569952D01*
X7244048Y-18579476D01*
X7215476Y-18579476D01*
X7396428Y-18579476D02*
X7377381Y-18569952D01*
X7367857Y-18550905D01*
X7367857Y-18379476D01*
X7548809Y-18569952D02*
X7529762Y-18579476D01*
X7491667Y-18579476D01*
X7472619Y-18569952D01*
X7463095Y-18550905D01*
X7463095Y-18474714D01*
X7472619Y-18455667D01*
X7491667Y-18446143D01*
X7529762Y-18446143D01*
X7548809Y-18455667D01*
X7558333Y-18474714D01*
X7558333Y-18493762D01*
X7463095Y-18512810D01*
X7634524Y-18569952D02*
X7653571Y-18579476D01*
X7691667Y-18579476D01*
X7710714Y-18569952D01*
X7720238Y-18550905D01*
X7720238Y-18541381D01*
X7710714Y-18522333D01*
X7691667Y-18512810D01*
X7663095Y-18512810D01*
X7644048Y-18503286D01*
X7634524Y-18484238D01*
X7634524Y-18474714D01*
X7644048Y-18455667D01*
X7663095Y-18446143D01*
X7691667Y-18446143D01*
X7710714Y-18455667D01*
X7786905Y-18655667D02*
X7796428Y-18646143D01*
X7815476Y-18617571D01*
X7825000Y-18598524D01*
X7834524Y-18569952D01*
X7844048Y-18522333D01*
X7844048Y-18484238D01*
X7834524Y-18436619D01*
X7825000Y-18408048D01*
X7815476Y-18389000D01*
X7796428Y-18360429D01*
X7786905Y-18350905D01*
D18*
X2863000Y-18677000D02*
X3015000Y-18829000D01*
X3015000Y-18677000D02*
X2863000Y-18829000D01*
X2939000Y-18677000D02*
X2939000Y-18829000D01*
X2863000Y-18753000D02*
X3015000Y-18753000D01*
D11*
X3377381Y-18843476D02*
X3263095Y-18843476D01*
X3320238Y-18843476D02*
X3320238Y-18643476D01*
X3301190Y-18672048D01*
X3282143Y-18691095D01*
X3263095Y-18700619D01*
X3463095Y-18824429D02*
X3472619Y-18833952D01*
X3463095Y-18843476D01*
X3453571Y-18833952D01*
X3463095Y-18824429D01*
X3463095Y-18843476D01*
X3653571Y-18643476D02*
X3558333Y-18643476D01*
X3548809Y-18738714D01*
X3558333Y-18729190D01*
X3577381Y-18719667D01*
X3625000Y-18719667D01*
X3644048Y-18729190D01*
X3653571Y-18738714D01*
X3663095Y-18757762D01*
X3663095Y-18805381D01*
X3653571Y-18824429D01*
X3644048Y-18833952D01*
X3625000Y-18843476D01*
X3577381Y-18843476D01*
X3558333Y-18833952D01*
X3548809Y-18824429D01*
X3739286Y-18662524D02*
X3748809Y-18653000D01*
X3767857Y-18643476D01*
X3815476Y-18643476D01*
X3834524Y-18653000D01*
X3844048Y-18662524D01*
X3853571Y-18681571D01*
X3853571Y-18700619D01*
X3844048Y-18729190D01*
X3729762Y-18843476D01*
X3853571Y-18843476D01*
X3977381Y-18643476D02*
X3996428Y-18643476D01*
X4015476Y-18653000D01*
X4025000Y-18662524D01*
X4034524Y-18681571D01*
X4044048Y-18719667D01*
X4044048Y-18767286D01*
X4034524Y-18805381D01*
X4025000Y-18824429D01*
X4015476Y-18833952D01*
X3996428Y-18843476D01*
X3977381Y-18843476D01*
X3958333Y-18833952D01*
X3948809Y-18824429D01*
X3939286Y-18805381D01*
X3929762Y-18767286D01*
X3929762Y-18719667D01*
X3939286Y-18681571D01*
X3948809Y-18662524D01*
X3958333Y-18653000D01*
X3977381Y-18643476D01*
X4129762Y-18843476D02*
X4129762Y-18710143D01*
X4129762Y-18729190D02*
X4139286Y-18719667D01*
X4158333Y-18710143D01*
X4186905Y-18710143D01*
X4205952Y-18719667D01*
X4215476Y-18738714D01*
X4215476Y-18843476D01*
X4215476Y-18738714D02*
X4225000Y-18719667D01*
X4244048Y-18710143D01*
X4272619Y-18710143D01*
X4291667Y-18719667D01*
X4301190Y-18738714D01*
X4301190Y-18843476D01*
X4396429Y-18843476D02*
X4396429Y-18710143D01*
X4396429Y-18729190D02*
X4405952Y-18719667D01*
X4425000Y-18710143D01*
X4453571Y-18710143D01*
X4472619Y-18719667D01*
X4482143Y-18738714D01*
X4482143Y-18843476D01*
X4482143Y-18738714D02*
X4491667Y-18719667D01*
X4510714Y-18710143D01*
X4539286Y-18710143D01*
X4558333Y-18719667D01*
X4567857Y-18738714D01*
X4567857Y-18843476D01*
X4958333Y-18633952D02*
X4786905Y-18891095D01*
X5215476Y-18643476D02*
X5234524Y-18643476D01*
X5253571Y-18653000D01*
X5263095Y-18662524D01*
X5272619Y-18681571D01*
X5282143Y-18719667D01*
X5282143Y-18767286D01*
X5272619Y-18805381D01*
X5263095Y-18824429D01*
X5253571Y-18833952D01*
X5234524Y-18843476D01*
X5215476Y-18843476D01*
X5196429Y-18833952D01*
X5186905Y-18824429D01*
X5177381Y-18805381D01*
X5167857Y-18767286D01*
X5167857Y-18719667D01*
X5177381Y-18681571D01*
X5186905Y-18662524D01*
X5196429Y-18653000D01*
X5215476Y-18643476D01*
X5367857Y-18824429D02*
X5377381Y-18833952D01*
X5367857Y-18843476D01*
X5358333Y-18833952D01*
X5367857Y-18824429D01*
X5367857Y-18843476D01*
X5501190Y-18643476D02*
X5520238Y-18643476D01*
X5539286Y-18653000D01*
X5548810Y-18662524D01*
X5558333Y-18681571D01*
X5567857Y-18719667D01*
X5567857Y-18767286D01*
X5558333Y-18805381D01*
X5548810Y-18824429D01*
X5539286Y-18833952D01*
X5520238Y-18843476D01*
X5501190Y-18843476D01*
X5482143Y-18833952D01*
X5472619Y-18824429D01*
X5463095Y-18805381D01*
X5453571Y-18767286D01*
X5453571Y-18719667D01*
X5463095Y-18681571D01*
X5472619Y-18662524D01*
X5482143Y-18653000D01*
X5501190Y-18643476D01*
X5748809Y-18643476D02*
X5653571Y-18643476D01*
X5644048Y-18738714D01*
X5653571Y-18729190D01*
X5672619Y-18719667D01*
X5720238Y-18719667D01*
X5739286Y-18729190D01*
X5748809Y-18738714D01*
X5758333Y-18757762D01*
X5758333Y-18805381D01*
X5748809Y-18824429D01*
X5739286Y-18833952D01*
X5720238Y-18843476D01*
X5672619Y-18843476D01*
X5653571Y-18833952D01*
X5644048Y-18824429D01*
X5853571Y-18843476D02*
X5891667Y-18843476D01*
X5910714Y-18833952D01*
X5920238Y-18824429D01*
X5939286Y-18795857D01*
X5948809Y-18757762D01*
X5948809Y-18681571D01*
X5939286Y-18662524D01*
X5929762Y-18653000D01*
X5910714Y-18643476D01*
X5872619Y-18643476D01*
X5853571Y-18653000D01*
X5844048Y-18662524D01*
X5834524Y-18681571D01*
X5834524Y-18729190D01*
X5844048Y-18748238D01*
X5853571Y-18757762D01*
X5872619Y-18767286D01*
X5910714Y-18767286D01*
X5929762Y-18757762D01*
X5939286Y-18748238D01*
X5948809Y-18729190D01*
X6063095Y-18729190D02*
X6044048Y-18719667D01*
X6034524Y-18710143D01*
X6025000Y-18691095D01*
X6025000Y-18681571D01*
X6034524Y-18662524D01*
X6044048Y-18653000D01*
X6063095Y-18643476D01*
X6101190Y-18643476D01*
X6120238Y-18653000D01*
X6129762Y-18662524D01*
X6139286Y-18681571D01*
X6139286Y-18691095D01*
X6129762Y-18710143D01*
X6120238Y-18719667D01*
X6101190Y-18729190D01*
X6063095Y-18729190D01*
X6044048Y-18738714D01*
X6034524Y-18748238D01*
X6025000Y-18767286D01*
X6025000Y-18805381D01*
X6034524Y-18824429D01*
X6044048Y-18833952D01*
X6063095Y-18843476D01*
X6101190Y-18843476D01*
X6120238Y-18833952D01*
X6129762Y-18824429D01*
X6139286Y-18805381D01*
X6139286Y-18767286D01*
X6129762Y-18748238D01*
X6120238Y-18738714D01*
X6101190Y-18729190D01*
X6215476Y-18643476D02*
X6215476Y-18681571D01*
X6291667Y-18643476D02*
X6291667Y-18681571D01*
X6586905Y-18919667D02*
X6577381Y-18910143D01*
X6558333Y-18881571D01*
X6548809Y-18862524D01*
X6539286Y-18833952D01*
X6529762Y-18786333D01*
X6529762Y-18748238D01*
X6539286Y-18700619D01*
X6548809Y-18672048D01*
X6558333Y-18653000D01*
X6577381Y-18624429D01*
X6586905Y-18614905D01*
X6748809Y-18643476D02*
X6710714Y-18643476D01*
X6691667Y-18653000D01*
X6682143Y-18662524D01*
X6663095Y-18691095D01*
X6653571Y-18729190D01*
X6653571Y-18805381D01*
X6663095Y-18824429D01*
X6672619Y-18833952D01*
X6691667Y-18843476D01*
X6729762Y-18843476D01*
X6748809Y-18833952D01*
X6758333Y-18824429D01*
X6767857Y-18805381D01*
X6767857Y-18757762D01*
X6758333Y-18738714D01*
X6748809Y-18729190D01*
X6729762Y-18719667D01*
X6691667Y-18719667D01*
X6672619Y-18729190D01*
X6663095Y-18738714D01*
X6653571Y-18757762D01*
X7005952Y-18843476D02*
X7005952Y-18643476D01*
X7091667Y-18843476D02*
X7091667Y-18738714D01*
X7082143Y-18719667D01*
X7063095Y-18710143D01*
X7034524Y-18710143D01*
X7015476Y-18719667D01*
X7005952Y-18729190D01*
X7215476Y-18843476D02*
X7196428Y-18833952D01*
X7186905Y-18824429D01*
X7177381Y-18805381D01*
X7177381Y-18748238D01*
X7186905Y-18729190D01*
X7196428Y-18719667D01*
X7215476Y-18710143D01*
X7244048Y-18710143D01*
X7263095Y-18719667D01*
X7272619Y-18729190D01*
X7282143Y-18748238D01*
X7282143Y-18805381D01*
X7272619Y-18824429D01*
X7263095Y-18833952D01*
X7244048Y-18843476D01*
X7215476Y-18843476D01*
X7396428Y-18843476D02*
X7377381Y-18833952D01*
X7367857Y-18814905D01*
X7367857Y-18643476D01*
X7548809Y-18833952D02*
X7529762Y-18843476D01*
X7491667Y-18843476D01*
X7472619Y-18833952D01*
X7463095Y-18814905D01*
X7463095Y-18738714D01*
X7472619Y-18719667D01*
X7491667Y-18710143D01*
X7529762Y-18710143D01*
X7548809Y-18719667D01*
X7558333Y-18738714D01*
X7558333Y-18757762D01*
X7463095Y-18776810D01*
X7634524Y-18833952D02*
X7653571Y-18843476D01*
X7691667Y-18843476D01*
X7710714Y-18833952D01*
X7720238Y-18814905D01*
X7720238Y-18805381D01*
X7710714Y-18786333D01*
X7691667Y-18776810D01*
X7663095Y-18776810D01*
X7644048Y-18767286D01*
X7634524Y-18748238D01*
X7634524Y-18738714D01*
X7644048Y-18719667D01*
X7663095Y-18710143D01*
X7691667Y-18710143D01*
X7710714Y-18719667D01*
X7786905Y-18919667D02*
X7796428Y-18910143D01*
X7815476Y-18881571D01*
X7825000Y-18862524D01*
X7834524Y-18833952D01*
X7844048Y-18786333D01*
X7844048Y-18748238D01*
X7834524Y-18700619D01*
X7825000Y-18672048D01*
X7815476Y-18653000D01*
X7796428Y-18624429D01*
X7786905Y-18614905D01*
X2815000Y-18925000D02*
X3015000Y-19125000D01*
X3015000Y-18925000D02*
X2815000Y-19125000D01*
X2985711Y-19095711D02*
X2985711Y-18954289D01*
X2844289Y-18954289D01*
X2844289Y-19095711D01*
X2985711Y-19095711D01*
X3263095Y-18934524D02*
X3272619Y-18925000D01*
X3291667Y-18915476D01*
X3339286Y-18915476D01*
X3358333Y-18925000D01*
X3367857Y-18934524D01*
X3377381Y-18953571D01*
X3377381Y-18972619D01*
X3367857Y-19001190D01*
X3253571Y-19115476D01*
X3377381Y-19115476D01*
X3463095Y-19096429D02*
X3472619Y-19105952D01*
X3463095Y-19115476D01*
X3453571Y-19105952D01*
X3463095Y-19096429D01*
X3463095Y-19115476D01*
X3539286Y-18915476D02*
X3663095Y-18915476D01*
X3596428Y-18991667D01*
X3625000Y-18991667D01*
X3644048Y-19001190D01*
X3653571Y-19010714D01*
X3663095Y-19029762D01*
X3663095Y-19077381D01*
X3653571Y-19096429D01*
X3644048Y-19105952D01*
X3625000Y-19115476D01*
X3567857Y-19115476D01*
X3548809Y-19105952D01*
X3539286Y-19096429D01*
X3786905Y-18915476D02*
X3805952Y-18915476D01*
X3825000Y-18925000D01*
X3834524Y-18934524D01*
X3844048Y-18953571D01*
X3853571Y-18991667D01*
X3853571Y-19039286D01*
X3844048Y-19077381D01*
X3834524Y-19096429D01*
X3825000Y-19105952D01*
X3805952Y-19115476D01*
X3786905Y-19115476D01*
X3767857Y-19105952D01*
X3758333Y-19096429D01*
X3748809Y-19077381D01*
X3739286Y-19039286D01*
X3739286Y-18991667D01*
X3748809Y-18953571D01*
X3758333Y-18934524D01*
X3767857Y-18925000D01*
X3786905Y-18915476D01*
X3977381Y-18915476D02*
X3996428Y-18915476D01*
X4015476Y-18925000D01*
X4025000Y-18934524D01*
X4034524Y-18953571D01*
X4044048Y-18991667D01*
X4044048Y-19039286D01*
X4034524Y-19077381D01*
X4025000Y-19096429D01*
X4015476Y-19105952D01*
X3996428Y-19115476D01*
X3977381Y-19115476D01*
X3958333Y-19105952D01*
X3948809Y-19096429D01*
X3939286Y-19077381D01*
X3929762Y-19039286D01*
X3929762Y-18991667D01*
X3939286Y-18953571D01*
X3948809Y-18934524D01*
X3958333Y-18925000D01*
X3977381Y-18915476D01*
X4129762Y-19115476D02*
X4129762Y-18982143D01*
X4129762Y-19001190D02*
X4139286Y-18991667D01*
X4158333Y-18982143D01*
X4186905Y-18982143D01*
X4205952Y-18991667D01*
X4215476Y-19010714D01*
X4215476Y-19115476D01*
X4215476Y-19010714D02*
X4225000Y-18991667D01*
X4244048Y-18982143D01*
X4272619Y-18982143D01*
X4291667Y-18991667D01*
X4301190Y-19010714D01*
X4301190Y-19115476D01*
X4396429Y-19115476D02*
X4396429Y-18982143D01*
X4396429Y-19001190D02*
X4405952Y-18991667D01*
X4425000Y-18982143D01*
X4453571Y-18982143D01*
X4472619Y-18991667D01*
X4482143Y-19010714D01*
X4482143Y-19115476D01*
X4482143Y-19010714D02*
X4491667Y-18991667D01*
X4510714Y-18982143D01*
X4539286Y-18982143D01*
X4558333Y-18991667D01*
X4567857Y-19010714D01*
X4567857Y-19115476D01*
X4958333Y-18905952D02*
X4786905Y-19163095D01*
X5215476Y-18915476D02*
X5234524Y-18915476D01*
X5253571Y-18925000D01*
X5263095Y-18934524D01*
X5272619Y-18953571D01*
X5282143Y-18991667D01*
X5282143Y-19039286D01*
X5272619Y-19077381D01*
X5263095Y-19096429D01*
X5253571Y-19105952D01*
X5234524Y-19115476D01*
X5215476Y-19115476D01*
X5196429Y-19105952D01*
X5186905Y-19096429D01*
X5177381Y-19077381D01*
X5167857Y-19039286D01*
X5167857Y-18991667D01*
X5177381Y-18953571D01*
X5186905Y-18934524D01*
X5196429Y-18925000D01*
X5215476Y-18915476D01*
X5367857Y-19096429D02*
X5377381Y-19105952D01*
X5367857Y-19115476D01*
X5358333Y-19105952D01*
X5367857Y-19096429D01*
X5367857Y-19115476D01*
X5501190Y-18915476D02*
X5520238Y-18915476D01*
X5539286Y-18925000D01*
X5548810Y-18934524D01*
X5558333Y-18953571D01*
X5567857Y-18991667D01*
X5567857Y-19039286D01*
X5558333Y-19077381D01*
X5548810Y-19096429D01*
X5539286Y-19105952D01*
X5520238Y-19115476D01*
X5501190Y-19115476D01*
X5482143Y-19105952D01*
X5472619Y-19096429D01*
X5463095Y-19077381D01*
X5453571Y-19039286D01*
X5453571Y-18991667D01*
X5463095Y-18953571D01*
X5472619Y-18934524D01*
X5482143Y-18925000D01*
X5501190Y-18915476D01*
X5663095Y-19115476D02*
X5701190Y-19115476D01*
X5720238Y-19105952D01*
X5729762Y-19096429D01*
X5748809Y-19067857D01*
X5758333Y-19029762D01*
X5758333Y-18953571D01*
X5748809Y-18934524D01*
X5739286Y-18925000D01*
X5720238Y-18915476D01*
X5682143Y-18915476D01*
X5663095Y-18925000D01*
X5653571Y-18934524D01*
X5644048Y-18953571D01*
X5644048Y-19001190D01*
X5653571Y-19020238D01*
X5663095Y-19029762D01*
X5682143Y-19039286D01*
X5720238Y-19039286D01*
X5739286Y-19029762D01*
X5748809Y-19020238D01*
X5758333Y-19001190D01*
X5882143Y-18915476D02*
X5901190Y-18915476D01*
X5920238Y-18925000D01*
X5929762Y-18934524D01*
X5939286Y-18953571D01*
X5948809Y-18991667D01*
X5948809Y-19039286D01*
X5939286Y-19077381D01*
X5929762Y-19096429D01*
X5920238Y-19105952D01*
X5901190Y-19115476D01*
X5882143Y-19115476D01*
X5863095Y-19105952D01*
X5853571Y-19096429D01*
X5844048Y-19077381D01*
X5834524Y-19039286D01*
X5834524Y-18991667D01*
X5844048Y-18953571D01*
X5853571Y-18934524D01*
X5863095Y-18925000D01*
X5882143Y-18915476D01*
X6120238Y-18915476D02*
X6082143Y-18915476D01*
X6063095Y-18925000D01*
X6053571Y-18934524D01*
X6034524Y-18963095D01*
X6025000Y-19001190D01*
X6025000Y-19077381D01*
X6034524Y-19096429D01*
X6044048Y-19105952D01*
X6063095Y-19115476D01*
X6101190Y-19115476D01*
X6120238Y-19105952D01*
X6129762Y-19096429D01*
X6139286Y-19077381D01*
X6139286Y-19029762D01*
X6129762Y-19010714D01*
X6120238Y-19001190D01*
X6101190Y-18991667D01*
X6063095Y-18991667D01*
X6044048Y-19001190D01*
X6034524Y-19010714D01*
X6025000Y-19029762D01*
X6215476Y-18915476D02*
X6215476Y-18953571D01*
X6291667Y-18915476D02*
X6291667Y-18953571D01*
X6586905Y-19191667D02*
X6577381Y-19182143D01*
X6558333Y-19153571D01*
X6548809Y-19134524D01*
X6539286Y-19105952D01*
X6529762Y-19058333D01*
X6529762Y-19020238D01*
X6539286Y-18972619D01*
X6548809Y-18944048D01*
X6558333Y-18925000D01*
X6577381Y-18896429D01*
X6586905Y-18886905D01*
X6653571Y-18934524D02*
X6663095Y-18925000D01*
X6682143Y-18915476D01*
X6729762Y-18915476D01*
X6748809Y-18925000D01*
X6758333Y-18934524D01*
X6767857Y-18953571D01*
X6767857Y-18972619D01*
X6758333Y-19001190D01*
X6644048Y-19115476D01*
X6767857Y-19115476D01*
X7005952Y-19115476D02*
X7005952Y-18915476D01*
X7091667Y-19115476D02*
X7091667Y-19010714D01*
X7082143Y-18991667D01*
X7063095Y-18982143D01*
X7034524Y-18982143D01*
X7015476Y-18991667D01*
X7005952Y-19001190D01*
X7215476Y-19115476D02*
X7196428Y-19105952D01*
X7186905Y-19096429D01*
X7177381Y-19077381D01*
X7177381Y-19020238D01*
X7186905Y-19001190D01*
X7196428Y-18991667D01*
X7215476Y-18982143D01*
X7244048Y-18982143D01*
X7263095Y-18991667D01*
X7272619Y-19001190D01*
X7282143Y-19020238D01*
X7282143Y-19077381D01*
X7272619Y-19096429D01*
X7263095Y-19105952D01*
X7244048Y-19115476D01*
X7215476Y-19115476D01*
X7396428Y-19115476D02*
X7377381Y-19105952D01*
X7367857Y-19086905D01*
X7367857Y-18915476D01*
X7548809Y-19105952D02*
X7529762Y-19115476D01*
X7491667Y-19115476D01*
X7472619Y-19105952D01*
X7463095Y-19086905D01*
X7463095Y-19010714D01*
X7472619Y-18991667D01*
X7491667Y-18982143D01*
X7529762Y-18982143D01*
X7548809Y-18991667D01*
X7558333Y-19010714D01*
X7558333Y-19029762D01*
X7463095Y-19048810D01*
X7634524Y-19105952D02*
X7653571Y-19115476D01*
X7691667Y-19115476D01*
X7710714Y-19105952D01*
X7720238Y-19086905D01*
X7720238Y-19077381D01*
X7710714Y-19058333D01*
X7691667Y-19048810D01*
X7663095Y-19048810D01*
X7644048Y-19039286D01*
X7634524Y-19020238D01*
X7634524Y-19010714D01*
X7644048Y-18991667D01*
X7663095Y-18982143D01*
X7691667Y-18982143D01*
X7710714Y-18991667D01*
X7786905Y-19191667D02*
X7796428Y-19182143D01*
X7815476Y-19153571D01*
X7825000Y-19134524D01*
X7834524Y-19105952D01*
X7844048Y-19058333D01*
X7844048Y-19020238D01*
X7834524Y-18972619D01*
X7825000Y-18944048D01*
X7815476Y-18925000D01*
X7796428Y-18896429D01*
X7786905Y-18886905D01*
X2815000Y-19245000D02*
X3015000Y-19445000D01*
X3015000Y-19245000D02*
X2815000Y-19445000D01*
X2915000Y-19445000D02*
X3015000Y-19345000D01*
X2915000Y-19245000D01*
X2815000Y-19345000D01*
X2915000Y-19445000D01*
X3358333Y-19302143D02*
X3358333Y-19435476D01*
X3310714Y-19225952D02*
X3263095Y-19368810D01*
X3386905Y-19368810D01*
X3463095Y-19416429D02*
X3472619Y-19425952D01*
X3463095Y-19435476D01*
X3453571Y-19425952D01*
X3463095Y-19416429D01*
X3463095Y-19435476D01*
X3539286Y-19235476D02*
X3663095Y-19235476D01*
X3596428Y-19311667D01*
X3625000Y-19311667D01*
X3644048Y-19321190D01*
X3653571Y-19330714D01*
X3663095Y-19349762D01*
X3663095Y-19397381D01*
X3653571Y-19416429D01*
X3644048Y-19425952D01*
X3625000Y-19435476D01*
X3567857Y-19435476D01*
X3548809Y-19425952D01*
X3539286Y-19416429D01*
X3786905Y-19235476D02*
X3805952Y-19235476D01*
X3825000Y-19245000D01*
X3834524Y-19254524D01*
X3844048Y-19273571D01*
X3853571Y-19311667D01*
X3853571Y-19359286D01*
X3844048Y-19397381D01*
X3834524Y-19416429D01*
X3825000Y-19425952D01*
X3805952Y-19435476D01*
X3786905Y-19435476D01*
X3767857Y-19425952D01*
X3758333Y-19416429D01*
X3748809Y-19397381D01*
X3739286Y-19359286D01*
X3739286Y-19311667D01*
X3748809Y-19273571D01*
X3758333Y-19254524D01*
X3767857Y-19245000D01*
X3786905Y-19235476D01*
X3977381Y-19235476D02*
X3996428Y-19235476D01*
X4015476Y-19245000D01*
X4025000Y-19254524D01*
X4034524Y-19273571D01*
X4044048Y-19311667D01*
X4044048Y-19359286D01*
X4034524Y-19397381D01*
X4025000Y-19416429D01*
X4015476Y-19425952D01*
X3996428Y-19435476D01*
X3977381Y-19435476D01*
X3958333Y-19425952D01*
X3948809Y-19416429D01*
X3939286Y-19397381D01*
X3929762Y-19359286D01*
X3929762Y-19311667D01*
X3939286Y-19273571D01*
X3948809Y-19254524D01*
X3958333Y-19245000D01*
X3977381Y-19235476D01*
X4129762Y-19435476D02*
X4129762Y-19302143D01*
X4129762Y-19321190D02*
X4139286Y-19311667D01*
X4158333Y-19302143D01*
X4186905Y-19302143D01*
X4205952Y-19311667D01*
X4215476Y-19330714D01*
X4215476Y-19435476D01*
X4215476Y-19330714D02*
X4225000Y-19311667D01*
X4244048Y-19302143D01*
X4272619Y-19302143D01*
X4291667Y-19311667D01*
X4301190Y-19330714D01*
X4301190Y-19435476D01*
X4396429Y-19435476D02*
X4396429Y-19302143D01*
X4396429Y-19321190D02*
X4405952Y-19311667D01*
X4425000Y-19302143D01*
X4453571Y-19302143D01*
X4472619Y-19311667D01*
X4482143Y-19330714D01*
X4482143Y-19435476D01*
X4482143Y-19330714D02*
X4491667Y-19311667D01*
X4510714Y-19302143D01*
X4539286Y-19302143D01*
X4558333Y-19311667D01*
X4567857Y-19330714D01*
X4567857Y-19435476D01*
X4958333Y-19225952D02*
X4786905Y-19483095D01*
X5215476Y-19235476D02*
X5234524Y-19235476D01*
X5253571Y-19245000D01*
X5263095Y-19254524D01*
X5272619Y-19273571D01*
X5282143Y-19311667D01*
X5282143Y-19359286D01*
X5272619Y-19397381D01*
X5263095Y-19416429D01*
X5253571Y-19425952D01*
X5234524Y-19435476D01*
X5215476Y-19435476D01*
X5196429Y-19425952D01*
X5186905Y-19416429D01*
X5177381Y-19397381D01*
X5167857Y-19359286D01*
X5167857Y-19311667D01*
X5177381Y-19273571D01*
X5186905Y-19254524D01*
X5196429Y-19245000D01*
X5215476Y-19235476D01*
X5367857Y-19416429D02*
X5377381Y-19425952D01*
X5367857Y-19435476D01*
X5358333Y-19425952D01*
X5367857Y-19416429D01*
X5367857Y-19435476D01*
X5567857Y-19435476D02*
X5453571Y-19435476D01*
X5510714Y-19435476D02*
X5510714Y-19235476D01*
X5491667Y-19264048D01*
X5472619Y-19283095D01*
X5453571Y-19292619D01*
X5739286Y-19235476D02*
X5701190Y-19235476D01*
X5682143Y-19245000D01*
X5672619Y-19254524D01*
X5653571Y-19283095D01*
X5644048Y-19321190D01*
X5644048Y-19397381D01*
X5653571Y-19416429D01*
X5663095Y-19425952D01*
X5682143Y-19435476D01*
X5720238Y-19435476D01*
X5739286Y-19425952D01*
X5748809Y-19416429D01*
X5758333Y-19397381D01*
X5758333Y-19349762D01*
X5748809Y-19330714D01*
X5739286Y-19321190D01*
X5720238Y-19311667D01*
X5682143Y-19311667D01*
X5663095Y-19321190D01*
X5653571Y-19330714D01*
X5644048Y-19349762D01*
X5853571Y-19435476D02*
X5891667Y-19435476D01*
X5910714Y-19425952D01*
X5920238Y-19416429D01*
X5939286Y-19387857D01*
X5948809Y-19349762D01*
X5948809Y-19273571D01*
X5939286Y-19254524D01*
X5929762Y-19245000D01*
X5910714Y-19235476D01*
X5872619Y-19235476D01*
X5853571Y-19245000D01*
X5844048Y-19254524D01*
X5834524Y-19273571D01*
X5834524Y-19321190D01*
X5844048Y-19340238D01*
X5853571Y-19349762D01*
X5872619Y-19359286D01*
X5910714Y-19359286D01*
X5929762Y-19349762D01*
X5939286Y-19340238D01*
X5948809Y-19321190D01*
X6015476Y-19235476D02*
X6139286Y-19235476D01*
X6072619Y-19311667D01*
X6101190Y-19311667D01*
X6120238Y-19321190D01*
X6129762Y-19330714D01*
X6139286Y-19349762D01*
X6139286Y-19397381D01*
X6129762Y-19416429D01*
X6120238Y-19425952D01*
X6101190Y-19435476D01*
X6044048Y-19435476D01*
X6025000Y-19425952D01*
X6015476Y-19416429D01*
X6215476Y-19235476D02*
X6215476Y-19273571D01*
X6291667Y-19235476D02*
X6291667Y-19273571D01*
X6586905Y-19511667D02*
X6577381Y-19502143D01*
X6558333Y-19473571D01*
X6548809Y-19454524D01*
X6539286Y-19425952D01*
X6529762Y-19378333D01*
X6529762Y-19340238D01*
X6539286Y-19292619D01*
X6548809Y-19264048D01*
X6558333Y-19245000D01*
X6577381Y-19216429D01*
X6586905Y-19206905D01*
X6748809Y-19235476D02*
X6710714Y-19235476D01*
X6691667Y-19245000D01*
X6682143Y-19254524D01*
X6663095Y-19283095D01*
X6653571Y-19321190D01*
X6653571Y-19397381D01*
X6663095Y-19416429D01*
X6672619Y-19425952D01*
X6691667Y-19435476D01*
X6729762Y-19435476D01*
X6748809Y-19425952D01*
X6758333Y-19416429D01*
X6767857Y-19397381D01*
X6767857Y-19349762D01*
X6758333Y-19330714D01*
X6748809Y-19321190D01*
X6729762Y-19311667D01*
X6691667Y-19311667D01*
X6672619Y-19321190D01*
X6663095Y-19330714D01*
X6653571Y-19349762D01*
X7005952Y-19435476D02*
X7005952Y-19235476D01*
X7091667Y-19435476D02*
X7091667Y-19330714D01*
X7082143Y-19311667D01*
X7063095Y-19302143D01*
X7034524Y-19302143D01*
X7015476Y-19311667D01*
X7005952Y-19321190D01*
X7215476Y-19435476D02*
X7196428Y-19425952D01*
X7186905Y-19416429D01*
X7177381Y-19397381D01*
X7177381Y-19340238D01*
X7186905Y-19321190D01*
X7196428Y-19311667D01*
X7215476Y-19302143D01*
X7244048Y-19302143D01*
X7263095Y-19311667D01*
X7272619Y-19321190D01*
X7282143Y-19340238D01*
X7282143Y-19397381D01*
X7272619Y-19416429D01*
X7263095Y-19425952D01*
X7244048Y-19435476D01*
X7215476Y-19435476D01*
X7396428Y-19435476D02*
X7377381Y-19425952D01*
X7367857Y-19406905D01*
X7367857Y-19235476D01*
X7548809Y-19425952D02*
X7529762Y-19435476D01*
X7491667Y-19435476D01*
X7472619Y-19425952D01*
X7463095Y-19406905D01*
X7463095Y-19330714D01*
X7472619Y-19311667D01*
X7491667Y-19302143D01*
X7529762Y-19302143D01*
X7548809Y-19311667D01*
X7558333Y-19330714D01*
X7558333Y-19349762D01*
X7463095Y-19368810D01*
X7634524Y-19425952D02*
X7653571Y-19435476D01*
X7691667Y-19435476D01*
X7710714Y-19425952D01*
X7720238Y-19406905D01*
X7720238Y-19397381D01*
X7710714Y-19378333D01*
X7691667Y-19368810D01*
X7663095Y-19368810D01*
X7644048Y-19359286D01*
X7634524Y-19340238D01*
X7634524Y-19330714D01*
X7644048Y-19311667D01*
X7663095Y-19302143D01*
X7691667Y-19302143D01*
X7710714Y-19311667D01*
X7786905Y-19511667D02*
X7796428Y-19502143D01*
X7815476Y-19473571D01*
X7825000Y-19454524D01*
X7834524Y-19425952D01*
X7844048Y-19378333D01*
X7844048Y-19340238D01*
X7834524Y-19292619D01*
X7825000Y-19264048D01*
X7815476Y-19245000D01*
X7796428Y-19216429D01*
X7786905Y-19206905D01*
X2915000Y-19565000D02*
X2915000Y-19765000D01*
X2815000Y-19665000D02*
X3015000Y-19665000D01*
X3015000Y-19665000D02*
G75*
G03*
X3015000Y-19665000I-100000J0D01*
G01*
X3358333Y-19622143D02*
X3358333Y-19755476D01*
X3310714Y-19545952D02*
X3263095Y-19688810D01*
X3386905Y-19688810D01*
X3463095Y-19736429D02*
X3472619Y-19745952D01*
X3463095Y-19755476D01*
X3453571Y-19745952D01*
X3463095Y-19736429D01*
X3463095Y-19755476D01*
X3644048Y-19622143D02*
X3644048Y-19755476D01*
X3596428Y-19545952D02*
X3548809Y-19688810D01*
X3672619Y-19688810D01*
X3786905Y-19555476D02*
X3805952Y-19555476D01*
X3825000Y-19565000D01*
X3834524Y-19574524D01*
X3844048Y-19593571D01*
X3853571Y-19631667D01*
X3853571Y-19679286D01*
X3844048Y-19717381D01*
X3834524Y-19736429D01*
X3825000Y-19745952D01*
X3805952Y-19755476D01*
X3786905Y-19755476D01*
X3767857Y-19745952D01*
X3758333Y-19736429D01*
X3748809Y-19717381D01*
X3739286Y-19679286D01*
X3739286Y-19631667D01*
X3748809Y-19593571D01*
X3758333Y-19574524D01*
X3767857Y-19565000D01*
X3786905Y-19555476D01*
X3977381Y-19555476D02*
X3996428Y-19555476D01*
X4015476Y-19565000D01*
X4025000Y-19574524D01*
X4034524Y-19593571D01*
X4044048Y-19631667D01*
X4044048Y-19679286D01*
X4034524Y-19717381D01*
X4025000Y-19736429D01*
X4015476Y-19745952D01*
X3996428Y-19755476D01*
X3977381Y-19755476D01*
X3958333Y-19745952D01*
X3948809Y-19736429D01*
X3939286Y-19717381D01*
X3929762Y-19679286D01*
X3929762Y-19631667D01*
X3939286Y-19593571D01*
X3948809Y-19574524D01*
X3958333Y-19565000D01*
X3977381Y-19555476D01*
X4129762Y-19755476D02*
X4129762Y-19622143D01*
X4129762Y-19641190D02*
X4139286Y-19631667D01*
X4158333Y-19622143D01*
X4186905Y-19622143D01*
X4205952Y-19631667D01*
X4215476Y-19650714D01*
X4215476Y-19755476D01*
X4215476Y-19650714D02*
X4225000Y-19631667D01*
X4244048Y-19622143D01*
X4272619Y-19622143D01*
X4291667Y-19631667D01*
X4301190Y-19650714D01*
X4301190Y-19755476D01*
X4396429Y-19755476D02*
X4396429Y-19622143D01*
X4396429Y-19641190D02*
X4405952Y-19631667D01*
X4425000Y-19622143D01*
X4453571Y-19622143D01*
X4472619Y-19631667D01*
X4482143Y-19650714D01*
X4482143Y-19755476D01*
X4482143Y-19650714D02*
X4491667Y-19631667D01*
X4510714Y-19622143D01*
X4539286Y-19622143D01*
X4558333Y-19631667D01*
X4567857Y-19650714D01*
X4567857Y-19755476D01*
X4958333Y-19545952D02*
X4786905Y-19803095D01*
X5215476Y-19555476D02*
X5234524Y-19555476D01*
X5253571Y-19565000D01*
X5263095Y-19574524D01*
X5272619Y-19593571D01*
X5282143Y-19631667D01*
X5282143Y-19679286D01*
X5272619Y-19717381D01*
X5263095Y-19736429D01*
X5253571Y-19745952D01*
X5234524Y-19755476D01*
X5215476Y-19755476D01*
X5196429Y-19745952D01*
X5186905Y-19736429D01*
X5177381Y-19717381D01*
X5167857Y-19679286D01*
X5167857Y-19631667D01*
X5177381Y-19593571D01*
X5186905Y-19574524D01*
X5196429Y-19565000D01*
X5215476Y-19555476D01*
X5367857Y-19736429D02*
X5377381Y-19745952D01*
X5367857Y-19755476D01*
X5358333Y-19745952D01*
X5367857Y-19736429D01*
X5367857Y-19755476D01*
X5567857Y-19755476D02*
X5453571Y-19755476D01*
X5510714Y-19755476D02*
X5510714Y-19555476D01*
X5491667Y-19584048D01*
X5472619Y-19603095D01*
X5453571Y-19612619D01*
X5634524Y-19555476D02*
X5767857Y-19555476D01*
X5682143Y-19755476D01*
X5825000Y-19555476D02*
X5948809Y-19555476D01*
X5882143Y-19631667D01*
X5910714Y-19631667D01*
X5929762Y-19641190D01*
X5939286Y-19650714D01*
X5948809Y-19669762D01*
X5948809Y-19717381D01*
X5939286Y-19736429D01*
X5929762Y-19745952D01*
X5910714Y-19755476D01*
X5853571Y-19755476D01*
X5834524Y-19745952D01*
X5825000Y-19736429D01*
X6025000Y-19574524D02*
X6034524Y-19565000D01*
X6053571Y-19555476D01*
X6101190Y-19555476D01*
X6120238Y-19565000D01*
X6129762Y-19574524D01*
X6139286Y-19593571D01*
X6139286Y-19612619D01*
X6129762Y-19641190D01*
X6015476Y-19755476D01*
X6139286Y-19755476D01*
X6215476Y-19555476D02*
X6215476Y-19593571D01*
X6291667Y-19555476D02*
X6291667Y-19593571D01*
X6586905Y-19831667D02*
X6577381Y-19822143D01*
X6558333Y-19793571D01*
X6548809Y-19774524D01*
X6539286Y-19745952D01*
X6529762Y-19698333D01*
X6529762Y-19660238D01*
X6539286Y-19612619D01*
X6548809Y-19584048D01*
X6558333Y-19565000D01*
X6577381Y-19536429D01*
X6586905Y-19526905D01*
X6748809Y-19622143D02*
X6748809Y-19755476D01*
X6701190Y-19545952D02*
X6653571Y-19688810D01*
X6777381Y-19688810D01*
X7005952Y-19755476D02*
X7005952Y-19555476D01*
X7091667Y-19755476D02*
X7091667Y-19650714D01*
X7082143Y-19631667D01*
X7063095Y-19622143D01*
X7034524Y-19622143D01*
X7015476Y-19631667D01*
X7005952Y-19641190D01*
X7215476Y-19755476D02*
X7196428Y-19745952D01*
X7186905Y-19736429D01*
X7177381Y-19717381D01*
X7177381Y-19660238D01*
X7186905Y-19641190D01*
X7196428Y-19631667D01*
X7215476Y-19622143D01*
X7244048Y-19622143D01*
X7263095Y-19631667D01*
X7272619Y-19641190D01*
X7282143Y-19660238D01*
X7282143Y-19717381D01*
X7272619Y-19736429D01*
X7263095Y-19745952D01*
X7244048Y-19755476D01*
X7215476Y-19755476D01*
X7396428Y-19755476D02*
X7377381Y-19745952D01*
X7367857Y-19726905D01*
X7367857Y-19555476D01*
X7548809Y-19745952D02*
X7529762Y-19755476D01*
X7491667Y-19755476D01*
X7472619Y-19745952D01*
X7463095Y-19726905D01*
X7463095Y-19650714D01*
X7472619Y-19631667D01*
X7491667Y-19622143D01*
X7529762Y-19622143D01*
X7548809Y-19631667D01*
X7558333Y-19650714D01*
X7558333Y-19669762D01*
X7463095Y-19688810D01*
X7634524Y-19745952D02*
X7653571Y-19755476D01*
X7691667Y-19755476D01*
X7710714Y-19745952D01*
X7720238Y-19726905D01*
X7720238Y-19717381D01*
X7710714Y-19698333D01*
X7691667Y-19688810D01*
X7663095Y-19688810D01*
X7644048Y-19679286D01*
X7634524Y-19660238D01*
X7634524Y-19650714D01*
X7644048Y-19631667D01*
X7663095Y-19622143D01*
X7691667Y-19622143D01*
X7710714Y-19631667D01*
X7786905Y-19831667D02*
X7796428Y-19822143D01*
X7815476Y-19793571D01*
X7825000Y-19774524D01*
X7834524Y-19745952D01*
X7844048Y-19698333D01*
X7844048Y-19660238D01*
X7834524Y-19612619D01*
X7825000Y-19584048D01*
X7815476Y-19565000D01*
X7796428Y-19536429D01*
X7786905Y-19526905D01*
M02*
