%TF.GenerationSoftware,KiCad,Pcbnew,(6.0.0-0)*%
%TF.CreationDate,2022-10-14T11:13:41+02:00*%
%TF.ProjectId,prototype-1,70726f74-6f74-4797-9065-2d312e6b6963,rev?*%
%TF.SameCoordinates,Original*%
%TF.FileFunction,Copper,L1,Top*%
%TF.FilePolarity,Positive*%
%FSLAX46Y46*%
G04 Gerber Fmt 4.6, Leading zero omitted, Abs format (unit mm)*
G04 Created by KiCad (PCBNEW (6.0.0-0)) date 2022-10-14 11:13:41*
%MOMM*%
%LPD*%
G01*
G04 APERTURE LIST*
G04 Aperture macros list*
%AMRoundRect*
0 Rectangle with rounded corners*
0 $1 Rounding radius*
0 $2 $3 $4 $5 $6 $7 $8 $9 X,Y pos of 4 corners*
0 Add a 4 corners polygon primitive as box body*
4,1,4,$2,$3,$4,$5,$6,$7,$8,$9,$2,$3,0*
0 Add four circle primitives for the rounded corners*
1,1,$1+$1,$2,$3*
1,1,$1+$1,$4,$5*
1,1,$1+$1,$6,$7*
1,1,$1+$1,$8,$9*
0 Add four rect primitives between the rounded corners*
20,1,$1+$1,$2,$3,$4,$5,0*
20,1,$1+$1,$4,$5,$6,$7,0*
20,1,$1+$1,$6,$7,$8,$9,0*
20,1,$1+$1,$8,$9,$2,$3,0*%
G04 Aperture macros list end*
%TA.AperFunction,ComponentPad*%
%ADD10R,3.000000X3.000000*%
%TD*%
%TA.AperFunction,ComponentPad*%
%ADD11C,3.000000*%
%TD*%
%TA.AperFunction,ComponentPad*%
%ADD12R,1.600000X1.500000*%
%TD*%
%TA.AperFunction,ComponentPad*%
%ADD13C,1.600000*%
%TD*%
%TA.AperFunction,ComponentPad*%
%ADD14R,2.400000X2.400000*%
%TD*%
%TA.AperFunction,ComponentPad*%
%ADD15C,2.400000*%
%TD*%
%TA.AperFunction,ComponentPad*%
%ADD16C,0.900000*%
%TD*%
%TA.AperFunction,ComponentPad*%
%ADD17C,8.600000*%
%TD*%
%TA.AperFunction,SMDPad,CuDef*%
%ADD18RoundRect,0.135000X-0.135000X-0.185000X0.135000X-0.185000X0.135000X0.185000X-0.135000X0.185000X0*%
%TD*%
%TA.AperFunction,ComponentPad*%
%ADD19R,1.778000X1.778000*%
%TD*%
%TA.AperFunction,ComponentPad*%
%ADD20C,1.778000*%
%TD*%
%TA.AperFunction,ComponentPad*%
%ADD21R,1.700000X1.700000*%
%TD*%
%TA.AperFunction,ComponentPad*%
%ADD22O,1.700000X1.700000*%
%TD*%
%TA.AperFunction,SMDPad,CuDef*%
%ADD23RoundRect,0.150000X-0.587500X-0.150000X0.587500X-0.150000X0.587500X0.150000X-0.587500X0.150000X0*%
%TD*%
%TA.AperFunction,ComponentPad*%
%ADD24R,1.500000X1.500000*%
%TD*%
%TA.AperFunction,ComponentPad*%
%ADD25C,1.500000*%
%TD*%
%TA.AperFunction,ComponentPad*%
%ADD26C,6.600000*%
%TD*%
%TA.AperFunction,SMDPad,CuDef*%
%ADD27RoundRect,0.135000X-0.185000X0.135000X-0.185000X-0.135000X0.185000X-0.135000X0.185000X0.135000X0*%
%TD*%
%TA.AperFunction,SMDPad,CuDef*%
%ADD28RoundRect,0.243750X-0.456250X0.243750X-0.456250X-0.243750X0.456250X-0.243750X0.456250X0.243750X0*%
%TD*%
%TA.AperFunction,SMDPad,CuDef*%
%ADD29RoundRect,0.135000X0.135000X0.185000X-0.135000X0.185000X-0.135000X-0.185000X0.135000X-0.185000X0*%
%TD*%
%TA.AperFunction,SMDPad,CuDef*%
%ADD30R,1.200000X0.900000*%
%TD*%
%TA.AperFunction,ComponentPad*%
%ADD31C,1.650000*%
%TD*%
%TA.AperFunction,ViaPad*%
%ADD32C,0.800000*%
%TD*%
%TA.AperFunction,Conductor*%
%ADD33C,0.250000*%
%TD*%
%TA.AperFunction,Conductor*%
%ADD34C,1.000000*%
%TD*%
G04 APERTURE END LIST*
D10*
%TO.P,J4,1,Pin_1*%
%TO.N,Net-(J4-Pad1)*%
X193040000Y-124460000D03*
D11*
%TO.P,J4,2,Pin_2*%
%TO.N,Net-(J4-Pad2)*%
X198120000Y-124460000D03*
%TD*%
D12*
%TO.P,J1,1,VBUS*%
%TO.N,+5V*%
X159060000Y-101320000D03*
D13*
%TO.P,J1,2,D-*%
%TO.N,unconnected-(J1-Pad2)*%
X161560000Y-101320000D03*
%TO.P,J1,3,D+*%
%TO.N,unconnected-(J1-Pad3)*%
X163560000Y-101320000D03*
%TO.P,J1,4,GND*%
%TO.N,GND*%
X166060000Y-101320000D03*
D11*
%TO.P,J1,5,Shield*%
X155990000Y-104030000D03*
X169130000Y-104030000D03*
%TD*%
D14*
%TO.P,PS1,1,AC/N*%
%TO.N,Net-(J4-Pad2)*%
X66292500Y-134612500D03*
D15*
%TO.P,PS1,2,AC/L*%
%TO.N,Net-(J4-Pad1)*%
X66292500Y-154932500D03*
%TO.P,PS1,3,-Vo*%
%TO.N,GND*%
X112012500Y-144772500D03*
%TO.P,PS1,4,+Vo*%
%TO.N,+5V*%
X112012500Y-134612500D03*
%TD*%
D16*
%TO.P,REF\u002A\u002A,1*%
%TO.N,N/C*%
X248180419Y-161520419D03*
X245900000Y-162465000D03*
X243619581Y-156959581D03*
D17*
X245900000Y-159240000D03*
D16*
X243619581Y-161520419D03*
X245900000Y-156015000D03*
X249125000Y-159240000D03*
X248180419Y-156959581D03*
X242675000Y-159240000D03*
%TD*%
D18*
%TO.P,R4,1*%
%TO.N,+5V*%
X205230000Y-105410000D03*
%TO.P,R4,2*%
%TO.N,Net-(D1-Pad2)*%
X206250000Y-105410000D03*
%TD*%
%TO.P,R2,1*%
%TO.N,Net-(Q1-Pad2)*%
X202320000Y-105410000D03*
%TO.P,R2,2*%
%TO.N,Net-(R2-Pad2)*%
X203340000Y-105410000D03*
%TD*%
D10*
%TO.P,J5,1,Pin_1*%
%TO.N,Net-(J5-Pad1)*%
X212725000Y-124460000D03*
D11*
%TO.P,J5,2,Pin_2*%
%TO.N,Net-(J4-Pad2)*%
X217805000Y-124460000D03*
%TD*%
D19*
%TO.P,U1,1,+5V*%
%TO.N,+5V*%
X124420000Y-63630000D03*
D20*
%TO.P,U1,2,+3.3V_(out)*%
%TO.N,+3V3*%
X124420000Y-66170000D03*
%TO.P,U1,3,GND*%
%TO.N,GND*%
X124420000Y-68710000D03*
%TO.P,U1,4,ESP_EN*%
%TO.N,unconnected-(U1-Pad4)*%
X124420000Y-71250000D03*
%TO.P,U1,5,GPIO0*%
%TO.N,unconnected-(U1-Pad5)*%
X124420000Y-73790000D03*
%TO.P,U1,6,GPIO1*%
%TO.N,unconnected-(U1-Pad6)*%
X124420000Y-76330000D03*
%TO.P,U1,7,GPIO2*%
%TO.N,unconnected-(U1-Pad7)*%
X124420000Y-78870000D03*
%TO.P,U1,8,GPIO3*%
%TO.N,unconnected-(U1-Pad8)*%
X124420000Y-81410000D03*
%TO.P,U1,9,GPIO4*%
%TO.N,unconnected-(U1-Pad9)*%
X124420000Y-83950000D03*
%TO.P,U1,10,GPIO5*%
%TO.N,unconnected-(U1-Pad10)*%
X124420000Y-86490000D03*
%TO.P,U1,11,GPIO13*%
%TO.N,unconnected-(U1-Pad11)*%
X149820000Y-86490000D03*
%TO.P,U1,12,GPIO14*%
%TO.N,unconnected-(U1-Pad12)*%
X149820000Y-83950000D03*
%TO.P,U1,13,GPIO15*%
%TO.N,unconnected-(U1-Pad13)*%
X149820000Y-81410000D03*
%TO.P,U1,14,GPIO16*%
%TO.N,unconnected-(U1-Pad14)*%
X149820000Y-78870000D03*
%TO.P,U1,15,GPIO32*%
%TO.N,unconnected-(U1-Pad15)*%
X149820000Y-76330000D03*
%TO.P,U1,16,GPIO33*%
%TO.N,Net-(R2-Pad2)*%
X149820000Y-73790000D03*
%TO.P,U1,17,GPIO34*%
%TO.N,unconnected-(U1-Pad17)*%
X149820000Y-71250000D03*
%TO.P,U1,18,GPIO35*%
%TO.N,Net-(J2-Pad3)*%
X149820000Y-68710000D03*
%TO.P,U1,19,GPIO36*%
%TO.N,Net-(J3-Pad4)*%
X149820000Y-66170000D03*
%TO.P,U1,20,GPIO39*%
%TO.N,unconnected-(U1-Pad20)*%
X149820000Y-63630000D03*
%TD*%
D16*
%TO.P,REF\u002A\u002A,1*%
%TO.N,N/C*%
X46780419Y-161520419D03*
X44500000Y-162465000D03*
X42219581Y-156959581D03*
D17*
X44500000Y-159240000D03*
D16*
X42219581Y-161520419D03*
X44500000Y-156015000D03*
X47725000Y-159240000D03*
X46780419Y-156959581D03*
X41275000Y-159240000D03*
%TD*%
D21*
%TO.P,J3,1,Pin_1*%
%TO.N,GND*%
X127000000Y-137160000D03*
D22*
%TO.P,J3,2,Pin_2*%
X127000000Y-139700000D03*
%TO.P,J3,3,Pin_3*%
%TO.N,+5V*%
X127000000Y-142240000D03*
%TO.P,J3,4,Pin_4*%
%TO.N,Net-(J3-Pad4)*%
X127000000Y-144780000D03*
%TD*%
D16*
%TO.P,REF\u002A\u002A,1*%
%TO.N,N/C*%
X46780419Y-23520419D03*
X44500000Y-24465000D03*
X42219581Y-18959581D03*
D17*
X44500000Y-21240000D03*
D16*
X42219581Y-23520419D03*
X44500000Y-18015000D03*
X47725000Y-21240000D03*
X46780419Y-18959581D03*
X41275000Y-21240000D03*
%TD*%
D10*
%TO.P,J6,1,Pin_1*%
%TO.N,Net-(J6-Pad1)*%
X231140000Y-124460000D03*
D11*
%TO.P,J6,2,Pin_2*%
%TO.N,Net-(J6-Pad2)*%
X236220000Y-124460000D03*
%TD*%
D23*
%TO.P,Q1,1,E*%
%TO.N,GND*%
X200112500Y-101355000D03*
%TO.P,Q1,2,B*%
%TO.N,Net-(Q1-Pad2)*%
X200112500Y-103255000D03*
%TO.P,Q1,3,C*%
%TO.N,Net-(D1-Pad1)*%
X201987500Y-102305000D03*
%TD*%
D21*
%TO.P,J2,1,Pin_1*%
%TO.N,GND*%
X137160000Y-137160000D03*
D22*
%TO.P,J2,2,Pin_2*%
%TO.N,+3V3*%
X137160000Y-139700000D03*
%TO.P,J2,3,Pin_3*%
%TO.N,Net-(J2-Pad3)*%
X137160000Y-142240000D03*
%TD*%
D24*
%TO.P,T1,1,AA*%
%TO.N,Net-(J5-Pad1)*%
X183160000Y-43180000D03*
D25*
%TO.P,T1,2,AB*%
%TO.N,Net-(J4-Pad2)*%
X218160000Y-43180000D03*
%TO.P,T1,3,SA*%
%TO.N,Net-(J6-Pad1)*%
X215660000Y-78180000D03*
%TO.P,T1,4,SB*%
%TO.N,Net-(T1-Pad4)*%
X210660000Y-78180000D03*
%TO.P,T1,5,SC*%
X190660000Y-78180000D03*
%TO.P,T1,6,SD*%
%TO.N,Net-(J6-Pad2)*%
X185660000Y-78180000D03*
D26*
%TO.P,T1,MH1*%
%TO.N,N/C*%
X161910000Y-36930000D03*
%TO.P,T1,MH2*%
X239410000Y-36930000D03*
%TO.P,T1,MH3*%
X239410000Y-84430000D03*
%TO.P,T1,MH4*%
X161910000Y-84430000D03*
%TD*%
D16*
%TO.P,REF\u002A\u002A,1*%
%TO.N,N/C*%
X39480419Y-92520419D03*
X37200000Y-93465000D03*
X34919581Y-87959581D03*
D17*
X37200000Y-90240000D03*
D16*
X34919581Y-92520419D03*
X37200000Y-87015000D03*
X40425000Y-90240000D03*
X39480419Y-87959581D03*
X33975000Y-90240000D03*
%TD*%
%TO.P,REF\u002A\u002A,1*%
%TO.N,N/C*%
X255480419Y-92520419D03*
X253200000Y-93465000D03*
X250919581Y-87959581D03*
D17*
X253200000Y-90240000D03*
D16*
X250919581Y-92520419D03*
X253200000Y-87015000D03*
X256425000Y-90240000D03*
X255480419Y-87959581D03*
X249975000Y-90240000D03*
%TD*%
D27*
%TO.P,R1,1*%
%TO.N,+3V3*%
X132080000Y-140460000D03*
%TO.P,R1,2*%
%TO.N,Net-(J2-Pad3)*%
X132080000Y-141480000D03*
%TD*%
D28*
%TO.P,D1,1,K*%
%TO.N,Net-(D1-Pad1)*%
X205740000Y-101297500D03*
%TO.P,D1,2,A*%
%TO.N,Net-(D1-Pad2)*%
X205740000Y-103172500D03*
%TD*%
D16*
%TO.P,REF\u002A\u002A,1*%
%TO.N,N/C*%
X248180419Y-23520419D03*
X245900000Y-24465000D03*
X243619581Y-18959581D03*
D17*
X245900000Y-21240000D03*
D16*
X243619581Y-23520419D03*
X245900000Y-18015000D03*
X249125000Y-21240000D03*
X248180419Y-18959581D03*
X242675000Y-21240000D03*
%TD*%
D29*
%TO.P,R3,1*%
%TO.N,Net-(Q1-Pad2)*%
X200535000Y-105410000D03*
%TO.P,R3,2*%
%TO.N,GND*%
X199515000Y-105410000D03*
%TD*%
D30*
%TO.P,D2,1,K*%
%TO.N,+5V*%
X209550000Y-104520000D03*
%TO.P,D2,2,A*%
%TO.N,Net-(D1-Pad1)*%
X209550000Y-101220000D03*
%TD*%
D31*
%TO.P,K1,1*%
%TO.N,+5V*%
X217433080Y-100340000D03*
%TO.P,K1,2*%
%TO.N,Net-(D1-Pad1)*%
X219973080Y-100340000D03*
%TO.P,K1,5*%
%TO.N,Net-(J4-Pad1)*%
X227593080Y-100340000D03*
%TO.P,K1,8*%
%TO.N,Net-(J5-Pad1)*%
X235213080Y-100340000D03*
%TD*%
D32*
%TO.N,+5V*%
X201930000Y-109855000D03*
X140335000Y-144780000D03*
%TO.N,+3V3*%
X130810000Y-139700000D03*
%TO.N,Net-(R2-Pad2)*%
X201930000Y-108585000D03*
%TD*%
D33*
%TO.N,Net-(D1-Pad1)*%
X202995000Y-101297500D02*
X201987500Y-102305000D01*
X205817500Y-101220000D02*
X205740000Y-101297500D01*
X211835000Y-101220000D02*
X215265000Y-97790000D01*
X209550000Y-101220000D02*
X211835000Y-101220000D01*
X215265000Y-97790000D02*
X219075000Y-97790000D01*
X219973080Y-98688080D02*
X219973080Y-100340000D01*
X219075000Y-97790000D02*
X219973080Y-98688080D01*
X209550000Y-101220000D02*
X205817500Y-101220000D01*
X205740000Y-101297500D02*
X202995000Y-101297500D01*
%TO.N,Net-(D1-Pad2)*%
X206250000Y-103682500D02*
X205740000Y-103172500D01*
X206250000Y-105410000D02*
X206250000Y-103682500D01*
%TO.N,+5V*%
X128905000Y-142240000D02*
X127000000Y-142240000D01*
X208280000Y-106680000D02*
X205355000Y-106680000D01*
X205230000Y-107825000D02*
X205230000Y-106555000D01*
X131445000Y-75565000D02*
X131445000Y-67945000D01*
X126870000Y-63630000D02*
X124420000Y-63630000D01*
X131445000Y-67945000D02*
X127000000Y-63500000D01*
X127000000Y-63500000D02*
X126870000Y-63630000D01*
X217433080Y-100340000D02*
X213253080Y-104520000D01*
X205355000Y-106680000D02*
X205230000Y-106555000D01*
X213253080Y-104520000D02*
X209550000Y-104520000D01*
X205230000Y-106555000D02*
X205230000Y-105410000D01*
X140335000Y-144780000D02*
X131445000Y-144780000D01*
X209550000Y-104520000D02*
X209550000Y-105410000D01*
X203200000Y-109855000D02*
X205230000Y-107825000D01*
X157200000Y-101320000D02*
X131445000Y-75565000D01*
X209550000Y-105410000D02*
X208280000Y-106680000D01*
X159060000Y-101320000D02*
X157200000Y-101320000D01*
X131445000Y-144780000D02*
X128905000Y-142240000D01*
X201930000Y-109855000D02*
X203200000Y-109855000D01*
%TO.N,GND*%
X199515000Y-105410000D02*
X198135000Y-104030000D01*
X199635000Y-101355000D02*
X198120000Y-102870000D01*
X198120000Y-102870000D02*
X198120000Y-104015000D01*
X137160000Y-137160000D02*
X127000000Y-137160000D01*
X166260000Y-104030000D02*
X169130000Y-104030000D01*
X155990000Y-104030000D02*
X166260000Y-104030000D01*
X127000000Y-139700000D02*
X117085000Y-139700000D01*
X117085000Y-139700000D02*
X112012500Y-144772500D01*
X166060000Y-101320000D02*
X166060000Y-103830000D01*
X198120000Y-104015000D02*
X198135000Y-104030000D01*
X166060000Y-103830000D02*
X166260000Y-104030000D01*
X137160000Y-137160000D02*
X137160000Y-122860000D01*
X127000000Y-137160000D02*
X127000000Y-139700000D01*
X129540000Y-77580000D02*
X129540000Y-71120000D01*
X129540000Y-71120000D02*
X127130000Y-68710000D01*
X200112500Y-101355000D02*
X199635000Y-101355000D01*
X137160000Y-122860000D02*
X155990000Y-104030000D01*
X155990000Y-104030000D02*
X129540000Y-77580000D01*
X198135000Y-104030000D02*
X169130000Y-104030000D01*
X127130000Y-68710000D02*
X124420000Y-68710000D01*
%TO.N,+3V3*%
X132080000Y-139700000D02*
X131445000Y-139700000D01*
X131445000Y-139700000D02*
X130810000Y-139700000D01*
X132840000Y-139700000D02*
X132080000Y-139700000D01*
X137160000Y-139700000D02*
X132840000Y-139700000D01*
X132080000Y-140460000D02*
X132080000Y-139700000D01*
%TO.N,Net-(J2-Pad3)*%
X132840000Y-142240000D02*
X132080000Y-141480000D01*
X137160000Y-142240000D02*
X132840000Y-142240000D01*
D34*
%TO.N,Net-(J6-Pad1)*%
X222250000Y-93345000D02*
X215660000Y-86755000D01*
X234315000Y-93345000D02*
X222250000Y-93345000D01*
X231140000Y-124460000D02*
X241300000Y-114300000D01*
X241300000Y-100330000D02*
X234315000Y-93345000D01*
X215660000Y-86755000D02*
X215660000Y-78180000D01*
X241300000Y-114300000D02*
X241300000Y-100330000D01*
%TO.N,Net-(J6-Pad2)*%
X245110000Y-115570000D02*
X245110000Y-99695000D01*
X236220000Y-124460000D02*
X245110000Y-115570000D01*
X226695000Y-89535000D02*
X220980000Y-83820000D01*
X191450000Y-72390000D02*
X185660000Y-78180000D01*
X215900000Y-72390000D02*
X191450000Y-72390000D01*
X245110000Y-99695000D02*
X234950000Y-89535000D01*
X220980000Y-77470000D02*
X215900000Y-72390000D01*
X220980000Y-83820000D02*
X220980000Y-77470000D01*
X234950000Y-89535000D02*
X226695000Y-89535000D01*
D33*
%TO.N,Net-(Q1-Pad2)*%
X200535000Y-105410000D02*
X200535000Y-103677500D01*
X200535000Y-103677500D02*
X200112500Y-103255000D01*
X202320000Y-105410000D02*
X200535000Y-105410000D01*
%TO.N,Net-(R2-Pad2)*%
X203340000Y-107175000D02*
X203340000Y-105410000D01*
X201930000Y-108585000D02*
X203340000Y-107175000D01*
D34*
%TO.N,Net-(T1-Pad4)*%
X190660000Y-78180000D02*
X210660000Y-78180000D01*
%TD*%
M02*
