%TF.GenerationSoftware,KiCad,Pcbnew,(6.0.0-0)*%
%TF.CreationDate,2022-10-14T11:13:42+02:00*%
%TF.ProjectId,prototype-1,70726f74-6f74-4797-9065-2d312e6b6963,rev?*%
%TF.SameCoordinates,Original*%
%TF.FileFunction,Legend,Top*%
%TF.FilePolarity,Positive*%
%FSLAX46Y46*%
G04 Gerber Fmt 4.6, Leading zero omitted, Abs format (unit mm)*
G04 Created by KiCad (PCBNEW (6.0.0-0)) date 2022-10-14 11:13:42*
%MOMM*%
%LPD*%
G01*
G04 APERTURE LIST*
G04 Aperture macros list*
%AMRoundRect*
0 Rectangle with rounded corners*
0 $1 Rounding radius*
0 $2 $3 $4 $5 $6 $7 $8 $9 X,Y pos of 4 corners*
0 Add a 4 corners polygon primitive as box body*
4,1,4,$2,$3,$4,$5,$6,$7,$8,$9,$2,$3,0*
0 Add four circle primitives for the rounded corners*
1,1,$1+$1,$2,$3*
1,1,$1+$1,$4,$5*
1,1,$1+$1,$6,$7*
1,1,$1+$1,$8,$9*
0 Add four rect primitives between the rounded corners*
20,1,$1+$1,$2,$3,$4,$5,0*
20,1,$1+$1,$4,$5,$6,$7,0*
20,1,$1+$1,$6,$7,$8,$9,0*
20,1,$1+$1,$8,$9,$2,$3,0*%
G04 Aperture macros list end*
%ADD10C,0.150000*%
%ADD11C,0.300000*%
%ADD12C,0.254000*%
%ADD13C,0.120000*%
%ADD14C,0.200000*%
%ADD15R,3.000000X3.000000*%
%ADD16C,3.000000*%
%ADD17R,1.600000X1.500000*%
%ADD18C,1.600000*%
%ADD19R,2.400000X2.400000*%
%ADD20C,2.400000*%
%ADD21C,0.900000*%
%ADD22C,8.600000*%
%ADD23RoundRect,0.135000X-0.135000X-0.185000X0.135000X-0.185000X0.135000X0.185000X-0.135000X0.185000X0*%
%ADD24C,4.300000*%
%ADD25R,1.778000X1.778000*%
%ADD26C,1.778000*%
%ADD27R,1.700000X1.700000*%
%ADD28O,1.700000X1.700000*%
%ADD29RoundRect,0.150000X-0.587500X-0.150000X0.587500X-0.150000X0.587500X0.150000X-0.587500X0.150000X0*%
%ADD30R,1.500000X1.500000*%
%ADD31C,1.500000*%
%ADD32C,6.600000*%
%ADD33RoundRect,0.135000X-0.185000X0.135000X-0.185000X-0.135000X0.185000X-0.135000X0.185000X0.135000X0*%
%ADD34RoundRect,0.243750X-0.456250X0.243750X-0.456250X-0.243750X0.456250X-0.243750X0.456250X0.243750X0*%
%ADD35RoundRect,0.135000X0.135000X0.185000X-0.135000X0.185000X-0.135000X-0.185000X0.135000X-0.185000X0*%
%ADD36R,1.200000X0.900000*%
%ADD37C,1.650000*%
G04 APERTURE END LIST*
D10*
X63500000Y-27940000D02*
X113500000Y-27940000D01*
X113500000Y-27940000D02*
X113500000Y-117940000D01*
X113500000Y-117940000D02*
X63500000Y-117940000D01*
X63500000Y-117940000D02*
X63500000Y-27940000D01*
X211788809Y-129722619D02*
X211836428Y-129675000D01*
X211931666Y-129627380D01*
X212169761Y-129627380D01*
X212265000Y-129675000D01*
X212312619Y-129722619D01*
X212360238Y-129817857D01*
X212360238Y-129913095D01*
X212312619Y-130055952D01*
X211741190Y-130627380D01*
X212360238Y-130627380D01*
X212741190Y-129722619D02*
X212788809Y-129675000D01*
X212884047Y-129627380D01*
X213122142Y-129627380D01*
X213217380Y-129675000D01*
X213265000Y-129722619D01*
X213312619Y-129817857D01*
X213312619Y-129913095D01*
X213265000Y-130055952D01*
X212693571Y-130627380D01*
X213312619Y-130627380D01*
X213931666Y-129627380D02*
X214026904Y-129627380D01*
X214122142Y-129675000D01*
X214169761Y-129722619D01*
X214217380Y-129817857D01*
X214265000Y-130008333D01*
X214265000Y-130246428D01*
X214217380Y-130436904D01*
X214169761Y-130532142D01*
X214122142Y-130579761D01*
X214026904Y-130627380D01*
X213931666Y-130627380D01*
X213836428Y-130579761D01*
X213788809Y-130532142D01*
X213741190Y-130436904D01*
X213693571Y-130246428D01*
X213693571Y-130008333D01*
X213741190Y-129817857D01*
X213788809Y-129722619D01*
X213836428Y-129675000D01*
X213931666Y-129627380D01*
X214550714Y-129627380D02*
X214884047Y-130627380D01*
X215217380Y-129627380D01*
X216503095Y-129627380D02*
X216693571Y-129627380D01*
X216788809Y-129675000D01*
X216884047Y-129770238D01*
X216931666Y-129960714D01*
X216931666Y-130294047D01*
X216884047Y-130484523D01*
X216788809Y-130579761D01*
X216693571Y-130627380D01*
X216503095Y-130627380D01*
X216407857Y-130579761D01*
X216312619Y-130484523D01*
X216265000Y-130294047D01*
X216265000Y-129960714D01*
X216312619Y-129770238D01*
X216407857Y-129675000D01*
X216503095Y-129627380D01*
X217360238Y-129627380D02*
X217360238Y-130436904D01*
X217407857Y-130532142D01*
X217455476Y-130579761D01*
X217550714Y-130627380D01*
X217741190Y-130627380D01*
X217836428Y-130579761D01*
X217884047Y-130532142D01*
X217931666Y-130436904D01*
X217931666Y-129627380D01*
X218265000Y-129627380D02*
X218836428Y-129627380D01*
X218550714Y-130627380D02*
X218550714Y-129627380D01*
X230322857Y-129722619D02*
X230370476Y-129675000D01*
X230465714Y-129627380D01*
X230703809Y-129627380D01*
X230799047Y-129675000D01*
X230846666Y-129722619D01*
X230894285Y-129817857D01*
X230894285Y-129913095D01*
X230846666Y-130055952D01*
X230275238Y-130627380D01*
X230894285Y-130627380D01*
X231751428Y-129960714D02*
X231751428Y-130627380D01*
X231513333Y-129579761D02*
X231275238Y-130294047D01*
X231894285Y-130294047D01*
X232132380Y-129627380D02*
X232465714Y-130627380D01*
X232799047Y-129627380D01*
X232989523Y-130246428D02*
X233037142Y-130198809D01*
X233132380Y-130151190D01*
X233322857Y-130246428D01*
X233418095Y-130198809D01*
X233465714Y-130151190D01*
X234799047Y-129627380D02*
X234989523Y-129627380D01*
X235084761Y-129675000D01*
X235180000Y-129770238D01*
X235227619Y-129960714D01*
X235227619Y-130294047D01*
X235180000Y-130484523D01*
X235084761Y-130579761D01*
X234989523Y-130627380D01*
X234799047Y-130627380D01*
X234703809Y-130579761D01*
X234608571Y-130484523D01*
X234560952Y-130294047D01*
X234560952Y-129960714D01*
X234608571Y-129770238D01*
X234703809Y-129675000D01*
X234799047Y-129627380D01*
X235656190Y-129627380D02*
X235656190Y-130436904D01*
X235703809Y-130532142D01*
X235751428Y-130579761D01*
X235846666Y-130627380D01*
X236037142Y-130627380D01*
X236132380Y-130579761D01*
X236180000Y-130532142D01*
X236227619Y-130436904D01*
X236227619Y-129627380D01*
X236560952Y-129627380D02*
X237132380Y-129627380D01*
X236846666Y-130627380D02*
X236846666Y-129627380D01*
D11*
X83500000Y-73749523D02*
X83785714Y-73844761D01*
X84261904Y-73844761D01*
X84452380Y-73749523D01*
X84547619Y-73654285D01*
X84642857Y-73463809D01*
X84642857Y-73273333D01*
X84547619Y-73082857D01*
X84452380Y-72987619D01*
X84261904Y-72892380D01*
X83880952Y-72797142D01*
X83690476Y-72701904D01*
X83595238Y-72606666D01*
X83500000Y-72416190D01*
X83500000Y-72225714D01*
X83595238Y-72035238D01*
X83690476Y-71940000D01*
X83880952Y-71844761D01*
X84357142Y-71844761D01*
X84642857Y-71940000D01*
X85309523Y-71844761D02*
X85785714Y-73844761D01*
X86166666Y-72416190D01*
X86547619Y-73844761D01*
X87023809Y-71844761D01*
X87785714Y-73844761D02*
X87785714Y-71844761D01*
X88452380Y-71844761D02*
X89595238Y-71844761D01*
X89023809Y-73844761D02*
X89023809Y-71844761D01*
X91404761Y-73654285D02*
X91309523Y-73749523D01*
X91023809Y-73844761D01*
X90833333Y-73844761D01*
X90547619Y-73749523D01*
X90357142Y-73559047D01*
X90261904Y-73368571D01*
X90166666Y-72987619D01*
X90166666Y-72701904D01*
X90261904Y-72320952D01*
X90357142Y-72130476D01*
X90547619Y-71940000D01*
X90833333Y-71844761D01*
X91023809Y-71844761D01*
X91309523Y-71940000D01*
X91404761Y-72035238D01*
X92261904Y-73844761D02*
X92261904Y-71844761D01*
X92261904Y-72797142D02*
X93404761Y-72797142D01*
X93404761Y-73844761D02*
X93404761Y-71844761D01*
D10*
X192770476Y-129722619D02*
X192818095Y-129675000D01*
X192913333Y-129627380D01*
X193151428Y-129627380D01*
X193246666Y-129675000D01*
X193294285Y-129722619D01*
X193341904Y-129817857D01*
X193341904Y-129913095D01*
X193294285Y-130055952D01*
X192722857Y-130627380D01*
X193341904Y-130627380D01*
X193722857Y-129722619D02*
X193770476Y-129675000D01*
X193865714Y-129627380D01*
X194103809Y-129627380D01*
X194199047Y-129675000D01*
X194246666Y-129722619D01*
X194294285Y-129817857D01*
X194294285Y-129913095D01*
X194246666Y-130055952D01*
X193675238Y-130627380D01*
X194294285Y-130627380D01*
X194913333Y-129627380D02*
X195008571Y-129627380D01*
X195103809Y-129675000D01*
X195151428Y-129722619D01*
X195199047Y-129817857D01*
X195246666Y-130008333D01*
X195246666Y-130246428D01*
X195199047Y-130436904D01*
X195151428Y-130532142D01*
X195103809Y-130579761D01*
X195008571Y-130627380D01*
X194913333Y-130627380D01*
X194818095Y-130579761D01*
X194770476Y-130532142D01*
X194722857Y-130436904D01*
X194675238Y-130246428D01*
X194675238Y-130008333D01*
X194722857Y-129817857D01*
X194770476Y-129722619D01*
X194818095Y-129675000D01*
X194913333Y-129627380D01*
X195532380Y-129627380D02*
X195865714Y-130627380D01*
X196199047Y-129627380D01*
X197294285Y-130627380D02*
X197294285Y-129627380D01*
X197770476Y-130627380D02*
X197770476Y-129627380D01*
X198341904Y-130627380D01*
X198341904Y-129627380D01*
%TO.C,J4*%
X195246666Y-118832380D02*
X195246666Y-119546666D01*
X195199047Y-119689523D01*
X195103809Y-119784761D01*
X194960952Y-119832380D01*
X194865714Y-119832380D01*
X196151428Y-119165714D02*
X196151428Y-119832380D01*
X195913333Y-118784761D02*
X195675238Y-119499047D01*
X196294285Y-119499047D01*
%TO.C,J1*%
X162226666Y-97582380D02*
X162226666Y-98296666D01*
X162179047Y-98439523D01*
X162083809Y-98534761D01*
X161940952Y-98582380D01*
X161845714Y-98582380D01*
X163226666Y-98582380D02*
X162655238Y-98582380D01*
X162940952Y-98582380D02*
X162940952Y-97582380D01*
X162845714Y-97725238D01*
X162750476Y-97820476D01*
X162655238Y-97868095D01*
%TO.C,PS1*%
X64078214Y-130474880D02*
X64078214Y-129474880D01*
X64459166Y-129474880D01*
X64554404Y-129522500D01*
X64602023Y-129570119D01*
X64649642Y-129665357D01*
X64649642Y-129808214D01*
X64602023Y-129903452D01*
X64554404Y-129951071D01*
X64459166Y-129998690D01*
X64078214Y-129998690D01*
X65030595Y-130427261D02*
X65173452Y-130474880D01*
X65411547Y-130474880D01*
X65506785Y-130427261D01*
X65554404Y-130379642D01*
X65602023Y-130284404D01*
X65602023Y-130189166D01*
X65554404Y-130093928D01*
X65506785Y-130046309D01*
X65411547Y-129998690D01*
X65221071Y-129951071D01*
X65125833Y-129903452D01*
X65078214Y-129855833D01*
X65030595Y-129760595D01*
X65030595Y-129665357D01*
X65078214Y-129570119D01*
X65125833Y-129522500D01*
X65221071Y-129474880D01*
X65459166Y-129474880D01*
X65602023Y-129522500D01*
X66554404Y-130474880D02*
X65982976Y-130474880D01*
X66268690Y-130474880D02*
X66268690Y-129474880D01*
X66173452Y-129617738D01*
X66078214Y-129712976D01*
X65982976Y-129760595D01*
%TO.C,REF\u002A\u002A*%
X244566666Y-154392380D02*
X244233333Y-153916190D01*
X243995238Y-154392380D02*
X243995238Y-153392380D01*
X244376190Y-153392380D01*
X244471428Y-153440000D01*
X244519047Y-153487619D01*
X244566666Y-153582857D01*
X244566666Y-153725714D01*
X244519047Y-153820952D01*
X244471428Y-153868571D01*
X244376190Y-153916190D01*
X243995238Y-153916190D01*
X244995238Y-153868571D02*
X245328571Y-153868571D01*
X245471428Y-154392380D02*
X244995238Y-154392380D01*
X244995238Y-153392380D01*
X245471428Y-153392380D01*
X246233333Y-153868571D02*
X245900000Y-153868571D01*
X245900000Y-154392380D02*
X245900000Y-153392380D01*
X246376190Y-153392380D01*
X246900000Y-153392380D02*
X246900000Y-153630476D01*
X246661904Y-153535238D02*
X246900000Y-153630476D01*
X247138095Y-153535238D01*
X246757142Y-153820952D02*
X246900000Y-153630476D01*
X247042857Y-153820952D01*
X247661904Y-153392380D02*
X247661904Y-153630476D01*
X247423809Y-153535238D02*
X247661904Y-153630476D01*
X247900000Y-153535238D01*
X247519047Y-153820952D02*
X247661904Y-153630476D01*
X247804761Y-153820952D01*
%TO.C,R4*%
X205726974Y-107132380D02*
X205393641Y-106656190D01*
X205155545Y-107132380D02*
X205155545Y-106132380D01*
X205536498Y-106132380D01*
X205631736Y-106180000D01*
X205679355Y-106227619D01*
X205726974Y-106322857D01*
X205726974Y-106465714D01*
X205679355Y-106560952D01*
X205631736Y-106608571D01*
X205536498Y-106656190D01*
X205155545Y-106656190D01*
X206584117Y-106465714D02*
X206584117Y-107132380D01*
X206346021Y-106084761D02*
X206107926Y-106799047D01*
X206726974Y-106799047D01*
%TO.C,R2*%
X202663333Y-107132380D02*
X202330000Y-106656190D01*
X202091904Y-107132380D02*
X202091904Y-106132380D01*
X202472857Y-106132380D01*
X202568095Y-106180000D01*
X202615714Y-106227619D01*
X202663333Y-106322857D01*
X202663333Y-106465714D01*
X202615714Y-106560952D01*
X202568095Y-106608571D01*
X202472857Y-106656190D01*
X202091904Y-106656190D01*
X203044285Y-106227619D02*
X203091904Y-106180000D01*
X203187142Y-106132380D01*
X203425238Y-106132380D01*
X203520476Y-106180000D01*
X203568095Y-106227619D01*
X203615714Y-106322857D01*
X203615714Y-106418095D01*
X203568095Y-106560952D01*
X202996666Y-107132380D01*
X203615714Y-107132380D01*
%TO.C,REF\u002A\u002A*%
X87166666Y-115192380D02*
X86833333Y-114716190D01*
X86595238Y-115192380D02*
X86595238Y-114192380D01*
X86976190Y-114192380D01*
X87071428Y-114240000D01*
X87119047Y-114287619D01*
X87166666Y-114382857D01*
X87166666Y-114525714D01*
X87119047Y-114620952D01*
X87071428Y-114668571D01*
X86976190Y-114716190D01*
X86595238Y-114716190D01*
X87595238Y-114668571D02*
X87928571Y-114668571D01*
X88071428Y-115192380D02*
X87595238Y-115192380D01*
X87595238Y-114192380D01*
X88071428Y-114192380D01*
X88833333Y-114668571D02*
X88500000Y-114668571D01*
X88500000Y-115192380D02*
X88500000Y-114192380D01*
X88976190Y-114192380D01*
X89500000Y-114192380D02*
X89500000Y-114430476D01*
X89261904Y-114335238D02*
X89500000Y-114430476D01*
X89738095Y-114335238D01*
X89357142Y-114620952D02*
X89500000Y-114430476D01*
X89642857Y-114620952D01*
X90261904Y-114192380D02*
X90261904Y-114430476D01*
X90023809Y-114335238D02*
X90261904Y-114430476D01*
X90500000Y-114335238D01*
X90119047Y-114620952D02*
X90261904Y-114430476D01*
X90404761Y-114620952D01*
%TO.C,J5*%
X214931666Y-118832380D02*
X214931666Y-119546666D01*
X214884047Y-119689523D01*
X214788809Y-119784761D01*
X214645952Y-119832380D01*
X214550714Y-119832380D01*
X215884047Y-118832380D02*
X215407857Y-118832380D01*
X215360238Y-119308571D01*
X215407857Y-119260952D01*
X215503095Y-119213333D01*
X215741190Y-119213333D01*
X215836428Y-119260952D01*
X215884047Y-119308571D01*
X215931666Y-119403809D01*
X215931666Y-119641904D01*
X215884047Y-119737142D01*
X215836428Y-119784761D01*
X215741190Y-119832380D01*
X215503095Y-119832380D01*
X215407857Y-119784761D01*
X215360238Y-119737142D01*
%TO.C,REF\u002A\u002A*%
X87166666Y-21212380D02*
X86833333Y-20736190D01*
X86595238Y-21212380D02*
X86595238Y-20212380D01*
X86976190Y-20212380D01*
X87071428Y-20260000D01*
X87119047Y-20307619D01*
X87166666Y-20402857D01*
X87166666Y-20545714D01*
X87119047Y-20640952D01*
X87071428Y-20688571D01*
X86976190Y-20736190D01*
X86595238Y-20736190D01*
X87595238Y-20688571D02*
X87928571Y-20688571D01*
X88071428Y-21212380D02*
X87595238Y-21212380D01*
X87595238Y-20212380D01*
X88071428Y-20212380D01*
X88833333Y-20688571D02*
X88500000Y-20688571D01*
X88500000Y-21212380D02*
X88500000Y-20212380D01*
X88976190Y-20212380D01*
X89500000Y-20212380D02*
X89500000Y-20450476D01*
X89261904Y-20355238D02*
X89500000Y-20450476D01*
X89738095Y-20355238D01*
X89357142Y-20640952D02*
X89500000Y-20450476D01*
X89642857Y-20640952D01*
X90261904Y-20212380D02*
X90261904Y-20450476D01*
X90023809Y-20355238D02*
X90261904Y-20450476D01*
X90500000Y-20355238D01*
X90119047Y-20640952D02*
X90261904Y-20450476D01*
X90404761Y-20640952D01*
%TO.C,U1*%
X137668095Y-71412380D02*
X137668095Y-72221904D01*
X137715714Y-72317142D01*
X137763333Y-72364761D01*
X137858571Y-72412380D01*
X138049047Y-72412380D01*
X138144285Y-72364761D01*
X138191904Y-72317142D01*
X138239523Y-72221904D01*
X138239523Y-71412380D01*
X139239523Y-72412380D02*
X138668095Y-72412380D01*
X138953809Y-72412380D02*
X138953809Y-71412380D01*
X138858571Y-71555238D01*
X138763333Y-71650476D01*
X138668095Y-71698095D01*
D12*
X133612380Y-32906666D02*
X134217142Y-32906666D01*
X133491428Y-33269523D02*
X133914761Y-31999523D01*
X134338095Y-33269523D01*
X134761428Y-32422857D02*
X134761428Y-33269523D01*
X134761428Y-32543809D02*
X134821904Y-32483333D01*
X134942857Y-32422857D01*
X135124285Y-32422857D01*
X135245238Y-32483333D01*
X135305714Y-32604285D01*
X135305714Y-33269523D01*
X135729047Y-32422857D02*
X136212857Y-32422857D01*
X135910476Y-31999523D02*
X135910476Y-33088095D01*
X135970952Y-33209047D01*
X136091904Y-33269523D01*
X136212857Y-33269523D01*
X137120000Y-33209047D02*
X136999047Y-33269523D01*
X136757142Y-33269523D01*
X136636190Y-33209047D01*
X136575714Y-33088095D01*
X136575714Y-32604285D01*
X136636190Y-32483333D01*
X136757142Y-32422857D01*
X136999047Y-32422857D01*
X137120000Y-32483333D01*
X137180476Y-32604285D01*
X137180476Y-32725238D01*
X136575714Y-32846190D01*
X137724761Y-32422857D02*
X137724761Y-33269523D01*
X137724761Y-32543809D02*
X137785238Y-32483333D01*
X137906190Y-32422857D01*
X138087619Y-32422857D01*
X138208571Y-32483333D01*
X138269047Y-32604285D01*
X138269047Y-33269523D01*
X138873809Y-32422857D02*
X138873809Y-33269523D01*
X138873809Y-32543809D02*
X138934285Y-32483333D01*
X139055238Y-32422857D01*
X139236666Y-32422857D01*
X139357619Y-32483333D01*
X139418095Y-32604285D01*
X139418095Y-33269523D01*
X140567142Y-33269523D02*
X140567142Y-32604285D01*
X140506666Y-32483333D01*
X140385714Y-32422857D01*
X140143809Y-32422857D01*
X140022857Y-32483333D01*
X140567142Y-33209047D02*
X140446190Y-33269523D01*
X140143809Y-33269523D01*
X140022857Y-33209047D01*
X139962380Y-33088095D01*
X139962380Y-32967142D01*
X140022857Y-32846190D01*
X140143809Y-32785714D01*
X140446190Y-32785714D01*
X140567142Y-32725238D01*
D10*
%TO.C,REF\u002A\u002A*%
X43166666Y-154392380D02*
X42833333Y-153916190D01*
X42595238Y-154392380D02*
X42595238Y-153392380D01*
X42976190Y-153392380D01*
X43071428Y-153440000D01*
X43119047Y-153487619D01*
X43166666Y-153582857D01*
X43166666Y-153725714D01*
X43119047Y-153820952D01*
X43071428Y-153868571D01*
X42976190Y-153916190D01*
X42595238Y-153916190D01*
X43595238Y-153868571D02*
X43928571Y-153868571D01*
X44071428Y-154392380D02*
X43595238Y-154392380D01*
X43595238Y-153392380D01*
X44071428Y-153392380D01*
X44833333Y-153868571D02*
X44500000Y-153868571D01*
X44500000Y-154392380D02*
X44500000Y-153392380D01*
X44976190Y-153392380D01*
X45500000Y-153392380D02*
X45500000Y-153630476D01*
X45261904Y-153535238D02*
X45500000Y-153630476D01*
X45738095Y-153535238D01*
X45357142Y-153820952D02*
X45500000Y-153630476D01*
X45642857Y-153820952D01*
X46261904Y-153392380D02*
X46261904Y-153630476D01*
X46023809Y-153535238D02*
X46261904Y-153630476D01*
X46500000Y-153535238D01*
X46119047Y-153820952D02*
X46261904Y-153630476D01*
X46404761Y-153820952D01*
%TO.C,J3*%
X126666666Y-134282380D02*
X126666666Y-134996666D01*
X126619047Y-135139523D01*
X126523809Y-135234761D01*
X126380952Y-135282380D01*
X126285714Y-135282380D01*
X127047619Y-134282380D02*
X127666666Y-134282380D01*
X127333333Y-134663333D01*
X127476190Y-134663333D01*
X127571428Y-134710952D01*
X127619047Y-134758571D01*
X127666666Y-134853809D01*
X127666666Y-135091904D01*
X127619047Y-135187142D01*
X127571428Y-135234761D01*
X127476190Y-135282380D01*
X127190476Y-135282380D01*
X127095238Y-135234761D01*
X127047619Y-135187142D01*
%TO.C,REF\u002A\u002A*%
X43166666Y-16392380D02*
X42833333Y-15916190D01*
X42595238Y-16392380D02*
X42595238Y-15392380D01*
X42976190Y-15392380D01*
X43071428Y-15440000D01*
X43119047Y-15487619D01*
X43166666Y-15582857D01*
X43166666Y-15725714D01*
X43119047Y-15820952D01*
X43071428Y-15868571D01*
X42976190Y-15916190D01*
X42595238Y-15916190D01*
X43595238Y-15868571D02*
X43928571Y-15868571D01*
X44071428Y-16392380D02*
X43595238Y-16392380D01*
X43595238Y-15392380D01*
X44071428Y-15392380D01*
X44833333Y-15868571D02*
X44500000Y-15868571D01*
X44500000Y-16392380D02*
X44500000Y-15392380D01*
X44976190Y-15392380D01*
X45500000Y-15392380D02*
X45500000Y-15630476D01*
X45261904Y-15535238D02*
X45500000Y-15630476D01*
X45738095Y-15535238D01*
X45357142Y-15820952D02*
X45500000Y-15630476D01*
X45642857Y-15820952D01*
X46261904Y-15392380D02*
X46261904Y-15630476D01*
X46023809Y-15535238D02*
X46261904Y-15630476D01*
X46500000Y-15535238D01*
X46119047Y-15820952D02*
X46261904Y-15630476D01*
X46404761Y-15820952D01*
%TO.C,J6*%
X233346666Y-118832380D02*
X233346666Y-119546666D01*
X233299047Y-119689523D01*
X233203809Y-119784761D01*
X233060952Y-119832380D01*
X232965714Y-119832380D01*
X234251428Y-118832380D02*
X234060952Y-118832380D01*
X233965714Y-118880000D01*
X233918095Y-118927619D01*
X233822857Y-119070476D01*
X233775238Y-119260952D01*
X233775238Y-119641904D01*
X233822857Y-119737142D01*
X233870476Y-119784761D01*
X233965714Y-119832380D01*
X234156190Y-119832380D01*
X234251428Y-119784761D01*
X234299047Y-119737142D01*
X234346666Y-119641904D01*
X234346666Y-119403809D01*
X234299047Y-119308571D01*
X234251428Y-119260952D01*
X234156190Y-119213333D01*
X233965714Y-119213333D01*
X233870476Y-119260952D01*
X233822857Y-119308571D01*
X233775238Y-119403809D01*
%TO.C,Q1*%
X200954761Y-100452619D02*
X200859523Y-100405000D01*
X200764285Y-100309761D01*
X200621428Y-100166904D01*
X200526190Y-100119285D01*
X200430952Y-100119285D01*
X200478571Y-100357380D02*
X200383333Y-100309761D01*
X200288095Y-100214523D01*
X200240476Y-100024047D01*
X200240476Y-99690714D01*
X200288095Y-99500238D01*
X200383333Y-99405000D01*
X200478571Y-99357380D01*
X200669047Y-99357380D01*
X200764285Y-99405000D01*
X200859523Y-99500238D01*
X200907142Y-99690714D01*
X200907142Y-100024047D01*
X200859523Y-100214523D01*
X200764285Y-100309761D01*
X200669047Y-100357380D01*
X200478571Y-100357380D01*
X201859523Y-100357380D02*
X201288095Y-100357380D01*
X201573809Y-100357380D02*
X201573809Y-99357380D01*
X201478571Y-99500238D01*
X201383333Y-99595476D01*
X201288095Y-99643095D01*
%TO.C,J2*%
X136826666Y-134282380D02*
X136826666Y-134996666D01*
X136779047Y-135139523D01*
X136683809Y-135234761D01*
X136540952Y-135282380D01*
X136445714Y-135282380D01*
X137255238Y-134377619D02*
X137302857Y-134330000D01*
X137398095Y-134282380D01*
X137636190Y-134282380D01*
X137731428Y-134330000D01*
X137779047Y-134377619D01*
X137826666Y-134472857D01*
X137826666Y-134568095D01*
X137779047Y-134710952D01*
X137207619Y-135282380D01*
X137826666Y-135282380D01*
D12*
%TO.C,T1*%
X199692380Y-59984523D02*
X200418095Y-59984523D01*
X200055238Y-61254523D02*
X200055238Y-59984523D01*
X201506666Y-61254523D02*
X200780952Y-61254523D01*
X201143809Y-61254523D02*
X201143809Y-59984523D01*
X201022857Y-60165952D01*
X200901904Y-60286904D01*
X200780952Y-60347380D01*
D10*
%TO.C,REF\u002A\u002A*%
X35866666Y-85392380D02*
X35533333Y-84916190D01*
X35295238Y-85392380D02*
X35295238Y-84392380D01*
X35676190Y-84392380D01*
X35771428Y-84440000D01*
X35819047Y-84487619D01*
X35866666Y-84582857D01*
X35866666Y-84725714D01*
X35819047Y-84820952D01*
X35771428Y-84868571D01*
X35676190Y-84916190D01*
X35295238Y-84916190D01*
X36295238Y-84868571D02*
X36628571Y-84868571D01*
X36771428Y-85392380D02*
X36295238Y-85392380D01*
X36295238Y-84392380D01*
X36771428Y-84392380D01*
X37533333Y-84868571D02*
X37200000Y-84868571D01*
X37200000Y-85392380D02*
X37200000Y-84392380D01*
X37676190Y-84392380D01*
X38200000Y-84392380D02*
X38200000Y-84630476D01*
X37961904Y-84535238D02*
X38200000Y-84630476D01*
X38438095Y-84535238D01*
X38057142Y-84820952D02*
X38200000Y-84630476D01*
X38342857Y-84820952D01*
X38961904Y-84392380D02*
X38961904Y-84630476D01*
X38723809Y-84535238D02*
X38961904Y-84630476D01*
X39200000Y-84535238D01*
X38819047Y-84820952D02*
X38961904Y-84630476D01*
X39104761Y-84820952D01*
X251866666Y-85392380D02*
X251533333Y-84916190D01*
X251295238Y-85392380D02*
X251295238Y-84392380D01*
X251676190Y-84392380D01*
X251771428Y-84440000D01*
X251819047Y-84487619D01*
X251866666Y-84582857D01*
X251866666Y-84725714D01*
X251819047Y-84820952D01*
X251771428Y-84868571D01*
X251676190Y-84916190D01*
X251295238Y-84916190D01*
X252295238Y-84868571D02*
X252628571Y-84868571D01*
X252771428Y-85392380D02*
X252295238Y-85392380D01*
X252295238Y-84392380D01*
X252771428Y-84392380D01*
X253533333Y-84868571D02*
X253200000Y-84868571D01*
X253200000Y-85392380D02*
X253200000Y-84392380D01*
X253676190Y-84392380D01*
X254200000Y-84392380D02*
X254200000Y-84630476D01*
X253961904Y-84535238D02*
X254200000Y-84630476D01*
X254438095Y-84535238D01*
X254057142Y-84820952D02*
X254200000Y-84630476D01*
X254342857Y-84820952D01*
X254961904Y-84392380D02*
X254961904Y-84630476D01*
X254723809Y-84535238D02*
X254961904Y-84630476D01*
X255200000Y-84535238D01*
X254819047Y-84820952D02*
X254961904Y-84630476D01*
X255104761Y-84820952D01*
%TO.C,R1*%
X133702380Y-141136666D02*
X133226190Y-141470000D01*
X133702380Y-141708095D02*
X132702380Y-141708095D01*
X132702380Y-141327142D01*
X132750000Y-141231904D01*
X132797619Y-141184285D01*
X132892857Y-141136666D01*
X133035714Y-141136666D01*
X133130952Y-141184285D01*
X133178571Y-141231904D01*
X133226190Y-141327142D01*
X133226190Y-141708095D01*
X133702380Y-140184285D02*
X133702380Y-140755714D01*
X133702380Y-140470000D02*
X132702380Y-140470000D01*
X132845238Y-140565238D01*
X132940476Y-140660476D01*
X132988095Y-140755714D01*
%TO.C,D1*%
X205001904Y-100147380D02*
X205001904Y-99147380D01*
X205240000Y-99147380D01*
X205382857Y-99195000D01*
X205478095Y-99290238D01*
X205525714Y-99385476D01*
X205573333Y-99575952D01*
X205573333Y-99718809D01*
X205525714Y-99909285D01*
X205478095Y-100004523D01*
X205382857Y-100099761D01*
X205240000Y-100147380D01*
X205001904Y-100147380D01*
X206525714Y-100147380D02*
X205954285Y-100147380D01*
X206240000Y-100147380D02*
X206240000Y-99147380D01*
X206144761Y-99290238D01*
X206049523Y-99385476D01*
X205954285Y-99433095D01*
%TO.C,REF\u002A\u002A*%
X244566666Y-16392380D02*
X244233333Y-15916190D01*
X243995238Y-16392380D02*
X243995238Y-15392380D01*
X244376190Y-15392380D01*
X244471428Y-15440000D01*
X244519047Y-15487619D01*
X244566666Y-15582857D01*
X244566666Y-15725714D01*
X244519047Y-15820952D01*
X244471428Y-15868571D01*
X244376190Y-15916190D01*
X243995238Y-15916190D01*
X244995238Y-15868571D02*
X245328571Y-15868571D01*
X245471428Y-16392380D02*
X244995238Y-16392380D01*
X244995238Y-15392380D01*
X245471428Y-15392380D01*
X246233333Y-15868571D02*
X245900000Y-15868571D01*
X245900000Y-16392380D02*
X245900000Y-15392380D01*
X246376190Y-15392380D01*
X246900000Y-15392380D02*
X246900000Y-15630476D01*
X246661904Y-15535238D02*
X246900000Y-15630476D01*
X247138095Y-15535238D01*
X246757142Y-15820952D02*
X246900000Y-15630476D01*
X247042857Y-15820952D01*
X247661904Y-15392380D02*
X247661904Y-15630476D01*
X247423809Y-15535238D02*
X247661904Y-15630476D01*
X247900000Y-15535238D01*
X247519047Y-15820952D02*
X247661904Y-15630476D01*
X247804761Y-15820952D01*
%TO.C,R3*%
X199858333Y-107032380D02*
X199525000Y-106556190D01*
X199286904Y-107032380D02*
X199286904Y-106032380D01*
X199667857Y-106032380D01*
X199763095Y-106080000D01*
X199810714Y-106127619D01*
X199858333Y-106222857D01*
X199858333Y-106365714D01*
X199810714Y-106460952D01*
X199763095Y-106508571D01*
X199667857Y-106556190D01*
X199286904Y-106556190D01*
X200191666Y-106032380D02*
X200810714Y-106032380D01*
X200477380Y-106413333D01*
X200620238Y-106413333D01*
X200715476Y-106460952D01*
X200763095Y-106508571D01*
X200810714Y-106603809D01*
X200810714Y-106841904D01*
X200763095Y-106937142D01*
X200715476Y-106984761D01*
X200620238Y-107032380D01*
X200334523Y-107032380D01*
X200239285Y-106984761D01*
X200191666Y-106937142D01*
%TO.C,D2*%
X208811904Y-100147380D02*
X208811904Y-99147380D01*
X209050000Y-99147380D01*
X209192857Y-99195000D01*
X209288095Y-99290238D01*
X209335714Y-99385476D01*
X209383333Y-99575952D01*
X209383333Y-99718809D01*
X209335714Y-99909285D01*
X209288095Y-100004523D01*
X209192857Y-100099761D01*
X209050000Y-100147380D01*
X208811904Y-100147380D01*
X209764285Y-99242619D02*
X209811904Y-99195000D01*
X209907142Y-99147380D01*
X210145238Y-99147380D01*
X210240476Y-99195000D01*
X210288095Y-99242619D01*
X210335714Y-99337857D01*
X210335714Y-99433095D01*
X210288095Y-99575952D01*
X209716666Y-100147380D01*
X210335714Y-100147380D01*
D12*
%TO.C,K1*%
X224631169Y-102351683D02*
X224631169Y-101081683D01*
X225356883Y-102351683D02*
X224812597Y-101625969D01*
X225356883Y-101081683D02*
X224631169Y-101807398D01*
X226566407Y-102351683D02*
X225840692Y-102351683D01*
X226203550Y-102351683D02*
X226203550Y-101081683D01*
X226082597Y-101263112D01*
X225961645Y-101384064D01*
X225840692Y-101444540D01*
D13*
%TO.C,J4*%
X200660000Y-120650000D02*
X190500000Y-120650000D01*
X190500000Y-128270000D02*
X200660000Y-128270000D01*
X190500000Y-120650000D02*
X190500000Y-128270000D01*
X200660000Y-128270000D02*
X200660000Y-120650000D01*
X200660000Y-127000000D02*
X190500000Y-127000000D01*
%TO.C,J1*%
X155900000Y-98940000D02*
X169220000Y-98940000D01*
X155250000Y-113900000D02*
X155250000Y-114420000D01*
X169220000Y-105790000D02*
X169220000Y-113900000D01*
X158160000Y-98720000D02*
X159960000Y-98720000D01*
X155900000Y-113900000D02*
X155250000Y-113900000D01*
X155900000Y-98940000D02*
X155900000Y-102270000D01*
X169870000Y-113900000D02*
X169220000Y-113900000D01*
X169870000Y-114420000D02*
X169870000Y-113900000D01*
X155900000Y-113900000D02*
X155900000Y-105790000D01*
X155250000Y-114420000D02*
X169870000Y-114420000D01*
X169220000Y-98940000D02*
X169220000Y-102270000D01*
%TO.C,PS1*%
X62292500Y-130722500D02*
X65292500Y-130722500D01*
X62672500Y-131102500D02*
X115412500Y-131102500D01*
X115412500Y-131102500D02*
X115412500Y-158742500D01*
X62672500Y-158742500D02*
X115412500Y-158742500D01*
X62672500Y-131102500D02*
X62672500Y-158742500D01*
X62292500Y-133722500D02*
X62292500Y-130722500D01*
%TO.C,R4*%
X205586359Y-105030000D02*
X205893641Y-105030000D01*
X205586359Y-105790000D02*
X205893641Y-105790000D01*
%TO.C,R2*%
X202676359Y-105030000D02*
X202983641Y-105030000D01*
X202676359Y-105790000D02*
X202983641Y-105790000D01*
%TO.C,J5*%
X220345000Y-128270000D02*
X220345000Y-120650000D01*
X210185000Y-128270000D02*
X220345000Y-128270000D01*
X210185000Y-120650000D02*
X210185000Y-128270000D01*
X220345000Y-127000000D02*
X210185000Y-127000000D01*
X220345000Y-120650000D02*
X210185000Y-120650000D01*
D12*
%TO.C,U1*%
X151130000Y-110560000D02*
X151130000Y-35560000D01*
X149311000Y-104456000D02*
X149311000Y-116256000D01*
X149311000Y-116256000D02*
X133311000Y-116256000D01*
X128120000Y-29695000D02*
X146120000Y-29695000D01*
X123130000Y-110560000D02*
X151130000Y-110560000D01*
X133311000Y-116256000D02*
X133311000Y-104456000D01*
X146120000Y-29695000D02*
X146120000Y-36315000D01*
X123130000Y-35560000D02*
X151130000Y-35560000D01*
X123130000Y-104240000D02*
X123130000Y-110560000D01*
X128120000Y-29695000D02*
X128120000Y-36315000D01*
X123130000Y-104240000D02*
X123130000Y-35560000D01*
X128120000Y-35695000D02*
X146120000Y-35695000D01*
D13*
%TO.C,J3*%
X125670000Y-146110000D02*
X128330000Y-146110000D01*
X125670000Y-137160000D02*
X125670000Y-135830000D01*
X125670000Y-135830000D02*
X127000000Y-135830000D01*
X128330000Y-138430000D02*
X128330000Y-146110000D01*
X125670000Y-138430000D02*
X128330000Y-138430000D01*
X125670000Y-138430000D02*
X125670000Y-146110000D01*
%TO.C,J6*%
X238760000Y-120650000D02*
X228600000Y-120650000D01*
X238760000Y-127000000D02*
X228600000Y-127000000D01*
X228600000Y-128270000D02*
X238760000Y-128270000D01*
X238760000Y-128270000D02*
X238760000Y-120650000D01*
X228600000Y-120650000D02*
X228600000Y-128270000D01*
%TO.C,Q1*%
X201050000Y-103865000D02*
X201700000Y-103865000D01*
X201050000Y-100745000D02*
X201700000Y-100745000D01*
X201050000Y-100745000D02*
X199375000Y-100745000D01*
X201050000Y-103865000D02*
X200400000Y-103865000D01*
%TO.C,J2*%
X135830000Y-138430000D02*
X138490000Y-138430000D01*
X135830000Y-135830000D02*
X137160000Y-135830000D01*
X135830000Y-137160000D02*
X135830000Y-135830000D01*
X138490000Y-138430000D02*
X138490000Y-143570000D01*
X135830000Y-143570000D02*
X138490000Y-143570000D01*
X135830000Y-138430000D02*
X135830000Y-143570000D01*
D14*
%TO.C,T1*%
X244260000Y-30680000D02*
X157060000Y-30680000D01*
X183160000Y-30080000D02*
X183160000Y-30080000D01*
X244260000Y-90680000D02*
X244260000Y-30680000D01*
X183160000Y-30180000D02*
X183160000Y-30180000D01*
X183160000Y-30080000D02*
X183160000Y-30080000D01*
X157060000Y-30680000D02*
X157060000Y-90680000D01*
X157060000Y-90680000D02*
X244260000Y-90680000D01*
X183160000Y-30180000D02*
G75*
G03*
X183160000Y-30080000I0J50000D01*
G01*
X183160000Y-30080000D02*
G75*
G03*
X183160000Y-30180000I0J-50000D01*
G01*
X183160000Y-30080000D02*
G75*
G03*
X183160000Y-30180000I0J-50000D01*
G01*
D13*
%TO.C,R1*%
X131700000Y-140816359D02*
X131700000Y-141123641D01*
X132460000Y-140816359D02*
X132460000Y-141123641D01*
%TO.C,D1*%
X206700000Y-103235000D02*
X206700000Y-100550000D01*
X206700000Y-100550000D02*
X204780000Y-100550000D01*
X204780000Y-100550000D02*
X204780000Y-103235000D01*
%TO.C,R3*%
X200178641Y-105790000D02*
X199871359Y-105790000D01*
X200178641Y-105030000D02*
X199871359Y-105030000D01*
%TO.C,D2*%
X210550000Y-105120000D02*
X210550000Y-101220000D01*
X208550000Y-105120000D02*
X208550000Y-101220000D01*
X208550000Y-105120000D02*
X210550000Y-105120000D01*
D14*
%TO.C,K1*%
X236533080Y-99060000D02*
X236533080Y-104140000D01*
X216533080Y-99060000D02*
X216533080Y-99080000D01*
X216533080Y-99060000D02*
X236533080Y-99060000D01*
X216533080Y-104140000D02*
X216533080Y-101600000D01*
X236533080Y-104140000D02*
X216533080Y-104140000D01*
X215813240Y-100339000D02*
G75*
G03*
X215813240Y-100339000I-113160J0D01*
G01*
%TD*%
%LPC*%
D15*
%TO.C,J4*%
X193040000Y-124460000D03*
D16*
X198120000Y-124460000D03*
%TD*%
D17*
%TO.C,J1*%
X159060000Y-101320000D03*
D18*
X161560000Y-101320000D03*
X163560000Y-101320000D03*
X166060000Y-101320000D03*
D16*
X155990000Y-104030000D03*
X169130000Y-104030000D03*
%TD*%
D19*
%TO.C,PS1*%
X66292500Y-134612500D03*
D20*
X66292500Y-154932500D03*
X112012500Y-144772500D03*
X112012500Y-134612500D03*
%TD*%
D21*
%TO.C,REF\u002A\u002A*%
X248180419Y-161520419D03*
X245900000Y-162465000D03*
X243619581Y-156959581D03*
D22*
X245900000Y-159240000D03*
D21*
X243619581Y-161520419D03*
X245900000Y-156015000D03*
X249125000Y-159240000D03*
X248180419Y-156959581D03*
X242675000Y-159240000D03*
%TD*%
D23*
%TO.C,R4*%
X205230000Y-105410000D03*
X206250000Y-105410000D03*
%TD*%
%TO.C,R2*%
X202320000Y-105410000D03*
X203340000Y-105410000D03*
%TD*%
D24*
%TO.C,REF\u002A\u002A*%
X88500000Y-120040000D03*
%TD*%
D15*
%TO.C,J5*%
X212725000Y-124460000D03*
D16*
X217805000Y-124460000D03*
%TD*%
D24*
%TO.C,REF\u002A\u002A*%
X88500000Y-26060000D03*
%TD*%
D25*
%TO.C,U1*%
X124420000Y-63630000D03*
D26*
X124420000Y-66170000D03*
X124420000Y-68710000D03*
X124420000Y-71250000D03*
X124420000Y-73790000D03*
X124420000Y-76330000D03*
X124420000Y-78870000D03*
X124420000Y-81410000D03*
X124420000Y-83950000D03*
X124420000Y-86490000D03*
X149820000Y-86490000D03*
X149820000Y-83950000D03*
X149820000Y-81410000D03*
X149820000Y-78870000D03*
X149820000Y-76330000D03*
X149820000Y-73790000D03*
X149820000Y-71250000D03*
X149820000Y-68710000D03*
X149820000Y-66170000D03*
X149820000Y-63630000D03*
%TD*%
D21*
%TO.C,REF\u002A\u002A*%
X46780419Y-161520419D03*
X44500000Y-162465000D03*
X42219581Y-156959581D03*
D22*
X44500000Y-159240000D03*
D21*
X42219581Y-161520419D03*
X44500000Y-156015000D03*
X47725000Y-159240000D03*
X46780419Y-156959581D03*
X41275000Y-159240000D03*
%TD*%
D27*
%TO.C,J3*%
X127000000Y-137160000D03*
D28*
X127000000Y-139700000D03*
X127000000Y-142240000D03*
X127000000Y-144780000D03*
%TD*%
D21*
%TO.C,REF\u002A\u002A*%
X46780419Y-23520419D03*
X44500000Y-24465000D03*
X42219581Y-18959581D03*
D22*
X44500000Y-21240000D03*
D21*
X42219581Y-23520419D03*
X44500000Y-18015000D03*
X47725000Y-21240000D03*
X46780419Y-18959581D03*
X41275000Y-21240000D03*
%TD*%
D15*
%TO.C,J6*%
X231140000Y-124460000D03*
D16*
X236220000Y-124460000D03*
%TD*%
D29*
%TO.C,Q1*%
X200112500Y-101355000D03*
X200112500Y-103255000D03*
X201987500Y-102305000D03*
%TD*%
D27*
%TO.C,J2*%
X137160000Y-137160000D03*
D28*
X137160000Y-139700000D03*
X137160000Y-142240000D03*
%TD*%
D30*
%TO.C,T1*%
X183160000Y-43180000D03*
D31*
X218160000Y-43180000D03*
X215660000Y-78180000D03*
X210660000Y-78180000D03*
X190660000Y-78180000D03*
X185660000Y-78180000D03*
D32*
X161910000Y-36930000D03*
X239410000Y-36930000D03*
X239410000Y-84430000D03*
X161910000Y-84430000D03*
%TD*%
D21*
%TO.C,REF\u002A\u002A*%
X39480419Y-92520419D03*
X37200000Y-93465000D03*
X34919581Y-87959581D03*
D22*
X37200000Y-90240000D03*
D21*
X34919581Y-92520419D03*
X37200000Y-87015000D03*
X40425000Y-90240000D03*
X39480419Y-87959581D03*
X33975000Y-90240000D03*
%TD*%
%TO.C,REF\u002A\u002A*%
X255480419Y-92520419D03*
X253200000Y-93465000D03*
X250919581Y-87959581D03*
D22*
X253200000Y-90240000D03*
D21*
X250919581Y-92520419D03*
X253200000Y-87015000D03*
X256425000Y-90240000D03*
X255480419Y-87959581D03*
X249975000Y-90240000D03*
%TD*%
D33*
%TO.C,R1*%
X132080000Y-140460000D03*
X132080000Y-141480000D03*
%TD*%
D34*
%TO.C,D1*%
X205740000Y-101297500D03*
X205740000Y-103172500D03*
%TD*%
D21*
%TO.C,REF\u002A\u002A*%
X248180419Y-23520419D03*
X245900000Y-24465000D03*
X243619581Y-18959581D03*
D22*
X245900000Y-21240000D03*
D21*
X243619581Y-23520419D03*
X245900000Y-18015000D03*
X249125000Y-21240000D03*
X248180419Y-18959581D03*
X242675000Y-21240000D03*
%TD*%
D35*
%TO.C,R3*%
X200535000Y-105410000D03*
X199515000Y-105410000D03*
%TD*%
D36*
%TO.C,D2*%
X209550000Y-104520000D03*
X209550000Y-101220000D03*
%TD*%
D37*
%TO.C,K1*%
X217433080Y-100340000D03*
X219973080Y-100340000D03*
X227593080Y-100340000D03*
X235213080Y-100340000D03*
%TD*%
M02*
