%TF.GenerationSoftware,KiCad,Pcbnew,(6.0.0-0)*%
%TF.CreationDate,2023-01-03T08:47:46+01:00*%
%TF.ProjectId,epanel-energy-monitor,6570616e-656c-42d6-956e-657267792d6d,rev?*%
%TF.SameCoordinates,Original*%
%TF.FileFunction,Soldermask,Top*%
%TF.FilePolarity,Negative*%
%FSLAX46Y46*%
G04 Gerber Fmt 4.6, Leading zero omitted, Abs format (unit mm)*
G04 Created by KiCad (PCBNEW (6.0.0-0)) date 2023-01-03 08:47:46*
%MOMM*%
%LPD*%
G01*
G04 APERTURE LIST*
G04 Aperture macros list*
%AMRoundRect*
0 Rectangle with rounded corners*
0 $1 Rounding radius*
0 $2 $3 $4 $5 $6 $7 $8 $9 X,Y pos of 4 corners*
0 Add a 4 corners polygon primitive as box body*
4,1,4,$2,$3,$4,$5,$6,$7,$8,$9,$2,$3,0*
0 Add four circle primitives for the rounded corners*
1,1,$1+$1,$2,$3*
1,1,$1+$1,$4,$5*
1,1,$1+$1,$6,$7*
1,1,$1+$1,$8,$9*
0 Add four rect primitives between the rounded corners*
20,1,$1+$1,$2,$3,$4,$5,0*
20,1,$1+$1,$4,$5,$6,$7,0*
20,1,$1+$1,$6,$7,$8,$9,0*
20,1,$1+$1,$8,$9,$2,$3,0*%
G04 Aperture macros list end*
%ADD10C,1.217000*%
%ADD11RoundRect,0.250000X0.262500X0.450000X-0.262500X0.450000X-0.262500X-0.450000X0.262500X-0.450000X0*%
%ADD12C,1.300000*%
%ADD13C,1.950000*%
%ADD14RoundRect,0.250000X-0.262500X-0.450000X0.262500X-0.450000X0.262500X0.450000X-0.262500X0.450000X0*%
%ADD15RoundRect,0.200000X0.200000X0.275000X-0.200000X0.275000X-0.200000X-0.275000X0.200000X-0.275000X0*%
%ADD16RoundRect,0.200000X-0.200000X-0.275000X0.200000X-0.275000X0.200000X0.275000X-0.200000X0.275000X0*%
%ADD17RoundRect,0.243750X0.243750X0.456250X-0.243750X0.456250X-0.243750X-0.456250X0.243750X-0.456250X0*%
%ADD18RoundRect,0.150000X0.150000X-0.825000X0.150000X0.825000X-0.150000X0.825000X-0.150000X-0.825000X0*%
%ADD19R,2.000000X1.780000*%
%ADD20RoundRect,0.150000X0.150000X-0.587500X0.150000X0.587500X-0.150000X0.587500X-0.150000X-0.587500X0*%
%ADD21R,1.700000X1.700000*%
%ADD22O,1.700000X1.700000*%
%ADD23R,3.000000X3.000000*%
%ADD24C,3.000000*%
%ADD25RoundRect,0.150000X-0.512500X-0.150000X0.512500X-0.150000X0.512500X0.150000X-0.512500X0.150000X0*%
%ADD26R,1.500000X1.500000*%
%ADD27C,1.500000*%
G04 APERTURE END LIST*
D10*
%TO.C,S2*%
X137876000Y-40481400D03*
X137876000Y-43021400D03*
X137876000Y-45561400D03*
X137876000Y-48101400D03*
X145496000Y-40481400D03*
X145496000Y-43021400D03*
X145496000Y-45561400D03*
X145496000Y-48101400D03*
%TD*%
D11*
%TO.C,R30*%
X162283500Y-52609600D03*
X160458500Y-52609600D03*
%TD*%
%TO.C,R72*%
X152042500Y-93980000D03*
X150217500Y-93980000D03*
%TD*%
%TO.C,R96*%
X195403380Y-94057380D03*
X193578380Y-94057380D03*
%TD*%
%TO.C,R18*%
X140642700Y-52558800D03*
X138817700Y-52558800D03*
%TD*%
%TO.C,R91*%
X184481380Y-97816580D03*
X182656380Y-97816580D03*
%TD*%
D10*
%TO.C,S11*%
X148863000Y-105181400D03*
X148863000Y-107721400D03*
X148863000Y-110261400D03*
X148863000Y-112801400D03*
X156483000Y-105181400D03*
X156483000Y-107721400D03*
X156483000Y-110261400D03*
X156483000Y-112801400D03*
%TD*%
D11*
%TO.C,R97*%
X195403380Y-97867380D03*
X193578380Y-97867380D03*
%TD*%
D12*
%TO.C,J19*%
X194691000Y-115544600D03*
X197231000Y-115544600D03*
D13*
X197231000Y-118084600D03*
X194691000Y-118084600D03*
%TD*%
D11*
%TO.C,R32*%
X162289900Y-59620000D03*
X160464900Y-59620000D03*
%TD*%
%TO.C,R55*%
X119406580Y-97816580D03*
X117581580Y-97816580D03*
%TD*%
%TO.C,R54*%
X119406580Y-94006580D03*
X117581580Y-94006580D03*
%TD*%
D14*
%TO.C,R34*%
X164874900Y-56128000D03*
X166699900Y-56128000D03*
%TD*%
D15*
%TO.C,R35*%
X177477200Y-59620000D03*
X175827200Y-59620000D03*
%TD*%
%TO.C,R11*%
X134144800Y-59569200D03*
X132494800Y-59569200D03*
%TD*%
%TO.C,R9*%
X143192000Y-75560000D03*
X141542000Y-75560000D03*
%TD*%
D11*
%TO.C,R44*%
X183981500Y-59620000D03*
X182156500Y-59620000D03*
%TD*%
D16*
%TO.C,R6*%
X141542000Y-69850000D03*
X143192000Y-69850000D03*
%TD*%
D11*
%TO.C,R12*%
X129822300Y-52558800D03*
X127997300Y-52558800D03*
%TD*%
D15*
%TO.C,R8*%
X143192000Y-77465000D03*
X141542000Y-77465000D03*
%TD*%
D12*
%TO.C,J5*%
X131978400Y-37797600D03*
X129438400Y-37797600D03*
D13*
X129438400Y-35257600D03*
X131978400Y-35257600D03*
%TD*%
D15*
%TO.C,R3*%
X114490000Y-48895000D03*
X112840000Y-48895000D03*
%TD*%
D11*
%TO.C,R80*%
X162840580Y-101626580D03*
X161015580Y-101626580D03*
%TD*%
D17*
%TO.C,D2*%
X120723900Y-43027600D03*
X118848900Y-43027600D03*
%TD*%
D11*
%TO.C,R98*%
X195403380Y-101677380D03*
X193578380Y-101677380D03*
%TD*%
D10*
%TO.C,S3*%
X148747200Y-40506800D03*
X148747200Y-43046800D03*
X148747200Y-45586800D03*
X148747200Y-48126800D03*
X156367200Y-40506800D03*
X156367200Y-43046800D03*
X156367200Y-45586800D03*
X156367200Y-48126800D03*
%TD*%
D11*
%TO.C,R66*%
X141148980Y-93904980D03*
X139323980Y-93904980D03*
%TD*%
%TO.C,R67*%
X141148980Y-97714980D03*
X139323980Y-97714980D03*
%TD*%
%TO.C,R13*%
X129828700Y-56077200D03*
X128003700Y-56077200D03*
%TD*%
D15*
%TO.C,R77*%
X166563080Y-94006580D03*
X164913080Y-94006580D03*
%TD*%
%TO.C,R29*%
X166606000Y-59620000D03*
X164956000Y-59620000D03*
%TD*%
D18*
%TO.C,U2*%
X162560000Y-69150000D03*
X163830000Y-69150000D03*
X165100000Y-69150000D03*
X166370000Y-69150000D03*
X167640000Y-69150000D03*
X168910000Y-69150000D03*
X170180000Y-69150000D03*
X171450000Y-69150000D03*
X171450000Y-64200000D03*
X170180000Y-64200000D03*
X168910000Y-64200000D03*
X167640000Y-64200000D03*
X166370000Y-64200000D03*
X165100000Y-64200000D03*
X163830000Y-64200000D03*
X162560000Y-64200000D03*
%TD*%
D17*
%TO.C,D1*%
X106195100Y-108610400D03*
X104320100Y-108610400D03*
%TD*%
D16*
%TO.C,R10*%
X141542000Y-73655000D03*
X143192000Y-73655000D03*
%TD*%
D10*
%TO.C,S5*%
X170388000Y-40506800D03*
X170388000Y-43046800D03*
X170388000Y-45586800D03*
X170388000Y-48126800D03*
X178008000Y-40506800D03*
X178008000Y-43046800D03*
X178008000Y-45586800D03*
X178008000Y-48126800D03*
%TD*%
D11*
%TO.C,R86*%
X173711780Y-101626580D03*
X171886780Y-101626580D03*
%TD*%
D12*
%TO.C,J2*%
X118872000Y-37848400D03*
X121412000Y-37848400D03*
D13*
X118872000Y-35308400D03*
X121412000Y-35308400D03*
%TD*%
D11*
%TO.C,R90*%
X184481380Y-94006580D03*
X182656380Y-94006580D03*
%TD*%
D12*
%TO.C,J13*%
X129794000Y-115629600D03*
X132334000Y-115629600D03*
D13*
X132334000Y-118169600D03*
X129794000Y-118169600D03*
%TD*%
D14*
%TO.C,R99*%
X197388380Y-97867380D03*
X199213380Y-97867380D03*
%TD*%
%TO.C,R51*%
X197512300Y-52628800D03*
X199337300Y-52628800D03*
%TD*%
%TO.C,R52*%
X197518700Y-56147200D03*
X199343700Y-56147200D03*
%TD*%
D10*
%TO.C,S8*%
X116351000Y-105198000D03*
X116351000Y-107738000D03*
X116351000Y-110278000D03*
X116351000Y-112818000D03*
X123971000Y-105198000D03*
X123971000Y-107738000D03*
X123971000Y-110278000D03*
X123971000Y-112818000D03*
%TD*%
D19*
%TO.C,U1*%
X104861400Y-52171600D03*
X104861400Y-54711600D03*
X114391400Y-54711600D03*
X114391400Y-52171600D03*
%TD*%
D10*
%TO.C,S4*%
X159567600Y-40506800D03*
X159567600Y-43046800D03*
X159567600Y-45586800D03*
X159567600Y-48126800D03*
X167187600Y-40506800D03*
X167187600Y-43046800D03*
X167187600Y-45586800D03*
X167187600Y-48126800D03*
%TD*%
%TO.C,S9*%
X127298400Y-105156000D03*
X127298400Y-107696000D03*
X127298400Y-110236000D03*
X127298400Y-112776000D03*
X134918400Y-105156000D03*
X134918400Y-107696000D03*
X134918400Y-110236000D03*
X134918400Y-112776000D03*
%TD*%
D11*
%TO.C,R84*%
X173711780Y-94006580D03*
X171886780Y-94006580D03*
%TD*%
D20*
%TO.C,Q1*%
X119065000Y-53642500D03*
X120965000Y-53642500D03*
X120015000Y-51767500D03*
%TD*%
D14*
%TO.C,R22*%
X143234100Y-56077200D03*
X145059100Y-56077200D03*
%TD*%
D11*
%TO.C,R92*%
X184481380Y-101626580D03*
X182656380Y-101626580D03*
%TD*%
D14*
%TO.C,R81*%
X164825580Y-97816580D03*
X166650580Y-97816580D03*
%TD*%
D11*
%TO.C,R25*%
X151520300Y-56077200D03*
X149695300Y-56077200D03*
%TD*%
D15*
%TO.C,R7*%
X110680000Y-48895000D03*
X109030000Y-48895000D03*
%TD*%
D12*
%TO.C,J11*%
X194462400Y-37769800D03*
X197002400Y-37769800D03*
D13*
X194462400Y-35229800D03*
X197002400Y-35229800D03*
%TD*%
D14*
%TO.C,R57*%
X121391580Y-97816580D03*
X123216580Y-97816580D03*
%TD*%
D15*
%TO.C,R17*%
X144965200Y-59569200D03*
X143315200Y-59569200D03*
%TD*%
D12*
%TO.C,J6*%
X140258800Y-37696000D03*
X142798800Y-37696000D03*
D13*
X140258800Y-35156000D03*
X142798800Y-35156000D03*
%TD*%
D12*
%TO.C,J17*%
X172974000Y-115544600D03*
X175514000Y-115544600D03*
D13*
X175514000Y-118084600D03*
X172974000Y-118084600D03*
%TD*%
D11*
%TO.C,R60*%
X130379380Y-93955780D03*
X128554380Y-93955780D03*
%TD*%
D10*
%TO.C,S1*%
X127055600Y-40481400D03*
X127055600Y-43021400D03*
X127055600Y-45561400D03*
X127055600Y-48101400D03*
X134675600Y-40481400D03*
X134675600Y-43021400D03*
X134675600Y-45561400D03*
X134675600Y-48101400D03*
%TD*%
D16*
%TO.C,R2*%
X116650000Y-48895000D03*
X118300000Y-48895000D03*
%TD*%
D18*
%TO.C,U3*%
X162560000Y-79310000D03*
X163830000Y-79310000D03*
X165100000Y-79310000D03*
X166370000Y-79310000D03*
X167640000Y-79310000D03*
X168910000Y-79310000D03*
X170180000Y-79310000D03*
X171450000Y-79310000D03*
X171450000Y-74360000D03*
X170180000Y-74360000D03*
X168910000Y-74360000D03*
X167640000Y-74360000D03*
X166370000Y-74360000D03*
X165100000Y-74360000D03*
X163830000Y-74360000D03*
X162560000Y-74360000D03*
%TD*%
D10*
%TO.C,S14*%
X181400400Y-105257600D03*
X181400400Y-107797600D03*
X181400400Y-110337600D03*
X181400400Y-112877600D03*
X189020400Y-105257600D03*
X189020400Y-107797600D03*
X189020400Y-110337600D03*
X189020400Y-112877600D03*
%TD*%
D11*
%TO.C,R43*%
X183981500Y-56128000D03*
X182156500Y-56128000D03*
%TD*%
D21*
%TO.C,J1*%
X105079800Y-116535200D03*
D22*
X105079800Y-113995200D03*
X107619800Y-116535200D03*
X107619800Y-113995200D03*
X110159800Y-116535200D03*
X110159800Y-113995200D03*
X112699800Y-116535200D03*
X112699800Y-113995200D03*
%TD*%
D10*
%TO.C,S12*%
X159658000Y-105156000D03*
X159658000Y-107696000D03*
X159658000Y-110236000D03*
X159658000Y-112776000D03*
X167278000Y-105156000D03*
X167278000Y-107696000D03*
X167278000Y-110236000D03*
X167278000Y-112776000D03*
%TD*%
D15*
%TO.C,R5*%
X143192000Y-67945000D03*
X141542000Y-67945000D03*
%TD*%
%TO.C,R4*%
X120840000Y-55880000D03*
X119190000Y-55880000D03*
%TD*%
D10*
%TO.C,S15*%
X192322400Y-105232200D03*
X192322400Y-107772200D03*
X192322400Y-110312200D03*
X192322400Y-112852200D03*
X199942400Y-105232200D03*
X199942400Y-107772200D03*
X199942400Y-110312200D03*
X199942400Y-112852200D03*
%TD*%
D11*
%TO.C,R85*%
X173711780Y-97816580D03*
X171886780Y-97816580D03*
%TD*%
%TO.C,R36*%
X173154700Y-52609600D03*
X171329700Y-52609600D03*
%TD*%
%TO.C,R14*%
X129828700Y-59569200D03*
X128003700Y-59569200D03*
%TD*%
D14*
%TO.C,R82*%
X164825580Y-101626580D03*
X166650580Y-101626580D03*
%TD*%
D11*
%TO.C,R62*%
X130379380Y-101575780D03*
X128554380Y-101575780D03*
%TD*%
D14*
%TO.C,R40*%
X175746100Y-56128000D03*
X177571100Y-56128000D03*
%TD*%
D11*
%TO.C,R56*%
X119406580Y-101626580D03*
X117581580Y-101626580D03*
%TD*%
%TO.C,R31*%
X162289900Y-56128000D03*
X160464900Y-56128000D03*
%TD*%
D14*
%TO.C,R28*%
X154105300Y-56077200D03*
X155930300Y-56077200D03*
%TD*%
D11*
%TO.C,R74*%
X152042500Y-101600000D03*
X150217500Y-101600000D03*
%TD*%
%TO.C,R61*%
X130379380Y-97765780D03*
X128554380Y-97765780D03*
%TD*%
D14*
%TO.C,R88*%
X175696780Y-101626580D03*
X177521780Y-101626580D03*
%TD*%
%TO.C,R46*%
X186566500Y-56128000D03*
X188391500Y-56128000D03*
%TD*%
D15*
%TO.C,R83*%
X177434280Y-94006580D03*
X175784280Y-94006580D03*
%TD*%
D12*
%TO.C,J7*%
X151079200Y-37769800D03*
X153619200Y-37769800D03*
D13*
X151079200Y-35229800D03*
X153619200Y-35229800D03*
%TD*%
D14*
%TO.C,R76*%
X154027500Y-101600000D03*
X155852500Y-101600000D03*
%TD*%
D12*
%TO.C,J14*%
X140589000Y-115544600D03*
X143129000Y-115544600D03*
D13*
X143129000Y-118084600D03*
X140589000Y-118084600D03*
%TD*%
D14*
%TO.C,R94*%
X186466380Y-101626580D03*
X188291380Y-101626580D03*
%TD*%
D15*
%TO.C,R23*%
X155836400Y-59569200D03*
X154186400Y-59569200D03*
%TD*%
D11*
%TO.C,R68*%
X141148980Y-101524980D03*
X139323980Y-101524980D03*
%TD*%
D14*
%TO.C,R15*%
X132407300Y-52558800D03*
X134232300Y-52558800D03*
%TD*%
D15*
%TO.C,R89*%
X188203880Y-94006580D03*
X186553880Y-94006580D03*
%TD*%
D21*
%TO.C,J3*%
X135987500Y-76835000D03*
D22*
X135987500Y-74295000D03*
%TD*%
D14*
%TO.C,R33*%
X164868500Y-52609600D03*
X166693500Y-52609600D03*
%TD*%
D15*
%TO.C,C1*%
X143192000Y-71755000D03*
X141542000Y-71755000D03*
%TD*%
D23*
%TO.C,J4*%
X111760000Y-38100000D03*
D24*
X106680000Y-38100000D03*
%TD*%
D14*
%TO.C,R58*%
X121391580Y-101626580D03*
X123216580Y-101626580D03*
%TD*%
%TO.C,R100*%
X197388380Y-101677380D03*
X199213380Y-101677380D03*
%TD*%
D15*
%TO.C,R71*%
X155765000Y-93980000D03*
X154115000Y-93980000D03*
%TD*%
D11*
%TO.C,R19*%
X140649100Y-56077200D03*
X138824100Y-56077200D03*
%TD*%
D14*
%TO.C,R64*%
X132364380Y-101575780D03*
X134189380Y-101575780D03*
%TD*%
D11*
%TO.C,R79*%
X162840580Y-97816580D03*
X161015580Y-97816580D03*
%TD*%
D14*
%TO.C,R93*%
X186466380Y-97816580D03*
X188291380Y-97816580D03*
%TD*%
D12*
%TO.C,J15*%
X153924000Y-115544600D03*
X151384000Y-115544600D03*
D13*
X153924000Y-118084600D03*
X151384000Y-118084600D03*
%TD*%
D14*
%TO.C,R45*%
X186560100Y-52609600D03*
X188385100Y-52609600D03*
%TD*%
%TO.C,R39*%
X175739700Y-52609600D03*
X177564700Y-52609600D03*
%TD*%
D11*
%TO.C,R50*%
X194933700Y-59639200D03*
X193108700Y-59639200D03*
%TD*%
%TO.C,R38*%
X173161100Y-59620000D03*
X171336100Y-59620000D03*
%TD*%
D14*
%TO.C,R87*%
X175696780Y-97816580D03*
X177521780Y-97816580D03*
%TD*%
D15*
%TO.C,R1*%
X109740200Y-108610400D03*
X108090200Y-108610400D03*
%TD*%
D11*
%TO.C,R24*%
X151513900Y-52558800D03*
X149688900Y-52558800D03*
%TD*%
D14*
%TO.C,R75*%
X154027500Y-97790000D03*
X155852500Y-97790000D03*
%TD*%
D15*
%TO.C,R47*%
X199249800Y-59639200D03*
X197599800Y-59639200D03*
%TD*%
%TO.C,R95*%
X199125880Y-94057380D03*
X197475880Y-94057380D03*
%TD*%
D11*
%TO.C,R48*%
X194927300Y-52628800D03*
X193102300Y-52628800D03*
%TD*%
D12*
%TO.C,J12*%
X121386600Y-115671600D03*
X118846600Y-115671600D03*
D13*
X121386600Y-118211600D03*
X118846600Y-118211600D03*
%TD*%
D11*
%TO.C,R37*%
X173161100Y-56128000D03*
X171336100Y-56128000D03*
%TD*%
D12*
%TO.C,J16*%
X162179000Y-115544600D03*
X164719000Y-115544600D03*
D13*
X164719000Y-118084600D03*
X162179000Y-118084600D03*
%TD*%
D15*
%TO.C,R53*%
X123129080Y-94006580D03*
X121479080Y-94006580D03*
%TD*%
D10*
%TO.C,S13*%
X170630800Y-105181400D03*
X170630800Y-107721400D03*
X170630800Y-110261400D03*
X170630800Y-112801400D03*
X178250800Y-105181400D03*
X178250800Y-107721400D03*
X178250800Y-110261400D03*
X178250800Y-112801400D03*
%TD*%
%TO.C,S7*%
X192155800Y-40557600D03*
X192155800Y-43097600D03*
X192155800Y-45637600D03*
X192155800Y-48177600D03*
X199775800Y-40557600D03*
X199775800Y-43097600D03*
X199775800Y-45637600D03*
X199775800Y-48177600D03*
%TD*%
D14*
%TO.C,R21*%
X143227700Y-52558800D03*
X145052700Y-52558800D03*
%TD*%
D10*
%TO.C,S6*%
X181208400Y-40506800D03*
X181208400Y-43046800D03*
X181208400Y-45586800D03*
X181208400Y-48126800D03*
X188828400Y-40506800D03*
X188828400Y-43046800D03*
X188828400Y-45586800D03*
X188828400Y-48126800D03*
%TD*%
D14*
%TO.C,R27*%
X154098900Y-52558800D03*
X155923900Y-52558800D03*
%TD*%
D15*
%TO.C,R41*%
X188297600Y-59620000D03*
X186647600Y-59620000D03*
%TD*%
D14*
%TO.C,R70*%
X143133980Y-101524980D03*
X144958980Y-101524980D03*
%TD*%
%TO.C,R63*%
X132364380Y-97765780D03*
X134189380Y-97765780D03*
%TD*%
D12*
%TO.C,J18*%
X186309000Y-115544600D03*
X183769000Y-115544600D03*
D13*
X186309000Y-118084600D03*
X183769000Y-118084600D03*
%TD*%
D11*
%TO.C,R20*%
X140649100Y-59569200D03*
X138824100Y-59569200D03*
%TD*%
D14*
%TO.C,R16*%
X132413700Y-56077200D03*
X134238700Y-56077200D03*
%TD*%
D12*
%TO.C,J9*%
X175260000Y-37769800D03*
X172720000Y-37769800D03*
D13*
X172720000Y-35229800D03*
X175260000Y-35229800D03*
%TD*%
D12*
%TO.C,J8*%
X161848800Y-37769800D03*
X164388800Y-37769800D03*
D13*
X161848800Y-35229800D03*
X164388800Y-35229800D03*
%TD*%
D14*
%TO.C,R69*%
X143133980Y-97714980D03*
X144958980Y-97714980D03*
%TD*%
D11*
%TO.C,R42*%
X183975100Y-52609600D03*
X182150100Y-52609600D03*
%TD*%
D15*
%TO.C,R59*%
X134101880Y-93955780D03*
X132451880Y-93955780D03*
%TD*%
D11*
%TO.C,R73*%
X152042500Y-97790000D03*
X150217500Y-97790000D03*
%TD*%
%TO.C,R26*%
X151520300Y-59569200D03*
X149695300Y-59569200D03*
%TD*%
D25*
%TO.C,U4*%
X134752500Y-67630000D03*
X134752500Y-68580000D03*
X134752500Y-69530000D03*
X137027500Y-69530000D03*
X137027500Y-67630000D03*
%TD*%
D11*
%TO.C,R78*%
X162840580Y-94006580D03*
X161015580Y-94006580D03*
%TD*%
D15*
%TO.C,R65*%
X144871480Y-93904980D03*
X143221480Y-93904980D03*
%TD*%
D26*
%TO.C,T1*%
X111760000Y-67945000D03*
D27*
X111760000Y-82945000D03*
X126760000Y-72945000D03*
X126760000Y-77945000D03*
%TD*%
D11*
%TO.C,R49*%
X194933700Y-56147200D03*
X193108700Y-56147200D03*
%TD*%
D10*
%TO.C,S10*%
X138068000Y-105156000D03*
X138068000Y-107696000D03*
X138068000Y-110236000D03*
X138068000Y-112776000D03*
X145688000Y-105156000D03*
X145688000Y-107696000D03*
X145688000Y-110236000D03*
X145688000Y-112776000D03*
%TD*%
D12*
%TO.C,J10*%
X186080400Y-37769800D03*
X183540400Y-37769800D03*
D13*
X183540400Y-35229800D03*
X186080400Y-35229800D03*
%TD*%
M02*
