%TF.GenerationSoftware,KiCad,Pcbnew,(6.0.0-0)*%
%TF.CreationDate,2023-01-03T08:47:46+01:00*%
%TF.ProjectId,epanel-energy-monitor,6570616e-656c-42d6-956e-657267792d6d,rev?*%
%TF.SameCoordinates,Original*%
%TF.FileFunction,Paste,Top*%
%TF.FilePolarity,Positive*%
%FSLAX46Y46*%
G04 Gerber Fmt 4.6, Leading zero omitted, Abs format (unit mm)*
G04 Created by KiCad (PCBNEW (6.0.0-0)) date 2023-01-03 08:47:46*
%MOMM*%
%LPD*%
G01*
G04 APERTURE LIST*
G04 Aperture macros list*
%AMRoundRect*
0 Rectangle with rounded corners*
0 $1 Rounding radius*
0 $2 $3 $4 $5 $6 $7 $8 $9 X,Y pos of 4 corners*
0 Add a 4 corners polygon primitive as box body*
4,1,4,$2,$3,$4,$5,$6,$7,$8,$9,$2,$3,0*
0 Add four circle primitives for the rounded corners*
1,1,$1+$1,$2,$3*
1,1,$1+$1,$4,$5*
1,1,$1+$1,$6,$7*
1,1,$1+$1,$8,$9*
0 Add four rect primitives between the rounded corners*
20,1,$1+$1,$2,$3,$4,$5,0*
20,1,$1+$1,$4,$5,$6,$7,0*
20,1,$1+$1,$6,$7,$8,$9,0*
20,1,$1+$1,$8,$9,$2,$3,0*%
G04 Aperture macros list end*
%ADD10RoundRect,0.250000X0.262500X0.450000X-0.262500X0.450000X-0.262500X-0.450000X0.262500X-0.450000X0*%
%ADD11RoundRect,0.250000X-0.262500X-0.450000X0.262500X-0.450000X0.262500X0.450000X-0.262500X0.450000X0*%
%ADD12RoundRect,0.200000X0.200000X0.275000X-0.200000X0.275000X-0.200000X-0.275000X0.200000X-0.275000X0*%
%ADD13RoundRect,0.200000X-0.200000X-0.275000X0.200000X-0.275000X0.200000X0.275000X-0.200000X0.275000X0*%
%ADD14RoundRect,0.243750X0.243750X0.456250X-0.243750X0.456250X-0.243750X-0.456250X0.243750X-0.456250X0*%
%ADD15RoundRect,0.150000X0.150000X-0.825000X0.150000X0.825000X-0.150000X0.825000X-0.150000X-0.825000X0*%
%ADD16R,2.000000X1.780000*%
%ADD17RoundRect,0.150000X0.150000X-0.587500X0.150000X0.587500X-0.150000X0.587500X-0.150000X-0.587500X0*%
%ADD18RoundRect,0.150000X-0.512500X-0.150000X0.512500X-0.150000X0.512500X0.150000X-0.512500X0.150000X0*%
G04 APERTURE END LIST*
D10*
%TO.C,R30*%
X162283500Y-52609600D03*
X160458500Y-52609600D03*
%TD*%
%TO.C,R72*%
X152042500Y-93980000D03*
X150217500Y-93980000D03*
%TD*%
%TO.C,R96*%
X195403380Y-94057380D03*
X193578380Y-94057380D03*
%TD*%
%TO.C,R18*%
X140642700Y-52558800D03*
X138817700Y-52558800D03*
%TD*%
%TO.C,R91*%
X184481380Y-97816580D03*
X182656380Y-97816580D03*
%TD*%
%TO.C,R97*%
X195403380Y-97867380D03*
X193578380Y-97867380D03*
%TD*%
%TO.C,R32*%
X162289900Y-59620000D03*
X160464900Y-59620000D03*
%TD*%
%TO.C,R55*%
X119406580Y-97816580D03*
X117581580Y-97816580D03*
%TD*%
%TO.C,R54*%
X119406580Y-94006580D03*
X117581580Y-94006580D03*
%TD*%
D11*
%TO.C,R34*%
X164874900Y-56128000D03*
X166699900Y-56128000D03*
%TD*%
D12*
%TO.C,R35*%
X177477200Y-59620000D03*
X175827200Y-59620000D03*
%TD*%
%TO.C,R11*%
X134144800Y-59569200D03*
X132494800Y-59569200D03*
%TD*%
%TO.C,R9*%
X143192000Y-75560000D03*
X141542000Y-75560000D03*
%TD*%
D10*
%TO.C,R44*%
X183981500Y-59620000D03*
X182156500Y-59620000D03*
%TD*%
D13*
%TO.C,R6*%
X141542000Y-69850000D03*
X143192000Y-69850000D03*
%TD*%
D10*
%TO.C,R12*%
X129822300Y-52558800D03*
X127997300Y-52558800D03*
%TD*%
D12*
%TO.C,R8*%
X143192000Y-77465000D03*
X141542000Y-77465000D03*
%TD*%
%TO.C,R3*%
X114490000Y-48895000D03*
X112840000Y-48895000D03*
%TD*%
D10*
%TO.C,R80*%
X162840580Y-101626580D03*
X161015580Y-101626580D03*
%TD*%
D14*
%TO.C,D2*%
X120723900Y-43027600D03*
X118848900Y-43027600D03*
%TD*%
D10*
%TO.C,R98*%
X195403380Y-101677380D03*
X193578380Y-101677380D03*
%TD*%
%TO.C,R66*%
X141148980Y-93904980D03*
X139323980Y-93904980D03*
%TD*%
%TO.C,R67*%
X141148980Y-97714980D03*
X139323980Y-97714980D03*
%TD*%
%TO.C,R13*%
X129828700Y-56077200D03*
X128003700Y-56077200D03*
%TD*%
D12*
%TO.C,R77*%
X166563080Y-94006580D03*
X164913080Y-94006580D03*
%TD*%
%TO.C,R29*%
X166606000Y-59620000D03*
X164956000Y-59620000D03*
%TD*%
D15*
%TO.C,U2*%
X162560000Y-69150000D03*
X163830000Y-69150000D03*
X165100000Y-69150000D03*
X166370000Y-69150000D03*
X167640000Y-69150000D03*
X168910000Y-69150000D03*
X170180000Y-69150000D03*
X171450000Y-69150000D03*
X171450000Y-64200000D03*
X170180000Y-64200000D03*
X168910000Y-64200000D03*
X167640000Y-64200000D03*
X166370000Y-64200000D03*
X165100000Y-64200000D03*
X163830000Y-64200000D03*
X162560000Y-64200000D03*
%TD*%
D14*
%TO.C,D1*%
X106195100Y-108610400D03*
X104320100Y-108610400D03*
%TD*%
D13*
%TO.C,R10*%
X141542000Y-73655000D03*
X143192000Y-73655000D03*
%TD*%
D10*
%TO.C,R86*%
X173711780Y-101626580D03*
X171886780Y-101626580D03*
%TD*%
%TO.C,R90*%
X184481380Y-94006580D03*
X182656380Y-94006580D03*
%TD*%
D11*
%TO.C,R99*%
X197388380Y-97867380D03*
X199213380Y-97867380D03*
%TD*%
%TO.C,R51*%
X197512300Y-52628800D03*
X199337300Y-52628800D03*
%TD*%
%TO.C,R52*%
X197518700Y-56147200D03*
X199343700Y-56147200D03*
%TD*%
D16*
%TO.C,U1*%
X104861400Y-52171600D03*
X104861400Y-54711600D03*
X114391400Y-54711600D03*
X114391400Y-52171600D03*
%TD*%
D10*
%TO.C,R84*%
X173711780Y-94006580D03*
X171886780Y-94006580D03*
%TD*%
D17*
%TO.C,Q1*%
X119065000Y-53642500D03*
X120965000Y-53642500D03*
X120015000Y-51767500D03*
%TD*%
D11*
%TO.C,R22*%
X143234100Y-56077200D03*
X145059100Y-56077200D03*
%TD*%
D10*
%TO.C,R92*%
X184481380Y-101626580D03*
X182656380Y-101626580D03*
%TD*%
D11*
%TO.C,R81*%
X164825580Y-97816580D03*
X166650580Y-97816580D03*
%TD*%
D10*
%TO.C,R25*%
X151520300Y-56077200D03*
X149695300Y-56077200D03*
%TD*%
D12*
%TO.C,R7*%
X110680000Y-48895000D03*
X109030000Y-48895000D03*
%TD*%
D11*
%TO.C,R57*%
X121391580Y-97816580D03*
X123216580Y-97816580D03*
%TD*%
D12*
%TO.C,R17*%
X144965200Y-59569200D03*
X143315200Y-59569200D03*
%TD*%
D10*
%TO.C,R60*%
X130379380Y-93955780D03*
X128554380Y-93955780D03*
%TD*%
D13*
%TO.C,R2*%
X116650000Y-48895000D03*
X118300000Y-48895000D03*
%TD*%
D15*
%TO.C,U3*%
X162560000Y-79310000D03*
X163830000Y-79310000D03*
X165100000Y-79310000D03*
X166370000Y-79310000D03*
X167640000Y-79310000D03*
X168910000Y-79310000D03*
X170180000Y-79310000D03*
X171450000Y-79310000D03*
X171450000Y-74360000D03*
X170180000Y-74360000D03*
X168910000Y-74360000D03*
X167640000Y-74360000D03*
X166370000Y-74360000D03*
X165100000Y-74360000D03*
X163830000Y-74360000D03*
X162560000Y-74360000D03*
%TD*%
D10*
%TO.C,R43*%
X183981500Y-56128000D03*
X182156500Y-56128000D03*
%TD*%
D12*
%TO.C,R5*%
X143192000Y-67945000D03*
X141542000Y-67945000D03*
%TD*%
%TO.C,R4*%
X120840000Y-55880000D03*
X119190000Y-55880000D03*
%TD*%
D10*
%TO.C,R85*%
X173711780Y-97816580D03*
X171886780Y-97816580D03*
%TD*%
%TO.C,R36*%
X173154700Y-52609600D03*
X171329700Y-52609600D03*
%TD*%
%TO.C,R14*%
X129828700Y-59569200D03*
X128003700Y-59569200D03*
%TD*%
D11*
%TO.C,R82*%
X164825580Y-101626580D03*
X166650580Y-101626580D03*
%TD*%
D10*
%TO.C,R62*%
X130379380Y-101575780D03*
X128554380Y-101575780D03*
%TD*%
D11*
%TO.C,R40*%
X175746100Y-56128000D03*
X177571100Y-56128000D03*
%TD*%
D10*
%TO.C,R56*%
X119406580Y-101626580D03*
X117581580Y-101626580D03*
%TD*%
%TO.C,R31*%
X162289900Y-56128000D03*
X160464900Y-56128000D03*
%TD*%
D11*
%TO.C,R28*%
X154105300Y-56077200D03*
X155930300Y-56077200D03*
%TD*%
D10*
%TO.C,R74*%
X152042500Y-101600000D03*
X150217500Y-101600000D03*
%TD*%
%TO.C,R61*%
X130379380Y-97765780D03*
X128554380Y-97765780D03*
%TD*%
D11*
%TO.C,R88*%
X175696780Y-101626580D03*
X177521780Y-101626580D03*
%TD*%
%TO.C,R46*%
X186566500Y-56128000D03*
X188391500Y-56128000D03*
%TD*%
D12*
%TO.C,R83*%
X177434280Y-94006580D03*
X175784280Y-94006580D03*
%TD*%
D11*
%TO.C,R76*%
X154027500Y-101600000D03*
X155852500Y-101600000D03*
%TD*%
%TO.C,R94*%
X186466380Y-101626580D03*
X188291380Y-101626580D03*
%TD*%
D12*
%TO.C,R23*%
X155836400Y-59569200D03*
X154186400Y-59569200D03*
%TD*%
D10*
%TO.C,R68*%
X141148980Y-101524980D03*
X139323980Y-101524980D03*
%TD*%
D11*
%TO.C,R15*%
X132407300Y-52558800D03*
X134232300Y-52558800D03*
%TD*%
D12*
%TO.C,R89*%
X188203880Y-94006580D03*
X186553880Y-94006580D03*
%TD*%
D11*
%TO.C,R33*%
X164868500Y-52609600D03*
X166693500Y-52609600D03*
%TD*%
D12*
%TO.C,C1*%
X143192000Y-71755000D03*
X141542000Y-71755000D03*
%TD*%
D11*
%TO.C,R58*%
X121391580Y-101626580D03*
X123216580Y-101626580D03*
%TD*%
%TO.C,R100*%
X197388380Y-101677380D03*
X199213380Y-101677380D03*
%TD*%
D12*
%TO.C,R71*%
X155765000Y-93980000D03*
X154115000Y-93980000D03*
%TD*%
D10*
%TO.C,R19*%
X140649100Y-56077200D03*
X138824100Y-56077200D03*
%TD*%
D11*
%TO.C,R64*%
X132364380Y-101575780D03*
X134189380Y-101575780D03*
%TD*%
D10*
%TO.C,R79*%
X162840580Y-97816580D03*
X161015580Y-97816580D03*
%TD*%
D11*
%TO.C,R93*%
X186466380Y-97816580D03*
X188291380Y-97816580D03*
%TD*%
%TO.C,R45*%
X186560100Y-52609600D03*
X188385100Y-52609600D03*
%TD*%
%TO.C,R39*%
X175739700Y-52609600D03*
X177564700Y-52609600D03*
%TD*%
D10*
%TO.C,R50*%
X194933700Y-59639200D03*
X193108700Y-59639200D03*
%TD*%
%TO.C,R38*%
X173161100Y-59620000D03*
X171336100Y-59620000D03*
%TD*%
D11*
%TO.C,R87*%
X175696780Y-97816580D03*
X177521780Y-97816580D03*
%TD*%
D12*
%TO.C,R1*%
X109740200Y-108610400D03*
X108090200Y-108610400D03*
%TD*%
D10*
%TO.C,R24*%
X151513900Y-52558800D03*
X149688900Y-52558800D03*
%TD*%
D11*
%TO.C,R75*%
X154027500Y-97790000D03*
X155852500Y-97790000D03*
%TD*%
D12*
%TO.C,R47*%
X199249800Y-59639200D03*
X197599800Y-59639200D03*
%TD*%
%TO.C,R95*%
X199125880Y-94057380D03*
X197475880Y-94057380D03*
%TD*%
D10*
%TO.C,R48*%
X194927300Y-52628800D03*
X193102300Y-52628800D03*
%TD*%
%TO.C,R37*%
X173161100Y-56128000D03*
X171336100Y-56128000D03*
%TD*%
D12*
%TO.C,R53*%
X123129080Y-94006580D03*
X121479080Y-94006580D03*
%TD*%
D11*
%TO.C,R21*%
X143227700Y-52558800D03*
X145052700Y-52558800D03*
%TD*%
%TO.C,R27*%
X154098900Y-52558800D03*
X155923900Y-52558800D03*
%TD*%
D12*
%TO.C,R41*%
X188297600Y-59620000D03*
X186647600Y-59620000D03*
%TD*%
D11*
%TO.C,R70*%
X143133980Y-101524980D03*
X144958980Y-101524980D03*
%TD*%
%TO.C,R63*%
X132364380Y-97765780D03*
X134189380Y-97765780D03*
%TD*%
D10*
%TO.C,R20*%
X140649100Y-59569200D03*
X138824100Y-59569200D03*
%TD*%
D11*
%TO.C,R16*%
X132413700Y-56077200D03*
X134238700Y-56077200D03*
%TD*%
%TO.C,R69*%
X143133980Y-97714980D03*
X144958980Y-97714980D03*
%TD*%
D10*
%TO.C,R42*%
X183975100Y-52609600D03*
X182150100Y-52609600D03*
%TD*%
D12*
%TO.C,R59*%
X134101880Y-93955780D03*
X132451880Y-93955780D03*
%TD*%
D10*
%TO.C,R73*%
X152042500Y-97790000D03*
X150217500Y-97790000D03*
%TD*%
%TO.C,R26*%
X151520300Y-59569200D03*
X149695300Y-59569200D03*
%TD*%
D18*
%TO.C,U4*%
X134752500Y-67630000D03*
X134752500Y-68580000D03*
X134752500Y-69530000D03*
X137027500Y-69530000D03*
X137027500Y-67630000D03*
%TD*%
D10*
%TO.C,R78*%
X162840580Y-94006580D03*
X161015580Y-94006580D03*
%TD*%
D12*
%TO.C,R65*%
X144871480Y-93904980D03*
X143221480Y-93904980D03*
%TD*%
D10*
%TO.C,R49*%
X194933700Y-56147200D03*
X193108700Y-56147200D03*
%TD*%
M02*
