M48
; DRILL file {KiCad (6.0.0-0)} date 2023 January 03, Tuesday 08:47:46
; FORMAT={-:-/ absolute / inch / decimal}
; #@! TF.CreationDate,2023-01-03T08:47:46+01:00
; #@! TF.GenerationSoftware,Kicad,Pcbnew,(6.0.0-0)
; #@! TF.FileFunction,NonPlated,1,2,NPTH
FMAT,2
INCH
; #@! TA.AperFunction,NonPlated,NPTH,ComponentDrill
T1C0.0512
%
G90
G05
T1
X4.679Y-4.554
X4.68Y-1.4901
X4.779Y-4.554
X4.78Y-1.4901
X5.096Y-1.4881
X5.11Y-4.5523
X5.196Y-1.4881
X5.21Y-4.5523
X5.522Y-1.4841
X5.535Y-4.549
X5.622Y-1.4841
X5.635Y-4.549
X5.948Y-1.487
X5.96Y-4.549
X6.048Y-1.487
X6.06Y-4.549
X6.372Y-1.487
X6.385Y-4.549
X6.472Y-1.487
X6.485Y-4.549
X6.8Y-1.487
X6.81Y-4.549
X6.9Y-1.487
X6.91Y-4.549
X7.226Y-1.487
X7.235Y-4.549
X7.326Y-1.487
X7.335Y-4.549
X7.656Y-1.487
X7.665Y-4.549
X7.756Y-1.487
X7.765Y-4.549
T0
M30
