M48
; DRILL file {KiCad (6.0.0-0)} date 2023 January 03, Tuesday 08:47:46
; FORMAT={-:-/ absolute / inch / decimal}
; #@! TF.CreationDate,2023-01-03T08:47:46+01:00
; #@! TF.GenerationSoftware,Kicad,Pcbnew,(6.0.0-0)
; #@! TF.FileFunction,Plated,1,2,PTH
FMAT,2
INCH
; #@! TA.AperFunction,Plated,PTH,ViaDrill
T1C0.0157
; #@! TA.AperFunction,Plated,PTH,ComponentDrill
T2C0.0280
; #@! TA.AperFunction,Plated,PTH,ComponentDrill
T3C0.0315
; #@! TA.AperFunction,Plated,PTH,ComponentDrill
T4C0.0394
; #@! TA.AperFunction,Plated,PTH,ComponentDrill
T5C0.0512
; #@! TA.AperFunction,Plated,PTH,ComponentDrill
T6C0.0598
%
G90
G05
T1
X4.65Y-2.35
X4.7Y-2.65
X4.7575Y-2.6925
X4.8Y-2.35
X5.225Y-2.7
X5.4874Y-2.6626
X6.45Y-2.45
X6.45Y-2.85
X6.5Y-2.45
X6.5Y-2.85
X6.55Y-2.45
X6.55Y-2.85
X6.6Y-2.45
X6.6Y-2.85
X6.65Y-2.45
X6.65Y-2.85
X6.7Y-2.45
X6.7Y-2.85
T2
X4.5807Y-4.1417
X4.5807Y-4.2417
X4.5807Y-4.3417
X4.5807Y-4.4417
X4.8807Y-4.1417
X4.8807Y-4.2417
X4.8807Y-4.3417
X4.8807Y-4.4417
X5.0022Y-1.5938
X5.0022Y-1.6938
X5.0022Y-1.7938
X5.0022Y-1.8938
X5.0117Y-4.14
X5.0117Y-4.24
X5.0117Y-4.34
X5.0117Y-4.44
X5.3022Y-1.5938
X5.3022Y-1.6938
X5.3022Y-1.7938
X5.3022Y-1.8938
X5.3117Y-4.14
X5.3117Y-4.24
X5.3117Y-4.34
X5.3117Y-4.44
X5.4282Y-1.5938
X5.4282Y-1.6938
X5.4282Y-1.7938
X5.4282Y-1.8938
X5.4357Y-4.14
X5.4357Y-4.24
X5.4357Y-4.34
X5.4357Y-4.44
X5.7282Y-1.5938
X5.7282Y-1.6938
X5.7282Y-1.7938
X5.7282Y-1.8938
X5.7357Y-4.14
X5.7357Y-4.24
X5.7357Y-4.34
X5.7357Y-4.44
X5.8562Y-1.5948
X5.8562Y-1.6948
X5.8562Y-1.7948
X5.8562Y-1.8948
X5.8607Y-4.141
X5.8607Y-4.241
X5.8607Y-4.341
X5.8607Y-4.441
X6.1562Y-1.5948
X6.1562Y-1.6948
X6.1562Y-1.7948
X6.1562Y-1.8948
X6.1607Y-4.141
X6.1607Y-4.241
X6.1607Y-4.341
X6.1607Y-4.441
X6.2822Y-1.5948
X6.2822Y-1.6948
X6.2822Y-1.7948
X6.2822Y-1.8948
X6.2857Y-4.14
X6.2857Y-4.24
X6.2857Y-4.34
X6.2857Y-4.44
X6.5822Y-1.5948
X6.5822Y-1.6948
X6.5822Y-1.7948
X6.5822Y-1.8948
X6.5857Y-4.14
X6.5857Y-4.24
X6.5857Y-4.34
X6.5857Y-4.44
X6.7082Y-1.5948
X6.7082Y-1.6948
X6.7082Y-1.7948
X6.7082Y-1.8948
X6.7177Y-4.141
X6.7177Y-4.241
X6.7177Y-4.341
X6.7177Y-4.441
X7.0082Y-1.5948
X7.0082Y-1.6948
X7.0082Y-1.7948
X7.0082Y-1.8948
X7.0177Y-4.141
X7.0177Y-4.241
X7.0177Y-4.341
X7.0177Y-4.441
X7.1342Y-1.5948
X7.1342Y-1.6948
X7.1342Y-1.7948
X7.1342Y-1.8948
X7.1417Y-4.144
X7.1417Y-4.244
X7.1417Y-4.344
X7.1417Y-4.444
X7.4342Y-1.5948
X7.4342Y-1.6948
X7.4342Y-1.7948
X7.4342Y-1.8948
X7.4417Y-4.144
X7.4417Y-4.244
X7.4417Y-4.344
X7.4417Y-4.444
X7.5652Y-1.5968
X7.5652Y-1.6968
X7.5652Y-1.7968
X7.5652Y-1.8968
X7.5717Y-4.143
X7.5717Y-4.243
X7.5717Y-4.343
X7.5717Y-4.443
X7.8652Y-1.5968
X7.8652Y-1.6968
X7.8652Y-1.7968
X7.8652Y-1.8968
X7.8717Y-4.143
X7.8717Y-4.243
X7.8717Y-4.343
X7.8717Y-4.443
T3
X4.4Y-2.675
X4.4Y-3.2656
X4.9906Y-2.8719
X4.9906Y-3.0687
T4
X4.137Y-4.488
X4.137Y-4.588
X4.237Y-4.488
X4.237Y-4.588
X4.337Y-4.488
X4.337Y-4.588
X4.437Y-4.488
X4.437Y-4.588
X5.3538Y-2.925
X5.3538Y-3.025
T5
X4.679Y-4.654
X4.68Y-1.3901
X4.779Y-4.654
X4.78Y-1.3901
X5.096Y-1.3881
X5.11Y-4.6523
X5.196Y-1.3881
X5.21Y-4.6523
X5.522Y-1.3841
X5.535Y-4.649
X5.622Y-1.3841
X5.635Y-4.649
X5.948Y-1.387
X5.96Y-4.649
X6.048Y-1.387
X6.06Y-4.649
X6.372Y-1.387
X6.385Y-4.649
X6.472Y-1.387
X6.485Y-4.649
X6.8Y-1.387
X6.81Y-4.649
X6.9Y-1.387
X6.91Y-4.649
X7.226Y-1.387
X7.235Y-4.649
X7.326Y-1.387
X7.335Y-4.649
X7.656Y-1.387
X7.665Y-4.649
X7.756Y-1.387
X7.765Y-4.649
T6
X4.2Y-1.5
X4.4Y-1.5
T0
M30
