M48
; DRILL file {KiCad (7.0.0-0)} date Tuesday 28 February 2023 at 14:48:18
; FORMAT={-:-/ absolute / inch / decimal}
; #@! TF.CreationDate,2023-02-28T14:48:18+01:00
; #@! TF.GenerationSoftware,Kicad,Pcbnew,(7.0.0-0)
; #@! TF.FileFunction,NonPlated,1,2,NPTH
FMAT,2
INCH
; #@! TA.AperFunction,NonPlated,NPTH,ComponentDrill
T1C0.0512
%
G90
G05
T1
X4.676Y-4.6621
X4.68Y-1.378
X4.776Y-4.6621
X4.78Y-1.378
X5.0583Y-1.3799
X5.1036Y-4.6619
X5.1583Y-1.3799
X5.2036Y-4.6619
X5.4898Y-1.3812
X5.5316Y-4.6619
X5.5898Y-1.3812
X5.6316Y-4.6619
X5.9218Y-1.3832
X5.9596Y-4.6619
X6.0218Y-1.3832
X6.0596Y-4.6619
X6.3538Y-1.3812
X6.3876Y-4.6619
X6.4538Y-1.3812
X6.4876Y-4.6619
X6.7858Y-1.3812
X6.8156Y-4.6619
X6.8858Y-1.3812
X6.9156Y-4.6619
X7.2178Y-1.3812
X7.2416Y-4.6619
X7.3178Y-1.3812
X7.3416Y-4.6619
X7.6498Y-1.3812
X7.6696Y-4.6619
X7.7498Y-1.3812
X7.7696Y-4.6619
T0
M30
