M48
; DRILL file {KiCad (6.0.0-0)} date 2023 February 18, Saturday 21:35:05
; FORMAT={-:-/ absolute / inch / decimal}
; #@! TF.CreationDate,2023-02-18T21:35:05+01:00
; #@! TF.GenerationSoftware,Kicad,Pcbnew,(6.0.0-0)
; #@! TF.FileFunction,Plated,1,2,PTH
FMAT,2
INCH
; #@! TA.AperFunction,Plated,PTH,ViaDrill
T1C0.0157
; #@! TA.AperFunction,Plated,PTH,ComponentDrill
T2C0.0280
; #@! TA.AperFunction,Plated,PTH,ComponentDrill
T3C0.0315
; #@! TA.AperFunction,Plated,PTH,ComponentDrill
T4C0.0394
; #@! TA.AperFunction,Plated,PTH,ComponentDrill
T5C0.0512
; #@! TA.AperFunction,Plated,PTH,ComponentDrill
T6C0.0598
%
G90
G05
T1
X4.65Y-2.35
X4.7Y-2.65
X4.7575Y-2.6925
X4.8Y-2.35
X4.882Y-2.452
X5.225Y-2.7
X5.4874Y-2.6626
X6.45Y-2.45
X6.45Y-2.85
X6.5Y-2.45
X6.5Y-2.85
X6.55Y-2.45
X6.55Y-2.85
X6.6Y-2.45
X6.6Y-2.85
X6.65Y-2.45
X6.65Y-2.85
X6.7Y-2.45
X6.7Y-2.85
T2
X4.5776Y-4.0766
X4.5776Y-4.1766
X4.5776Y-4.2766
X4.5776Y-4.3766
X4.8776Y-4.0766
X4.8776Y-4.1766
X4.8776Y-4.2766
X4.8776Y-4.3766
X4.96Y-1.662
X4.96Y-1.762
X4.96Y-1.862
X4.96Y-1.962
X5.0053Y-4.0765
X5.0053Y-4.1765
X5.0053Y-4.2765
X5.0053Y-4.3765
X5.26Y-1.662
X5.26Y-1.762
X5.26Y-1.862
X5.26Y-1.962
X5.3053Y-4.0765
X5.3053Y-4.1765
X5.3053Y-4.2765
X5.3053Y-4.3765
X5.3915Y-1.6633
X5.3915Y-1.7633
X5.3915Y-1.8633
X5.3915Y-1.9633
X5.4333Y-4.0765
X5.4333Y-4.1765
X5.4333Y-4.2765
X5.4333Y-4.3765
X5.6915Y-1.6633
X5.6915Y-1.7633
X5.6915Y-1.8633
X5.6915Y-1.9633
X5.7333Y-4.0765
X5.7333Y-4.1765
X5.7333Y-4.2765
X5.7333Y-4.3765
X5.8235Y-1.6653
X5.8235Y-1.7653
X5.8235Y-1.8653
X5.8235Y-1.9653
X5.8613Y-4.0765
X5.8613Y-4.1765
X5.8613Y-4.2765
X5.8613Y-4.3765
X6.1235Y-1.6653
X6.1235Y-1.7653
X6.1235Y-1.8653
X6.1235Y-1.9653
X6.1613Y-4.0765
X6.1613Y-4.1765
X6.1613Y-4.2765
X6.1613Y-4.3765
X6.2555Y-1.6633
X6.2555Y-1.7633
X6.2555Y-1.8633
X6.2555Y-1.9633
X6.2893Y-4.0765
X6.2893Y-4.1765
X6.2893Y-4.2765
X6.2893Y-4.3765
X6.5555Y-1.6633
X6.5555Y-1.7633
X6.5555Y-1.8633
X6.5555Y-1.9633
X6.5893Y-4.0765
X6.5893Y-4.1765
X6.5893Y-4.2765
X6.5893Y-4.3765
X6.6875Y-1.6633
X6.6875Y-1.7633
X6.6875Y-1.8633
X6.6875Y-1.9633
X6.7173Y-4.0765
X6.7173Y-4.1765
X6.7173Y-4.2765
X6.7173Y-4.3765
X6.9875Y-1.6633
X6.9875Y-1.7633
X6.9875Y-1.8633
X6.9875Y-1.9633
X7.0173Y-4.0765
X7.0173Y-4.1765
X7.0173Y-4.2765
X7.0173Y-4.3765
X7.1195Y-1.6633
X7.1195Y-1.7633
X7.1195Y-1.8633
X7.1195Y-1.9633
X7.1433Y-4.0765
X7.1433Y-4.1765
X7.1433Y-4.2765
X7.1433Y-4.3765
X7.4195Y-1.6633
X7.4195Y-1.7633
X7.4195Y-1.8633
X7.4195Y-1.9633
X7.4433Y-4.0765
X7.4433Y-4.1765
X7.4433Y-4.2765
X7.4433Y-4.3765
X7.5515Y-1.6633
X7.5515Y-1.7633
X7.5515Y-1.8633
X7.5515Y-1.9633
X7.5713Y-4.0765
X7.5713Y-4.1765
X7.5713Y-4.2765
X7.5713Y-4.3765
X7.8515Y-1.6633
X7.8515Y-1.7633
X7.8515Y-1.8633
X7.8515Y-1.9633
X7.8713Y-4.0765
X7.8713Y-4.1765
X7.8713Y-4.2765
X7.8713Y-4.3765
T3
X4.4Y-2.675
X4.4Y-3.2656
X4.9906Y-2.8719
X4.9906Y-3.0687
T4
X4.137Y-4.488
X4.137Y-4.588
X4.237Y-4.488
X4.237Y-4.588
X4.337Y-4.488
X4.337Y-4.588
X4.437Y-4.488
X4.437Y-4.588
X5.3538Y-2.925
X5.3538Y-3.025
T5
X4.676Y-4.5621
X4.68Y-1.478
X4.776Y-4.5621
X4.78Y-1.478
X5.0583Y-1.4799
X5.1036Y-4.5619
X5.1583Y-1.4799
X5.2036Y-4.5619
X5.4898Y-1.4812
X5.5316Y-4.5619
X5.5898Y-1.4812
X5.6316Y-4.5619
X5.9218Y-1.4832
X5.9596Y-4.5619
X6.0218Y-1.4832
X6.0596Y-4.5619
X6.3538Y-1.4812
X6.3876Y-4.5619
X6.4538Y-1.4812
X6.4876Y-4.5619
X6.7858Y-1.4812
X6.8156Y-4.5619
X6.8858Y-1.4812
X6.9156Y-4.5619
X7.2178Y-1.4812
X7.2416Y-4.5619
X7.3178Y-1.4812
X7.3416Y-4.5619
X7.6498Y-1.4812
X7.6696Y-4.5619
X7.7498Y-1.4812
X7.7696Y-4.5619
T6
X4.2Y-1.5
X4.4Y-1.5
T0
M30
