%TF.GenerationSoftware,KiCad,Pcbnew,(7.0.0-0)*%
%TF.CreationDate,2023-02-28T14:48:18+01:00*%
%TF.ProjectId,epanel-energy-monitor,6570616e-656c-42d6-956e-657267792d6d,rev?*%
%TF.SameCoordinates,Original*%
%TF.FileFunction,Paste,Top*%
%TF.FilePolarity,Positive*%
%FSLAX46Y46*%
G04 Gerber Fmt 4.6, Leading zero omitted, Abs format (unit mm)*
G04 Created by KiCad (PCBNEW (7.0.0-0)) date 2023-02-28 14:48:18*
%MOMM*%
%LPD*%
G01*
G04 APERTURE LIST*
G04 Aperture macros list*
%AMRoundRect*
0 Rectangle with rounded corners*
0 $1 Rounding radius*
0 $2 $3 $4 $5 $6 $7 $8 $9 X,Y pos of 4 corners*
0 Add a 4 corners polygon primitive as box body*
4,1,4,$2,$3,$4,$5,$6,$7,$8,$9,$2,$3,0*
0 Add four circle primitives for the rounded corners*
1,1,$1+$1,$2,$3*
1,1,$1+$1,$4,$5*
1,1,$1+$1,$6,$7*
1,1,$1+$1,$8,$9*
0 Add four rect primitives between the rounded corners*
20,1,$1+$1,$2,$3,$4,$5,0*
20,1,$1+$1,$4,$5,$6,$7,0*
20,1,$1+$1,$6,$7,$8,$9,0*
20,1,$1+$1,$8,$9,$2,$3,0*%
G04 Aperture macros list end*
%ADD10RoundRect,0.250000X0.262500X0.450000X-0.262500X0.450000X-0.262500X-0.450000X0.262500X-0.450000X0*%
%ADD11RoundRect,0.250000X-0.262500X-0.450000X0.262500X-0.450000X0.262500X0.450000X-0.262500X0.450000X0*%
%ADD12RoundRect,0.200000X0.200000X0.275000X-0.200000X0.275000X-0.200000X-0.275000X0.200000X-0.275000X0*%
%ADD13RoundRect,0.200000X-0.200000X-0.275000X0.200000X-0.275000X0.200000X0.275000X-0.200000X0.275000X0*%
%ADD14RoundRect,0.243750X0.243750X0.456250X-0.243750X0.456250X-0.243750X-0.456250X0.243750X-0.456250X0*%
%ADD15RoundRect,0.150000X0.150000X-0.825000X0.150000X0.825000X-0.150000X0.825000X-0.150000X-0.825000X0*%
%ADD16R,2.000000X1.780000*%
%ADD17RoundRect,0.150000X0.150000X-0.587500X0.150000X0.587500X-0.150000X0.587500X-0.150000X-0.587500X0*%
%ADD18RoundRect,0.150000X-0.512500X-0.150000X0.512500X-0.150000X0.512500X0.150000X-0.512500X0.150000X0*%
G04 APERTURE END LIST*
D10*
%TO.C,R74*%
X151931769Y-99970480D03*
X150106769Y-99970480D03*
%TD*%
D11*
%TO.C,R45*%
X186147889Y-53473789D03*
X187972889Y-53473789D03*
%TD*%
D10*
%TO.C,R48*%
X194535689Y-53473789D03*
X192710689Y-53473789D03*
%TD*%
D11*
%TO.C,R88*%
X175659169Y-99970480D03*
X177484169Y-99970480D03*
%TD*%
D10*
%TO.C,R92*%
X184494569Y-99970480D03*
X182669569Y-99970480D03*
%TD*%
D12*
%TO.C,R77*%
X166525469Y-92350480D03*
X164875469Y-92350480D03*
%TD*%
D10*
%TO.C,R18*%
X139671689Y-53473789D03*
X137846689Y-53473789D03*
%TD*%
%TO.C,R42*%
X183562889Y-53473789D03*
X181737889Y-53473789D03*
%TD*%
%TO.C,R55*%
X119327300Y-96164400D03*
X117502300Y-96164400D03*
%TD*%
%TO.C,R54*%
X119327300Y-92354400D03*
X117502300Y-92354400D03*
%TD*%
%TO.C,R67*%
X141060569Y-96160480D03*
X139235569Y-96160480D03*
%TD*%
%TO.C,R68*%
X141060569Y-99970480D03*
X139235569Y-99970480D03*
%TD*%
D11*
%TO.C,R81*%
X164787969Y-96160480D03*
X166612969Y-96160480D03*
%TD*%
D12*
%TO.C,R29*%
X165939789Y-60484189D03*
X164289789Y-60484189D03*
%TD*%
%TO.C,R11*%
X133033600Y-60452000D03*
X131383600Y-60452000D03*
%TD*%
%TO.C,R9*%
X143192000Y-75560000D03*
X141542000Y-75560000D03*
%TD*%
D13*
%TO.C,R6*%
X141542000Y-69850000D03*
X143192000Y-69850000D03*
%TD*%
D10*
%TO.C,R12*%
X128711100Y-53441600D03*
X126886100Y-53441600D03*
%TD*%
D12*
%TO.C,R59*%
X133911869Y-92350480D03*
X132261869Y-92350480D03*
%TD*%
%TO.C,R8*%
X143192000Y-77465000D03*
X141542000Y-77465000D03*
%TD*%
D11*
%TO.C,R27*%
X153229489Y-53524589D03*
X155054489Y-53524589D03*
%TD*%
D10*
%TO.C,R61*%
X130189369Y-96160480D03*
X128364369Y-96160480D03*
%TD*%
D12*
%TO.C,R3*%
X114490000Y-48895000D03*
X112840000Y-48895000D03*
%TD*%
D14*
%TO.C,D2*%
X120723900Y-43027600D03*
X118848900Y-43027600D03*
%TD*%
D12*
%TO.C,R89*%
X188217069Y-92350480D03*
X186567069Y-92350480D03*
%TD*%
D10*
%TO.C,R13*%
X128717500Y-56960000D03*
X126892500Y-56960000D03*
%TD*%
%TO.C,R30*%
X161617289Y-53473789D03*
X159792289Y-53473789D03*
%TD*%
%TO.C,R86*%
X173674169Y-99970480D03*
X171849169Y-99970480D03*
%TD*%
D15*
%TO.C,U2*%
X162560000Y-69150000D03*
X163830000Y-69150000D03*
X165100000Y-69150000D03*
X166370000Y-69150000D03*
X167640000Y-69150000D03*
X168910000Y-69150000D03*
X170180000Y-69150000D03*
X171450000Y-69150000D03*
X171450000Y-64200000D03*
X170180000Y-64200000D03*
X168910000Y-64200000D03*
X167640000Y-64200000D03*
X166370000Y-64200000D03*
X165100000Y-64200000D03*
X163830000Y-64200000D03*
X162560000Y-64200000D03*
%TD*%
D14*
%TO.C,D1*%
X106195100Y-108610400D03*
X104320100Y-108610400D03*
%TD*%
D13*
%TO.C,R10*%
X141542000Y-73655000D03*
X143192000Y-73655000D03*
%TD*%
D11*
%TO.C,R51*%
X197120689Y-53473789D03*
X198945689Y-53473789D03*
%TD*%
%TO.C,R69*%
X143045569Y-96160480D03*
X144870569Y-96160480D03*
%TD*%
D10*
%TO.C,R19*%
X139678089Y-56992189D03*
X137853089Y-56992189D03*
%TD*%
%TO.C,R96*%
X195365769Y-92350480D03*
X193540769Y-92350480D03*
%TD*%
D16*
%TO.C,U1*%
X104861399Y-52171599D03*
X104861399Y-54711599D03*
X114391399Y-54711599D03*
X114391399Y-52171599D03*
%TD*%
D12*
%TO.C,R83*%
X177396669Y-92350480D03*
X175746669Y-92350480D03*
%TD*%
D10*
%TO.C,R80*%
X162802969Y-99970480D03*
X160977969Y-99970480D03*
%TD*%
D17*
%TO.C,Q1*%
X119065000Y-53642500D03*
X120965000Y-53642500D03*
X120015000Y-51767500D03*
%TD*%
D12*
%TO.C,R65*%
X144783069Y-92350480D03*
X143133069Y-92350480D03*
%TD*%
D11*
%TO.C,R28*%
X153235889Y-57042989D03*
X155060889Y-57042989D03*
%TD*%
D12*
%TO.C,R7*%
X110680000Y-48895000D03*
X109030000Y-48895000D03*
%TD*%
D11*
%TO.C,R52*%
X197127089Y-56992189D03*
X198952089Y-56992189D03*
%TD*%
%TO.C,R57*%
X121312300Y-96164400D03*
X123137300Y-96164400D03*
%TD*%
%TO.C,R34*%
X164208689Y-56992189D03*
X166033689Y-56992189D03*
%TD*%
D12*
%TO.C,R95*%
X199088269Y-92350480D03*
X197438269Y-92350480D03*
%TD*%
D10*
%TO.C,R31*%
X161623689Y-56992189D03*
X159798689Y-56992189D03*
%TD*%
%TO.C,R79*%
X162802969Y-96160480D03*
X160977969Y-96160480D03*
%TD*%
D13*
%TO.C,R2*%
X116650000Y-48895000D03*
X118300000Y-48895000D03*
%TD*%
D11*
%TO.C,R87*%
X175659169Y-96160480D03*
X177484169Y-96160480D03*
%TD*%
D15*
%TO.C,U3*%
X162560000Y-79310000D03*
X163830000Y-79310000D03*
X165100000Y-79310000D03*
X166370000Y-79310000D03*
X167640000Y-79310000D03*
X168910000Y-79310000D03*
X170180000Y-79310000D03*
X171450000Y-79310000D03*
X171450000Y-74360000D03*
X170180000Y-74360000D03*
X168910000Y-74360000D03*
X167640000Y-74360000D03*
X166370000Y-74360000D03*
X165100000Y-74360000D03*
X163830000Y-74360000D03*
X162560000Y-74360000D03*
%TD*%
D12*
%TO.C,R41*%
X187885389Y-60484189D03*
X186235389Y-60484189D03*
%TD*%
%TO.C,R17*%
X143994189Y-60484189D03*
X142344189Y-60484189D03*
%TD*%
%TO.C,R5*%
X143192000Y-67945000D03*
X141542000Y-67945000D03*
%TD*%
%TO.C,R4*%
X120840000Y-55880000D03*
X119190000Y-55880000D03*
%TD*%
D11*
%TO.C,R93*%
X186479569Y-96160480D03*
X188304569Y-96160480D03*
%TD*%
D10*
%TO.C,R14*%
X128717500Y-60452000D03*
X126892500Y-60452000D03*
%TD*%
%TO.C,R97*%
X195365769Y-96160480D03*
X193540769Y-96160480D03*
%TD*%
%TO.C,R56*%
X119327300Y-99974400D03*
X117502300Y-99974400D03*
%TD*%
%TO.C,R72*%
X151931769Y-92350480D03*
X150106769Y-92350480D03*
%TD*%
D11*
%TO.C,R22*%
X142263089Y-56992189D03*
X144088089Y-56992189D03*
%TD*%
D10*
%TO.C,R37*%
X172596489Y-56992189D03*
X170771489Y-56992189D03*
%TD*%
%TO.C,R91*%
X184494569Y-96160480D03*
X182669569Y-96160480D03*
%TD*%
%TO.C,R38*%
X172596489Y-60484189D03*
X170771489Y-60484189D03*
%TD*%
%TO.C,R60*%
X130189369Y-92350480D03*
X128364369Y-92350480D03*
%TD*%
%TO.C,R26*%
X150650889Y-60534989D03*
X148825889Y-60534989D03*
%TD*%
D11*
%TO.C,R46*%
X186154289Y-56992189D03*
X187979289Y-56992189D03*
%TD*%
%TO.C,R40*%
X175181489Y-56992189D03*
X177006489Y-56992189D03*
%TD*%
D10*
%TO.C,R85*%
X173674169Y-96160480D03*
X171849169Y-96160480D03*
%TD*%
D11*
%TO.C,R15*%
X131296100Y-53441600D03*
X133121100Y-53441600D03*
%TD*%
%TO.C,R63*%
X132174369Y-96160480D03*
X133999369Y-96160480D03*
%TD*%
D10*
%TO.C,R20*%
X139678089Y-60484189D03*
X137853089Y-60484189D03*
%TD*%
D12*
%TO.C,C1*%
X143192000Y-71755000D03*
X141542000Y-71755000D03*
%TD*%
D10*
%TO.C,R49*%
X194542089Y-56992189D03*
X192717089Y-56992189D03*
%TD*%
D12*
%TO.C,R47*%
X198858189Y-60484189D03*
X197208189Y-60484189D03*
%TD*%
D11*
%TO.C,R58*%
X121312300Y-99974400D03*
X123137300Y-99974400D03*
%TD*%
%TO.C,R76*%
X153916769Y-99970480D03*
X155741769Y-99970480D03*
%TD*%
D10*
%TO.C,R66*%
X141060569Y-92350480D03*
X139235569Y-92350480D03*
%TD*%
%TO.C,R78*%
X162802969Y-92350480D03*
X160977969Y-92350480D03*
%TD*%
D11*
%TO.C,R70*%
X143045569Y-99970480D03*
X144870569Y-99970480D03*
%TD*%
%TO.C,R100*%
X197350769Y-99970480D03*
X199175769Y-99970480D03*
%TD*%
D10*
%TO.C,R25*%
X150650889Y-57042989D03*
X148825889Y-57042989D03*
%TD*%
%TO.C,R73*%
X151931769Y-96160480D03*
X150106769Y-96160480D03*
%TD*%
D11*
%TO.C,R94*%
X186479569Y-99970480D03*
X188304569Y-99970480D03*
%TD*%
D10*
%TO.C,R62*%
X130189369Y-99970480D03*
X128364369Y-99970480D03*
%TD*%
%TO.C,R32*%
X161623689Y-60484189D03*
X159798689Y-60484189D03*
%TD*%
%TO.C,R98*%
X195365769Y-99970480D03*
X193540769Y-99970480D03*
%TD*%
D12*
%TO.C,R1*%
X109740200Y-108610400D03*
X108090200Y-108610400D03*
%TD*%
D11*
%TO.C,R33*%
X164202289Y-53473789D03*
X166027289Y-53473789D03*
%TD*%
%TO.C,R39*%
X175175089Y-53473789D03*
X177000089Y-53473789D03*
%TD*%
D10*
%TO.C,R90*%
X184494569Y-92350480D03*
X182669569Y-92350480D03*
%TD*%
%TO.C,R50*%
X194542089Y-60484189D03*
X192717089Y-60484189D03*
%TD*%
%TO.C,R84*%
X173674169Y-92350480D03*
X171849169Y-92350480D03*
%TD*%
D11*
%TO.C,R99*%
X197350769Y-96160480D03*
X199175769Y-96160480D03*
%TD*%
%TO.C,R64*%
X132174369Y-99970480D03*
X133999369Y-99970480D03*
%TD*%
D10*
%TO.C,R44*%
X183569289Y-60484189D03*
X181744289Y-60484189D03*
%TD*%
D11*
%TO.C,R82*%
X164787969Y-99970480D03*
X166612969Y-99970480D03*
%TD*%
D12*
%TO.C,R53*%
X123049800Y-92354400D03*
X121399800Y-92354400D03*
%TD*%
D11*
%TO.C,R21*%
X142256689Y-53473789D03*
X144081689Y-53473789D03*
%TD*%
D10*
%TO.C,R43*%
X183569289Y-56992189D03*
X181744289Y-56992189D03*
%TD*%
%TO.C,R36*%
X172590089Y-53473789D03*
X170765089Y-53473789D03*
%TD*%
D11*
%TO.C,R16*%
X131302500Y-56960000D03*
X133127500Y-56960000D03*
%TD*%
D12*
%TO.C,R71*%
X155654269Y-92350480D03*
X154004269Y-92350480D03*
%TD*%
D11*
%TO.C,R75*%
X153916769Y-96160480D03*
X155741769Y-96160480D03*
%TD*%
D18*
%TO.C,U4*%
X134752500Y-67630000D03*
X134752500Y-68580000D03*
X134752500Y-69530000D03*
X137027500Y-69530000D03*
X137027500Y-67630000D03*
%TD*%
D12*
%TO.C,R23*%
X154966989Y-60534989D03*
X153316989Y-60534989D03*
%TD*%
D10*
%TO.C,R24*%
X150644489Y-53524589D03*
X148819489Y-53524589D03*
%TD*%
D12*
%TO.C,R35*%
X176912589Y-60484189D03*
X175262589Y-60484189D03*
%TD*%
M02*
