%FSLAX45Y45*%
G04 Gerber Fmt 4.5, Leading zero omitted, Abs format (unit mm)*
G04 Created by KiCad (PCBNEW (6.0.0-0)) date 2022-10-12 14:45:19*
%MOMM*%
%LPD*%
G01*
G04 APERTURE LIST*
%TA.AperFunction,Profile*%
%ADD10C,0.100000*%
%TD*%
%ADD11C,0.200000*%
%ADD12C,0.040000*%
%ADD13C,0.076000*%
%ADD14C,0.080000*%
%ADD15C,0.100000*%
%ADD16C,0.152000*%
G04 APERTURE END LIST*
D10*
X10636000Y-5080000D02*
X19336000Y-5080000D01*
X10636000Y-11880000D02*
X10636000Y-5080000D01*
X19336000Y-11880000D02*
X19336000Y-5080000D01*
X10636000Y-11880000D02*
X19336000Y-11880000D01*
D11*
D12*
X15537500Y-6520500D02*
X15577500Y-6560500D01*
X15577500Y-6520500D02*
X15537500Y-6560500D01*
X15855000Y-10584500D02*
X15895000Y-10624500D01*
X15895000Y-10584500D02*
X15855000Y-10624500D01*
X16045500Y-5314000D02*
X16085500Y-5354000D01*
X16085500Y-5314000D02*
X16045500Y-5354000D01*
X16363000Y-6584000D02*
X16403000Y-6624000D01*
X16403000Y-6584000D02*
X16363000Y-6624000D01*
X16617000Y-7473000D02*
X16657000Y-7513000D01*
X16657000Y-7473000D02*
X16617000Y-7513000D01*
X17315500Y-7600000D02*
X17355500Y-7640000D01*
X17355500Y-7600000D02*
X17315500Y-7640000D01*
X17696500Y-8933500D02*
X17736500Y-8973500D01*
X17736500Y-8933500D02*
X17696500Y-8973500D01*
D13*
X14579500Y-6081750D02*
G75*
G03*
X14579500Y-6081750I-38000J0D01*
G01*
X15087500Y-6081750D02*
G75*
G03*
X15087500Y-6081750I-38000J0D01*
G01*
X15087500Y-7859750D02*
G75*
G03*
X15087500Y-7859750I-38000J0D01*
G01*
D14*
X12001500Y-7819750D02*
X12001500Y-7899750D01*
X11961500Y-7859750D02*
X12041500Y-7859750D01*
X12509500Y-7819750D02*
X12509500Y-7899750D01*
X12469500Y-7859750D02*
X12549500Y-7859750D01*
D15*
X13674856Y-8984856D02*
X13674856Y-8914144D01*
X13604144Y-8914144D01*
X13604144Y-8984856D01*
X13674856Y-8984856D01*
X13674856Y-11524856D02*
X13674856Y-11454144D01*
X13604144Y-11454144D01*
X13604144Y-11524856D01*
X13674856Y-11524856D01*
X13928856Y-8984856D02*
X13928856Y-8914144D01*
X13858144Y-8914144D01*
X13858144Y-8984856D01*
X13928856Y-8984856D01*
X13928856Y-11524856D02*
X13928856Y-11454144D01*
X13858144Y-11454144D01*
X13858144Y-11524856D01*
X13928856Y-11524856D01*
X14182856Y-8984856D02*
X14182856Y-8914144D01*
X14112144Y-8914144D01*
X14112144Y-8984856D01*
X14182856Y-8984856D01*
X14182856Y-11524856D02*
X14182856Y-11454144D01*
X14112144Y-11454144D01*
X14112144Y-11524856D01*
X14182856Y-11524856D01*
X14436856Y-8984856D02*
X14436856Y-8914144D01*
X14366144Y-8914144D01*
X14366144Y-8984856D01*
X14436856Y-8984856D01*
X14436856Y-11524856D02*
X14436856Y-11454144D01*
X14366144Y-11454144D01*
X14366144Y-11524856D01*
X14436856Y-11524856D01*
X14690856Y-8984856D02*
X14690856Y-8914144D01*
X14620144Y-8914144D01*
X14620144Y-8984856D01*
X14690856Y-8984856D01*
X14690856Y-11524856D02*
X14690856Y-11454144D01*
X14620144Y-11454144D01*
X14620144Y-11524856D01*
X14690856Y-11524856D01*
X14944856Y-8984856D02*
X14944856Y-8914144D01*
X14874144Y-8914144D01*
X14874144Y-8984856D01*
X14944856Y-8984856D01*
X14944856Y-11524856D02*
X14944856Y-11454144D01*
X14874144Y-11454144D01*
X14874144Y-11524856D01*
X14944856Y-11524856D01*
X15198856Y-8984856D02*
X15198856Y-8914144D01*
X15128144Y-8914144D01*
X15128144Y-8984856D01*
X15198856Y-8984856D01*
X15198856Y-11524856D02*
X15198856Y-11454144D01*
X15128144Y-11454144D01*
X15128144Y-11524856D01*
X15198856Y-11524856D01*
X15452856Y-8984856D02*
X15452856Y-8914144D01*
X15382144Y-8914144D01*
X15382144Y-8984856D01*
X15452856Y-8984856D01*
X15452856Y-11524856D02*
X15452856Y-11454144D01*
X15382144Y-11454144D01*
X15382144Y-11524856D01*
X15452856Y-11524856D01*
X15656356Y-5369356D02*
X15656356Y-5298644D01*
X15585644Y-5298644D01*
X15585644Y-5369356D01*
X15656356Y-5369356D01*
X15706856Y-8984856D02*
X15706856Y-8914144D01*
X15636144Y-8914144D01*
X15636144Y-8984856D01*
X15706856Y-8984856D01*
X15706856Y-11524856D02*
X15706856Y-11454144D01*
X15636144Y-11454144D01*
X15636144Y-11524856D01*
X15706856Y-11524856D01*
X15783356Y-6893356D02*
X15783356Y-6822644D01*
X15712644Y-6822644D01*
X15712644Y-6893356D01*
X15783356Y-6893356D01*
X15960856Y-8984856D02*
X15960856Y-8914144D01*
X15890144Y-8914144D01*
X15890144Y-8984856D01*
X15960856Y-8984856D01*
X15960856Y-11524856D02*
X15960856Y-11454144D01*
X15890144Y-11454144D01*
X15890144Y-11524856D01*
X15960856Y-11524856D01*
X16291356Y-6893356D02*
X16291356Y-6822644D01*
X16220644Y-6822644D01*
X16220644Y-6893356D01*
X16291356Y-6893356D01*
X16799356Y-5496356D02*
X16799356Y-5425644D01*
X16728644Y-5425644D01*
X16728644Y-5496356D01*
X16799356Y-5496356D01*
X16799356Y-5750356D02*
X16799356Y-5679644D01*
X16728644Y-5679644D01*
X16728644Y-5750356D01*
X16799356Y-5750356D01*
X16799356Y-6004356D02*
X16799356Y-5933644D01*
X16728644Y-5933644D01*
X16728644Y-6004356D01*
X16799356Y-6004356D01*
X16799356Y-6258356D02*
X16799356Y-6187644D01*
X16728644Y-6187644D01*
X16728644Y-6258356D01*
X16799356Y-6258356D01*
X16799356Y-6512356D02*
X16799356Y-6441644D01*
X16728644Y-6441644D01*
X16728644Y-6512356D01*
X16799356Y-6512356D01*
X17053356Y-5496356D02*
X17053356Y-5425644D01*
X16982644Y-5425644D01*
X16982644Y-5496356D01*
X17053356Y-5496356D01*
X17053356Y-5750356D02*
X17053356Y-5679644D01*
X16982644Y-5679644D01*
X16982644Y-5750356D01*
X17053356Y-5750356D01*
X17053356Y-6004356D02*
X17053356Y-5933644D01*
X16982644Y-5933644D01*
X16982644Y-6004356D01*
X17053356Y-6004356D01*
X17053356Y-6258356D02*
X17053356Y-6187644D01*
X16982644Y-6187644D01*
X16982644Y-6258356D01*
X17053356Y-6258356D01*
X17053356Y-6512356D02*
X17053356Y-6441644D01*
X16982644Y-6441644D01*
X16982644Y-6512356D01*
X17053356Y-6512356D01*
X17053356Y-7148856D02*
X17053356Y-7078144D01*
X16982644Y-7078144D01*
X16982644Y-7148856D01*
X17053356Y-7148856D01*
X17053356Y-7402856D02*
X17053356Y-7332144D01*
X16982644Y-7332144D01*
X16982644Y-7402856D01*
X17053356Y-7402856D01*
X17053356Y-7656856D02*
X17053356Y-7586144D01*
X16982644Y-7586144D01*
X16982644Y-7656856D01*
X17053356Y-7656856D01*
X17688356Y-7146856D02*
X17688356Y-7076144D01*
X17617644Y-7076144D01*
X17617644Y-7146856D01*
X17688356Y-7146856D01*
X17688356Y-7400856D02*
X17688356Y-7330144D01*
X17617644Y-7330144D01*
X17617644Y-7400856D01*
X17688356Y-7400856D01*
X18005856Y-8290356D02*
X18005856Y-8219644D01*
X17935144Y-8219644D01*
X17935144Y-8290356D01*
X18005856Y-8290356D01*
X18005856Y-8544356D02*
X18005856Y-8473644D01*
X17935144Y-8473644D01*
X17935144Y-8544356D01*
X18005856Y-8544356D01*
X18259856Y-8290356D02*
X18259856Y-8219644D01*
X18189144Y-8219644D01*
X18189144Y-8290356D01*
X18259856Y-8290356D01*
X18259856Y-8544356D02*
X18259856Y-8473644D01*
X18189144Y-8473644D01*
X18189144Y-8544356D01*
X18259856Y-8544356D01*
X18513856Y-8290356D02*
X18513856Y-8219644D01*
X18443144Y-8219644D01*
X18443144Y-8290356D01*
X18513856Y-8290356D01*
X18513856Y-8544356D02*
X18513856Y-8473644D01*
X18443144Y-8473644D01*
X18443144Y-8544356D01*
X18513856Y-8544356D01*
X18767856Y-8290356D02*
X18767856Y-8219644D01*
X18697144Y-8219644D01*
X18697144Y-8290356D01*
X18767856Y-8290356D01*
X18767856Y-8544356D02*
X18767856Y-8473644D01*
X18697144Y-8473644D01*
X18697144Y-8544356D01*
X18767856Y-8544356D01*
X19021856Y-8290356D02*
X19021856Y-8219644D01*
X18951144Y-8219644D01*
X18951144Y-8290356D01*
X19021856Y-8290356D01*
X19021856Y-8544356D02*
X19021856Y-8473644D01*
X18951144Y-8473644D01*
X18951144Y-8544356D01*
X19021856Y-8544356D01*
D16*
X11162500Y-5664000D02*
X11238500Y-5588000D01*
X11162500Y-5512000D01*
X11086500Y-5588000D01*
X11162500Y-5664000D01*
X11162500Y-6172000D02*
X11238500Y-6096000D01*
X11162500Y-6020000D01*
X11086500Y-6096000D01*
X11162500Y-6172000D01*
X18796000Y-5791000D02*
X18872000Y-5715000D01*
X18796000Y-5639000D01*
X18720000Y-5715000D01*
X18796000Y-5791000D01*
X18796000Y-6299000D02*
X18872000Y-6223000D01*
X18796000Y-6147000D01*
X18720000Y-6223000D01*
X18796000Y-6299000D01*
D11*
X10888619Y-12195476D02*
X10888619Y-11995476D01*
X10936238Y-11995476D01*
X10964810Y-12005000D01*
X10983857Y-12024048D01*
X10993381Y-12043095D01*
X11002905Y-12081190D01*
X11002905Y-12109762D01*
X10993381Y-12147857D01*
X10983857Y-12166905D01*
X10964810Y-12185952D01*
X10936238Y-12195476D01*
X10888619Y-12195476D01*
X11088619Y-12195476D02*
X11088619Y-12062143D01*
X11088619Y-12100238D02*
X11098143Y-12081190D01*
X11107667Y-12071667D01*
X11126714Y-12062143D01*
X11145762Y-12062143D01*
X11212428Y-12195476D02*
X11212428Y-12062143D01*
X11212428Y-11995476D02*
X11202905Y-12005000D01*
X11212428Y-12014524D01*
X11221952Y-12005000D01*
X11212428Y-11995476D01*
X11212428Y-12014524D01*
X11336238Y-12195476D02*
X11317190Y-12185952D01*
X11307667Y-12166905D01*
X11307667Y-11995476D01*
X11441000Y-12195476D02*
X11421952Y-12185952D01*
X11412428Y-12166905D01*
X11412428Y-11995476D01*
X11669571Y-12195476D02*
X11669571Y-11995476D01*
X11736238Y-12138333D01*
X11802905Y-11995476D01*
X11802905Y-12195476D01*
X11983857Y-12195476D02*
X11983857Y-12090714D01*
X11974333Y-12071667D01*
X11955286Y-12062143D01*
X11917190Y-12062143D01*
X11898143Y-12071667D01*
X11983857Y-12185952D02*
X11964809Y-12195476D01*
X11917190Y-12195476D01*
X11898143Y-12185952D01*
X11888619Y-12166905D01*
X11888619Y-12147857D01*
X11898143Y-12128809D01*
X11917190Y-12119286D01*
X11964809Y-12119286D01*
X11983857Y-12109762D01*
X12079095Y-12062143D02*
X12079095Y-12262143D01*
X12079095Y-12071667D02*
X12098143Y-12062143D01*
X12136238Y-12062143D01*
X12155286Y-12071667D01*
X12164809Y-12081190D01*
X12174333Y-12100238D01*
X12174333Y-12157381D01*
X12164809Y-12176428D01*
X12155286Y-12185952D01*
X12136238Y-12195476D01*
X12098143Y-12195476D01*
X12079095Y-12185952D01*
X12260048Y-12176428D02*
X12269571Y-12185952D01*
X12260048Y-12195476D01*
X12250524Y-12185952D01*
X12260048Y-12176428D01*
X12260048Y-12195476D01*
X12260048Y-12071667D02*
X12269571Y-12081190D01*
X12260048Y-12090714D01*
X12250524Y-12081190D01*
X12260048Y-12071667D01*
X12260048Y-12090714D01*
D12*
X10591000Y-12505000D02*
X10631000Y-12545000D01*
X10631000Y-12505000D02*
X10591000Y-12545000D01*
D11*
X10926714Y-12415476D02*
X10945762Y-12415476D01*
X10964810Y-12425000D01*
X10974333Y-12434524D01*
X10983857Y-12453571D01*
X10993381Y-12491667D01*
X10993381Y-12539286D01*
X10983857Y-12577381D01*
X10974333Y-12596428D01*
X10964810Y-12605952D01*
X10945762Y-12615476D01*
X10926714Y-12615476D01*
X10907667Y-12605952D01*
X10898143Y-12596428D01*
X10888619Y-12577381D01*
X10879095Y-12539286D01*
X10879095Y-12491667D01*
X10888619Y-12453571D01*
X10898143Y-12434524D01*
X10907667Y-12425000D01*
X10926714Y-12415476D01*
X11079095Y-12596428D02*
X11088619Y-12605952D01*
X11079095Y-12615476D01*
X11069571Y-12605952D01*
X11079095Y-12596428D01*
X11079095Y-12615476D01*
X11260048Y-12482143D02*
X11260048Y-12615476D01*
X11212428Y-12405952D02*
X11164810Y-12548809D01*
X11288619Y-12548809D01*
X11402905Y-12415476D02*
X11421952Y-12415476D01*
X11441000Y-12425000D01*
X11450524Y-12434524D01*
X11460048Y-12453571D01*
X11469571Y-12491667D01*
X11469571Y-12539286D01*
X11460048Y-12577381D01*
X11450524Y-12596428D01*
X11441000Y-12605952D01*
X11421952Y-12615476D01*
X11402905Y-12615476D01*
X11383857Y-12605952D01*
X11374333Y-12596428D01*
X11364809Y-12577381D01*
X11355286Y-12539286D01*
X11355286Y-12491667D01*
X11364809Y-12453571D01*
X11374333Y-12434524D01*
X11383857Y-12425000D01*
X11402905Y-12415476D01*
X11593381Y-12415476D02*
X11612428Y-12415476D01*
X11631476Y-12425000D01*
X11641000Y-12434524D01*
X11650524Y-12453571D01*
X11660048Y-12491667D01*
X11660048Y-12539286D01*
X11650524Y-12577381D01*
X11641000Y-12596428D01*
X11631476Y-12605952D01*
X11612428Y-12615476D01*
X11593381Y-12615476D01*
X11574333Y-12605952D01*
X11564809Y-12596428D01*
X11555286Y-12577381D01*
X11545762Y-12539286D01*
X11545762Y-12491667D01*
X11555286Y-12453571D01*
X11564809Y-12434524D01*
X11574333Y-12425000D01*
X11593381Y-12415476D01*
X11745762Y-12615476D02*
X11745762Y-12482143D01*
X11745762Y-12501190D02*
X11755286Y-12491667D01*
X11774333Y-12482143D01*
X11802905Y-12482143D01*
X11821952Y-12491667D01*
X11831476Y-12510714D01*
X11831476Y-12615476D01*
X11831476Y-12510714D02*
X11841000Y-12491667D01*
X11860048Y-12482143D01*
X11888619Y-12482143D01*
X11907667Y-12491667D01*
X11917190Y-12510714D01*
X11917190Y-12615476D01*
X12012428Y-12615476D02*
X12012428Y-12482143D01*
X12012428Y-12501190D02*
X12021952Y-12491667D01*
X12041000Y-12482143D01*
X12069571Y-12482143D01*
X12088619Y-12491667D01*
X12098143Y-12510714D01*
X12098143Y-12615476D01*
X12098143Y-12510714D02*
X12107667Y-12491667D01*
X12126714Y-12482143D01*
X12155286Y-12482143D01*
X12174333Y-12491667D01*
X12183857Y-12510714D01*
X12183857Y-12615476D01*
X12574333Y-12405952D02*
X12402905Y-12663095D01*
X12831476Y-12415476D02*
X12850524Y-12415476D01*
X12869571Y-12425000D01*
X12879095Y-12434524D01*
X12888619Y-12453571D01*
X12898143Y-12491667D01*
X12898143Y-12539286D01*
X12888619Y-12577381D01*
X12879095Y-12596428D01*
X12869571Y-12605952D01*
X12850524Y-12615476D01*
X12831476Y-12615476D01*
X12812428Y-12605952D01*
X12802905Y-12596428D01*
X12793381Y-12577381D01*
X12783857Y-12539286D01*
X12783857Y-12491667D01*
X12793381Y-12453571D01*
X12802905Y-12434524D01*
X12812428Y-12425000D01*
X12831476Y-12415476D01*
X12983857Y-12596428D02*
X12993381Y-12605952D01*
X12983857Y-12615476D01*
X12974333Y-12605952D01*
X12983857Y-12596428D01*
X12983857Y-12615476D01*
X13117190Y-12415476D02*
X13136238Y-12415476D01*
X13155286Y-12425000D01*
X13164809Y-12434524D01*
X13174333Y-12453571D01*
X13183857Y-12491667D01*
X13183857Y-12539286D01*
X13174333Y-12577381D01*
X13164809Y-12596428D01*
X13155286Y-12605952D01*
X13136238Y-12615476D01*
X13117190Y-12615476D01*
X13098143Y-12605952D01*
X13088619Y-12596428D01*
X13079095Y-12577381D01*
X13069571Y-12539286D01*
X13069571Y-12491667D01*
X13079095Y-12453571D01*
X13088619Y-12434524D01*
X13098143Y-12425000D01*
X13117190Y-12415476D01*
X13374333Y-12615476D02*
X13260048Y-12615476D01*
X13317190Y-12615476D02*
X13317190Y-12415476D01*
X13298143Y-12444048D01*
X13279095Y-12463095D01*
X13260048Y-12472619D01*
X13555286Y-12415476D02*
X13460048Y-12415476D01*
X13450524Y-12510714D01*
X13460048Y-12501190D01*
X13479095Y-12491667D01*
X13526714Y-12491667D01*
X13545762Y-12501190D01*
X13555286Y-12510714D01*
X13564809Y-12529762D01*
X13564809Y-12577381D01*
X13555286Y-12596428D01*
X13545762Y-12605952D01*
X13526714Y-12615476D01*
X13479095Y-12615476D01*
X13460048Y-12605952D01*
X13450524Y-12596428D01*
X13631476Y-12415476D02*
X13764809Y-12415476D01*
X13679095Y-12615476D01*
X13831476Y-12415476D02*
X13831476Y-12453571D01*
X13907667Y-12415476D02*
X13907667Y-12453571D01*
X14202905Y-12691667D02*
X14193381Y-12682143D01*
X14174333Y-12653571D01*
X14164809Y-12634524D01*
X14155286Y-12605952D01*
X14145762Y-12558333D01*
X14145762Y-12520238D01*
X14155286Y-12472619D01*
X14164809Y-12444048D01*
X14174333Y-12425000D01*
X14193381Y-12396428D01*
X14202905Y-12386905D01*
X14260048Y-12415476D02*
X14393381Y-12415476D01*
X14307667Y-12615476D01*
X14621952Y-12615476D02*
X14621952Y-12415476D01*
X14707667Y-12615476D02*
X14707667Y-12510714D01*
X14698143Y-12491667D01*
X14679095Y-12482143D01*
X14650524Y-12482143D01*
X14631476Y-12491667D01*
X14621952Y-12501190D01*
X14831476Y-12615476D02*
X14812428Y-12605952D01*
X14802905Y-12596428D01*
X14793381Y-12577381D01*
X14793381Y-12520238D01*
X14802905Y-12501190D01*
X14812428Y-12491667D01*
X14831476Y-12482143D01*
X14860048Y-12482143D01*
X14879095Y-12491667D01*
X14888619Y-12501190D01*
X14898143Y-12520238D01*
X14898143Y-12577381D01*
X14888619Y-12596428D01*
X14879095Y-12605952D01*
X14860048Y-12615476D01*
X14831476Y-12615476D01*
X15012428Y-12615476D02*
X14993381Y-12605952D01*
X14983857Y-12586905D01*
X14983857Y-12415476D01*
X15164809Y-12605952D02*
X15145762Y-12615476D01*
X15107667Y-12615476D01*
X15088619Y-12605952D01*
X15079095Y-12586905D01*
X15079095Y-12510714D01*
X15088619Y-12491667D01*
X15107667Y-12482143D01*
X15145762Y-12482143D01*
X15164809Y-12491667D01*
X15174333Y-12510714D01*
X15174333Y-12529762D01*
X15079095Y-12548809D01*
X15250524Y-12605952D02*
X15269571Y-12615476D01*
X15307667Y-12615476D01*
X15326714Y-12605952D01*
X15336238Y-12586905D01*
X15336238Y-12577381D01*
X15326714Y-12558333D01*
X15307667Y-12548809D01*
X15279095Y-12548809D01*
X15260048Y-12539286D01*
X15250524Y-12520238D01*
X15250524Y-12510714D01*
X15260048Y-12491667D01*
X15279095Y-12482143D01*
X15307667Y-12482143D01*
X15326714Y-12491667D01*
X15402905Y-12691667D02*
X15412428Y-12682143D01*
X15431476Y-12653571D01*
X15441000Y-12634524D01*
X15450524Y-12605952D01*
X15460048Y-12558333D01*
X15460048Y-12520238D01*
X15450524Y-12472619D01*
X15441000Y-12444048D01*
X15431476Y-12425000D01*
X15412428Y-12396428D01*
X15402905Y-12386905D01*
D13*
X10631000Y-12789000D02*
G75*
G03*
X10631000Y-12789000I-38000J0D01*
G01*
D11*
X10926714Y-12679476D02*
X10945762Y-12679476D01*
X10964810Y-12689000D01*
X10974333Y-12698524D01*
X10983857Y-12717571D01*
X10993381Y-12755667D01*
X10993381Y-12803286D01*
X10983857Y-12841381D01*
X10974333Y-12860428D01*
X10964810Y-12869952D01*
X10945762Y-12879476D01*
X10926714Y-12879476D01*
X10907667Y-12869952D01*
X10898143Y-12860428D01*
X10888619Y-12841381D01*
X10879095Y-12803286D01*
X10879095Y-12755667D01*
X10888619Y-12717571D01*
X10898143Y-12698524D01*
X10907667Y-12689000D01*
X10926714Y-12679476D01*
X11079095Y-12860428D02*
X11088619Y-12869952D01*
X11079095Y-12879476D01*
X11069571Y-12869952D01*
X11079095Y-12860428D01*
X11079095Y-12879476D01*
X11155286Y-12679476D02*
X11288619Y-12679476D01*
X11202905Y-12879476D01*
X11450524Y-12679476D02*
X11412428Y-12679476D01*
X11393381Y-12689000D01*
X11383857Y-12698524D01*
X11364809Y-12727095D01*
X11355286Y-12765190D01*
X11355286Y-12841381D01*
X11364809Y-12860428D01*
X11374333Y-12869952D01*
X11393381Y-12879476D01*
X11431476Y-12879476D01*
X11450524Y-12869952D01*
X11460048Y-12860428D01*
X11469571Y-12841381D01*
X11469571Y-12793762D01*
X11460048Y-12774714D01*
X11450524Y-12765190D01*
X11431476Y-12755667D01*
X11393381Y-12755667D01*
X11374333Y-12765190D01*
X11364809Y-12774714D01*
X11355286Y-12793762D01*
X11593381Y-12679476D02*
X11612428Y-12679476D01*
X11631476Y-12689000D01*
X11641000Y-12698524D01*
X11650524Y-12717571D01*
X11660048Y-12755667D01*
X11660048Y-12803286D01*
X11650524Y-12841381D01*
X11641000Y-12860428D01*
X11631476Y-12869952D01*
X11612428Y-12879476D01*
X11593381Y-12879476D01*
X11574333Y-12869952D01*
X11564809Y-12860428D01*
X11555286Y-12841381D01*
X11545762Y-12803286D01*
X11545762Y-12755667D01*
X11555286Y-12717571D01*
X11564809Y-12698524D01*
X11574333Y-12689000D01*
X11593381Y-12679476D01*
X11745762Y-12879476D02*
X11745762Y-12746143D01*
X11745762Y-12765190D02*
X11755286Y-12755667D01*
X11774333Y-12746143D01*
X11802905Y-12746143D01*
X11821952Y-12755667D01*
X11831476Y-12774714D01*
X11831476Y-12879476D01*
X11831476Y-12774714D02*
X11841000Y-12755667D01*
X11860048Y-12746143D01*
X11888619Y-12746143D01*
X11907667Y-12755667D01*
X11917190Y-12774714D01*
X11917190Y-12879476D01*
X12012428Y-12879476D02*
X12012428Y-12746143D01*
X12012428Y-12765190D02*
X12021952Y-12755667D01*
X12041000Y-12746143D01*
X12069571Y-12746143D01*
X12088619Y-12755667D01*
X12098143Y-12774714D01*
X12098143Y-12879476D01*
X12098143Y-12774714D02*
X12107667Y-12755667D01*
X12126714Y-12746143D01*
X12155286Y-12746143D01*
X12174333Y-12755667D01*
X12183857Y-12774714D01*
X12183857Y-12879476D01*
X12574333Y-12669952D02*
X12402905Y-12927095D01*
X12831476Y-12679476D02*
X12850524Y-12679476D01*
X12869571Y-12689000D01*
X12879095Y-12698524D01*
X12888619Y-12717571D01*
X12898143Y-12755667D01*
X12898143Y-12803286D01*
X12888619Y-12841381D01*
X12879095Y-12860428D01*
X12869571Y-12869952D01*
X12850524Y-12879476D01*
X12831476Y-12879476D01*
X12812428Y-12869952D01*
X12802905Y-12860428D01*
X12793381Y-12841381D01*
X12783857Y-12803286D01*
X12783857Y-12755667D01*
X12793381Y-12717571D01*
X12802905Y-12698524D01*
X12812428Y-12689000D01*
X12831476Y-12679476D01*
X12983857Y-12860428D02*
X12993381Y-12869952D01*
X12983857Y-12879476D01*
X12974333Y-12869952D01*
X12983857Y-12860428D01*
X12983857Y-12879476D01*
X13117190Y-12679476D02*
X13136238Y-12679476D01*
X13155286Y-12689000D01*
X13164809Y-12698524D01*
X13174333Y-12717571D01*
X13183857Y-12755667D01*
X13183857Y-12803286D01*
X13174333Y-12841381D01*
X13164809Y-12860428D01*
X13155286Y-12869952D01*
X13136238Y-12879476D01*
X13117190Y-12879476D01*
X13098143Y-12869952D01*
X13088619Y-12860428D01*
X13079095Y-12841381D01*
X13069571Y-12803286D01*
X13069571Y-12755667D01*
X13079095Y-12717571D01*
X13088619Y-12698524D01*
X13098143Y-12689000D01*
X13117190Y-12679476D01*
X13260048Y-12698524D02*
X13269571Y-12689000D01*
X13288619Y-12679476D01*
X13336238Y-12679476D01*
X13355286Y-12689000D01*
X13364809Y-12698524D01*
X13374333Y-12717571D01*
X13374333Y-12736619D01*
X13364809Y-12765190D01*
X13250524Y-12879476D01*
X13374333Y-12879476D01*
X13469571Y-12879476D02*
X13507667Y-12879476D01*
X13526714Y-12869952D01*
X13536238Y-12860428D01*
X13555286Y-12831857D01*
X13564809Y-12793762D01*
X13564809Y-12717571D01*
X13555286Y-12698524D01*
X13545762Y-12689000D01*
X13526714Y-12679476D01*
X13488619Y-12679476D01*
X13469571Y-12689000D01*
X13460048Y-12698524D01*
X13450524Y-12717571D01*
X13450524Y-12765190D01*
X13460048Y-12784238D01*
X13469571Y-12793762D01*
X13488619Y-12803286D01*
X13526714Y-12803286D01*
X13545762Y-12793762D01*
X13555286Y-12784238D01*
X13564809Y-12765190D01*
X13660048Y-12879476D02*
X13698143Y-12879476D01*
X13717190Y-12869952D01*
X13726714Y-12860428D01*
X13745762Y-12831857D01*
X13755286Y-12793762D01*
X13755286Y-12717571D01*
X13745762Y-12698524D01*
X13736238Y-12689000D01*
X13717190Y-12679476D01*
X13679095Y-12679476D01*
X13660048Y-12689000D01*
X13650524Y-12698524D01*
X13641000Y-12717571D01*
X13641000Y-12765190D01*
X13650524Y-12784238D01*
X13660048Y-12793762D01*
X13679095Y-12803286D01*
X13717190Y-12803286D01*
X13736238Y-12793762D01*
X13745762Y-12784238D01*
X13755286Y-12765190D01*
X13831476Y-12679476D02*
X13831476Y-12717571D01*
X13907667Y-12679476D02*
X13907667Y-12717571D01*
X14202905Y-12955667D02*
X14193381Y-12946143D01*
X14174333Y-12917571D01*
X14164809Y-12898524D01*
X14155286Y-12869952D01*
X14145762Y-12822333D01*
X14145762Y-12784238D01*
X14155286Y-12736619D01*
X14164809Y-12708048D01*
X14174333Y-12689000D01*
X14193381Y-12660428D01*
X14202905Y-12650905D01*
X14260048Y-12679476D02*
X14383857Y-12679476D01*
X14317190Y-12755667D01*
X14345762Y-12755667D01*
X14364809Y-12765190D01*
X14374333Y-12774714D01*
X14383857Y-12793762D01*
X14383857Y-12841381D01*
X14374333Y-12860428D01*
X14364809Y-12869952D01*
X14345762Y-12879476D01*
X14288619Y-12879476D01*
X14269571Y-12869952D01*
X14260048Y-12860428D01*
X14621952Y-12879476D02*
X14621952Y-12679476D01*
X14707667Y-12879476D02*
X14707667Y-12774714D01*
X14698143Y-12755667D01*
X14679095Y-12746143D01*
X14650524Y-12746143D01*
X14631476Y-12755667D01*
X14621952Y-12765190D01*
X14831476Y-12879476D02*
X14812428Y-12869952D01*
X14802905Y-12860428D01*
X14793381Y-12841381D01*
X14793381Y-12784238D01*
X14802905Y-12765190D01*
X14812428Y-12755667D01*
X14831476Y-12746143D01*
X14860048Y-12746143D01*
X14879095Y-12755667D01*
X14888619Y-12765190D01*
X14898143Y-12784238D01*
X14898143Y-12841381D01*
X14888619Y-12860428D01*
X14879095Y-12869952D01*
X14860048Y-12879476D01*
X14831476Y-12879476D01*
X15012428Y-12879476D02*
X14993381Y-12869952D01*
X14983857Y-12850905D01*
X14983857Y-12679476D01*
X15164809Y-12869952D02*
X15145762Y-12879476D01*
X15107667Y-12879476D01*
X15088619Y-12869952D01*
X15079095Y-12850905D01*
X15079095Y-12774714D01*
X15088619Y-12755667D01*
X15107667Y-12746143D01*
X15145762Y-12746143D01*
X15164809Y-12755667D01*
X15174333Y-12774714D01*
X15174333Y-12793762D01*
X15079095Y-12812809D01*
X15250524Y-12869952D02*
X15269571Y-12879476D01*
X15307667Y-12879476D01*
X15326714Y-12869952D01*
X15336238Y-12850905D01*
X15336238Y-12841381D01*
X15326714Y-12822333D01*
X15307667Y-12812809D01*
X15279095Y-12812809D01*
X15260048Y-12803286D01*
X15250524Y-12784238D01*
X15250524Y-12774714D01*
X15260048Y-12755667D01*
X15279095Y-12746143D01*
X15307667Y-12746143D01*
X15326714Y-12755667D01*
X15402905Y-12955667D02*
X15412428Y-12946143D01*
X15431476Y-12917571D01*
X15441000Y-12898524D01*
X15450524Y-12869952D01*
X15460048Y-12822333D01*
X15460048Y-12784238D01*
X15450524Y-12736619D01*
X15441000Y-12708048D01*
X15431476Y-12689000D01*
X15412428Y-12660428D01*
X15402905Y-12650905D01*
D14*
X10591000Y-13013000D02*
X10591000Y-13093000D01*
X10551000Y-13053000D02*
X10631000Y-13053000D01*
D11*
X10926714Y-12943476D02*
X10945762Y-12943476D01*
X10964810Y-12953000D01*
X10974333Y-12962524D01*
X10983857Y-12981571D01*
X10993381Y-13019667D01*
X10993381Y-13067286D01*
X10983857Y-13105381D01*
X10974333Y-13124428D01*
X10964810Y-13133952D01*
X10945762Y-13143476D01*
X10926714Y-13143476D01*
X10907667Y-13133952D01*
X10898143Y-13124428D01*
X10888619Y-13105381D01*
X10879095Y-13067286D01*
X10879095Y-13019667D01*
X10888619Y-12981571D01*
X10898143Y-12962524D01*
X10907667Y-12953000D01*
X10926714Y-12943476D01*
X11079095Y-13124428D02*
X11088619Y-13133952D01*
X11079095Y-13143476D01*
X11069571Y-13133952D01*
X11079095Y-13124428D01*
X11079095Y-13143476D01*
X11202905Y-13029190D02*
X11183857Y-13019667D01*
X11174333Y-13010143D01*
X11164810Y-12991095D01*
X11164810Y-12981571D01*
X11174333Y-12962524D01*
X11183857Y-12953000D01*
X11202905Y-12943476D01*
X11241000Y-12943476D01*
X11260048Y-12953000D01*
X11269571Y-12962524D01*
X11279095Y-12981571D01*
X11279095Y-12991095D01*
X11269571Y-13010143D01*
X11260048Y-13019667D01*
X11241000Y-13029190D01*
X11202905Y-13029190D01*
X11183857Y-13038714D01*
X11174333Y-13048238D01*
X11164810Y-13067286D01*
X11164810Y-13105381D01*
X11174333Y-13124428D01*
X11183857Y-13133952D01*
X11202905Y-13143476D01*
X11241000Y-13143476D01*
X11260048Y-13133952D01*
X11269571Y-13124428D01*
X11279095Y-13105381D01*
X11279095Y-13067286D01*
X11269571Y-13048238D01*
X11260048Y-13038714D01*
X11241000Y-13029190D01*
X11402905Y-12943476D02*
X11421952Y-12943476D01*
X11441000Y-12953000D01*
X11450524Y-12962524D01*
X11460048Y-12981571D01*
X11469571Y-13019667D01*
X11469571Y-13067286D01*
X11460048Y-13105381D01*
X11450524Y-13124428D01*
X11441000Y-13133952D01*
X11421952Y-13143476D01*
X11402905Y-13143476D01*
X11383857Y-13133952D01*
X11374333Y-13124428D01*
X11364809Y-13105381D01*
X11355286Y-13067286D01*
X11355286Y-13019667D01*
X11364809Y-12981571D01*
X11374333Y-12962524D01*
X11383857Y-12953000D01*
X11402905Y-12943476D01*
X11593381Y-12943476D02*
X11612428Y-12943476D01*
X11631476Y-12953000D01*
X11641000Y-12962524D01*
X11650524Y-12981571D01*
X11660048Y-13019667D01*
X11660048Y-13067286D01*
X11650524Y-13105381D01*
X11641000Y-13124428D01*
X11631476Y-13133952D01*
X11612428Y-13143476D01*
X11593381Y-13143476D01*
X11574333Y-13133952D01*
X11564809Y-13124428D01*
X11555286Y-13105381D01*
X11545762Y-13067286D01*
X11545762Y-13019667D01*
X11555286Y-12981571D01*
X11564809Y-12962524D01*
X11574333Y-12953000D01*
X11593381Y-12943476D01*
X11745762Y-13143476D02*
X11745762Y-13010143D01*
X11745762Y-13029190D02*
X11755286Y-13019667D01*
X11774333Y-13010143D01*
X11802905Y-13010143D01*
X11821952Y-13019667D01*
X11831476Y-13038714D01*
X11831476Y-13143476D01*
X11831476Y-13038714D02*
X11841000Y-13019667D01*
X11860048Y-13010143D01*
X11888619Y-13010143D01*
X11907667Y-13019667D01*
X11917190Y-13038714D01*
X11917190Y-13143476D01*
X12012428Y-13143476D02*
X12012428Y-13010143D01*
X12012428Y-13029190D02*
X12021952Y-13019667D01*
X12041000Y-13010143D01*
X12069571Y-13010143D01*
X12088619Y-13019667D01*
X12098143Y-13038714D01*
X12098143Y-13143476D01*
X12098143Y-13038714D02*
X12107667Y-13019667D01*
X12126714Y-13010143D01*
X12155286Y-13010143D01*
X12174333Y-13019667D01*
X12183857Y-13038714D01*
X12183857Y-13143476D01*
X12574333Y-12933952D02*
X12402905Y-13191095D01*
X12831476Y-12943476D02*
X12850524Y-12943476D01*
X12869571Y-12953000D01*
X12879095Y-12962524D01*
X12888619Y-12981571D01*
X12898143Y-13019667D01*
X12898143Y-13067286D01*
X12888619Y-13105381D01*
X12879095Y-13124428D01*
X12869571Y-13133952D01*
X12850524Y-13143476D01*
X12831476Y-13143476D01*
X12812428Y-13133952D01*
X12802905Y-13124428D01*
X12793381Y-13105381D01*
X12783857Y-13067286D01*
X12783857Y-13019667D01*
X12793381Y-12981571D01*
X12802905Y-12962524D01*
X12812428Y-12953000D01*
X12831476Y-12943476D01*
X12983857Y-13124428D02*
X12993381Y-13133952D01*
X12983857Y-13143476D01*
X12974333Y-13133952D01*
X12983857Y-13124428D01*
X12983857Y-13143476D01*
X13117190Y-12943476D02*
X13136238Y-12943476D01*
X13155286Y-12953000D01*
X13164809Y-12962524D01*
X13174333Y-12981571D01*
X13183857Y-13019667D01*
X13183857Y-13067286D01*
X13174333Y-13105381D01*
X13164809Y-13124428D01*
X13155286Y-13133952D01*
X13136238Y-13143476D01*
X13117190Y-13143476D01*
X13098143Y-13133952D01*
X13088619Y-13124428D01*
X13079095Y-13105381D01*
X13069571Y-13067286D01*
X13069571Y-13019667D01*
X13079095Y-12981571D01*
X13088619Y-12962524D01*
X13098143Y-12953000D01*
X13117190Y-12943476D01*
X13250524Y-12943476D02*
X13374333Y-12943476D01*
X13307667Y-13019667D01*
X13336238Y-13019667D01*
X13355286Y-13029190D01*
X13364809Y-13038714D01*
X13374333Y-13057762D01*
X13374333Y-13105381D01*
X13364809Y-13124428D01*
X13355286Y-13133952D01*
X13336238Y-13143476D01*
X13279095Y-13143476D01*
X13260048Y-13133952D01*
X13250524Y-13124428D01*
X13564809Y-13143476D02*
X13450524Y-13143476D01*
X13507667Y-13143476D02*
X13507667Y-12943476D01*
X13488619Y-12972048D01*
X13469571Y-12991095D01*
X13450524Y-13000619D01*
X13745762Y-12943476D02*
X13650524Y-12943476D01*
X13641000Y-13038714D01*
X13650524Y-13029190D01*
X13669571Y-13019667D01*
X13717190Y-13019667D01*
X13736238Y-13029190D01*
X13745762Y-13038714D01*
X13755286Y-13057762D01*
X13755286Y-13105381D01*
X13745762Y-13124428D01*
X13736238Y-13133952D01*
X13717190Y-13143476D01*
X13669571Y-13143476D01*
X13650524Y-13133952D01*
X13641000Y-13124428D01*
X13831476Y-12943476D02*
X13831476Y-12981571D01*
X13907667Y-12943476D02*
X13907667Y-12981571D01*
X14202905Y-13219667D02*
X14193381Y-13210143D01*
X14174333Y-13181571D01*
X14164809Y-13162524D01*
X14155286Y-13133952D01*
X14145762Y-13086333D01*
X14145762Y-13048238D01*
X14155286Y-13000619D01*
X14164809Y-12972048D01*
X14174333Y-12953000D01*
X14193381Y-12924428D01*
X14202905Y-12914905D01*
X14269571Y-12962524D02*
X14279095Y-12953000D01*
X14298143Y-12943476D01*
X14345762Y-12943476D01*
X14364809Y-12953000D01*
X14374333Y-12962524D01*
X14383857Y-12981571D01*
X14383857Y-13000619D01*
X14374333Y-13029190D01*
X14260048Y-13143476D01*
X14383857Y-13143476D01*
X14621952Y-13143476D02*
X14621952Y-12943476D01*
X14707667Y-13143476D02*
X14707667Y-13038714D01*
X14698143Y-13019667D01*
X14679095Y-13010143D01*
X14650524Y-13010143D01*
X14631476Y-13019667D01*
X14621952Y-13029190D01*
X14831476Y-13143476D02*
X14812428Y-13133952D01*
X14802905Y-13124428D01*
X14793381Y-13105381D01*
X14793381Y-13048238D01*
X14802905Y-13029190D01*
X14812428Y-13019667D01*
X14831476Y-13010143D01*
X14860048Y-13010143D01*
X14879095Y-13019667D01*
X14888619Y-13029190D01*
X14898143Y-13048238D01*
X14898143Y-13105381D01*
X14888619Y-13124428D01*
X14879095Y-13133952D01*
X14860048Y-13143476D01*
X14831476Y-13143476D01*
X15012428Y-13143476D02*
X14993381Y-13133952D01*
X14983857Y-13114905D01*
X14983857Y-12943476D01*
X15164809Y-13133952D02*
X15145762Y-13143476D01*
X15107667Y-13143476D01*
X15088619Y-13133952D01*
X15079095Y-13114905D01*
X15079095Y-13038714D01*
X15088619Y-13019667D01*
X15107667Y-13010143D01*
X15145762Y-13010143D01*
X15164809Y-13019667D01*
X15174333Y-13038714D01*
X15174333Y-13057762D01*
X15079095Y-13076809D01*
X15250524Y-13133952D02*
X15269571Y-13143476D01*
X15307667Y-13143476D01*
X15326714Y-13133952D01*
X15336238Y-13114905D01*
X15336238Y-13105381D01*
X15326714Y-13086333D01*
X15307667Y-13076809D01*
X15279095Y-13076809D01*
X15260048Y-13067286D01*
X15250524Y-13048238D01*
X15250524Y-13038714D01*
X15260048Y-13019667D01*
X15279095Y-13010143D01*
X15307667Y-13010143D01*
X15326714Y-13019667D01*
X15402905Y-13219667D02*
X15412428Y-13210143D01*
X15431476Y-13181571D01*
X15441000Y-13162524D01*
X15450524Y-13133952D01*
X15460048Y-13086333D01*
X15460048Y-13048238D01*
X15450524Y-13000619D01*
X15441000Y-12972048D01*
X15431476Y-12953000D01*
X15412428Y-12924428D01*
X15402905Y-12914905D01*
D15*
X10616356Y-13352356D02*
X10616356Y-13281644D01*
X10545644Y-13281644D01*
X10545644Y-13352356D01*
X10616356Y-13352356D01*
D11*
X10993381Y-13407476D02*
X10879095Y-13407476D01*
X10936238Y-13407476D02*
X10936238Y-13207476D01*
X10917190Y-13236048D01*
X10898143Y-13255095D01*
X10879095Y-13264619D01*
X11079095Y-13388428D02*
X11088619Y-13397952D01*
X11079095Y-13407476D01*
X11069571Y-13397952D01*
X11079095Y-13388428D01*
X11079095Y-13407476D01*
X11212428Y-13207476D02*
X11231476Y-13207476D01*
X11250524Y-13217000D01*
X11260048Y-13226524D01*
X11269571Y-13245571D01*
X11279095Y-13283667D01*
X11279095Y-13331286D01*
X11269571Y-13369381D01*
X11260048Y-13388428D01*
X11250524Y-13397952D01*
X11231476Y-13407476D01*
X11212428Y-13407476D01*
X11193381Y-13397952D01*
X11183857Y-13388428D01*
X11174333Y-13369381D01*
X11164810Y-13331286D01*
X11164810Y-13283667D01*
X11174333Y-13245571D01*
X11183857Y-13226524D01*
X11193381Y-13217000D01*
X11212428Y-13207476D01*
X11402905Y-13207476D02*
X11421952Y-13207476D01*
X11441000Y-13217000D01*
X11450524Y-13226524D01*
X11460048Y-13245571D01*
X11469571Y-13283667D01*
X11469571Y-13331286D01*
X11460048Y-13369381D01*
X11450524Y-13388428D01*
X11441000Y-13397952D01*
X11421952Y-13407476D01*
X11402905Y-13407476D01*
X11383857Y-13397952D01*
X11374333Y-13388428D01*
X11364809Y-13369381D01*
X11355286Y-13331286D01*
X11355286Y-13283667D01*
X11364809Y-13245571D01*
X11374333Y-13226524D01*
X11383857Y-13217000D01*
X11402905Y-13207476D01*
X11593381Y-13207476D02*
X11612428Y-13207476D01*
X11631476Y-13217000D01*
X11641000Y-13226524D01*
X11650524Y-13245571D01*
X11660048Y-13283667D01*
X11660048Y-13331286D01*
X11650524Y-13369381D01*
X11641000Y-13388428D01*
X11631476Y-13397952D01*
X11612428Y-13407476D01*
X11593381Y-13407476D01*
X11574333Y-13397952D01*
X11564809Y-13388428D01*
X11555286Y-13369381D01*
X11545762Y-13331286D01*
X11545762Y-13283667D01*
X11555286Y-13245571D01*
X11564809Y-13226524D01*
X11574333Y-13217000D01*
X11593381Y-13207476D01*
X11745762Y-13407476D02*
X11745762Y-13274143D01*
X11745762Y-13293190D02*
X11755286Y-13283667D01*
X11774333Y-13274143D01*
X11802905Y-13274143D01*
X11821952Y-13283667D01*
X11831476Y-13302714D01*
X11831476Y-13407476D01*
X11831476Y-13302714D02*
X11841000Y-13283667D01*
X11860048Y-13274143D01*
X11888619Y-13274143D01*
X11907667Y-13283667D01*
X11917190Y-13302714D01*
X11917190Y-13407476D01*
X12012428Y-13407476D02*
X12012428Y-13274143D01*
X12012428Y-13293190D02*
X12021952Y-13283667D01*
X12041000Y-13274143D01*
X12069571Y-13274143D01*
X12088619Y-13283667D01*
X12098143Y-13302714D01*
X12098143Y-13407476D01*
X12098143Y-13302714D02*
X12107667Y-13283667D01*
X12126714Y-13274143D01*
X12155286Y-13274143D01*
X12174333Y-13283667D01*
X12183857Y-13302714D01*
X12183857Y-13407476D01*
X12574333Y-13197952D02*
X12402905Y-13455095D01*
X12831476Y-13207476D02*
X12850524Y-13207476D01*
X12869571Y-13217000D01*
X12879095Y-13226524D01*
X12888619Y-13245571D01*
X12898143Y-13283667D01*
X12898143Y-13331286D01*
X12888619Y-13369381D01*
X12879095Y-13388428D01*
X12869571Y-13397952D01*
X12850524Y-13407476D01*
X12831476Y-13407476D01*
X12812428Y-13397952D01*
X12802905Y-13388428D01*
X12793381Y-13369381D01*
X12783857Y-13331286D01*
X12783857Y-13283667D01*
X12793381Y-13245571D01*
X12802905Y-13226524D01*
X12812428Y-13217000D01*
X12831476Y-13207476D01*
X12983857Y-13388428D02*
X12993381Y-13397952D01*
X12983857Y-13407476D01*
X12974333Y-13397952D01*
X12983857Y-13388428D01*
X12983857Y-13407476D01*
X13117190Y-13207476D02*
X13136238Y-13207476D01*
X13155286Y-13217000D01*
X13164809Y-13226524D01*
X13174333Y-13245571D01*
X13183857Y-13283667D01*
X13183857Y-13331286D01*
X13174333Y-13369381D01*
X13164809Y-13388428D01*
X13155286Y-13397952D01*
X13136238Y-13407476D01*
X13117190Y-13407476D01*
X13098143Y-13397952D01*
X13088619Y-13388428D01*
X13079095Y-13369381D01*
X13069571Y-13331286D01*
X13069571Y-13283667D01*
X13079095Y-13245571D01*
X13088619Y-13226524D01*
X13098143Y-13217000D01*
X13117190Y-13207476D01*
X13250524Y-13207476D02*
X13374333Y-13207476D01*
X13307667Y-13283667D01*
X13336238Y-13283667D01*
X13355286Y-13293190D01*
X13364809Y-13302714D01*
X13374333Y-13321762D01*
X13374333Y-13369381D01*
X13364809Y-13388428D01*
X13355286Y-13397952D01*
X13336238Y-13407476D01*
X13279095Y-13407476D01*
X13260048Y-13397952D01*
X13250524Y-13388428D01*
X13469571Y-13407476D02*
X13507667Y-13407476D01*
X13526714Y-13397952D01*
X13536238Y-13388428D01*
X13555286Y-13359857D01*
X13564809Y-13321762D01*
X13564809Y-13245571D01*
X13555286Y-13226524D01*
X13545762Y-13217000D01*
X13526714Y-13207476D01*
X13488619Y-13207476D01*
X13469571Y-13217000D01*
X13460048Y-13226524D01*
X13450524Y-13245571D01*
X13450524Y-13293190D01*
X13460048Y-13312238D01*
X13469571Y-13321762D01*
X13488619Y-13331286D01*
X13526714Y-13331286D01*
X13545762Y-13321762D01*
X13555286Y-13312238D01*
X13564809Y-13293190D01*
X13736238Y-13274143D02*
X13736238Y-13407476D01*
X13688619Y-13197952D02*
X13641000Y-13340809D01*
X13764809Y-13340809D01*
X13831476Y-13207476D02*
X13831476Y-13245571D01*
X13907667Y-13207476D02*
X13907667Y-13245571D01*
X14202905Y-13483667D02*
X14193381Y-13474143D01*
X14174333Y-13445571D01*
X14164809Y-13426524D01*
X14155286Y-13397952D01*
X14145762Y-13350333D01*
X14145762Y-13312238D01*
X14155286Y-13264619D01*
X14164809Y-13236048D01*
X14174333Y-13217000D01*
X14193381Y-13188428D01*
X14202905Y-13178905D01*
X14364809Y-13274143D02*
X14364809Y-13407476D01*
X14317190Y-13197952D02*
X14269571Y-13340809D01*
X14393381Y-13340809D01*
X14498143Y-13293190D02*
X14479095Y-13283667D01*
X14469571Y-13274143D01*
X14460048Y-13255095D01*
X14460048Y-13245571D01*
X14469571Y-13226524D01*
X14479095Y-13217000D01*
X14498143Y-13207476D01*
X14536238Y-13207476D01*
X14555286Y-13217000D01*
X14564809Y-13226524D01*
X14574333Y-13245571D01*
X14574333Y-13255095D01*
X14564809Y-13274143D01*
X14555286Y-13283667D01*
X14536238Y-13293190D01*
X14498143Y-13293190D01*
X14479095Y-13302714D01*
X14469571Y-13312238D01*
X14460048Y-13331286D01*
X14460048Y-13369381D01*
X14469571Y-13388428D01*
X14479095Y-13397952D01*
X14498143Y-13407476D01*
X14536238Y-13407476D01*
X14555286Y-13397952D01*
X14564809Y-13388428D01*
X14574333Y-13369381D01*
X14574333Y-13331286D01*
X14564809Y-13312238D01*
X14555286Y-13302714D01*
X14536238Y-13293190D01*
X14812428Y-13407476D02*
X14812428Y-13207476D01*
X14898143Y-13407476D02*
X14898143Y-13302714D01*
X14888619Y-13283667D01*
X14869571Y-13274143D01*
X14841000Y-13274143D01*
X14821952Y-13283667D01*
X14812428Y-13293190D01*
X15021952Y-13407476D02*
X15002905Y-13397952D01*
X14993381Y-13388428D01*
X14983857Y-13369381D01*
X14983857Y-13312238D01*
X14993381Y-13293190D01*
X15002905Y-13283667D01*
X15021952Y-13274143D01*
X15050524Y-13274143D01*
X15069571Y-13283667D01*
X15079095Y-13293190D01*
X15088619Y-13312238D01*
X15088619Y-13369381D01*
X15079095Y-13388428D01*
X15069571Y-13397952D01*
X15050524Y-13407476D01*
X15021952Y-13407476D01*
X15202905Y-13407476D02*
X15183857Y-13397952D01*
X15174333Y-13378905D01*
X15174333Y-13207476D01*
X15355286Y-13397952D02*
X15336238Y-13407476D01*
X15298143Y-13407476D01*
X15279095Y-13397952D01*
X15269571Y-13378905D01*
X15269571Y-13302714D01*
X15279095Y-13283667D01*
X15298143Y-13274143D01*
X15336238Y-13274143D01*
X15355286Y-13283667D01*
X15364809Y-13302714D01*
X15364809Y-13321762D01*
X15269571Y-13340809D01*
X15441000Y-13397952D02*
X15460048Y-13407476D01*
X15498143Y-13407476D01*
X15517190Y-13397952D01*
X15526714Y-13378905D01*
X15526714Y-13369381D01*
X15517190Y-13350333D01*
X15498143Y-13340809D01*
X15469571Y-13340809D01*
X15450524Y-13331286D01*
X15441000Y-13312238D01*
X15441000Y-13302714D01*
X15450524Y-13283667D01*
X15469571Y-13274143D01*
X15498143Y-13274143D01*
X15517190Y-13283667D01*
X15593381Y-13483667D02*
X15602905Y-13474143D01*
X15621952Y-13445571D01*
X15631476Y-13426524D01*
X15641000Y-13397952D01*
X15650524Y-13350333D01*
X15650524Y-13312238D01*
X15641000Y-13264619D01*
X15631476Y-13236048D01*
X15621952Y-13217000D01*
X15602905Y-13188428D01*
X15593381Y-13178905D01*
D16*
X10555000Y-13657000D02*
X10631000Y-13581000D01*
X10555000Y-13505000D01*
X10479000Y-13581000D01*
X10555000Y-13657000D01*
D11*
X10993381Y-13671476D02*
X10879095Y-13671476D01*
X10936238Y-13671476D02*
X10936238Y-13471476D01*
X10917190Y-13500048D01*
X10898143Y-13519095D01*
X10879095Y-13528619D01*
X11079095Y-13652428D02*
X11088619Y-13661952D01*
X11079095Y-13671476D01*
X11069571Y-13661952D01*
X11079095Y-13652428D01*
X11079095Y-13671476D01*
X11269571Y-13471476D02*
X11174333Y-13471476D01*
X11164810Y-13566714D01*
X11174333Y-13557190D01*
X11193381Y-13547667D01*
X11241000Y-13547667D01*
X11260048Y-13557190D01*
X11269571Y-13566714D01*
X11279095Y-13585762D01*
X11279095Y-13633381D01*
X11269571Y-13652428D01*
X11260048Y-13661952D01*
X11241000Y-13671476D01*
X11193381Y-13671476D01*
X11174333Y-13661952D01*
X11164810Y-13652428D01*
X11355286Y-13490524D02*
X11364809Y-13481000D01*
X11383857Y-13471476D01*
X11431476Y-13471476D01*
X11450524Y-13481000D01*
X11460048Y-13490524D01*
X11469571Y-13509571D01*
X11469571Y-13528619D01*
X11460048Y-13557190D01*
X11345762Y-13671476D01*
X11469571Y-13671476D01*
X11593381Y-13471476D02*
X11612428Y-13471476D01*
X11631476Y-13481000D01*
X11641000Y-13490524D01*
X11650524Y-13509571D01*
X11660048Y-13547667D01*
X11660048Y-13595286D01*
X11650524Y-13633381D01*
X11641000Y-13652428D01*
X11631476Y-13661952D01*
X11612428Y-13671476D01*
X11593381Y-13671476D01*
X11574333Y-13661952D01*
X11564809Y-13652428D01*
X11555286Y-13633381D01*
X11545762Y-13595286D01*
X11545762Y-13547667D01*
X11555286Y-13509571D01*
X11564809Y-13490524D01*
X11574333Y-13481000D01*
X11593381Y-13471476D01*
X11745762Y-13671476D02*
X11745762Y-13538143D01*
X11745762Y-13557190D02*
X11755286Y-13547667D01*
X11774333Y-13538143D01*
X11802905Y-13538143D01*
X11821952Y-13547667D01*
X11831476Y-13566714D01*
X11831476Y-13671476D01*
X11831476Y-13566714D02*
X11841000Y-13547667D01*
X11860048Y-13538143D01*
X11888619Y-13538143D01*
X11907667Y-13547667D01*
X11917190Y-13566714D01*
X11917190Y-13671476D01*
X12012428Y-13671476D02*
X12012428Y-13538143D01*
X12012428Y-13557190D02*
X12021952Y-13547667D01*
X12041000Y-13538143D01*
X12069571Y-13538143D01*
X12088619Y-13547667D01*
X12098143Y-13566714D01*
X12098143Y-13671476D01*
X12098143Y-13566714D02*
X12107667Y-13547667D01*
X12126714Y-13538143D01*
X12155286Y-13538143D01*
X12174333Y-13547667D01*
X12183857Y-13566714D01*
X12183857Y-13671476D01*
X12574333Y-13461952D02*
X12402905Y-13719095D01*
X12831476Y-13471476D02*
X12850524Y-13471476D01*
X12869571Y-13481000D01*
X12879095Y-13490524D01*
X12888619Y-13509571D01*
X12898143Y-13547667D01*
X12898143Y-13595286D01*
X12888619Y-13633381D01*
X12879095Y-13652428D01*
X12869571Y-13661952D01*
X12850524Y-13671476D01*
X12831476Y-13671476D01*
X12812428Y-13661952D01*
X12802905Y-13652428D01*
X12793381Y-13633381D01*
X12783857Y-13595286D01*
X12783857Y-13547667D01*
X12793381Y-13509571D01*
X12802905Y-13490524D01*
X12812428Y-13481000D01*
X12831476Y-13471476D01*
X12983857Y-13652428D02*
X12993381Y-13661952D01*
X12983857Y-13671476D01*
X12974333Y-13661952D01*
X12983857Y-13652428D01*
X12983857Y-13671476D01*
X13117190Y-13471476D02*
X13136238Y-13471476D01*
X13155286Y-13481000D01*
X13164809Y-13490524D01*
X13174333Y-13509571D01*
X13183857Y-13547667D01*
X13183857Y-13595286D01*
X13174333Y-13633381D01*
X13164809Y-13652428D01*
X13155286Y-13661952D01*
X13136238Y-13671476D01*
X13117190Y-13671476D01*
X13098143Y-13661952D01*
X13088619Y-13652428D01*
X13079095Y-13633381D01*
X13069571Y-13595286D01*
X13069571Y-13547667D01*
X13079095Y-13509571D01*
X13088619Y-13490524D01*
X13098143Y-13481000D01*
X13117190Y-13471476D01*
X13364809Y-13471476D02*
X13269571Y-13471476D01*
X13260048Y-13566714D01*
X13269571Y-13557190D01*
X13288619Y-13547667D01*
X13336238Y-13547667D01*
X13355286Y-13557190D01*
X13364809Y-13566714D01*
X13374333Y-13585762D01*
X13374333Y-13633381D01*
X13364809Y-13652428D01*
X13355286Y-13661952D01*
X13336238Y-13671476D01*
X13288619Y-13671476D01*
X13269571Y-13661952D01*
X13260048Y-13652428D01*
X13469571Y-13671476D02*
X13507667Y-13671476D01*
X13526714Y-13661952D01*
X13536238Y-13652428D01*
X13555286Y-13623857D01*
X13564809Y-13585762D01*
X13564809Y-13509571D01*
X13555286Y-13490524D01*
X13545762Y-13481000D01*
X13526714Y-13471476D01*
X13488619Y-13471476D01*
X13469571Y-13481000D01*
X13460048Y-13490524D01*
X13450524Y-13509571D01*
X13450524Y-13557190D01*
X13460048Y-13576238D01*
X13469571Y-13585762D01*
X13488619Y-13595286D01*
X13526714Y-13595286D01*
X13545762Y-13585762D01*
X13555286Y-13576238D01*
X13564809Y-13557190D01*
X13679095Y-13557190D02*
X13660048Y-13547667D01*
X13650524Y-13538143D01*
X13641000Y-13519095D01*
X13641000Y-13509571D01*
X13650524Y-13490524D01*
X13660048Y-13481000D01*
X13679095Y-13471476D01*
X13717190Y-13471476D01*
X13736238Y-13481000D01*
X13745762Y-13490524D01*
X13755286Y-13509571D01*
X13755286Y-13519095D01*
X13745762Y-13538143D01*
X13736238Y-13547667D01*
X13717190Y-13557190D01*
X13679095Y-13557190D01*
X13660048Y-13566714D01*
X13650524Y-13576238D01*
X13641000Y-13595286D01*
X13641000Y-13633381D01*
X13650524Y-13652428D01*
X13660048Y-13661952D01*
X13679095Y-13671476D01*
X13717190Y-13671476D01*
X13736238Y-13661952D01*
X13745762Y-13652428D01*
X13755286Y-13633381D01*
X13755286Y-13595286D01*
X13745762Y-13576238D01*
X13736238Y-13566714D01*
X13717190Y-13557190D01*
X13831476Y-13471476D02*
X13831476Y-13509571D01*
X13907667Y-13471476D02*
X13907667Y-13509571D01*
X14202905Y-13747667D02*
X14193381Y-13738143D01*
X14174333Y-13709571D01*
X14164809Y-13690524D01*
X14155286Y-13661952D01*
X14145762Y-13614333D01*
X14145762Y-13576238D01*
X14155286Y-13528619D01*
X14164809Y-13500048D01*
X14174333Y-13481000D01*
X14193381Y-13452428D01*
X14202905Y-13442905D01*
X14364809Y-13538143D02*
X14364809Y-13671476D01*
X14317190Y-13461952D02*
X14269571Y-13604809D01*
X14393381Y-13604809D01*
X14621952Y-13671476D02*
X14621952Y-13471476D01*
X14707667Y-13671476D02*
X14707667Y-13566714D01*
X14698143Y-13547667D01*
X14679095Y-13538143D01*
X14650524Y-13538143D01*
X14631476Y-13547667D01*
X14621952Y-13557190D01*
X14831476Y-13671476D02*
X14812428Y-13661952D01*
X14802905Y-13652428D01*
X14793381Y-13633381D01*
X14793381Y-13576238D01*
X14802905Y-13557190D01*
X14812428Y-13547667D01*
X14831476Y-13538143D01*
X14860048Y-13538143D01*
X14879095Y-13547667D01*
X14888619Y-13557190D01*
X14898143Y-13576238D01*
X14898143Y-13633381D01*
X14888619Y-13652428D01*
X14879095Y-13661952D01*
X14860048Y-13671476D01*
X14831476Y-13671476D01*
X15012428Y-13671476D02*
X14993381Y-13661952D01*
X14983857Y-13642905D01*
X14983857Y-13471476D01*
X15164809Y-13661952D02*
X15145762Y-13671476D01*
X15107667Y-13671476D01*
X15088619Y-13661952D01*
X15079095Y-13642905D01*
X15079095Y-13566714D01*
X15088619Y-13547667D01*
X15107667Y-13538143D01*
X15145762Y-13538143D01*
X15164809Y-13547667D01*
X15174333Y-13566714D01*
X15174333Y-13585762D01*
X15079095Y-13604809D01*
X15250524Y-13661952D02*
X15269571Y-13671476D01*
X15307667Y-13671476D01*
X15326714Y-13661952D01*
X15336238Y-13642905D01*
X15336238Y-13633381D01*
X15326714Y-13614333D01*
X15307667Y-13604809D01*
X15279095Y-13604809D01*
X15260048Y-13595286D01*
X15250524Y-13576238D01*
X15250524Y-13566714D01*
X15260048Y-13547667D01*
X15279095Y-13538143D01*
X15307667Y-13538143D01*
X15326714Y-13547667D01*
X15402905Y-13747667D02*
X15412428Y-13738143D01*
X15431476Y-13709571D01*
X15441000Y-13690524D01*
X15450524Y-13661952D01*
X15460048Y-13614333D01*
X15460048Y-13576238D01*
X15450524Y-13528619D01*
X15441000Y-13500048D01*
X15431476Y-13481000D01*
X15412428Y-13452428D01*
X15402905Y-13442905D01*
M02*
