G04 #@! TF.GenerationSoftware,KiCad,Pcbnew,(6.0.0-0)*
G04 #@! TF.CreationDate,2022-10-12T14:44:47+02:00*
G04 #@! TF.ProjectId,prototype-2,70726f74-6f74-4797-9065-2d322e6b6963,rev?*
G04 #@! TF.SameCoordinates,Original*
G04 #@! TF.FileFunction,Soldermask,Top*
G04 #@! TF.FilePolarity,Negative*
%FSLAX46Y46*%
G04 Gerber Fmt 4.6, Leading zero omitted, Abs format (unit mm)*
G04 Created by KiCad (PCBNEW (6.0.0-0)) date 2022-10-12 14:44:47*
%MOMM*%
%LPD*%
G01*
G04 APERTURE LIST*
G04 Aperture macros list*
%AMRoundRect*
0 Rectangle with rounded corners*
0 $1 Rounding radius*
0 $2 $3 $4 $5 $6 $7 $8 $9 X,Y pos of 4 corners*
0 Add a 4 corners polygon primitive as box body*
4,1,4,$2,$3,$4,$5,$6,$7,$8,$9,$2,$3,0*
0 Add four circle primitives for the rounded corners*
1,1,$1+$1,$2,$3*
1,1,$1+$1,$4,$5*
1,1,$1+$1,$6,$7*
1,1,$1+$1,$8,$9*
0 Add four rect primitives between the rounded corners*
20,1,$1+$1,$2,$3,$4,$5,0*
20,1,$1+$1,$4,$5,$6,$7,0*
20,1,$1+$1,$6,$7,$8,$9,0*
20,1,$1+$1,$8,$9,$2,$3,0*%
G04 Aperture macros list end*
%ADD10RoundRect,0.250000X0.450000X-0.262500X0.450000X0.262500X-0.450000X0.262500X-0.450000X-0.262500X0*%
%ADD11R,1.700000X1.700000*%
%ADD12O,1.700000X1.700000*%
%ADD13R,1.780000X2.000000*%
%ADD14RoundRect,0.200000X0.200000X0.275000X-0.200000X0.275000X-0.200000X-0.275000X0.200000X-0.275000X0*%
%ADD15R,1.778000X1.778000*%
%ADD16C,1.778000*%
%ADD17C,1.500000*%
%ADD18R,1.200000X2.500000*%
%ADD19RoundRect,0.200000X0.275000X-0.200000X0.275000X0.200000X-0.275000X0.200000X-0.275000X-0.200000X0*%
%ADD20R,2.000000X2.300000*%
%ADD21C,2.300000*%
%ADD22RoundRect,0.200000X-0.200000X-0.275000X0.200000X-0.275000X0.200000X0.275000X-0.200000X0.275000X0*%
%ADD23RoundRect,0.150000X0.587500X0.150000X-0.587500X0.150000X-0.587500X-0.150000X0.587500X-0.150000X0*%
%ADD24R,3.000000X3.000000*%
%ADD25C,3.000000*%
%ADD26RoundRect,0.150000X-0.825000X-0.150000X0.825000X-0.150000X0.825000X0.150000X-0.825000X0.150000X0*%
G04 APERTURE END LIST*
D10*
X189865000Y-91082500D03*
X189865000Y-89257500D03*
D11*
X176530000Y-71115000D03*
D12*
X176530000Y-73655000D03*
D10*
X187325000Y-91082500D03*
X187325000Y-89257500D03*
D11*
X156210000Y-53340000D03*
D13*
X163195000Y-55880000D03*
X160655000Y-55880000D03*
X160655000Y-63500000D03*
X163195000Y-63500000D03*
D11*
X167640000Y-54610000D03*
D12*
X170180000Y-54610000D03*
X167640000Y-57150000D03*
X170180000Y-57150000D03*
X167640000Y-59690000D03*
X170180000Y-59690000D03*
X167640000Y-62230000D03*
X170180000Y-62230000D03*
X167640000Y-64770000D03*
X170180000Y-64770000D03*
D14*
X179705000Y-59690000D03*
X178055000Y-59690000D03*
X179705000Y-62230000D03*
X178055000Y-62230000D03*
X175450000Y-78740000D03*
X173800000Y-78740000D03*
D15*
X159255000Y-89495000D03*
D16*
X156715000Y-89495000D03*
X154175000Y-89495000D03*
X151635000Y-89495000D03*
X149095000Y-89495000D03*
X146555000Y-89495000D03*
X144015000Y-89495000D03*
X141475000Y-89495000D03*
X138935000Y-89495000D03*
X136395000Y-89495000D03*
X136395000Y-114895000D03*
X138935000Y-114895000D03*
X141475000Y-114895000D03*
X144015000Y-114895000D03*
X146555000Y-114895000D03*
X149095000Y-114895000D03*
X151635000Y-114895000D03*
X154175000Y-114895000D03*
X156715000Y-114895000D03*
X159255000Y-114895000D03*
D17*
X191405000Y-72390000D03*
X184405000Y-72390000D03*
D18*
X186805000Y-75640000D03*
X189805000Y-75640000D03*
X181705000Y-69140000D03*
X182805000Y-75640000D03*
D19*
X173355000Y-73215000D03*
X173355000Y-71565000D03*
D11*
X162560000Y-68580000D03*
D20*
X120015000Y-78597500D03*
D21*
X125095000Y-78597500D03*
X150495000Y-78597500D03*
X150495000Y-60817500D03*
X145415000Y-60817500D03*
D22*
X155687500Y-56776250D03*
X157337500Y-56776250D03*
D11*
X189865000Y-82550000D03*
D12*
X189865000Y-85090000D03*
X187325000Y-82550000D03*
X187325000Y-85090000D03*
X184785000Y-82550000D03*
X184785000Y-85090000D03*
X182245000Y-82550000D03*
X182245000Y-85090000D03*
X179705000Y-82550000D03*
X179705000Y-85090000D03*
D14*
X179705000Y-64770000D03*
X178055000Y-64770000D03*
X179705000Y-54610000D03*
X178055000Y-54610000D03*
D11*
X157480000Y-68580000D03*
D14*
X157337500Y-63126250D03*
X155687500Y-63126250D03*
D11*
X170180000Y-71135000D03*
D12*
X170180000Y-73675000D03*
X170180000Y-76215000D03*
D10*
X179705000Y-91082500D03*
X179705000Y-89257500D03*
D23*
X157450000Y-60901250D03*
X157450000Y-59001250D03*
X155575000Y-59951250D03*
D14*
X179705000Y-57150000D03*
X178055000Y-57150000D03*
D10*
X182245000Y-91082500D03*
X182245000Y-89257500D03*
D14*
X175450000Y-82550000D03*
X173800000Y-82550000D03*
D24*
X187960000Y-57150000D03*
D25*
X187960000Y-62230000D03*
D22*
X173800000Y-80645000D03*
X175450000Y-80645000D03*
D10*
X184785000Y-91082500D03*
X184785000Y-89257500D03*
D26*
X158815000Y-73660000D03*
X158815000Y-74930000D03*
X158815000Y-76200000D03*
X158815000Y-77470000D03*
X158815000Y-78740000D03*
X158815000Y-80010000D03*
X158815000Y-81280000D03*
X158815000Y-82550000D03*
X163765000Y-82550000D03*
X163765000Y-81280000D03*
X163765000Y-80010000D03*
X163765000Y-78740000D03*
X163765000Y-77470000D03*
X163765000Y-76200000D03*
X163765000Y-74930000D03*
X163765000Y-73660000D03*
D24*
X111625000Y-55880000D03*
D25*
X111625000Y-60960000D03*
M02*
