G04 #@! TF.GenerationSoftware,KiCad,Pcbnew,(6.0.0-0)*
G04 #@! TF.CreationDate,2022-10-12T14:44:47+02:00*
G04 #@! TF.ProjectId,prototype-2,70726f74-6f74-4797-9065-2d322e6b6963,rev?*
G04 #@! TF.SameCoordinates,Original*
G04 #@! TF.FileFunction,Legend,Top*
G04 #@! TF.FilePolarity,Positive*
%FSLAX46Y46*%
G04 Gerber Fmt 4.6, Leading zero omitted, Abs format (unit mm)*
G04 Created by KiCad (PCBNEW (6.0.0-0)) date 2022-10-12 14:44:47*
%MOMM*%
%LPD*%
G01*
G04 APERTURE LIST*
G04 Aperture macros list*
%AMRoundRect*
0 Rectangle with rounded corners*
0 $1 Rounding radius*
0 $2 $3 $4 $5 $6 $7 $8 $9 X,Y pos of 4 corners*
0 Add a 4 corners polygon primitive as box body*
4,1,4,$2,$3,$4,$5,$6,$7,$8,$9,$2,$3,0*
0 Add four circle primitives for the rounded corners*
1,1,$1+$1,$2,$3*
1,1,$1+$1,$4,$5*
1,1,$1+$1,$6,$7*
1,1,$1+$1,$8,$9*
0 Add four rect primitives between the rounded corners*
20,1,$1+$1,$2,$3,$4,$5,0*
20,1,$1+$1,$4,$5,$6,$7,0*
20,1,$1+$1,$6,$7,$8,$9,0*
20,1,$1+$1,$8,$9,$2,$3,0*%
G04 Aperture macros list end*
%ADD10C,0.150000*%
%ADD11C,0.254000*%
%ADD12C,0.120000*%
%ADD13RoundRect,0.250000X0.450000X-0.262500X0.450000X0.262500X-0.450000X0.262500X-0.450000X-0.262500X0*%
%ADD14R,1.700000X1.700000*%
%ADD15O,1.700000X1.700000*%
%ADD16R,1.780000X2.000000*%
%ADD17RoundRect,0.200000X0.200000X0.275000X-0.200000X0.275000X-0.200000X-0.275000X0.200000X-0.275000X0*%
%ADD18R,1.778000X1.778000*%
%ADD19C,1.778000*%
%ADD20C,1.500000*%
%ADD21R,1.200000X2.500000*%
%ADD22RoundRect,0.200000X0.275000X-0.200000X0.275000X0.200000X-0.275000X0.200000X-0.275000X-0.200000X0*%
%ADD23R,2.000000X2.300000*%
%ADD24C,2.300000*%
%ADD25RoundRect,0.200000X-0.200000X-0.275000X0.200000X-0.275000X0.200000X0.275000X-0.200000X0.275000X0*%
%ADD26RoundRect,0.150000X0.587500X0.150000X-0.587500X0.150000X-0.587500X-0.150000X0.587500X-0.150000X0*%
%ADD27R,3.000000X3.000000*%
%ADD28C,3.000000*%
%ADD29RoundRect,0.150000X-0.825000X-0.150000X0.825000X-0.150000X0.825000X0.150000X-0.825000X0.150000X0*%
G04 APERTURE END LIST*
D10*
X173029761Y-64555714D02*
X173029761Y-65222380D01*
X172791666Y-64174761D02*
X172553571Y-64889047D01*
X173172619Y-64889047D01*
X173553571Y-65127142D02*
X173601190Y-65174761D01*
X173553571Y-65222380D01*
X173505952Y-65174761D01*
X173553571Y-65127142D01*
X173553571Y-65222380D01*
X173934523Y-64222380D02*
X174601190Y-64222380D01*
X174172619Y-65222380D01*
X174982142Y-65222380D02*
X174982142Y-64222380D01*
X175553571Y-65222380D02*
X175125000Y-64650952D01*
X175553571Y-64222380D02*
X174982142Y-64793809D01*
X175934523Y-65222380D02*
X176172619Y-65222380D01*
X176172619Y-65031904D01*
X176077380Y-64984285D01*
X175982142Y-64889047D01*
X175934523Y-64746190D01*
X175934523Y-64508095D01*
X175982142Y-64365238D01*
X176077380Y-64270000D01*
X176220238Y-64222380D01*
X176410714Y-64222380D01*
X176553571Y-64270000D01*
X176648809Y-64365238D01*
X176696428Y-64508095D01*
X176696428Y-64746190D01*
X176648809Y-64889047D01*
X176553571Y-64984285D01*
X176458333Y-65031904D01*
X176458333Y-65222380D01*
X176696428Y-65222380D01*
X173125000Y-57602380D02*
X172553571Y-57602380D01*
X172839285Y-57602380D02*
X172839285Y-56602380D01*
X172744047Y-56745238D01*
X172648809Y-56840476D01*
X172553571Y-56888095D01*
X173553571Y-57507142D02*
X173601190Y-57554761D01*
X173553571Y-57602380D01*
X173505952Y-57554761D01*
X173553571Y-57507142D01*
X173553571Y-57602380D01*
X173982142Y-56697619D02*
X174029761Y-56650000D01*
X174125000Y-56602380D01*
X174363095Y-56602380D01*
X174458333Y-56650000D01*
X174505952Y-56697619D01*
X174553571Y-56792857D01*
X174553571Y-56888095D01*
X174505952Y-57030952D01*
X173934523Y-57602380D01*
X174553571Y-57602380D01*
X174982142Y-57602380D02*
X174982142Y-56602380D01*
X175553571Y-57602380D02*
X175125000Y-57030952D01*
X175553571Y-56602380D02*
X174982142Y-57173809D01*
X175934523Y-57602380D02*
X176172619Y-57602380D01*
X176172619Y-57411904D01*
X176077380Y-57364285D01*
X175982142Y-57269047D01*
X175934523Y-57126190D01*
X175934523Y-56888095D01*
X175982142Y-56745238D01*
X176077380Y-56650000D01*
X176220238Y-56602380D01*
X176410714Y-56602380D01*
X176553571Y-56650000D01*
X176648809Y-56745238D01*
X176696428Y-56888095D01*
X176696428Y-57126190D01*
X176648809Y-57269047D01*
X176553571Y-57364285D01*
X176458333Y-57411904D01*
X176458333Y-57602380D01*
X176696428Y-57602380D01*
X107624523Y-56332380D02*
X107148333Y-56332380D01*
X107148333Y-55332380D01*
X190317380Y-79994047D02*
X190317380Y-80565476D01*
X190317380Y-80279761D02*
X189317380Y-80279761D01*
X189460238Y-80375000D01*
X189555476Y-80470238D01*
X189603095Y-80565476D01*
X189317380Y-79375000D02*
X189317380Y-79279761D01*
X189365000Y-79184523D01*
X189412619Y-79136904D01*
X189507857Y-79089285D01*
X189698333Y-79041666D01*
X189936428Y-79041666D01*
X190126904Y-79089285D01*
X190222142Y-79136904D01*
X190269761Y-79184523D01*
X190317380Y-79279761D01*
X190317380Y-79375000D01*
X190269761Y-79470238D01*
X190222142Y-79517857D01*
X190126904Y-79565476D01*
X189936428Y-79613095D01*
X189698333Y-79613095D01*
X189507857Y-79565476D01*
X189412619Y-79517857D01*
X189365000Y-79470238D01*
X189317380Y-79375000D01*
X190031666Y-78660714D02*
X190031666Y-78184523D01*
X190317380Y-78755952D02*
X189317380Y-78422619D01*
X190317380Y-78089285D01*
X173839285Y-55062380D02*
X173267857Y-55062380D01*
X173553571Y-55062380D02*
X173553571Y-54062380D01*
X173458333Y-54205238D01*
X173363095Y-54300476D01*
X173267857Y-54348095D01*
X174267857Y-55062380D02*
X174267857Y-54062380D01*
X174839285Y-55062380D02*
X174410714Y-54490952D01*
X174839285Y-54062380D02*
X174267857Y-54633809D01*
X175220238Y-55062380D02*
X175458333Y-55062380D01*
X175458333Y-54871904D01*
X175363095Y-54824285D01*
X175267857Y-54729047D01*
X175220238Y-54586190D01*
X175220238Y-54348095D01*
X175267857Y-54205238D01*
X175363095Y-54110000D01*
X175505952Y-54062380D01*
X175696428Y-54062380D01*
X175839285Y-54110000D01*
X175934523Y-54205238D01*
X175982142Y-54348095D01*
X175982142Y-54586190D01*
X175934523Y-54729047D01*
X175839285Y-54824285D01*
X175744047Y-54871904D01*
X175744047Y-55062380D01*
X175982142Y-55062380D01*
X184332619Y-80565476D02*
X184285000Y-80517857D01*
X184237380Y-80422619D01*
X184237380Y-80184523D01*
X184285000Y-80089285D01*
X184332619Y-80041666D01*
X184427857Y-79994047D01*
X184523095Y-79994047D01*
X184665952Y-80041666D01*
X185237380Y-80613095D01*
X185237380Y-79994047D01*
X184237380Y-79375000D02*
X184237380Y-79279761D01*
X184285000Y-79184523D01*
X184332619Y-79136904D01*
X184427857Y-79089285D01*
X184618333Y-79041666D01*
X184856428Y-79041666D01*
X185046904Y-79089285D01*
X185142142Y-79136904D01*
X185189761Y-79184523D01*
X185237380Y-79279761D01*
X185237380Y-79375000D01*
X185189761Y-79470238D01*
X185142142Y-79517857D01*
X185046904Y-79565476D01*
X184856428Y-79613095D01*
X184618333Y-79613095D01*
X184427857Y-79565476D01*
X184332619Y-79517857D01*
X184285000Y-79470238D01*
X184237380Y-79375000D01*
X184951666Y-78660714D02*
X184951666Y-78184523D01*
X185237380Y-78755952D02*
X184237380Y-78422619D01*
X185237380Y-78089285D01*
X187777380Y-79994047D02*
X187777380Y-80565476D01*
X187777380Y-80279761D02*
X186777380Y-80279761D01*
X186920238Y-80375000D01*
X187015476Y-80470238D01*
X187063095Y-80565476D01*
X186777380Y-79136904D02*
X186777380Y-79327380D01*
X186825000Y-79422619D01*
X186872619Y-79470238D01*
X187015476Y-79565476D01*
X187205952Y-79613095D01*
X187586904Y-79613095D01*
X187682142Y-79565476D01*
X187729761Y-79517857D01*
X187777380Y-79422619D01*
X187777380Y-79232142D01*
X187729761Y-79136904D01*
X187682142Y-79089285D01*
X187586904Y-79041666D01*
X187348809Y-79041666D01*
X187253571Y-79089285D01*
X187205952Y-79136904D01*
X187158333Y-79232142D01*
X187158333Y-79422619D01*
X187205952Y-79517857D01*
X187253571Y-79565476D01*
X187348809Y-79613095D01*
X187491666Y-78660714D02*
X187491666Y-78184523D01*
X187777380Y-78755952D02*
X186777380Y-78422619D01*
X187777380Y-78089285D01*
X173267857Y-59237619D02*
X173315476Y-59190000D01*
X173410714Y-59142380D01*
X173648809Y-59142380D01*
X173744047Y-59190000D01*
X173791666Y-59237619D01*
X173839285Y-59332857D01*
X173839285Y-59428095D01*
X173791666Y-59570952D01*
X173220238Y-60142380D01*
X173839285Y-60142380D01*
X174267857Y-60142380D02*
X174267857Y-59142380D01*
X174839285Y-60142380D02*
X174410714Y-59570952D01*
X174839285Y-59142380D02*
X174267857Y-59713809D01*
X175220238Y-60142380D02*
X175458333Y-60142380D01*
X175458333Y-59951904D01*
X175363095Y-59904285D01*
X175267857Y-59809047D01*
X175220238Y-59666190D01*
X175220238Y-59428095D01*
X175267857Y-59285238D01*
X175363095Y-59190000D01*
X175505952Y-59142380D01*
X175696428Y-59142380D01*
X175839285Y-59190000D01*
X175934523Y-59285238D01*
X175982142Y-59428095D01*
X175982142Y-59666190D01*
X175934523Y-59809047D01*
X175839285Y-59904285D01*
X175744047Y-59951904D01*
X175744047Y-60142380D01*
X175982142Y-60142380D01*
X179157380Y-80089285D02*
X179157380Y-80279761D01*
X179205000Y-80375000D01*
X179252619Y-80422619D01*
X179395476Y-80517857D01*
X179585952Y-80565476D01*
X179966904Y-80565476D01*
X180062142Y-80517857D01*
X180109761Y-80470238D01*
X180157380Y-80375000D01*
X180157380Y-80184523D01*
X180109761Y-80089285D01*
X180062142Y-80041666D01*
X179966904Y-79994047D01*
X179728809Y-79994047D01*
X179633571Y-80041666D01*
X179585952Y-80089285D01*
X179538333Y-80184523D01*
X179538333Y-80375000D01*
X179585952Y-80470238D01*
X179633571Y-80517857D01*
X179728809Y-80565476D01*
X179157380Y-79375000D02*
X179157380Y-79279761D01*
X179205000Y-79184523D01*
X179252619Y-79136904D01*
X179347857Y-79089285D01*
X179538333Y-79041666D01*
X179776428Y-79041666D01*
X179966904Y-79089285D01*
X180062142Y-79136904D01*
X180109761Y-79184523D01*
X180157380Y-79279761D01*
X180157380Y-79375000D01*
X180109761Y-79470238D01*
X180062142Y-79517857D01*
X179966904Y-79565476D01*
X179776428Y-79613095D01*
X179538333Y-79613095D01*
X179347857Y-79565476D01*
X179252619Y-79517857D01*
X179205000Y-79470238D01*
X179157380Y-79375000D01*
X179871666Y-78660714D02*
X179871666Y-78184523D01*
X180157380Y-78755952D02*
X179157380Y-78422619D01*
X180157380Y-78089285D01*
X172505952Y-61682380D02*
X173125000Y-61682380D01*
X172791666Y-62063333D01*
X172934523Y-62063333D01*
X173029761Y-62110952D01*
X173077380Y-62158571D01*
X173125000Y-62253809D01*
X173125000Y-62491904D01*
X173077380Y-62587142D01*
X173029761Y-62634761D01*
X172934523Y-62682380D01*
X172648809Y-62682380D01*
X172553571Y-62634761D01*
X172505952Y-62587142D01*
X173553571Y-62587142D02*
X173601190Y-62634761D01*
X173553571Y-62682380D01*
X173505952Y-62634761D01*
X173553571Y-62587142D01*
X173553571Y-62682380D01*
X173934523Y-61682380D02*
X174553571Y-61682380D01*
X174220238Y-62063333D01*
X174363095Y-62063333D01*
X174458333Y-62110952D01*
X174505952Y-62158571D01*
X174553571Y-62253809D01*
X174553571Y-62491904D01*
X174505952Y-62587142D01*
X174458333Y-62634761D01*
X174363095Y-62682380D01*
X174077380Y-62682380D01*
X173982142Y-62634761D01*
X173934523Y-62587142D01*
X174982142Y-62682380D02*
X174982142Y-61682380D01*
X175553571Y-62682380D02*
X175125000Y-62110952D01*
X175553571Y-61682380D02*
X174982142Y-62253809D01*
X175934523Y-62682380D02*
X176172619Y-62682380D01*
X176172619Y-62491904D01*
X176077380Y-62444285D01*
X175982142Y-62349047D01*
X175934523Y-62206190D01*
X175934523Y-61968095D01*
X175982142Y-61825238D01*
X176077380Y-61730000D01*
X176220238Y-61682380D01*
X176410714Y-61682380D01*
X176553571Y-61730000D01*
X176648809Y-61825238D01*
X176696428Y-61968095D01*
X176696428Y-62206190D01*
X176648809Y-62349047D01*
X176553571Y-62444285D01*
X176458333Y-62491904D01*
X176458333Y-62682380D01*
X176696428Y-62682380D01*
X191992380Y-62523333D02*
X191992380Y-61951904D01*
X192992380Y-62237619D02*
X191992380Y-62237619D01*
X192944761Y-61237619D02*
X192992380Y-61332857D01*
X192992380Y-61523333D01*
X192944761Y-61618571D01*
X192849523Y-61666190D01*
X192468571Y-61666190D01*
X192373333Y-61618571D01*
X192325714Y-61523333D01*
X192325714Y-61332857D01*
X192373333Y-61237619D01*
X192468571Y-61190000D01*
X192563809Y-61190000D01*
X192659047Y-61666190D01*
X192992380Y-60618571D02*
X192944761Y-60713809D01*
X192849523Y-60761428D01*
X191992380Y-60761428D01*
X192944761Y-59856666D02*
X192992380Y-59951904D01*
X192992380Y-60142380D01*
X192944761Y-60237619D01*
X192849523Y-60285238D01*
X192468571Y-60285238D01*
X192373333Y-60237619D01*
X192325714Y-60142380D01*
X192325714Y-59951904D01*
X192373333Y-59856666D01*
X192468571Y-59809047D01*
X192563809Y-59809047D01*
X192659047Y-60285238D01*
X192992380Y-59380476D02*
X192325714Y-59380476D01*
X191992380Y-59380476D02*
X192040000Y-59428095D01*
X192087619Y-59380476D01*
X192040000Y-59332857D01*
X191992380Y-59380476D01*
X192087619Y-59380476D01*
X192325714Y-58904285D02*
X192992380Y-58904285D01*
X192420952Y-58904285D02*
X192373333Y-58856666D01*
X192325714Y-58761428D01*
X192325714Y-58618571D01*
X192373333Y-58523333D01*
X192468571Y-58475714D01*
X192992380Y-58475714D01*
X192325714Y-58142380D02*
X192325714Y-57761428D01*
X192992380Y-57999523D02*
X192135238Y-57999523D01*
X192040000Y-57951904D01*
X191992380Y-57856666D01*
X191992380Y-57761428D01*
X192992380Y-57285238D02*
X192944761Y-57380476D01*
X192897142Y-57428095D01*
X192801904Y-57475714D01*
X192516190Y-57475714D01*
X192420952Y-57428095D01*
X192373333Y-57380476D01*
X192325714Y-57285238D01*
X192325714Y-57142380D01*
X192373333Y-57047142D01*
X192420952Y-56999523D01*
X192516190Y-56951904D01*
X192801904Y-56951904D01*
X192897142Y-56999523D01*
X192944761Y-57047142D01*
X192992380Y-57142380D01*
X192992380Y-57285238D01*
X107029285Y-61412380D02*
X107029285Y-60412380D01*
X107600714Y-61412380D01*
X107600714Y-60412380D01*
X181697380Y-80613095D02*
X181697380Y-79994047D01*
X182078333Y-80327380D01*
X182078333Y-80184523D01*
X182125952Y-80089285D01*
X182173571Y-80041666D01*
X182268809Y-79994047D01*
X182506904Y-79994047D01*
X182602142Y-80041666D01*
X182649761Y-80089285D01*
X182697380Y-80184523D01*
X182697380Y-80470238D01*
X182649761Y-80565476D01*
X182602142Y-80613095D01*
X181792619Y-79613095D02*
X181745000Y-79565476D01*
X181697380Y-79470238D01*
X181697380Y-79232142D01*
X181745000Y-79136904D01*
X181792619Y-79089285D01*
X181887857Y-79041666D01*
X181983095Y-79041666D01*
X182125952Y-79089285D01*
X182697380Y-79660714D01*
X182697380Y-79041666D01*
X182411666Y-78660714D02*
X182411666Y-78184523D01*
X182697380Y-78755952D02*
X181697380Y-78422619D01*
X182697380Y-78089285D01*
X190317380Y-93511666D02*
X189841190Y-93845000D01*
X190317380Y-94083095D02*
X189317380Y-94083095D01*
X189317380Y-93702142D01*
X189365000Y-93606904D01*
X189412619Y-93559285D01*
X189507857Y-93511666D01*
X189650714Y-93511666D01*
X189745952Y-93559285D01*
X189793571Y-93606904D01*
X189841190Y-93702142D01*
X189841190Y-94083095D01*
X189317380Y-92654523D02*
X189317380Y-92845000D01*
X189365000Y-92940238D01*
X189412619Y-92987857D01*
X189555476Y-93083095D01*
X189745952Y-93130714D01*
X190126904Y-93130714D01*
X190222142Y-93083095D01*
X190269761Y-93035476D01*
X190317380Y-92940238D01*
X190317380Y-92749761D01*
X190269761Y-92654523D01*
X190222142Y-92606904D01*
X190126904Y-92559285D01*
X189888809Y-92559285D01*
X189793571Y-92606904D01*
X189745952Y-92654523D01*
X189698333Y-92749761D01*
X189698333Y-92940238D01*
X189745952Y-93035476D01*
X189793571Y-93083095D01*
X189888809Y-93130714D01*
X175720476Y-68237380D02*
X175720476Y-68951666D01*
X175672857Y-69094523D01*
X175577619Y-69189761D01*
X175434761Y-69237380D01*
X175339523Y-69237380D01*
X176720476Y-69237380D02*
X176149047Y-69237380D01*
X176434761Y-69237380D02*
X176434761Y-68237380D01*
X176339523Y-68380238D01*
X176244285Y-68475476D01*
X176149047Y-68523095D01*
X177339523Y-68237380D02*
X177434761Y-68237380D01*
X177530000Y-68285000D01*
X177577619Y-68332619D01*
X177625238Y-68427857D01*
X177672857Y-68618333D01*
X177672857Y-68856428D01*
X177625238Y-69046904D01*
X177577619Y-69142142D01*
X177530000Y-69189761D01*
X177434761Y-69237380D01*
X177339523Y-69237380D01*
X177244285Y-69189761D01*
X177196666Y-69142142D01*
X177149047Y-69046904D01*
X177101428Y-68856428D01*
X177101428Y-68618333D01*
X177149047Y-68427857D01*
X177196666Y-68332619D01*
X177244285Y-68285000D01*
X177339523Y-68237380D01*
X187777380Y-93511666D02*
X187301190Y-93845000D01*
X187777380Y-94083095D02*
X186777380Y-94083095D01*
X186777380Y-93702142D01*
X186825000Y-93606904D01*
X186872619Y-93559285D01*
X186967857Y-93511666D01*
X187110714Y-93511666D01*
X187205952Y-93559285D01*
X187253571Y-93606904D01*
X187301190Y-93702142D01*
X187301190Y-94083095D01*
X186777380Y-93178333D02*
X186777380Y-92511666D01*
X187777380Y-92940238D01*
X153336666Y-52792380D02*
X153336666Y-53506666D01*
X153289047Y-53649523D01*
X153193809Y-53744761D01*
X153050952Y-53792380D01*
X152955714Y-53792380D01*
X154241428Y-53125714D02*
X154241428Y-53792380D01*
X154003333Y-52744761D02*
X153765238Y-53459047D01*
X154384285Y-53459047D01*
X164977380Y-60451904D02*
X165786904Y-60451904D01*
X165882142Y-60404285D01*
X165929761Y-60356666D01*
X165977380Y-60261428D01*
X165977380Y-60070952D01*
X165929761Y-59975714D01*
X165882142Y-59928095D01*
X165786904Y-59880476D01*
X164977380Y-59880476D01*
X164977380Y-59499523D02*
X164977380Y-58880476D01*
X165358333Y-59213809D01*
X165358333Y-59070952D01*
X165405952Y-58975714D01*
X165453571Y-58928095D01*
X165548809Y-58880476D01*
X165786904Y-58880476D01*
X165882142Y-58928095D01*
X165929761Y-58975714D01*
X165977380Y-59070952D01*
X165977380Y-59356666D01*
X165929761Y-59451904D01*
X165882142Y-59499523D01*
X168576666Y-51732380D02*
X168576666Y-52446666D01*
X168529047Y-52589523D01*
X168433809Y-52684761D01*
X168290952Y-52732380D01*
X168195714Y-52732380D01*
X168957619Y-51732380D02*
X169624285Y-51732380D01*
X169195714Y-52732380D01*
X181602142Y-60142380D02*
X181268809Y-59666190D01*
X181030714Y-60142380D02*
X181030714Y-59142380D01*
X181411666Y-59142380D01*
X181506904Y-59190000D01*
X181554523Y-59237619D01*
X181602142Y-59332857D01*
X181602142Y-59475714D01*
X181554523Y-59570952D01*
X181506904Y-59618571D01*
X181411666Y-59666190D01*
X181030714Y-59666190D01*
X182554523Y-60142380D02*
X181983095Y-60142380D01*
X182268809Y-60142380D02*
X182268809Y-59142380D01*
X182173571Y-59285238D01*
X182078333Y-59380476D01*
X181983095Y-59428095D01*
X182887857Y-59142380D02*
X183506904Y-59142380D01*
X183173571Y-59523333D01*
X183316428Y-59523333D01*
X183411666Y-59570952D01*
X183459285Y-59618571D01*
X183506904Y-59713809D01*
X183506904Y-59951904D01*
X183459285Y-60047142D01*
X183411666Y-60094761D01*
X183316428Y-60142380D01*
X183030714Y-60142380D01*
X182935476Y-60094761D01*
X182887857Y-60047142D01*
X181602142Y-62682380D02*
X181268809Y-62206190D01*
X181030714Y-62682380D02*
X181030714Y-61682380D01*
X181411666Y-61682380D01*
X181506904Y-61730000D01*
X181554523Y-61777619D01*
X181602142Y-61872857D01*
X181602142Y-62015714D01*
X181554523Y-62110952D01*
X181506904Y-62158571D01*
X181411666Y-62206190D01*
X181030714Y-62206190D01*
X182554523Y-62682380D02*
X181983095Y-62682380D01*
X182268809Y-62682380D02*
X182268809Y-61682380D01*
X182173571Y-61825238D01*
X182078333Y-61920476D01*
X181983095Y-61968095D01*
X183411666Y-62015714D02*
X183411666Y-62682380D01*
X183173571Y-61634761D02*
X182935476Y-62349047D01*
X183554523Y-62349047D01*
X171918333Y-79192380D02*
X171585000Y-78716190D01*
X171346904Y-79192380D02*
X171346904Y-78192380D01*
X171727857Y-78192380D01*
X171823095Y-78240000D01*
X171870714Y-78287619D01*
X171918333Y-78382857D01*
X171918333Y-78525714D01*
X171870714Y-78620952D01*
X171823095Y-78668571D01*
X171727857Y-78716190D01*
X171346904Y-78716190D01*
X172870714Y-79192380D02*
X172299285Y-79192380D01*
X172585000Y-79192380D02*
X172585000Y-78192380D01*
X172489761Y-78335238D01*
X172394523Y-78430476D01*
X172299285Y-78478095D01*
X151472619Y-102743095D02*
X150663095Y-102743095D01*
X150567857Y-102790714D01*
X150520238Y-102838333D01*
X150472619Y-102933571D01*
X150472619Y-103124047D01*
X150520238Y-103219285D01*
X150567857Y-103266904D01*
X150663095Y-103314523D01*
X151472619Y-103314523D01*
X150472619Y-104314523D02*
X150472619Y-103743095D01*
X150472619Y-104028809D02*
X151472619Y-104028809D01*
X151329761Y-103933571D01*
X151234523Y-103838333D01*
X151186904Y-103743095D01*
D11*
X190401666Y-105702619D02*
X190401666Y-105097857D01*
X190764523Y-105823571D02*
X189494523Y-105400238D01*
X190764523Y-104976904D01*
X189917857Y-104553571D02*
X190764523Y-104553571D01*
X190038809Y-104553571D02*
X189978333Y-104493095D01*
X189917857Y-104372142D01*
X189917857Y-104190714D01*
X189978333Y-104069761D01*
X190099285Y-104009285D01*
X190764523Y-104009285D01*
X189917857Y-103585952D02*
X189917857Y-103102142D01*
X189494523Y-103404523D02*
X190583095Y-103404523D01*
X190704047Y-103344047D01*
X190764523Y-103223095D01*
X190764523Y-103102142D01*
X190704047Y-102195000D02*
X190764523Y-102315952D01*
X190764523Y-102557857D01*
X190704047Y-102678809D01*
X190583095Y-102739285D01*
X190099285Y-102739285D01*
X189978333Y-102678809D01*
X189917857Y-102557857D01*
X189917857Y-102315952D01*
X189978333Y-102195000D01*
X190099285Y-102134523D01*
X190220238Y-102134523D01*
X190341190Y-102739285D01*
X189917857Y-101590238D02*
X190764523Y-101590238D01*
X190038809Y-101590238D02*
X189978333Y-101529761D01*
X189917857Y-101408809D01*
X189917857Y-101227380D01*
X189978333Y-101106428D01*
X190099285Y-101045952D01*
X190764523Y-101045952D01*
X189917857Y-100441190D02*
X190764523Y-100441190D01*
X190038809Y-100441190D02*
X189978333Y-100380714D01*
X189917857Y-100259761D01*
X189917857Y-100078333D01*
X189978333Y-99957380D01*
X190099285Y-99896904D01*
X190764523Y-99896904D01*
X190764523Y-98747857D02*
X190099285Y-98747857D01*
X189978333Y-98808333D01*
X189917857Y-98929285D01*
X189917857Y-99171190D01*
X189978333Y-99292142D01*
X190704047Y-98747857D02*
X190764523Y-98868809D01*
X190764523Y-99171190D01*
X190704047Y-99292142D01*
X190583095Y-99352619D01*
X190462142Y-99352619D01*
X190341190Y-99292142D01*
X190280714Y-99171190D01*
X190280714Y-98868809D01*
X190220238Y-98747857D01*
D10*
X186356666Y-66127380D02*
X186356666Y-66841666D01*
X186309047Y-66984523D01*
X186213809Y-67079761D01*
X186070952Y-67127380D01*
X185975714Y-67127380D01*
X186975714Y-66555952D02*
X186880476Y-66508333D01*
X186832857Y-66460714D01*
X186785238Y-66365476D01*
X186785238Y-66317857D01*
X186832857Y-66222619D01*
X186880476Y-66175000D01*
X186975714Y-66127380D01*
X187166190Y-66127380D01*
X187261428Y-66175000D01*
X187309047Y-66222619D01*
X187356666Y-66317857D01*
X187356666Y-66365476D01*
X187309047Y-66460714D01*
X187261428Y-66508333D01*
X187166190Y-66555952D01*
X186975714Y-66555952D01*
X186880476Y-66603571D01*
X186832857Y-66651190D01*
X186785238Y-66746428D01*
X186785238Y-66936904D01*
X186832857Y-67032142D01*
X186880476Y-67079761D01*
X186975714Y-67127380D01*
X187166190Y-67127380D01*
X187261428Y-67079761D01*
X187309047Y-67032142D01*
X187356666Y-66936904D01*
X187356666Y-66746428D01*
X187309047Y-66651190D01*
X187261428Y-66603571D01*
X187166190Y-66555952D01*
X173188333Y-70302380D02*
X172855000Y-69826190D01*
X172616904Y-70302380D02*
X172616904Y-69302380D01*
X172997857Y-69302380D01*
X173093095Y-69350000D01*
X173140714Y-69397619D01*
X173188333Y-69492857D01*
X173188333Y-69635714D01*
X173140714Y-69730952D01*
X173093095Y-69778571D01*
X172997857Y-69826190D01*
X172616904Y-69826190D01*
X174045476Y-69635714D02*
X174045476Y-70302380D01*
X173807380Y-69254761D02*
X173569285Y-69969047D01*
X174188333Y-69969047D01*
X162226666Y-65702380D02*
X162226666Y-66416666D01*
X162179047Y-66559523D01*
X162083809Y-66654761D01*
X161940952Y-66702380D01*
X161845714Y-66702380D01*
X163179047Y-65702380D02*
X162702857Y-65702380D01*
X162655238Y-66178571D01*
X162702857Y-66130952D01*
X162798095Y-66083333D01*
X163036190Y-66083333D01*
X163131428Y-66130952D01*
X163179047Y-66178571D01*
X163226666Y-66273809D01*
X163226666Y-66511904D01*
X163179047Y-66607142D01*
X163131428Y-66654761D01*
X163036190Y-66702380D01*
X162798095Y-66702380D01*
X162702857Y-66654761D01*
X162655238Y-66607142D01*
X115967380Y-70921785D02*
X114967380Y-70921785D01*
X114967380Y-70540833D01*
X115015000Y-70445595D01*
X115062619Y-70397976D01*
X115157857Y-70350357D01*
X115300714Y-70350357D01*
X115395952Y-70397976D01*
X115443571Y-70445595D01*
X115491190Y-70540833D01*
X115491190Y-70921785D01*
X115919761Y-69969404D02*
X115967380Y-69826547D01*
X115967380Y-69588452D01*
X115919761Y-69493214D01*
X115872142Y-69445595D01*
X115776904Y-69397976D01*
X115681666Y-69397976D01*
X115586428Y-69445595D01*
X115538809Y-69493214D01*
X115491190Y-69588452D01*
X115443571Y-69778928D01*
X115395952Y-69874166D01*
X115348333Y-69921785D01*
X115253095Y-69969404D01*
X115157857Y-69969404D01*
X115062619Y-69921785D01*
X115015000Y-69874166D01*
X114967380Y-69778928D01*
X114967380Y-69540833D01*
X115015000Y-69397976D01*
X115967380Y-68445595D02*
X115967380Y-69017023D01*
X115967380Y-68731309D02*
X114967380Y-68731309D01*
X115110238Y-68826547D01*
X115205476Y-68921785D01*
X115253095Y-69017023D01*
X153805833Y-57228630D02*
X153472500Y-56752440D01*
X153234404Y-57228630D02*
X153234404Y-56228630D01*
X153615357Y-56228630D01*
X153710595Y-56276250D01*
X153758214Y-56323869D01*
X153805833Y-56419107D01*
X153805833Y-56561964D01*
X153758214Y-56657202D01*
X153710595Y-56704821D01*
X153615357Y-56752440D01*
X153234404Y-56752440D01*
X154710595Y-56228630D02*
X154234404Y-56228630D01*
X154186785Y-56704821D01*
X154234404Y-56657202D01*
X154329642Y-56609583D01*
X154567738Y-56609583D01*
X154662976Y-56657202D01*
X154710595Y-56704821D01*
X154758214Y-56800059D01*
X154758214Y-57038154D01*
X154710595Y-57133392D01*
X154662976Y-57181011D01*
X154567738Y-57228630D01*
X154329642Y-57228630D01*
X154234404Y-57181011D01*
X154186785Y-57133392D01*
X191647380Y-84153333D02*
X192361666Y-84153333D01*
X192504523Y-84200952D01*
X192599761Y-84296190D01*
X192647380Y-84439047D01*
X192647380Y-84534285D01*
X191647380Y-83248571D02*
X191647380Y-83439047D01*
X191695000Y-83534285D01*
X191742619Y-83581904D01*
X191885476Y-83677142D01*
X192075952Y-83724761D01*
X192456904Y-83724761D01*
X192552142Y-83677142D01*
X192599761Y-83629523D01*
X192647380Y-83534285D01*
X192647380Y-83343809D01*
X192599761Y-83248571D01*
X192552142Y-83200952D01*
X192456904Y-83153333D01*
X192218809Y-83153333D01*
X192123571Y-83200952D01*
X192075952Y-83248571D01*
X192028333Y-83343809D01*
X192028333Y-83534285D01*
X192075952Y-83629523D01*
X192123571Y-83677142D01*
X192218809Y-83724761D01*
X181602142Y-65222380D02*
X181268809Y-64746190D01*
X181030714Y-65222380D02*
X181030714Y-64222380D01*
X181411666Y-64222380D01*
X181506904Y-64270000D01*
X181554523Y-64317619D01*
X181602142Y-64412857D01*
X181602142Y-64555714D01*
X181554523Y-64650952D01*
X181506904Y-64698571D01*
X181411666Y-64746190D01*
X181030714Y-64746190D01*
X182554523Y-65222380D02*
X181983095Y-65222380D01*
X182268809Y-65222380D02*
X182268809Y-64222380D01*
X182173571Y-64365238D01*
X182078333Y-64460476D01*
X181983095Y-64508095D01*
X183459285Y-64222380D02*
X182983095Y-64222380D01*
X182935476Y-64698571D01*
X182983095Y-64650952D01*
X183078333Y-64603333D01*
X183316428Y-64603333D01*
X183411666Y-64650952D01*
X183459285Y-64698571D01*
X183506904Y-64793809D01*
X183506904Y-65031904D01*
X183459285Y-65127142D01*
X183411666Y-65174761D01*
X183316428Y-65222380D01*
X183078333Y-65222380D01*
X182983095Y-65174761D01*
X182935476Y-65127142D01*
X181602142Y-55062380D02*
X181268809Y-54586190D01*
X181030714Y-55062380D02*
X181030714Y-54062380D01*
X181411666Y-54062380D01*
X181506904Y-54110000D01*
X181554523Y-54157619D01*
X181602142Y-54252857D01*
X181602142Y-54395714D01*
X181554523Y-54490952D01*
X181506904Y-54538571D01*
X181411666Y-54586190D01*
X181030714Y-54586190D01*
X182554523Y-55062380D02*
X181983095Y-55062380D01*
X182268809Y-55062380D02*
X182268809Y-54062380D01*
X182173571Y-54205238D01*
X182078333Y-54300476D01*
X181983095Y-54348095D01*
X183506904Y-55062380D02*
X182935476Y-55062380D01*
X183221190Y-55062380D02*
X183221190Y-54062380D01*
X183125952Y-54205238D01*
X183030714Y-54300476D01*
X182935476Y-54348095D01*
X157146666Y-65702380D02*
X157146666Y-66416666D01*
X157099047Y-66559523D01*
X157003809Y-66654761D01*
X156860952Y-66702380D01*
X156765714Y-66702380D01*
X157527619Y-65702380D02*
X158146666Y-65702380D01*
X157813333Y-66083333D01*
X157956190Y-66083333D01*
X158051428Y-66130952D01*
X158099047Y-66178571D01*
X158146666Y-66273809D01*
X158146666Y-66511904D01*
X158099047Y-66607142D01*
X158051428Y-66654761D01*
X157956190Y-66702380D01*
X157670476Y-66702380D01*
X157575238Y-66654761D01*
X157527619Y-66607142D01*
X153805833Y-63578630D02*
X153472500Y-63102440D01*
X153234404Y-63578630D02*
X153234404Y-62578630D01*
X153615357Y-62578630D01*
X153710595Y-62626250D01*
X153758214Y-62673869D01*
X153805833Y-62769107D01*
X153805833Y-62911964D01*
X153758214Y-63007202D01*
X153710595Y-63054821D01*
X153615357Y-63102440D01*
X153234404Y-63102440D01*
X154139166Y-62578630D02*
X154758214Y-62578630D01*
X154424880Y-62959583D01*
X154567738Y-62959583D01*
X154662976Y-63007202D01*
X154710595Y-63054821D01*
X154758214Y-63150059D01*
X154758214Y-63388154D01*
X154710595Y-63483392D01*
X154662976Y-63531011D01*
X154567738Y-63578630D01*
X154282023Y-63578630D01*
X154186785Y-63531011D01*
X154139166Y-63483392D01*
X169846666Y-68257380D02*
X169846666Y-68971666D01*
X169799047Y-69114523D01*
X169703809Y-69209761D01*
X169560952Y-69257380D01*
X169465714Y-69257380D01*
X170275238Y-68352619D02*
X170322857Y-68305000D01*
X170418095Y-68257380D01*
X170656190Y-68257380D01*
X170751428Y-68305000D01*
X170799047Y-68352619D01*
X170846666Y-68447857D01*
X170846666Y-68543095D01*
X170799047Y-68685952D01*
X170227619Y-69257380D01*
X170846666Y-69257380D01*
X180157380Y-93987857D02*
X179681190Y-94321190D01*
X180157380Y-94559285D02*
X179157380Y-94559285D01*
X179157380Y-94178333D01*
X179205000Y-94083095D01*
X179252619Y-94035476D01*
X179347857Y-93987857D01*
X179490714Y-93987857D01*
X179585952Y-94035476D01*
X179633571Y-94083095D01*
X179681190Y-94178333D01*
X179681190Y-94559285D01*
X180157380Y-93035476D02*
X180157380Y-93606904D01*
X180157380Y-93321190D02*
X179157380Y-93321190D01*
X179300238Y-93416428D01*
X179395476Y-93511666D01*
X179443095Y-93606904D01*
X179157380Y-92416428D02*
X179157380Y-92321190D01*
X179205000Y-92225952D01*
X179252619Y-92178333D01*
X179347857Y-92130714D01*
X179538333Y-92083095D01*
X179776428Y-92083095D01*
X179966904Y-92130714D01*
X180062142Y-92178333D01*
X180109761Y-92225952D01*
X180157380Y-92321190D01*
X180157380Y-92416428D01*
X180109761Y-92511666D01*
X180062142Y-92559285D01*
X179966904Y-92606904D01*
X179776428Y-92654523D01*
X179538333Y-92654523D01*
X179347857Y-92606904D01*
X179252619Y-92559285D01*
X179205000Y-92511666D01*
X179157380Y-92416428D01*
X153574761Y-60872619D02*
X153479523Y-60825000D01*
X153384285Y-60729761D01*
X153241428Y-60586904D01*
X153146190Y-60539285D01*
X153050952Y-60539285D01*
X153098571Y-60777380D02*
X153003333Y-60729761D01*
X152908095Y-60634523D01*
X152860476Y-60444047D01*
X152860476Y-60110714D01*
X152908095Y-59920238D01*
X153003333Y-59825000D01*
X153098571Y-59777380D01*
X153289047Y-59777380D01*
X153384285Y-59825000D01*
X153479523Y-59920238D01*
X153527142Y-60110714D01*
X153527142Y-60444047D01*
X153479523Y-60634523D01*
X153384285Y-60729761D01*
X153289047Y-60777380D01*
X153098571Y-60777380D01*
X154479523Y-60777380D02*
X153908095Y-60777380D01*
X154193809Y-60777380D02*
X154193809Y-59777380D01*
X154098571Y-59920238D01*
X154003333Y-60015476D01*
X153908095Y-60063095D01*
X181602142Y-57602380D02*
X181268809Y-57126190D01*
X181030714Y-57602380D02*
X181030714Y-56602380D01*
X181411666Y-56602380D01*
X181506904Y-56650000D01*
X181554523Y-56697619D01*
X181602142Y-56792857D01*
X181602142Y-56935714D01*
X181554523Y-57030952D01*
X181506904Y-57078571D01*
X181411666Y-57126190D01*
X181030714Y-57126190D01*
X182554523Y-57602380D02*
X181983095Y-57602380D01*
X182268809Y-57602380D02*
X182268809Y-56602380D01*
X182173571Y-56745238D01*
X182078333Y-56840476D01*
X181983095Y-56888095D01*
X182935476Y-56697619D02*
X182983095Y-56650000D01*
X183078333Y-56602380D01*
X183316428Y-56602380D01*
X183411666Y-56650000D01*
X183459285Y-56697619D01*
X183506904Y-56792857D01*
X183506904Y-56888095D01*
X183459285Y-57030952D01*
X182887857Y-57602380D01*
X183506904Y-57602380D01*
X182697380Y-93511666D02*
X182221190Y-93845000D01*
X182697380Y-94083095D02*
X181697380Y-94083095D01*
X181697380Y-93702142D01*
X181745000Y-93606904D01*
X181792619Y-93559285D01*
X181887857Y-93511666D01*
X182030714Y-93511666D01*
X182125952Y-93559285D01*
X182173571Y-93606904D01*
X182221190Y-93702142D01*
X182221190Y-94083095D01*
X182697380Y-93035476D02*
X182697380Y-92845000D01*
X182649761Y-92749761D01*
X182602142Y-92702142D01*
X182459285Y-92606904D01*
X182268809Y-92559285D01*
X181887857Y-92559285D01*
X181792619Y-92606904D01*
X181745000Y-92654523D01*
X181697380Y-92749761D01*
X181697380Y-92940238D01*
X181745000Y-93035476D01*
X181792619Y-93083095D01*
X181887857Y-93130714D01*
X182125952Y-93130714D01*
X182221190Y-93083095D01*
X182268809Y-93035476D01*
X182316428Y-92940238D01*
X182316428Y-92749761D01*
X182268809Y-92654523D01*
X182221190Y-92606904D01*
X182125952Y-92559285D01*
X171918333Y-82907142D02*
X171870714Y-82954761D01*
X171727857Y-83002380D01*
X171632619Y-83002380D01*
X171489761Y-82954761D01*
X171394523Y-82859523D01*
X171346904Y-82764285D01*
X171299285Y-82573809D01*
X171299285Y-82430952D01*
X171346904Y-82240476D01*
X171394523Y-82145238D01*
X171489761Y-82050000D01*
X171632619Y-82002380D01*
X171727857Y-82002380D01*
X171870714Y-82050000D01*
X171918333Y-82097619D01*
X172870714Y-83002380D02*
X172299285Y-83002380D01*
X172585000Y-83002380D02*
X172585000Y-82002380D01*
X172489761Y-82145238D01*
X172394523Y-82240476D01*
X172299285Y-82288095D01*
X187626666Y-52792380D02*
X187626666Y-53506666D01*
X187579047Y-53649523D01*
X187483809Y-53744761D01*
X187340952Y-53792380D01*
X187245714Y-53792380D01*
X188150476Y-53792380D02*
X188340952Y-53792380D01*
X188436190Y-53744761D01*
X188483809Y-53697142D01*
X188579047Y-53554285D01*
X188626666Y-53363809D01*
X188626666Y-52982857D01*
X188579047Y-52887619D01*
X188531428Y-52840000D01*
X188436190Y-52792380D01*
X188245714Y-52792380D01*
X188150476Y-52840000D01*
X188102857Y-52887619D01*
X188055238Y-52982857D01*
X188055238Y-53220952D01*
X188102857Y-53316190D01*
X188150476Y-53363809D01*
X188245714Y-53411428D01*
X188436190Y-53411428D01*
X188531428Y-53363809D01*
X188579047Y-53316190D01*
X188626666Y-53220952D01*
X171918333Y-81097380D02*
X171585000Y-80621190D01*
X171346904Y-81097380D02*
X171346904Y-80097380D01*
X171727857Y-80097380D01*
X171823095Y-80145000D01*
X171870714Y-80192619D01*
X171918333Y-80287857D01*
X171918333Y-80430714D01*
X171870714Y-80525952D01*
X171823095Y-80573571D01*
X171727857Y-80621190D01*
X171346904Y-80621190D01*
X172299285Y-80192619D02*
X172346904Y-80145000D01*
X172442142Y-80097380D01*
X172680238Y-80097380D01*
X172775476Y-80145000D01*
X172823095Y-80192619D01*
X172870714Y-80287857D01*
X172870714Y-80383095D01*
X172823095Y-80525952D01*
X172251666Y-81097380D01*
X172870714Y-81097380D01*
X185237380Y-93511666D02*
X184761190Y-93845000D01*
X185237380Y-94083095D02*
X184237380Y-94083095D01*
X184237380Y-93702142D01*
X184285000Y-93606904D01*
X184332619Y-93559285D01*
X184427857Y-93511666D01*
X184570714Y-93511666D01*
X184665952Y-93559285D01*
X184713571Y-93606904D01*
X184761190Y-93702142D01*
X184761190Y-94083095D01*
X184665952Y-92940238D02*
X184618333Y-93035476D01*
X184570714Y-93083095D01*
X184475476Y-93130714D01*
X184427857Y-93130714D01*
X184332619Y-93083095D01*
X184285000Y-93035476D01*
X184237380Y-92940238D01*
X184237380Y-92749761D01*
X184285000Y-92654523D01*
X184332619Y-92606904D01*
X184427857Y-92559285D01*
X184475476Y-92559285D01*
X184570714Y-92606904D01*
X184618333Y-92654523D01*
X184665952Y-92749761D01*
X184665952Y-92940238D01*
X184713571Y-93035476D01*
X184761190Y-93083095D01*
X184856428Y-93130714D01*
X185046904Y-93130714D01*
X185142142Y-93083095D01*
X185189761Y-93035476D01*
X185237380Y-92940238D01*
X185237380Y-92749761D01*
X185189761Y-92654523D01*
X185142142Y-92606904D01*
X185046904Y-92559285D01*
X184856428Y-92559285D01*
X184761190Y-92606904D01*
X184713571Y-92654523D01*
X184665952Y-92749761D01*
X160528095Y-71657380D02*
X160528095Y-72466904D01*
X160575714Y-72562142D01*
X160623333Y-72609761D01*
X160718571Y-72657380D01*
X160909047Y-72657380D01*
X161004285Y-72609761D01*
X161051904Y-72562142D01*
X161099523Y-72466904D01*
X161099523Y-71657380D01*
X161528095Y-71752619D02*
X161575714Y-71705000D01*
X161670952Y-71657380D01*
X161909047Y-71657380D01*
X162004285Y-71705000D01*
X162051904Y-71752619D01*
X162099523Y-71847857D01*
X162099523Y-71943095D01*
X162051904Y-72085952D01*
X161480476Y-72657380D01*
X162099523Y-72657380D01*
X111212380Y-65103333D02*
X111926666Y-65103333D01*
X112069523Y-65150952D01*
X112164761Y-65246190D01*
X112212380Y-65389047D01*
X112212380Y-65484285D01*
X112212380Y-64103333D02*
X112212380Y-64674761D01*
X112212380Y-64389047D02*
X111212380Y-64389047D01*
X111355238Y-64484285D01*
X111450476Y-64579523D01*
X111498095Y-64674761D01*
D12*
X190600000Y-90397064D02*
X190600000Y-89942936D01*
X189130000Y-90397064D02*
X189130000Y-89942936D01*
X175200000Y-72385000D02*
X175200000Y-74985000D01*
X177860000Y-72385000D02*
X177860000Y-74985000D01*
X175200000Y-72385000D02*
X177860000Y-72385000D01*
X175200000Y-71115000D02*
X175200000Y-69785000D01*
X175200000Y-74985000D02*
X177860000Y-74985000D01*
X175200000Y-69785000D02*
X176530000Y-69785000D01*
X188060000Y-90397064D02*
X188060000Y-89942936D01*
X186590000Y-90397064D02*
X186590000Y-89942936D01*
X157540000Y-54610000D02*
X157540000Y-54670000D01*
X154880000Y-53340000D02*
X154880000Y-52010000D01*
X154880000Y-52010000D02*
X156210000Y-52010000D01*
X154880000Y-54610000D02*
X157540000Y-54610000D01*
X154880000Y-54670000D02*
X157540000Y-54670000D01*
X154880000Y-54610000D02*
X154880000Y-54670000D01*
X159325000Y-57240000D02*
X159325000Y-62140000D01*
X164525000Y-57240000D02*
X159325000Y-57240000D01*
X159325000Y-62140000D02*
X164525000Y-62140000D01*
X164525000Y-62140000D02*
X164525000Y-60690000D01*
X164525000Y-58690000D02*
X164525000Y-57240000D01*
X164525000Y-58690000D02*
G75*
G03*
X164525000Y-60690000I0J-1000000D01*
G01*
X168910000Y-55880000D02*
X168910000Y-53280000D01*
X171510000Y-53280000D02*
X171510000Y-66100000D01*
X166310000Y-53280000D02*
X167640000Y-53280000D01*
X166310000Y-55880000D02*
X168910000Y-55880000D01*
X166310000Y-55880000D02*
X166310000Y-66100000D01*
X168910000Y-53280000D02*
X171510000Y-53280000D01*
X166310000Y-66100000D02*
X171510000Y-66100000D01*
X166310000Y-54610000D02*
X166310000Y-53280000D01*
X179117258Y-60212500D02*
X178642742Y-60212500D01*
X179117258Y-59167500D02*
X178642742Y-59167500D01*
X179117258Y-62752500D02*
X178642742Y-62752500D01*
X179117258Y-61707500D02*
X178642742Y-61707500D01*
X174862258Y-78217500D02*
X174387742Y-78217500D01*
X174862258Y-79262500D02*
X174387742Y-79262500D01*
D11*
X118429000Y-114386000D02*
X106629000Y-114386000D01*
X193190000Y-93195000D02*
X193190000Y-111195000D01*
X187325000Y-88205000D02*
X187325000Y-116205000D01*
X106629000Y-114386000D02*
X106629000Y-98386000D01*
X112325000Y-88205000D02*
X112325000Y-116205000D01*
X112325000Y-116205000D02*
X187325000Y-116205000D01*
X118645000Y-88205000D02*
X187325000Y-88205000D01*
X106629000Y-98386000D02*
X118429000Y-98386000D01*
X187190000Y-93195000D02*
X187190000Y-111195000D01*
X193190000Y-111195000D02*
X186570000Y-111195000D01*
X193190000Y-93195000D02*
X186570000Y-93195000D01*
X118645000Y-88205000D02*
X112325000Y-88205000D01*
D12*
X193005000Y-69890000D02*
X195005000Y-69890000D01*
X195005000Y-74890000D02*
X195005000Y-69890000D01*
X193005000Y-74890000D02*
X195005000Y-74890000D01*
X193005000Y-75490000D02*
X193005000Y-74890000D01*
X193005000Y-75490000D02*
X190630000Y-75490000D01*
X182480000Y-69290000D02*
X193005000Y-69290000D01*
X182030000Y-75490000D02*
X182030000Y-76890000D01*
X182030000Y-75490000D02*
X180905000Y-75490000D01*
X185980000Y-75490000D02*
X183580000Y-75490000D01*
X180905000Y-69290000D02*
X180905000Y-75490000D01*
X183580000Y-75490000D02*
X183580000Y-76890000D01*
X193005000Y-69890000D02*
X193005000Y-69290000D01*
X188980000Y-75490000D02*
X187630000Y-75490000D01*
X172832500Y-72627258D02*
X172832500Y-72152742D01*
X173877500Y-72627258D02*
X173877500Y-72152742D01*
X163890000Y-69850000D02*
X163890000Y-69910000D01*
X161230000Y-69910000D02*
X163890000Y-69910000D01*
X161230000Y-68580000D02*
X161230000Y-67250000D01*
X161230000Y-69850000D02*
X161230000Y-69910000D01*
X161230000Y-67250000D02*
X162560000Y-67250000D01*
X161230000Y-69850000D02*
X163890000Y-69850000D01*
X116635000Y-81827500D02*
X153875000Y-81827500D01*
X118015000Y-82207500D02*
X124015000Y-82207500D01*
X153875000Y-81827500D02*
X153875000Y-57587500D01*
X116635000Y-57587500D02*
X116635000Y-81827500D01*
X116635000Y-57587500D02*
X153875000Y-57587500D01*
X156275242Y-56253750D02*
X156749758Y-56253750D01*
X156275242Y-57298750D02*
X156749758Y-57298750D01*
X191195000Y-83820000D02*
X191195000Y-86420000D01*
X191195000Y-86420000D02*
X178375000Y-86420000D01*
X188595000Y-83820000D02*
X191195000Y-83820000D01*
X189865000Y-81220000D02*
X191195000Y-81220000D01*
X178375000Y-81220000D02*
X178375000Y-86420000D01*
X191195000Y-81220000D02*
X191195000Y-82550000D01*
X188595000Y-81220000D02*
X178375000Y-81220000D01*
X188595000Y-81220000D02*
X188595000Y-83820000D01*
X179117258Y-64247500D02*
X178642742Y-64247500D01*
X179117258Y-65292500D02*
X178642742Y-65292500D01*
X179117258Y-54087500D02*
X178642742Y-54087500D01*
X179117258Y-55132500D02*
X178642742Y-55132500D01*
X158810000Y-69850000D02*
X158810000Y-69910000D01*
X156150000Y-67250000D02*
X157480000Y-67250000D01*
X156150000Y-68580000D02*
X156150000Y-67250000D01*
X156150000Y-69910000D02*
X158810000Y-69910000D01*
X156150000Y-69850000D02*
X158810000Y-69850000D01*
X156150000Y-69850000D02*
X156150000Y-69910000D01*
X156749758Y-62603750D02*
X156275242Y-62603750D01*
X156749758Y-63648750D02*
X156275242Y-63648750D01*
X168850000Y-69805000D02*
X170180000Y-69805000D01*
X168850000Y-71135000D02*
X168850000Y-69805000D01*
X168850000Y-77545000D02*
X171510000Y-77545000D01*
X168850000Y-72405000D02*
X171510000Y-72405000D01*
X168850000Y-72405000D02*
X168850000Y-77545000D01*
X171510000Y-72405000D02*
X171510000Y-77545000D01*
X180440000Y-90397064D02*
X180440000Y-89942936D01*
X178970000Y-90397064D02*
X178970000Y-89942936D01*
X156512500Y-61511250D02*
X155862500Y-61511250D01*
X156512500Y-58391250D02*
X157162500Y-58391250D01*
X156512500Y-61511250D02*
X158187500Y-61511250D01*
X156512500Y-58391250D02*
X155862500Y-58391250D01*
X179117258Y-57672500D02*
X178642742Y-57672500D01*
X179117258Y-56627500D02*
X178642742Y-56627500D01*
X181510000Y-90397064D02*
X181510000Y-89942936D01*
X182980000Y-90397064D02*
X182980000Y-89942936D01*
X174862258Y-83072500D02*
X174387742Y-83072500D01*
X174862258Y-82027500D02*
X174387742Y-82027500D01*
X191770000Y-54610000D02*
X184150000Y-54610000D01*
X184150000Y-54610000D02*
X184150000Y-64770000D01*
X191770000Y-64770000D02*
X191770000Y-54610000D01*
X185420000Y-64770000D02*
X185420000Y-54610000D01*
X184150000Y-64770000D02*
X191770000Y-64770000D01*
X174387742Y-81167500D02*
X174862258Y-81167500D01*
X174387742Y-80122500D02*
X174862258Y-80122500D01*
X184050000Y-90397064D02*
X184050000Y-89942936D01*
X185520000Y-90397064D02*
X185520000Y-89942936D01*
X161290000Y-73045000D02*
X163240000Y-73045000D01*
X161290000Y-73045000D02*
X157840000Y-73045000D01*
X161290000Y-83165000D02*
X163240000Y-83165000D01*
X161290000Y-83165000D02*
X159340000Y-83165000D01*
X109085000Y-63500000D02*
X109085000Y-53340000D01*
X107815000Y-53340000D02*
X107815000Y-63500000D01*
X107815000Y-63500000D02*
X115435000Y-63500000D01*
X115435000Y-53340000D02*
X107815000Y-53340000D01*
X115435000Y-63500000D02*
X115435000Y-53340000D01*
%LPC*%
D13*
X189865000Y-91082500D03*
X189865000Y-89257500D03*
D14*
X176530000Y-71115000D03*
D15*
X176530000Y-73655000D03*
D13*
X187325000Y-91082500D03*
X187325000Y-89257500D03*
D14*
X156210000Y-53340000D03*
D16*
X163195000Y-55880000D03*
X160655000Y-55880000D03*
X160655000Y-63500000D03*
X163195000Y-63500000D03*
D14*
X167640000Y-54610000D03*
D15*
X170180000Y-54610000D03*
X167640000Y-57150000D03*
X170180000Y-57150000D03*
X167640000Y-59690000D03*
X170180000Y-59690000D03*
X167640000Y-62230000D03*
X170180000Y-62230000D03*
X167640000Y-64770000D03*
X170180000Y-64770000D03*
D17*
X179705000Y-59690000D03*
X178055000Y-59690000D03*
X179705000Y-62230000D03*
X178055000Y-62230000D03*
X175450000Y-78740000D03*
X173800000Y-78740000D03*
D18*
X159255000Y-89495000D03*
D19*
X156715000Y-89495000D03*
X154175000Y-89495000D03*
X151635000Y-89495000D03*
X149095000Y-89495000D03*
X146555000Y-89495000D03*
X144015000Y-89495000D03*
X141475000Y-89495000D03*
X138935000Y-89495000D03*
X136395000Y-89495000D03*
X136395000Y-114895000D03*
X138935000Y-114895000D03*
X141475000Y-114895000D03*
X144015000Y-114895000D03*
X146555000Y-114895000D03*
X149095000Y-114895000D03*
X151635000Y-114895000D03*
X154175000Y-114895000D03*
X156715000Y-114895000D03*
X159255000Y-114895000D03*
D20*
X191405000Y-72390000D03*
X184405000Y-72390000D03*
D21*
X186805000Y-75640000D03*
X189805000Y-75640000D03*
X181705000Y-69140000D03*
X182805000Y-75640000D03*
D22*
X173355000Y-73215000D03*
X173355000Y-71565000D03*
D14*
X162560000Y-68580000D03*
D23*
X120015000Y-78597500D03*
D24*
X125095000Y-78597500D03*
X150495000Y-78597500D03*
X150495000Y-60817500D03*
X145415000Y-60817500D03*
D25*
X155687500Y-56776250D03*
X157337500Y-56776250D03*
D14*
X189865000Y-82550000D03*
D15*
X189865000Y-85090000D03*
X187325000Y-82550000D03*
X187325000Y-85090000D03*
X184785000Y-82550000D03*
X184785000Y-85090000D03*
X182245000Y-82550000D03*
X182245000Y-85090000D03*
X179705000Y-82550000D03*
X179705000Y-85090000D03*
D17*
X179705000Y-64770000D03*
X178055000Y-64770000D03*
X179705000Y-54610000D03*
X178055000Y-54610000D03*
D14*
X157480000Y-68580000D03*
D17*
X157337500Y-63126250D03*
X155687500Y-63126250D03*
D14*
X170180000Y-71135000D03*
D15*
X170180000Y-73675000D03*
X170180000Y-76215000D03*
D13*
X179705000Y-91082500D03*
X179705000Y-89257500D03*
D26*
X157450000Y-60901250D03*
X157450000Y-59001250D03*
X155575000Y-59951250D03*
D17*
X179705000Y-57150000D03*
X178055000Y-57150000D03*
D13*
X182245000Y-91082500D03*
X182245000Y-89257500D03*
D17*
X175450000Y-82550000D03*
X173800000Y-82550000D03*
D27*
X187960000Y-57150000D03*
D28*
X187960000Y-62230000D03*
D25*
X173800000Y-80645000D03*
X175450000Y-80645000D03*
D13*
X184785000Y-91082500D03*
X184785000Y-89257500D03*
D29*
X158815000Y-73660000D03*
X158815000Y-74930000D03*
X158815000Y-76200000D03*
X158815000Y-77470000D03*
X158815000Y-78740000D03*
X158815000Y-80010000D03*
X158815000Y-81280000D03*
X158815000Y-82550000D03*
X163765000Y-82550000D03*
X163765000Y-81280000D03*
X163765000Y-80010000D03*
X163765000Y-78740000D03*
X163765000Y-77470000D03*
X163765000Y-76200000D03*
X163765000Y-74930000D03*
X163765000Y-73660000D03*
D27*
X111625000Y-55880000D03*
D28*
X111625000Y-60960000D03*
M02*
