G04 #@! TF.GenerationSoftware,KiCad,Pcbnew,(6.0.0-0)*
G04 #@! TF.CreationDate,2022-10-12T14:44:47+02:00*
G04 #@! TF.ProjectId,prototype-2,70726f74-6f74-4797-9065-2d322e6b6963,rev?*
G04 #@! TF.SameCoordinates,Original*
G04 #@! TF.FileFunction,Paste,Top*
G04 #@! TF.FilePolarity,Positive*
%FSLAX46Y46*%
G04 Gerber Fmt 4.6, Leading zero omitted, Abs format (unit mm)*
G04 Created by KiCad (PCBNEW (6.0.0-0)) date 2022-10-12 14:44:47*
%MOMM*%
%LPD*%
G01*
G04 APERTURE LIST*
G04 Aperture macros list*
%AMRoundRect*
0 Rectangle with rounded corners*
0 $1 Rounding radius*
0 $2 $3 $4 $5 $6 $7 $8 $9 X,Y pos of 4 corners*
0 Add a 4 corners polygon primitive as box body*
4,1,4,$2,$3,$4,$5,$6,$7,$8,$9,$2,$3,0*
0 Add four circle primitives for the rounded corners*
1,1,$1+$1,$2,$3*
1,1,$1+$1,$4,$5*
1,1,$1+$1,$6,$7*
1,1,$1+$1,$8,$9*
0 Add four rect primitives between the rounded corners*
20,1,$1+$1,$2,$3,$4,$5,0*
20,1,$1+$1,$4,$5,$6,$7,0*
20,1,$1+$1,$6,$7,$8,$9,0*
20,1,$1+$1,$8,$9,$2,$3,0*%
G04 Aperture macros list end*
%ADD10RoundRect,0.250000X0.450000X-0.262500X0.450000X0.262500X-0.450000X0.262500X-0.450000X-0.262500X0*%
%ADD11R,1.780000X2.000000*%
%ADD12RoundRect,0.200000X0.200000X0.275000X-0.200000X0.275000X-0.200000X-0.275000X0.200000X-0.275000X0*%
%ADD13R,1.200000X2.500000*%
%ADD14RoundRect,0.200000X0.275000X-0.200000X0.275000X0.200000X-0.275000X0.200000X-0.275000X-0.200000X0*%
%ADD15RoundRect,0.200000X-0.200000X-0.275000X0.200000X-0.275000X0.200000X0.275000X-0.200000X0.275000X0*%
%ADD16RoundRect,0.150000X0.587500X0.150000X-0.587500X0.150000X-0.587500X-0.150000X0.587500X-0.150000X0*%
%ADD17RoundRect,0.150000X-0.825000X-0.150000X0.825000X-0.150000X0.825000X0.150000X-0.825000X0.150000X0*%
G04 APERTURE END LIST*
D10*
X189865000Y-91082500D03*
X189865000Y-89257500D03*
X187325000Y-91082500D03*
X187325000Y-89257500D03*
D11*
X163195000Y-55880000D03*
X160655000Y-55880000D03*
X160655000Y-63500000D03*
X163195000Y-63500000D03*
D12*
X179705000Y-59690000D03*
X178055000Y-59690000D03*
X179705000Y-62230000D03*
X178055000Y-62230000D03*
X175450000Y-78740000D03*
X173800000Y-78740000D03*
D13*
X186805000Y-75640000D03*
X189805000Y-75640000D03*
X181705000Y-69140000D03*
X182805000Y-75640000D03*
D14*
X173355000Y-73215000D03*
X173355000Y-71565000D03*
D15*
X155687500Y-56776250D03*
X157337500Y-56776250D03*
D12*
X179705000Y-64770000D03*
X178055000Y-64770000D03*
X179705000Y-54610000D03*
X178055000Y-54610000D03*
X157337500Y-63126250D03*
X155687500Y-63126250D03*
D10*
X179705000Y-91082500D03*
X179705000Y-89257500D03*
D16*
X157450000Y-60901250D03*
X157450000Y-59001250D03*
X155575000Y-59951250D03*
D12*
X179705000Y-57150000D03*
X178055000Y-57150000D03*
D10*
X182245000Y-91082500D03*
X182245000Y-89257500D03*
D12*
X175450000Y-82550000D03*
X173800000Y-82550000D03*
D15*
X173800000Y-80645000D03*
X175450000Y-80645000D03*
D10*
X184785000Y-91082500D03*
X184785000Y-89257500D03*
D17*
X158815000Y-73660000D03*
X158815000Y-74930000D03*
X158815000Y-76200000D03*
X158815000Y-77470000D03*
X158815000Y-78740000D03*
X158815000Y-80010000D03*
X158815000Y-81280000D03*
X158815000Y-82550000D03*
X163765000Y-82550000D03*
X163765000Y-81280000D03*
X163765000Y-80010000D03*
X163765000Y-78740000D03*
X163765000Y-77470000D03*
X163765000Y-76200000D03*
X163765000Y-74930000D03*
X163765000Y-73660000D03*
M02*
