M48
; DRILL file {KiCad (6.0.0-0)} date 2022 October 12, Wednesday 14:45:15
; FORMAT={-:-/ absolute / metric / decimal}
; #@! TF.CreationDate,2022-10-12T14:45:15+02:00
; #@! TF.GenerationSoftware,Kicad,Pcbnew,(6.0.0-0)
; #@! TF.FileFunction,Plated,1,2,PTH
FMAT,2
METRIC
; #@! TA.AperFunction,Plated,PTH,ViaDrill
T1C0.400
; #@! TA.AperFunction,Plated,PTH,ComponentDrill
T2C0.760
; #@! TA.AperFunction,Plated,PTH,ComponentDrill
T3C0.800
; #@! TA.AperFunction,Plated,PTH,ComponentDrill
T4C1.000
; #@! TA.AperFunction,Plated,PTH,ComponentDrill
T5C1.520
%
G90
G05
T1
X155.575Y-65.405
X158.75Y-106.045
X160.655Y-53.34
X163.83Y-66.04
X166.37Y-74.93
X173.355Y-76.2
X177.165Y-89.535
T2
X145.415Y-60.817
X150.495Y-60.817
X150.495Y-78.597
T3
X120.015Y-78.597
X125.095Y-78.597
T4
X136.395Y-89.495
X136.395Y-114.895
X138.935Y-89.495
X138.935Y-114.895
X141.475Y-89.495
X141.475Y-114.895
X144.015Y-89.495
X144.015Y-114.895
X146.555Y-89.495
X146.555Y-114.895
X149.095Y-89.495
X149.095Y-114.895
X151.635Y-89.495
X151.635Y-114.895
X154.175Y-89.495
X154.175Y-114.895
X156.21Y-53.34
X156.715Y-89.495
X156.715Y-114.895
X157.48Y-68.58
X159.255Y-89.495
X159.255Y-114.895
X162.56Y-68.58
X167.64Y-54.61
X167.64Y-57.15
X167.64Y-59.69
X167.64Y-62.23
X167.64Y-64.77
X170.18Y-54.61
X170.18Y-57.15
X170.18Y-59.69
X170.18Y-62.23
X170.18Y-64.77
X170.18Y-71.135
X170.18Y-73.675
X170.18Y-76.215
X176.53Y-71.115
X176.53Y-73.655
X179.705Y-82.55
X179.705Y-85.09
X182.245Y-82.55
X182.245Y-85.09
X184.785Y-82.55
X184.785Y-85.09
X187.325Y-82.55
X187.325Y-85.09
X189.865Y-82.55
X189.865Y-85.09
T5
X111.625Y-55.88
X111.625Y-60.96
X187.96Y-57.15
X187.96Y-62.23
T0
M30
