G04 #@! TF.GenerationSoftware,KiCad,Pcbnew,(6.0.0-0)*
G04 #@! TF.CreationDate,2022-10-12T14:44:47+02:00*
G04 #@! TF.ProjectId,prototype-2,70726f74-6f74-4797-9065-2d322e6b6963,rev?*
G04 #@! TF.SameCoordinates,Original*
G04 #@! TF.FileFunction,Soldermask,Bot*
G04 #@! TF.FilePolarity,Negative*
%FSLAX46Y46*%
G04 Gerber Fmt 4.6, Leading zero omitted, Abs format (unit mm)*
G04 Created by KiCad (PCBNEW (6.0.0-0)) date 2022-10-12 14:44:47*
%MOMM*%
%LPD*%
G01*
G04 APERTURE LIST*
%ADD10R,1.700000X1.700000*%
%ADD11O,1.700000X1.700000*%
%ADD12R,1.778000X1.778000*%
%ADD13C,1.778000*%
%ADD14C,1.500000*%
%ADD15R,2.000000X2.300000*%
%ADD16C,2.300000*%
%ADD17R,3.000000X3.000000*%
%ADD18C,3.000000*%
G04 APERTURE END LIST*
D10*
X176530000Y-71115000D03*
D11*
X176530000Y-73655000D03*
D10*
X156210000Y-53340000D03*
X167640000Y-54610000D03*
D11*
X170180000Y-54610000D03*
X167640000Y-57150000D03*
X170180000Y-57150000D03*
X167640000Y-59690000D03*
X170180000Y-59690000D03*
X167640000Y-62230000D03*
X170180000Y-62230000D03*
X167640000Y-64770000D03*
X170180000Y-64770000D03*
D12*
X159255000Y-89495000D03*
D13*
X156715000Y-89495000D03*
X154175000Y-89495000D03*
X151635000Y-89495000D03*
X149095000Y-89495000D03*
X146555000Y-89495000D03*
X144015000Y-89495000D03*
X141475000Y-89495000D03*
X138935000Y-89495000D03*
X136395000Y-89495000D03*
X136395000Y-114895000D03*
X138935000Y-114895000D03*
X141475000Y-114895000D03*
X144015000Y-114895000D03*
X146555000Y-114895000D03*
X149095000Y-114895000D03*
X151635000Y-114895000D03*
X154175000Y-114895000D03*
X156715000Y-114895000D03*
X159255000Y-114895000D03*
D14*
X191405000Y-72390000D03*
X184405000Y-72390000D03*
D10*
X162560000Y-68580000D03*
D15*
X120015000Y-78597500D03*
D16*
X125095000Y-78597500D03*
X150495000Y-78597500D03*
X150495000Y-60817500D03*
X145415000Y-60817500D03*
D10*
X189865000Y-82550000D03*
D11*
X189865000Y-85090000D03*
X187325000Y-82550000D03*
X187325000Y-85090000D03*
X184785000Y-82550000D03*
X184785000Y-85090000D03*
X182245000Y-82550000D03*
X182245000Y-85090000D03*
X179705000Y-82550000D03*
X179705000Y-85090000D03*
D10*
X157480000Y-68580000D03*
X170180000Y-71135000D03*
D11*
X170180000Y-73675000D03*
X170180000Y-76215000D03*
D17*
X187960000Y-57150000D03*
D18*
X187960000Y-62230000D03*
D17*
X111625000Y-55880000D03*
D18*
X111625000Y-60960000D03*
M02*
