%TF.GenerationSoftware,KiCad,Pcbnew,(7.0.0)*%
%TF.CreationDate,2024-03-10T18:27:09+01:00*%
%TF.ProjectId,bed-smart-plug,6265642d-736d-4617-9274-2d706c75672e,rev?*%
%TF.SameCoordinates,Original*%
%TF.FileFunction,Copper,L2,Bot*%
%TF.FilePolarity,Positive*%
%FSLAX46Y46*%
G04 Gerber Fmt 4.6, Leading zero omitted, Abs format (unit mm)*
G04 Created by KiCad (PCBNEW (7.0.0)) date 2024-03-10 18:27:09*
%MOMM*%
%LPD*%
G01*
G04 APERTURE LIST*
%TA.AperFunction,ComponentPad*%
%ADD10R,3.000000X3.000000*%
%TD*%
%TA.AperFunction,ComponentPad*%
%ADD11C,3.000000*%
%TD*%
%TA.AperFunction,ComponentPad*%
%ADD12C,6.400000*%
%TD*%
%TA.AperFunction,ComponentPad*%
%ADD13R,1.778000X1.778000*%
%TD*%
%TA.AperFunction,ComponentPad*%
%ADD14C,1.778000*%
%TD*%
%TA.AperFunction,ComponentPad*%
%ADD15R,2.000000X1.905000*%
%TD*%
%TA.AperFunction,ComponentPad*%
%ADD16O,2.000000X1.905000*%
%TD*%
%TA.AperFunction,ComponentPad*%
%ADD17R,2.300000X2.000000*%
%TD*%
%TA.AperFunction,ComponentPad*%
%ADD18C,2.300000*%
%TD*%
%TA.AperFunction,ComponentPad*%
%ADD19C,6.000000*%
%TD*%
%TA.AperFunction,ComponentPad*%
%ADD20C,8.000000*%
%TD*%
%TA.AperFunction,ViaPad*%
%ADD21C,0.800000*%
%TD*%
%TA.AperFunction,ViaPad*%
%ADD22C,1.200000*%
%TD*%
%TA.AperFunction,Conductor*%
%ADD23C,0.250000*%
%TD*%
%TA.AperFunction,Conductor*%
%ADD24C,1.000000*%
%TD*%
G04 APERTURE END LIST*
D10*
%TO.P,J2,1,Pin_1*%
%TO.N,LINE*%
X139779999Y-55499999D03*
D11*
%TO.P,J2,2,Pin_2*%
%TO.N,NEUT*%
X144860000Y-55500000D03*
%TO.P,J2,3,Pin_3*%
%TO.N,Net-(J2-Pin_3)*%
X149940000Y-55500000D03*
%TO.P,J2,4,Pin_4*%
%TO.N,Net-(J2-Pin_4)*%
X155020000Y-55500000D03*
%TO.P,J2,5,Pin_5*%
%TO.N,Net-(J2-Pin_5)*%
X160100000Y-55500000D03*
%TO.P,J2,6,Pin_6*%
%TO.N,Net-(J2-Pin_6)*%
X165180000Y-55500000D03*
%TD*%
D12*
%TO.P,,1*%
%TO.N,N/C*%
X209275000Y-115725000D03*
%TD*%
D13*
%TO.P,U1,1,+5V*%
%TO.N,+5V*%
X177134999Y-86729999D03*
D14*
%TO.P,U1,2,+3.3V_(out)*%
%TO.N,+3V3*%
X179675000Y-86730000D03*
%TO.P,U1,3,GND*%
%TO.N,GND*%
X182215000Y-86730000D03*
%TO.P,U1,4,ESP_EN*%
%TO.N,unconnected-(U1-ESP_EN-Pad4)*%
X184755000Y-86730000D03*
%TO.P,U1,5,GPIO0*%
%TO.N,unconnected-(U1-GPIO0-Pad5)*%
X187295000Y-86730000D03*
%TO.P,U1,6,GPIO1*%
%TO.N,unconnected-(U1-GPIO1-Pad6)*%
X189835000Y-86730000D03*
%TO.P,U1,7,GPIO2*%
%TO.N,Net-(U1-GPIO2)*%
X192375000Y-86730000D03*
%TO.P,U1,8,GPIO3*%
%TO.N,Net-(U1-GPIO3)*%
X194915000Y-86730000D03*
%TO.P,U1,9,GPIO4*%
%TO.N,Net-(U1-GPIO4)*%
X197455000Y-86730000D03*
%TO.P,U1,10,GPIO5*%
%TO.N,Net-(U1-GPIO5)*%
X199995000Y-86730000D03*
%TO.P,U1,11,GPIO13*%
%TO.N,Net-(U1-GPIO13)*%
X199995000Y-61330000D03*
%TO.P,U1,12,GPIO14*%
%TO.N,unconnected-(U1-GPIO14-Pad12)*%
X197455000Y-61330000D03*
%TO.P,U1,13,GPIO15*%
%TO.N,unconnected-(U1-GPIO15-Pad13)*%
X194915000Y-61330000D03*
%TO.P,U1,14,GPIO16*%
%TO.N,unconnected-(U1-GPIO16-Pad14)*%
X192375000Y-61330000D03*
%TO.P,U1,15,GPIO32*%
%TO.N,unconnected-(U1-GPIO32-Pad15)*%
X189835000Y-61330000D03*
%TO.P,U1,16,GPIO33*%
%TO.N,unconnected-(U1-GPIO33-Pad16)*%
X187295000Y-61330000D03*
%TO.P,U1,17,GPIO34*%
%TO.N,unconnected-(U1-GPIO34-Pad17)*%
X184755000Y-61330000D03*
%TO.P,U1,18,GPIO35*%
%TO.N,unconnected-(U1-GPIO35-Pad18)*%
X182215000Y-61330000D03*
%TO.P,U1,19,GPIO36*%
%TO.N,Net-(U1-GPIO36)*%
X179675000Y-61330000D03*
%TO.P,U1,20,GPIO39*%
%TO.N,unconnected-(U1-GPIO39-Pad20)*%
X177135000Y-61330000D03*
%TD*%
D12*
%TO.P,,1*%
%TO.N,N/C*%
X94525000Y-61475000D03*
%TD*%
D14*
%TO.P,U2,1,VCC*%
%TO.N,+3V3*%
X205020000Y-57150000D03*
%TO.P,U2,2,DATA*%
%TO.N,Net-(R2-Pad2)*%
X207560000Y-57150000D03*
%TO.P,U2,3,DATA*%
X210100000Y-57150000D03*
%TO.P,U2,4,GND*%
%TO.N,GND*%
X212640000Y-57150000D03*
%TD*%
D15*
%TO.P,Q3,1,A1*%
%TO.N,Net-(J2-Pin_5)*%
X100814999Y-76919999D03*
D16*
%TO.P,Q3,2,A2*%
%TO.N,Net-(Q1-A2)*%
X100814999Y-79459999D03*
%TO.P,Q3,3,G*%
%TO.N,Net-(Q3-G)*%
X100814999Y-81999999D03*
%TD*%
D15*
%TO.P,Q4,1,A1*%
%TO.N,Net-(J2-Pin_6)*%
X107749999Y-81989999D03*
D16*
%TO.P,Q4,2,A2*%
%TO.N,Net-(Q1-A2)*%
X107749999Y-79449999D03*
%TO.P,Q4,3,G*%
%TO.N,Net-(Q4-G)*%
X107749999Y-76909999D03*
%TD*%
D15*
%TO.P,Q2,1,A1*%
%TO.N,Net-(J2-Pin_4)*%
X89744999Y-82049999D03*
D16*
%TO.P,Q2,2,A2*%
%TO.N,Net-(Q1-A2)*%
X89744999Y-79509999D03*
%TO.P,Q2,3,G*%
%TO.N,Net-(Q2-G)*%
X89744999Y-76969999D03*
%TD*%
D17*
%TO.P,PS1,1,AC/L*%
%TO.N,LINE*%
X115199999Y-58819999D03*
D18*
%TO.P,PS1,3,AC/N*%
%TO.N,NEUT*%
X115200000Y-63900000D03*
%TO.P,PS1,5,NC*%
%TO.N,unconnected-(PS1-NC-Pad5)*%
X115200000Y-89300000D03*
%TO.P,PS1,14,-Vo*%
%TO.N,GND*%
X132980000Y-89300000D03*
%TO.P,PS1,16,+Vo*%
%TO.N,+5V*%
X132980000Y-84220000D03*
%TD*%
D19*
%TO.P,HS1,1*%
%TO.N,N/C*%
X86295000Y-66820000D03*
X86295000Y-92220000D03*
%TD*%
D20*
%TO.P,,1*%
%TO.N,N/C*%
X170785000Y-60060000D03*
%TD*%
D15*
%TO.P,Q1,1,A1*%
%TO.N,Net-(J2-Pin_3)*%
X82809999Y-76979999D03*
D16*
%TO.P,Q1,2,A2*%
%TO.N,Net-(Q1-A2)*%
X82809999Y-79519999D03*
%TO.P,Q1,3,G*%
%TO.N,Net-(Q1-G)*%
X82809999Y-82059999D03*
%TD*%
D12*
%TO.P,,1*%
%TO.N,N/C*%
X209275000Y-61475000D03*
%TD*%
D19*
%TO.P,HS2,1*%
%TO.N,N/C*%
X104300000Y-66760000D03*
X104300000Y-92160000D03*
%TD*%
D11*
%TO.P,F1,1*%
%TO.N,LINE*%
X195260000Y-114430000D03*
%TO.P,F1,2*%
%TO.N,Net-(Q1-A2)*%
X195260000Y-91930000D03*
%TD*%
D20*
%TO.P,,1*%
%TO.N,N/C*%
X170785000Y-88000000D03*
%TD*%
D21*
%TO.N,GND*%
X138110000Y-86850000D03*
X199070000Y-75420000D03*
X211770000Y-75420000D03*
%TO.N,Net-(Q1-A2)*%
X130490000Y-74150000D03*
%TO.N,Net-(U1-GPIO13)*%
X200340000Y-72880000D03*
%TO.N,+3V3*%
X202880000Y-74150000D03*
D22*
%TO.N,Net-(J2-Pin_3)*%
X128267500Y-59545000D03*
%TO.N,Net-(J2-Pin_5)*%
X132712500Y-63355000D03*
D21*
%TO.N,Net-(Q1-G)*%
X154620000Y-70340000D03*
X141920000Y-72880000D03*
X135570000Y-77960000D03*
X135570000Y-72880000D03*
%TO.N,Net-(Q2-G)*%
X134300000Y-77960000D03*
X143190000Y-74150000D03*
X134300000Y-74150000D03*
X167320000Y-70340000D03*
%TO.N,Net-(Q3-G)*%
X180020000Y-70340000D03*
X180020000Y-72880000D03*
X133030000Y-75420000D03*
X133030000Y-77960000D03*
%TO.N,Net-(U1-GPIO2)*%
X153350000Y-79865000D03*
%TO.N,Net-(U1-GPIO3)*%
X166050000Y-79865000D03*
%TO.N,Net-(U1-GPIO4)*%
X178750000Y-79865000D03*
%TO.N,Net-(U1-GPIO5)*%
X191450000Y-79865000D03*
%TD*%
D23*
%TO.N,GND*%
X203200000Y-55100000D02*
X201610000Y-56690000D01*
X201610000Y-56690000D02*
X201610000Y-75420000D01*
X135430000Y-86850000D02*
X132980000Y-89300000D01*
X210590000Y-55100000D02*
X203200000Y-55100000D01*
X138110000Y-86850000D02*
X135430000Y-86850000D01*
X212640000Y-57150000D02*
X210590000Y-55100000D01*
X199070000Y-75420000D02*
X201610000Y-75420000D01*
X201610000Y-75420000D02*
X211770000Y-75420000D01*
D24*
%TO.N,LINE*%
X143190000Y-76690000D02*
X139780000Y-73280000D01*
X195895000Y-76690000D02*
X143190000Y-76690000D01*
X139780000Y-73280000D02*
X139780000Y-55500000D01*
X203515000Y-106175000D02*
X203515000Y-84310000D01*
X203515000Y-84310000D02*
X195895000Y-76690000D01*
X195260000Y-114430000D02*
X203515000Y-106175000D01*
%TO.N,Net-(Q1-A2)*%
X89795000Y-79460000D02*
X89745000Y-79510000D01*
X130720000Y-93430000D02*
X193760000Y-93430000D01*
X107750000Y-79450000D02*
X116740000Y-79450000D01*
X100825000Y-79450000D02*
X100815000Y-79460000D01*
X107750000Y-79450000D02*
X100825000Y-79450000D01*
X82820000Y-79510000D02*
X82810000Y-79520000D01*
X193760000Y-93430000D02*
X195260000Y-91930000D01*
X116740000Y-79450000D02*
X121197500Y-83907500D01*
X100815000Y-79460000D02*
X89795000Y-79460000D01*
D23*
X130490000Y-74615000D02*
X121197500Y-83907500D01*
D24*
X121197500Y-83907500D02*
X130720000Y-93430000D01*
D23*
X130490000Y-74150000D02*
X130490000Y-74615000D01*
D24*
X89745000Y-79510000D02*
X82820000Y-79510000D01*
D23*
%TO.N,Net-(U1-GPIO13)*%
X199995000Y-61330000D02*
X199995000Y-72535000D01*
X199995000Y-72535000D02*
X200340000Y-72880000D01*
%TO.N,+3V3*%
X202880000Y-59290000D02*
X202880000Y-74150000D01*
X205020000Y-57150000D02*
X202880000Y-59290000D01*
D24*
%TO.N,Net-(J2-Pin_3)*%
X116057500Y-71755000D02*
X128267500Y-59545000D01*
X102463972Y-71755000D02*
X116057500Y-71755000D01*
X82810000Y-76980000D02*
X85495000Y-74295000D01*
X85495000Y-74295000D02*
X99923972Y-74295000D01*
X99923972Y-74295000D02*
X102463972Y-71755000D01*
%TO.N,Net-(J2-Pin_5)*%
X103440000Y-74295000D02*
X121772500Y-74295000D01*
X121772500Y-74295000D02*
X132712500Y-63355000D01*
X100815000Y-76920000D02*
X103440000Y-74295000D01*
D23*
%TO.N,+5V*%
X134795000Y-82405000D02*
X132980000Y-84220000D01*
X175575000Y-82405000D02*
X134795000Y-82405000D01*
X177135000Y-86730000D02*
X177135000Y-83965000D01*
X177135000Y-83965000D02*
X175575000Y-82405000D01*
%TO.N,Net-(Q1-G)*%
X141920000Y-72880000D02*
X152080000Y-72880000D01*
X154620000Y-70340000D02*
X152080000Y-72880000D01*
X135570000Y-72880000D02*
X135570000Y-77960000D01*
%TO.N,Net-(Q2-G)*%
X167320000Y-70340000D02*
X163510000Y-74150000D01*
X143190000Y-74150000D02*
X163510000Y-74150000D01*
X134300000Y-74150000D02*
X134300000Y-77960000D01*
%TO.N,Net-(Q3-G)*%
X133030000Y-75420000D02*
X133030000Y-77960000D01*
X180020000Y-70340000D02*
X180020000Y-72880000D01*
%TO.N,Net-(U1-GPIO2)*%
X154620000Y-81135000D02*
X153350000Y-79865000D01*
X176210000Y-81135000D02*
X154620000Y-81135000D01*
X192375000Y-86730000D02*
X192375000Y-84600000D01*
X192375000Y-84600000D02*
X191450000Y-83675000D01*
X191450000Y-83675000D02*
X178750000Y-83675000D01*
X178750000Y-83675000D02*
X176210000Y-81135000D01*
%TO.N,Net-(U1-GPIO3)*%
X194915000Y-84600000D02*
X192720000Y-82405000D01*
X176845000Y-79865000D02*
X166050000Y-79865000D01*
X192720000Y-82405000D02*
X179385000Y-82405000D01*
X194915000Y-86730000D02*
X194915000Y-84600000D01*
X179385000Y-82405000D02*
X176845000Y-79865000D01*
%TO.N,Net-(U1-GPIO4)*%
X197455000Y-86730000D02*
X197455000Y-84600000D01*
X180020000Y-81135000D02*
X178750000Y-79865000D01*
X197455000Y-84600000D02*
X193990000Y-81135000D01*
X193990000Y-81135000D02*
X180020000Y-81135000D01*
%TO.N,Net-(U1-GPIO5)*%
X195260000Y-79865000D02*
X191450000Y-79865000D01*
X199995000Y-84600000D02*
X195260000Y-79865000D01*
X199995000Y-86730000D02*
X199995000Y-84600000D01*
%TD*%
M02*
