%TF.GenerationSoftware,KiCad,Pcbnew,(7.0.0)*%
%TF.CreationDate,2024-03-10T11:48:43+01:00*%
%TF.ProjectId,bed-smart-plug,6265642d-736d-4617-9274-2d706c75672e,rev?*%
%TF.SameCoordinates,Original*%
%TF.FileFunction,Paste,Top*%
%TF.FilePolarity,Positive*%
%FSLAX46Y46*%
G04 Gerber Fmt 4.6, Leading zero omitted, Abs format (unit mm)*
G04 Created by KiCad (PCBNEW (7.0.0)) date 2024-03-10 11:48:43*
%MOMM*%
%LPD*%
G01*
G04 APERTURE LIST*
G04 Aperture macros list*
%AMRoundRect*
0 Rectangle with rounded corners*
0 $1 Rounding radius*
0 $2 $3 $4 $5 $6 $7 $8 $9 X,Y pos of 4 corners*
0 Add a 4 corners polygon primitive as box body*
4,1,4,$2,$3,$4,$5,$6,$7,$8,$9,$2,$3,0*
0 Add four circle primitives for the rounded corners*
1,1,$1+$1,$2,$3*
1,1,$1+$1,$4,$5*
1,1,$1+$1,$6,$7*
1,1,$1+$1,$8,$9*
0 Add four rect primitives between the rounded corners*
20,1,$1+$1,$2,$3,$4,$5,0*
20,1,$1+$1,$4,$5,$6,$7,0*
20,1,$1+$1,$6,$7,$8,$9,0*
20,1,$1+$1,$8,$9,$2,$3,0*%
G04 Aperture macros list end*
%ADD10RoundRect,0.243750X0.456250X-0.243750X0.456250X0.243750X-0.456250X0.243750X-0.456250X-0.243750X0*%
%ADD11RoundRect,0.250000X1.075000X-0.312500X1.075000X0.312500X-1.075000X0.312500X-1.075000X-0.312500X0*%
%ADD12RoundRect,0.200000X-0.200000X-0.275000X0.200000X-0.275000X0.200000X0.275000X-0.200000X0.275000X0*%
%ADD13R,1.200000X2.500000*%
%ADD14R,1.780000X2.000000*%
%ADD15RoundRect,0.135000X0.185000X-0.135000X0.185000X0.135000X-0.185000X0.135000X-0.185000X-0.135000X0*%
%ADD16RoundRect,0.200000X-0.275000X0.200000X-0.275000X-0.200000X0.275000X-0.200000X0.275000X0.200000X0*%
G04 APERTURE END LIST*
D10*
%TO.C,D4*%
X160970000Y-92867500D03*
X160970000Y-90992500D03*
%TD*%
%TO.C,D1*%
X149540000Y-92867500D03*
X149540000Y-90992500D03*
%TD*%
D11*
%TO.C,R14*%
X158430000Y-71167500D03*
X158430000Y-68242500D03*
%TD*%
D12*
%TO.C,R3*%
X198245000Y-69070000D03*
X199895000Y-69070000D03*
%TD*%
%TO.C,R9*%
X149985000Y-79865000D03*
X151635000Y-79865000D03*
%TD*%
D10*
%TO.C,D3*%
X157160000Y-92867500D03*
X157160000Y-90992500D03*
%TD*%
D11*
%TO.C,R15*%
X171130000Y-71167500D03*
X171130000Y-68242500D03*
%TD*%
D12*
%TO.C,R10*%
X162685000Y-79865000D03*
X164335000Y-79865000D03*
%TD*%
D13*
%TO.C,J1*%
X217762999Y-86169999D03*
X220762999Y-86169999D03*
X212662999Y-79669999D03*
X213762999Y-86169999D03*
%TD*%
D14*
%TO.C,U5*%
X174939999Y-77644999D03*
X177479999Y-77644999D03*
X180019999Y-77644999D03*
X180019999Y-68114999D03*
X177479999Y-68114999D03*
X174939999Y-68114999D03*
%TD*%
D10*
%TO.C,D2*%
X153350000Y-92867500D03*
X153350000Y-90992500D03*
%TD*%
D12*
%TO.C,R11*%
X175385000Y-79865000D03*
X177035000Y-79865000D03*
%TD*%
%TO.C,R4*%
X198245000Y-71610000D03*
X199895000Y-71610000D03*
%TD*%
D11*
%TO.C,R16*%
X183830000Y-71167500D03*
X183830000Y-68242500D03*
%TD*%
D14*
%TO.C,U6*%
X187639999Y-77644999D03*
X190179999Y-77644999D03*
X192719999Y-77644999D03*
X192719999Y-68114999D03*
X190179999Y-68114999D03*
X187639999Y-68114999D03*
%TD*%
D15*
%TO.C,R1*%
X208400000Y-84060000D03*
X208400000Y-83040000D03*
%TD*%
D12*
%TO.C,R2*%
X198245000Y-66530000D03*
X199895000Y-66530000D03*
%TD*%
D11*
%TO.C,R13*%
X145730000Y-71167500D03*
X145730000Y-68242500D03*
%TD*%
D16*
%TO.C,R8*%
X160970000Y-87295000D03*
X160970000Y-88945000D03*
%TD*%
D12*
%TO.C,R12*%
X188085000Y-79865000D03*
X189735000Y-79865000D03*
%TD*%
D16*
%TO.C,R6*%
X153350000Y-87295000D03*
X153350000Y-88945000D03*
%TD*%
%TO.C,R7*%
X157160000Y-87295000D03*
X157160000Y-88945000D03*
%TD*%
%TO.C,R5*%
X149540000Y-87295000D03*
X149540000Y-88945000D03*
%TD*%
D14*
%TO.C,U4*%
X162239999Y-77644999D03*
X164779999Y-77644999D03*
X167319999Y-77644999D03*
X167319999Y-68114999D03*
X164779999Y-68114999D03*
X162239999Y-68114999D03*
%TD*%
%TO.C,U3*%
X149539999Y-77644999D03*
X152079999Y-77644999D03*
X154619999Y-77644999D03*
X154619999Y-68114999D03*
X152079999Y-68114999D03*
X149539999Y-68114999D03*
%TD*%
M02*
