%TF.GenerationSoftware,KiCad,Pcbnew,(7.0.0)*%
%TF.CreationDate,2024-03-10T11:48:43+01:00*%
%TF.ProjectId,bed-smart-plug,6265642d-736d-4617-9274-2d706c75672e,rev?*%
%TF.SameCoordinates,Original*%
%TF.FileFunction,Legend,Top*%
%TF.FilePolarity,Positive*%
%FSLAX46Y46*%
G04 Gerber Fmt 4.6, Leading zero omitted, Abs format (unit mm)*
G04 Created by KiCad (PCBNEW (7.0.0)) date 2024-03-10 11:48:43*
%MOMM*%
%LPD*%
G01*
G04 APERTURE LIST*
G04 Aperture macros list*
%AMRoundRect*
0 Rectangle with rounded corners*
0 $1 Rounding radius*
0 $2 $3 $4 $5 $6 $7 $8 $9 X,Y pos of 4 corners*
0 Add a 4 corners polygon primitive as box body*
4,1,4,$2,$3,$4,$5,$6,$7,$8,$9,$2,$3,0*
0 Add four circle primitives for the rounded corners*
1,1,$1+$1,$2,$3*
1,1,$1+$1,$4,$5*
1,1,$1+$1,$6,$7*
1,1,$1+$1,$8,$9*
0 Add four rect primitives between the rounded corners*
20,1,$1+$1,$2,$3,$4,$5,0*
20,1,$1+$1,$4,$5,$6,$7,0*
20,1,$1+$1,$6,$7,$8,$9,0*
20,1,$1+$1,$8,$9,$2,$3,0*%
G04 Aperture macros list end*
%ADD10C,0.150000*%
%ADD11C,0.254000*%
%ADD12C,0.120000*%
%ADD13C,0.100000*%
%ADD14RoundRect,0.243750X0.456250X-0.243750X0.456250X0.243750X-0.456250X0.243750X-0.456250X-0.243750X0*%
%ADD15R,3.000000X3.000000*%
%ADD16C,3.000000*%
%ADD17RoundRect,0.250000X1.075000X-0.312500X1.075000X0.312500X-1.075000X0.312500X-1.075000X-0.312500X0*%
%ADD18C,6.400000*%
%ADD19RoundRect,0.200000X-0.200000X-0.275000X0.200000X-0.275000X0.200000X0.275000X-0.200000X0.275000X0*%
%ADD20R,1.778000X1.778000*%
%ADD21C,1.778000*%
%ADD22C,1.500000*%
%ADD23R,1.200000X2.500000*%
%ADD24R,1.780000X2.000000*%
%ADD25R,2.000000X1.905000*%
%ADD26O,2.000000X1.905000*%
%ADD27R,2.300000X2.000000*%
%ADD28C,2.300000*%
%ADD29C,6.000000*%
%ADD30C,8.000000*%
%ADD31RoundRect,0.135000X0.185000X-0.135000X0.185000X0.135000X-0.185000X0.135000X-0.185000X-0.135000X0*%
%ADD32RoundRect,0.200000X-0.275000X0.200000X-0.275000X-0.200000X0.275000X-0.200000X0.275000X0.200000X0*%
%ADD33C,2.700000*%
G04 APERTURE END LIST*
D10*
%TO.C,D4*%
X160231905Y-95137380D02*
X160231905Y-94137380D01*
X160231905Y-94137380D02*
X160470000Y-94137380D01*
X160470000Y-94137380D02*
X160612857Y-94185000D01*
X160612857Y-94185000D02*
X160708095Y-94280238D01*
X160708095Y-94280238D02*
X160755714Y-94375476D01*
X160755714Y-94375476D02*
X160803333Y-94565952D01*
X160803333Y-94565952D02*
X160803333Y-94708809D01*
X160803333Y-94708809D02*
X160755714Y-94899285D01*
X160755714Y-94899285D02*
X160708095Y-94994523D01*
X160708095Y-94994523D02*
X160612857Y-95089761D01*
X160612857Y-95089761D02*
X160470000Y-95137380D01*
X160470000Y-95137380D02*
X160231905Y-95137380D01*
X161660476Y-94470714D02*
X161660476Y-95137380D01*
X161422381Y-94089761D02*
X161184286Y-94804047D01*
X161184286Y-94804047D02*
X161803333Y-94804047D01*
%TO.C,D1*%
X148801905Y-95169880D02*
X148801905Y-94169880D01*
X148801905Y-94169880D02*
X149040000Y-94169880D01*
X149040000Y-94169880D02*
X149182857Y-94217500D01*
X149182857Y-94217500D02*
X149278095Y-94312738D01*
X149278095Y-94312738D02*
X149325714Y-94407976D01*
X149325714Y-94407976D02*
X149373333Y-94598452D01*
X149373333Y-94598452D02*
X149373333Y-94741309D01*
X149373333Y-94741309D02*
X149325714Y-94931785D01*
X149325714Y-94931785D02*
X149278095Y-95027023D01*
X149278095Y-95027023D02*
X149182857Y-95122261D01*
X149182857Y-95122261D02*
X149040000Y-95169880D01*
X149040000Y-95169880D02*
X148801905Y-95169880D01*
X150325714Y-95169880D02*
X149754286Y-95169880D01*
X150040000Y-95169880D02*
X150040000Y-94169880D01*
X150040000Y-94169880D02*
X149944762Y-94312738D01*
X149944762Y-94312738D02*
X149849524Y-94407976D01*
X149849524Y-94407976D02*
X149754286Y-94455595D01*
%TO.C,J2*%
X139046666Y-60817380D02*
X139046666Y-61531666D01*
X139046666Y-61531666D02*
X138999047Y-61674523D01*
X138999047Y-61674523D02*
X138903809Y-61769761D01*
X138903809Y-61769761D02*
X138760952Y-61817380D01*
X138760952Y-61817380D02*
X138665714Y-61817380D01*
X139475238Y-60912619D02*
X139522857Y-60865000D01*
X139522857Y-60865000D02*
X139618095Y-60817380D01*
X139618095Y-60817380D02*
X139856190Y-60817380D01*
X139856190Y-60817380D02*
X139951428Y-60865000D01*
X139951428Y-60865000D02*
X139999047Y-60912619D01*
X139999047Y-60912619D02*
X140046666Y-61007857D01*
X140046666Y-61007857D02*
X140046666Y-61103095D01*
X140046666Y-61103095D02*
X139999047Y-61245952D01*
X139999047Y-61245952D02*
X139427619Y-61817380D01*
X139427619Y-61817380D02*
X140046666Y-61817380D01*
%TO.C,R14*%
X157787142Y-66897380D02*
X157453809Y-66421190D01*
X157215714Y-66897380D02*
X157215714Y-65897380D01*
X157215714Y-65897380D02*
X157596666Y-65897380D01*
X157596666Y-65897380D02*
X157691904Y-65945000D01*
X157691904Y-65945000D02*
X157739523Y-65992619D01*
X157739523Y-65992619D02*
X157787142Y-66087857D01*
X157787142Y-66087857D02*
X157787142Y-66230714D01*
X157787142Y-66230714D02*
X157739523Y-66325952D01*
X157739523Y-66325952D02*
X157691904Y-66373571D01*
X157691904Y-66373571D02*
X157596666Y-66421190D01*
X157596666Y-66421190D02*
X157215714Y-66421190D01*
X158739523Y-66897380D02*
X158168095Y-66897380D01*
X158453809Y-66897380D02*
X158453809Y-65897380D01*
X158453809Y-65897380D02*
X158358571Y-66040238D01*
X158358571Y-66040238D02*
X158263333Y-66135476D01*
X158263333Y-66135476D02*
X158168095Y-66183095D01*
X159596666Y-66230714D02*
X159596666Y-66897380D01*
X159358571Y-65849761D02*
X159120476Y-66564047D01*
X159120476Y-66564047D02*
X159739523Y-66564047D01*
%TO.C,*%
%TO.C,R3*%
X196363333Y-69437380D02*
X196030000Y-68961190D01*
X195791905Y-69437380D02*
X195791905Y-68437380D01*
X195791905Y-68437380D02*
X196172857Y-68437380D01*
X196172857Y-68437380D02*
X196268095Y-68485000D01*
X196268095Y-68485000D02*
X196315714Y-68532619D01*
X196315714Y-68532619D02*
X196363333Y-68627857D01*
X196363333Y-68627857D02*
X196363333Y-68770714D01*
X196363333Y-68770714D02*
X196315714Y-68865952D01*
X196315714Y-68865952D02*
X196268095Y-68913571D01*
X196268095Y-68913571D02*
X196172857Y-68961190D01*
X196172857Y-68961190D02*
X195791905Y-68961190D01*
X196696667Y-68437380D02*
X197315714Y-68437380D01*
X197315714Y-68437380D02*
X196982381Y-68818333D01*
X196982381Y-68818333D02*
X197125238Y-68818333D01*
X197125238Y-68818333D02*
X197220476Y-68865952D01*
X197220476Y-68865952D02*
X197268095Y-68913571D01*
X197268095Y-68913571D02*
X197315714Y-69008809D01*
X197315714Y-69008809D02*
X197315714Y-69246904D01*
X197315714Y-69246904D02*
X197268095Y-69342142D01*
X197268095Y-69342142D02*
X197220476Y-69389761D01*
X197220476Y-69389761D02*
X197125238Y-69437380D01*
X197125238Y-69437380D02*
X196839524Y-69437380D01*
X196839524Y-69437380D02*
X196744286Y-69389761D01*
X196744286Y-69389761D02*
X196696667Y-69342142D01*
%TO.C,U1*%
X194153095Y-58157380D02*
X194153095Y-58966904D01*
X194153095Y-58966904D02*
X194200714Y-59062142D01*
X194200714Y-59062142D02*
X194248333Y-59109761D01*
X194248333Y-59109761D02*
X194343571Y-59157380D01*
X194343571Y-59157380D02*
X194534047Y-59157380D01*
X194534047Y-59157380D02*
X194629285Y-59109761D01*
X194629285Y-59109761D02*
X194676904Y-59062142D01*
X194676904Y-59062142D02*
X194724523Y-58966904D01*
X194724523Y-58966904D02*
X194724523Y-58157380D01*
X195724523Y-59157380D02*
X195153095Y-59157380D01*
X195438809Y-59157380D02*
X195438809Y-58157380D01*
X195438809Y-58157380D02*
X195343571Y-58300238D01*
X195343571Y-58300238D02*
X195248333Y-58395476D01*
X195248333Y-58395476D02*
X195153095Y-58443095D01*
D11*
X140303716Y-77537619D02*
X140303716Y-76932857D01*
X140666573Y-77658571D02*
X139396573Y-77235238D01*
X139396573Y-77235238D02*
X140666573Y-76811904D01*
X139819907Y-76388572D02*
X140666573Y-76388572D01*
X139940859Y-76388572D02*
X139880383Y-76328095D01*
X139880383Y-76328095D02*
X139819907Y-76207143D01*
X139819907Y-76207143D02*
X139819907Y-76025714D01*
X139819907Y-76025714D02*
X139880383Y-75904762D01*
X139880383Y-75904762D02*
X140001335Y-75844286D01*
X140001335Y-75844286D02*
X140666573Y-75844286D01*
X139819907Y-75420952D02*
X139819907Y-74937143D01*
X139396573Y-75239524D02*
X140485145Y-75239524D01*
X140485145Y-75239524D02*
X140606097Y-75179047D01*
X140606097Y-75179047D02*
X140666573Y-75058095D01*
X140666573Y-75058095D02*
X140666573Y-74937143D01*
X140606097Y-74030000D02*
X140666573Y-74150952D01*
X140666573Y-74150952D02*
X140666573Y-74392857D01*
X140666573Y-74392857D02*
X140606097Y-74513810D01*
X140606097Y-74513810D02*
X140485145Y-74574286D01*
X140485145Y-74574286D02*
X140001335Y-74574286D01*
X140001335Y-74574286D02*
X139880383Y-74513810D01*
X139880383Y-74513810D02*
X139819907Y-74392857D01*
X139819907Y-74392857D02*
X139819907Y-74150952D01*
X139819907Y-74150952D02*
X139880383Y-74030000D01*
X139880383Y-74030000D02*
X140001335Y-73969524D01*
X140001335Y-73969524D02*
X140122288Y-73969524D01*
X140122288Y-73969524D02*
X140243240Y-74574286D01*
X139819907Y-73425239D02*
X140666573Y-73425239D01*
X139940859Y-73425239D02*
X139880383Y-73364762D01*
X139880383Y-73364762D02*
X139819907Y-73243810D01*
X139819907Y-73243810D02*
X139819907Y-73062381D01*
X139819907Y-73062381D02*
X139880383Y-72941429D01*
X139880383Y-72941429D02*
X140001335Y-72880953D01*
X140001335Y-72880953D02*
X140666573Y-72880953D01*
X139819907Y-72276191D02*
X140666573Y-72276191D01*
X139940859Y-72276191D02*
X139880383Y-72215714D01*
X139880383Y-72215714D02*
X139819907Y-72094762D01*
X139819907Y-72094762D02*
X139819907Y-71913333D01*
X139819907Y-71913333D02*
X139880383Y-71792381D01*
X139880383Y-71792381D02*
X140001335Y-71731905D01*
X140001335Y-71731905D02*
X140666573Y-71731905D01*
X140666573Y-70582857D02*
X140001335Y-70582857D01*
X140001335Y-70582857D02*
X139880383Y-70643333D01*
X139880383Y-70643333D02*
X139819907Y-70764285D01*
X139819907Y-70764285D02*
X139819907Y-71006190D01*
X139819907Y-71006190D02*
X139880383Y-71127143D01*
X140606097Y-70582857D02*
X140666573Y-70703809D01*
X140666573Y-70703809D02*
X140666573Y-71006190D01*
X140666573Y-71006190D02*
X140606097Y-71127143D01*
X140606097Y-71127143D02*
X140485145Y-71187619D01*
X140485145Y-71187619D02*
X140364192Y-71187619D01*
X140364192Y-71187619D02*
X140243240Y-71127143D01*
X140243240Y-71127143D02*
X140182764Y-71006190D01*
X140182764Y-71006190D02*
X140182764Y-70703809D01*
X140182764Y-70703809D02*
X140122288Y-70582857D01*
D10*
%TO.C,R9*%
X148103333Y-80232380D02*
X147770000Y-79756190D01*
X147531905Y-80232380D02*
X147531905Y-79232380D01*
X147531905Y-79232380D02*
X147912857Y-79232380D01*
X147912857Y-79232380D02*
X148008095Y-79280000D01*
X148008095Y-79280000D02*
X148055714Y-79327619D01*
X148055714Y-79327619D02*
X148103333Y-79422857D01*
X148103333Y-79422857D02*
X148103333Y-79565714D01*
X148103333Y-79565714D02*
X148055714Y-79660952D01*
X148055714Y-79660952D02*
X148008095Y-79708571D01*
X148008095Y-79708571D02*
X147912857Y-79756190D01*
X147912857Y-79756190D02*
X147531905Y-79756190D01*
X148579524Y-80232380D02*
X148770000Y-80232380D01*
X148770000Y-80232380D02*
X148865238Y-80184761D01*
X148865238Y-80184761D02*
X148912857Y-80137142D01*
X148912857Y-80137142D02*
X149008095Y-79994285D01*
X149008095Y-79994285D02*
X149055714Y-79803809D01*
X149055714Y-79803809D02*
X149055714Y-79422857D01*
X149055714Y-79422857D02*
X149008095Y-79327619D01*
X149008095Y-79327619D02*
X148960476Y-79280000D01*
X148960476Y-79280000D02*
X148865238Y-79232380D01*
X148865238Y-79232380D02*
X148674762Y-79232380D01*
X148674762Y-79232380D02*
X148579524Y-79280000D01*
X148579524Y-79280000D02*
X148531905Y-79327619D01*
X148531905Y-79327619D02*
X148484286Y-79422857D01*
X148484286Y-79422857D02*
X148484286Y-79660952D01*
X148484286Y-79660952D02*
X148531905Y-79756190D01*
X148531905Y-79756190D02*
X148579524Y-79803809D01*
X148579524Y-79803809D02*
X148674762Y-79851428D01*
X148674762Y-79851428D02*
X148865238Y-79851428D01*
X148865238Y-79851428D02*
X148960476Y-79803809D01*
X148960476Y-79803809D02*
X149008095Y-79756190D01*
X149008095Y-79756190D02*
X149055714Y-79660952D01*
%TO.C,D3*%
X156421905Y-95137380D02*
X156421905Y-94137380D01*
X156421905Y-94137380D02*
X156660000Y-94137380D01*
X156660000Y-94137380D02*
X156802857Y-94185000D01*
X156802857Y-94185000D02*
X156898095Y-94280238D01*
X156898095Y-94280238D02*
X156945714Y-94375476D01*
X156945714Y-94375476D02*
X156993333Y-94565952D01*
X156993333Y-94565952D02*
X156993333Y-94708809D01*
X156993333Y-94708809D02*
X156945714Y-94899285D01*
X156945714Y-94899285D02*
X156898095Y-94994523D01*
X156898095Y-94994523D02*
X156802857Y-95089761D01*
X156802857Y-95089761D02*
X156660000Y-95137380D01*
X156660000Y-95137380D02*
X156421905Y-95137380D01*
X157326667Y-94137380D02*
X157945714Y-94137380D01*
X157945714Y-94137380D02*
X157612381Y-94518333D01*
X157612381Y-94518333D02*
X157755238Y-94518333D01*
X157755238Y-94518333D02*
X157850476Y-94565952D01*
X157850476Y-94565952D02*
X157898095Y-94613571D01*
X157898095Y-94613571D02*
X157945714Y-94708809D01*
X157945714Y-94708809D02*
X157945714Y-94946904D01*
X157945714Y-94946904D02*
X157898095Y-95042142D01*
X157898095Y-95042142D02*
X157850476Y-95089761D01*
X157850476Y-95089761D02*
X157755238Y-95137380D01*
X157755238Y-95137380D02*
X157469524Y-95137380D01*
X157469524Y-95137380D02*
X157374286Y-95089761D01*
X157374286Y-95089761D02*
X157326667Y-95042142D01*
%TO.C,R15*%
X170487142Y-66897380D02*
X170153809Y-66421190D01*
X169915714Y-66897380D02*
X169915714Y-65897380D01*
X169915714Y-65897380D02*
X170296666Y-65897380D01*
X170296666Y-65897380D02*
X170391904Y-65945000D01*
X170391904Y-65945000D02*
X170439523Y-65992619D01*
X170439523Y-65992619D02*
X170487142Y-66087857D01*
X170487142Y-66087857D02*
X170487142Y-66230714D01*
X170487142Y-66230714D02*
X170439523Y-66325952D01*
X170439523Y-66325952D02*
X170391904Y-66373571D01*
X170391904Y-66373571D02*
X170296666Y-66421190D01*
X170296666Y-66421190D02*
X169915714Y-66421190D01*
X171439523Y-66897380D02*
X170868095Y-66897380D01*
X171153809Y-66897380D02*
X171153809Y-65897380D01*
X171153809Y-65897380D02*
X171058571Y-66040238D01*
X171058571Y-66040238D02*
X170963333Y-66135476D01*
X170963333Y-66135476D02*
X170868095Y-66183095D01*
X172344285Y-65897380D02*
X171868095Y-65897380D01*
X171868095Y-65897380D02*
X171820476Y-66373571D01*
X171820476Y-66373571D02*
X171868095Y-66325952D01*
X171868095Y-66325952D02*
X171963333Y-66278333D01*
X171963333Y-66278333D02*
X172201428Y-66278333D01*
X172201428Y-66278333D02*
X172296666Y-66325952D01*
X172296666Y-66325952D02*
X172344285Y-66373571D01*
X172344285Y-66373571D02*
X172391904Y-66468809D01*
X172391904Y-66468809D02*
X172391904Y-66706904D01*
X172391904Y-66706904D02*
X172344285Y-66802142D01*
X172344285Y-66802142D02*
X172296666Y-66849761D01*
X172296666Y-66849761D02*
X172201428Y-66897380D01*
X172201428Y-66897380D02*
X171963333Y-66897380D01*
X171963333Y-66897380D02*
X171868095Y-66849761D01*
X171868095Y-66849761D02*
X171820476Y-66802142D01*
%TO.C,R10*%
X160327142Y-80232380D02*
X159993809Y-79756190D01*
X159755714Y-80232380D02*
X159755714Y-79232380D01*
X159755714Y-79232380D02*
X160136666Y-79232380D01*
X160136666Y-79232380D02*
X160231904Y-79280000D01*
X160231904Y-79280000D02*
X160279523Y-79327619D01*
X160279523Y-79327619D02*
X160327142Y-79422857D01*
X160327142Y-79422857D02*
X160327142Y-79565714D01*
X160327142Y-79565714D02*
X160279523Y-79660952D01*
X160279523Y-79660952D02*
X160231904Y-79708571D01*
X160231904Y-79708571D02*
X160136666Y-79756190D01*
X160136666Y-79756190D02*
X159755714Y-79756190D01*
X161279523Y-80232380D02*
X160708095Y-80232380D01*
X160993809Y-80232380D02*
X160993809Y-79232380D01*
X160993809Y-79232380D02*
X160898571Y-79375238D01*
X160898571Y-79375238D02*
X160803333Y-79470476D01*
X160803333Y-79470476D02*
X160708095Y-79518095D01*
X161898571Y-79232380D02*
X161993809Y-79232380D01*
X161993809Y-79232380D02*
X162089047Y-79280000D01*
X162089047Y-79280000D02*
X162136666Y-79327619D01*
X162136666Y-79327619D02*
X162184285Y-79422857D01*
X162184285Y-79422857D02*
X162231904Y-79613333D01*
X162231904Y-79613333D02*
X162231904Y-79851428D01*
X162231904Y-79851428D02*
X162184285Y-80041904D01*
X162184285Y-80041904D02*
X162136666Y-80137142D01*
X162136666Y-80137142D02*
X162089047Y-80184761D01*
X162089047Y-80184761D02*
X161993809Y-80232380D01*
X161993809Y-80232380D02*
X161898571Y-80232380D01*
X161898571Y-80232380D02*
X161803333Y-80184761D01*
X161803333Y-80184761D02*
X161755714Y-80137142D01*
X161755714Y-80137142D02*
X161708095Y-80041904D01*
X161708095Y-80041904D02*
X161660476Y-79851428D01*
X161660476Y-79851428D02*
X161660476Y-79613333D01*
X161660476Y-79613333D02*
X161708095Y-79422857D01*
X161708095Y-79422857D02*
X161755714Y-79327619D01*
X161755714Y-79327619D02*
X161803333Y-79280000D01*
X161803333Y-79280000D02*
X161898571Y-79232380D01*
%TO.C,J1*%
X217204666Y-75937380D02*
X217204666Y-76651666D01*
X217204666Y-76651666D02*
X217157047Y-76794523D01*
X217157047Y-76794523D02*
X217061809Y-76889761D01*
X217061809Y-76889761D02*
X216918952Y-76937380D01*
X216918952Y-76937380D02*
X216823714Y-76937380D01*
X218204666Y-76937380D02*
X217633238Y-76937380D01*
X217918952Y-76937380D02*
X217918952Y-75937380D01*
X217918952Y-75937380D02*
X217823714Y-76080238D01*
X217823714Y-76080238D02*
X217728476Y-76175476D01*
X217728476Y-76175476D02*
X217633238Y-76223095D01*
%TO.C,*%
%TO.C,U5*%
X171638095Y-74152380D02*
X171638095Y-74961904D01*
X171638095Y-74961904D02*
X171685714Y-75057142D01*
X171685714Y-75057142D02*
X171733333Y-75104761D01*
X171733333Y-75104761D02*
X171828571Y-75152380D01*
X171828571Y-75152380D02*
X172019047Y-75152380D01*
X172019047Y-75152380D02*
X172114285Y-75104761D01*
X172114285Y-75104761D02*
X172161904Y-75057142D01*
X172161904Y-75057142D02*
X172209523Y-74961904D01*
X172209523Y-74961904D02*
X172209523Y-74152380D01*
X173161904Y-74152380D02*
X172685714Y-74152380D01*
X172685714Y-74152380D02*
X172638095Y-74628571D01*
X172638095Y-74628571D02*
X172685714Y-74580952D01*
X172685714Y-74580952D02*
X172780952Y-74533333D01*
X172780952Y-74533333D02*
X173019047Y-74533333D01*
X173019047Y-74533333D02*
X173114285Y-74580952D01*
X173114285Y-74580952D02*
X173161904Y-74628571D01*
X173161904Y-74628571D02*
X173209523Y-74723809D01*
X173209523Y-74723809D02*
X173209523Y-74961904D01*
X173209523Y-74961904D02*
X173161904Y-75057142D01*
X173161904Y-75057142D02*
X173114285Y-75104761D01*
X173114285Y-75104761D02*
X173019047Y-75152380D01*
X173019047Y-75152380D02*
X172780952Y-75152380D01*
X172780952Y-75152380D02*
X172685714Y-75104761D01*
X172685714Y-75104761D02*
X172638095Y-75057142D01*
D11*
%TO.C,U2*%
X193892380Y-53806573D02*
X193892380Y-54834669D01*
X193892380Y-54834669D02*
X193952857Y-54955621D01*
X193952857Y-54955621D02*
X194013333Y-55016097D01*
X194013333Y-55016097D02*
X194134285Y-55076573D01*
X194134285Y-55076573D02*
X194376190Y-55076573D01*
X194376190Y-55076573D02*
X194497142Y-55016097D01*
X194497142Y-55016097D02*
X194557619Y-54955621D01*
X194557619Y-54955621D02*
X194618095Y-54834669D01*
X194618095Y-54834669D02*
X194618095Y-53806573D01*
X195162380Y-53927526D02*
X195222856Y-53867050D01*
X195222856Y-53867050D02*
X195343809Y-53806573D01*
X195343809Y-53806573D02*
X195646190Y-53806573D01*
X195646190Y-53806573D02*
X195767142Y-53867050D01*
X195767142Y-53867050D02*
X195827618Y-53927526D01*
X195827618Y-53927526D02*
X195888095Y-54048478D01*
X195888095Y-54048478D02*
X195888095Y-54169430D01*
X195888095Y-54169430D02*
X195827618Y-54350859D01*
X195827618Y-54350859D02*
X195101904Y-55076573D01*
X195101904Y-55076573D02*
X195888095Y-55076573D01*
D10*
%TO.C,D2*%
X152611905Y-95169880D02*
X152611905Y-94169880D01*
X152611905Y-94169880D02*
X152850000Y-94169880D01*
X152850000Y-94169880D02*
X152992857Y-94217500D01*
X152992857Y-94217500D02*
X153088095Y-94312738D01*
X153088095Y-94312738D02*
X153135714Y-94407976D01*
X153135714Y-94407976D02*
X153183333Y-94598452D01*
X153183333Y-94598452D02*
X153183333Y-94741309D01*
X153183333Y-94741309D02*
X153135714Y-94931785D01*
X153135714Y-94931785D02*
X153088095Y-95027023D01*
X153088095Y-95027023D02*
X152992857Y-95122261D01*
X152992857Y-95122261D02*
X152850000Y-95169880D01*
X152850000Y-95169880D02*
X152611905Y-95169880D01*
X153564286Y-94265119D02*
X153611905Y-94217500D01*
X153611905Y-94217500D02*
X153707143Y-94169880D01*
X153707143Y-94169880D02*
X153945238Y-94169880D01*
X153945238Y-94169880D02*
X154040476Y-94217500D01*
X154040476Y-94217500D02*
X154088095Y-94265119D01*
X154088095Y-94265119D02*
X154135714Y-94360357D01*
X154135714Y-94360357D02*
X154135714Y-94455595D01*
X154135714Y-94455595D02*
X154088095Y-94598452D01*
X154088095Y-94598452D02*
X153516667Y-95169880D01*
X153516667Y-95169880D02*
X154135714Y-95169880D01*
%TO.C,Q3*%
X100754761Y-86372619D02*
X100659523Y-86325000D01*
X100659523Y-86325000D02*
X100564285Y-86229761D01*
X100564285Y-86229761D02*
X100421428Y-86086904D01*
X100421428Y-86086904D02*
X100326190Y-86039285D01*
X100326190Y-86039285D02*
X100230952Y-86039285D01*
X100278571Y-86277380D02*
X100183333Y-86229761D01*
X100183333Y-86229761D02*
X100088095Y-86134523D01*
X100088095Y-86134523D02*
X100040476Y-85944047D01*
X100040476Y-85944047D02*
X100040476Y-85610714D01*
X100040476Y-85610714D02*
X100088095Y-85420238D01*
X100088095Y-85420238D02*
X100183333Y-85325000D01*
X100183333Y-85325000D02*
X100278571Y-85277380D01*
X100278571Y-85277380D02*
X100469047Y-85277380D01*
X100469047Y-85277380D02*
X100564285Y-85325000D01*
X100564285Y-85325000D02*
X100659523Y-85420238D01*
X100659523Y-85420238D02*
X100707142Y-85610714D01*
X100707142Y-85610714D02*
X100707142Y-85944047D01*
X100707142Y-85944047D02*
X100659523Y-86134523D01*
X100659523Y-86134523D02*
X100564285Y-86229761D01*
X100564285Y-86229761D02*
X100469047Y-86277380D01*
X100469047Y-86277380D02*
X100278571Y-86277380D01*
X101040476Y-85277380D02*
X101659523Y-85277380D01*
X101659523Y-85277380D02*
X101326190Y-85658333D01*
X101326190Y-85658333D02*
X101469047Y-85658333D01*
X101469047Y-85658333D02*
X101564285Y-85705952D01*
X101564285Y-85705952D02*
X101611904Y-85753571D01*
X101611904Y-85753571D02*
X101659523Y-85848809D01*
X101659523Y-85848809D02*
X101659523Y-86086904D01*
X101659523Y-86086904D02*
X101611904Y-86182142D01*
X101611904Y-86182142D02*
X101564285Y-86229761D01*
X101564285Y-86229761D02*
X101469047Y-86277380D01*
X101469047Y-86277380D02*
X101183333Y-86277380D01*
X101183333Y-86277380D02*
X101088095Y-86229761D01*
X101088095Y-86229761D02*
X101040476Y-86182142D01*
%TO.C,R11*%
X173027142Y-80232380D02*
X172693809Y-79756190D01*
X172455714Y-80232380D02*
X172455714Y-79232380D01*
X172455714Y-79232380D02*
X172836666Y-79232380D01*
X172836666Y-79232380D02*
X172931904Y-79280000D01*
X172931904Y-79280000D02*
X172979523Y-79327619D01*
X172979523Y-79327619D02*
X173027142Y-79422857D01*
X173027142Y-79422857D02*
X173027142Y-79565714D01*
X173027142Y-79565714D02*
X172979523Y-79660952D01*
X172979523Y-79660952D02*
X172931904Y-79708571D01*
X172931904Y-79708571D02*
X172836666Y-79756190D01*
X172836666Y-79756190D02*
X172455714Y-79756190D01*
X173979523Y-80232380D02*
X173408095Y-80232380D01*
X173693809Y-80232380D02*
X173693809Y-79232380D01*
X173693809Y-79232380D02*
X173598571Y-79375238D01*
X173598571Y-79375238D02*
X173503333Y-79470476D01*
X173503333Y-79470476D02*
X173408095Y-79518095D01*
X174931904Y-80232380D02*
X174360476Y-80232380D01*
X174646190Y-80232380D02*
X174646190Y-79232380D01*
X174646190Y-79232380D02*
X174550952Y-79375238D01*
X174550952Y-79375238D02*
X174455714Y-79470476D01*
X174455714Y-79470476D02*
X174360476Y-79518095D01*
%TO.C,Q4*%
X107654761Y-86422619D02*
X107559523Y-86375000D01*
X107559523Y-86375000D02*
X107464285Y-86279761D01*
X107464285Y-86279761D02*
X107321428Y-86136904D01*
X107321428Y-86136904D02*
X107226190Y-86089285D01*
X107226190Y-86089285D02*
X107130952Y-86089285D01*
X107178571Y-86327380D02*
X107083333Y-86279761D01*
X107083333Y-86279761D02*
X106988095Y-86184523D01*
X106988095Y-86184523D02*
X106940476Y-85994047D01*
X106940476Y-85994047D02*
X106940476Y-85660714D01*
X106940476Y-85660714D02*
X106988095Y-85470238D01*
X106988095Y-85470238D02*
X107083333Y-85375000D01*
X107083333Y-85375000D02*
X107178571Y-85327380D01*
X107178571Y-85327380D02*
X107369047Y-85327380D01*
X107369047Y-85327380D02*
X107464285Y-85375000D01*
X107464285Y-85375000D02*
X107559523Y-85470238D01*
X107559523Y-85470238D02*
X107607142Y-85660714D01*
X107607142Y-85660714D02*
X107607142Y-85994047D01*
X107607142Y-85994047D02*
X107559523Y-86184523D01*
X107559523Y-86184523D02*
X107464285Y-86279761D01*
X107464285Y-86279761D02*
X107369047Y-86327380D01*
X107369047Y-86327380D02*
X107178571Y-86327380D01*
X108464285Y-85660714D02*
X108464285Y-86327380D01*
X108226190Y-85279761D02*
X107988095Y-85994047D01*
X107988095Y-85994047D02*
X108607142Y-85994047D01*
%TO.C,Q2*%
X89649761Y-86482619D02*
X89554523Y-86435000D01*
X89554523Y-86435000D02*
X89459285Y-86339761D01*
X89459285Y-86339761D02*
X89316428Y-86196904D01*
X89316428Y-86196904D02*
X89221190Y-86149285D01*
X89221190Y-86149285D02*
X89125952Y-86149285D01*
X89173571Y-86387380D02*
X89078333Y-86339761D01*
X89078333Y-86339761D02*
X88983095Y-86244523D01*
X88983095Y-86244523D02*
X88935476Y-86054047D01*
X88935476Y-86054047D02*
X88935476Y-85720714D01*
X88935476Y-85720714D02*
X88983095Y-85530238D01*
X88983095Y-85530238D02*
X89078333Y-85435000D01*
X89078333Y-85435000D02*
X89173571Y-85387380D01*
X89173571Y-85387380D02*
X89364047Y-85387380D01*
X89364047Y-85387380D02*
X89459285Y-85435000D01*
X89459285Y-85435000D02*
X89554523Y-85530238D01*
X89554523Y-85530238D02*
X89602142Y-85720714D01*
X89602142Y-85720714D02*
X89602142Y-86054047D01*
X89602142Y-86054047D02*
X89554523Y-86244523D01*
X89554523Y-86244523D02*
X89459285Y-86339761D01*
X89459285Y-86339761D02*
X89364047Y-86387380D01*
X89364047Y-86387380D02*
X89173571Y-86387380D01*
X89983095Y-85482619D02*
X90030714Y-85435000D01*
X90030714Y-85435000D02*
X90125952Y-85387380D01*
X90125952Y-85387380D02*
X90364047Y-85387380D01*
X90364047Y-85387380D02*
X90459285Y-85435000D01*
X90459285Y-85435000D02*
X90506904Y-85482619D01*
X90506904Y-85482619D02*
X90554523Y-85577857D01*
X90554523Y-85577857D02*
X90554523Y-85673095D01*
X90554523Y-85673095D02*
X90506904Y-85815952D01*
X90506904Y-85815952D02*
X89935476Y-86387380D01*
X89935476Y-86387380D02*
X90554523Y-86387380D01*
%TO.C,R4*%
X196363333Y-71977380D02*
X196030000Y-71501190D01*
X195791905Y-71977380D02*
X195791905Y-70977380D01*
X195791905Y-70977380D02*
X196172857Y-70977380D01*
X196172857Y-70977380D02*
X196268095Y-71025000D01*
X196268095Y-71025000D02*
X196315714Y-71072619D01*
X196315714Y-71072619D02*
X196363333Y-71167857D01*
X196363333Y-71167857D02*
X196363333Y-71310714D01*
X196363333Y-71310714D02*
X196315714Y-71405952D01*
X196315714Y-71405952D02*
X196268095Y-71453571D01*
X196268095Y-71453571D02*
X196172857Y-71501190D01*
X196172857Y-71501190D02*
X195791905Y-71501190D01*
X197220476Y-71310714D02*
X197220476Y-71977380D01*
X196982381Y-70929761D02*
X196744286Y-71644047D01*
X196744286Y-71644047D02*
X197363333Y-71644047D01*
%TO.C,PS1*%
X122875714Y-54687380D02*
X122875714Y-53687380D01*
X122875714Y-53687380D02*
X123256666Y-53687380D01*
X123256666Y-53687380D02*
X123351904Y-53735000D01*
X123351904Y-53735000D02*
X123399523Y-53782619D01*
X123399523Y-53782619D02*
X123447142Y-53877857D01*
X123447142Y-53877857D02*
X123447142Y-54020714D01*
X123447142Y-54020714D02*
X123399523Y-54115952D01*
X123399523Y-54115952D02*
X123351904Y-54163571D01*
X123351904Y-54163571D02*
X123256666Y-54211190D01*
X123256666Y-54211190D02*
X122875714Y-54211190D01*
X123828095Y-54639761D02*
X123970952Y-54687380D01*
X123970952Y-54687380D02*
X124209047Y-54687380D01*
X124209047Y-54687380D02*
X124304285Y-54639761D01*
X124304285Y-54639761D02*
X124351904Y-54592142D01*
X124351904Y-54592142D02*
X124399523Y-54496904D01*
X124399523Y-54496904D02*
X124399523Y-54401666D01*
X124399523Y-54401666D02*
X124351904Y-54306428D01*
X124351904Y-54306428D02*
X124304285Y-54258809D01*
X124304285Y-54258809D02*
X124209047Y-54211190D01*
X124209047Y-54211190D02*
X124018571Y-54163571D01*
X124018571Y-54163571D02*
X123923333Y-54115952D01*
X123923333Y-54115952D02*
X123875714Y-54068333D01*
X123875714Y-54068333D02*
X123828095Y-53973095D01*
X123828095Y-53973095D02*
X123828095Y-53877857D01*
X123828095Y-53877857D02*
X123875714Y-53782619D01*
X123875714Y-53782619D02*
X123923333Y-53735000D01*
X123923333Y-53735000D02*
X124018571Y-53687380D01*
X124018571Y-53687380D02*
X124256666Y-53687380D01*
X124256666Y-53687380D02*
X124399523Y-53735000D01*
X125351904Y-54687380D02*
X124780476Y-54687380D01*
X125066190Y-54687380D02*
X125066190Y-53687380D01*
X125066190Y-53687380D02*
X124970952Y-53830238D01*
X124970952Y-53830238D02*
X124875714Y-53925476D01*
X124875714Y-53925476D02*
X124780476Y-53973095D01*
%TO.C,R16*%
X183187142Y-66897380D02*
X182853809Y-66421190D01*
X182615714Y-66897380D02*
X182615714Y-65897380D01*
X182615714Y-65897380D02*
X182996666Y-65897380D01*
X182996666Y-65897380D02*
X183091904Y-65945000D01*
X183091904Y-65945000D02*
X183139523Y-65992619D01*
X183139523Y-65992619D02*
X183187142Y-66087857D01*
X183187142Y-66087857D02*
X183187142Y-66230714D01*
X183187142Y-66230714D02*
X183139523Y-66325952D01*
X183139523Y-66325952D02*
X183091904Y-66373571D01*
X183091904Y-66373571D02*
X182996666Y-66421190D01*
X182996666Y-66421190D02*
X182615714Y-66421190D01*
X184139523Y-66897380D02*
X183568095Y-66897380D01*
X183853809Y-66897380D02*
X183853809Y-65897380D01*
X183853809Y-65897380D02*
X183758571Y-66040238D01*
X183758571Y-66040238D02*
X183663333Y-66135476D01*
X183663333Y-66135476D02*
X183568095Y-66183095D01*
X184996666Y-65897380D02*
X184806190Y-65897380D01*
X184806190Y-65897380D02*
X184710952Y-65945000D01*
X184710952Y-65945000D02*
X184663333Y-65992619D01*
X184663333Y-65992619D02*
X184568095Y-66135476D01*
X184568095Y-66135476D02*
X184520476Y-66325952D01*
X184520476Y-66325952D02*
X184520476Y-66706904D01*
X184520476Y-66706904D02*
X184568095Y-66802142D01*
X184568095Y-66802142D02*
X184615714Y-66849761D01*
X184615714Y-66849761D02*
X184710952Y-66897380D01*
X184710952Y-66897380D02*
X184901428Y-66897380D01*
X184901428Y-66897380D02*
X184996666Y-66849761D01*
X184996666Y-66849761D02*
X185044285Y-66802142D01*
X185044285Y-66802142D02*
X185091904Y-66706904D01*
X185091904Y-66706904D02*
X185091904Y-66468809D01*
X185091904Y-66468809D02*
X185044285Y-66373571D01*
X185044285Y-66373571D02*
X184996666Y-66325952D01*
X184996666Y-66325952D02*
X184901428Y-66278333D01*
X184901428Y-66278333D02*
X184710952Y-66278333D01*
X184710952Y-66278333D02*
X184615714Y-66325952D01*
X184615714Y-66325952D02*
X184568095Y-66373571D01*
X184568095Y-66373571D02*
X184520476Y-66468809D01*
%TO.C,U6*%
X184338095Y-74152380D02*
X184338095Y-74961904D01*
X184338095Y-74961904D02*
X184385714Y-75057142D01*
X184385714Y-75057142D02*
X184433333Y-75104761D01*
X184433333Y-75104761D02*
X184528571Y-75152380D01*
X184528571Y-75152380D02*
X184719047Y-75152380D01*
X184719047Y-75152380D02*
X184814285Y-75104761D01*
X184814285Y-75104761D02*
X184861904Y-75057142D01*
X184861904Y-75057142D02*
X184909523Y-74961904D01*
X184909523Y-74961904D02*
X184909523Y-74152380D01*
X185814285Y-74152380D02*
X185623809Y-74152380D01*
X185623809Y-74152380D02*
X185528571Y-74200000D01*
X185528571Y-74200000D02*
X185480952Y-74247619D01*
X185480952Y-74247619D02*
X185385714Y-74390476D01*
X185385714Y-74390476D02*
X185338095Y-74580952D01*
X185338095Y-74580952D02*
X185338095Y-74961904D01*
X185338095Y-74961904D02*
X185385714Y-75057142D01*
X185385714Y-75057142D02*
X185433333Y-75104761D01*
X185433333Y-75104761D02*
X185528571Y-75152380D01*
X185528571Y-75152380D02*
X185719047Y-75152380D01*
X185719047Y-75152380D02*
X185814285Y-75104761D01*
X185814285Y-75104761D02*
X185861904Y-75057142D01*
X185861904Y-75057142D02*
X185909523Y-74961904D01*
X185909523Y-74961904D02*
X185909523Y-74723809D01*
X185909523Y-74723809D02*
X185861904Y-74628571D01*
X185861904Y-74628571D02*
X185814285Y-74580952D01*
X185814285Y-74580952D02*
X185719047Y-74533333D01*
X185719047Y-74533333D02*
X185528571Y-74533333D01*
X185528571Y-74533333D02*
X185433333Y-74580952D01*
X185433333Y-74580952D02*
X185385714Y-74628571D01*
X185385714Y-74628571D02*
X185338095Y-74723809D01*
%TO.C,HS1*%
X91106905Y-73587380D02*
X91106905Y-72587380D01*
X91106905Y-73063571D02*
X91678333Y-73063571D01*
X91678333Y-73587380D02*
X91678333Y-72587380D01*
X92106905Y-73539761D02*
X92249762Y-73587380D01*
X92249762Y-73587380D02*
X92487857Y-73587380D01*
X92487857Y-73587380D02*
X92583095Y-73539761D01*
X92583095Y-73539761D02*
X92630714Y-73492142D01*
X92630714Y-73492142D02*
X92678333Y-73396904D01*
X92678333Y-73396904D02*
X92678333Y-73301666D01*
X92678333Y-73301666D02*
X92630714Y-73206428D01*
X92630714Y-73206428D02*
X92583095Y-73158809D01*
X92583095Y-73158809D02*
X92487857Y-73111190D01*
X92487857Y-73111190D02*
X92297381Y-73063571D01*
X92297381Y-73063571D02*
X92202143Y-73015952D01*
X92202143Y-73015952D02*
X92154524Y-72968333D01*
X92154524Y-72968333D02*
X92106905Y-72873095D01*
X92106905Y-72873095D02*
X92106905Y-72777857D01*
X92106905Y-72777857D02*
X92154524Y-72682619D01*
X92154524Y-72682619D02*
X92202143Y-72635000D01*
X92202143Y-72635000D02*
X92297381Y-72587380D01*
X92297381Y-72587380D02*
X92535476Y-72587380D01*
X92535476Y-72587380D02*
X92678333Y-72635000D01*
X93630714Y-73587380D02*
X93059286Y-73587380D01*
X93345000Y-73587380D02*
X93345000Y-72587380D01*
X93345000Y-72587380D02*
X93249762Y-72730238D01*
X93249762Y-72730238D02*
X93154524Y-72825476D01*
X93154524Y-72825476D02*
X93059286Y-72873095D01*
%TO.C,*%
%TO.C,R1*%
X206523333Y-83407380D02*
X206190000Y-82931190D01*
X205951905Y-83407380D02*
X205951905Y-82407380D01*
X205951905Y-82407380D02*
X206332857Y-82407380D01*
X206332857Y-82407380D02*
X206428095Y-82455000D01*
X206428095Y-82455000D02*
X206475714Y-82502619D01*
X206475714Y-82502619D02*
X206523333Y-82597857D01*
X206523333Y-82597857D02*
X206523333Y-82740714D01*
X206523333Y-82740714D02*
X206475714Y-82835952D01*
X206475714Y-82835952D02*
X206428095Y-82883571D01*
X206428095Y-82883571D02*
X206332857Y-82931190D01*
X206332857Y-82931190D02*
X205951905Y-82931190D01*
X207475714Y-83407380D02*
X206904286Y-83407380D01*
X207190000Y-83407380D02*
X207190000Y-82407380D01*
X207190000Y-82407380D02*
X207094762Y-82550238D01*
X207094762Y-82550238D02*
X206999524Y-82645476D01*
X206999524Y-82645476D02*
X206904286Y-82693095D01*
%TO.C,R2*%
X196363333Y-66897380D02*
X196030000Y-66421190D01*
X195791905Y-66897380D02*
X195791905Y-65897380D01*
X195791905Y-65897380D02*
X196172857Y-65897380D01*
X196172857Y-65897380D02*
X196268095Y-65945000D01*
X196268095Y-65945000D02*
X196315714Y-65992619D01*
X196315714Y-65992619D02*
X196363333Y-66087857D01*
X196363333Y-66087857D02*
X196363333Y-66230714D01*
X196363333Y-66230714D02*
X196315714Y-66325952D01*
X196315714Y-66325952D02*
X196268095Y-66373571D01*
X196268095Y-66373571D02*
X196172857Y-66421190D01*
X196172857Y-66421190D02*
X195791905Y-66421190D01*
X196744286Y-65992619D02*
X196791905Y-65945000D01*
X196791905Y-65945000D02*
X196887143Y-65897380D01*
X196887143Y-65897380D02*
X197125238Y-65897380D01*
X197125238Y-65897380D02*
X197220476Y-65945000D01*
X197220476Y-65945000D02*
X197268095Y-65992619D01*
X197268095Y-65992619D02*
X197315714Y-66087857D01*
X197315714Y-66087857D02*
X197315714Y-66183095D01*
X197315714Y-66183095D02*
X197268095Y-66325952D01*
X197268095Y-66325952D02*
X196696667Y-66897380D01*
X196696667Y-66897380D02*
X197315714Y-66897380D01*
%TO.C,R13*%
X145087142Y-66897380D02*
X144753809Y-66421190D01*
X144515714Y-66897380D02*
X144515714Y-65897380D01*
X144515714Y-65897380D02*
X144896666Y-65897380D01*
X144896666Y-65897380D02*
X144991904Y-65945000D01*
X144991904Y-65945000D02*
X145039523Y-65992619D01*
X145039523Y-65992619D02*
X145087142Y-66087857D01*
X145087142Y-66087857D02*
X145087142Y-66230714D01*
X145087142Y-66230714D02*
X145039523Y-66325952D01*
X145039523Y-66325952D02*
X144991904Y-66373571D01*
X144991904Y-66373571D02*
X144896666Y-66421190D01*
X144896666Y-66421190D02*
X144515714Y-66421190D01*
X146039523Y-66897380D02*
X145468095Y-66897380D01*
X145753809Y-66897380D02*
X145753809Y-65897380D01*
X145753809Y-65897380D02*
X145658571Y-66040238D01*
X145658571Y-66040238D02*
X145563333Y-66135476D01*
X145563333Y-66135476D02*
X145468095Y-66183095D01*
X146372857Y-65897380D02*
X146991904Y-65897380D01*
X146991904Y-65897380D02*
X146658571Y-66278333D01*
X146658571Y-66278333D02*
X146801428Y-66278333D01*
X146801428Y-66278333D02*
X146896666Y-66325952D01*
X146896666Y-66325952D02*
X146944285Y-66373571D01*
X146944285Y-66373571D02*
X146991904Y-66468809D01*
X146991904Y-66468809D02*
X146991904Y-66706904D01*
X146991904Y-66706904D02*
X146944285Y-66802142D01*
X146944285Y-66802142D02*
X146896666Y-66849761D01*
X146896666Y-66849761D02*
X146801428Y-66897380D01*
X146801428Y-66897380D02*
X146515714Y-66897380D01*
X146515714Y-66897380D02*
X146420476Y-66849761D01*
X146420476Y-66849761D02*
X146372857Y-66802142D01*
%TO.C,R8*%
X162073333Y-86582380D02*
X161740000Y-86106190D01*
X161501905Y-86582380D02*
X161501905Y-85582380D01*
X161501905Y-85582380D02*
X161882857Y-85582380D01*
X161882857Y-85582380D02*
X161978095Y-85630000D01*
X161978095Y-85630000D02*
X162025714Y-85677619D01*
X162025714Y-85677619D02*
X162073333Y-85772857D01*
X162073333Y-85772857D02*
X162073333Y-85915714D01*
X162073333Y-85915714D02*
X162025714Y-86010952D01*
X162025714Y-86010952D02*
X161978095Y-86058571D01*
X161978095Y-86058571D02*
X161882857Y-86106190D01*
X161882857Y-86106190D02*
X161501905Y-86106190D01*
X162644762Y-86010952D02*
X162549524Y-85963333D01*
X162549524Y-85963333D02*
X162501905Y-85915714D01*
X162501905Y-85915714D02*
X162454286Y-85820476D01*
X162454286Y-85820476D02*
X162454286Y-85772857D01*
X162454286Y-85772857D02*
X162501905Y-85677619D01*
X162501905Y-85677619D02*
X162549524Y-85630000D01*
X162549524Y-85630000D02*
X162644762Y-85582380D01*
X162644762Y-85582380D02*
X162835238Y-85582380D01*
X162835238Y-85582380D02*
X162930476Y-85630000D01*
X162930476Y-85630000D02*
X162978095Y-85677619D01*
X162978095Y-85677619D02*
X163025714Y-85772857D01*
X163025714Y-85772857D02*
X163025714Y-85820476D01*
X163025714Y-85820476D02*
X162978095Y-85915714D01*
X162978095Y-85915714D02*
X162930476Y-85963333D01*
X162930476Y-85963333D02*
X162835238Y-86010952D01*
X162835238Y-86010952D02*
X162644762Y-86010952D01*
X162644762Y-86010952D02*
X162549524Y-86058571D01*
X162549524Y-86058571D02*
X162501905Y-86106190D01*
X162501905Y-86106190D02*
X162454286Y-86201428D01*
X162454286Y-86201428D02*
X162454286Y-86391904D01*
X162454286Y-86391904D02*
X162501905Y-86487142D01*
X162501905Y-86487142D02*
X162549524Y-86534761D01*
X162549524Y-86534761D02*
X162644762Y-86582380D01*
X162644762Y-86582380D02*
X162835238Y-86582380D01*
X162835238Y-86582380D02*
X162930476Y-86534761D01*
X162930476Y-86534761D02*
X162978095Y-86487142D01*
X162978095Y-86487142D02*
X163025714Y-86391904D01*
X163025714Y-86391904D02*
X163025714Y-86201428D01*
X163025714Y-86201428D02*
X162978095Y-86106190D01*
X162978095Y-86106190D02*
X162930476Y-86058571D01*
X162930476Y-86058571D02*
X162835238Y-86010952D01*
%TO.C,Q1*%
X82749761Y-86432619D02*
X82654523Y-86385000D01*
X82654523Y-86385000D02*
X82559285Y-86289761D01*
X82559285Y-86289761D02*
X82416428Y-86146904D01*
X82416428Y-86146904D02*
X82321190Y-86099285D01*
X82321190Y-86099285D02*
X82225952Y-86099285D01*
X82273571Y-86337380D02*
X82178333Y-86289761D01*
X82178333Y-86289761D02*
X82083095Y-86194523D01*
X82083095Y-86194523D02*
X82035476Y-86004047D01*
X82035476Y-86004047D02*
X82035476Y-85670714D01*
X82035476Y-85670714D02*
X82083095Y-85480238D01*
X82083095Y-85480238D02*
X82178333Y-85385000D01*
X82178333Y-85385000D02*
X82273571Y-85337380D01*
X82273571Y-85337380D02*
X82464047Y-85337380D01*
X82464047Y-85337380D02*
X82559285Y-85385000D01*
X82559285Y-85385000D02*
X82654523Y-85480238D01*
X82654523Y-85480238D02*
X82702142Y-85670714D01*
X82702142Y-85670714D02*
X82702142Y-86004047D01*
X82702142Y-86004047D02*
X82654523Y-86194523D01*
X82654523Y-86194523D02*
X82559285Y-86289761D01*
X82559285Y-86289761D02*
X82464047Y-86337380D01*
X82464047Y-86337380D02*
X82273571Y-86337380D01*
X83654523Y-86337380D02*
X83083095Y-86337380D01*
X83368809Y-86337380D02*
X83368809Y-85337380D01*
X83368809Y-85337380D02*
X83273571Y-85480238D01*
X83273571Y-85480238D02*
X83178333Y-85575476D01*
X83178333Y-85575476D02*
X83083095Y-85623095D01*
%TO.C,R12*%
X185727142Y-80232380D02*
X185393809Y-79756190D01*
X185155714Y-80232380D02*
X185155714Y-79232380D01*
X185155714Y-79232380D02*
X185536666Y-79232380D01*
X185536666Y-79232380D02*
X185631904Y-79280000D01*
X185631904Y-79280000D02*
X185679523Y-79327619D01*
X185679523Y-79327619D02*
X185727142Y-79422857D01*
X185727142Y-79422857D02*
X185727142Y-79565714D01*
X185727142Y-79565714D02*
X185679523Y-79660952D01*
X185679523Y-79660952D02*
X185631904Y-79708571D01*
X185631904Y-79708571D02*
X185536666Y-79756190D01*
X185536666Y-79756190D02*
X185155714Y-79756190D01*
X186679523Y-80232380D02*
X186108095Y-80232380D01*
X186393809Y-80232380D02*
X186393809Y-79232380D01*
X186393809Y-79232380D02*
X186298571Y-79375238D01*
X186298571Y-79375238D02*
X186203333Y-79470476D01*
X186203333Y-79470476D02*
X186108095Y-79518095D01*
X187060476Y-79327619D02*
X187108095Y-79280000D01*
X187108095Y-79280000D02*
X187203333Y-79232380D01*
X187203333Y-79232380D02*
X187441428Y-79232380D01*
X187441428Y-79232380D02*
X187536666Y-79280000D01*
X187536666Y-79280000D02*
X187584285Y-79327619D01*
X187584285Y-79327619D02*
X187631904Y-79422857D01*
X187631904Y-79422857D02*
X187631904Y-79518095D01*
X187631904Y-79518095D02*
X187584285Y-79660952D01*
X187584285Y-79660952D02*
X187012857Y-80232380D01*
X187012857Y-80232380D02*
X187631904Y-80232380D01*
%TO.C,R6*%
X154453333Y-86582380D02*
X154120000Y-86106190D01*
X153881905Y-86582380D02*
X153881905Y-85582380D01*
X153881905Y-85582380D02*
X154262857Y-85582380D01*
X154262857Y-85582380D02*
X154358095Y-85630000D01*
X154358095Y-85630000D02*
X154405714Y-85677619D01*
X154405714Y-85677619D02*
X154453333Y-85772857D01*
X154453333Y-85772857D02*
X154453333Y-85915714D01*
X154453333Y-85915714D02*
X154405714Y-86010952D01*
X154405714Y-86010952D02*
X154358095Y-86058571D01*
X154358095Y-86058571D02*
X154262857Y-86106190D01*
X154262857Y-86106190D02*
X153881905Y-86106190D01*
X155310476Y-85582380D02*
X155120000Y-85582380D01*
X155120000Y-85582380D02*
X155024762Y-85630000D01*
X155024762Y-85630000D02*
X154977143Y-85677619D01*
X154977143Y-85677619D02*
X154881905Y-85820476D01*
X154881905Y-85820476D02*
X154834286Y-86010952D01*
X154834286Y-86010952D02*
X154834286Y-86391904D01*
X154834286Y-86391904D02*
X154881905Y-86487142D01*
X154881905Y-86487142D02*
X154929524Y-86534761D01*
X154929524Y-86534761D02*
X155024762Y-86582380D01*
X155024762Y-86582380D02*
X155215238Y-86582380D01*
X155215238Y-86582380D02*
X155310476Y-86534761D01*
X155310476Y-86534761D02*
X155358095Y-86487142D01*
X155358095Y-86487142D02*
X155405714Y-86391904D01*
X155405714Y-86391904D02*
X155405714Y-86153809D01*
X155405714Y-86153809D02*
X155358095Y-86058571D01*
X155358095Y-86058571D02*
X155310476Y-86010952D01*
X155310476Y-86010952D02*
X155215238Y-85963333D01*
X155215238Y-85963333D02*
X155024762Y-85963333D01*
X155024762Y-85963333D02*
X154929524Y-86010952D01*
X154929524Y-86010952D02*
X154881905Y-86058571D01*
X154881905Y-86058571D02*
X154834286Y-86153809D01*
%TO.C,R7*%
X158263333Y-86582380D02*
X157930000Y-86106190D01*
X157691905Y-86582380D02*
X157691905Y-85582380D01*
X157691905Y-85582380D02*
X158072857Y-85582380D01*
X158072857Y-85582380D02*
X158168095Y-85630000D01*
X158168095Y-85630000D02*
X158215714Y-85677619D01*
X158215714Y-85677619D02*
X158263333Y-85772857D01*
X158263333Y-85772857D02*
X158263333Y-85915714D01*
X158263333Y-85915714D02*
X158215714Y-86010952D01*
X158215714Y-86010952D02*
X158168095Y-86058571D01*
X158168095Y-86058571D02*
X158072857Y-86106190D01*
X158072857Y-86106190D02*
X157691905Y-86106190D01*
X158596667Y-85582380D02*
X159263333Y-85582380D01*
X159263333Y-85582380D02*
X158834762Y-86582380D01*
%TO.C,R5*%
X150643333Y-86582380D02*
X150310000Y-86106190D01*
X150071905Y-86582380D02*
X150071905Y-85582380D01*
X150071905Y-85582380D02*
X150452857Y-85582380D01*
X150452857Y-85582380D02*
X150548095Y-85630000D01*
X150548095Y-85630000D02*
X150595714Y-85677619D01*
X150595714Y-85677619D02*
X150643333Y-85772857D01*
X150643333Y-85772857D02*
X150643333Y-85915714D01*
X150643333Y-85915714D02*
X150595714Y-86010952D01*
X150595714Y-86010952D02*
X150548095Y-86058571D01*
X150548095Y-86058571D02*
X150452857Y-86106190D01*
X150452857Y-86106190D02*
X150071905Y-86106190D01*
X151548095Y-85582380D02*
X151071905Y-85582380D01*
X151071905Y-85582380D02*
X151024286Y-86058571D01*
X151024286Y-86058571D02*
X151071905Y-86010952D01*
X151071905Y-86010952D02*
X151167143Y-85963333D01*
X151167143Y-85963333D02*
X151405238Y-85963333D01*
X151405238Y-85963333D02*
X151500476Y-86010952D01*
X151500476Y-86010952D02*
X151548095Y-86058571D01*
X151548095Y-86058571D02*
X151595714Y-86153809D01*
X151595714Y-86153809D02*
X151595714Y-86391904D01*
X151595714Y-86391904D02*
X151548095Y-86487142D01*
X151548095Y-86487142D02*
X151500476Y-86534761D01*
X151500476Y-86534761D02*
X151405238Y-86582380D01*
X151405238Y-86582380D02*
X151167143Y-86582380D01*
X151167143Y-86582380D02*
X151071905Y-86534761D01*
X151071905Y-86534761D02*
X151024286Y-86487142D01*
%TO.C,U4*%
X158938095Y-74152380D02*
X158938095Y-74961904D01*
X158938095Y-74961904D02*
X158985714Y-75057142D01*
X158985714Y-75057142D02*
X159033333Y-75104761D01*
X159033333Y-75104761D02*
X159128571Y-75152380D01*
X159128571Y-75152380D02*
X159319047Y-75152380D01*
X159319047Y-75152380D02*
X159414285Y-75104761D01*
X159414285Y-75104761D02*
X159461904Y-75057142D01*
X159461904Y-75057142D02*
X159509523Y-74961904D01*
X159509523Y-74961904D02*
X159509523Y-74152380D01*
X160414285Y-74485714D02*
X160414285Y-75152380D01*
X160176190Y-74104761D02*
X159938095Y-74819047D01*
X159938095Y-74819047D02*
X160557142Y-74819047D01*
%TO.C,*%
%TO.C,HS2*%
X109111905Y-73527380D02*
X109111905Y-72527380D01*
X109111905Y-73003571D02*
X109683333Y-73003571D01*
X109683333Y-73527380D02*
X109683333Y-72527380D01*
X110111905Y-73479761D02*
X110254762Y-73527380D01*
X110254762Y-73527380D02*
X110492857Y-73527380D01*
X110492857Y-73527380D02*
X110588095Y-73479761D01*
X110588095Y-73479761D02*
X110635714Y-73432142D01*
X110635714Y-73432142D02*
X110683333Y-73336904D01*
X110683333Y-73336904D02*
X110683333Y-73241666D01*
X110683333Y-73241666D02*
X110635714Y-73146428D01*
X110635714Y-73146428D02*
X110588095Y-73098809D01*
X110588095Y-73098809D02*
X110492857Y-73051190D01*
X110492857Y-73051190D02*
X110302381Y-73003571D01*
X110302381Y-73003571D02*
X110207143Y-72955952D01*
X110207143Y-72955952D02*
X110159524Y-72908333D01*
X110159524Y-72908333D02*
X110111905Y-72813095D01*
X110111905Y-72813095D02*
X110111905Y-72717857D01*
X110111905Y-72717857D02*
X110159524Y-72622619D01*
X110159524Y-72622619D02*
X110207143Y-72575000D01*
X110207143Y-72575000D02*
X110302381Y-72527380D01*
X110302381Y-72527380D02*
X110540476Y-72527380D01*
X110540476Y-72527380D02*
X110683333Y-72575000D01*
X111064286Y-72622619D02*
X111111905Y-72575000D01*
X111111905Y-72575000D02*
X111207143Y-72527380D01*
X111207143Y-72527380D02*
X111445238Y-72527380D01*
X111445238Y-72527380D02*
X111540476Y-72575000D01*
X111540476Y-72575000D02*
X111588095Y-72622619D01*
X111588095Y-72622619D02*
X111635714Y-72717857D01*
X111635714Y-72717857D02*
X111635714Y-72813095D01*
X111635714Y-72813095D02*
X111588095Y-72955952D01*
X111588095Y-72955952D02*
X111016667Y-73527380D01*
X111016667Y-73527380D02*
X111635714Y-73527380D01*
%TO.C,F1*%
X194926666Y-117173571D02*
X194593333Y-117173571D01*
X194593333Y-117697380D02*
X194593333Y-116697380D01*
X194593333Y-116697380D02*
X195069523Y-116697380D01*
X195974285Y-117697380D02*
X195402857Y-117697380D01*
X195688571Y-117697380D02*
X195688571Y-116697380D01*
X195688571Y-116697380D02*
X195593333Y-116840238D01*
X195593333Y-116840238D02*
X195498095Y-116935476D01*
X195498095Y-116935476D02*
X195402857Y-116983095D01*
%TO.C,U3*%
X146238095Y-74152380D02*
X146238095Y-74961904D01*
X146238095Y-74961904D02*
X146285714Y-75057142D01*
X146285714Y-75057142D02*
X146333333Y-75104761D01*
X146333333Y-75104761D02*
X146428571Y-75152380D01*
X146428571Y-75152380D02*
X146619047Y-75152380D01*
X146619047Y-75152380D02*
X146714285Y-75104761D01*
X146714285Y-75104761D02*
X146761904Y-75057142D01*
X146761904Y-75057142D02*
X146809523Y-74961904D01*
X146809523Y-74961904D02*
X146809523Y-74152380D01*
X147190476Y-74152380D02*
X147809523Y-74152380D01*
X147809523Y-74152380D02*
X147476190Y-74533333D01*
X147476190Y-74533333D02*
X147619047Y-74533333D01*
X147619047Y-74533333D02*
X147714285Y-74580952D01*
X147714285Y-74580952D02*
X147761904Y-74628571D01*
X147761904Y-74628571D02*
X147809523Y-74723809D01*
X147809523Y-74723809D02*
X147809523Y-74961904D01*
X147809523Y-74961904D02*
X147761904Y-75057142D01*
X147761904Y-75057142D02*
X147714285Y-75104761D01*
X147714285Y-75104761D02*
X147619047Y-75152380D01*
X147619047Y-75152380D02*
X147333333Y-75152380D01*
X147333333Y-75152380D02*
X147238095Y-75104761D01*
X147238095Y-75104761D02*
X147190476Y-75057142D01*
%TO.C,*%
D12*
%TO.C,D4*%
X160010000Y-93615000D02*
X161930000Y-93615000D01*
X161930000Y-93615000D02*
X161930000Y-90930000D01*
X160010000Y-90930000D02*
X160010000Y-93615000D01*
%TO.C,D1*%
X148580000Y-93615000D02*
X150500000Y-93615000D01*
X150500000Y-93615000D02*
X150500000Y-90930000D01*
X148580000Y-90930000D02*
X148580000Y-93615000D01*
%TO.C,J2*%
X137240000Y-51690000D02*
X137240000Y-59310000D01*
X137240000Y-51690000D02*
X167720000Y-51690000D01*
X137240000Y-58040000D02*
X167720000Y-58040000D01*
X137240000Y-59310000D02*
X167720000Y-59310000D01*
X167720000Y-59310000D02*
X167720000Y-51690000D01*
%TO.C,R14*%
X157075000Y-70428737D02*
X157075000Y-68981263D01*
X159785000Y-70428737D02*
X159785000Y-68981263D01*
%TO.C,R3*%
X198832742Y-68547500D02*
X199307258Y-68547500D01*
X198832742Y-69592500D02*
X199307258Y-69592500D01*
D11*
%TO.C,U1*%
X144065000Y-88020000D02*
X144065000Y-60020000D01*
X217745000Y-88020000D02*
X144065000Y-88020000D01*
X217745000Y-88020000D02*
X224065000Y-88020000D01*
X224065000Y-88020000D02*
X224065000Y-60020000D01*
X137200000Y-83030000D02*
X144065000Y-83030000D01*
X137200000Y-83030000D02*
X137200000Y-65030000D01*
X229761000Y-77839000D02*
X217961000Y-77839000D01*
X137200000Y-65030000D02*
X144065000Y-65030000D01*
X217961000Y-61839000D02*
X229761000Y-61839000D01*
X229761000Y-61839000D02*
X229761000Y-77839000D01*
X224065000Y-60020000D02*
X144065000Y-60020000D01*
D12*
%TO.C,R9*%
X150572742Y-79342500D02*
X151047258Y-79342500D01*
X150572742Y-80387500D02*
X151047258Y-80387500D01*
%TO.C,D3*%
X156200000Y-93615000D02*
X158120000Y-93615000D01*
X158120000Y-93615000D02*
X158120000Y-90930000D01*
X156200000Y-90930000D02*
X156200000Y-93615000D01*
%TO.C,R15*%
X169775000Y-70428737D02*
X169775000Y-68981263D01*
X172485000Y-70428737D02*
X172485000Y-68981263D01*
%TO.C,R10*%
X163272742Y-79342500D02*
X163747258Y-79342500D01*
X163272742Y-80387500D02*
X163747258Y-80387500D01*
%TO.C,J1*%
X225963000Y-85420000D02*
X225963000Y-80420000D01*
X223963000Y-86020000D02*
X223963000Y-85420000D01*
X223963000Y-86020000D02*
X221588000Y-86020000D01*
X223963000Y-85420000D02*
X225963000Y-85420000D01*
X223963000Y-80420000D02*
X225963000Y-80420000D01*
X223963000Y-80420000D02*
X223963000Y-79820000D01*
X219938000Y-86020000D02*
X218588000Y-86020000D01*
X216938000Y-86020000D02*
X214538000Y-86020000D01*
X214538000Y-86020000D02*
X214538000Y-87420000D01*
X213438000Y-79820000D02*
X223963000Y-79820000D01*
X212988000Y-86020000D02*
X212988000Y-87420000D01*
X212988000Y-86020000D02*
X211863000Y-86020000D01*
X211863000Y-79820000D02*
X211863000Y-86020000D01*
%TO.C,U5*%
X173610000Y-76115000D02*
X181350000Y-76115000D01*
X181350000Y-76115000D02*
X181350000Y-69645000D01*
X173610000Y-73880000D02*
X173610000Y-76115000D01*
X173610000Y-69645000D02*
X173610000Y-71880000D01*
X181350000Y-69645000D02*
X173610000Y-69645000D01*
X173610000Y-73880000D02*
G75*
G03*
X173610000Y-71880000I0J1000000D01*
G01*
D13*
%TO.C,U2*%
X175810000Y-51310000D02*
X213910000Y-51310000D01*
X175810000Y-57310000D02*
X175810000Y-51310000D01*
X176260000Y-57310000D02*
X175810000Y-57310000D01*
X176260000Y-57310000D02*
X202480000Y-57310000D01*
X213910000Y-51310000D02*
X213910000Y-57310000D01*
X213910000Y-57310000D02*
X213460000Y-57310000D01*
D12*
%TO.C,D2*%
X152390000Y-93615000D02*
X154310000Y-93615000D01*
X154310000Y-93615000D02*
X154310000Y-90930000D01*
X152390000Y-90930000D02*
X152390000Y-93615000D01*
%TO.C,Q3*%
X104085000Y-74340000D02*
X99444000Y-74340000D01*
X104085000Y-74340000D02*
X104085000Y-84580000D01*
X102575000Y-74340000D02*
X102575000Y-84580000D01*
X99444000Y-74340000D02*
X99444000Y-84580000D01*
X104085000Y-77610000D02*
X102575000Y-77610000D01*
X104085000Y-81311000D02*
X102575000Y-81311000D01*
X104085000Y-84580000D02*
X99444000Y-84580000D01*
%TO.C,R11*%
X175972742Y-79342500D02*
X176447258Y-79342500D01*
X175972742Y-80387500D02*
X176447258Y-80387500D01*
%TO.C,Q4*%
X104480000Y-84570000D02*
X109121000Y-84570000D01*
X104480000Y-84570000D02*
X104480000Y-74330000D01*
X105990000Y-84570000D02*
X105990000Y-74330000D01*
X109121000Y-84570000D02*
X109121000Y-74330000D01*
X104480000Y-81300000D02*
X105990000Y-81300000D01*
X104480000Y-77599000D02*
X105990000Y-77599000D01*
X104480000Y-74330000D02*
X109121000Y-74330000D01*
%TO.C,Q2*%
X86475000Y-84630000D02*
X91116000Y-84630000D01*
X86475000Y-84630000D02*
X86475000Y-74390000D01*
X87985000Y-84630000D02*
X87985000Y-74390000D01*
X91116000Y-84630000D02*
X91116000Y-74390000D01*
X86475000Y-81360000D02*
X87985000Y-81360000D01*
X86475000Y-77659000D02*
X87985000Y-77659000D01*
X86475000Y-74390000D02*
X91116000Y-74390000D01*
%TO.C,R4*%
X198832742Y-71087500D02*
X199307258Y-71087500D01*
X198832742Y-72132500D02*
X199307258Y-72132500D01*
%TO.C,PS1*%
X111590000Y-56820000D02*
X111590000Y-62820000D01*
X111970000Y-55440000D02*
X111970000Y-92680000D01*
X111970000Y-92680000D02*
X136210000Y-92680000D01*
X136210000Y-55440000D02*
X111970000Y-55440000D01*
X136210000Y-55440000D02*
X136210000Y-92680000D01*
%TO.C,R16*%
X182475000Y-70428737D02*
X182475000Y-68981263D01*
X185185000Y-70428737D02*
X185185000Y-68981263D01*
%TO.C,U6*%
X186310000Y-76115000D02*
X194050000Y-76115000D01*
X194050000Y-76115000D02*
X194050000Y-69645000D01*
X186310000Y-73880000D02*
X186310000Y-76115000D01*
X186310000Y-69645000D02*
X186310000Y-71880000D01*
X194050000Y-69645000D02*
X186310000Y-69645000D01*
X186310000Y-73880000D02*
G75*
G03*
X186310000Y-71880000I0J1000000D01*
G01*
%TO.C,HS1*%
X92805000Y-61890000D02*
X89035000Y-64040000D01*
X79785000Y-61890000D02*
X83555000Y-64040000D01*
X89565000Y-61900000D02*
X87675000Y-63860000D01*
X83025000Y-61900000D02*
X84915000Y-63860000D01*
X89715000Y-61990000D02*
X89565000Y-61900000D01*
X82875000Y-61990000D02*
X83025000Y-61900000D01*
X92925000Y-62010000D02*
X92805000Y-61890000D01*
X79665000Y-62010000D02*
X79785000Y-61890000D01*
X89035000Y-64040000D02*
X89715000Y-61990000D01*
X83555000Y-64040000D02*
X82875000Y-61990000D01*
X92845000Y-66650000D02*
X90045000Y-67310000D01*
X79745000Y-66650000D02*
X82545000Y-67310000D01*
X92905000Y-66830000D02*
X92845000Y-66650000D01*
X79685000Y-66830000D02*
X79745000Y-66650000D01*
X90045000Y-67310000D02*
X92925000Y-62010000D01*
X82545000Y-67310000D02*
X79665000Y-62010000D01*
X89185000Y-69330000D02*
X92905000Y-66830000D01*
X83405000Y-69330000D02*
X79685000Y-66830000D01*
X92895000Y-70950000D02*
X89185000Y-69340000D01*
X79695000Y-70950000D02*
X83405000Y-69340000D01*
X92895000Y-71620000D02*
X92895000Y-70950000D01*
X87145000Y-71620000D02*
X92895000Y-71620000D01*
X85445000Y-71620000D02*
X79695000Y-71620000D01*
X79695000Y-71620000D02*
X79695000Y-70950000D01*
X87145000Y-79520000D02*
X87145000Y-71620000D01*
X87145000Y-79520000D02*
X87145000Y-87420000D01*
X85445000Y-79520000D02*
X85445000Y-71620000D01*
X85445000Y-79520000D02*
X85445000Y-87420000D01*
X92895000Y-87420000D02*
X92895000Y-88090000D01*
X87145000Y-87420000D02*
X92895000Y-87420000D01*
X85445000Y-87420000D02*
X79695000Y-87420000D01*
X79695000Y-87420000D02*
X79695000Y-88090000D01*
X92895000Y-88090000D02*
X89185000Y-89700000D01*
X79695000Y-88090000D02*
X83405000Y-89700000D01*
X89185000Y-89710000D02*
X92905000Y-92210000D01*
X83405000Y-89710000D02*
X79685000Y-92210000D01*
X90045000Y-91730000D02*
X92925000Y-97030000D01*
X82545000Y-91730000D02*
X79665000Y-97030000D01*
X92905000Y-92210000D02*
X92845000Y-92390000D01*
X79685000Y-92210000D02*
X79745000Y-92390000D01*
X92845000Y-92390000D02*
X90045000Y-91730000D01*
X79745000Y-92390000D02*
X82545000Y-91730000D01*
X89035000Y-95000000D02*
X89715000Y-97050000D01*
X83555000Y-95000000D02*
X82875000Y-97050000D01*
X92925000Y-97030000D02*
X92805000Y-97150000D01*
X79665000Y-97030000D02*
X79785000Y-97150000D01*
X89715000Y-97050000D02*
X89565000Y-97140000D01*
X82875000Y-97050000D02*
X83025000Y-97140000D01*
X89565000Y-97140000D02*
X87675000Y-95180000D01*
X83025000Y-97140000D02*
X84915000Y-95180000D01*
X92805000Y-97150000D02*
X89035000Y-95000000D01*
X79785000Y-97150000D02*
X83555000Y-95000000D01*
%TO.C,R1*%
X208020000Y-83703641D02*
X208020000Y-83396359D01*
X208780000Y-83703641D02*
X208780000Y-83396359D01*
%TO.C,R2*%
X198832742Y-66007500D02*
X199307258Y-66007500D01*
X198832742Y-67052500D02*
X199307258Y-67052500D01*
%TO.C,R13*%
X144375000Y-70428737D02*
X144375000Y-68981263D01*
X147085000Y-70428737D02*
X147085000Y-68981263D01*
%TO.C,R8*%
X161492500Y-87882742D02*
X161492500Y-88357258D01*
X160447500Y-87882742D02*
X160447500Y-88357258D01*
%TO.C,Q1*%
X86080000Y-74400000D02*
X81439000Y-74400000D01*
X86080000Y-74400000D02*
X86080000Y-84640000D01*
X84570000Y-74400000D02*
X84570000Y-84640000D01*
X81439000Y-74400000D02*
X81439000Y-84640000D01*
X86080000Y-77670000D02*
X84570000Y-77670000D01*
X86080000Y-81371000D02*
X84570000Y-81371000D01*
X86080000Y-84640000D02*
X81439000Y-84640000D01*
%TO.C,R12*%
X188672742Y-79342500D02*
X189147258Y-79342500D01*
X188672742Y-80387500D02*
X189147258Y-80387500D01*
%TO.C,R6*%
X153872500Y-87882742D02*
X153872500Y-88357258D01*
X152827500Y-87882742D02*
X152827500Y-88357258D01*
%TO.C,R7*%
X157682500Y-87882742D02*
X157682500Y-88357258D01*
X156637500Y-87882742D02*
X156637500Y-88357258D01*
%TO.C,R5*%
X150062500Y-87882742D02*
X150062500Y-88357258D01*
X149017500Y-87882742D02*
X149017500Y-88357258D01*
%TO.C,U4*%
X160910000Y-76115000D02*
X168650000Y-76115000D01*
X168650000Y-76115000D02*
X168650000Y-69645000D01*
X160910000Y-73880000D02*
X160910000Y-76115000D01*
X160910000Y-69645000D02*
X160910000Y-71880000D01*
X168650000Y-69645000D02*
X160910000Y-69645000D01*
X160910000Y-73880000D02*
G75*
G03*
X160910000Y-71880000I0J1000000D01*
G01*
%TO.C,HS2*%
X110810000Y-61830000D02*
X107040000Y-63980000D01*
X97790000Y-61830000D02*
X101560000Y-63980000D01*
X107570000Y-61840000D02*
X105680000Y-63800000D01*
X101030000Y-61840000D02*
X102920000Y-63800000D01*
X107720000Y-61930000D02*
X107570000Y-61840000D01*
X100880000Y-61930000D02*
X101030000Y-61840000D01*
X110930000Y-61950000D02*
X110810000Y-61830000D01*
X97670000Y-61950000D02*
X97790000Y-61830000D01*
X107040000Y-63980000D02*
X107720000Y-61930000D01*
X101560000Y-63980000D02*
X100880000Y-61930000D01*
X110850000Y-66590000D02*
X108050000Y-67250000D01*
X97750000Y-66590000D02*
X100550000Y-67250000D01*
X110910000Y-66770000D02*
X110850000Y-66590000D01*
X97690000Y-66770000D02*
X97750000Y-66590000D01*
X108050000Y-67250000D02*
X110930000Y-61950000D01*
X100550000Y-67250000D02*
X97670000Y-61950000D01*
X107190000Y-69270000D02*
X110910000Y-66770000D01*
X101410000Y-69270000D02*
X97690000Y-66770000D01*
X110900000Y-70890000D02*
X107190000Y-69280000D01*
X97700000Y-70890000D02*
X101410000Y-69280000D01*
X110900000Y-71560000D02*
X110900000Y-70890000D01*
X105150000Y-71560000D02*
X110900000Y-71560000D01*
X103450000Y-71560000D02*
X97700000Y-71560000D01*
X97700000Y-71560000D02*
X97700000Y-70890000D01*
X105150000Y-79460000D02*
X105150000Y-71560000D01*
X105150000Y-79460000D02*
X105150000Y-87360000D01*
X103450000Y-79460000D02*
X103450000Y-71560000D01*
X103450000Y-79460000D02*
X103450000Y-87360000D01*
X110900000Y-87360000D02*
X110900000Y-88030000D01*
X105150000Y-87360000D02*
X110900000Y-87360000D01*
X103450000Y-87360000D02*
X97700000Y-87360000D01*
X97700000Y-87360000D02*
X97700000Y-88030000D01*
X110900000Y-88030000D02*
X107190000Y-89640000D01*
X97700000Y-88030000D02*
X101410000Y-89640000D01*
X107190000Y-89650000D02*
X110910000Y-92150000D01*
X101410000Y-89650000D02*
X97690000Y-92150000D01*
X108050000Y-91670000D02*
X110930000Y-96970000D01*
X100550000Y-91670000D02*
X97670000Y-96970000D01*
X110910000Y-92150000D02*
X110850000Y-92330000D01*
X97690000Y-92150000D02*
X97750000Y-92330000D01*
X110850000Y-92330000D02*
X108050000Y-91670000D01*
X97750000Y-92330000D02*
X100550000Y-91670000D01*
X107040000Y-94940000D02*
X107720000Y-96990000D01*
X101560000Y-94940000D02*
X100880000Y-96990000D01*
X110930000Y-96970000D02*
X110810000Y-97090000D01*
X97670000Y-96970000D02*
X97790000Y-97090000D01*
X107720000Y-96990000D02*
X107570000Y-97080000D01*
X100880000Y-96990000D02*
X101030000Y-97080000D01*
X107570000Y-97080000D02*
X105680000Y-95120000D01*
X101030000Y-97080000D02*
X102920000Y-95120000D01*
X110810000Y-97090000D02*
X107040000Y-94940000D01*
X97790000Y-97090000D02*
X101560000Y-94940000D01*
%TO.C,F1*%
X190350000Y-114540000D02*
X190350000Y-91820000D01*
X193510000Y-114540000D02*
X190350000Y-114540000D01*
X200170000Y-114540000D02*
X197010000Y-114540000D01*
X200170000Y-114540000D02*
X200170000Y-91820000D01*
X193510000Y-91820000D02*
X190350000Y-91820000D01*
X200170000Y-91820000D02*
X197010000Y-91820000D01*
%TO.C,U3*%
X148210000Y-76115000D02*
X155950000Y-76115000D01*
X155950000Y-76115000D02*
X155950000Y-69645000D01*
X148210000Y-73880000D02*
X148210000Y-76115000D01*
X148210000Y-69645000D02*
X148210000Y-71880000D01*
X155950000Y-69645000D02*
X148210000Y-69645000D01*
X148210000Y-73880000D02*
G75*
G03*
X148210000Y-71880000I0J1000000D01*
G01*
%TD*%
%LPC*%
D14*
%TO.C,D4*%
X160970000Y-92867500D03*
X160970000Y-90992500D03*
%TD*%
%TO.C,D1*%
X149540000Y-92867500D03*
X149540000Y-90992500D03*
%TD*%
D15*
%TO.C,J2*%
X139779999Y-55499999D03*
D16*
X144860000Y-55500000D03*
X149940000Y-55500000D03*
X155020000Y-55500000D03*
X160100000Y-55500000D03*
X165180000Y-55500000D03*
%TD*%
D17*
%TO.C,R14*%
X158430000Y-71167500D03*
X158430000Y-68242500D03*
%TD*%
D18*
%TO.C,*%
X209275000Y-115725000D03*
%TD*%
D19*
%TO.C,R3*%
X198245000Y-69070000D03*
X199895000Y-69070000D03*
%TD*%
D20*
%TO.C,U1*%
X177134999Y-86729999D03*
D21*
X179675000Y-86730000D03*
X182215000Y-86730000D03*
X184755000Y-86730000D03*
X187295000Y-86730000D03*
X189835000Y-86730000D03*
X192375000Y-86730000D03*
X194915000Y-86730000D03*
X197455000Y-86730000D03*
X199995000Y-86730000D03*
X199995000Y-61330000D03*
X197455000Y-61330000D03*
X194915000Y-61330000D03*
X192375000Y-61330000D03*
X189835000Y-61330000D03*
X187295000Y-61330000D03*
X184755000Y-61330000D03*
X182215000Y-61330000D03*
X179675000Y-61330000D03*
X177135000Y-61330000D03*
%TD*%
D19*
%TO.C,R9*%
X149985000Y-79865000D03*
X151635000Y-79865000D03*
%TD*%
D14*
%TO.C,D3*%
X157160000Y-92867500D03*
X157160000Y-90992500D03*
%TD*%
D17*
%TO.C,R15*%
X171130000Y-71167500D03*
X171130000Y-68242500D03*
%TD*%
D19*
%TO.C,R10*%
X162685000Y-79865000D03*
X164335000Y-79865000D03*
%TD*%
D22*
%TO.C,J1*%
X222363000Y-82920000D03*
X215363000Y-82920000D03*
D23*
X217762999Y-86169999D03*
X220762999Y-86169999D03*
X212662999Y-79669999D03*
X213762999Y-86169999D03*
%TD*%
D18*
%TO.C,*%
X94525000Y-61475000D03*
%TD*%
D24*
%TO.C,U5*%
X174939999Y-77644999D03*
X177479999Y-77644999D03*
X180019999Y-77644999D03*
X180019999Y-68114999D03*
X177479999Y-68114999D03*
X174939999Y-68114999D03*
%TD*%
D21*
%TO.C,U2*%
X205020000Y-57150000D03*
X207560000Y-57150000D03*
X210100000Y-57150000D03*
X212640000Y-57150000D03*
%TD*%
D14*
%TO.C,D2*%
X153350000Y-92867500D03*
X153350000Y-90992500D03*
%TD*%
D25*
%TO.C,Q3*%
X100814999Y-76919999D03*
D26*
X100814999Y-79459999D03*
X100814999Y-81999999D03*
%TD*%
D19*
%TO.C,R11*%
X175385000Y-79865000D03*
X177035000Y-79865000D03*
%TD*%
D25*
%TO.C,Q4*%
X107749999Y-81989999D03*
D26*
X107749999Y-79449999D03*
X107749999Y-76909999D03*
%TD*%
D25*
%TO.C,Q2*%
X89744999Y-82049999D03*
D26*
X89744999Y-79509999D03*
X89744999Y-76969999D03*
%TD*%
D19*
%TO.C,R4*%
X198245000Y-71610000D03*
X199895000Y-71610000D03*
%TD*%
D27*
%TO.C,PS1*%
X115199999Y-58819999D03*
D28*
X115200000Y-63900000D03*
X115200000Y-89300000D03*
X132980000Y-89300000D03*
X132980000Y-84220000D03*
%TD*%
D17*
%TO.C,R16*%
X183830000Y-71167500D03*
X183830000Y-68242500D03*
%TD*%
D24*
%TO.C,U6*%
X187639999Y-77644999D03*
X190179999Y-77644999D03*
X192719999Y-77644999D03*
X192719999Y-68114999D03*
X190179999Y-68114999D03*
X187639999Y-68114999D03*
%TD*%
D29*
%TO.C,HS1*%
X86295000Y-66820000D03*
X86295000Y-92220000D03*
%TD*%
D30*
%TO.C,*%
X170785000Y-60060000D03*
%TD*%
D31*
%TO.C,R1*%
X208400000Y-84060000D03*
X208400000Y-83040000D03*
%TD*%
D19*
%TO.C,R2*%
X198245000Y-66530000D03*
X199895000Y-66530000D03*
%TD*%
D17*
%TO.C,R13*%
X145730000Y-71167500D03*
X145730000Y-68242500D03*
%TD*%
D32*
%TO.C,R8*%
X160970000Y-87295000D03*
X160970000Y-88945000D03*
%TD*%
D25*
%TO.C,Q1*%
X82809999Y-76979999D03*
D26*
X82809999Y-79519999D03*
X82809999Y-82059999D03*
%TD*%
D19*
%TO.C,R12*%
X188085000Y-79865000D03*
X189735000Y-79865000D03*
%TD*%
D32*
%TO.C,R6*%
X153350000Y-87295000D03*
X153350000Y-88945000D03*
%TD*%
%TO.C,R7*%
X157160000Y-87295000D03*
X157160000Y-88945000D03*
%TD*%
%TO.C,R5*%
X149540000Y-87295000D03*
X149540000Y-88945000D03*
%TD*%
D24*
%TO.C,U4*%
X162239999Y-77644999D03*
X164779999Y-77644999D03*
X167319999Y-77644999D03*
X167319999Y-68114999D03*
X164779999Y-68114999D03*
X162239999Y-68114999D03*
%TD*%
D18*
%TO.C,*%
X209275000Y-61475000D03*
%TD*%
D29*
%TO.C,HS2*%
X104300000Y-66760000D03*
X104300000Y-92160000D03*
%TD*%
D33*
%TO.C,F1*%
X195260000Y-103180000D03*
D16*
X195260000Y-114430000D03*
X195260000Y-91930000D03*
%TD*%
D24*
%TO.C,U3*%
X149539999Y-77644999D03*
X152079999Y-77644999D03*
X154619999Y-77644999D03*
X154619999Y-68114999D03*
X152079999Y-68114999D03*
X149539999Y-68114999D03*
%TD*%
D30*
%TO.C,*%
X170785000Y-88000000D03*
%TD*%
M02*
