%TF.GenerationSoftware,KiCad,Pcbnew,(7.0.0)*%
%TF.CreationDate,2024-03-10T11:48:43+01:00*%
%TF.ProjectId,bed-smart-plug,6265642d-736d-4617-9274-2d706c75672e,rev?*%
%TF.SameCoordinates,Original*%
%TF.FileFunction,Soldermask,Bot*%
%TF.FilePolarity,Negative*%
%FSLAX46Y46*%
G04 Gerber Fmt 4.6, Leading zero omitted, Abs format (unit mm)*
G04 Created by KiCad (PCBNEW (7.0.0)) date 2024-03-10 11:48:43*
%MOMM*%
%LPD*%
G01*
G04 APERTURE LIST*
%ADD10R,3.000000X3.000000*%
%ADD11C,3.000000*%
%ADD12C,6.400000*%
%ADD13R,1.778000X1.778000*%
%ADD14C,1.778000*%
%ADD15C,1.500000*%
%ADD16R,2.000000X1.905000*%
%ADD17O,2.000000X1.905000*%
%ADD18R,2.300000X2.000000*%
%ADD19C,2.300000*%
%ADD20C,6.000000*%
%ADD21C,8.000000*%
%ADD22C,2.700000*%
G04 APERTURE END LIST*
D10*
%TO.C,J2*%
X139779999Y-55499999D03*
D11*
X144860000Y-55500000D03*
X149940000Y-55500000D03*
X155020000Y-55500000D03*
X160100000Y-55500000D03*
X165180000Y-55500000D03*
%TD*%
D12*
%TO.C,*%
X209275000Y-115725000D03*
%TD*%
D13*
%TO.C,U1*%
X177134999Y-86729999D03*
D14*
X179675000Y-86730000D03*
X182215000Y-86730000D03*
X184755000Y-86730000D03*
X187295000Y-86730000D03*
X189835000Y-86730000D03*
X192375000Y-86730000D03*
X194915000Y-86730000D03*
X197455000Y-86730000D03*
X199995000Y-86730000D03*
X199995000Y-61330000D03*
X197455000Y-61330000D03*
X194915000Y-61330000D03*
X192375000Y-61330000D03*
X189835000Y-61330000D03*
X187295000Y-61330000D03*
X184755000Y-61330000D03*
X182215000Y-61330000D03*
X179675000Y-61330000D03*
X177135000Y-61330000D03*
%TD*%
D15*
%TO.C,J1*%
X222363000Y-82920000D03*
X215363000Y-82920000D03*
%TD*%
D12*
%TO.C,*%
X94525000Y-61475000D03*
%TD*%
D14*
%TO.C,U2*%
X205020000Y-57150000D03*
X207560000Y-57150000D03*
X210100000Y-57150000D03*
X212640000Y-57150000D03*
%TD*%
D16*
%TO.C,Q3*%
X100814999Y-76919999D03*
D17*
X100814999Y-79459999D03*
X100814999Y-81999999D03*
%TD*%
D16*
%TO.C,Q4*%
X107749999Y-81989999D03*
D17*
X107749999Y-79449999D03*
X107749999Y-76909999D03*
%TD*%
D16*
%TO.C,Q2*%
X89744999Y-82049999D03*
D17*
X89744999Y-79509999D03*
X89744999Y-76969999D03*
%TD*%
D18*
%TO.C,PS1*%
X115199999Y-58819999D03*
D19*
X115200000Y-63900000D03*
X115200000Y-89300000D03*
X132980000Y-89300000D03*
X132980000Y-84220000D03*
%TD*%
D20*
%TO.C,HS1*%
X86295000Y-66820000D03*
X86295000Y-92220000D03*
%TD*%
D21*
%TO.C,*%
X170785000Y-60060000D03*
%TD*%
D16*
%TO.C,Q1*%
X82809999Y-76979999D03*
D17*
X82809999Y-79519999D03*
X82809999Y-82059999D03*
%TD*%
D12*
%TO.C,*%
X209275000Y-61475000D03*
%TD*%
D20*
%TO.C,HS2*%
X104300000Y-66760000D03*
X104300000Y-92160000D03*
%TD*%
D22*
%TO.C,F1*%
X195260000Y-103180000D03*
D11*
X195260000Y-114430000D03*
X195260000Y-91930000D03*
%TD*%
D21*
%TO.C,*%
X170785000Y-88000000D03*
%TD*%
M02*
