M48
; DRILL file {KiCad (7.0.0)} date Sun Mar 10 18:27:09 2024
; FORMAT={-:-/ absolute / inch / decimal}
; #@! TF.CreationDate,2024-03-10T18:27:09+01:00
; #@! TF.GenerationSoftware,Kicad,Pcbnew,(7.0.0)
; #@! TF.FileFunction,Plated,1,2,PTH
FMAT,2
INCH
; #@! TA.AperFunction,Plated,PTH,ViaDrill
T1C0.0157
; #@! TA.AperFunction,Plated,PTH,ViaDrill
T2C0.0236
; #@! TA.AperFunction,Plated,PTH,ComponentDrill
T3C0.0299
; #@! TA.AperFunction,Plated,PTH,ComponentDrill
T4C0.0315
; #@! TA.AperFunction,Plated,PTH,ComponentDrill
T5C0.0394
; #@! TA.AperFunction,Plated,PTH,ComponentDrill
T6C0.0433
; #@! TA.AperFunction,Plated,PTH,ComponentDrill
T7C0.0512
; #@! TA.AperFunction,Plated,PTH,ComponentDrill
T8C0.0598
; #@! TA.AperFunction,Plated,PTH,ComponentDrill
T9C0.0984
; #@! TA.AperFunction,Plated,PTH,ComponentDrill
T10C0.1260
; #@! TA.AperFunction,Plated,PTH,ComponentDrill
T11C0.1969
%
G90
G05
T1
X5.1374Y-2.9193
X5.2374Y-2.9693
X5.2374Y-3.0693
X5.2874Y-2.9193
X5.2874Y-3.0693
X5.3374Y-2.8693
X5.3374Y-3.0693
X5.4374Y-3.4193
X5.5874Y-2.8693
X5.6374Y-2.9193
X6.0374Y-3.1443
X6.0874Y-2.7693
X6.5374Y-3.1443
X6.5874Y-2.7693
X7.0374Y-3.1443
X7.0874Y-2.7693
X7.0874Y-2.8693
X7.5374Y-3.1443
X7.8374Y-2.9693
X7.8874Y-2.8693
X7.9874Y-2.9193
X8.3374Y-2.9693
T2
X5.0499Y-2.3443
X5.2249Y-2.4943
T3
X4.5354Y-3.5157
X5.2354Y-3.3157
X5.2354Y-3.5157
T4
X4.5354Y-2.3157
X4.5354Y-2.5157
T5
X6.9738Y-2.4146
X6.9738Y-3.4146
X7.0738Y-2.4146
X7.0738Y-3.4146
X7.1738Y-2.4146
X7.1738Y-3.4146
X7.2738Y-2.4146
X7.2738Y-3.4146
X7.3738Y-2.4146
X7.3738Y-3.4146
X7.4738Y-2.4146
X7.4738Y-3.4146
X7.5738Y-2.4146
X7.5738Y-3.4146
X7.6738Y-2.4146
X7.6738Y-3.4146
X7.7738Y-2.4146
X7.7738Y-3.4146
X7.8738Y-2.4146
X7.8738Y-3.4146
X8.0717Y-2.25
X8.1717Y-2.25
X8.2717Y-2.25
X8.3717Y-2.25
T6
X3.2602Y-3.0307
X3.2602Y-3.1307
X3.2602Y-3.2307
X3.5333Y-3.0303
X3.5333Y-3.1303
X3.5333Y-3.2303
X3.9691Y-3.0283
X3.9691Y-3.1283
X3.9691Y-3.2283
X4.2421Y-3.028
X4.2421Y-3.128
X4.2421Y-3.228
T7
X7.6874Y-3.6193
X7.6874Y-4.5051
T8
X5.5031Y-2.185
X5.7031Y-2.185
X5.9031Y-2.185
X6.1031Y-2.185
X6.3031Y-2.185
X6.5031Y-2.185
T9
X3.3974Y-2.6307
X3.3974Y-3.6307
X4.1063Y-2.6283
X4.1063Y-3.6283
T10
X3.7215Y-2.4203
X8.2392Y-2.4203
X8.2392Y-4.5561
T11
X6.7238Y-2.3646
X6.7238Y-3.4646
T0
M30
