M48
; DRILL file {KiCad (7.0.0)} date Sun Jan 21 10:40:48 2024
; FORMAT={-:-/ absolute / inch / decimal}
; #@! TF.CreationDate,2024-01-21T10:40:48+01:00
; #@! TF.GenerationSoftware,Kicad,Pcbnew,(7.0.0)
; #@! TF.FileFunction,Plated,1,2,PTH
FMAT,2
INCH
; #@! TA.AperFunction,Plated,PTH,ComponentDrill
T1C0.0394
; #@! TA.AperFunction,Plated,PTH,ComponentDrill
T2C0.0433
; #@! TA.AperFunction,Plated,PTH,ComponentDrill
T3C0.0984
; #@! TA.AperFunction,Plated,PTH,ComponentDrill
T4C0.1260
; #@! TA.AperFunction,Plated,PTH,ComponentDrill
T5C0.1969
%
G90
G05
T1
X6.89Y-2.21
X6.89Y-3.21
X6.99Y-2.21
X6.99Y-3.21
X7.09Y-2.21
X7.09Y-3.21
X7.19Y-2.21
X7.19Y-3.21
X7.29Y-2.21
X7.29Y-3.21
X7.39Y-2.21
X7.39Y-3.21
X7.49Y-2.21
X7.49Y-3.21
X7.59Y-2.21
X7.59Y-3.21
X7.69Y-2.21
X7.69Y-3.21
X7.79Y-2.21
X7.79Y-3.21
T2
X4.2522Y-2.46
X4.2522Y-2.56
X4.2522Y-2.66
T3
X4.115Y-2.06
X4.115Y-3.06
T4
X3.6376Y-2.2157
X3.6376Y-4.3515
X8.1554Y-2.2157
X8.1554Y-4.3515
T5
X6.64Y-2.16
X6.64Y-3.26
T0
M30
