M48
; DRILL file {KiCad (7.0.0)} date Sun Jan 21 14:14:10 2024
; FORMAT={-:-/ absolute / inch / decimal}
; #@! TF.CreationDate,2024-01-21T14:14:10+01:00
; #@! TF.GenerationSoftware,Kicad,Pcbnew,(7.0.0)
; #@! TF.FileFunction,Plated,1,2,PTH
FMAT,2
INCH
; #@! TA.AperFunction,Plated,PTH,ComponentDrill
T1C0.0394
; #@! TA.AperFunction,Plated,PTH,ComponentDrill
T2C0.0433
; #@! TA.AperFunction,Plated,PTH,ComponentDrill
T3C0.0984
; #@! TA.AperFunction,Plated,PTH,ComponentDrill
T4C0.1260
; #@! TA.AperFunction,Plated,PTH,ComponentDrill
T5C0.1969
%
G90
G05
T1
X6.8518Y-2.7138
X6.8518Y-3.7138
X6.9518Y-2.7138
X6.9518Y-3.7138
X7.0518Y-2.7138
X7.0518Y-3.7138
X7.1518Y-2.7138
X7.1518Y-3.7138
X7.2518Y-2.7138
X7.2518Y-3.7138
X7.3518Y-2.7138
X7.3518Y-3.7138
X7.4518Y-2.7138
X7.4518Y-3.7138
X7.5518Y-2.7138
X7.5518Y-3.7138
X7.6518Y-2.7138
X7.6518Y-3.7138
X7.7518Y-2.7138
X7.7518Y-3.7138
T2
X4.214Y-2.9638
X4.214Y-3.0638
X4.214Y-3.1638
T3
X4.0768Y-2.5638
X4.0768Y-3.5638
T4
X3.5994Y-2.7195
X3.5994Y-4.8553
X8.1171Y-2.7195
X8.1171Y-4.8553
T5
X6.6018Y-2.6638
X6.6018Y-3.7638
T0
M30
