%TF.GenerationSoftware,KiCad,Pcbnew,(7.0.0)*%
%TF.CreationDate,2024-01-21T10:46:32+01:00*%
%TF.ProjectId,bed-smart-plug,6265642d-736d-4617-9274-2d706c75672e,rev?*%
%TF.SameCoordinates,Original*%
%TF.FileFunction,Legend,Top*%
%TF.FilePolarity,Positive*%
%FSLAX46Y46*%
G04 Gerber Fmt 4.6, Leading zero omitted, Abs format (unit mm)*
G04 Created by KiCad (PCBNEW (7.0.0)) date 2024-01-21 10:46:32*
%MOMM*%
%LPD*%
G01*
G04 APERTURE LIST*
%ADD10C,0.150000*%
%ADD11C,0.254000*%
%ADD12C,0.120000*%
%ADD13C,8.000000*%
%ADD14C,6.400000*%
%ADD15C,6.000000*%
%ADD16R,1.778000X1.778000*%
%ADD17C,1.778000*%
%ADD18C,1.500000*%
%ADD19R,1.200000X2.500000*%
%ADD20R,2.000000X1.905000*%
%ADD21O,2.000000X1.905000*%
G04 APERTURE END LIST*
D10*
X77271000Y-90904000D02*
X187271000Y-90904000D01*
X187271000Y-90904000D02*
X187271000Y-120904000D01*
X187271000Y-120904000D02*
X77271000Y-120904000D01*
X77271000Y-120904000D02*
X77271000Y-90904000D01*
%TO.C,*%
%TO.C,HS1*%
X102388380Y-66287094D02*
X101388380Y-66287094D01*
X101864571Y-66287094D02*
X101864571Y-65715666D01*
X102388380Y-65715666D02*
X101388380Y-65715666D01*
X102340761Y-65287094D02*
X102388380Y-65144237D01*
X102388380Y-65144237D02*
X102388380Y-64906142D01*
X102388380Y-64906142D02*
X102340761Y-64810904D01*
X102340761Y-64810904D02*
X102293142Y-64763285D01*
X102293142Y-64763285D02*
X102197904Y-64715666D01*
X102197904Y-64715666D02*
X102102666Y-64715666D01*
X102102666Y-64715666D02*
X102007428Y-64763285D01*
X102007428Y-64763285D02*
X101959809Y-64810904D01*
X101959809Y-64810904D02*
X101912190Y-64906142D01*
X101912190Y-64906142D02*
X101864571Y-65096618D01*
X101864571Y-65096618D02*
X101816952Y-65191856D01*
X101816952Y-65191856D02*
X101769333Y-65239475D01*
X101769333Y-65239475D02*
X101674095Y-65287094D01*
X101674095Y-65287094D02*
X101578857Y-65287094D01*
X101578857Y-65287094D02*
X101483619Y-65239475D01*
X101483619Y-65239475D02*
X101436000Y-65191856D01*
X101436000Y-65191856D02*
X101388380Y-65096618D01*
X101388380Y-65096618D02*
X101388380Y-64858523D01*
X101388380Y-64858523D02*
X101436000Y-64715666D01*
X102388380Y-63763285D02*
X102388380Y-64334713D01*
X102388380Y-64048999D02*
X101388380Y-64048999D01*
X101388380Y-64048999D02*
X101531238Y-64144237D01*
X101531238Y-64144237D02*
X101626476Y-64239475D01*
X101626476Y-64239475D02*
X101674095Y-64334713D01*
%TO.C,*%
%TO.C,U1*%
X193418619Y-52832095D02*
X192609095Y-52832095D01*
X192609095Y-52832095D02*
X192513857Y-52879714D01*
X192513857Y-52879714D02*
X192466238Y-52927333D01*
X192466238Y-52927333D02*
X192418619Y-53022571D01*
X192418619Y-53022571D02*
X192418619Y-53213047D01*
X192418619Y-53213047D02*
X192466238Y-53308285D01*
X192466238Y-53308285D02*
X192513857Y-53355904D01*
X192513857Y-53355904D02*
X192609095Y-53403523D01*
X192609095Y-53403523D02*
X193418619Y-53403523D01*
X192418619Y-54403523D02*
X192418619Y-53832095D01*
X192418619Y-54117809D02*
X193418619Y-54117809D01*
X193418619Y-54117809D02*
X193275761Y-54022571D01*
X193275761Y-54022571D02*
X193180523Y-53927333D01*
X193180523Y-53927333D02*
X193132904Y-53832095D01*
D11*
X138174716Y-72341619D02*
X138174716Y-71736857D01*
X138537573Y-72462571D02*
X137267573Y-72039238D01*
X137267573Y-72039238D02*
X138537573Y-71615904D01*
X137690907Y-71192572D02*
X138537573Y-71192572D01*
X137811859Y-71192572D02*
X137751383Y-71132095D01*
X137751383Y-71132095D02*
X137690907Y-71011143D01*
X137690907Y-71011143D02*
X137690907Y-70829714D01*
X137690907Y-70829714D02*
X137751383Y-70708762D01*
X137751383Y-70708762D02*
X137872335Y-70648286D01*
X137872335Y-70648286D02*
X138537573Y-70648286D01*
X137690907Y-70224952D02*
X137690907Y-69741143D01*
X137267573Y-70043524D02*
X138356145Y-70043524D01*
X138356145Y-70043524D02*
X138477097Y-69983047D01*
X138477097Y-69983047D02*
X138537573Y-69862095D01*
X138537573Y-69862095D02*
X138537573Y-69741143D01*
X138477097Y-68834000D02*
X138537573Y-68954952D01*
X138537573Y-68954952D02*
X138537573Y-69196857D01*
X138537573Y-69196857D02*
X138477097Y-69317810D01*
X138477097Y-69317810D02*
X138356145Y-69378286D01*
X138356145Y-69378286D02*
X137872335Y-69378286D01*
X137872335Y-69378286D02*
X137751383Y-69317810D01*
X137751383Y-69317810D02*
X137690907Y-69196857D01*
X137690907Y-69196857D02*
X137690907Y-68954952D01*
X137690907Y-68954952D02*
X137751383Y-68834000D01*
X137751383Y-68834000D02*
X137872335Y-68773524D01*
X137872335Y-68773524D02*
X137993288Y-68773524D01*
X137993288Y-68773524D02*
X138114240Y-69378286D01*
X137690907Y-68229239D02*
X138537573Y-68229239D01*
X137811859Y-68229239D02*
X137751383Y-68168762D01*
X137751383Y-68168762D02*
X137690907Y-68047810D01*
X137690907Y-68047810D02*
X137690907Y-67866381D01*
X137690907Y-67866381D02*
X137751383Y-67745429D01*
X137751383Y-67745429D02*
X137872335Y-67684953D01*
X137872335Y-67684953D02*
X138537573Y-67684953D01*
X137690907Y-67080191D02*
X138537573Y-67080191D01*
X137811859Y-67080191D02*
X137751383Y-67019714D01*
X137751383Y-67019714D02*
X137690907Y-66898762D01*
X137690907Y-66898762D02*
X137690907Y-66717333D01*
X137690907Y-66717333D02*
X137751383Y-66596381D01*
X137751383Y-66596381D02*
X137872335Y-66535905D01*
X137872335Y-66535905D02*
X138537573Y-66535905D01*
X138537573Y-65386857D02*
X137872335Y-65386857D01*
X137872335Y-65386857D02*
X137751383Y-65447333D01*
X137751383Y-65447333D02*
X137690907Y-65568285D01*
X137690907Y-65568285D02*
X137690907Y-65810190D01*
X137690907Y-65810190D02*
X137751383Y-65931143D01*
X138477097Y-65386857D02*
X138537573Y-65507809D01*
X138537573Y-65507809D02*
X138537573Y-65810190D01*
X138537573Y-65810190D02*
X138477097Y-65931143D01*
X138477097Y-65931143D02*
X138356145Y-65991619D01*
X138356145Y-65991619D02*
X138235192Y-65991619D01*
X138235192Y-65991619D02*
X138114240Y-65931143D01*
X138114240Y-65931143D02*
X138053764Y-65810190D01*
X138053764Y-65810190D02*
X138053764Y-65507809D01*
X138053764Y-65507809D02*
X137993288Y-65386857D01*
D10*
%TO.C,J3*%
X214776380Y-71707333D02*
X215490666Y-71707333D01*
X215490666Y-71707333D02*
X215633523Y-71754952D01*
X215633523Y-71754952D02*
X215728761Y-71850190D01*
X215728761Y-71850190D02*
X215776380Y-71993047D01*
X215776380Y-71993047D02*
X215776380Y-72088285D01*
X214776380Y-71326380D02*
X214776380Y-70707333D01*
X214776380Y-70707333D02*
X215157333Y-71040666D01*
X215157333Y-71040666D02*
X215157333Y-70897809D01*
X215157333Y-70897809D02*
X215204952Y-70802571D01*
X215204952Y-70802571D02*
X215252571Y-70754952D01*
X215252571Y-70754952D02*
X215347809Y-70707333D01*
X215347809Y-70707333D02*
X215585904Y-70707333D01*
X215585904Y-70707333D02*
X215681142Y-70754952D01*
X215681142Y-70754952D02*
X215728761Y-70802571D01*
X215728761Y-70802571D02*
X215776380Y-70897809D01*
X215776380Y-70897809D02*
X215776380Y-71183523D01*
X215776380Y-71183523D02*
X215728761Y-71278761D01*
X215728761Y-71278761D02*
X215681142Y-71326380D01*
%TO.C,Q1*%
X112603619Y-67659238D02*
X112556000Y-67754476D01*
X112556000Y-67754476D02*
X112460761Y-67849714D01*
X112460761Y-67849714D02*
X112317904Y-67992571D01*
X112317904Y-67992571D02*
X112270285Y-68087809D01*
X112270285Y-68087809D02*
X112270285Y-68183047D01*
X112508380Y-68135428D02*
X112460761Y-68230666D01*
X112460761Y-68230666D02*
X112365523Y-68325904D01*
X112365523Y-68325904D02*
X112175047Y-68373523D01*
X112175047Y-68373523D02*
X111841714Y-68373523D01*
X111841714Y-68373523D02*
X111651238Y-68325904D01*
X111651238Y-68325904D02*
X111556000Y-68230666D01*
X111556000Y-68230666D02*
X111508380Y-68135428D01*
X111508380Y-68135428D02*
X111508380Y-67944952D01*
X111508380Y-67944952D02*
X111556000Y-67849714D01*
X111556000Y-67849714D02*
X111651238Y-67754476D01*
X111651238Y-67754476D02*
X111841714Y-67706857D01*
X111841714Y-67706857D02*
X112175047Y-67706857D01*
X112175047Y-67706857D02*
X112365523Y-67754476D01*
X112365523Y-67754476D02*
X112460761Y-67849714D01*
X112460761Y-67849714D02*
X112508380Y-67944952D01*
X112508380Y-67944952D02*
X112508380Y-68135428D01*
X112508380Y-66754476D02*
X112508380Y-67325904D01*
X112508380Y-67040190D02*
X111508380Y-67040190D01*
X111508380Y-67040190D02*
X111651238Y-67135428D01*
X111651238Y-67135428D02*
X111746476Y-67230666D01*
X111746476Y-67230666D02*
X111794095Y-67325904D01*
%TO.C,*%
D12*
%TO.C,HS1*%
X98011000Y-82654000D02*
X101781000Y-80504000D01*
X111031000Y-82654000D02*
X107261000Y-80504000D01*
X101251000Y-82644000D02*
X103141000Y-80684000D01*
X107791000Y-82644000D02*
X105901000Y-80684000D01*
X101101000Y-82554000D02*
X101251000Y-82644000D01*
X107941000Y-82554000D02*
X107791000Y-82644000D01*
X97891000Y-82534000D02*
X98011000Y-82654000D01*
X111151000Y-82534000D02*
X111031000Y-82654000D01*
X101781000Y-80504000D02*
X101101000Y-82554000D01*
X107261000Y-80504000D02*
X107941000Y-82554000D01*
X97971000Y-77894000D02*
X100771000Y-77234000D01*
X111071000Y-77894000D02*
X108271000Y-77234000D01*
X97911000Y-77714000D02*
X97971000Y-77894000D01*
X111131000Y-77714000D02*
X111071000Y-77894000D01*
X100771000Y-77234000D02*
X97891000Y-82534000D01*
X108271000Y-77234000D02*
X111151000Y-82534000D01*
X101631000Y-75214000D02*
X97911000Y-77714000D01*
X107411000Y-75214000D02*
X111131000Y-77714000D01*
X97921000Y-73594000D02*
X101631000Y-75204000D01*
X111121000Y-73594000D02*
X107411000Y-75204000D01*
X97921000Y-72924000D02*
X97921000Y-73594000D01*
X103671000Y-72924000D02*
X97921000Y-72924000D01*
X105371000Y-72924000D02*
X111121000Y-72924000D01*
X111121000Y-72924000D02*
X111121000Y-73594000D01*
X103671000Y-65024000D02*
X103671000Y-72924000D01*
X103671000Y-65024000D02*
X103671000Y-57124000D01*
X105371000Y-65024000D02*
X105371000Y-72924000D01*
X105371000Y-65024000D02*
X105371000Y-57124000D01*
X97921000Y-57124000D02*
X97921000Y-56454000D01*
X103671000Y-57124000D02*
X97921000Y-57124000D01*
X105371000Y-57124000D02*
X111121000Y-57124000D01*
X111121000Y-57124000D02*
X111121000Y-56454000D01*
X97921000Y-56454000D02*
X101631000Y-54844000D01*
X111121000Y-56454000D02*
X107411000Y-54844000D01*
X101631000Y-54834000D02*
X97911000Y-52334000D01*
X107411000Y-54834000D02*
X111131000Y-52334000D01*
X100771000Y-52814000D02*
X97891000Y-47514000D01*
X108271000Y-52814000D02*
X111151000Y-47514000D01*
X97911000Y-52334000D02*
X97971000Y-52154000D01*
X111131000Y-52334000D02*
X111071000Y-52154000D01*
X97971000Y-52154000D02*
X100771000Y-52814000D01*
X111071000Y-52154000D02*
X108271000Y-52814000D01*
X101781000Y-49544000D02*
X101101000Y-47494000D01*
X107261000Y-49544000D02*
X107941000Y-47494000D01*
X97891000Y-47514000D02*
X98011000Y-47394000D01*
X111151000Y-47514000D02*
X111031000Y-47394000D01*
X101101000Y-47494000D02*
X101251000Y-47404000D01*
X107941000Y-47494000D02*
X107791000Y-47404000D01*
X101251000Y-47404000D02*
X103141000Y-49364000D01*
X107791000Y-47404000D02*
X105901000Y-49364000D01*
X98011000Y-47394000D02*
X101781000Y-49544000D01*
X111031000Y-47394000D02*
X107261000Y-49544000D01*
D11*
%TO.C,U1*%
X141936000Y-82824000D02*
X141936000Y-54824000D01*
X215616000Y-82824000D02*
X141936000Y-82824000D01*
X215616000Y-82824000D02*
X221936000Y-82824000D01*
X221936000Y-82824000D02*
X221936000Y-54824000D01*
X135071000Y-77834000D02*
X141936000Y-77834000D01*
X135071000Y-77834000D02*
X135071000Y-59834000D01*
X227632000Y-72643000D02*
X215832000Y-72643000D01*
X135071000Y-59834000D02*
X141936000Y-59834000D01*
X215832000Y-56643000D02*
X227632000Y-56643000D01*
X227632000Y-56643000D02*
X227632000Y-72643000D01*
X221936000Y-54824000D02*
X141936000Y-54824000D01*
D12*
%TO.C,J3*%
X223834000Y-80224000D02*
X223834000Y-75224000D01*
X221834000Y-80824000D02*
X221834000Y-80224000D01*
X221834000Y-80824000D02*
X219459000Y-80824000D01*
X221834000Y-80224000D02*
X223834000Y-80224000D01*
X221834000Y-75224000D02*
X223834000Y-75224000D01*
X221834000Y-75224000D02*
X221834000Y-74624000D01*
X217809000Y-80824000D02*
X216459000Y-80824000D01*
X214809000Y-80824000D02*
X212409000Y-80824000D01*
X212409000Y-80824000D02*
X212409000Y-82224000D01*
X211309000Y-74624000D02*
X221834000Y-74624000D01*
X210859000Y-80824000D02*
X210859000Y-82224000D01*
X210859000Y-80824000D02*
X209734000Y-80824000D01*
X209734000Y-74624000D02*
X209734000Y-80824000D01*
%TO.C,Q1*%
X104736000Y-70144000D02*
X109377000Y-70144000D01*
X104736000Y-70144000D02*
X104736000Y-59904000D01*
X106246000Y-70144000D02*
X106246000Y-59904000D01*
X109377000Y-70144000D02*
X109377000Y-59904000D01*
X104736000Y-66874000D02*
X106246000Y-66874000D01*
X104736000Y-63173000D02*
X106246000Y-63173000D01*
X104736000Y-59904000D02*
X109377000Y-59904000D01*
%TD*%
%LPC*%
D13*
%TO.C,*%
X168656000Y-54864000D03*
%TD*%
D14*
%TO.C,*%
X207146000Y-56279000D03*
%TD*%
D15*
%TO.C,HS1*%
X104521000Y-77724000D03*
X104521000Y-52324000D03*
%TD*%
D14*
%TO.C,*%
X92396000Y-56279000D03*
%TD*%
%TO.C,*%
X207146000Y-110529000D03*
%TD*%
D16*
%TO.C,U1*%
X175005999Y-81533999D03*
D17*
X177546000Y-81534000D03*
X180086000Y-81534000D03*
X182626000Y-81534000D03*
X185166000Y-81534000D03*
X187706000Y-81534000D03*
X190246000Y-81534000D03*
X192786000Y-81534000D03*
X195326000Y-81534000D03*
X197866000Y-81534000D03*
X197866000Y-56134000D03*
X195326000Y-56134000D03*
X192786000Y-56134000D03*
X190246000Y-56134000D03*
X187706000Y-56134000D03*
X185166000Y-56134000D03*
X182626000Y-56134000D03*
X180086000Y-56134000D03*
X177546000Y-56134000D03*
X175006000Y-56134000D03*
%TD*%
D18*
%TO.C,J3*%
X220234000Y-77724000D03*
X213234000Y-77724000D03*
D19*
X215633999Y-80973999D03*
X218633999Y-80973999D03*
X210533999Y-74473999D03*
X211633999Y-80973999D03*
%TD*%
D20*
%TO.C,Q1*%
X108005999Y-67563999D03*
D21*
X108005999Y-65023999D03*
X108005999Y-62483999D03*
%TD*%
D14*
%TO.C,*%
X92396000Y-110529000D03*
%TD*%
D13*
%TO.C,*%
X168656000Y-82804000D03*
%TD*%
M02*
