G04 #@! TF.GenerationSoftware,KiCad,Pcbnew,(6.0.0-0)*
G04 #@! TF.CreationDate,2022-06-20T09:50:28+02:00*
G04 #@! TF.ProjectId,prototype-1,70726f74-6f74-4797-9065-2d312e6b6963,rev?*
G04 #@! TF.SameCoordinates,Original*
G04 #@! TF.FileFunction,Copper,L2,Bot*
G04 #@! TF.FilePolarity,Positive*
%FSLAX46Y46*%
G04 Gerber Fmt 4.6, Leading zero omitted, Abs format (unit mm)*
G04 Created by KiCad (PCBNEW (6.0.0-0)) date 2022-06-20 09:50:28*
%MOMM*%
%LPD*%
G01*
G04 APERTURE LIST*
G04 #@! TA.AperFunction,ComponentPad*
%ADD10R,1.700000X1.700000*%
G04 #@! TD*
G04 #@! TA.AperFunction,ComponentPad*
%ADD11O,1.700000X1.700000*%
G04 #@! TD*
G04 #@! TA.AperFunction,ComponentPad*
%ADD12R,2.000000X2.300000*%
G04 #@! TD*
G04 #@! TA.AperFunction,ComponentPad*
%ADD13C,2.300000*%
G04 #@! TD*
G04 #@! TA.AperFunction,ComponentPad*
%ADD14R,3.000000X3.000000*%
G04 #@! TD*
G04 #@! TA.AperFunction,ComponentPad*
%ADD15C,3.000000*%
G04 #@! TD*
G04 #@! TA.AperFunction,ViaPad*
%ADD16C,0.800000*%
G04 #@! TD*
G04 #@! TA.AperFunction,Conductor*
%ADD17C,0.250000*%
G04 #@! TD*
G04 APERTURE END LIST*
D10*
X189230000Y-92710000D03*
D11*
X189230000Y-95250000D03*
D10*
X111760000Y-74295000D03*
D11*
X111760000Y-76835000D03*
X111760000Y-79375000D03*
X111760000Y-81915000D03*
X111760000Y-84455000D03*
X111760000Y-86995000D03*
D10*
X189230000Y-100330000D03*
D11*
X189230000Y-102870000D03*
D12*
X152400000Y-54610000D03*
D13*
X147400000Y-54610000D03*
X157600000Y-84010000D03*
X142200000Y-84010000D03*
D14*
X187960000Y-68580000D03*
D15*
X187960000Y-73660000D03*
D14*
X187960000Y-60960000D03*
D15*
X187960000Y-55880000D03*
D16*
X165100000Y-85090000D03*
X165100000Y-113030000D03*
X164465000Y-80010000D03*
X166370000Y-111125000D03*
X166370000Y-77470000D03*
X163195000Y-77470000D03*
X166370000Y-83185000D03*
D17*
X165100000Y-85090000D02*
X158680000Y-85090000D01*
X165100000Y-80645000D02*
X165100000Y-85090000D01*
X165100000Y-85090000D02*
X165100000Y-113030000D01*
X158680000Y-85090000D02*
X157600000Y-84010000D01*
X164465000Y-80010000D02*
X165100000Y-80645000D01*
X142200000Y-84010000D02*
X121475000Y-84010000D01*
X121475000Y-84010000D02*
X111760000Y-74295000D01*
X166370000Y-111125000D02*
X166370000Y-83185000D01*
X166370000Y-83185000D02*
X166370000Y-77470000D01*
X166370000Y-77470000D02*
X163195000Y-77470000D01*
M02*
