G04 #@! TF.GenerationSoftware,KiCad,Pcbnew,(6.0.0-0)*
G04 #@! TF.CreationDate,2022-06-20T09:50:28+02:00*
G04 #@! TF.ProjectId,prototype-1,70726f74-6f74-4797-9065-2d312e6b6963,rev?*
G04 #@! TF.SameCoordinates,Original*
G04 #@! TF.FileFunction,Copper,L1,Top*
G04 #@! TF.FilePolarity,Positive*
%FSLAX46Y46*%
G04 Gerber Fmt 4.6, Leading zero omitted, Abs format (unit mm)*
G04 Created by KiCad (PCBNEW (6.0.0-0)) date 2022-06-20 09:50:28*
%MOMM*%
%LPD*%
G01*
G04 APERTURE LIST*
G04 Aperture macros list*
%AMRoundRect*
0 Rectangle with rounded corners*
0 $1 Rounding radius*
0 $2 $3 $4 $5 $6 $7 $8 $9 X,Y pos of 4 corners*
0 Add a 4 corners polygon primitive as box body*
4,1,4,$2,$3,$4,$5,$6,$7,$8,$9,$2,$3,0*
0 Add four circle primitives for the rounded corners*
1,1,$1+$1,$2,$3*
1,1,$1+$1,$4,$5*
1,1,$1+$1,$6,$7*
1,1,$1+$1,$8,$9*
0 Add four rect primitives between the rounded corners*
20,1,$1+$1,$2,$3,$4,$5,0*
20,1,$1+$1,$4,$5,$6,$7,0*
20,1,$1+$1,$6,$7,$8,$9,0*
20,1,$1+$1,$8,$9,$2,$3,0*%
G04 Aperture macros list end*
G04 #@! TA.AperFunction,ComponentPad*
%ADD10R,1.700000X1.700000*%
G04 #@! TD*
G04 #@! TA.AperFunction,ComponentPad*
%ADD11O,1.700000X1.700000*%
G04 #@! TD*
G04 #@! TA.AperFunction,SMDPad,CuDef*
%ADD12RoundRect,0.250000X-0.450000X0.262500X-0.450000X-0.262500X0.450000X-0.262500X0.450000X0.262500X0*%
G04 #@! TD*
G04 #@! TA.AperFunction,SMDPad,CuDef*
%ADD13RoundRect,0.200000X-0.200000X-0.275000X0.200000X-0.275000X0.200000X0.275000X-0.200000X0.275000X0*%
G04 #@! TD*
G04 #@! TA.AperFunction,SMDPad,CuDef*
%ADD14R,2.000000X1.780000*%
G04 #@! TD*
G04 #@! TA.AperFunction,SMDPad,CuDef*
%ADD15R,1.200000X2.500000*%
G04 #@! TD*
G04 #@! TA.AperFunction,SMDPad,CuDef*
%ADD16RoundRect,0.200000X0.200000X0.275000X-0.200000X0.275000X-0.200000X-0.275000X0.200000X-0.275000X0*%
G04 #@! TD*
G04 #@! TA.AperFunction,ComponentPad*
%ADD17R,2.000000X2.300000*%
G04 #@! TD*
G04 #@! TA.AperFunction,ComponentPad*
%ADD18C,2.300000*%
G04 #@! TD*
G04 #@! TA.AperFunction,SMDPad,CuDef*
%ADD19RoundRect,0.150000X0.587500X0.150000X-0.587500X0.150000X-0.587500X-0.150000X0.587500X-0.150000X0*%
G04 #@! TD*
G04 #@! TA.AperFunction,ComponentPad*
%ADD20R,3.000000X3.000000*%
G04 #@! TD*
G04 #@! TA.AperFunction,ComponentPad*
%ADD21C,3.000000*%
G04 #@! TD*
G04 #@! TA.AperFunction,ViaPad*
%ADD22C,0.800000*%
G04 #@! TD*
G04 #@! TA.AperFunction,Conductor*
%ADD23C,0.250000*%
G04 #@! TD*
G04 APERTURE END LIST*
D10*
X189230000Y-92710000D03*
D11*
X189230000Y-95250000D03*
D12*
X173990000Y-82907500D03*
X173990000Y-84732500D03*
D13*
X169355000Y-81280000D03*
X171005000Y-81280000D03*
D10*
X111760000Y-74295000D03*
D11*
X111760000Y-76835000D03*
X111760000Y-79375000D03*
X111760000Y-81915000D03*
X111760000Y-84455000D03*
X111760000Y-86995000D03*
D14*
X179705000Y-74295000D03*
X179705000Y-71755000D03*
X172085000Y-71755000D03*
X172085000Y-74295000D03*
D13*
X165545000Y-75565000D03*
X167195000Y-75565000D03*
D15*
X183055000Y-87070000D03*
X186055000Y-87070000D03*
X177955000Y-80570000D03*
X179055000Y-87070000D03*
D16*
X171005000Y-114935000D03*
X169355000Y-114935000D03*
D15*
X183055000Y-115010000D03*
X186055000Y-115010000D03*
X177955000Y-108510000D03*
X179055000Y-115010000D03*
D16*
X176720000Y-68580000D03*
X175070000Y-68580000D03*
D13*
X169355000Y-109220000D03*
X171005000Y-109220000D03*
X165545000Y-69215000D03*
X167195000Y-69215000D03*
D10*
X189230000Y-100330000D03*
D11*
X189230000Y-102870000D03*
D13*
X169355000Y-113030000D03*
X171005000Y-113030000D03*
D16*
X171005000Y-83185000D03*
X169355000Y-83185000D03*
D13*
X169355000Y-85090000D03*
X171005000Y-85090000D03*
D17*
X152400000Y-54610000D03*
D18*
X147400000Y-54610000D03*
X157600000Y-84010000D03*
X142200000Y-84010000D03*
D16*
X171005000Y-86995000D03*
X169355000Y-86995000D03*
D12*
X173990000Y-110847500D03*
X173990000Y-112672500D03*
D19*
X167307500Y-73340000D03*
X167307500Y-71440000D03*
X165432500Y-72390000D03*
D20*
X187960000Y-68580000D03*
D21*
X187960000Y-73660000D03*
D16*
X171005000Y-111125000D03*
X169355000Y-111125000D03*
D20*
X187960000Y-60960000D03*
D21*
X187960000Y-55880000D03*
D22*
X165100000Y-85090000D03*
X165100000Y-113030000D03*
X164465000Y-80010000D03*
X166370000Y-111125000D03*
X166370000Y-77470000D03*
X163195000Y-77470000D03*
X166370000Y-83185000D03*
D23*
X173632500Y-85090000D02*
X173990000Y-84732500D01*
X187235000Y-95250000D02*
X189230000Y-95250000D01*
X179055000Y-87070000D02*
X187235000Y-95250000D01*
X171005000Y-86995000D02*
X171005000Y-85090000D01*
X176327500Y-87070000D02*
X179055000Y-87070000D01*
X171005000Y-83185000D02*
X171005000Y-85090000D01*
X173990000Y-84732500D02*
X176327500Y-87070000D01*
X171005000Y-85090000D02*
X173632500Y-85090000D01*
X157600000Y-84010000D02*
X152965000Y-79375000D01*
X165100000Y-113030000D02*
X169355000Y-113030000D01*
X169355000Y-85090000D02*
X165100000Y-85090000D01*
X152965000Y-79375000D02*
X111760000Y-79375000D01*
X165432500Y-72390000D02*
X165432500Y-69327500D01*
X164465000Y-73357500D02*
X164465000Y-80010000D01*
X169355000Y-114935000D02*
X169355000Y-113030000D01*
X169355000Y-86995000D02*
X169355000Y-85090000D01*
X165432500Y-72390000D02*
X164465000Y-73357500D01*
X165432500Y-69327500D02*
X165545000Y-69215000D01*
X173632500Y-113030000D02*
X173990000Y-112672500D01*
X171005000Y-111125000D02*
X171005000Y-113030000D01*
X173990000Y-112672500D02*
X176327500Y-115010000D01*
X171005000Y-114935000D02*
X171005000Y-113030000D01*
X179055000Y-111769686D02*
X187954686Y-102870000D01*
X187954686Y-102870000D02*
X189230000Y-102870000D01*
X179055000Y-115010000D02*
X179055000Y-111769686D01*
X176327500Y-115010000D02*
X179055000Y-115010000D01*
X171005000Y-113030000D02*
X173632500Y-113030000D01*
X166370000Y-76390000D02*
X167195000Y-75565000D01*
X162560000Y-76835000D02*
X111760000Y-76835000D01*
X166370000Y-77470000D02*
X166370000Y-76390000D01*
X169355000Y-111125000D02*
X166370000Y-111125000D01*
X163195000Y-77470000D02*
X162560000Y-76835000D01*
X170815000Y-75565000D02*
X172085000Y-74295000D01*
X169355000Y-83185000D02*
X166370000Y-83185000D01*
X167195000Y-75565000D02*
X170815000Y-75565000D01*
X165545000Y-75565000D02*
X165545000Y-80199282D01*
X165545000Y-80199282D02*
X160019282Y-85725000D01*
X165545000Y-75565000D02*
X165545000Y-75102500D01*
X165545000Y-75102500D02*
X167307500Y-73340000D01*
X115570000Y-85725000D02*
X111760000Y-81915000D01*
X160019282Y-85725000D02*
X115570000Y-85725000D01*
X169355000Y-81280000D02*
X165100000Y-81280000D01*
X160020000Y-86360000D02*
X113665000Y-86360000D01*
X165100000Y-81280000D02*
X160020000Y-86360000D01*
X113665000Y-86360000D02*
X111760000Y-84455000D01*
X160020000Y-86995000D02*
X111760000Y-86995000D01*
X169355000Y-109220000D02*
X169355000Y-96330000D01*
X169355000Y-96330000D02*
X160020000Y-86995000D01*
X189230000Y-83804686D02*
X189230000Y-92710000D01*
X172362500Y-81280000D02*
X171005000Y-81280000D01*
X176327500Y-80570000D02*
X177955000Y-80570000D01*
X185995314Y-80570000D02*
X189230000Y-83804686D01*
X173990000Y-82907500D02*
X172362500Y-81280000D01*
X173990000Y-82907500D02*
X176327500Y-80570000D01*
X177955000Y-80570000D02*
X185995314Y-80570000D01*
X172362500Y-109220000D02*
X171005000Y-109220000D01*
X181050000Y-108510000D02*
X189230000Y-100330000D01*
X173990000Y-110847500D02*
X176327500Y-108510000D01*
X177955000Y-108510000D02*
X181050000Y-108510000D01*
X173990000Y-110847500D02*
X172362500Y-109220000D01*
X176327500Y-108510000D02*
X177955000Y-108510000D01*
X158750000Y-60960000D02*
X152400000Y-54610000D01*
X187960000Y-60960000D02*
X158750000Y-60960000D01*
X149860000Y-52070000D02*
X149860000Y-52150000D01*
X149860000Y-52150000D02*
X147400000Y-54610000D01*
X154940000Y-52070000D02*
X149860000Y-52070000D01*
X158750000Y-55880000D02*
X154940000Y-52070000D01*
X187960000Y-55880000D02*
X158750000Y-55880000D01*
X187960000Y-68580000D02*
X176720000Y-68580000D01*
X186055000Y-71755000D02*
X187960000Y-73660000D01*
X179705000Y-71755000D02*
X186055000Y-71755000D01*
X167307500Y-69327500D02*
X167195000Y-69215000D01*
X167622500Y-71755000D02*
X172085000Y-71755000D01*
X167307500Y-71440000D02*
X167307500Y-69327500D01*
X167307500Y-71440000D02*
X167622500Y-71755000D01*
X175070000Y-71565000D02*
X177800000Y-74295000D01*
X177800000Y-74295000D02*
X179705000Y-74295000D01*
X175070000Y-68580000D02*
X175070000Y-71565000D01*
M02*
