%TF.GenerationSoftware,KiCad,Pcbnew,(7.0.0)*%
%TF.CreationDate,2023-03-18T12:10:04+01:00*%
%TF.ProjectId,rgb-garden-box,7267622d-6761-4726-9465-6e2d626f782e,rev?*%
%TF.SameCoordinates,Original*%
%TF.FileFunction,Copper,L2,Bot*%
%TF.FilePolarity,Positive*%
%FSLAX46Y46*%
G04 Gerber Fmt 4.6, Leading zero omitted, Abs format (unit mm)*
G04 Created by KiCad (PCBNEW (7.0.0)) date 2023-03-18 12:10:04*
%MOMM*%
%LPD*%
G01*
G04 APERTURE LIST*
%TA.AperFunction,ComponentPad*%
%ADD10O,2.000000X1.905000*%
%TD*%
%TA.AperFunction,ComponentPad*%
%ADD11R,2.000000X1.905000*%
%TD*%
%TA.AperFunction,ComponentPad*%
%ADD12C,0.800000*%
%TD*%
%TA.AperFunction,ComponentPad*%
%ADD13C,6.400000*%
%TD*%
%TA.AperFunction,ComponentPad*%
%ADD14C,1.650000*%
%TD*%
%TA.AperFunction,ComponentPad*%
%ADD15R,3.000000X3.000000*%
%TD*%
%TA.AperFunction,ComponentPad*%
%ADD16C,3.000000*%
%TD*%
%TA.AperFunction,ComponentPad*%
%ADD17C,1.860000*%
%TD*%
%TA.AperFunction,ComponentPad*%
%ADD18R,1.700000X1.700000*%
%TD*%
%TA.AperFunction,ComponentPad*%
%ADD19O,1.700000X1.700000*%
%TD*%
%TA.AperFunction,ComponentPad*%
%ADD20R,2.400000X2.400000*%
%TD*%
%TA.AperFunction,ComponentPad*%
%ADD21C,2.400000*%
%TD*%
%TA.AperFunction,ComponentPad*%
%ADD22R,1.778000X1.778000*%
%TD*%
%TA.AperFunction,ComponentPad*%
%ADD23C,1.778000*%
%TD*%
%TA.AperFunction,ComponentPad*%
%ADD24R,2.300000X2.000000*%
%TD*%
%TA.AperFunction,ComponentPad*%
%ADD25C,2.300000*%
%TD*%
%TA.AperFunction,ViaPad*%
%ADD26C,0.800000*%
%TD*%
%TA.AperFunction,Conductor*%
%ADD27C,0.250000*%
%TD*%
%TA.AperFunction,Conductor*%
%ADD28C,1.000000*%
%TD*%
G04 APERTURE END LIST*
D10*
%TO.P,Q8,3,S*%
%TO.N,GND*%
X192583999Y-102615999D03*
%TO.P,Q8,2,D*%
%TO.N,Net-(J4-Pin_4)*%
X192583999Y-105155999D03*
D11*
%TO.P,Q8,1,G*%
%TO.N,Net-(Q8-G)*%
X192583999Y-107695999D03*
%TD*%
D10*
%TO.P,Q7,3,S*%
%TO.N,GND*%
X186943999Y-102615999D03*
%TO.P,Q7,2,D*%
%TO.N,Net-(J4-Pin_3)*%
X186943999Y-105155999D03*
D11*
%TO.P,Q7,1,G*%
%TO.N,Net-(Q7-G)*%
X186943999Y-107695999D03*
%TD*%
%TO.P,Q6,1,G*%
%TO.N,Net-(Q6-G)*%
X181203999Y-107695999D03*
D10*
%TO.P,Q6,2,D*%
%TO.N,Net-(J4-Pin_2)*%
X181203999Y-105155999D03*
%TO.P,Q6,3,S*%
%TO.N,GND*%
X181203999Y-102615999D03*
%TD*%
%TO.P,Q5,3,S*%
%TO.N,GND*%
X179591999Y-121919999D03*
%TO.P,Q5,2,D*%
%TO.N,Net-(J6-Pin_4)*%
X179591999Y-119379999D03*
D11*
%TO.P,Q5,1,G*%
%TO.N,Net-(Q5-G)*%
X179591999Y-116839999D03*
%TD*%
D10*
%TO.P,Q3,3,S*%
%TO.N,GND*%
X185471999Y-121919999D03*
%TO.P,Q3,2,D*%
%TO.N,Net-(J6-Pin_3)*%
X185471999Y-119379999D03*
D11*
%TO.P,Q3,1,G*%
%TO.N,Net-(Q3-G)*%
X185471999Y-116839999D03*
%TD*%
D10*
%TO.P,Q2,3,S*%
%TO.N,GND*%
X191567999Y-121919999D03*
%TO.P,Q2,2,D*%
%TO.N,Net-(J6-Pin_2)*%
X191567999Y-119379999D03*
D11*
%TO.P,Q2,1,G*%
%TO.N,Net-(Q2-G)*%
X191567999Y-116839999D03*
%TD*%
D12*
%TO.P,REF\u002A\u002A,1*%
%TO.N,N/C*%
X209920000Y-134690000D03*
X210622944Y-132992944D03*
X210622944Y-136387056D03*
X212320000Y-132290000D03*
D13*
X212320000Y-134690000D03*
D12*
X212320000Y-137090000D03*
X214017056Y-132992944D03*
X214017056Y-136387056D03*
X214720000Y-134690000D03*
%TD*%
D14*
%TO.P,K1,1*%
%TO.N,+5V*%
X221625000Y-79746920D03*
%TO.P,K1,2*%
%TO.N,Net-(D1-K)*%
X221625000Y-77206920D03*
%TO.P,K1,5*%
%TO.N,Net-(J3-Pin_1)*%
X221625000Y-69586920D03*
%TO.P,K1,8*%
%TO.N,Net-(PS1-AC{slash}L)*%
X221625000Y-61966920D03*
%TD*%
D12*
%TO.P,REF\u002A\u002A,1*%
%TO.N,N/C*%
X89220000Y-134690000D03*
X89922944Y-132992944D03*
X89922944Y-136387056D03*
X91620000Y-132290000D03*
D13*
X91620000Y-134690000D03*
D12*
X91620000Y-137090000D03*
X93317056Y-132992944D03*
X93317056Y-136387056D03*
X94020000Y-134690000D03*
%TD*%
D15*
%TO.P,J5,1,Pin_1*%
%TO.N,+12V*%
X198754999Y-81914999D03*
D16*
%TO.P,J5,2,Pin_2*%
%TO.N,Net-(J4-Pin_2)*%
X203835000Y-81915000D03*
%TO.P,J5,3,Pin_3*%
%TO.N,Net-(J4-Pin_3)*%
X208915000Y-81915000D03*
%TO.P,J5,4,Pin_4*%
%TO.N,Net-(J4-Pin_4)*%
X213995000Y-81915000D03*
%TD*%
D15*
%TO.P,J6,1,Pin_1*%
%TO.N,+24V*%
X213994999Y-125094999D03*
D16*
%TO.P,J6,2,Pin_2*%
%TO.N,Net-(J6-Pin_2)*%
X208915000Y-125095000D03*
%TO.P,J6,3,Pin_3*%
%TO.N,Net-(J6-Pin_3)*%
X203835000Y-125095000D03*
%TO.P,J6,4,Pin_4*%
%TO.N,Net-(J6-Pin_4)*%
X198755000Y-125095000D03*
%TD*%
D12*
%TO.P,REF\u002A\u002A,1*%
%TO.N,N/C*%
X89220000Y-44690000D03*
X89922944Y-42992944D03*
X89922944Y-46387056D03*
X91620000Y-42290000D03*
D13*
X91620000Y-44690000D03*
D12*
X91620000Y-47090000D03*
X93317056Y-42992944D03*
X93317056Y-46387056D03*
X94020000Y-44690000D03*
%TD*%
D17*
%TO.P,PS1,1,AC/L*%
%TO.N,Net-(PS1-AC{slash}L)*%
X128960000Y-45675000D03*
%TO.P,PS1,2,AC/N*%
%TO.N,Net-(J3-Pin_2)*%
X128960000Y-51175000D03*
%TO.P,PS1,3,+Vout*%
%TO.N,+12V*%
X190460000Y-54675000D03*
%TO.P,PS1,4,-Vout*%
%TO.N,GND*%
X190460000Y-45675000D03*
%TD*%
D14*
%TO.P,K2,1*%
%TO.N,+5V*%
X221615000Y-116205000D03*
%TO.P,K2,2*%
%TO.N,Net-(D3-K)*%
X221615000Y-113665000D03*
%TO.P,K2,5*%
%TO.N,Net-(J3-Pin_1)*%
X221615000Y-106045000D03*
%TO.P,K2,8*%
%TO.N,Net-(PS2-AC{slash}L)*%
X221615000Y-98425000D03*
%TD*%
D18*
%TO.P,J1,1,Pin_1*%
%TO.N,GND*%
X161289999Y-121919999D03*
D19*
%TO.P,J1,2,Pin_2*%
%TO.N,+3V3*%
X161289999Y-119379999D03*
%TO.P,J1,3,Pin_3*%
%TO.N,Net-(J1-Pin_3)*%
X161289999Y-116839999D03*
%TD*%
D15*
%TO.P,J4,1,Pin_1*%
%TO.N,+12V*%
X198754999Y-53339999D03*
D16*
%TO.P,J4,2,Pin_2*%
%TO.N,Net-(J4-Pin_2)*%
X203835000Y-53340000D03*
%TO.P,J4,3,Pin_3*%
%TO.N,Net-(J4-Pin_3)*%
X208915000Y-53340000D03*
%TO.P,J4,4,Pin_4*%
%TO.N,Net-(J4-Pin_4)*%
X213995000Y-53340000D03*
%TD*%
D12*
%TO.P,REF\u002A\u002A,1*%
%TO.N,N/C*%
X81570000Y-89690000D03*
X82272944Y-87992944D03*
X82272944Y-91387056D03*
X83970000Y-87290000D03*
D13*
X83970000Y-89690000D03*
D12*
X83970000Y-92090000D03*
X85667056Y-87992944D03*
X85667056Y-91387056D03*
X86370000Y-89690000D03*
%TD*%
%TO.P,REF\u002A\u002A,1*%
%TO.N,N/C*%
X217570000Y-89690000D03*
X218272944Y-87992944D03*
X218272944Y-91387056D03*
X219970000Y-87290000D03*
D13*
X219970000Y-89690000D03*
D12*
X219970000Y-92090000D03*
X221667056Y-87992944D03*
X221667056Y-91387056D03*
X222370000Y-89690000D03*
%TD*%
D15*
%TO.P,J3,1,Pin_1*%
%TO.N,Net-(J3-Pin_1)*%
X190499999Y-128904999D03*
D16*
%TO.P,J3,2,Pin_2*%
%TO.N,Net-(J3-Pin_2)*%
X190500000Y-133985000D03*
%TD*%
D20*
%TO.P,PS2,1,AC/N*%
%TO.N,Net-(J3-Pin_2)*%
X145162499Y-135897499D03*
D21*
%TO.P,PS2,2,AC/L*%
%TO.N,Net-(PS2-AC{slash}L)*%
X145162500Y-115577500D03*
%TO.P,PS2,3,-Vo*%
%TO.N,GND*%
X99442500Y-125737500D03*
%TO.P,PS2,4,+Vo*%
%TO.N,+24V*%
X99442500Y-135897500D03*
%TD*%
D22*
%TO.P,U1,1,+5V*%
%TO.N,+5V*%
X117474999Y-109219999D03*
D23*
%TO.P,U1,2,+3.3V_(out)*%
%TO.N,+3V3*%
X120015000Y-109220000D03*
%TO.P,U1,3,GND*%
%TO.N,GND*%
X122555000Y-109220000D03*
%TO.P,U1,4,ESP_EN*%
%TO.N,unconnected-(U1-ESP_EN-Pad4)*%
X125095000Y-109220000D03*
%TO.P,U1,5,GPIO0*%
%TO.N,unconnected-(U1-GPIO0-Pad5)*%
X127635000Y-109220000D03*
%TO.P,U1,6,GPIO1*%
%TO.N,unconnected-(U1-GPIO1-Pad6)*%
X130175000Y-109220000D03*
%TO.P,U1,7,GPIO2*%
%TO.N,unconnected-(U1-GPIO2-Pad7)*%
X132715000Y-109220000D03*
%TO.P,U1,8,GPIO3*%
%TO.N,Net-(Q2-G)*%
X135255000Y-109220000D03*
%TO.P,U1,9,GPIO4*%
%TO.N,Net-(Q3-G)*%
X137795000Y-109220000D03*
%TO.P,U1,10,GPIO5*%
%TO.N,Net-(Q5-G)*%
X140335000Y-109220000D03*
%TO.P,U1,11,GPIO13*%
%TO.N,Net-(J1-Pin_3)*%
X140335000Y-83820000D03*
%TO.P,U1,12,GPIO14*%
%TO.N,Net-(Q6-G)*%
X137795000Y-83820000D03*
%TO.P,U1,13,GPIO15*%
%TO.N,Net-(Q7-G)*%
X135255000Y-83820000D03*
%TO.P,U1,14,GPIO16*%
%TO.N,Net-(Q8-G)*%
X132715000Y-83820000D03*
%TO.P,U1,15,GPIO32*%
%TO.N,Net-(U1-GPIO32)*%
X130175000Y-83820000D03*
%TO.P,U1,16,GPIO33*%
%TO.N,Net-(U1-GPIO33)*%
X127635000Y-83820000D03*
%TO.P,U1,17,GPIO34*%
%TO.N,unconnected-(U1-GPIO34-Pad17)*%
X125095000Y-83820000D03*
%TO.P,U1,18,GPIO35*%
%TO.N,unconnected-(U1-GPIO35-Pad18)*%
X122555000Y-83820000D03*
%TO.P,U1,19,GPIO36*%
%TO.N,Net-(J2-Pin_4)*%
X120015000Y-83820000D03*
%TO.P,U1,20,GPIO39*%
%TO.N,unconnected-(U1-GPIO39-Pad20)*%
X117475000Y-83820000D03*
%TD*%
D24*
%TO.P,PS3,1,AC/L*%
%TO.N,Net-(J3-Pin_1)*%
X117967499Y-75564999D03*
D25*
%TO.P,PS3,3,AC/N*%
%TO.N,Net-(J3-Pin_2)*%
X117967500Y-70485000D03*
%TO.P,PS3,5,NC*%
%TO.N,unconnected-(PS3-NC-Pad5)*%
X117967500Y-45085000D03*
%TO.P,PS3,14,-Vo*%
%TO.N,GND*%
X100187500Y-45085000D03*
%TO.P,PS3,16,+Vo*%
%TO.N,+5V*%
X100187500Y-50165000D03*
%TD*%
D12*
%TO.P,REF\u002A\u002A,1*%
%TO.N,N/C*%
X209920000Y-44690000D03*
X210622944Y-42992944D03*
X210622944Y-46387056D03*
X212320000Y-42290000D03*
D13*
X212320000Y-44690000D03*
D12*
X212320000Y-47090000D03*
X214017056Y-42992944D03*
X214017056Y-46387056D03*
X214720000Y-44690000D03*
%TD*%
D18*
%TO.P,J2,1,Pin_1*%
%TO.N,GND*%
X156209999Y-124459999D03*
D19*
%TO.P,J2,2,Pin_2*%
X156209999Y-121919999D03*
%TO.P,J2,3,Pin_3*%
%TO.N,+5V*%
X156209999Y-119379999D03*
%TO.P,J2,4,Pin_4*%
%TO.N,Net-(J2-Pin_4)*%
X156209999Y-116839999D03*
%TD*%
D26*
%TO.N,Net-(Q5-G)*%
X166619701Y-113796299D03*
%TO.N,Net-(Q3-G)*%
X166619701Y-112780299D03*
%TO.N,Net-(Q2-G)*%
X166624000Y-111760000D03*
%TO.N,Net-(Q8-G)*%
X167132000Y-109728000D03*
%TO.N,Net-(Q7-G)*%
X168148000Y-109220000D03*
%TO.N,Net-(Q6-G)*%
X169164000Y-108712000D03*
%TO.N,Net-(U1-GPIO32)*%
X159004000Y-103632000D03*
%TO.N,GND*%
X197612000Y-102616000D03*
%TO.N,Net-(U1-GPIO32)*%
X211836000Y-100076000D03*
%TO.N,+5V*%
X216624500Y-70981920D03*
%TO.N,Net-(J1-Pin_3)*%
X150495000Y-83820000D03*
X150495000Y-107315000D03*
%TO.N,Net-(J2-Pin_4)*%
X145415000Y-107950000D03*
X128270000Y-97790000D03*
%TO.N,Net-(U1-GPIO33)*%
X216624500Y-67310000D03*
%TD*%
D27*
%TO.N,Net-(Q5-G)*%
X167631402Y-114808000D02*
X168148000Y-114808000D01*
X166619701Y-113796299D02*
X167631402Y-114808000D01*
X178816000Y-114808000D02*
X168148000Y-114808000D01*
%TO.N,Net-(Q3-G)*%
X166628299Y-112780299D02*
X168148000Y-114300000D01*
X184404000Y-114300000D02*
X168148000Y-114300000D01*
X166619701Y-112780299D02*
X166628299Y-112780299D01*
%TO.N,Net-(Q2-G)*%
X166624000Y-111760000D02*
X168656000Y-113792000D01*
X172720000Y-113792000D02*
X168656000Y-113792000D01*
%TO.N,Net-(Q5-G)*%
X179592000Y-116840000D02*
X179592000Y-115584000D01*
X179592000Y-115584000D02*
X178816000Y-114808000D01*
%TO.N,Net-(Q3-G)*%
X185472000Y-115368000D02*
X184404000Y-114300000D01*
X185472000Y-116840000D02*
X185472000Y-115368000D01*
%TO.N,Net-(Q8-G)*%
X168148000Y-110744000D02*
X167132000Y-109728000D01*
X192584000Y-109168000D02*
X191008000Y-110744000D01*
X191008000Y-110744000D02*
X168148000Y-110744000D01*
X192584000Y-107696000D02*
X192584000Y-109168000D01*
%TO.N,Net-(Q7-G)*%
X169164000Y-110236000D02*
X168148000Y-109220000D01*
X185928000Y-110236000D02*
X169164000Y-110236000D01*
X186944000Y-109220000D02*
X185928000Y-110236000D01*
X186944000Y-107696000D02*
X186944000Y-109220000D01*
%TO.N,Net-(Q6-G)*%
X170180000Y-109728000D02*
X169164000Y-108712000D01*
X181204000Y-108864000D02*
X181204000Y-107696000D01*
X180340000Y-109728000D02*
X181204000Y-108864000D01*
X170180000Y-109728000D02*
X180340000Y-109728000D01*
%TO.N,Net-(U1-GPIO32)*%
X162560000Y-100076000D02*
X163068000Y-100076000D01*
X159004000Y-103632000D02*
X162560000Y-100076000D01*
X164719000Y-100076000D02*
X163068000Y-100076000D01*
%TO.N,Net-(Q2-G)*%
X189484000Y-113792000D02*
X172720000Y-113792000D01*
X191568000Y-115876000D02*
X191516000Y-115824000D01*
X191516000Y-115824000D02*
X189484000Y-113792000D01*
X191568000Y-116840000D02*
X191568000Y-115876000D01*
%TO.N,GND*%
X197612000Y-102616000D02*
X192584000Y-102616000D01*
%TO.N,Net-(U1-GPIO32)*%
X211836000Y-100076000D02*
X164719000Y-100076000D01*
D28*
%TO.N,GND*%
X186944000Y-102616000D02*
X192584000Y-102616000D01*
X181204000Y-102616000D02*
X186944000Y-102616000D01*
X185472000Y-121920000D02*
X191568000Y-121920000D01*
X179592000Y-121920000D02*
X185472000Y-121920000D01*
%TO.N,Net-(J3-Pin_1)*%
X213487000Y-106045000D02*
X221615000Y-106045000D01*
X190627000Y-128905000D02*
X213487000Y-106045000D01*
X190500000Y-128905000D02*
X190627000Y-128905000D01*
D27*
%TO.N,+5V*%
X160158080Y-70981920D02*
X139700000Y-91440000D01*
X131445000Y-91440000D02*
X117475000Y-105410000D01*
X127635000Y-119380000D02*
X117475000Y-109220000D01*
X156210000Y-119380000D02*
X127635000Y-119380000D01*
X139700000Y-91440000D02*
X131445000Y-91440000D01*
X117475000Y-105410000D02*
X117475000Y-109220000D01*
X216624500Y-70981920D02*
X160158080Y-70981920D01*
%TO.N,+3V3*%
X128905000Y-118110000D02*
X120015000Y-109220000D01*
X155575000Y-113665000D02*
X151130000Y-118110000D01*
X157480000Y-113665000D02*
X155575000Y-113665000D01*
X158750000Y-116840000D02*
X158750000Y-114935000D01*
X151130000Y-118110000D02*
X128905000Y-118110000D01*
X161290000Y-119380000D02*
X158750000Y-116840000D01*
X158750000Y-114935000D02*
X157480000Y-113665000D01*
%TO.N,Net-(J1-Pin_3)*%
X150495000Y-107315000D02*
X150495000Y-83820000D01*
%TO.N,Net-(J2-Pin_4)*%
X135255000Y-97790000D02*
X128270000Y-97790000D01*
X145415000Y-107950000D02*
X135255000Y-97790000D01*
D28*
%TO.N,Net-(J3-Pin_1)*%
X224790000Y-72751920D02*
X224790000Y-102870000D01*
X224790000Y-102870000D02*
X221615000Y-106045000D01*
X217170000Y-60960000D02*
X132572500Y-60960000D01*
X221625000Y-69586920D02*
X221625000Y-65415000D01*
X221625000Y-65415000D02*
X217170000Y-60960000D01*
X132572500Y-60960000D02*
X117967500Y-75565000D01*
X221625000Y-69586920D02*
X224790000Y-72751920D01*
%TO.N,Net-(J3-Pin_2)*%
X117967500Y-70485000D02*
X110490000Y-77962500D01*
X188587500Y-135897500D02*
X190500000Y-133985000D01*
X132722500Y-135897500D02*
X145162500Y-135897500D01*
X110490000Y-113665000D02*
X132722500Y-135897500D01*
X110490000Y-77962500D02*
X110490000Y-113665000D01*
X128960000Y-51175000D02*
X128960000Y-59492500D01*
X128960000Y-59492500D02*
X117967500Y-70485000D01*
X145162500Y-135897500D02*
X188587500Y-135897500D01*
%TO.N,Net-(PS1-AC{slash}L)*%
X177755000Y-45675000D02*
X190500000Y-58420000D01*
X218078080Y-58420000D02*
X221625000Y-61966920D01*
X190500000Y-58420000D02*
X218078080Y-58420000D01*
X128960000Y-45675000D02*
X177755000Y-45675000D01*
%TO.N,Net-(PS2-AC{slash}L)*%
X162315000Y-98425000D02*
X221615000Y-98425000D01*
X145162500Y-115577500D02*
X162315000Y-98425000D01*
D27*
%TO.N,Net-(U1-GPIO33)*%
X216624500Y-67310000D02*
X139700000Y-67310000D01*
X139700000Y-67310000D02*
X127635000Y-79375000D01*
X127635000Y-79375000D02*
X127635000Y-83820000D01*
%TD*%
M02*
