M48
; DRILL file {KiCad (7.0.0)} date Sat Mar 18 12:10:04 2023
; FORMAT={-:-/ absolute / inch / decimal}
; #@! TF.CreationDate,2023-03-18T12:10:04+01:00
; #@! TF.GenerationSoftware,Kicad,Pcbnew,(7.0.0)
; #@! TF.FileFunction,Plated,1,2,PTH
FMAT,2
INCH
; #@! TA.AperFunction,Plated,PTH,ViaDrill
T1C0.0157
; #@! TA.AperFunction,Plated,PTH,ComponentDrill
T2C0.0197
; #@! TA.AperFunction,Plated,PTH,ComponentDrill
T3C0.0299
; #@! TA.AperFunction,Plated,PTH,ComponentDrill
T4C0.0315
; #@! TA.AperFunction,Plated,PTH,ComponentDrill
T5C0.0394
; #@! TA.AperFunction,Plated,PTH,ComponentDrill
T6C0.0433
; #@! TA.AperFunction,Plated,PTH,ComponentDrill
T7C0.0488
; #@! TA.AperFunction,Plated,PTH,ComponentDrill
T8C0.0512
; #@! TA.AperFunction,Plated,PTH,ComponentDrill
T9C0.0598
; #@! TA.AperFunction,Plated,PTH,ComponentDrill
T10C0.1260
%
G90
G05
T1
X5.05Y-3.85
X5.725Y-4.25
X5.925Y-3.3
X5.925Y-4.225
X6.26Y-4.08
X6.5598Y-4.4402
X6.5598Y-4.4802
X6.56Y-4.4
X6.58Y-4.32
X6.62Y-4.3
X6.66Y-4.28
X7.78Y-4.04
X8.34Y-3.94
X8.5285Y-2.65
X8.5285Y-2.7946
T2
X3.2114Y-3.5311
X3.2391Y-3.4643
X3.2391Y-3.5979
X3.3059Y-3.4366
X3.3059Y-3.6256
X3.3727Y-3.4643
X3.3727Y-3.5979
X3.4004Y-3.5311
X3.5126Y-1.7594
X3.5126Y-5.3028
X3.5403Y-1.6926
X3.5403Y-1.8263
X3.5403Y-5.2359
X3.5403Y-5.3696
X3.6071Y-1.665
X3.6071Y-1.8539
X3.6071Y-5.2083
X3.6071Y-5.3972
X3.6739Y-1.6926
X3.6739Y-1.8263
X3.6739Y-5.2359
X3.6739Y-5.3696
X3.7016Y-1.7594
X3.7016Y-5.3028
X8.2646Y-1.7594
X8.2646Y-5.3028
X8.2922Y-1.6926
X8.2922Y-1.8263
X8.2922Y-5.2359
X8.2922Y-5.3696
X8.3591Y-1.665
X8.3591Y-1.8539
X8.3591Y-5.2083
X8.3591Y-5.3972
X8.4259Y-1.6926
X8.4259Y-1.8263
X8.4259Y-5.2359
X8.4259Y-5.3696
X8.4535Y-1.7594
X8.4535Y-5.3028
X8.5657Y-3.5311
X8.5934Y-3.4643
X8.5934Y-3.5979
X8.6602Y-3.4366
X8.6602Y-3.6256
X8.727Y-3.4643
X8.727Y-3.5979
X8.7547Y-3.5311
T3
X3.9444Y-1.775
X3.9444Y-1.975
X4.6444Y-1.775
T4
X4.6444Y-2.775
X4.6444Y-2.975
T5
X4.625Y-3.3
X4.625Y-4.3
X4.725Y-3.3
X4.725Y-4.3
X4.825Y-3.3
X4.825Y-4.3
X4.925Y-3.3
X4.925Y-4.3
X5.025Y-3.3
X5.025Y-4.3
X5.125Y-3.3
X5.125Y-4.3
X5.225Y-3.3
X5.225Y-4.3
X5.325Y-3.3
X5.325Y-4.3
X5.425Y-3.3
X5.425Y-4.3
X5.525Y-3.3
X5.525Y-4.3
X6.15Y-4.6
X6.15Y-4.7
X6.15Y-4.8
X6.15Y-4.9
X6.35Y-4.6
X6.35Y-4.7
X6.35Y-4.8
T6
X7.0706Y-4.6
X7.0706Y-4.7
X7.0706Y-4.8
X7.134Y-4.04
X7.134Y-4.14
X7.134Y-4.24
X7.302Y-4.6
X7.302Y-4.7
X7.302Y-4.8
X7.36Y-4.04
X7.36Y-4.14
X7.36Y-4.24
X7.542Y-4.6
X7.542Y-4.7
X7.542Y-4.8
X7.582Y-4.04
X7.582Y-4.14
X7.582Y-4.24
X8.725Y-3.875
X8.725Y-4.175
X8.725Y-4.475
X8.725Y-4.575
X8.7254Y-2.4396
X8.7254Y-2.7396
X8.7254Y-3.0396
X8.7254Y-3.1396
T7
X5.0772Y-1.7982
X5.0772Y-2.0148
X7.4984Y-1.7982
X7.4984Y-2.1526
T8
X3.9151Y-4.9503
X3.9151Y-5.3503
X5.7151Y-4.5503
X5.7151Y-5.3503
T9
X7.5Y-5.075
X7.5Y-5.275
X7.825Y-2.1
X7.825Y-3.225
X7.825Y-4.925
X8.025Y-2.1
X8.025Y-3.225
X8.025Y-4.925
X8.225Y-2.1
X8.225Y-3.225
X8.225Y-4.925
X8.425Y-2.1
X8.425Y-3.225
X8.425Y-4.925
T10
X3.3059Y-3.5311
X3.6071Y-1.7594
X3.6071Y-5.3028
X8.3591Y-1.7594
X8.3591Y-5.3028
X8.6602Y-3.5311
T0
M30
