%TF.GenerationSoftware,KiCad,Pcbnew,(7.0.0)*%
%TF.CreationDate,2023-03-18T12:10:04+01:00*%
%TF.ProjectId,rgb-garden-box,7267622d-6761-4726-9465-6e2d626f782e,rev?*%
%TF.SameCoordinates,Original*%
%TF.FileFunction,Paste,Top*%
%TF.FilePolarity,Positive*%
%FSLAX46Y46*%
G04 Gerber Fmt 4.6, Leading zero omitted, Abs format (unit mm)*
G04 Created by KiCad (PCBNEW (7.0.0)) date 2023-03-18 12:10:04*
%MOMM*%
%LPD*%
G01*
G04 APERTURE LIST*
G04 Aperture macros list*
%AMRoundRect*
0 Rectangle with rounded corners*
0 $1 Rounding radius*
0 $2 $3 $4 $5 $6 $7 $8 $9 X,Y pos of 4 corners*
0 Add a 4 corners polygon primitive as box body*
4,1,4,$2,$3,$4,$5,$6,$7,$8,$9,$2,$3,0*
0 Add four circle primitives for the rounded corners*
1,1,$1+$1,$2,$3*
1,1,$1+$1,$4,$5*
1,1,$1+$1,$6,$7*
1,1,$1+$1,$8,$9*
0 Add four rect primitives between the rounded corners*
20,1,$1+$1,$2,$3,$4,$5,0*
20,1,$1+$1,$4,$5,$6,$7,0*
20,1,$1+$1,$6,$7,$8,$9,0*
20,1,$1+$1,$8,$9,$2,$3,0*%
G04 Aperture macros list end*
%ADD10R,0.700000X1.250013*%
%ADD11RoundRect,0.135000X-0.135000X-0.185000X0.135000X-0.185000X0.135000X0.185000X-0.135000X0.185000X0*%
%ADD12RoundRect,0.135000X0.135000X0.185000X-0.135000X0.185000X-0.135000X-0.185000X0.135000X-0.185000X0*%
%ADD13RoundRect,0.243750X0.456250X-0.243750X0.456250X0.243750X-0.456250X0.243750X-0.456250X-0.243750X0*%
%ADD14RoundRect,0.225000X0.375000X-0.225000X0.375000X0.225000X-0.375000X0.225000X-0.375000X-0.225000X0*%
%ADD15RoundRect,0.135000X0.185000X-0.135000X0.185000X0.135000X-0.185000X0.135000X-0.185000X-0.135000X0*%
G04 APERTURE END LIST*
D10*
%TO.C,Q1*%
X218785279Y-64466283D03*
X216885355Y-64466283D03*
X217835317Y-61966919D03*
%TD*%
D11*
%TO.C,R8*%
X217930000Y-104775000D03*
X218950000Y-104775000D03*
%TD*%
D12*
%TO.C,R2*%
X218960000Y-67046920D03*
X217940000Y-67046920D03*
%TD*%
%TO.C,R7*%
X218950000Y-103505000D03*
X217930000Y-103505000D03*
%TD*%
D11*
%TO.C,R12*%
X186490000Y-111252000D03*
X185470000Y-111252000D03*
%TD*%
%TO.C,R3*%
X217940000Y-68316920D03*
X218960000Y-68316920D03*
%TD*%
%TO.C,R5*%
X192586000Y-113284000D03*
X191566000Y-113284000D03*
%TD*%
%TO.C,R11*%
X179882000Y-111252000D03*
X180902000Y-111252000D03*
%TD*%
%TO.C,R13*%
X192586000Y-111252000D03*
X191566000Y-111252000D03*
%TD*%
D13*
%TO.C,D3*%
X218440000Y-110157500D03*
X218440000Y-108282500D03*
%TD*%
D11*
%TO.C,R10*%
X217930000Y-106045000D03*
X218950000Y-106045000D03*
%TD*%
%TO.C,R6*%
X186490000Y-113284000D03*
X185470000Y-113284000D03*
%TD*%
D14*
%TO.C,D2*%
X218450000Y-80126920D03*
X218450000Y-76826920D03*
%TD*%
D15*
%TO.C,R1*%
X164465000Y-117985000D03*
X164465000Y-116965000D03*
%TD*%
D11*
%TO.C,R9*%
X180902000Y-113284000D03*
X179882000Y-113284000D03*
%TD*%
D14*
%TO.C,D4*%
X218440000Y-116585000D03*
X218440000Y-113285000D03*
%TD*%
D10*
%TO.C,Q4*%
X218775279Y-100924363D03*
X216875355Y-100924363D03*
X217825317Y-98424999D03*
%TD*%
D13*
%TO.C,D1*%
X218450000Y-73699420D03*
X218450000Y-71824420D03*
%TD*%
D11*
%TO.C,R4*%
X217940000Y-69586920D03*
X218960000Y-69586920D03*
%TD*%
M02*
