%TF.GenerationSoftware,KiCad,Pcbnew,(7.0.0)*%
%TF.CreationDate,2025-02-09T12:12:52+01:00*%
%TF.ProjectId,fairy-lights,66616972-792d-46c6-9967-6874732e6b69,rev?*%
%TF.SameCoordinates,Original*%
%TF.FileFunction,Legend,Top*%
%TF.FilePolarity,Positive*%
%FSLAX46Y46*%
G04 Gerber Fmt 4.6, Leading zero omitted, Abs format (unit mm)*
G04 Created by KiCad (PCBNEW (7.0.0)) date 2025-02-09 12:12:52*
%MOMM*%
%LPD*%
G01*
G04 APERTURE LIST*
%ADD10C,0.300000*%
%ADD11C,0.150000*%
%ADD12C,0.120000*%
%ADD13C,3.800000*%
%ADD14R,3.000000X3.000000*%
%ADD15C,3.000000*%
%ADD16C,1.600000*%
%ADD17O,1.600000X1.600000*%
%ADD18C,6.000000*%
%ADD19R,2.000000X2.000000*%
%ADD20O,2.000000X1.600000*%
%ADD21R,2.000000X1.905000*%
%ADD22O,2.000000X1.905000*%
G04 APERTURE END LIST*
D10*
X146672142Y-52980714D02*
X146743571Y-53052142D01*
X146743571Y-53052142D02*
X146672142Y-53123571D01*
X146672142Y-53123571D02*
X146600714Y-53052142D01*
X146600714Y-53052142D02*
X146672142Y-52980714D01*
X146672142Y-52980714D02*
X146672142Y-53123571D01*
X145772142Y-54982142D02*
X146915000Y-54982142D01*
X146343571Y-55553571D02*
X146343571Y-54410714D01*
X140692142Y-55553571D02*
X140692142Y-54053571D01*
X140692142Y-54053571D02*
X141049285Y-54053571D01*
X141049285Y-54053571D02*
X141263571Y-54125000D01*
X141263571Y-54125000D02*
X141406428Y-54267857D01*
X141406428Y-54267857D02*
X141477857Y-54410714D01*
X141477857Y-54410714D02*
X141549285Y-54696428D01*
X141549285Y-54696428D02*
X141549285Y-54910714D01*
X141549285Y-54910714D02*
X141477857Y-55196428D01*
X141477857Y-55196428D02*
X141406428Y-55339285D01*
X141406428Y-55339285D02*
X141263571Y-55482142D01*
X141263571Y-55482142D02*
X141049285Y-55553571D01*
X141049285Y-55553571D02*
X140692142Y-55553571D01*
X143232142Y-74667142D02*
X144375000Y-74667142D01*
X138152142Y-74667142D02*
X139295000Y-74667142D01*
X138723571Y-75238571D02*
X138723571Y-74095714D01*
X135612142Y-54982142D02*
X136755000Y-54982142D01*
G36*
X133222690Y-75878503D02*
G01*
X133206993Y-75877730D01*
X133192062Y-75875664D01*
X133179459Y-75873007D01*
X133158613Y-75867994D01*
X133137842Y-75863304D01*
X133117145Y-75858938D01*
X133096523Y-75854895D01*
X133075975Y-75851176D01*
X133055502Y-75847780D01*
X133035103Y-75844707D01*
X133014778Y-75841958D01*
X132994528Y-75839532D01*
X132974352Y-75837430D01*
X132954251Y-75835651D01*
X132934224Y-75834195D01*
X132914271Y-75833063D01*
X132894393Y-75832255D01*
X132874589Y-75831770D01*
X132854860Y-75831608D01*
X132835357Y-75831791D01*
X132820496Y-75832169D01*
X132805437Y-75832753D01*
X132790177Y-75833543D01*
X132774718Y-75834539D01*
X132759059Y-75835741D01*
X132743200Y-75837149D01*
X132727142Y-75838764D01*
X132710884Y-75840584D01*
X132694427Y-75842610D01*
X132688897Y-75843332D01*
X132672239Y-75845633D01*
X132655375Y-75848140D01*
X132638304Y-75850854D01*
X132621028Y-75853773D01*
X132603545Y-75856899D01*
X132585857Y-75860230D01*
X132567962Y-75863768D01*
X132549862Y-75867512D01*
X132531555Y-75871462D01*
X132513042Y-75875618D01*
X132500586Y-75878503D01*
X132500548Y-75896809D01*
X132500437Y-75916192D01*
X132500251Y-75936652D01*
X132499990Y-75958187D01*
X132499655Y-75980798D01*
X132499246Y-76004486D01*
X132498762Y-76029250D01*
X132498204Y-76055090D01*
X132497572Y-76082007D01*
X132496865Y-76109999D01*
X132496083Y-76139068D01*
X132495665Y-76154006D01*
X132495228Y-76169213D01*
X132494772Y-76184689D01*
X132494297Y-76200434D01*
X132493804Y-76216448D01*
X132493293Y-76232731D01*
X132492763Y-76249283D01*
X132492214Y-76266105D01*
X132491646Y-76283195D01*
X132491060Y-76300554D01*
X132510020Y-76299346D01*
X132530130Y-76297937D01*
X132546341Y-76296758D01*
X132564797Y-76295387D01*
X132585496Y-76293824D01*
X132608440Y-76292070D01*
X132633627Y-76290123D01*
X132661059Y-76287985D01*
X132690734Y-76285655D01*
X132706414Y-76284419D01*
X132722654Y-76283134D01*
X132739455Y-76281801D01*
X132756817Y-76280420D01*
X132774741Y-76278992D01*
X132793225Y-76277515D01*
X132812270Y-76275991D01*
X132831876Y-76274418D01*
X132852044Y-76272798D01*
X132872772Y-76271130D01*
X132894061Y-76269413D01*
X132918091Y-76267506D01*
X132940996Y-76265721D01*
X132962776Y-76264060D01*
X132983431Y-76262521D01*
X133002961Y-76261106D01*
X133021367Y-76259813D01*
X133038647Y-76258644D01*
X133054803Y-76257598D01*
X133069834Y-76256675D01*
X133090272Y-76255521D01*
X133108178Y-76254644D01*
X133123553Y-76254044D01*
X133140117Y-76253675D01*
X133143555Y-76253660D01*
X133158484Y-76254266D01*
X133176373Y-76256732D01*
X133193403Y-76261093D01*
X133209575Y-76267350D01*
X133224888Y-76275504D01*
X133239342Y-76285554D01*
X133247602Y-76292494D01*
X133260057Y-76305247D01*
X133270400Y-76319235D01*
X133278632Y-76334456D01*
X133284754Y-76350912D01*
X133288765Y-76368603D01*
X133290453Y-76383643D01*
X133290833Y-76395443D01*
X133290323Y-76410413D01*
X133287640Y-76431308D01*
X133282659Y-76450329D01*
X133275378Y-76467475D01*
X133265799Y-76482748D01*
X133253920Y-76496146D01*
X133239743Y-76507670D01*
X133223266Y-76517321D01*
X133204490Y-76525097D01*
X133183415Y-76530999D01*
X133168088Y-76533893D01*
X133160041Y-76535027D01*
X133143871Y-76535975D01*
X133126270Y-76537032D01*
X133107240Y-76538199D01*
X133086780Y-76539475D01*
X133064890Y-76540861D01*
X133049503Y-76541846D01*
X133033480Y-76542879D01*
X133016822Y-76543961D01*
X132999529Y-76545091D01*
X132981600Y-76546271D01*
X132963035Y-76547498D01*
X132943836Y-76548775D01*
X132924000Y-76550100D01*
X132913845Y-76550781D01*
X132894948Y-76552405D01*
X132874895Y-76554073D01*
X132853686Y-76555783D01*
X132831321Y-76557536D01*
X132807799Y-76559332D01*
X132783121Y-76561171D01*
X132757287Y-76563053D01*
X132730296Y-76564978D01*
X132702149Y-76566945D01*
X132672846Y-76568956D01*
X132657760Y-76569978D01*
X132642386Y-76571010D01*
X132626722Y-76572053D01*
X132610770Y-76573106D01*
X132594528Y-76574171D01*
X132577997Y-76575246D01*
X132561177Y-76576332D01*
X132544069Y-76577428D01*
X132526671Y-76578536D01*
X132508983Y-76579654D01*
X132491007Y-76580783D01*
X132472742Y-76581922D01*
X132471855Y-76597983D01*
X132471025Y-76613653D01*
X132470252Y-76628930D01*
X132469536Y-76643815D01*
X132468570Y-76665407D01*
X132467733Y-76686117D01*
X132467025Y-76705945D01*
X132466445Y-76724890D01*
X132465994Y-76742953D01*
X132465672Y-76760134D01*
X132465479Y-76776432D01*
X132465415Y-76791849D01*
X132465508Y-76816268D01*
X132465787Y-76839333D01*
X132466252Y-76861044D01*
X132466903Y-76881402D01*
X132467740Y-76900406D01*
X132468764Y-76918056D01*
X132469973Y-76934352D01*
X132471368Y-76949294D01*
X132473810Y-76969169D01*
X132476670Y-76985998D01*
X132481135Y-77003697D01*
X132487763Y-77018207D01*
X132489228Y-77020094D01*
X132504079Y-77026469D01*
X132519642Y-77029110D01*
X132535854Y-77030758D01*
X132555409Y-77031995D01*
X132572269Y-77032652D01*
X132591009Y-77033077D01*
X132611630Y-77033270D01*
X132618921Y-77033283D01*
X132635957Y-77033237D01*
X132655008Y-77033100D01*
X132670619Y-77032936D01*
X132687363Y-77032722D01*
X132705240Y-77032456D01*
X132724251Y-77032138D01*
X132744395Y-77031769D01*
X132765673Y-77031348D01*
X132780488Y-77031039D01*
X132795807Y-77030707D01*
X132811629Y-77030352D01*
X132827494Y-77029997D01*
X132842850Y-77029665D01*
X132857696Y-77029356D01*
X132879011Y-77028935D01*
X132899179Y-77028566D01*
X132918200Y-77028248D01*
X132936075Y-77027982D01*
X132952804Y-77027767D01*
X132968387Y-77027604D01*
X132987381Y-77027467D01*
X133004337Y-77027421D01*
X133019249Y-77026813D01*
X133033858Y-77025450D01*
X133048594Y-77023620D01*
X133065153Y-77021193D01*
X133081785Y-77018766D01*
X133096418Y-77016935D01*
X133112296Y-77015457D01*
X133124870Y-77014965D01*
X133139531Y-77015491D01*
X133157099Y-77017631D01*
X133173827Y-77021416D01*
X133189714Y-77026847D01*
X133204761Y-77033924D01*
X133218966Y-77042647D01*
X133227086Y-77048670D01*
X133238420Y-77058488D01*
X133250463Y-77072096D01*
X133260145Y-77087188D01*
X133267465Y-77103766D01*
X133271621Y-77118097D01*
X133274265Y-77133379D01*
X133275399Y-77149610D01*
X133275446Y-77153817D01*
X133274387Y-77174310D01*
X133271209Y-77193199D01*
X133265912Y-77210485D01*
X133258496Y-77226168D01*
X133248962Y-77240247D01*
X133237308Y-77252722D01*
X133223537Y-77263594D01*
X133207646Y-77272862D01*
X133189636Y-77280527D01*
X133169508Y-77286588D01*
X133154912Y-77289738D01*
X133133658Y-77293142D01*
X133117321Y-77295226D01*
X133099249Y-77297161D01*
X133079442Y-77298947D01*
X133057901Y-77300584D01*
X133034625Y-77302073D01*
X133009615Y-77303412D01*
X132982871Y-77304603D01*
X132954392Y-77305645D01*
X132939502Y-77306110D01*
X132924178Y-77306538D01*
X132908421Y-77306928D01*
X132892230Y-77307282D01*
X132875605Y-77307598D01*
X132858547Y-77307877D01*
X132841055Y-77308119D01*
X132823130Y-77308324D01*
X132804771Y-77308491D01*
X132785978Y-77308621D01*
X132766752Y-77308714D01*
X132747092Y-77308770D01*
X132726999Y-77308789D01*
X132706230Y-77308700D01*
X132685919Y-77308432D01*
X132666065Y-77307987D01*
X132646668Y-77307363D01*
X132627728Y-77306562D01*
X132609246Y-77305582D01*
X132591220Y-77304424D01*
X132573652Y-77303087D01*
X132556542Y-77301573D01*
X132539888Y-77299880D01*
X132523692Y-77298009D01*
X132507953Y-77295960D01*
X132492671Y-77293733D01*
X132477847Y-77291328D01*
X132449569Y-77285983D01*
X132423121Y-77279925D01*
X132398502Y-77273154D01*
X132375711Y-77265671D01*
X132354750Y-77257475D01*
X132335617Y-77248566D01*
X132318314Y-77238945D01*
X132302839Y-77228611D01*
X132289193Y-77217564D01*
X132275574Y-77204053D01*
X132262832Y-77188707D01*
X132250970Y-77171527D01*
X132239986Y-77152511D01*
X132229881Y-77131662D01*
X132220655Y-77108977D01*
X132212307Y-77084458D01*
X132204838Y-77058104D01*
X132198248Y-77029915D01*
X132195282Y-77015133D01*
X132192536Y-76999892D01*
X132190010Y-76984193D01*
X132187703Y-76968034D01*
X132185617Y-76951417D01*
X132183749Y-76934342D01*
X132182102Y-76916807D01*
X132180674Y-76898814D01*
X132179466Y-76880363D01*
X132178477Y-76861452D01*
X132177708Y-76842083D01*
X132177159Y-76822256D01*
X132176830Y-76801969D01*
X132176720Y-76781224D01*
X132176798Y-76763277D01*
X132177035Y-76744239D01*
X132177428Y-76724110D01*
X132177979Y-76702891D01*
X132178687Y-76680581D01*
X132179553Y-76657181D01*
X132180577Y-76632691D01*
X132181757Y-76607110D01*
X132183095Y-76580438D01*
X132184591Y-76552676D01*
X132186244Y-76523823D01*
X132187129Y-76508988D01*
X132188054Y-76493880D01*
X132189018Y-76478500D01*
X132190022Y-76462846D01*
X132191065Y-76446921D01*
X132192147Y-76430722D01*
X132193269Y-76414251D01*
X132194430Y-76397508D01*
X132195630Y-76380491D01*
X132196870Y-76363203D01*
X132198109Y-76345915D01*
X132199310Y-76328902D01*
X132200471Y-76312163D01*
X132201592Y-76295700D01*
X132202675Y-76279511D01*
X132203718Y-76263597D01*
X132204721Y-76247958D01*
X132205685Y-76232594D01*
X132206610Y-76217504D01*
X132207496Y-76202689D01*
X132209149Y-76173884D01*
X132210644Y-76146178D01*
X132211982Y-76119570D01*
X132213163Y-76094062D01*
X132214186Y-76069653D01*
X132215052Y-76046343D01*
X132215760Y-76024132D01*
X132216311Y-76003021D01*
X132216705Y-75983008D01*
X132216941Y-75964094D01*
X132217020Y-75946280D01*
X132216659Y-75931455D01*
X132215577Y-75914183D01*
X132214125Y-75897920D01*
X132212171Y-75879958D01*
X132210248Y-75864365D01*
X132208004Y-75847684D01*
X132206762Y-75838935D01*
X132204357Y-75821710D01*
X132202274Y-75805573D01*
X132200510Y-75790524D01*
X132198757Y-75773241D01*
X132197505Y-75757658D01*
X132196664Y-75741202D01*
X132196503Y-75731591D01*
X132197067Y-75712470D01*
X132198759Y-75694582D01*
X132201578Y-75677928D01*
X132205525Y-75662508D01*
X132210600Y-75648321D01*
X132220326Y-75629355D01*
X132232590Y-75613163D01*
X132247391Y-75599748D01*
X132264730Y-75589108D01*
X132284606Y-75581243D01*
X132299266Y-75577543D01*
X132315054Y-75575075D01*
X132331970Y-75573842D01*
X132340851Y-75573688D01*
X132357505Y-75574589D01*
X132373669Y-75577294D01*
X132389344Y-75581802D01*
X132404530Y-75588113D01*
X132419226Y-75596228D01*
X132424016Y-75599333D01*
X132438942Y-75595833D01*
X132453771Y-75592475D01*
X132468503Y-75589261D01*
X132483138Y-75586190D01*
X132497675Y-75583262D01*
X132512115Y-75580477D01*
X132533592Y-75576568D01*
X132554851Y-75572981D01*
X132575890Y-75569716D01*
X132596711Y-75566772D01*
X132617312Y-75564151D01*
X132637695Y-75561852D01*
X132651161Y-75560498D01*
X132671254Y-75558665D01*
X132691141Y-75557012D01*
X132710822Y-75555540D01*
X132730296Y-75554247D01*
X132749565Y-75553135D01*
X132768627Y-75552204D01*
X132787483Y-75551452D01*
X132806133Y-75550881D01*
X132824578Y-75550491D01*
X132842816Y-75550280D01*
X132854860Y-75550240D01*
X132870992Y-75550286D01*
X132886921Y-75550423D01*
X132902646Y-75550652D01*
X132918167Y-75550973D01*
X132933483Y-75551385D01*
X132948596Y-75551889D01*
X132963505Y-75552484D01*
X132978210Y-75553171D01*
X133007008Y-75554820D01*
X133034991Y-75556835D01*
X133062158Y-75559216D01*
X133088509Y-75561964D01*
X133114044Y-75565078D01*
X133138764Y-75568558D01*
X133162667Y-75572405D01*
X133185756Y-75576618D01*
X133208028Y-75581198D01*
X133229485Y-75586144D01*
X133250125Y-75591456D01*
X133269951Y-75597135D01*
X133286908Y-75604607D01*
X133302198Y-75613149D01*
X133315820Y-75622760D01*
X133327773Y-75633439D01*
X133338059Y-75645188D01*
X133346677Y-75658006D01*
X133353627Y-75671893D01*
X133358908Y-75686848D01*
X133362522Y-75702873D01*
X133364468Y-75719967D01*
X133364839Y-75731957D01*
X133363936Y-75748932D01*
X133361225Y-75765280D01*
X133356709Y-75781003D01*
X133350385Y-75796099D01*
X133342254Y-75810570D01*
X133332317Y-75824414D01*
X133327836Y-75829776D01*
X133317137Y-75841196D01*
X133305740Y-75851094D01*
X133293644Y-75859469D01*
X133277542Y-75867796D01*
X133260349Y-75873744D01*
X133245809Y-75876790D01*
X133230571Y-75878312D01*
X133222690Y-75878503D01*
G37*
G36*
X133114979Y-75101444D02*
G01*
X133100845Y-75111588D01*
X133085921Y-75123334D01*
X133074210Y-75133196D01*
X133062055Y-75143959D01*
X133049455Y-75155624D01*
X133036411Y-75168191D01*
X133022922Y-75181659D01*
X133008989Y-75196029D01*
X132994612Y-75211300D01*
X132979790Y-75227473D01*
X132969349Y-75238838D01*
X132959182Y-75249759D01*
X132944447Y-75265308D01*
X132930331Y-75279859D01*
X132916833Y-75293412D01*
X132903953Y-75305967D01*
X132891691Y-75317523D01*
X132880047Y-75328082D01*
X132865484Y-75340607D01*
X132852021Y-75351357D01*
X132845701Y-75356067D01*
X132833007Y-75364722D01*
X132819884Y-75371910D01*
X132806331Y-75377630D01*
X132789501Y-75382559D01*
X132775004Y-75385053D01*
X132760077Y-75386080D01*
X132757041Y-75386109D01*
X132740331Y-75385259D01*
X132724318Y-75382710D01*
X132709004Y-75378462D01*
X132694387Y-75372514D01*
X132680467Y-75364866D01*
X132667246Y-75355519D01*
X132662152Y-75351304D01*
X132650648Y-75340036D01*
X132641094Y-75328213D01*
X132632202Y-75313294D01*
X132626118Y-75297576D01*
X132622843Y-75281060D01*
X132622219Y-75269605D01*
X132624287Y-75252603D01*
X132629353Y-75237499D01*
X132637459Y-75221905D01*
X132646536Y-75208537D01*
X132657724Y-75194829D01*
X132665450Y-75186441D01*
X132677330Y-75175450D01*
X132689156Y-75164459D01*
X132700929Y-75153468D01*
X132712648Y-75142477D01*
X132724313Y-75131486D01*
X132735925Y-75120495D01*
X132740554Y-75116099D01*
X132753985Y-75101435D01*
X132766709Y-75087579D01*
X132778726Y-75074531D01*
X132790036Y-75062289D01*
X132800639Y-75050854D01*
X132815219Y-75035216D01*
X132828207Y-75021393D01*
X132839605Y-75009387D01*
X132852327Y-74996204D01*
X132864254Y-74984265D01*
X132870614Y-74978346D01*
X132882251Y-74968097D01*
X132893717Y-74958510D01*
X132910595Y-74945370D01*
X132927085Y-74933716D01*
X132943189Y-74923551D01*
X132958907Y-74914873D01*
X132974239Y-74907683D01*
X132989184Y-74901980D01*
X133003743Y-74897765D01*
X133022553Y-74894459D01*
X133036210Y-74893715D01*
X133052902Y-74894601D01*
X133068861Y-74897257D01*
X133084086Y-74901685D01*
X133098578Y-74907883D01*
X133112336Y-74915853D01*
X133125361Y-74925593D01*
X133130366Y-74929986D01*
X133141870Y-74941438D01*
X133151425Y-74953356D01*
X133160316Y-74968271D01*
X133166400Y-74983855D01*
X133169676Y-75000110D01*
X133170300Y-75011318D01*
X133168949Y-75027333D01*
X133164897Y-75042631D01*
X133158144Y-75057214D01*
X133148690Y-75071082D01*
X133136534Y-75084233D01*
X133124865Y-75094240D01*
X133114979Y-75101444D01*
G37*
G36*
X133814002Y-77067355D02*
G01*
X133813446Y-77090912D01*
X133811781Y-77112950D01*
X133809004Y-77133468D01*
X133805117Y-77152466D01*
X133800120Y-77169944D01*
X133794012Y-77185902D01*
X133786793Y-77200341D01*
X133778464Y-77213259D01*
X133769025Y-77224658D01*
X133752783Y-77238907D01*
X133734043Y-77249735D01*
X133720161Y-77255055D01*
X133705169Y-77258854D01*
X133689066Y-77261134D01*
X133671852Y-77261894D01*
X133656711Y-77261282D01*
X133638735Y-77258793D01*
X133621813Y-77254391D01*
X133605948Y-77248074D01*
X133591138Y-77239844D01*
X133577383Y-77229699D01*
X133569637Y-77222693D01*
X133558132Y-77210012D01*
X133548578Y-77196239D01*
X133540973Y-77181375D01*
X133535319Y-77165420D01*
X133531614Y-77148374D01*
X133529859Y-77130236D01*
X133529703Y-77122676D01*
X133529703Y-75705945D01*
X133530758Y-75687917D01*
X133533925Y-75670926D01*
X133539202Y-75654972D01*
X133546590Y-75640057D01*
X133556089Y-75626179D01*
X133567699Y-75613338D01*
X133572934Y-75608492D01*
X133586336Y-75598465D01*
X133600669Y-75590138D01*
X133615932Y-75583510D01*
X133632125Y-75578582D01*
X133649248Y-75575353D01*
X133667301Y-75573824D01*
X133674783Y-75573688D01*
X133689650Y-75574260D01*
X133707283Y-75576586D01*
X133723860Y-75580700D01*
X133739382Y-75586603D01*
X133753849Y-75594296D01*
X133767260Y-75603777D01*
X133774801Y-75610324D01*
X133786094Y-75622222D01*
X133795473Y-75635247D01*
X133802938Y-75649399D01*
X133808489Y-75664678D01*
X133812126Y-75681083D01*
X133813848Y-75698616D01*
X133814002Y-75705945D01*
X133814002Y-77067355D01*
G37*
G36*
X134584685Y-76136674D02*
G01*
X134606407Y-76137425D01*
X134627652Y-76138677D01*
X134648419Y-76140430D01*
X134668708Y-76142684D01*
X134688519Y-76145439D01*
X134707852Y-76148695D01*
X134726707Y-76152452D01*
X134745083Y-76156709D01*
X134762982Y-76161468D01*
X134780403Y-76166727D01*
X134797346Y-76172487D01*
X134813811Y-76178748D01*
X134829798Y-76185510D01*
X134845307Y-76192773D01*
X134860338Y-76200537D01*
X134879193Y-76211482D01*
X134896831Y-76223160D01*
X134913253Y-76235570D01*
X134928459Y-76248714D01*
X134942448Y-76262590D01*
X134955221Y-76277199D01*
X134966777Y-76292540D01*
X134977117Y-76308614D01*
X134986240Y-76325421D01*
X134994147Y-76342961D01*
X135000837Y-76361233D01*
X135006311Y-76380239D01*
X135010569Y-76399976D01*
X135013610Y-76420447D01*
X135015435Y-76441650D01*
X135016043Y-76463586D01*
X135014929Y-76484519D01*
X135011586Y-76505000D01*
X135006016Y-76525030D01*
X134998217Y-76544610D01*
X134988190Y-76563739D01*
X134980267Y-76576241D01*
X134971354Y-76588543D01*
X134961451Y-76600645D01*
X134950557Y-76612546D01*
X134938673Y-76624246D01*
X134925799Y-76635747D01*
X134911934Y-76647047D01*
X134897080Y-76658147D01*
X134889281Y-76663621D01*
X134872995Y-76674269D01*
X134858398Y-76683006D01*
X134841761Y-76692387D01*
X134823081Y-76702412D01*
X134809495Y-76709453D01*
X134795000Y-76716780D01*
X134779599Y-76724393D01*
X134763290Y-76732293D01*
X134746073Y-76740479D01*
X134727950Y-76748951D01*
X134708919Y-76757710D01*
X134688981Y-76766754D01*
X134668135Y-76776085D01*
X134657372Y-76780858D01*
X134310059Y-76933632D01*
X134326016Y-76940673D01*
X134342974Y-76947141D01*
X134357263Y-76951904D01*
X134372192Y-76956301D01*
X134387762Y-76960331D01*
X134403974Y-76963994D01*
X134420827Y-76967291D01*
X134429494Y-76968803D01*
X134447394Y-76971550D01*
X134465924Y-76973932D01*
X134485084Y-76975947D01*
X134499867Y-76977218D01*
X134515004Y-76978282D01*
X134530495Y-76979141D01*
X134546341Y-76979794D01*
X134562541Y-76980240D01*
X134579095Y-76980481D01*
X134590327Y-76980526D01*
X134607426Y-76980285D01*
X134624193Y-76979559D01*
X134640628Y-76978350D01*
X134656731Y-76976657D01*
X134672502Y-76974480D01*
X134687941Y-76971819D01*
X134703047Y-76968675D01*
X134717822Y-76965047D01*
X134732265Y-76960936D01*
X134746376Y-76956341D01*
X134760154Y-76951262D01*
X134780200Y-76942736D01*
X134799499Y-76933122D01*
X134818050Y-76922420D01*
X134824068Y-76918611D01*
X134839843Y-76908724D01*
X134855019Y-76899810D01*
X134869595Y-76891869D01*
X134883573Y-76884900D01*
X134896953Y-76878903D01*
X134913860Y-76872420D01*
X134929702Y-76867666D01*
X134944480Y-76864640D01*
X134961454Y-76863290D01*
X134980573Y-76864311D01*
X134997810Y-76867373D01*
X135013168Y-76872476D01*
X135026644Y-76879622D01*
X135038241Y-76888808D01*
X135047957Y-76900036D01*
X135055792Y-76913306D01*
X135061747Y-76928617D01*
X135065821Y-76945970D01*
X135068015Y-76965364D01*
X135068433Y-76979427D01*
X135067760Y-76995589D01*
X135065742Y-77011375D01*
X135062379Y-77026787D01*
X135057671Y-77041824D01*
X135051617Y-77056485D01*
X135044218Y-77070772D01*
X135035474Y-77084684D01*
X135025385Y-77098221D01*
X135013950Y-77111383D01*
X135001171Y-77124170D01*
X134987046Y-77136582D01*
X134971575Y-77148619D01*
X134954760Y-77160281D01*
X134936599Y-77171568D01*
X134917093Y-77182480D01*
X134896242Y-77193018D01*
X134878174Y-77201358D01*
X134859966Y-77209161D01*
X134841618Y-77216425D01*
X134823129Y-77223151D01*
X134804500Y-77229339D01*
X134785731Y-77234989D01*
X134766822Y-77240101D01*
X134747773Y-77244675D01*
X134728583Y-77248711D01*
X134709253Y-77252208D01*
X134689783Y-77255168D01*
X134670172Y-77257589D01*
X134650421Y-77259473D01*
X134630530Y-77260818D01*
X134610499Y-77261625D01*
X134590327Y-77261894D01*
X134575027Y-77261779D01*
X134559902Y-77261435D01*
X134544951Y-77260861D01*
X134530175Y-77260057D01*
X134501146Y-77257760D01*
X134472816Y-77254544D01*
X134445184Y-77250409D01*
X134418251Y-77245356D01*
X134392016Y-77239384D01*
X134366479Y-77232493D01*
X134341641Y-77224684D01*
X134317501Y-77215955D01*
X134294059Y-77206308D01*
X134271316Y-77195742D01*
X134249271Y-77184258D01*
X134227925Y-77171854D01*
X134207276Y-77158532D01*
X134187327Y-77144291D01*
X134166387Y-77127619D01*
X134146798Y-77110116D01*
X134128560Y-77091784D01*
X134111673Y-77072621D01*
X134096136Y-77052629D01*
X134081951Y-77031806D01*
X134069117Y-77010153D01*
X134057634Y-76987670D01*
X134047502Y-76964358D01*
X134038720Y-76940215D01*
X134031290Y-76915242D01*
X134025211Y-76889439D01*
X134020482Y-76862806D01*
X134017105Y-76835343D01*
X134015078Y-76807050D01*
X134014403Y-76777927D01*
X134014537Y-76761702D01*
X134014938Y-76745634D01*
X134015607Y-76729722D01*
X134016544Y-76713968D01*
X134017748Y-76698370D01*
X134019220Y-76682928D01*
X134020041Y-76675711D01*
X134289542Y-76675711D01*
X134304101Y-76669350D01*
X134318651Y-76662997D01*
X134333193Y-76656653D01*
X134347726Y-76650318D01*
X134362250Y-76643991D01*
X134376766Y-76637672D01*
X134391273Y-76631363D01*
X134405771Y-76625061D01*
X134420261Y-76618769D01*
X134434743Y-76612485D01*
X134449216Y-76606209D01*
X134463680Y-76599943D01*
X134478136Y-76593684D01*
X134492583Y-76587435D01*
X134507021Y-76581194D01*
X134521451Y-76574961D01*
X134538631Y-76567074D01*
X134555368Y-76559259D01*
X134571662Y-76551515D01*
X134587511Y-76543843D01*
X134602917Y-76536242D01*
X134617879Y-76528713D01*
X134632398Y-76521256D01*
X134646473Y-76513870D01*
X134660104Y-76506555D01*
X134673292Y-76499313D01*
X134692242Y-76488583D01*
X134710193Y-76478013D01*
X134727146Y-76467605D01*
X134743101Y-76457358D01*
X134729751Y-76450287D01*
X134715667Y-76443911D01*
X134700849Y-76438231D01*
X134685296Y-76433247D01*
X134669009Y-76428958D01*
X134651988Y-76425364D01*
X134634233Y-76422466D01*
X134615744Y-76420264D01*
X134596521Y-76418757D01*
X134576563Y-76417945D01*
X134562850Y-76417791D01*
X134545097Y-76418358D01*
X134527834Y-76420058D01*
X134511060Y-76422891D01*
X134494775Y-76426858D01*
X134478980Y-76431959D01*
X134463674Y-76438193D01*
X134448858Y-76445560D01*
X134434531Y-76454061D01*
X134420694Y-76463695D01*
X134407346Y-76474463D01*
X134398719Y-76482271D01*
X134386243Y-76494928D01*
X134374230Y-76508718D01*
X134362681Y-76523641D01*
X134351595Y-76539699D01*
X134340974Y-76556889D01*
X134330816Y-76575213D01*
X134321121Y-76594670D01*
X134314916Y-76608272D01*
X134308917Y-76622377D01*
X134303124Y-76636985D01*
X134297537Y-76652098D01*
X134292156Y-76667714D01*
X134289542Y-76675711D01*
X134020041Y-76675711D01*
X134020959Y-76667644D01*
X134022967Y-76652516D01*
X134025241Y-76637545D01*
X134027784Y-76622730D01*
X134030594Y-76608072D01*
X134033671Y-76593571D01*
X134037017Y-76579227D01*
X134044510Y-76551008D01*
X134053074Y-76523416D01*
X134062708Y-76496451D01*
X134073413Y-76470113D01*
X134085188Y-76444402D01*
X134098033Y-76419317D01*
X134111949Y-76394860D01*
X134126936Y-76371029D01*
X134142993Y-76347825D01*
X134151423Y-76336458D01*
X134161052Y-76324151D01*
X134170889Y-76312235D01*
X134180933Y-76300710D01*
X134191185Y-76289575D01*
X134201644Y-76278831D01*
X134212311Y-76268477D01*
X134223185Y-76258515D01*
X134245557Y-76239761D01*
X134268758Y-76222571D01*
X134292789Y-76206943D01*
X134317650Y-76192878D01*
X134343341Y-76180376D01*
X134369863Y-76169437D01*
X134397214Y-76160060D01*
X134425396Y-76152246D01*
X134439798Y-76148925D01*
X134454407Y-76145995D01*
X134469224Y-76143456D01*
X134484249Y-76141307D01*
X134499481Y-76139549D01*
X134514920Y-76138181D01*
X134530567Y-76137204D01*
X134546422Y-76136618D01*
X134562484Y-76136423D01*
X134584685Y-76136674D01*
G37*
G36*
X134778112Y-75504231D02*
G01*
X134794070Y-75506888D01*
X134809296Y-75511315D01*
X134823787Y-75517514D01*
X134837546Y-75525483D01*
X134850571Y-75535224D01*
X134855575Y-75539616D01*
X134867080Y-75551068D01*
X134876634Y-75562986D01*
X134885525Y-75577901D01*
X134891609Y-75593486D01*
X134894885Y-75609740D01*
X134895509Y-75620949D01*
X134894158Y-75636963D01*
X134890106Y-75652261D01*
X134883353Y-75666844D01*
X134873899Y-75680712D01*
X134861744Y-75693864D01*
X134850074Y-75703870D01*
X134840188Y-75711074D01*
X134826054Y-75721218D01*
X134811131Y-75732964D01*
X134799420Y-75742826D01*
X134787264Y-75753590D01*
X134774664Y-75765255D01*
X134761620Y-75777821D01*
X134748131Y-75791289D01*
X134734198Y-75805659D01*
X134719821Y-75820930D01*
X134705000Y-75837103D01*
X134694558Y-75848468D01*
X134684392Y-75859389D01*
X134669657Y-75874938D01*
X134655540Y-75889489D01*
X134642042Y-75903042D01*
X134629162Y-75915597D01*
X134616900Y-75927154D01*
X134605257Y-75937712D01*
X134590694Y-75950237D01*
X134577230Y-75960988D01*
X134570910Y-75965697D01*
X134558216Y-75974352D01*
X134545093Y-75981540D01*
X134531540Y-75987261D01*
X134514710Y-75992189D01*
X134500213Y-75994683D01*
X134485287Y-75995710D01*
X134482250Y-75995739D01*
X134465540Y-75994889D01*
X134449528Y-75992340D01*
X134434213Y-75988092D01*
X134419596Y-75982144D01*
X134405677Y-75974496D01*
X134392455Y-75965149D01*
X134387362Y-75960935D01*
X134375857Y-75949666D01*
X134366303Y-75937844D01*
X134357411Y-75922924D01*
X134351328Y-75907206D01*
X134348052Y-75890690D01*
X134347428Y-75879235D01*
X134349497Y-75862233D01*
X134354563Y-75847129D01*
X134362669Y-75831535D01*
X134371745Y-75818167D01*
X134382933Y-75804459D01*
X134390659Y-75796071D01*
X134402539Y-75785080D01*
X134414365Y-75774089D01*
X134426138Y-75763098D01*
X134437857Y-75752107D01*
X134449522Y-75741116D01*
X134461134Y-75730125D01*
X134465764Y-75725729D01*
X134479195Y-75711066D01*
X134491919Y-75697210D01*
X134503936Y-75684161D01*
X134515246Y-75671919D01*
X134525849Y-75660484D01*
X134540428Y-75644846D01*
X134553416Y-75631024D01*
X134564814Y-75619017D01*
X134577537Y-75605834D01*
X134589463Y-75593895D01*
X134595823Y-75587976D01*
X134607461Y-75577728D01*
X134618927Y-75568141D01*
X134635804Y-75555000D01*
X134652295Y-75543347D01*
X134668399Y-75533181D01*
X134684117Y-75524503D01*
X134699448Y-75517313D01*
X134714393Y-75511610D01*
X134728952Y-75507395D01*
X134747763Y-75504089D01*
X134761420Y-75503346D01*
X134778112Y-75504231D01*
G37*
G36*
X135770149Y-76137079D02*
G01*
X135794899Y-76139045D01*
X135818990Y-76142322D01*
X135842423Y-76146910D01*
X135865198Y-76152809D01*
X135887314Y-76160019D01*
X135908772Y-76168540D01*
X135929572Y-76178372D01*
X135949714Y-76189514D01*
X135969197Y-76201968D01*
X135988021Y-76215732D01*
X136006188Y-76230808D01*
X136023696Y-76247194D01*
X136040546Y-76264891D01*
X136056738Y-76283899D01*
X136072271Y-76304218D01*
X136085492Y-76323368D01*
X136097859Y-76343081D01*
X136109374Y-76363359D01*
X136120036Y-76384200D01*
X136129845Y-76405605D01*
X136138800Y-76427574D01*
X136146903Y-76450107D01*
X136154153Y-76473203D01*
X136160550Y-76496864D01*
X136166095Y-76521088D01*
X136170786Y-76545877D01*
X136174624Y-76571229D01*
X136177609Y-76597145D01*
X136179742Y-76623625D01*
X136181021Y-76650668D01*
X136181448Y-76678276D01*
X136181323Y-76693410D01*
X136180948Y-76708405D01*
X136180324Y-76723260D01*
X136179450Y-76737976D01*
X136176952Y-76766989D01*
X136173456Y-76795444D01*
X136168961Y-76823340D01*
X136163467Y-76850679D01*
X136156974Y-76877459D01*
X136149482Y-76903681D01*
X136140991Y-76929346D01*
X136131502Y-76954452D01*
X136121013Y-76978999D01*
X136109526Y-77002989D01*
X136097039Y-77026421D01*
X136083554Y-77049294D01*
X136069070Y-77071609D01*
X136053586Y-77093367D01*
X136044538Y-77105178D01*
X136035298Y-77116614D01*
X136016246Y-77138361D01*
X135996429Y-77158608D01*
X135975848Y-77177356D01*
X135954503Y-77194603D01*
X135932394Y-77210351D01*
X135909521Y-77224599D01*
X135885883Y-77237348D01*
X135861481Y-77248596D01*
X135836315Y-77258345D01*
X135810385Y-77266594D01*
X135783690Y-77273343D01*
X135756232Y-77278592D01*
X135728009Y-77282342D01*
X135699022Y-77284592D01*
X135684241Y-77285154D01*
X135669270Y-77285341D01*
X135645666Y-77284822D01*
X135622479Y-77283263D01*
X135599710Y-77280666D01*
X135577359Y-77277030D01*
X135555425Y-77272354D01*
X135533910Y-77266640D01*
X135512813Y-77259886D01*
X135492133Y-77252094D01*
X135471871Y-77243262D01*
X135452028Y-77233392D01*
X135432602Y-77222483D01*
X135413594Y-77210534D01*
X135395004Y-77197547D01*
X135376831Y-77183521D01*
X135359077Y-77168455D01*
X135341741Y-77152351D01*
X135323523Y-77133744D01*
X135306421Y-77114375D01*
X135290435Y-77094245D01*
X135275566Y-77073354D01*
X135261813Y-77051701D01*
X135249176Y-77029287D01*
X135237656Y-77006112D01*
X135227252Y-76982175D01*
X135217964Y-76957477D01*
X135209792Y-76932017D01*
X135202737Y-76905797D01*
X135196798Y-76878814D01*
X135191975Y-76851071D01*
X135188268Y-76822566D01*
X135185678Y-76793300D01*
X135184801Y-76778381D01*
X135184204Y-76763272D01*
X135184185Y-76761807D01*
X135469602Y-76761807D01*
X135469875Y-76777060D01*
X135470695Y-76791860D01*
X135472950Y-76813213D01*
X135476435Y-76833548D01*
X135481150Y-76852866D01*
X135487096Y-76871167D01*
X135494271Y-76888449D01*
X135502676Y-76904715D01*
X135512311Y-76919962D01*
X135523177Y-76934193D01*
X135535272Y-76947405D01*
X135539577Y-76951584D01*
X135553791Y-76963863D01*
X135568589Y-76974504D01*
X135583970Y-76983509D01*
X135599936Y-76990876D01*
X135616485Y-76996606D01*
X135633618Y-77000699D01*
X135651336Y-77003155D01*
X135669637Y-77003974D01*
X135686257Y-77003439D01*
X135702459Y-77001836D01*
X135718243Y-76999163D01*
X135733607Y-76995421D01*
X135748553Y-76990611D01*
X135763081Y-76984731D01*
X135777190Y-76977782D01*
X135790880Y-76969764D01*
X135804152Y-76960678D01*
X135817005Y-76950522D01*
X135825341Y-76943157D01*
X135838809Y-76929386D01*
X135851046Y-76914727D01*
X135862053Y-76899178D01*
X135871830Y-76882741D01*
X135880377Y-76865416D01*
X135887693Y-76847201D01*
X135893780Y-76828098D01*
X135898637Y-76808106D01*
X135902264Y-76787226D01*
X135904661Y-76765456D01*
X135905575Y-76750450D01*
X135906204Y-76730050D01*
X135906441Y-76710296D01*
X135906287Y-76691187D01*
X135905741Y-76672723D01*
X135904804Y-76654905D01*
X135903476Y-76637732D01*
X135901756Y-76621205D01*
X135899645Y-76605324D01*
X135897142Y-76590087D01*
X135894248Y-76575496D01*
X135887286Y-76548251D01*
X135878758Y-76523587D01*
X135868664Y-76501505D01*
X135857005Y-76482005D01*
X135843780Y-76465086D01*
X135828989Y-76450749D01*
X135812633Y-76438994D01*
X135794711Y-76429821D01*
X135775224Y-76423229D01*
X135754171Y-76419219D01*
X135731552Y-76417791D01*
X135715916Y-76418113D01*
X135700697Y-76419354D01*
X135685897Y-76421513D01*
X135671514Y-76424591D01*
X135650724Y-76430932D01*
X135630874Y-76439339D01*
X135611964Y-76449814D01*
X135593994Y-76462356D01*
X135582536Y-76471865D01*
X135571497Y-76482294D01*
X135560875Y-76493641D01*
X135550671Y-76505907D01*
X135540885Y-76519092D01*
X135531517Y-76533196D01*
X135520452Y-76551827D01*
X135510476Y-76571037D01*
X135501587Y-76590827D01*
X135493787Y-76611197D01*
X135487076Y-76632146D01*
X135483206Y-76646434D01*
X135479820Y-76660980D01*
X135476918Y-76675784D01*
X135474499Y-76690845D01*
X135472564Y-76706163D01*
X135471113Y-76721739D01*
X135470146Y-76737573D01*
X135469662Y-76753665D01*
X135469602Y-76761807D01*
X135184185Y-76761807D01*
X135183832Y-76734526D01*
X135184547Y-76706171D01*
X135186351Y-76678209D01*
X135189241Y-76650638D01*
X135193220Y-76623460D01*
X135198286Y-76596674D01*
X135204440Y-76570280D01*
X135211681Y-76544278D01*
X135220010Y-76518668D01*
X135229427Y-76493451D01*
X135239931Y-76468625D01*
X135251523Y-76444192D01*
X135264203Y-76420151D01*
X135277970Y-76396502D01*
X135292825Y-76373245D01*
X135308768Y-76350380D01*
X135318688Y-76337216D01*
X135328846Y-76324471D01*
X135339244Y-76312143D01*
X135349881Y-76300234D01*
X135360756Y-76288742D01*
X135371871Y-76277668D01*
X135383225Y-76267012D01*
X135394818Y-76256774D01*
X135406649Y-76246953D01*
X135418720Y-76237551D01*
X135431030Y-76228567D01*
X135443578Y-76220000D01*
X135456366Y-76211851D01*
X135469393Y-76204120D01*
X135482658Y-76196807D01*
X135496163Y-76189912D01*
X135509907Y-76183435D01*
X135523889Y-76177376D01*
X135538111Y-76171734D01*
X135552572Y-76166511D01*
X135567271Y-76161705D01*
X135582210Y-76157317D01*
X135597388Y-76153347D01*
X135612804Y-76149795D01*
X135628460Y-76146661D01*
X135644355Y-76143945D01*
X135660488Y-76141647D01*
X135676861Y-76139766D01*
X135693472Y-76138304D01*
X135710323Y-76137259D01*
X135727413Y-76136632D01*
X135744741Y-76136423D01*
X135770149Y-76137079D01*
G37*
G36*
X137160373Y-77285341D02*
G01*
X137144967Y-77284875D01*
X137123506Y-77282426D01*
X137104021Y-77277877D01*
X137086514Y-77271229D01*
X137070984Y-77262481D01*
X137057431Y-77251634D01*
X137045855Y-77238687D01*
X137036257Y-77223641D01*
X137028635Y-77206496D01*
X137022990Y-77187251D01*
X137019323Y-77165907D01*
X137016640Y-77146800D01*
X137013952Y-77127675D01*
X137011257Y-77108530D01*
X137008555Y-77089365D01*
X137005847Y-77070181D01*
X137003132Y-77050979D01*
X137000412Y-77031756D01*
X136997684Y-77012515D01*
X136994950Y-76993254D01*
X136992210Y-76973973D01*
X136990380Y-76961109D01*
X136987630Y-76940885D01*
X136985151Y-76920881D01*
X136982942Y-76901095D01*
X136981003Y-76881528D01*
X136979335Y-76862180D01*
X136977938Y-76843051D01*
X136976811Y-76824141D01*
X136975954Y-76805450D01*
X136975368Y-76786978D01*
X136975053Y-76768725D01*
X136974993Y-76756678D01*
X136975221Y-76741565D01*
X136975798Y-76724585D01*
X136976570Y-76707240D01*
X136977411Y-76690818D01*
X136978431Y-76672607D01*
X136978656Y-76668750D01*
X136979515Y-76653752D01*
X136980427Y-76636615D01*
X136981161Y-76621266D01*
X136981805Y-76605209D01*
X136982230Y-76589732D01*
X136982320Y-76580823D01*
X136982966Y-76565066D01*
X136983930Y-76549095D01*
X136984152Y-76545652D01*
X136985214Y-76530624D01*
X136985987Y-76515898D01*
X136986348Y-76500966D01*
X136986350Y-76499856D01*
X136985960Y-76485190D01*
X136984229Y-76467880D01*
X136981112Y-76453134D01*
X136975267Y-76438307D01*
X136965397Y-76425805D01*
X136949942Y-76418512D01*
X136942020Y-76417791D01*
X136924260Y-76418747D01*
X136906565Y-76421616D01*
X136888935Y-76426398D01*
X136871369Y-76433092D01*
X136853867Y-76441699D01*
X136836430Y-76452219D01*
X136819057Y-76464651D01*
X136807510Y-76474002D01*
X136795993Y-76484203D01*
X136784504Y-76495254D01*
X136773044Y-76507155D01*
X136761612Y-76519907D01*
X136755907Y-76526601D01*
X136744703Y-76540430D01*
X136733805Y-76554714D01*
X136723213Y-76569453D01*
X136712928Y-76584647D01*
X136702948Y-76600296D01*
X136693276Y-76616400D01*
X136683909Y-76632960D01*
X136674849Y-76649974D01*
X136666094Y-76667444D01*
X136657647Y-76685368D01*
X136649505Y-76703748D01*
X136641670Y-76722583D01*
X136634141Y-76741873D01*
X136626918Y-76761618D01*
X136620001Y-76781818D01*
X136613391Y-76802473D01*
X136612327Y-76818129D01*
X136610996Y-76833250D01*
X136609278Y-76849942D01*
X136607552Y-76865053D01*
X136605557Y-76881255D01*
X136604232Y-76891500D01*
X136602115Y-76908471D01*
X136600437Y-76925314D01*
X136599196Y-76942028D01*
X136598393Y-76958613D01*
X136598028Y-76975070D01*
X136598004Y-76980526D01*
X136598416Y-76996601D01*
X136599453Y-77013596D01*
X136600844Y-77030340D01*
X136602357Y-77045828D01*
X136604193Y-77062711D01*
X136604598Y-77066256D01*
X136606498Y-77083409D01*
X136608076Y-77099150D01*
X136609544Y-77116173D01*
X136610549Y-77131161D01*
X136611135Y-77146075D01*
X136611193Y-77151618D01*
X136610200Y-77169216D01*
X136607221Y-77185829D01*
X136602257Y-77201459D01*
X136595307Y-77216104D01*
X136586372Y-77229766D01*
X136575451Y-77242444D01*
X136570526Y-77247240D01*
X136557299Y-77258216D01*
X136543035Y-77267332D01*
X136527733Y-77274588D01*
X136511393Y-77279983D01*
X136494016Y-77283518D01*
X136479367Y-77285007D01*
X136467944Y-77285341D01*
X136452803Y-77284740D01*
X136434827Y-77282299D01*
X136417906Y-77277978D01*
X136402040Y-77271780D01*
X136387230Y-77263703D01*
X136373475Y-77253748D01*
X136365729Y-77246873D01*
X136354224Y-77234360D01*
X136344670Y-77220863D01*
X136337065Y-77206382D01*
X136331411Y-77190917D01*
X136327706Y-77174468D01*
X136325951Y-77157035D01*
X136325795Y-77149787D01*
X136325406Y-77133667D01*
X136324427Y-77116556D01*
X136323113Y-77099658D01*
X136321683Y-77084001D01*
X136319950Y-77066914D01*
X136319567Y-77063325D01*
X136317773Y-77045845D01*
X136316282Y-77029815D01*
X136314896Y-77012492D01*
X136313947Y-76997255D01*
X136313393Y-76982115D01*
X136313339Y-76976496D01*
X136313464Y-76957342D01*
X136313841Y-76936835D01*
X136314469Y-76914975D01*
X136315027Y-76899651D01*
X136315697Y-76883725D01*
X136316478Y-76867199D01*
X136317371Y-76850071D01*
X136318376Y-76832343D01*
X136319492Y-76814013D01*
X136320720Y-76795082D01*
X136322059Y-76775551D01*
X136323511Y-76755418D01*
X136325073Y-76734684D01*
X136326748Y-76713349D01*
X136327627Y-76702456D01*
X136329401Y-76680776D01*
X136331062Y-76659700D01*
X136332607Y-76639228D01*
X136334038Y-76619360D01*
X136335355Y-76600096D01*
X136336557Y-76581435D01*
X136337645Y-76563379D01*
X136338618Y-76545927D01*
X136339476Y-76529078D01*
X136340221Y-76512834D01*
X136340850Y-76497193D01*
X136341366Y-76482156D01*
X136341924Y-76460734D01*
X136342224Y-76440670D01*
X136342281Y-76428049D01*
X136342106Y-76413148D01*
X136341677Y-76398087D01*
X136340990Y-76380913D01*
X136340221Y-76364989D01*
X136339273Y-76347597D01*
X136338618Y-76336458D01*
X136337759Y-76321649D01*
X136336847Y-76304506D01*
X136336113Y-76288884D01*
X136335469Y-76272144D01*
X136335044Y-76255382D01*
X136334954Y-76245233D01*
X136335974Y-76227856D01*
X136339033Y-76211445D01*
X136344131Y-76195999D01*
X136351269Y-76181520D01*
X136360446Y-76168007D01*
X136371662Y-76155460D01*
X136376720Y-76150711D01*
X136390237Y-76139840D01*
X136404684Y-76130812D01*
X136420061Y-76123626D01*
X136436368Y-76118282D01*
X136453606Y-76114781D01*
X136471774Y-76113123D01*
X136479302Y-76112976D01*
X136495708Y-76113614D01*
X136511130Y-76115529D01*
X136525567Y-76118720D01*
X136545376Y-76125901D01*
X136562970Y-76135954D01*
X136578349Y-76148879D01*
X136591512Y-76164676D01*
X136602460Y-76183346D01*
X136608528Y-76197388D01*
X136613611Y-76212706D01*
X136617710Y-76229301D01*
X136620824Y-76247173D01*
X136622954Y-76266321D01*
X136623649Y-76276374D01*
X136624748Y-76287732D01*
X136643633Y-76269409D01*
X136662644Y-76252269D01*
X136681781Y-76236310D01*
X136701044Y-76221534D01*
X136720432Y-76207940D01*
X136739947Y-76195528D01*
X136759588Y-76184298D01*
X136779354Y-76174250D01*
X136799246Y-76165384D01*
X136819265Y-76157701D01*
X136839409Y-76151199D01*
X136859679Y-76145880D01*
X136880076Y-76141743D01*
X136900598Y-76138787D01*
X136921246Y-76137014D01*
X136942020Y-76136423D01*
X136965911Y-76137044D01*
X136988857Y-76138907D01*
X137010859Y-76142013D01*
X137031916Y-76146361D01*
X137052029Y-76151951D01*
X137071197Y-76158783D01*
X137089421Y-76166857D01*
X137106700Y-76176174D01*
X137123035Y-76186732D01*
X137138425Y-76198533D01*
X137152871Y-76211576D01*
X137166372Y-76225862D01*
X137178929Y-76241389D01*
X137190541Y-76258159D01*
X137201208Y-76276171D01*
X137210931Y-76295425D01*
X137216920Y-76309164D01*
X137222523Y-76323727D01*
X137227740Y-76339114D01*
X137232570Y-76355326D01*
X137237013Y-76372362D01*
X137241070Y-76390222D01*
X137244741Y-76408907D01*
X137248025Y-76428415D01*
X137250923Y-76448749D01*
X137253435Y-76469906D01*
X137255560Y-76491888D01*
X137257299Y-76514694D01*
X137258651Y-76538325D01*
X137259617Y-76562780D01*
X137260197Y-76588059D01*
X137260390Y-76614162D01*
X137260390Y-76685603D01*
X137260017Y-76702085D01*
X137259679Y-76718873D01*
X137259421Y-76734838D01*
X137259292Y-76749965D01*
X137259291Y-76751182D01*
X137259484Y-76766282D01*
X137260064Y-76782180D01*
X137261030Y-76798877D01*
X137262382Y-76816372D01*
X137264121Y-76834666D01*
X137266246Y-76853759D01*
X137268758Y-76873650D01*
X137271656Y-76894339D01*
X137274940Y-76915827D01*
X137277345Y-76930596D01*
X137279921Y-76945720D01*
X137281273Y-76953415D01*
X137283979Y-76968713D01*
X137286511Y-76983646D01*
X137288868Y-76998216D01*
X137292076Y-77019390D01*
X137294891Y-77039746D01*
X137297314Y-77059284D01*
X137299344Y-77078004D01*
X137300981Y-77095906D01*
X137302225Y-77112990D01*
X137303076Y-77129256D01*
X137303534Y-77144705D01*
X137303621Y-77154549D01*
X137302611Y-77171707D01*
X137299578Y-77187916D01*
X137294525Y-77203177D01*
X137287450Y-77217490D01*
X137278353Y-77230854D01*
X137267235Y-77243271D01*
X137262222Y-77247972D01*
X137248916Y-77258738D01*
X137234645Y-77267679D01*
X137219407Y-77274795D01*
X137203203Y-77280086D01*
X137186033Y-77283553D01*
X137167898Y-77285195D01*
X137160373Y-77285341D01*
G37*
G36*
X137972731Y-76137079D02*
G01*
X137997481Y-76139045D01*
X138021572Y-76142322D01*
X138045005Y-76146910D01*
X138067780Y-76152809D01*
X138089896Y-76160019D01*
X138111354Y-76168540D01*
X138132154Y-76178372D01*
X138152296Y-76189514D01*
X138171779Y-76201968D01*
X138190603Y-76215732D01*
X138208770Y-76230808D01*
X138226278Y-76247194D01*
X138243128Y-76264891D01*
X138259320Y-76283899D01*
X138274853Y-76304218D01*
X138288074Y-76323368D01*
X138300441Y-76343081D01*
X138311956Y-76363359D01*
X138322618Y-76384200D01*
X138332427Y-76405605D01*
X138341382Y-76427574D01*
X138349485Y-76450107D01*
X138356735Y-76473203D01*
X138363132Y-76496864D01*
X138368677Y-76521088D01*
X138373368Y-76545877D01*
X138377206Y-76571229D01*
X138380191Y-76597145D01*
X138382324Y-76623625D01*
X138383603Y-76650668D01*
X138384030Y-76678276D01*
X138383905Y-76693410D01*
X138383530Y-76708405D01*
X138382906Y-76723260D01*
X138382032Y-76737976D01*
X138379534Y-76766989D01*
X138376038Y-76795444D01*
X138371543Y-76823340D01*
X138366049Y-76850679D01*
X138359556Y-76877459D01*
X138352064Y-76903681D01*
X138343573Y-76929346D01*
X138334084Y-76954452D01*
X138323595Y-76978999D01*
X138312108Y-77002989D01*
X138299621Y-77026421D01*
X138286136Y-77049294D01*
X138271652Y-77071609D01*
X138256168Y-77093367D01*
X138247120Y-77105178D01*
X138237880Y-77116614D01*
X138218828Y-77138361D01*
X138199011Y-77158608D01*
X138178430Y-77177356D01*
X138157085Y-77194603D01*
X138134976Y-77210351D01*
X138112103Y-77224599D01*
X138088465Y-77237348D01*
X138064063Y-77248596D01*
X138038897Y-77258345D01*
X138012967Y-77266594D01*
X137986272Y-77273343D01*
X137958814Y-77278592D01*
X137930591Y-77282342D01*
X137901604Y-77284592D01*
X137886823Y-77285154D01*
X137871852Y-77285341D01*
X137848248Y-77284822D01*
X137825061Y-77283263D01*
X137802292Y-77280666D01*
X137779941Y-77277030D01*
X137758007Y-77272354D01*
X137736492Y-77266640D01*
X137715395Y-77259886D01*
X137694715Y-77252094D01*
X137674453Y-77243262D01*
X137654610Y-77233392D01*
X137635184Y-77222483D01*
X137616176Y-77210534D01*
X137597586Y-77197547D01*
X137579413Y-77183521D01*
X137561659Y-77168455D01*
X137544323Y-77152351D01*
X137526105Y-77133744D01*
X137509003Y-77114375D01*
X137493017Y-77094245D01*
X137478148Y-77073354D01*
X137464395Y-77051701D01*
X137451758Y-77029287D01*
X137440238Y-77006112D01*
X137429834Y-76982175D01*
X137420546Y-76957477D01*
X137412374Y-76932017D01*
X137405319Y-76905797D01*
X137399380Y-76878814D01*
X137394557Y-76851071D01*
X137390850Y-76822566D01*
X137388260Y-76793300D01*
X137387383Y-76778381D01*
X137386786Y-76763272D01*
X137386767Y-76761807D01*
X137672184Y-76761807D01*
X137672457Y-76777060D01*
X137673277Y-76791860D01*
X137675532Y-76813213D01*
X137679017Y-76833548D01*
X137683732Y-76852866D01*
X137689678Y-76871167D01*
X137696853Y-76888449D01*
X137705258Y-76904715D01*
X137714893Y-76919962D01*
X137725759Y-76934193D01*
X137737854Y-76947405D01*
X137742159Y-76951584D01*
X137756373Y-76963863D01*
X137771171Y-76974504D01*
X137786552Y-76983509D01*
X137802518Y-76990876D01*
X137819067Y-76996606D01*
X137836200Y-77000699D01*
X137853918Y-77003155D01*
X137872219Y-77003974D01*
X137888839Y-77003439D01*
X137905041Y-77001836D01*
X137920824Y-76999163D01*
X137936189Y-76995421D01*
X137951135Y-76990611D01*
X137965663Y-76984731D01*
X137979772Y-76977782D01*
X137993462Y-76969764D01*
X138006734Y-76960678D01*
X138019587Y-76950522D01*
X138027923Y-76943157D01*
X138041391Y-76929386D01*
X138053628Y-76914727D01*
X138064635Y-76899178D01*
X138074412Y-76882741D01*
X138082959Y-76865416D01*
X138090275Y-76847201D01*
X138096362Y-76828098D01*
X138101219Y-76808106D01*
X138104846Y-76787226D01*
X138107243Y-76765456D01*
X138108157Y-76750450D01*
X138108786Y-76730050D01*
X138109023Y-76710296D01*
X138108869Y-76691187D01*
X138108323Y-76672723D01*
X138107386Y-76654905D01*
X138106058Y-76637732D01*
X138104338Y-76621205D01*
X138102227Y-76605324D01*
X138099724Y-76590087D01*
X138096830Y-76575496D01*
X138089868Y-76548251D01*
X138081340Y-76523587D01*
X138071246Y-76501505D01*
X138059587Y-76482005D01*
X138046362Y-76465086D01*
X138031571Y-76450749D01*
X138015215Y-76438994D01*
X137997293Y-76429821D01*
X137977806Y-76423229D01*
X137956753Y-76419219D01*
X137934134Y-76417791D01*
X137918498Y-76418113D01*
X137903279Y-76419354D01*
X137888479Y-76421513D01*
X137874096Y-76424591D01*
X137853306Y-76430932D01*
X137833456Y-76439339D01*
X137814546Y-76449814D01*
X137796576Y-76462356D01*
X137785118Y-76471865D01*
X137774079Y-76482294D01*
X137763457Y-76493641D01*
X137753253Y-76505907D01*
X137743467Y-76519092D01*
X137734099Y-76533196D01*
X137723034Y-76551827D01*
X137713058Y-76571037D01*
X137704169Y-76590827D01*
X137696369Y-76611197D01*
X137689658Y-76632146D01*
X137685788Y-76646434D01*
X137682402Y-76660980D01*
X137679500Y-76675784D01*
X137677081Y-76690845D01*
X137675146Y-76706163D01*
X137673695Y-76721739D01*
X137672728Y-76737573D01*
X137672244Y-76753665D01*
X137672184Y-76761807D01*
X137386767Y-76761807D01*
X137386414Y-76734526D01*
X137387129Y-76706171D01*
X137388933Y-76678209D01*
X137391823Y-76650638D01*
X137395802Y-76623460D01*
X137400868Y-76596674D01*
X137407022Y-76570280D01*
X137414263Y-76544278D01*
X137422592Y-76518668D01*
X137432009Y-76493451D01*
X137442513Y-76468625D01*
X137454105Y-76444192D01*
X137466785Y-76420151D01*
X137480552Y-76396502D01*
X137495407Y-76373245D01*
X137511350Y-76350380D01*
X137521270Y-76337216D01*
X137531428Y-76324471D01*
X137541826Y-76312143D01*
X137552463Y-76300234D01*
X137563338Y-76288742D01*
X137574453Y-76277668D01*
X137585807Y-76267012D01*
X137597400Y-76256774D01*
X137609231Y-76246953D01*
X137621302Y-76237551D01*
X137633612Y-76228567D01*
X137646160Y-76220000D01*
X137658948Y-76211851D01*
X137671975Y-76204120D01*
X137685240Y-76196807D01*
X137698745Y-76189912D01*
X137712489Y-76183435D01*
X137726471Y-76177376D01*
X137740693Y-76171734D01*
X137755154Y-76166511D01*
X137769853Y-76161705D01*
X137784792Y-76157317D01*
X137799970Y-76153347D01*
X137815386Y-76149795D01*
X137831042Y-76146661D01*
X137846937Y-76143945D01*
X137863070Y-76141647D01*
X137879443Y-76139766D01*
X137896054Y-76138304D01*
X137912905Y-76137259D01*
X137929995Y-76136632D01*
X137947323Y-76136423D01*
X137972731Y-76137079D01*
G37*
G36*
X139414612Y-76489965D02*
G01*
X139412979Y-76509618D01*
X139410370Y-76528004D01*
X139406785Y-76545121D01*
X139402225Y-76560971D01*
X139396688Y-76575552D01*
X139390175Y-76588866D01*
X139378575Y-76606459D01*
X139364780Y-76621199D01*
X139348788Y-76633086D01*
X139330600Y-76642120D01*
X139310217Y-76648302D01*
X139295407Y-76650838D01*
X139279622Y-76652105D01*
X139271364Y-76652264D01*
X139255614Y-76651749D01*
X139240881Y-76650203D01*
X139220686Y-76645953D01*
X139202778Y-76639384D01*
X139187155Y-76630497D01*
X139173819Y-76619291D01*
X139162769Y-76605767D01*
X139154006Y-76589925D01*
X139147528Y-76571764D01*
X139143337Y-76551285D01*
X139141812Y-76536344D01*
X139141304Y-76520373D01*
X139136175Y-76417791D01*
X139107746Y-76422903D01*
X139080345Y-76429263D01*
X139053971Y-76436870D01*
X139028625Y-76445726D01*
X139004306Y-76455830D01*
X138981014Y-76467181D01*
X138958751Y-76479781D01*
X138937514Y-76493628D01*
X138917306Y-76508724D01*
X138898124Y-76525067D01*
X138879971Y-76542658D01*
X138862845Y-76561497D01*
X138846746Y-76581584D01*
X138831675Y-76602919D01*
X138817632Y-76625502D01*
X138804616Y-76649333D01*
X138805715Y-77153084D01*
X138804731Y-77170461D01*
X138801779Y-77186872D01*
X138796860Y-77202318D01*
X138789973Y-77216797D01*
X138781118Y-77230310D01*
X138770295Y-77242857D01*
X138765415Y-77247606D01*
X138752293Y-77258477D01*
X138738116Y-77267506D01*
X138722884Y-77274691D01*
X138706596Y-77280035D01*
X138689253Y-77283536D01*
X138674618Y-77285010D01*
X138663199Y-77285341D01*
X138647709Y-77284706D01*
X138633111Y-77282800D01*
X138616121Y-77278630D01*
X138600525Y-77272474D01*
X138586325Y-77264333D01*
X138573520Y-77254206D01*
X138564281Y-77244675D01*
X138554782Y-77232620D01*
X138546893Y-77219580D01*
X138540614Y-77205557D01*
X138535945Y-77190550D01*
X138532886Y-77174560D01*
X138531437Y-77157585D01*
X138531308Y-77150519D01*
X138531308Y-76482271D01*
X138531396Y-76466996D01*
X138531610Y-76451532D01*
X138531954Y-76433878D01*
X138532338Y-76417493D01*
X138532812Y-76399588D01*
X138533140Y-76388115D01*
X138533655Y-76372854D01*
X138534202Y-76355162D01*
X138534642Y-76339008D01*
X138535029Y-76321655D01*
X138535261Y-76306516D01*
X138535338Y-76293593D01*
X138536179Y-76276198D01*
X138538701Y-76259733D01*
X138542905Y-76244199D01*
X138548790Y-76229594D01*
X138556357Y-76215920D01*
X138565606Y-76203176D01*
X138569776Y-76198339D01*
X138581359Y-76187256D01*
X138594356Y-76178053D01*
X138608765Y-76170727D01*
X138624588Y-76165280D01*
X138641824Y-76161711D01*
X138656630Y-76160209D01*
X138668328Y-76159870D01*
X138689011Y-76160904D01*
X138708059Y-76164005D01*
X138725470Y-76169173D01*
X138741246Y-76176408D01*
X138755386Y-76185711D01*
X138767891Y-76197081D01*
X138778759Y-76210518D01*
X138787992Y-76226022D01*
X138795589Y-76243594D01*
X138801550Y-76263232D01*
X138804616Y-76277473D01*
X138827578Y-76260393D01*
X138850852Y-76244415D01*
X138874438Y-76229538D01*
X138898336Y-76215764D01*
X138922546Y-76203091D01*
X138947068Y-76191521D01*
X138971902Y-76181052D01*
X138997049Y-76171686D01*
X139022507Y-76163421D01*
X139048277Y-76156258D01*
X139074359Y-76150198D01*
X139100753Y-76145239D01*
X139127458Y-76141382D01*
X139154476Y-76138627D01*
X139181806Y-76136974D01*
X139209448Y-76136423D01*
X139234425Y-76137526D01*
X139257791Y-76140837D01*
X139279545Y-76146354D01*
X139299688Y-76154077D01*
X139318220Y-76164008D01*
X139335140Y-76176145D01*
X139350448Y-76190489D01*
X139364146Y-76207040D01*
X139376231Y-76225797D01*
X139386706Y-76246762D01*
X139395568Y-76269933D01*
X139402820Y-76295311D01*
X139408460Y-76322895D01*
X139410676Y-76337515D01*
X139412488Y-76352687D01*
X139413898Y-76368410D01*
X139414906Y-76384685D01*
X139415510Y-76401512D01*
X139415711Y-76418890D01*
X139415684Y-76434825D01*
X139415581Y-76451587D01*
X139415364Y-76467885D01*
X139414929Y-76483689D01*
X139414612Y-76489965D01*
G37*
G36*
X140072821Y-76136674D02*
G01*
X140094544Y-76137425D01*
X140115789Y-76138677D01*
X140136556Y-76140430D01*
X140156845Y-76142684D01*
X140176656Y-76145439D01*
X140195988Y-76148695D01*
X140214843Y-76152452D01*
X140233220Y-76156709D01*
X140251119Y-76161468D01*
X140268540Y-76166727D01*
X140285483Y-76172487D01*
X140301948Y-76178748D01*
X140317935Y-76185510D01*
X140333444Y-76192773D01*
X140348475Y-76200537D01*
X140367330Y-76211482D01*
X140384968Y-76223160D01*
X140401390Y-76235570D01*
X140416596Y-76248714D01*
X140430585Y-76262590D01*
X140443357Y-76277199D01*
X140454914Y-76292540D01*
X140465253Y-76308614D01*
X140474377Y-76325421D01*
X140482284Y-76342961D01*
X140488974Y-76361233D01*
X140494448Y-76380239D01*
X140498706Y-76399976D01*
X140501747Y-76420447D01*
X140503571Y-76441650D01*
X140504180Y-76463586D01*
X140503065Y-76484519D01*
X140499723Y-76505000D01*
X140494152Y-76525030D01*
X140486354Y-76544610D01*
X140476327Y-76563739D01*
X140468404Y-76576241D01*
X140459491Y-76588543D01*
X140449588Y-76600645D01*
X140438694Y-76612546D01*
X140426810Y-76624246D01*
X140413936Y-76635747D01*
X140400071Y-76647047D01*
X140385216Y-76658147D01*
X140377418Y-76663621D01*
X140361131Y-76674269D01*
X140346535Y-76683006D01*
X140329897Y-76692387D01*
X140311218Y-76702412D01*
X140297631Y-76709453D01*
X140283137Y-76716780D01*
X140267735Y-76724393D01*
X140251426Y-76732293D01*
X140234210Y-76740479D01*
X140216087Y-76748951D01*
X140197056Y-76757710D01*
X140177117Y-76766754D01*
X140156272Y-76776085D01*
X140145509Y-76780858D01*
X139798196Y-76933632D01*
X139814152Y-76940673D01*
X139831111Y-76947141D01*
X139845399Y-76951904D01*
X139860329Y-76956301D01*
X139875899Y-76960331D01*
X139892111Y-76963994D01*
X139908964Y-76967291D01*
X139917630Y-76968803D01*
X139935531Y-76971550D01*
X139954061Y-76973932D01*
X139973220Y-76975947D01*
X139988003Y-76977218D01*
X140003141Y-76978282D01*
X140018632Y-76979141D01*
X140034478Y-76979794D01*
X140050677Y-76980240D01*
X140067231Y-76980481D01*
X140078464Y-76980526D01*
X140095563Y-76980285D01*
X140112330Y-76979559D01*
X140128765Y-76978350D01*
X140144868Y-76976657D01*
X140160639Y-76974480D01*
X140176077Y-76971819D01*
X140191184Y-76968675D01*
X140205959Y-76965047D01*
X140220402Y-76960936D01*
X140234513Y-76956341D01*
X140248291Y-76951262D01*
X140268337Y-76942736D01*
X140287635Y-76933122D01*
X140306187Y-76922420D01*
X140312205Y-76918611D01*
X140327979Y-76908724D01*
X140343155Y-76899810D01*
X140357732Y-76891869D01*
X140371710Y-76884900D01*
X140385089Y-76878903D01*
X140401996Y-76872420D01*
X140417839Y-76867666D01*
X140432617Y-76864640D01*
X140449591Y-76863290D01*
X140468709Y-76864311D01*
X140485947Y-76867373D01*
X140501304Y-76872476D01*
X140514781Y-76879622D01*
X140526377Y-76888808D01*
X140536093Y-76900036D01*
X140543929Y-76913306D01*
X140549883Y-76928617D01*
X140553958Y-76945970D01*
X140556152Y-76965364D01*
X140556570Y-76979427D01*
X140555897Y-76995589D01*
X140553879Y-77011375D01*
X140550516Y-77026787D01*
X140545808Y-77041824D01*
X140539754Y-77056485D01*
X140532355Y-77070772D01*
X140523611Y-77084684D01*
X140513522Y-77098221D01*
X140502087Y-77111383D01*
X140489307Y-77124170D01*
X140475182Y-77136582D01*
X140459712Y-77148619D01*
X140442897Y-77160281D01*
X140424736Y-77171568D01*
X140405230Y-77182480D01*
X140384378Y-77193018D01*
X140366311Y-77201358D01*
X140348103Y-77209161D01*
X140329754Y-77216425D01*
X140311266Y-77223151D01*
X140292637Y-77229339D01*
X140273868Y-77234989D01*
X140254959Y-77240101D01*
X140235909Y-77244675D01*
X140216720Y-77248711D01*
X140197390Y-77252208D01*
X140177919Y-77255168D01*
X140158309Y-77257589D01*
X140138558Y-77259473D01*
X140118667Y-77260818D01*
X140098636Y-77261625D01*
X140078464Y-77261894D01*
X140063164Y-77261779D01*
X140048039Y-77261435D01*
X140033088Y-77260861D01*
X140018312Y-77260057D01*
X139989283Y-77257760D01*
X139960953Y-77254544D01*
X139933321Y-77250409D01*
X139906388Y-77245356D01*
X139880152Y-77239384D01*
X139854616Y-77232493D01*
X139829777Y-77224684D01*
X139805637Y-77215955D01*
X139782196Y-77206308D01*
X139759453Y-77195742D01*
X139737408Y-77184258D01*
X139716061Y-77171854D01*
X139695413Y-77158532D01*
X139675464Y-77144291D01*
X139654524Y-77127619D01*
X139634935Y-77110116D01*
X139616696Y-77091784D01*
X139599809Y-77072621D01*
X139584273Y-77052629D01*
X139570088Y-77031806D01*
X139557254Y-77010153D01*
X139545771Y-76987670D01*
X139535638Y-76964358D01*
X139526857Y-76940215D01*
X139519427Y-76915242D01*
X139513347Y-76889439D01*
X139508619Y-76862806D01*
X139505242Y-76835343D01*
X139503215Y-76807050D01*
X139502540Y-76777927D01*
X139502673Y-76761702D01*
X139503075Y-76745634D01*
X139503744Y-76729722D01*
X139504681Y-76713968D01*
X139505885Y-76698370D01*
X139507357Y-76682928D01*
X139508178Y-76675711D01*
X139777679Y-76675711D01*
X139792238Y-76669350D01*
X139806788Y-76662997D01*
X139821329Y-76656653D01*
X139835862Y-76650318D01*
X139850387Y-76643991D01*
X139864903Y-76637672D01*
X139879410Y-76631363D01*
X139893908Y-76625061D01*
X139908398Y-76618769D01*
X139922880Y-76612485D01*
X139937352Y-76606209D01*
X139951817Y-76599943D01*
X139966272Y-76593684D01*
X139980719Y-76587435D01*
X139995158Y-76581194D01*
X140009588Y-76574961D01*
X140026768Y-76567074D01*
X140043505Y-76559259D01*
X140059798Y-76551515D01*
X140075648Y-76543843D01*
X140091054Y-76536242D01*
X140106016Y-76528713D01*
X140120535Y-76521256D01*
X140134610Y-76513870D01*
X140148241Y-76506555D01*
X140161429Y-76499313D01*
X140180378Y-76488583D01*
X140198330Y-76478013D01*
X140215283Y-76467605D01*
X140231238Y-76457358D01*
X140217888Y-76450287D01*
X140203804Y-76443911D01*
X140188985Y-76438231D01*
X140173433Y-76433247D01*
X140157146Y-76428958D01*
X140140125Y-76425364D01*
X140122370Y-76422466D01*
X140103881Y-76420264D01*
X140084657Y-76418757D01*
X140064700Y-76417945D01*
X140050987Y-76417791D01*
X140033234Y-76418358D01*
X140015971Y-76420058D01*
X139999196Y-76422891D01*
X139982912Y-76426858D01*
X139967117Y-76431959D01*
X139951811Y-76438193D01*
X139936995Y-76445560D01*
X139922668Y-76454061D01*
X139908830Y-76463695D01*
X139895482Y-76474463D01*
X139886856Y-76482271D01*
X139874379Y-76494928D01*
X139862367Y-76508718D01*
X139850818Y-76523641D01*
X139839732Y-76539699D01*
X139829110Y-76556889D01*
X139818952Y-76575213D01*
X139809258Y-76594670D01*
X139803053Y-76608272D01*
X139797054Y-76622377D01*
X139791260Y-76636985D01*
X139785673Y-76652098D01*
X139780292Y-76667714D01*
X139777679Y-76675711D01*
X139508178Y-76675711D01*
X139509096Y-76667644D01*
X139511103Y-76652516D01*
X139513378Y-76637545D01*
X139515921Y-76622730D01*
X139518730Y-76608072D01*
X139521808Y-76593571D01*
X139525153Y-76579227D01*
X139532647Y-76551008D01*
X139541210Y-76523416D01*
X139550845Y-76496451D01*
X139561549Y-76470113D01*
X139573324Y-76444402D01*
X139586170Y-76419317D01*
X139600086Y-76394860D01*
X139615073Y-76371029D01*
X139631130Y-76347825D01*
X139639560Y-76336458D01*
X139649189Y-76324151D01*
X139659026Y-76312235D01*
X139669070Y-76300710D01*
X139679322Y-76289575D01*
X139689781Y-76278831D01*
X139700448Y-76268477D01*
X139711322Y-76258515D01*
X139733693Y-76239761D01*
X139756894Y-76222571D01*
X139780926Y-76206943D01*
X139805787Y-76192878D01*
X139831478Y-76180376D01*
X139858000Y-76169437D01*
X139885351Y-76160060D01*
X139913532Y-76152246D01*
X139927934Y-76148925D01*
X139942544Y-76145995D01*
X139957361Y-76143456D01*
X139972385Y-76141307D01*
X139987617Y-76139549D01*
X140003057Y-76138181D01*
X140018704Y-76137204D01*
X140034559Y-76136618D01*
X140050621Y-76136423D01*
X140072821Y-76136674D01*
G37*
G36*
X142156701Y-76136674D02*
G01*
X142178424Y-76137425D01*
X142199669Y-76138677D01*
X142220436Y-76140430D01*
X142240725Y-76142684D01*
X142260536Y-76145439D01*
X142279868Y-76148695D01*
X142298723Y-76152452D01*
X142317100Y-76156709D01*
X142334999Y-76161468D01*
X142352420Y-76166727D01*
X142369363Y-76172487D01*
X142385828Y-76178748D01*
X142401815Y-76185510D01*
X142417324Y-76192773D01*
X142432355Y-76200537D01*
X142451210Y-76211482D01*
X142468848Y-76223160D01*
X142485270Y-76235570D01*
X142500476Y-76248714D01*
X142514465Y-76262590D01*
X142527237Y-76277199D01*
X142538794Y-76292540D01*
X142549133Y-76308614D01*
X142558257Y-76325421D01*
X142566164Y-76342961D01*
X142572854Y-76361233D01*
X142578328Y-76380239D01*
X142582586Y-76399976D01*
X142585627Y-76420447D01*
X142587451Y-76441650D01*
X142588060Y-76463586D01*
X142586945Y-76484519D01*
X142583603Y-76505000D01*
X142578032Y-76525030D01*
X142570234Y-76544610D01*
X142560207Y-76563739D01*
X142552284Y-76576241D01*
X142543371Y-76588543D01*
X142533468Y-76600645D01*
X142522574Y-76612546D01*
X142510690Y-76624246D01*
X142497816Y-76635747D01*
X142483951Y-76647047D01*
X142469096Y-76658147D01*
X142461297Y-76663621D01*
X142445011Y-76674269D01*
X142430415Y-76683006D01*
X142413777Y-76692387D01*
X142395098Y-76702412D01*
X142381511Y-76709453D01*
X142367017Y-76716780D01*
X142351615Y-76724393D01*
X142335306Y-76732293D01*
X142318090Y-76740479D01*
X142299967Y-76748951D01*
X142280936Y-76757710D01*
X142260997Y-76766754D01*
X142240152Y-76776085D01*
X142229389Y-76780858D01*
X141882076Y-76933632D01*
X141898032Y-76940673D01*
X141914991Y-76947141D01*
X141929279Y-76951904D01*
X141944209Y-76956301D01*
X141959779Y-76960331D01*
X141975991Y-76963994D01*
X141992844Y-76967291D01*
X142001510Y-76968803D01*
X142019411Y-76971550D01*
X142037941Y-76973932D01*
X142057100Y-76975947D01*
X142071883Y-76977218D01*
X142087021Y-76978282D01*
X142102512Y-76979141D01*
X142118358Y-76979794D01*
X142134557Y-76980240D01*
X142151111Y-76980481D01*
X142162344Y-76980526D01*
X142179443Y-76980285D01*
X142196210Y-76979559D01*
X142212645Y-76978350D01*
X142228748Y-76976657D01*
X142244519Y-76974480D01*
X142259957Y-76971819D01*
X142275064Y-76968675D01*
X142289839Y-76965047D01*
X142304282Y-76960936D01*
X142318393Y-76956341D01*
X142332171Y-76951262D01*
X142352217Y-76942736D01*
X142371515Y-76933122D01*
X142390067Y-76922420D01*
X142396085Y-76918611D01*
X142411859Y-76908724D01*
X142427035Y-76899810D01*
X142441612Y-76891869D01*
X142455590Y-76884900D01*
X142468969Y-76878903D01*
X142485876Y-76872420D01*
X142501719Y-76867666D01*
X142516496Y-76864640D01*
X142533471Y-76863290D01*
X142552589Y-76864311D01*
X142569827Y-76867373D01*
X142585184Y-76872476D01*
X142598661Y-76879622D01*
X142610257Y-76888808D01*
X142619973Y-76900036D01*
X142627809Y-76913306D01*
X142633763Y-76928617D01*
X142637838Y-76945970D01*
X142640032Y-76965364D01*
X142640450Y-76979427D01*
X142639777Y-76995589D01*
X142637759Y-77011375D01*
X142634396Y-77026787D01*
X142629688Y-77041824D01*
X142623634Y-77056485D01*
X142616235Y-77070772D01*
X142607491Y-77084684D01*
X142597402Y-77098221D01*
X142585967Y-77111383D01*
X142573187Y-77124170D01*
X142559062Y-77136582D01*
X142543592Y-77148619D01*
X142526777Y-77160281D01*
X142508616Y-77171568D01*
X142489110Y-77182480D01*
X142468258Y-77193018D01*
X142450191Y-77201358D01*
X142431983Y-77209161D01*
X142413634Y-77216425D01*
X142395146Y-77223151D01*
X142376517Y-77229339D01*
X142357748Y-77234989D01*
X142338839Y-77240101D01*
X142319789Y-77244675D01*
X142300600Y-77248711D01*
X142281270Y-77252208D01*
X142261799Y-77255168D01*
X142242189Y-77257589D01*
X142222438Y-77259473D01*
X142202547Y-77260818D01*
X142182516Y-77261625D01*
X142162344Y-77261894D01*
X142147044Y-77261779D01*
X142131919Y-77261435D01*
X142116968Y-77260861D01*
X142102192Y-77260057D01*
X142073163Y-77257760D01*
X142044833Y-77254544D01*
X142017201Y-77250409D01*
X141990268Y-77245356D01*
X141964032Y-77239384D01*
X141938496Y-77232493D01*
X141913657Y-77224684D01*
X141889517Y-77215955D01*
X141866076Y-77206308D01*
X141843333Y-77195742D01*
X141821288Y-77184258D01*
X141799941Y-77171854D01*
X141779293Y-77158532D01*
X141759344Y-77144291D01*
X141738404Y-77127619D01*
X141718814Y-77110116D01*
X141700576Y-77091784D01*
X141683689Y-77072621D01*
X141668153Y-77052629D01*
X141653968Y-77031806D01*
X141641134Y-77010153D01*
X141629651Y-76987670D01*
X141619518Y-76964358D01*
X141610737Y-76940215D01*
X141603307Y-76915242D01*
X141597227Y-76889439D01*
X141592499Y-76862806D01*
X141589122Y-76835343D01*
X141587095Y-76807050D01*
X141586420Y-76777927D01*
X141586553Y-76761702D01*
X141586955Y-76745634D01*
X141587624Y-76729722D01*
X141588561Y-76713968D01*
X141589765Y-76698370D01*
X141591237Y-76682928D01*
X141592058Y-76675711D01*
X141861559Y-76675711D01*
X141876118Y-76669350D01*
X141890668Y-76662997D01*
X141905209Y-76656653D01*
X141919742Y-76650318D01*
X141934267Y-76643991D01*
X141948782Y-76637672D01*
X141963290Y-76631363D01*
X141977788Y-76625061D01*
X141992278Y-76618769D01*
X142006760Y-76612485D01*
X142021232Y-76606209D01*
X142035697Y-76599943D01*
X142050152Y-76593684D01*
X142064599Y-76587435D01*
X142079038Y-76581194D01*
X142093468Y-76574961D01*
X142110648Y-76567074D01*
X142127385Y-76559259D01*
X142143678Y-76551515D01*
X142159528Y-76543843D01*
X142174934Y-76536242D01*
X142189896Y-76528713D01*
X142204415Y-76521256D01*
X142218490Y-76513870D01*
X142232121Y-76506555D01*
X142245309Y-76499313D01*
X142264258Y-76488583D01*
X142282210Y-76478013D01*
X142299163Y-76467605D01*
X142315118Y-76457358D01*
X142301768Y-76450287D01*
X142287684Y-76443911D01*
X142272865Y-76438231D01*
X142257313Y-76433247D01*
X142241026Y-76428958D01*
X142224005Y-76425364D01*
X142206250Y-76422466D01*
X142187761Y-76420264D01*
X142168537Y-76418757D01*
X142148580Y-76417945D01*
X142134867Y-76417791D01*
X142117114Y-76418358D01*
X142099851Y-76420058D01*
X142083076Y-76422891D01*
X142066792Y-76426858D01*
X142050997Y-76431959D01*
X142035691Y-76438193D01*
X142020875Y-76445560D01*
X142006548Y-76454061D01*
X141992710Y-76463695D01*
X141979362Y-76474463D01*
X141970736Y-76482271D01*
X141958259Y-76494928D01*
X141946247Y-76508718D01*
X141934697Y-76523641D01*
X141923612Y-76539699D01*
X141912990Y-76556889D01*
X141902832Y-76575213D01*
X141893138Y-76594670D01*
X141886933Y-76608272D01*
X141880934Y-76622377D01*
X141875140Y-76636985D01*
X141869553Y-76652098D01*
X141864172Y-76667714D01*
X141861559Y-76675711D01*
X141592058Y-76675711D01*
X141592976Y-76667644D01*
X141594983Y-76652516D01*
X141597258Y-76637545D01*
X141599800Y-76622730D01*
X141602610Y-76608072D01*
X141605688Y-76593571D01*
X141609033Y-76579227D01*
X141616527Y-76551008D01*
X141625090Y-76523416D01*
X141634725Y-76496451D01*
X141645429Y-76470113D01*
X141657204Y-76444402D01*
X141670050Y-76419317D01*
X141683966Y-76394860D01*
X141698953Y-76371029D01*
X141715010Y-76347825D01*
X141723440Y-76336458D01*
X141733069Y-76324151D01*
X141742906Y-76312235D01*
X141752950Y-76300710D01*
X141763202Y-76289575D01*
X141773661Y-76278831D01*
X141784328Y-76268477D01*
X141795202Y-76258515D01*
X141817573Y-76239761D01*
X141840774Y-76222571D01*
X141864806Y-76206943D01*
X141889667Y-76192878D01*
X141915358Y-76180376D01*
X141941880Y-76169437D01*
X141969231Y-76160060D01*
X141997412Y-76152246D01*
X142011814Y-76148925D01*
X142026424Y-76145995D01*
X142041241Y-76143456D01*
X142056265Y-76141307D01*
X142071497Y-76139549D01*
X142086937Y-76138181D01*
X142102584Y-76137204D01*
X142118438Y-76136618D01*
X142134501Y-76136423D01*
X142156701Y-76136674D01*
G37*
G36*
X143544637Y-76412662D02*
G01*
X143528824Y-76412489D01*
X143512795Y-76412031D01*
X143497024Y-76411374D01*
X143493346Y-76411196D01*
X143477468Y-76410488D01*
X143462807Y-76410011D01*
X143447945Y-76409754D01*
X143442421Y-76409731D01*
X143426145Y-76410014D01*
X143408916Y-76410864D01*
X143393830Y-76412006D01*
X143378083Y-76413540D01*
X143361673Y-76415469D01*
X143344602Y-76417791D01*
X143345729Y-76442864D01*
X143346820Y-76467389D01*
X143347875Y-76491365D01*
X143348895Y-76514792D01*
X143349879Y-76537670D01*
X143350827Y-76559999D01*
X143351739Y-76581779D01*
X143352616Y-76603011D01*
X143353457Y-76623694D01*
X143354262Y-76643828D01*
X143355031Y-76663413D01*
X143355764Y-76682449D01*
X143356462Y-76700936D01*
X143357124Y-76718875D01*
X143357750Y-76736265D01*
X143358340Y-76753106D01*
X143358895Y-76769398D01*
X143359414Y-76785141D01*
X143359897Y-76800336D01*
X143360755Y-76829078D01*
X143361471Y-76855625D01*
X143362043Y-76879977D01*
X143362473Y-76902133D01*
X143362759Y-76922094D01*
X143362902Y-76939860D01*
X143362920Y-76947920D01*
X143363130Y-76963738D01*
X143363488Y-76978424D01*
X143363951Y-76994447D01*
X143364019Y-76996646D01*
X143364447Y-77011563D01*
X143364808Y-77027065D01*
X143365049Y-77042534D01*
X143365118Y-77054532D01*
X143364534Y-77082482D01*
X143362783Y-77108628D01*
X143359863Y-77132971D01*
X143355776Y-77155511D01*
X143350521Y-77176248D01*
X143344098Y-77195181D01*
X143336507Y-77212312D01*
X143327749Y-77227639D01*
X143317823Y-77241163D01*
X143306729Y-77252884D01*
X143294467Y-77262801D01*
X143281038Y-77270916D01*
X143266440Y-77277227D01*
X143250675Y-77281735D01*
X143233742Y-77284440D01*
X143215642Y-77285341D01*
X143198280Y-77284501D01*
X143181688Y-77281978D01*
X143165866Y-77277774D01*
X143150812Y-77271889D01*
X143136528Y-77264322D01*
X143123013Y-77255073D01*
X143117822Y-77250903D01*
X143104735Y-77239122D01*
X143093865Y-77226446D01*
X143085214Y-77212875D01*
X143078782Y-77198410D01*
X143074567Y-77183051D01*
X143072571Y-77166797D01*
X143072393Y-77160045D01*
X143072496Y-77145044D01*
X143072805Y-77127519D01*
X143073220Y-77110986D01*
X143073778Y-77092700D01*
X143074328Y-77076809D01*
X143074969Y-77059796D01*
X143075324Y-77050868D01*
X143076097Y-77033214D01*
X143076767Y-77016705D01*
X143077333Y-77001340D01*
X143077897Y-76983745D01*
X143078299Y-76967938D01*
X143078570Y-76951332D01*
X143078621Y-76941692D01*
X143078550Y-76925306D01*
X143078335Y-76906738D01*
X143077977Y-76885990D01*
X143077476Y-76863061D01*
X143076832Y-76837951D01*
X143076045Y-76810659D01*
X143075115Y-76781187D01*
X143074596Y-76765633D01*
X143074042Y-76749534D01*
X143073451Y-76732889D01*
X143072825Y-76715699D01*
X143072163Y-76697964D01*
X143071466Y-76679684D01*
X143070732Y-76660859D01*
X143069963Y-76641488D01*
X143069158Y-76621572D01*
X143068317Y-76601110D01*
X143067441Y-76580104D01*
X143066528Y-76558552D01*
X143065580Y-76536455D01*
X143064596Y-76513813D01*
X143063577Y-76490625D01*
X143062521Y-76466892D01*
X143061430Y-76442614D01*
X143060303Y-76417791D01*
X143043256Y-76416789D01*
X143024170Y-76415432D01*
X143008519Y-76414182D01*
X142991721Y-76412732D01*
X142973777Y-76411082D01*
X142954687Y-76409233D01*
X142934450Y-76407184D01*
X142913068Y-76404935D01*
X142898175Y-76403325D01*
X142882774Y-76401626D01*
X142866863Y-76399839D01*
X142851202Y-76397571D01*
X142836552Y-76394429D01*
X142816471Y-76388081D01*
X142798663Y-76379768D01*
X142783129Y-76369491D01*
X142769868Y-76357249D01*
X142758880Y-76343044D01*
X142750166Y-76326874D01*
X142743725Y-76308740D01*
X142739557Y-76288642D01*
X142737662Y-76266579D01*
X142737536Y-76258789D01*
X142738149Y-76243871D01*
X142740637Y-76226028D01*
X142745039Y-76209081D01*
X142751356Y-76193027D01*
X142759587Y-76177868D01*
X142769731Y-76163603D01*
X142776737Y-76155474D01*
X142789542Y-76143231D01*
X142803456Y-76133063D01*
X142818479Y-76124970D01*
X142834611Y-76118952D01*
X142851853Y-76115009D01*
X142866444Y-76113349D01*
X142877854Y-76112976D01*
X142895619Y-76113800D01*
X142911327Y-76115266D01*
X142930126Y-76117464D01*
X142946254Y-76119593D01*
X142964121Y-76122135D01*
X142983726Y-76125089D01*
X143005071Y-76128455D01*
X143020266Y-76130928D01*
X143036235Y-76133584D01*
X143052976Y-76136423D01*
X143052355Y-76119573D01*
X143051599Y-76101782D01*
X143050812Y-76084594D01*
X143050079Y-76069298D01*
X143049255Y-76052629D01*
X143048339Y-76034585D01*
X143047847Y-76025048D01*
X143046902Y-76008762D01*
X143046084Y-75993427D01*
X143045237Y-75975593D01*
X143044588Y-75959244D01*
X143044135Y-75944381D01*
X143043852Y-75928504D01*
X143043817Y-75921367D01*
X143044845Y-75903427D01*
X143047931Y-75886470D01*
X143053074Y-75870497D01*
X143060274Y-75855508D01*
X143069532Y-75841502D01*
X143080847Y-75828481D01*
X143085949Y-75823548D01*
X143099650Y-75812360D01*
X143114192Y-75803069D01*
X143129574Y-75795674D01*
X143145798Y-75790175D01*
X143162862Y-75786572D01*
X143180767Y-75784865D01*
X143188164Y-75784713D01*
X143206620Y-75785747D01*
X143223885Y-75788846D01*
X143239959Y-75794013D01*
X143254842Y-75801246D01*
X143268535Y-75810545D01*
X143281038Y-75821911D01*
X143292349Y-75835343D01*
X143302470Y-75850842D01*
X143311400Y-75868408D01*
X143319139Y-75888040D01*
X143325688Y-75909738D01*
X143331046Y-75933503D01*
X143335214Y-75959335D01*
X143338190Y-75987233D01*
X143339232Y-76001957D01*
X143339976Y-76017197D01*
X143340423Y-76032955D01*
X143340572Y-76049228D01*
X143338374Y-76136423D01*
X143353944Y-76136423D01*
X143368782Y-76136423D01*
X143386299Y-76136423D01*
X143402670Y-76136423D01*
X143417897Y-76136423D01*
X143434659Y-76136423D01*
X143442421Y-76136423D01*
X143464014Y-76136558D01*
X143484281Y-76136964D01*
X143503221Y-76137640D01*
X143520834Y-76138587D01*
X143537121Y-76139804D01*
X143552081Y-76141292D01*
X143569964Y-76143696D01*
X143585489Y-76146581D01*
X143601578Y-76150864D01*
X143604354Y-76151810D01*
X143619085Y-76157764D01*
X143632368Y-76164909D01*
X143647824Y-76176290D01*
X143660704Y-76189788D01*
X143671008Y-76205404D01*
X143678736Y-76223138D01*
X143682841Y-76237829D01*
X143685498Y-76253711D01*
X143686705Y-76270785D01*
X143686786Y-76276741D01*
X143685802Y-76294470D01*
X143682850Y-76311252D01*
X143677931Y-76327085D01*
X143671044Y-76341971D01*
X143662189Y-76355908D01*
X143651366Y-76368897D01*
X143646486Y-76373827D01*
X143633470Y-76385015D01*
X143619381Y-76394306D01*
X143604218Y-76401702D01*
X143587982Y-76407201D01*
X143570673Y-76410803D01*
X143556053Y-76412320D01*
X143544637Y-76412662D01*
G37*
G36*
X145137080Y-75621076D02*
G01*
X145162026Y-75622557D01*
X145186780Y-75625026D01*
X145211342Y-75628482D01*
X145235713Y-75632926D01*
X145259891Y-75638357D01*
X145283878Y-75644775D01*
X145307673Y-75652181D01*
X145331276Y-75660575D01*
X145354688Y-75669956D01*
X145377908Y-75680324D01*
X145400936Y-75691680D01*
X145423772Y-75704023D01*
X145446416Y-75717354D01*
X145468869Y-75731672D01*
X145491130Y-75746978D01*
X145503234Y-75755877D01*
X145514954Y-75764895D01*
X145537240Y-75783294D01*
X145557990Y-75802173D01*
X145577203Y-75821533D01*
X145594878Y-75841374D01*
X145611017Y-75861696D01*
X145625619Y-75882498D01*
X145638683Y-75903782D01*
X145650211Y-75925546D01*
X145660201Y-75947791D01*
X145668655Y-75970517D01*
X145675572Y-75993724D01*
X145680951Y-76017412D01*
X145684794Y-76041581D01*
X145687099Y-76066230D01*
X145687868Y-76091360D01*
X145687663Y-76107173D01*
X145687050Y-76122782D01*
X145686029Y-76138188D01*
X145684599Y-76153390D01*
X145682760Y-76168390D01*
X145680513Y-76183186D01*
X145677857Y-76197779D01*
X145674793Y-76212169D01*
X145667439Y-76240339D01*
X145658450Y-76267696D01*
X145647827Y-76294240D01*
X145635569Y-76319972D01*
X145621677Y-76344890D01*
X145606151Y-76368996D01*
X145588991Y-76392288D01*
X145570196Y-76414768D01*
X145560186Y-76425703D01*
X145549767Y-76436435D01*
X145538939Y-76446964D01*
X145527703Y-76457289D01*
X145516059Y-76467412D01*
X145504006Y-76477331D01*
X145491544Y-76487047D01*
X145478674Y-76496559D01*
X145455222Y-76512575D01*
X145431212Y-76527557D01*
X145406644Y-76541506D01*
X145381518Y-76554422D01*
X145355834Y-76566304D01*
X145329592Y-76577154D01*
X145302792Y-76586970D01*
X145275433Y-76595752D01*
X145247516Y-76603502D01*
X145219042Y-76610218D01*
X145204595Y-76613189D01*
X145190009Y-76615901D01*
X145175283Y-76618355D01*
X145160418Y-76620551D01*
X145145413Y-76622488D01*
X145130268Y-76624167D01*
X145114984Y-76625588D01*
X145099561Y-76626750D01*
X145083998Y-76627654D01*
X145068296Y-76628300D01*
X145052454Y-76628688D01*
X145036472Y-76628817D01*
X145020472Y-76628101D01*
X145003312Y-76626749D01*
X144988049Y-76625353D01*
X144970282Y-76623600D01*
X144954265Y-76621940D01*
X144950010Y-76621489D01*
X144949256Y-76641260D01*
X144948550Y-76662562D01*
X144947893Y-76685396D01*
X144947285Y-76709760D01*
X144946726Y-76735656D01*
X144946215Y-76763083D01*
X144945752Y-76792042D01*
X144945540Y-76807095D01*
X144945339Y-76822532D01*
X144945150Y-76838351D01*
X144944974Y-76854553D01*
X144944810Y-76871138D01*
X144944658Y-76888105D01*
X144944518Y-76905456D01*
X144944390Y-76923189D01*
X144944274Y-76941305D01*
X144944171Y-76959804D01*
X144944080Y-76978686D01*
X144944001Y-76997950D01*
X144943934Y-77017597D01*
X144943879Y-77037628D01*
X144943837Y-77058041D01*
X144943806Y-77078836D01*
X144943788Y-77100015D01*
X144943782Y-77121577D01*
X144942852Y-77139158D01*
X144940061Y-77155952D01*
X144935410Y-77171959D01*
X144928898Y-77187179D01*
X144920526Y-77201611D01*
X144910294Y-77215257D01*
X144905680Y-77220495D01*
X144893272Y-77232421D01*
X144879863Y-77242327D01*
X144865451Y-77250210D01*
X144850038Y-77256072D01*
X144833623Y-77259913D01*
X144816207Y-77261732D01*
X144808960Y-77261894D01*
X144791125Y-77260937D01*
X144774255Y-77258066D01*
X144758352Y-77253281D01*
X144743415Y-77246581D01*
X144729444Y-77237968D01*
X144716438Y-77227440D01*
X144711507Y-77222693D01*
X144700425Y-77210173D01*
X144691221Y-77196883D01*
X144683895Y-77182824D01*
X144678448Y-77167996D01*
X144674879Y-77152399D01*
X144673189Y-77136032D01*
X144673039Y-77129270D01*
X144673039Y-76842041D01*
X144673119Y-76821520D01*
X144673359Y-76799800D01*
X144673760Y-76776881D01*
X144674321Y-76752762D01*
X144675042Y-76727445D01*
X144675924Y-76700927D01*
X144676966Y-76673211D01*
X144678168Y-76644296D01*
X144678829Y-76629388D01*
X144679530Y-76614181D01*
X144680271Y-76598674D01*
X144681053Y-76582867D01*
X144681874Y-76566760D01*
X144682736Y-76550353D01*
X144683637Y-76533647D01*
X144684579Y-76516641D01*
X144685561Y-76499334D01*
X144686583Y-76481729D01*
X144687644Y-76463823D01*
X144688746Y-76445617D01*
X144689888Y-76427112D01*
X144691071Y-76408307D01*
X144692293Y-76389202D01*
X144693555Y-76369797D01*
X144694751Y-76350080D01*
X144695346Y-76340122D01*
X144966496Y-76340122D01*
X144982019Y-76342233D01*
X144998402Y-76344293D01*
X145014423Y-76346046D01*
X145030127Y-76347270D01*
X145036472Y-76347449D01*
X145056363Y-76347190D01*
X145075827Y-76346413D01*
X145094866Y-76345118D01*
X145113477Y-76343304D01*
X145131662Y-76340973D01*
X145149421Y-76338124D01*
X145166753Y-76334756D01*
X145183659Y-76330871D01*
X145200138Y-76326467D01*
X145216191Y-76321546D01*
X145231817Y-76316106D01*
X145247017Y-76310148D01*
X145261790Y-76303673D01*
X145276137Y-76296679D01*
X145290058Y-76289167D01*
X145303551Y-76281137D01*
X145317260Y-76272121D01*
X145330084Y-76262750D01*
X145342024Y-76253024D01*
X145353079Y-76242943D01*
X145368004Y-76227157D01*
X145380939Y-76210572D01*
X145391884Y-76193188D01*
X145400838Y-76175006D01*
X145407803Y-76156025D01*
X145412778Y-76136246D01*
X145415763Y-76115668D01*
X145416758Y-76094291D01*
X145415104Y-76075509D01*
X145410141Y-76057266D01*
X145401869Y-76039560D01*
X145393494Y-76026634D01*
X145383257Y-76014010D01*
X145371160Y-76001689D01*
X145357201Y-75989671D01*
X145341381Y-75977956D01*
X145323700Y-75966543D01*
X145310879Y-75959103D01*
X145291552Y-75948889D01*
X145271904Y-75939680D01*
X145251933Y-75931475D01*
X145231641Y-75924275D01*
X145211027Y-75918080D01*
X145190090Y-75912889D01*
X145168832Y-75908703D01*
X145147251Y-75905522D01*
X145125349Y-75903345D01*
X145110568Y-75902452D01*
X145095645Y-75902006D01*
X145088129Y-75901950D01*
X145072124Y-75901973D01*
X145057080Y-75902042D01*
X145041305Y-75902174D01*
X145029877Y-75902316D01*
X145015022Y-75902688D01*
X145000335Y-75903428D01*
X144987379Y-75904515D01*
X144987340Y-75921795D01*
X144987249Y-75938459D01*
X144987138Y-75953271D01*
X144986992Y-75969399D01*
X144986811Y-75986844D01*
X144986597Y-76005606D01*
X144986413Y-76020542D01*
X144986280Y-76030910D01*
X144985733Y-76050499D01*
X144984915Y-76072032D01*
X144984219Y-76087468D01*
X144983403Y-76103768D01*
X144982468Y-76120933D01*
X144981411Y-76138962D01*
X144980235Y-76157855D01*
X144978938Y-76177613D01*
X144977522Y-76198236D01*
X144975985Y-76219722D01*
X144974327Y-76242073D01*
X144972550Y-76265289D01*
X144970652Y-76289369D01*
X144968634Y-76314313D01*
X144966496Y-76340122D01*
X144695346Y-76340122D01*
X144695911Y-76330678D01*
X144697035Y-76311591D01*
X144698123Y-76292821D01*
X144699176Y-76274365D01*
X144700192Y-76256226D01*
X144701173Y-76238402D01*
X144702119Y-76220893D01*
X144703028Y-76203700D01*
X144703902Y-76186823D01*
X144704740Y-76170261D01*
X144705542Y-76154014D01*
X144706308Y-76138084D01*
X144707039Y-76122468D01*
X144707734Y-76107169D01*
X144708393Y-76092185D01*
X144709016Y-76077516D01*
X144710155Y-76049126D01*
X144711151Y-76021998D01*
X144712004Y-75996132D01*
X144712714Y-75971528D01*
X144713281Y-75948187D01*
X144713704Y-75926107D01*
X144713985Y-75905291D01*
X144714071Y-75895355D01*
X144714285Y-75878912D01*
X144714788Y-75863014D01*
X144715582Y-75847660D01*
X144716665Y-75832850D01*
X144719700Y-75804865D01*
X144723895Y-75779058D01*
X144729248Y-75755429D01*
X144735761Y-75733978D01*
X144743433Y-75714705D01*
X144752265Y-75697610D01*
X144762255Y-75682694D01*
X144773405Y-75669956D01*
X144785714Y-75659395D01*
X144799182Y-75651013D01*
X144813810Y-75644809D01*
X144829596Y-75640784D01*
X144846542Y-75638936D01*
X144864647Y-75639267D01*
X144881171Y-75635345D01*
X144897400Y-75632374D01*
X144912380Y-75630173D01*
X144928684Y-75628224D01*
X144946312Y-75626524D01*
X144961367Y-75625345D01*
X144977264Y-75624229D01*
X144993997Y-75623261D01*
X145011565Y-75622443D01*
X145029969Y-75621773D01*
X145049209Y-75621252D01*
X145064187Y-75620959D01*
X145079636Y-75620750D01*
X145095554Y-75620624D01*
X145111943Y-75620582D01*
X145137080Y-75621076D01*
G37*
G36*
X146428217Y-76136903D02*
G01*
X146447369Y-76138342D01*
X146467063Y-76140741D01*
X146487297Y-76144100D01*
X146508073Y-76148418D01*
X146529389Y-76153695D01*
X146543901Y-76157747D01*
X146558653Y-76162225D01*
X146573645Y-76167129D01*
X146588878Y-76172460D01*
X146604351Y-76178217D01*
X146620064Y-76184401D01*
X146636018Y-76191011D01*
X146654873Y-76199338D01*
X146672512Y-76207830D01*
X146688934Y-76216488D01*
X146704139Y-76225312D01*
X146718128Y-76234302D01*
X146730901Y-76243459D01*
X146742457Y-76252781D01*
X146757511Y-76267076D01*
X146769827Y-76281744D01*
X146779407Y-76296785D01*
X146786249Y-76312201D01*
X146790355Y-76327989D01*
X146791723Y-76344152D01*
X146790584Y-76359742D01*
X146787165Y-76374455D01*
X146781467Y-76388292D01*
X146773491Y-76401253D01*
X146767909Y-76408265D01*
X146764217Y-76424125D01*
X146760834Y-76441479D01*
X146758251Y-76457081D01*
X146755882Y-76473722D01*
X146753729Y-76491399D01*
X146752160Y-76506289D01*
X146751789Y-76510115D01*
X146750501Y-76525737D01*
X146749385Y-76542011D01*
X146748441Y-76558938D01*
X146747668Y-76576518D01*
X146747067Y-76594751D01*
X146746637Y-76613635D01*
X146746380Y-76633173D01*
X146746299Y-76648254D01*
X146746294Y-76653363D01*
X146746403Y-76677165D01*
X146746729Y-76700120D01*
X146747273Y-76722228D01*
X146748034Y-76743489D01*
X146749013Y-76763902D01*
X146750210Y-76783468D01*
X146751623Y-76802187D01*
X146753255Y-76820059D01*
X146755104Y-76837083D01*
X146757170Y-76853261D01*
X146759454Y-76868591D01*
X146761956Y-76883073D01*
X146766116Y-76903209D01*
X146770766Y-76921439D01*
X146774138Y-76932533D01*
X146780012Y-76946579D01*
X146785982Y-76960015D01*
X146792213Y-76973843D01*
X146799738Y-76990406D01*
X146806230Y-77004625D01*
X146813451Y-77020382D01*
X146821399Y-77037679D01*
X146828601Y-77053371D01*
X146835094Y-77067750D01*
X146842651Y-77084877D01*
X146848948Y-77099669D01*
X146855048Y-77114875D01*
X146860282Y-77130032D01*
X146861699Y-77137330D01*
X146860679Y-77153607D01*
X146857620Y-77169008D01*
X146852522Y-77183532D01*
X146845384Y-77197179D01*
X146836207Y-77209950D01*
X146824991Y-77221845D01*
X146819933Y-77226357D01*
X146806568Y-77236595D01*
X146792578Y-77245097D01*
X146777961Y-77251865D01*
X146762717Y-77256897D01*
X146746848Y-77260194D01*
X146730353Y-77261755D01*
X146723579Y-77261894D01*
X146707451Y-77259649D01*
X146692590Y-77254620D01*
X146675989Y-77246718D01*
X146662397Y-77238905D01*
X146647825Y-77229476D01*
X146632275Y-77218430D01*
X146615745Y-77205768D01*
X146604182Y-77196428D01*
X146592183Y-77186370D01*
X146579750Y-77175594D01*
X146573370Y-77169937D01*
X146555778Y-77178258D01*
X146538585Y-77186187D01*
X146521792Y-77193723D01*
X146505398Y-77200866D01*
X146489403Y-77207616D01*
X146473808Y-77213973D01*
X146458611Y-77219938D01*
X146443814Y-77225510D01*
X146429417Y-77230688D01*
X146415418Y-77235474D01*
X146406308Y-77238447D01*
X146388602Y-77243942D01*
X146371572Y-77248705D01*
X146355217Y-77252735D01*
X146339538Y-77256032D01*
X146324534Y-77258597D01*
X146306729Y-77260772D01*
X146289980Y-77261803D01*
X146283576Y-77261894D01*
X146268195Y-77261765D01*
X146253056Y-77261379D01*
X146238159Y-77260735D01*
X146223504Y-77259833D01*
X146194919Y-77257257D01*
X146167301Y-77253651D01*
X146140651Y-77249014D01*
X146114968Y-77243347D01*
X146090253Y-77236649D01*
X146066505Y-77228921D01*
X146043725Y-77220163D01*
X146021912Y-77210374D01*
X146001066Y-77199555D01*
X145981188Y-77187705D01*
X145962277Y-77174825D01*
X145944334Y-77160915D01*
X145927358Y-77145974D01*
X145911350Y-77130003D01*
X145896310Y-77112958D01*
X145882241Y-77094889D01*
X145869142Y-77075795D01*
X145857013Y-77055677D01*
X145845855Y-77034534D01*
X145835667Y-77012366D01*
X145826449Y-76989173D01*
X145818202Y-76964956D01*
X145810925Y-76939714D01*
X145804618Y-76913447D01*
X145799281Y-76886156D01*
X145794915Y-76857840D01*
X145793095Y-76843298D01*
X145791519Y-76828500D01*
X145790184Y-76813445D01*
X145789093Y-76798134D01*
X145788244Y-76782567D01*
X145787637Y-76766744D01*
X145787344Y-76753747D01*
X146072550Y-76753747D01*
X146072743Y-76770519D01*
X146073323Y-76786765D01*
X146074289Y-76802485D01*
X146075641Y-76817677D01*
X146077380Y-76832343D01*
X146080713Y-76853355D01*
X146084915Y-76873182D01*
X146089986Y-76891823D01*
X146095927Y-76909280D01*
X146102738Y-76925552D01*
X146110417Y-76940638D01*
X146118966Y-76954540D01*
X146122009Y-76958911D01*
X146131718Y-76971154D01*
X146142295Y-76982194D01*
X146153742Y-76992029D01*
X146166059Y-77000659D01*
X146179245Y-77008086D01*
X146193300Y-77014308D01*
X146208225Y-77019326D01*
X146224019Y-77023139D01*
X146240682Y-77025748D01*
X146258215Y-77027153D01*
X146270387Y-77027421D01*
X146286221Y-77027095D01*
X146301848Y-77026116D01*
X146317270Y-77024484D01*
X146332486Y-77022200D01*
X146347495Y-77019264D01*
X146362298Y-77015674D01*
X146376896Y-77011433D01*
X146391287Y-77006538D01*
X146405472Y-77001008D01*
X146419451Y-76994860D01*
X146433224Y-76988094D01*
X146446791Y-76980710D01*
X146460152Y-76972707D01*
X146473307Y-76964086D01*
X146486255Y-76954847D01*
X146498998Y-76944989D01*
X146497105Y-76929973D01*
X146495271Y-76915195D01*
X146491785Y-76886354D01*
X146488540Y-76858466D01*
X146485534Y-76831531D01*
X146482769Y-76805549D01*
X146480245Y-76780520D01*
X146477961Y-76756445D01*
X146475917Y-76733322D01*
X146474114Y-76711153D01*
X146472551Y-76689937D01*
X146471229Y-76669673D01*
X146470147Y-76650363D01*
X146469305Y-76632007D01*
X146468704Y-76614603D01*
X146468344Y-76598152D01*
X146468224Y-76582655D01*
X146468434Y-76567934D01*
X146469065Y-76552301D01*
X146470117Y-76535757D01*
X146471353Y-76520850D01*
X146472620Y-76507916D01*
X146474560Y-76491658D01*
X146476810Y-76474755D01*
X146478921Y-76460177D01*
X146481247Y-76445152D01*
X146483787Y-76429680D01*
X146486542Y-76413761D01*
X146472956Y-76407401D01*
X146458240Y-76401671D01*
X146449905Y-76399106D01*
X146435251Y-76395534D01*
X146422794Y-76394344D01*
X146405392Y-76394767D01*
X146388265Y-76396038D01*
X146371412Y-76398156D01*
X146354834Y-76401121D01*
X146338531Y-76404934D01*
X146322502Y-76409593D01*
X146306748Y-76415100D01*
X146291270Y-76421454D01*
X146276065Y-76428656D01*
X146261136Y-76436704D01*
X146246482Y-76445600D01*
X146232102Y-76455343D01*
X146217997Y-76465933D01*
X146204166Y-76477371D01*
X146190611Y-76489655D01*
X146177330Y-76502787D01*
X146164642Y-76516476D01*
X146152772Y-76530431D01*
X146141721Y-76544652D01*
X146131489Y-76559139D01*
X146122075Y-76573892D01*
X146113480Y-76588912D01*
X146105703Y-76604197D01*
X146098745Y-76619749D01*
X146092606Y-76635567D01*
X146087285Y-76651651D01*
X146082783Y-76668002D01*
X146079099Y-76684619D01*
X146076234Y-76701501D01*
X146074187Y-76718650D01*
X146072959Y-76736066D01*
X146072550Y-76753747D01*
X145787344Y-76753747D01*
X145787274Y-76750665D01*
X145787152Y-76734330D01*
X145787331Y-76718989D01*
X145787868Y-76703787D01*
X145788762Y-76688724D01*
X145790015Y-76673799D01*
X145791625Y-76659014D01*
X145793592Y-76644367D01*
X145795918Y-76629859D01*
X145801642Y-76601260D01*
X145808798Y-76573216D01*
X145817385Y-76545727D01*
X145827402Y-76518794D01*
X145838851Y-76492415D01*
X145851731Y-76466592D01*
X145866042Y-76441325D01*
X145881785Y-76416612D01*
X145890192Y-76404464D01*
X145898958Y-76392455D01*
X145908081Y-76380585D01*
X145917562Y-76368853D01*
X145927401Y-76357261D01*
X145937598Y-76345807D01*
X145948152Y-76334492D01*
X145959064Y-76323315D01*
X145970334Y-76312278D01*
X145981877Y-76301459D01*
X145993560Y-76290983D01*
X146005384Y-76280851D01*
X146017349Y-76271062D01*
X146029455Y-76261617D01*
X146041703Y-76252515D01*
X146054091Y-76243756D01*
X146066620Y-76235341D01*
X146079290Y-76227270D01*
X146092100Y-76219542D01*
X146105052Y-76212157D01*
X146118145Y-76205116D01*
X146131379Y-76198419D01*
X146144754Y-76192065D01*
X146158270Y-76186054D01*
X146171926Y-76180387D01*
X146185724Y-76175063D01*
X146199663Y-76170083D01*
X146213742Y-76165446D01*
X146227963Y-76161153D01*
X146242325Y-76157203D01*
X146256827Y-76153596D01*
X146271471Y-76150333D01*
X146286255Y-76147414D01*
X146301180Y-76144838D01*
X146316247Y-76142605D01*
X146331454Y-76140716D01*
X146346802Y-76139171D01*
X146362292Y-76137969D01*
X146377922Y-76137110D01*
X146393693Y-76136595D01*
X146409605Y-76136423D01*
X146428217Y-76136903D01*
G37*
G36*
X147152273Y-76090253D02*
G01*
X147168994Y-76092426D01*
X147184802Y-76096049D01*
X147199698Y-76101120D01*
X147213682Y-76107641D01*
X147226754Y-76115610D01*
X147231727Y-76119204D01*
X147243020Y-76129086D01*
X147254045Y-76142550D01*
X147262314Y-76157765D01*
X147267099Y-76171783D01*
X147269971Y-76187017D01*
X147270928Y-76203468D01*
X147269829Y-76213726D01*
X147282749Y-76206553D01*
X147299997Y-76197540D01*
X147317268Y-76189156D01*
X147334561Y-76181403D01*
X147351878Y-76174278D01*
X147369217Y-76167784D01*
X147386579Y-76161919D01*
X147403964Y-76156684D01*
X147408314Y-76155474D01*
X147425728Y-76151009D01*
X147443165Y-76147139D01*
X147460624Y-76143865D01*
X147478107Y-76141186D01*
X147495612Y-76139102D01*
X147513140Y-76137614D01*
X147530691Y-76136721D01*
X147548265Y-76136423D01*
X147562955Y-76136623D01*
X147591586Y-76138223D01*
X147619218Y-76141423D01*
X147645851Y-76146223D01*
X147671485Y-76152623D01*
X147696120Y-76160623D01*
X147719756Y-76170223D01*
X147742394Y-76181423D01*
X147764032Y-76194222D01*
X147784672Y-76208622D01*
X147804312Y-76224622D01*
X147822954Y-76242222D01*
X147840597Y-76261422D01*
X147857240Y-76282221D01*
X147872885Y-76304621D01*
X147887531Y-76328621D01*
X147894480Y-76341221D01*
X147904329Y-76360858D01*
X147913542Y-76381212D01*
X147922120Y-76402280D01*
X147930063Y-76424065D01*
X147937370Y-76446565D01*
X147944042Y-76469780D01*
X147950078Y-76493711D01*
X147955479Y-76518358D01*
X147960245Y-76543720D01*
X147964375Y-76569798D01*
X147967870Y-76596591D01*
X147970729Y-76624100D01*
X147972953Y-76652324D01*
X147974542Y-76681264D01*
X147975098Y-76696002D01*
X147975495Y-76710919D01*
X147975733Y-76726016D01*
X147975812Y-76741290D01*
X147975309Y-76769742D01*
X147973797Y-76797579D01*
X147971279Y-76824800D01*
X147967752Y-76851406D01*
X147963219Y-76877396D01*
X147957677Y-76902771D01*
X147951129Y-76927531D01*
X147943572Y-76951675D01*
X147935009Y-76975204D01*
X147925437Y-76998118D01*
X147914859Y-77020416D01*
X147903272Y-77042098D01*
X147890679Y-77063166D01*
X147877077Y-77083618D01*
X147862469Y-77103454D01*
X147846852Y-77122676D01*
X147829221Y-77142374D01*
X147810857Y-77160800D01*
X147791760Y-77177957D01*
X147771931Y-77193842D01*
X147751369Y-77208456D01*
X147730074Y-77221800D01*
X147708046Y-77233873D01*
X147685286Y-77244675D01*
X147661793Y-77254206D01*
X147637567Y-77262467D01*
X147612608Y-77269456D01*
X147586917Y-77275175D01*
X147560493Y-77279623D01*
X147533336Y-77282800D01*
X147505447Y-77284706D01*
X147476824Y-77285341D01*
X147460120Y-77285161D01*
X147443255Y-77284620D01*
X147426229Y-77283719D01*
X147409041Y-77282456D01*
X147391693Y-77280833D01*
X147374184Y-77278850D01*
X147356513Y-77276506D01*
X147338682Y-77273801D01*
X147320690Y-77270736D01*
X147302537Y-77267309D01*
X147290345Y-77264825D01*
X147289246Y-77686144D01*
X147288616Y-77700839D01*
X147286058Y-77718289D01*
X147281532Y-77734720D01*
X147275038Y-77750131D01*
X147266577Y-77764523D01*
X147256148Y-77777895D01*
X147248946Y-77785429D01*
X147235930Y-77796722D01*
X147221841Y-77806101D01*
X147206678Y-77813566D01*
X147190442Y-77819117D01*
X147173133Y-77822754D01*
X147158512Y-77824285D01*
X147147096Y-77824630D01*
X147131955Y-77824017D01*
X147113979Y-77821529D01*
X147097058Y-77817126D01*
X147081192Y-77810810D01*
X147066382Y-77802579D01*
X147052627Y-77792434D01*
X147044881Y-77785429D01*
X147033377Y-77772669D01*
X147023822Y-77758889D01*
X147016218Y-77744089D01*
X147010563Y-77728270D01*
X147006858Y-77711431D01*
X147005103Y-77693573D01*
X147004947Y-77686144D01*
X147004982Y-77669549D01*
X147005052Y-77651189D01*
X147005121Y-77636134D01*
X147005207Y-77618826D01*
X147005310Y-77599266D01*
X147005430Y-77577453D01*
X147005568Y-77553387D01*
X147005722Y-77527069D01*
X147005894Y-77498499D01*
X147005986Y-77483368D01*
X147006083Y-77467675D01*
X147006184Y-77451419D01*
X147006289Y-77434599D01*
X147006398Y-77417217D01*
X147006512Y-77399271D01*
X147006630Y-77380762D01*
X147006753Y-77361690D01*
X147006879Y-77342055D01*
X147007010Y-77321857D01*
X147007145Y-77301095D01*
X147007256Y-77285568D01*
X147007359Y-77270220D01*
X147007453Y-77255051D01*
X147007540Y-77240061D01*
X147007619Y-77225250D01*
X147007754Y-77196164D01*
X147007857Y-77167794D01*
X147007929Y-77140139D01*
X147007969Y-77113200D01*
X147007977Y-77086976D01*
X147007954Y-77061468D01*
X147007900Y-77036675D01*
X147007814Y-77012598D01*
X147007697Y-76989237D01*
X147007548Y-76966591D01*
X147007368Y-76944661D01*
X147007156Y-76923446D01*
X147006912Y-76902947D01*
X147006779Y-76892965D01*
X147006380Y-76865319D01*
X147005915Y-76838160D01*
X147005384Y-76811486D01*
X147004787Y-76785300D01*
X147004124Y-76759600D01*
X147003396Y-76734387D01*
X147002602Y-76709660D01*
X147001741Y-76685420D01*
X147000816Y-76661666D01*
X146999824Y-76638399D01*
X146998766Y-76615619D01*
X146997643Y-76593325D01*
X146996454Y-76571518D01*
X146995198Y-76550197D01*
X146994632Y-76541256D01*
X147281186Y-76541256D01*
X147282694Y-76568232D01*
X147284105Y-76595214D01*
X147285419Y-76622202D01*
X147286635Y-76649196D01*
X147287755Y-76676195D01*
X147288776Y-76703200D01*
X147289701Y-76730211D01*
X147290528Y-76757227D01*
X147291258Y-76784250D01*
X147291891Y-76811278D01*
X147292426Y-76838311D01*
X147292864Y-76865351D01*
X147293204Y-76892396D01*
X147293448Y-76919447D01*
X147293594Y-76946503D01*
X147293642Y-76973565D01*
X147310816Y-76979000D01*
X147327989Y-76983899D01*
X147345162Y-76988265D01*
X147362336Y-76992095D01*
X147379509Y-76995392D01*
X147396682Y-76998153D01*
X147413855Y-77000381D01*
X147431029Y-77002073D01*
X147448202Y-77003231D01*
X147465375Y-77003855D01*
X147476824Y-77003974D01*
X147496307Y-77003301D01*
X147514915Y-77001282D01*
X147532646Y-76997917D01*
X147549502Y-76993206D01*
X147565482Y-76987149D01*
X147580586Y-76979746D01*
X147594814Y-76970998D01*
X147608166Y-76960903D01*
X147620642Y-76949462D01*
X147632243Y-76936676D01*
X147639490Y-76927404D01*
X147648722Y-76914064D01*
X147657046Y-76899875D01*
X147664461Y-76884835D01*
X147670969Y-76868946D01*
X147676568Y-76852206D01*
X147681260Y-76834616D01*
X147685043Y-76816176D01*
X147687919Y-76796886D01*
X147689886Y-76776746D01*
X147690946Y-76755756D01*
X147691147Y-76741290D01*
X147691099Y-76723954D01*
X147690953Y-76707299D01*
X147690710Y-76691325D01*
X147690369Y-76676032D01*
X147689676Y-76654370D01*
X147688763Y-76634241D01*
X147687632Y-76615644D01*
X147686282Y-76598580D01*
X147684712Y-76583049D01*
X147682280Y-76564725D01*
X147679457Y-76549126D01*
X147678691Y-76545652D01*
X147674703Y-76530169D01*
X147670156Y-76515685D01*
X147662289Y-76495831D01*
X147653167Y-76478225D01*
X147642789Y-76462867D01*
X147631155Y-76449756D01*
X147618266Y-76438893D01*
X147604120Y-76430277D01*
X147588719Y-76423909D01*
X147572062Y-76419789D01*
X147554149Y-76417916D01*
X147547899Y-76417791D01*
X147531653Y-76418277D01*
X147515338Y-76419737D01*
X147498955Y-76422170D01*
X147482503Y-76425576D01*
X147465982Y-76429955D01*
X147449393Y-76435308D01*
X147432735Y-76441633D01*
X147416008Y-76448932D01*
X147399315Y-76457106D01*
X147382577Y-76466243D01*
X147365793Y-76476340D01*
X147353175Y-76484545D01*
X147340531Y-76493291D01*
X147327861Y-76502577D01*
X147315166Y-76512404D01*
X147302445Y-76522773D01*
X147289698Y-76533682D01*
X147281186Y-76541256D01*
X146994632Y-76541256D01*
X146993878Y-76529363D01*
X146992491Y-76509016D01*
X146990627Y-76482159D01*
X146988884Y-76457186D01*
X146987261Y-76434097D01*
X146985759Y-76412891D01*
X146984376Y-76393568D01*
X146983114Y-76376128D01*
X146981972Y-76360572D01*
X146980484Y-76340769D01*
X146979267Y-76325204D01*
X146977840Y-76308678D01*
X146977103Y-76305317D01*
X146977438Y-76289462D01*
X146978443Y-76274044D01*
X146980117Y-76259065D01*
X146982462Y-76244523D01*
X146986629Y-76225816D01*
X146991987Y-76207887D01*
X146998536Y-76190737D01*
X147006275Y-76174365D01*
X147015205Y-76158771D01*
X147023788Y-76146397D01*
X147036072Y-76131791D01*
X147049319Y-76119349D01*
X147063527Y-76109071D01*
X147078697Y-76100956D01*
X147094828Y-76095006D01*
X147111921Y-76091219D01*
X147129976Y-76089596D01*
X147134640Y-76089528D01*
X147152273Y-76090253D01*
G37*
G36*
X148717261Y-76136903D02*
G01*
X148736413Y-76138342D01*
X148756107Y-76140741D01*
X148776341Y-76144100D01*
X148797117Y-76148418D01*
X148818433Y-76153695D01*
X148832945Y-76157747D01*
X148847696Y-76162225D01*
X148862689Y-76167129D01*
X148877922Y-76172460D01*
X148893395Y-76178217D01*
X148909108Y-76184401D01*
X148925062Y-76191011D01*
X148943917Y-76199338D01*
X148961556Y-76207830D01*
X148977978Y-76216488D01*
X148993183Y-76225312D01*
X149007172Y-76234302D01*
X149019945Y-76243459D01*
X149031501Y-76252781D01*
X149046555Y-76267076D01*
X149058871Y-76281744D01*
X149068451Y-76296785D01*
X149075293Y-76312201D01*
X149079399Y-76327989D01*
X149080767Y-76344152D01*
X149079628Y-76359742D01*
X149076209Y-76374455D01*
X149070511Y-76388292D01*
X149062535Y-76401253D01*
X149056953Y-76408265D01*
X149053261Y-76424125D01*
X149049878Y-76441479D01*
X149047295Y-76457081D01*
X149044926Y-76473722D01*
X149042773Y-76491399D01*
X149041204Y-76506289D01*
X149040833Y-76510115D01*
X149039545Y-76525737D01*
X149038429Y-76542011D01*
X149037485Y-76558938D01*
X149036712Y-76576518D01*
X149036111Y-76594751D01*
X149035681Y-76613635D01*
X149035424Y-76633173D01*
X149035343Y-76648254D01*
X149035338Y-76653363D01*
X149035447Y-76677165D01*
X149035773Y-76700120D01*
X149036317Y-76722228D01*
X149037078Y-76743489D01*
X149038057Y-76763902D01*
X149039253Y-76783468D01*
X149040667Y-76802187D01*
X149042299Y-76820059D01*
X149044148Y-76837083D01*
X149046214Y-76853261D01*
X149048498Y-76868591D01*
X149051000Y-76883073D01*
X149055160Y-76903209D01*
X149059810Y-76921439D01*
X149063182Y-76932533D01*
X149069056Y-76946579D01*
X149075026Y-76960015D01*
X149081257Y-76973843D01*
X149088782Y-76990406D01*
X149095274Y-77004625D01*
X149102495Y-77020382D01*
X149110443Y-77037679D01*
X149117645Y-77053371D01*
X149124138Y-77067750D01*
X149131695Y-77084877D01*
X149137992Y-77099669D01*
X149144092Y-77114875D01*
X149149326Y-77130032D01*
X149150743Y-77137330D01*
X149149723Y-77153607D01*
X149146664Y-77169008D01*
X149141566Y-77183532D01*
X149134428Y-77197179D01*
X149125251Y-77209950D01*
X149114035Y-77221845D01*
X149108977Y-77226357D01*
X149095612Y-77236595D01*
X149081621Y-77245097D01*
X149067004Y-77251865D01*
X149051761Y-77256897D01*
X149035892Y-77260194D01*
X149019397Y-77261755D01*
X149012623Y-77261894D01*
X148996495Y-77259649D01*
X148981634Y-77254620D01*
X148965033Y-77246718D01*
X148951441Y-77238905D01*
X148936869Y-77229476D01*
X148921319Y-77218430D01*
X148904789Y-77205768D01*
X148893226Y-77196428D01*
X148881227Y-77186370D01*
X148868794Y-77175594D01*
X148862414Y-77169937D01*
X148844822Y-77178258D01*
X148827629Y-77186187D01*
X148810836Y-77193723D01*
X148794442Y-77200866D01*
X148778447Y-77207616D01*
X148762852Y-77213973D01*
X148747655Y-77219938D01*
X148732858Y-77225510D01*
X148718461Y-77230688D01*
X148704462Y-77235474D01*
X148695352Y-77238447D01*
X148677646Y-77243942D01*
X148660616Y-77248705D01*
X148644261Y-77252735D01*
X148628582Y-77256032D01*
X148613578Y-77258597D01*
X148595773Y-77260772D01*
X148579024Y-77261803D01*
X148572620Y-77261894D01*
X148557239Y-77261765D01*
X148542100Y-77261379D01*
X148527203Y-77260735D01*
X148512548Y-77259833D01*
X148483963Y-77257257D01*
X148456345Y-77253651D01*
X148429695Y-77249014D01*
X148404012Y-77243347D01*
X148379297Y-77236649D01*
X148355549Y-77228921D01*
X148332769Y-77220163D01*
X148310956Y-77210374D01*
X148290110Y-77199555D01*
X148270232Y-77187705D01*
X148251321Y-77174825D01*
X148233378Y-77160915D01*
X148216402Y-77145974D01*
X148200394Y-77130003D01*
X148185354Y-77112958D01*
X148171285Y-77094889D01*
X148158186Y-77075795D01*
X148146057Y-77055677D01*
X148134899Y-77034534D01*
X148124711Y-77012366D01*
X148115493Y-76989173D01*
X148107246Y-76964956D01*
X148099968Y-76939714D01*
X148093662Y-76913447D01*
X148088325Y-76886156D01*
X148083959Y-76857840D01*
X148082139Y-76843298D01*
X148080563Y-76828500D01*
X148079228Y-76813445D01*
X148078137Y-76798134D01*
X148077288Y-76782567D01*
X148076681Y-76766744D01*
X148076388Y-76753747D01*
X148361594Y-76753747D01*
X148361787Y-76770519D01*
X148362367Y-76786765D01*
X148363333Y-76802485D01*
X148364685Y-76817677D01*
X148366424Y-76832343D01*
X148369757Y-76853355D01*
X148373959Y-76873182D01*
X148379030Y-76891823D01*
X148384971Y-76909280D01*
X148391782Y-76925552D01*
X148399461Y-76940638D01*
X148408010Y-76954540D01*
X148411053Y-76958911D01*
X148420762Y-76971154D01*
X148431339Y-76982194D01*
X148442786Y-76992029D01*
X148455103Y-77000659D01*
X148468289Y-77008086D01*
X148482344Y-77014308D01*
X148497269Y-77019326D01*
X148513063Y-77023139D01*
X148529726Y-77025748D01*
X148547259Y-77027153D01*
X148559431Y-77027421D01*
X148575265Y-77027095D01*
X148590892Y-77026116D01*
X148606314Y-77024484D01*
X148621530Y-77022200D01*
X148636539Y-77019264D01*
X148651342Y-77015674D01*
X148665940Y-77011433D01*
X148680331Y-77006538D01*
X148694516Y-77001008D01*
X148708495Y-76994860D01*
X148722268Y-76988094D01*
X148735835Y-76980710D01*
X148749196Y-76972707D01*
X148762351Y-76964086D01*
X148775299Y-76954847D01*
X148788042Y-76944989D01*
X148786149Y-76929973D01*
X148784315Y-76915195D01*
X148780829Y-76886354D01*
X148777584Y-76858466D01*
X148774578Y-76831531D01*
X148771813Y-76805549D01*
X148769289Y-76780520D01*
X148767005Y-76756445D01*
X148764961Y-76733322D01*
X148763158Y-76711153D01*
X148761595Y-76689937D01*
X148760273Y-76669673D01*
X148759191Y-76650363D01*
X148758349Y-76632007D01*
X148757748Y-76614603D01*
X148757388Y-76598152D01*
X148757267Y-76582655D01*
X148757478Y-76567934D01*
X148758109Y-76552301D01*
X148759161Y-76535757D01*
X148760397Y-76520850D01*
X148761664Y-76507916D01*
X148763604Y-76491658D01*
X148765854Y-76474755D01*
X148767965Y-76460177D01*
X148770291Y-76445152D01*
X148772831Y-76429680D01*
X148775586Y-76413761D01*
X148762000Y-76407401D01*
X148747284Y-76401671D01*
X148738949Y-76399106D01*
X148724295Y-76395534D01*
X148711838Y-76394344D01*
X148694436Y-76394767D01*
X148677308Y-76396038D01*
X148660456Y-76398156D01*
X148643878Y-76401121D01*
X148627575Y-76404934D01*
X148611546Y-76409593D01*
X148595792Y-76415100D01*
X148580314Y-76421454D01*
X148565109Y-76428656D01*
X148550180Y-76436704D01*
X148535525Y-76445600D01*
X148521146Y-76455343D01*
X148507041Y-76465933D01*
X148493210Y-76477371D01*
X148479655Y-76489655D01*
X148466374Y-76502787D01*
X148453686Y-76516476D01*
X148441816Y-76530431D01*
X148430765Y-76544652D01*
X148420533Y-76559139D01*
X148411119Y-76573892D01*
X148402524Y-76588912D01*
X148394747Y-76604197D01*
X148387789Y-76619749D01*
X148381650Y-76635567D01*
X148376329Y-76651651D01*
X148371826Y-76668002D01*
X148368143Y-76684619D01*
X148365278Y-76701501D01*
X148363231Y-76718650D01*
X148362003Y-76736066D01*
X148361594Y-76753747D01*
X148076388Y-76753747D01*
X148076318Y-76750665D01*
X148076196Y-76734330D01*
X148076375Y-76718989D01*
X148076912Y-76703787D01*
X148077806Y-76688724D01*
X148079059Y-76673799D01*
X148080669Y-76659014D01*
X148082636Y-76644367D01*
X148084962Y-76629859D01*
X148090686Y-76601260D01*
X148097842Y-76573216D01*
X148106428Y-76545727D01*
X148116446Y-76518794D01*
X148127895Y-76492415D01*
X148140775Y-76466592D01*
X148155086Y-76441325D01*
X148170828Y-76416612D01*
X148179236Y-76404464D01*
X148188002Y-76392455D01*
X148197125Y-76380585D01*
X148206606Y-76368853D01*
X148216445Y-76357261D01*
X148226642Y-76345807D01*
X148237196Y-76334492D01*
X148248108Y-76323315D01*
X148259378Y-76312278D01*
X148270921Y-76301459D01*
X148282604Y-76290983D01*
X148294428Y-76280851D01*
X148306393Y-76271062D01*
X148318499Y-76261617D01*
X148330746Y-76252515D01*
X148343135Y-76243756D01*
X148355664Y-76235341D01*
X148368334Y-76227270D01*
X148381144Y-76219542D01*
X148394096Y-76212157D01*
X148407189Y-76205116D01*
X148420423Y-76198419D01*
X148433798Y-76192065D01*
X148447314Y-76186054D01*
X148460970Y-76180387D01*
X148474768Y-76175063D01*
X148488707Y-76170083D01*
X148502786Y-76165446D01*
X148517007Y-76161153D01*
X148531368Y-76157203D01*
X148545871Y-76153596D01*
X148560514Y-76150333D01*
X148575299Y-76147414D01*
X148590224Y-76144838D01*
X148605291Y-76142605D01*
X148620498Y-76140716D01*
X148635846Y-76139171D01*
X148651336Y-76137969D01*
X148666966Y-76137110D01*
X148682737Y-76136595D01*
X148698649Y-76136423D01*
X148717261Y-76136903D01*
G37*
D11*
%TO.C,REF\u002A\u002A*%
X98666666Y-79467380D02*
X98333333Y-78991190D01*
X98095238Y-79467380D02*
X98095238Y-78467380D01*
X98095238Y-78467380D02*
X98476190Y-78467380D01*
X98476190Y-78467380D02*
X98571428Y-78515000D01*
X98571428Y-78515000D02*
X98619047Y-78562619D01*
X98619047Y-78562619D02*
X98666666Y-78657857D01*
X98666666Y-78657857D02*
X98666666Y-78800714D01*
X98666666Y-78800714D02*
X98619047Y-78895952D01*
X98619047Y-78895952D02*
X98571428Y-78943571D01*
X98571428Y-78943571D02*
X98476190Y-78991190D01*
X98476190Y-78991190D02*
X98095238Y-78991190D01*
X99095238Y-78943571D02*
X99428571Y-78943571D01*
X99571428Y-79467380D02*
X99095238Y-79467380D01*
X99095238Y-79467380D02*
X99095238Y-78467380D01*
X99095238Y-78467380D02*
X99571428Y-78467380D01*
X100333333Y-78943571D02*
X100000000Y-78943571D01*
X100000000Y-79467380D02*
X100000000Y-78467380D01*
X100000000Y-78467380D02*
X100476190Y-78467380D01*
X101000000Y-78467380D02*
X101000000Y-78705476D01*
X100761905Y-78610238D02*
X101000000Y-78705476D01*
X101000000Y-78705476D02*
X101238095Y-78610238D01*
X100857143Y-78895952D02*
X101000000Y-78705476D01*
X101000000Y-78705476D02*
X101142857Y-78895952D01*
X101761905Y-78467380D02*
X101761905Y-78705476D01*
X101523810Y-78610238D02*
X101761905Y-78705476D01*
X101761905Y-78705476D02*
X102000000Y-78610238D01*
X101619048Y-78895952D02*
X101761905Y-78705476D01*
X101761905Y-78705476D02*
X101904762Y-78895952D01*
X98666666Y-47467380D02*
X98333333Y-46991190D01*
X98095238Y-47467380D02*
X98095238Y-46467380D01*
X98095238Y-46467380D02*
X98476190Y-46467380D01*
X98476190Y-46467380D02*
X98571428Y-46515000D01*
X98571428Y-46515000D02*
X98619047Y-46562619D01*
X98619047Y-46562619D02*
X98666666Y-46657857D01*
X98666666Y-46657857D02*
X98666666Y-46800714D01*
X98666666Y-46800714D02*
X98619047Y-46895952D01*
X98619047Y-46895952D02*
X98571428Y-46943571D01*
X98571428Y-46943571D02*
X98476190Y-46991190D01*
X98476190Y-46991190D02*
X98095238Y-46991190D01*
X99095238Y-46943571D02*
X99428571Y-46943571D01*
X99571428Y-47467380D02*
X99095238Y-47467380D01*
X99095238Y-47467380D02*
X99095238Y-46467380D01*
X99095238Y-46467380D02*
X99571428Y-46467380D01*
X100333333Y-46943571D02*
X100000000Y-46943571D01*
X100000000Y-47467380D02*
X100000000Y-46467380D01*
X100000000Y-46467380D02*
X100476190Y-46467380D01*
X101000000Y-46467380D02*
X101000000Y-46705476D01*
X100761905Y-46610238D02*
X101000000Y-46705476D01*
X101000000Y-46705476D02*
X101238095Y-46610238D01*
X100857143Y-46895952D02*
X101000000Y-46705476D01*
X101000000Y-46705476D02*
X101142857Y-46895952D01*
X101761905Y-46467380D02*
X101761905Y-46705476D01*
X101523810Y-46610238D02*
X101761905Y-46705476D01*
X101761905Y-46705476D02*
X102000000Y-46610238D01*
X101619048Y-46895952D02*
X101761905Y-46705476D01*
X101761905Y-46705476D02*
X101904762Y-46895952D01*
%TO.C,J4*%
X132381666Y-57787380D02*
X132381666Y-58501666D01*
X132381666Y-58501666D02*
X132334047Y-58644523D01*
X132334047Y-58644523D02*
X132238809Y-58739761D01*
X132238809Y-58739761D02*
X132095952Y-58787380D01*
X132095952Y-58787380D02*
X132000714Y-58787380D01*
X133286428Y-58120714D02*
X133286428Y-58787380D01*
X133048333Y-57739761D02*
X132810238Y-58454047D01*
X132810238Y-58454047D02*
X133429285Y-58454047D01*
%TO.C,R1*%
X103338333Y-52607380D02*
X103005000Y-52131190D01*
X102766905Y-52607380D02*
X102766905Y-51607380D01*
X102766905Y-51607380D02*
X103147857Y-51607380D01*
X103147857Y-51607380D02*
X103243095Y-51655000D01*
X103243095Y-51655000D02*
X103290714Y-51702619D01*
X103290714Y-51702619D02*
X103338333Y-51797857D01*
X103338333Y-51797857D02*
X103338333Y-51940714D01*
X103338333Y-51940714D02*
X103290714Y-52035952D01*
X103290714Y-52035952D02*
X103243095Y-52083571D01*
X103243095Y-52083571D02*
X103147857Y-52131190D01*
X103147857Y-52131190D02*
X102766905Y-52131190D01*
X104290714Y-52607380D02*
X103719286Y-52607380D01*
X104005000Y-52607380D02*
X104005000Y-51607380D01*
X104005000Y-51607380D02*
X103909762Y-51750238D01*
X103909762Y-51750238D02*
X103814524Y-51845476D01*
X103814524Y-51845476D02*
X103719286Y-51893095D01*
%TO.C,REF\u002A\u002A*%
X138666666Y-47467380D02*
X138333333Y-46991190D01*
X138095238Y-47467380D02*
X138095238Y-46467380D01*
X138095238Y-46467380D02*
X138476190Y-46467380D01*
X138476190Y-46467380D02*
X138571428Y-46515000D01*
X138571428Y-46515000D02*
X138619047Y-46562619D01*
X138619047Y-46562619D02*
X138666666Y-46657857D01*
X138666666Y-46657857D02*
X138666666Y-46800714D01*
X138666666Y-46800714D02*
X138619047Y-46895952D01*
X138619047Y-46895952D02*
X138571428Y-46943571D01*
X138571428Y-46943571D02*
X138476190Y-46991190D01*
X138476190Y-46991190D02*
X138095238Y-46991190D01*
X139095238Y-46943571D02*
X139428571Y-46943571D01*
X139571428Y-47467380D02*
X139095238Y-47467380D01*
X139095238Y-47467380D02*
X139095238Y-46467380D01*
X139095238Y-46467380D02*
X139571428Y-46467380D01*
X140333333Y-46943571D02*
X140000000Y-46943571D01*
X140000000Y-47467380D02*
X140000000Y-46467380D01*
X140000000Y-46467380D02*
X140476190Y-46467380D01*
X141000000Y-46467380D02*
X141000000Y-46705476D01*
X140761905Y-46610238D02*
X141000000Y-46705476D01*
X141000000Y-46705476D02*
X141238095Y-46610238D01*
X140857143Y-46895952D02*
X141000000Y-46705476D01*
X141000000Y-46705476D02*
X141142857Y-46895952D01*
X141761905Y-46467380D02*
X141761905Y-46705476D01*
X141523810Y-46610238D02*
X141761905Y-46705476D01*
X141761905Y-46705476D02*
X142000000Y-46610238D01*
X141619048Y-46895952D02*
X141761905Y-46705476D01*
X141761905Y-46705476D02*
X141904762Y-46895952D01*
%TO.C,HS1*%
X129581905Y-61377380D02*
X129581905Y-60377380D01*
X129581905Y-60853571D02*
X130153333Y-60853571D01*
X130153333Y-61377380D02*
X130153333Y-60377380D01*
X130581905Y-61329761D02*
X130724762Y-61377380D01*
X130724762Y-61377380D02*
X130962857Y-61377380D01*
X130962857Y-61377380D02*
X131058095Y-61329761D01*
X131058095Y-61329761D02*
X131105714Y-61282142D01*
X131105714Y-61282142D02*
X131153333Y-61186904D01*
X131153333Y-61186904D02*
X131153333Y-61091666D01*
X131153333Y-61091666D02*
X131105714Y-60996428D01*
X131105714Y-60996428D02*
X131058095Y-60948809D01*
X131058095Y-60948809D02*
X130962857Y-60901190D01*
X130962857Y-60901190D02*
X130772381Y-60853571D01*
X130772381Y-60853571D02*
X130677143Y-60805952D01*
X130677143Y-60805952D02*
X130629524Y-60758333D01*
X130629524Y-60758333D02*
X130581905Y-60663095D01*
X130581905Y-60663095D02*
X130581905Y-60567857D01*
X130581905Y-60567857D02*
X130629524Y-60472619D01*
X130629524Y-60472619D02*
X130677143Y-60425000D01*
X130677143Y-60425000D02*
X130772381Y-60377380D01*
X130772381Y-60377380D02*
X131010476Y-60377380D01*
X131010476Y-60377380D02*
X131153333Y-60425000D01*
X132105714Y-61377380D02*
X131534286Y-61377380D01*
X131820000Y-61377380D02*
X131820000Y-60377380D01*
X131820000Y-60377380D02*
X131724762Y-60520238D01*
X131724762Y-60520238D02*
X131629524Y-60615476D01*
X131629524Y-60615476D02*
X131534286Y-60663095D01*
%TO.C,U1*%
X91688095Y-49837380D02*
X91688095Y-50646904D01*
X91688095Y-50646904D02*
X91735714Y-50742142D01*
X91735714Y-50742142D02*
X91783333Y-50789761D01*
X91783333Y-50789761D02*
X91878571Y-50837380D01*
X91878571Y-50837380D02*
X92069047Y-50837380D01*
X92069047Y-50837380D02*
X92164285Y-50789761D01*
X92164285Y-50789761D02*
X92211904Y-50742142D01*
X92211904Y-50742142D02*
X92259523Y-50646904D01*
X92259523Y-50646904D02*
X92259523Y-49837380D01*
X93259523Y-50837380D02*
X92688095Y-50837380D01*
X92973809Y-50837380D02*
X92973809Y-49837380D01*
X92973809Y-49837380D02*
X92878571Y-49980238D01*
X92878571Y-49980238D02*
X92783333Y-50075476D01*
X92783333Y-50075476D02*
X92688095Y-50123095D01*
%TO.C,Q1*%
X121224761Y-74222619D02*
X121129523Y-74175000D01*
X121129523Y-74175000D02*
X121034285Y-74079761D01*
X121034285Y-74079761D02*
X120891428Y-73936904D01*
X120891428Y-73936904D02*
X120796190Y-73889285D01*
X120796190Y-73889285D02*
X120700952Y-73889285D01*
X120748571Y-74127380D02*
X120653333Y-74079761D01*
X120653333Y-74079761D02*
X120558095Y-73984523D01*
X120558095Y-73984523D02*
X120510476Y-73794047D01*
X120510476Y-73794047D02*
X120510476Y-73460714D01*
X120510476Y-73460714D02*
X120558095Y-73270238D01*
X120558095Y-73270238D02*
X120653333Y-73175000D01*
X120653333Y-73175000D02*
X120748571Y-73127380D01*
X120748571Y-73127380D02*
X120939047Y-73127380D01*
X120939047Y-73127380D02*
X121034285Y-73175000D01*
X121034285Y-73175000D02*
X121129523Y-73270238D01*
X121129523Y-73270238D02*
X121177142Y-73460714D01*
X121177142Y-73460714D02*
X121177142Y-73794047D01*
X121177142Y-73794047D02*
X121129523Y-73984523D01*
X121129523Y-73984523D02*
X121034285Y-74079761D01*
X121034285Y-74079761D02*
X120939047Y-74127380D01*
X120939047Y-74127380D02*
X120748571Y-74127380D01*
X122129523Y-74127380D02*
X121558095Y-74127380D01*
X121843809Y-74127380D02*
X121843809Y-73127380D01*
X121843809Y-73127380D02*
X121748571Y-73270238D01*
X121748571Y-73270238D02*
X121653333Y-73365476D01*
X121653333Y-73365476D02*
X121558095Y-73413095D01*
%TO.C,J2*%
X133651666Y-69217380D02*
X133651666Y-69931666D01*
X133651666Y-69931666D02*
X133604047Y-70074523D01*
X133604047Y-70074523D02*
X133508809Y-70169761D01*
X133508809Y-70169761D02*
X133365952Y-70217380D01*
X133365952Y-70217380D02*
X133270714Y-70217380D01*
X134080238Y-69312619D02*
X134127857Y-69265000D01*
X134127857Y-69265000D02*
X134223095Y-69217380D01*
X134223095Y-69217380D02*
X134461190Y-69217380D01*
X134461190Y-69217380D02*
X134556428Y-69265000D01*
X134556428Y-69265000D02*
X134604047Y-69312619D01*
X134604047Y-69312619D02*
X134651666Y-69407857D01*
X134651666Y-69407857D02*
X134651666Y-69503095D01*
X134651666Y-69503095D02*
X134604047Y-69645952D01*
X134604047Y-69645952D02*
X134032619Y-70217380D01*
X134032619Y-70217380D02*
X134651666Y-70217380D01*
%TO.C,REF\u002A\u002A*%
X138666666Y-79467380D02*
X138333333Y-78991190D01*
X138095238Y-79467380D02*
X138095238Y-78467380D01*
X138095238Y-78467380D02*
X138476190Y-78467380D01*
X138476190Y-78467380D02*
X138571428Y-78515000D01*
X138571428Y-78515000D02*
X138619047Y-78562619D01*
X138619047Y-78562619D02*
X138666666Y-78657857D01*
X138666666Y-78657857D02*
X138666666Y-78800714D01*
X138666666Y-78800714D02*
X138619047Y-78895952D01*
X138619047Y-78895952D02*
X138571428Y-78943571D01*
X138571428Y-78943571D02*
X138476190Y-78991190D01*
X138476190Y-78991190D02*
X138095238Y-78991190D01*
X139095238Y-78943571D02*
X139428571Y-78943571D01*
X139571428Y-79467380D02*
X139095238Y-79467380D01*
X139095238Y-79467380D02*
X139095238Y-78467380D01*
X139095238Y-78467380D02*
X139571428Y-78467380D01*
X140333333Y-78943571D02*
X140000000Y-78943571D01*
X140000000Y-79467380D02*
X140000000Y-78467380D01*
X140000000Y-78467380D02*
X140476190Y-78467380D01*
X141000000Y-78467380D02*
X141000000Y-78705476D01*
X140761905Y-78610238D02*
X141000000Y-78705476D01*
X141000000Y-78705476D02*
X141238095Y-78610238D01*
X140857143Y-78895952D02*
X141000000Y-78705476D01*
X141000000Y-78705476D02*
X141142857Y-78895952D01*
X141761905Y-78467380D02*
X141761905Y-78705476D01*
X141523810Y-78610238D02*
X141761905Y-78705476D01*
X141761905Y-78705476D02*
X142000000Y-78610238D01*
X141619048Y-78895952D02*
X141761905Y-78705476D01*
X141761905Y-78705476D02*
X141904762Y-78895952D01*
D12*
%TO.C,J4*%
X149225000Y-63500000D02*
X133985000Y-63500000D01*
X149225000Y-57150000D02*
X133985000Y-57150000D01*
X149225000Y-55880000D02*
X149225000Y-63500000D01*
X149225000Y-55880000D02*
X133985000Y-55880000D01*
X133985000Y-55880000D02*
X133985000Y-63500000D01*
%TO.C,R1*%
X96925000Y-54610000D02*
X100235000Y-54610000D01*
X100235000Y-53240000D02*
X100235000Y-55980000D01*
X100235000Y-55980000D02*
X106775000Y-55980000D01*
X106775000Y-53240000D02*
X100235000Y-53240000D01*
X106775000Y-55980000D02*
X106775000Y-53240000D01*
X110085000Y-54610000D02*
X106775000Y-54610000D01*
%TO.C,HS1*%
X131280000Y-49680000D02*
X127510000Y-51830000D01*
X118260000Y-49680000D02*
X122030000Y-51830000D01*
X128040000Y-49690000D02*
X126150000Y-51650000D01*
X121500000Y-49690000D02*
X123390000Y-51650000D01*
X128190000Y-49780000D02*
X128040000Y-49690000D01*
X121350000Y-49780000D02*
X121500000Y-49690000D01*
X131400000Y-49800000D02*
X131280000Y-49680000D01*
X118140000Y-49800000D02*
X118260000Y-49680000D01*
X127510000Y-51830000D02*
X128190000Y-49780000D01*
X122030000Y-51830000D02*
X121350000Y-49780000D01*
X131320000Y-54440000D02*
X128520000Y-55100000D01*
X118220000Y-54440000D02*
X121020000Y-55100000D01*
X131380000Y-54620000D02*
X131320000Y-54440000D01*
X118160000Y-54620000D02*
X118220000Y-54440000D01*
X128520000Y-55100000D02*
X131400000Y-49800000D01*
X121020000Y-55100000D02*
X118140000Y-49800000D01*
X127660000Y-57120000D02*
X131380000Y-54620000D01*
X121880000Y-57120000D02*
X118160000Y-54620000D01*
X131370000Y-58740000D02*
X127660000Y-57130000D01*
X118170000Y-58740000D02*
X121880000Y-57130000D01*
X131370000Y-59410000D02*
X131370000Y-58740000D01*
X125620000Y-59410000D02*
X131370000Y-59410000D01*
X123920000Y-59410000D02*
X118170000Y-59410000D01*
X118170000Y-59410000D02*
X118170000Y-58740000D01*
X125620000Y-67310000D02*
X125620000Y-59410000D01*
X125620000Y-67310000D02*
X125620000Y-75210000D01*
X123920000Y-67310000D02*
X123920000Y-59410000D01*
X123920000Y-67310000D02*
X123920000Y-75210000D01*
X131370000Y-75210000D02*
X131370000Y-75880000D01*
X125620000Y-75210000D02*
X131370000Y-75210000D01*
X123920000Y-75210000D02*
X118170000Y-75210000D01*
X118170000Y-75210000D02*
X118170000Y-75880000D01*
X131370000Y-75880000D02*
X127660000Y-77490000D01*
X118170000Y-75880000D02*
X121880000Y-77490000D01*
X127660000Y-77500000D02*
X131380000Y-80000000D01*
X121880000Y-77500000D02*
X118160000Y-80000000D01*
X128520000Y-79520000D02*
X131400000Y-84820000D01*
X121020000Y-79520000D02*
X118140000Y-84820000D01*
X131380000Y-80000000D02*
X131320000Y-80180000D01*
X118160000Y-80000000D02*
X118220000Y-80180000D01*
X131320000Y-80180000D02*
X128520000Y-79520000D01*
X118220000Y-80180000D02*
X121020000Y-79520000D01*
X127510000Y-82790000D02*
X128190000Y-84840000D01*
X122030000Y-82790000D02*
X121350000Y-84840000D01*
X131400000Y-84820000D02*
X131280000Y-84940000D01*
X118140000Y-84820000D02*
X118260000Y-84940000D01*
X128190000Y-84840000D02*
X128040000Y-84930000D01*
X121350000Y-84840000D02*
X121500000Y-84930000D01*
X128040000Y-84930000D02*
X126150000Y-82970000D01*
X121500000Y-84930000D02*
X123390000Y-82970000D01*
X131280000Y-84940000D02*
X127510000Y-82790000D01*
X118260000Y-84940000D02*
X122030000Y-82790000D01*
%TO.C,U1*%
X115950000Y-58250000D02*
X115950000Y-83680000D01*
X115950000Y-58250000D02*
X113410000Y-58250000D01*
X113410000Y-58250000D02*
X113410000Y-51350000D01*
X113410000Y-51350000D02*
X90090000Y-51350000D01*
X92210000Y-85810000D02*
X113820000Y-85810000D01*
X90090000Y-51350000D02*
X90090000Y-83680000D01*
X113820000Y-85810000D02*
G75*
G03*
X115950000Y-83680000I-2J2130002D01*
G01*
X90090000Y-83680000D02*
G75*
G03*
X92220000Y-85810000I2130000J0D01*
G01*
G36*
X116990000Y-78105000D02*
G01*
X116355000Y-77470000D01*
X116990000Y-76835000D01*
X116990000Y-78105000D01*
G37*
D11*
X116990000Y-78105000D02*
X116355000Y-77470000D01*
X116990000Y-76835000D01*
X116990000Y-78105000D01*
D12*
%TO.C,Q1*%
X124555000Y-62190000D02*
X119914000Y-62190000D01*
X124555000Y-62190000D02*
X124555000Y-72430000D01*
X123045000Y-62190000D02*
X123045000Y-72430000D01*
X119914000Y-62190000D02*
X119914000Y-72430000D01*
X124555000Y-65460000D02*
X123045000Y-65460000D01*
X124555000Y-69161000D02*
X123045000Y-69161000D01*
X124555000Y-72430000D02*
X119914000Y-72430000D01*
%TO.C,J2*%
X136525000Y-66040000D02*
X136525000Y-73660000D01*
X136525000Y-73660000D02*
X146685000Y-73660000D01*
X146685000Y-66040000D02*
X136525000Y-66040000D01*
X146685000Y-72390000D02*
X136525000Y-72390000D01*
X146685000Y-73660000D02*
X146685000Y-66040000D01*
%TD*%
%LPC*%
D13*
%TO.C,REF\u002A\u002A*%
X100000000Y-82000000D03*
%TD*%
%TO.C,REF\u002A\u002A*%
X100000000Y-50000000D03*
%TD*%
D14*
%TO.C,J4*%
X146684999Y-59689999D03*
D15*
X141605000Y-59690000D03*
X136525000Y-59690000D03*
%TD*%
D16*
%TO.C,R1*%
X95885000Y-54610000D03*
D17*
X111124999Y-54609999D03*
%TD*%
D13*
%TO.C,REF\u002A\u002A*%
X140000000Y-50000000D03*
%TD*%
D18*
%TO.C,HS1*%
X124770000Y-54610000D03*
X124770000Y-80010000D03*
%TD*%
D19*
%TO.C,U1*%
X114449999Y-77469999D03*
D20*
X114449999Y-74929999D03*
X114449999Y-72389999D03*
X114449999Y-69849999D03*
X114449999Y-67309999D03*
X114449999Y-64769999D03*
X114449999Y-62229999D03*
X114449999Y-59689999D03*
X91589999Y-59689999D03*
X91589999Y-62229999D03*
X91589999Y-64769999D03*
X91589999Y-67309999D03*
X91589999Y-69849999D03*
X91589999Y-72389999D03*
X91589999Y-74929999D03*
X91589999Y-77469999D03*
%TD*%
D21*
%TO.C,Q1*%
X121284999Y-64769999D03*
D22*
X121284999Y-67309999D03*
X121284999Y-69849999D03*
%TD*%
D14*
%TO.C,J2*%
X139064999Y-69849999D03*
D15*
X144145000Y-69850000D03*
%TD*%
D13*
%TO.C,REF\u002A\u002A*%
X140000000Y-82000000D03*
%TD*%
M02*
