M48
; DRILL file {KiCad (7.0.0)} date Sun Feb  9 12:12:52 2025
; FORMAT={-:-/ absolute / inch / decimal}
; #@! TF.CreationDate,2025-02-09T12:12:52+01:00
; #@! TF.GenerationSoftware,Kicad,Pcbnew,(7.0.0)
; #@! TF.FileFunction,Plated,1,2,PTH
FMAT,2
INCH
; #@! TA.AperFunction,Plated,PTH,ComponentDrill
T1C0.0315
; #@! TA.AperFunction,Plated,PTH,ComponentDrill
T2C0.0394
; #@! TA.AperFunction,Plated,PTH,ComponentDrill
T3C0.0433
; #@! TA.AperFunction,Plated,PTH,ComponentDrill
T4C0.0598
; #@! TA.AperFunction,Plated,PTH,ComponentDrill
T5C0.0866
; #@! TA.AperFunction,Plated,PTH,ComponentDrill
T6C0.0984
%
G90
G05
T1
X3.775Y-2.15
X4.375Y-2.15
T2
X3.6059Y-2.35
X3.6059Y-2.45
X3.6059Y-2.55
X3.6059Y-2.65
X3.6059Y-2.75
X3.6059Y-2.85
X3.6059Y-2.95
X3.6059Y-3.05
X4.5059Y-2.35
X4.5059Y-2.45
X4.5059Y-2.55
X4.5059Y-2.65
X4.5059Y-2.75
X4.5059Y-2.85
X4.5059Y-2.95
X4.5059Y-3.05
T3
X4.775Y-2.55
X4.775Y-2.65
X4.775Y-2.75
T4
X5.375Y-2.35
X5.475Y-2.75
X5.575Y-2.35
X5.675Y-2.75
X5.775Y-2.35
T5
X3.937Y-1.9685
X3.937Y-3.2283
X5.5118Y-1.9685
X5.5118Y-3.2283
T6
X4.9122Y-2.15
X4.9122Y-3.15
T0
M30
