%TF.GenerationSoftware,KiCad,Pcbnew,(7.0.0-0)*%
%TF.CreationDate,2023-07-04T17:21:08+02:00*%
%TF.ProjectId,clim-driver,636c696d-2d64-4726-9976-65722e6b6963,rev?*%
%TF.SameCoordinates,Original*%
%TF.FileFunction,Legend,Top*%
%TF.FilePolarity,Positive*%
%FSLAX46Y46*%
G04 Gerber Fmt 4.6, Leading zero omitted, Abs format (unit mm)*
G04 Created by KiCad (PCBNEW (7.0.0-0)) date 2023-07-04 17:21:08*
%MOMM*%
%LPD*%
G01*
G04 APERTURE LIST*
G04 Aperture macros list*
%AMRoundRect*
0 Rectangle with rounded corners*
0 $1 Rounding radius*
0 $2 $3 $4 $5 $6 $7 $8 $9 X,Y pos of 4 corners*
0 Add a 4 corners polygon primitive as box body*
4,1,4,$2,$3,$4,$5,$6,$7,$8,$9,$2,$3,0*
0 Add four circle primitives for the rounded corners*
1,1,$1+$1,$2,$3*
1,1,$1+$1,$4,$5*
1,1,$1+$1,$6,$7*
1,1,$1+$1,$8,$9*
0 Add four rect primitives between the rounded corners*
20,1,$1+$1,$2,$3,$4,$5,0*
20,1,$1+$1,$4,$5,$6,$7,0*
20,1,$1+$1,$6,$7,$8,$9,0*
20,1,$1+$1,$8,$9,$2,$3,0*%
G04 Aperture macros list end*
%ADD10C,0.150000*%
%ADD11C,0.125000*%
%ADD12C,0.120000*%
%ADD13C,3.800000*%
%ADD14RoundRect,0.200000X-0.200000X-0.275000X0.200000X-0.275000X0.200000X0.275000X-0.200000X0.275000X0*%
%ADD15R,1.700000X1.700000*%
%ADD16O,1.700000X1.700000*%
%ADD17RoundRect,0.150000X0.150000X-0.587500X0.150000X0.587500X-0.150000X0.587500X-0.150000X-0.587500X0*%
%ADD18R,3.000000X3.000000*%
%ADD19C,3.000000*%
%ADD20RoundRect,0.243750X-0.243750X-0.456250X0.243750X-0.456250X0.243750X0.456250X-0.243750X0.456250X0*%
%ADD21R,2.000000X2.000000*%
%ADD22O,2.000000X1.600000*%
%ADD23RoundRect,0.250000X-0.312500X-1.075000X0.312500X-1.075000X0.312500X1.075000X-0.312500X1.075000X0*%
%ADD24R,2.300000X2.000000*%
%ADD25C,2.300000*%
%ADD26RoundRect,0.135000X0.185000X-0.135000X0.185000X0.135000X-0.185000X0.135000X-0.185000X-0.135000X0*%
G04 APERTURE END LIST*
D10*
X117713095Y-59472380D02*
X117713095Y-58472380D01*
X117713095Y-58472380D02*
X117951190Y-58472380D01*
X117951190Y-58472380D02*
X118094047Y-58520000D01*
X118094047Y-58520000D02*
X118189285Y-58615238D01*
X118189285Y-58615238D02*
X118236904Y-58710476D01*
X118236904Y-58710476D02*
X118284523Y-58900952D01*
X118284523Y-58900952D02*
X118284523Y-59043809D01*
X118284523Y-59043809D02*
X118236904Y-59234285D01*
X118236904Y-59234285D02*
X118189285Y-59329523D01*
X118189285Y-59329523D02*
X118094047Y-59424761D01*
X118094047Y-59424761D02*
X117951190Y-59472380D01*
X117951190Y-59472380D02*
X117713095Y-59472380D01*
X118665476Y-59424761D02*
X118808333Y-59472380D01*
X118808333Y-59472380D02*
X119046428Y-59472380D01*
X119046428Y-59472380D02*
X119141666Y-59424761D01*
X119141666Y-59424761D02*
X119189285Y-59377142D01*
X119189285Y-59377142D02*
X119236904Y-59281904D01*
X119236904Y-59281904D02*
X119236904Y-59186666D01*
X119236904Y-59186666D02*
X119189285Y-59091428D01*
X119189285Y-59091428D02*
X119141666Y-59043809D01*
X119141666Y-59043809D02*
X119046428Y-58996190D01*
X119046428Y-58996190D02*
X118855952Y-58948571D01*
X118855952Y-58948571D02*
X118760714Y-58900952D01*
X118760714Y-58900952D02*
X118713095Y-58853333D01*
X118713095Y-58853333D02*
X118665476Y-58758095D01*
X118665476Y-58758095D02*
X118665476Y-58662857D01*
X118665476Y-58662857D02*
X118713095Y-58567619D01*
X118713095Y-58567619D02*
X118760714Y-58520000D01*
X118760714Y-58520000D02*
X118855952Y-58472380D01*
X118855952Y-58472380D02*
X119094047Y-58472380D01*
X119094047Y-58472380D02*
X119236904Y-58520000D01*
X120189285Y-59472380D02*
X119617857Y-59472380D01*
X119903571Y-59472380D02*
X119903571Y-58472380D01*
X119903571Y-58472380D02*
X119808333Y-58615238D01*
X119808333Y-58615238D02*
X119713095Y-58710476D01*
X119713095Y-58710476D02*
X119617857Y-58758095D01*
X120760714Y-58900952D02*
X120665476Y-58853333D01*
X120665476Y-58853333D02*
X120617857Y-58805714D01*
X120617857Y-58805714D02*
X120570238Y-58710476D01*
X120570238Y-58710476D02*
X120570238Y-58662857D01*
X120570238Y-58662857D02*
X120617857Y-58567619D01*
X120617857Y-58567619D02*
X120665476Y-58520000D01*
X120665476Y-58520000D02*
X120760714Y-58472380D01*
X120760714Y-58472380D02*
X120951190Y-58472380D01*
X120951190Y-58472380D02*
X121046428Y-58520000D01*
X121046428Y-58520000D02*
X121094047Y-58567619D01*
X121094047Y-58567619D02*
X121141666Y-58662857D01*
X121141666Y-58662857D02*
X121141666Y-58710476D01*
X121141666Y-58710476D02*
X121094047Y-58805714D01*
X121094047Y-58805714D02*
X121046428Y-58853333D01*
X121046428Y-58853333D02*
X120951190Y-58900952D01*
X120951190Y-58900952D02*
X120760714Y-58900952D01*
X120760714Y-58900952D02*
X120665476Y-58948571D01*
X120665476Y-58948571D02*
X120617857Y-58996190D01*
X120617857Y-58996190D02*
X120570238Y-59091428D01*
X120570238Y-59091428D02*
X120570238Y-59281904D01*
X120570238Y-59281904D02*
X120617857Y-59377142D01*
X120617857Y-59377142D02*
X120665476Y-59424761D01*
X120665476Y-59424761D02*
X120760714Y-59472380D01*
X120760714Y-59472380D02*
X120951190Y-59472380D01*
X120951190Y-59472380D02*
X121046428Y-59424761D01*
X121046428Y-59424761D02*
X121094047Y-59377142D01*
X121094047Y-59377142D02*
X121141666Y-59281904D01*
X121141666Y-59281904D02*
X121141666Y-59091428D01*
X121141666Y-59091428D02*
X121094047Y-58996190D01*
X121094047Y-58996190D02*
X121046428Y-58948571D01*
X121046428Y-58948571D02*
X120951190Y-58900952D01*
X121903571Y-58948571D02*
X122046428Y-58996190D01*
X122046428Y-58996190D02*
X122094047Y-59043809D01*
X122094047Y-59043809D02*
X122141666Y-59139047D01*
X122141666Y-59139047D02*
X122141666Y-59281904D01*
X122141666Y-59281904D02*
X122094047Y-59377142D01*
X122094047Y-59377142D02*
X122046428Y-59424761D01*
X122046428Y-59424761D02*
X121951190Y-59472380D01*
X121951190Y-59472380D02*
X121570238Y-59472380D01*
X121570238Y-59472380D02*
X121570238Y-58472380D01*
X121570238Y-58472380D02*
X121903571Y-58472380D01*
X121903571Y-58472380D02*
X121998809Y-58520000D01*
X121998809Y-58520000D02*
X122046428Y-58567619D01*
X122046428Y-58567619D02*
X122094047Y-58662857D01*
X122094047Y-58662857D02*
X122094047Y-58758095D01*
X122094047Y-58758095D02*
X122046428Y-58853333D01*
X122046428Y-58853333D02*
X121998809Y-58900952D01*
X121998809Y-58900952D02*
X121903571Y-58948571D01*
X121903571Y-58948571D02*
X121570238Y-58948571D01*
X122522619Y-58567619D02*
X122570238Y-58520000D01*
X122570238Y-58520000D02*
X122665476Y-58472380D01*
X122665476Y-58472380D02*
X122903571Y-58472380D01*
X122903571Y-58472380D02*
X122998809Y-58520000D01*
X122998809Y-58520000D02*
X123046428Y-58567619D01*
X123046428Y-58567619D02*
X123094047Y-58662857D01*
X123094047Y-58662857D02*
X123094047Y-58758095D01*
X123094047Y-58758095D02*
X123046428Y-58900952D01*
X123046428Y-58900952D02*
X122475000Y-59472380D01*
X122475000Y-59472380D02*
X123094047Y-59472380D01*
X123713095Y-58472380D02*
X123808333Y-58472380D01*
X123808333Y-58472380D02*
X123903571Y-58520000D01*
X123903571Y-58520000D02*
X123951190Y-58567619D01*
X123951190Y-58567619D02*
X123998809Y-58662857D01*
X123998809Y-58662857D02*
X124046428Y-58853333D01*
X124046428Y-58853333D02*
X124046428Y-59091428D01*
X124046428Y-59091428D02*
X123998809Y-59281904D01*
X123998809Y-59281904D02*
X123951190Y-59377142D01*
X123951190Y-59377142D02*
X123903571Y-59424761D01*
X123903571Y-59424761D02*
X123808333Y-59472380D01*
X123808333Y-59472380D02*
X123713095Y-59472380D01*
X123713095Y-59472380D02*
X123617857Y-59424761D01*
X123617857Y-59424761D02*
X123570238Y-59377142D01*
X123570238Y-59377142D02*
X123522619Y-59281904D01*
X123522619Y-59281904D02*
X123475000Y-59091428D01*
X123475000Y-59091428D02*
X123475000Y-58853333D01*
X123475000Y-58853333D02*
X123522619Y-58662857D01*
X123522619Y-58662857D02*
X123570238Y-58567619D01*
X123570238Y-58567619D02*
X123617857Y-58520000D01*
X123617857Y-58520000D02*
X123713095Y-58472380D01*
D11*
X123596429Y-75556857D02*
X124053572Y-75556857D01*
X123367857Y-66324000D02*
X123310715Y-66295428D01*
X123310715Y-66295428D02*
X123225000Y-66295428D01*
X123225000Y-66295428D02*
X123139286Y-66324000D01*
X123139286Y-66324000D02*
X123082143Y-66381142D01*
X123082143Y-66381142D02*
X123053572Y-66438285D01*
X123053572Y-66438285D02*
X123025000Y-66552571D01*
X123025000Y-66552571D02*
X123025000Y-66638285D01*
X123025000Y-66638285D02*
X123053572Y-66752571D01*
X123053572Y-66752571D02*
X123082143Y-66809714D01*
X123082143Y-66809714D02*
X123139286Y-66866857D01*
X123139286Y-66866857D02*
X123225000Y-66895428D01*
X123225000Y-66895428D02*
X123282143Y-66895428D01*
X123282143Y-66895428D02*
X123367857Y-66866857D01*
X123367857Y-66866857D02*
X123396429Y-66838285D01*
X123396429Y-66838285D02*
X123396429Y-66638285D01*
X123396429Y-66638285D02*
X123282143Y-66638285D01*
X123653572Y-66895428D02*
X123653572Y-66295428D01*
X123653572Y-66295428D02*
X123996429Y-66895428D01*
X123996429Y-66895428D02*
X123996429Y-66295428D01*
X124282143Y-66895428D02*
X124282143Y-66295428D01*
X124282143Y-66295428D02*
X124425000Y-66295428D01*
X124425000Y-66295428D02*
X124510714Y-66324000D01*
X124510714Y-66324000D02*
X124567857Y-66381142D01*
X124567857Y-66381142D02*
X124596428Y-66438285D01*
X124596428Y-66438285D02*
X124625000Y-66552571D01*
X124625000Y-66552571D02*
X124625000Y-66638285D01*
X124625000Y-66638285D02*
X124596428Y-66752571D01*
X124596428Y-66752571D02*
X124567857Y-66809714D01*
X124567857Y-66809714D02*
X124510714Y-66866857D01*
X124510714Y-66866857D02*
X124425000Y-66895428D01*
X124425000Y-66895428D02*
X124282143Y-66895428D01*
X123082142Y-63755428D02*
X123453570Y-63755428D01*
X123453570Y-63755428D02*
X123253570Y-63984000D01*
X123253570Y-63984000D02*
X123339285Y-63984000D01*
X123339285Y-63984000D02*
X123396428Y-64012571D01*
X123396428Y-64012571D02*
X123424999Y-64041142D01*
X123424999Y-64041142D02*
X123453570Y-64098285D01*
X123453570Y-64098285D02*
X123453570Y-64241142D01*
X123453570Y-64241142D02*
X123424999Y-64298285D01*
X123424999Y-64298285D02*
X123396428Y-64326857D01*
X123396428Y-64326857D02*
X123339285Y-64355428D01*
X123339285Y-64355428D02*
X123167856Y-64355428D01*
X123167856Y-64355428D02*
X123110713Y-64326857D01*
X123110713Y-64326857D02*
X123082142Y-64298285D01*
X123624999Y-63755428D02*
X123824999Y-64355428D01*
X123824999Y-64355428D02*
X124024999Y-63755428D01*
X124167857Y-63755428D02*
X124539285Y-63755428D01*
X124539285Y-63755428D02*
X124339285Y-63984000D01*
X124339285Y-63984000D02*
X124425000Y-63984000D01*
X124425000Y-63984000D02*
X124482143Y-64012571D01*
X124482143Y-64012571D02*
X124510714Y-64041142D01*
X124510714Y-64041142D02*
X124539285Y-64098285D01*
X124539285Y-64098285D02*
X124539285Y-64241142D01*
X124539285Y-64241142D02*
X124510714Y-64298285D01*
X124510714Y-64298285D02*
X124482143Y-64326857D01*
X124482143Y-64326857D02*
X124425000Y-64355428D01*
X124425000Y-64355428D02*
X124253571Y-64355428D01*
X124253571Y-64355428D02*
X124196428Y-64326857D01*
X124196428Y-64326857D02*
X124167857Y-64298285D01*
D10*
X118824285Y-70902380D02*
X118348095Y-70902380D01*
X118348095Y-70902380D02*
X118348095Y-69902380D01*
X119157619Y-70378571D02*
X119490952Y-70378571D01*
X119633809Y-70902380D02*
X119157619Y-70902380D01*
X119157619Y-70902380D02*
X119157619Y-69902380D01*
X119157619Y-69902380D02*
X119633809Y-69902380D01*
X120062381Y-70902380D02*
X120062381Y-69902380D01*
X120062381Y-69902380D02*
X120300476Y-69902380D01*
X120300476Y-69902380D02*
X120443333Y-69950000D01*
X120443333Y-69950000D02*
X120538571Y-70045238D01*
X120538571Y-70045238D02*
X120586190Y-70140476D01*
X120586190Y-70140476D02*
X120633809Y-70330952D01*
X120633809Y-70330952D02*
X120633809Y-70473809D01*
X120633809Y-70473809D02*
X120586190Y-70664285D01*
X120586190Y-70664285D02*
X120538571Y-70759523D01*
X120538571Y-70759523D02*
X120443333Y-70854761D01*
X120443333Y-70854761D02*
X120300476Y-70902380D01*
X120300476Y-70902380D02*
X120062381Y-70902380D01*
X121662381Y-70902380D02*
X121662381Y-69902380D01*
X122709999Y-70902380D02*
X122376666Y-70426190D01*
X122138571Y-70902380D02*
X122138571Y-69902380D01*
X122138571Y-69902380D02*
X122519523Y-69902380D01*
X122519523Y-69902380D02*
X122614761Y-69950000D01*
X122614761Y-69950000D02*
X122662380Y-69997619D01*
X122662380Y-69997619D02*
X122709999Y-70092857D01*
X122709999Y-70092857D02*
X122709999Y-70235714D01*
X122709999Y-70235714D02*
X122662380Y-70330952D01*
X122662380Y-70330952D02*
X122614761Y-70378571D01*
X122614761Y-70378571D02*
X122519523Y-70426190D01*
X122519523Y-70426190D02*
X122138571Y-70426190D01*
D11*
X123596429Y-73016857D02*
X124053572Y-73016857D01*
X123825000Y-73245428D02*
X123825000Y-72788285D01*
X123510715Y-61815428D02*
X123510715Y-61215428D01*
X123796429Y-61815428D02*
X123796429Y-61215428D01*
X123796429Y-61215428D02*
X124139286Y-61815428D01*
X124139286Y-61815428D02*
X124139286Y-61215428D01*
D10*
%TO.C,REF\u002A\u002A*%
X98666666Y-79467380D02*
X98333333Y-78991190D01*
X98095238Y-79467380D02*
X98095238Y-78467380D01*
X98095238Y-78467380D02*
X98476190Y-78467380D01*
X98476190Y-78467380D02*
X98571428Y-78515000D01*
X98571428Y-78515000D02*
X98619047Y-78562619D01*
X98619047Y-78562619D02*
X98666666Y-78657857D01*
X98666666Y-78657857D02*
X98666666Y-78800714D01*
X98666666Y-78800714D02*
X98619047Y-78895952D01*
X98619047Y-78895952D02*
X98571428Y-78943571D01*
X98571428Y-78943571D02*
X98476190Y-78991190D01*
X98476190Y-78991190D02*
X98095238Y-78991190D01*
X99095238Y-78943571D02*
X99428571Y-78943571D01*
X99571428Y-79467380D02*
X99095238Y-79467380D01*
X99095238Y-79467380D02*
X99095238Y-78467380D01*
X99095238Y-78467380D02*
X99571428Y-78467380D01*
X100333333Y-78943571D02*
X100000000Y-78943571D01*
X100000000Y-79467380D02*
X100000000Y-78467380D01*
X100000000Y-78467380D02*
X100476190Y-78467380D01*
X101000000Y-78467380D02*
X101000000Y-78705476D01*
X100761905Y-78610238D02*
X101000000Y-78705476D01*
X101000000Y-78705476D02*
X101238095Y-78610238D01*
X100857143Y-78895952D02*
X101000000Y-78705476D01*
X101000000Y-78705476D02*
X101142857Y-78895952D01*
X101761905Y-78467380D02*
X101761905Y-78705476D01*
X101523810Y-78610238D02*
X101761905Y-78705476D01*
X101761905Y-78705476D02*
X102000000Y-78610238D01*
X101619048Y-78895952D02*
X101761905Y-78705476D01*
X101761905Y-78705476D02*
X101904762Y-78895952D01*
X98666666Y-47467380D02*
X98333333Y-46991190D01*
X98095238Y-47467380D02*
X98095238Y-46467380D01*
X98095238Y-46467380D02*
X98476190Y-46467380D01*
X98476190Y-46467380D02*
X98571428Y-46515000D01*
X98571428Y-46515000D02*
X98619047Y-46562619D01*
X98619047Y-46562619D02*
X98666666Y-46657857D01*
X98666666Y-46657857D02*
X98666666Y-46800714D01*
X98666666Y-46800714D02*
X98619047Y-46895952D01*
X98619047Y-46895952D02*
X98571428Y-46943571D01*
X98571428Y-46943571D02*
X98476190Y-46991190D01*
X98476190Y-46991190D02*
X98095238Y-46991190D01*
X99095238Y-46943571D02*
X99428571Y-46943571D01*
X99571428Y-47467380D02*
X99095238Y-47467380D01*
X99095238Y-47467380D02*
X99095238Y-46467380D01*
X99095238Y-46467380D02*
X99571428Y-46467380D01*
X100333333Y-46943571D02*
X100000000Y-46943571D01*
X100000000Y-47467380D02*
X100000000Y-46467380D01*
X100000000Y-46467380D02*
X100476190Y-46467380D01*
X101000000Y-46467380D02*
X101000000Y-46705476D01*
X100761905Y-46610238D02*
X101000000Y-46705476D01*
X101000000Y-46705476D02*
X101238095Y-46610238D01*
X100857143Y-46895952D02*
X101000000Y-46705476D01*
X101000000Y-46705476D02*
X101142857Y-46895952D01*
X101761905Y-46467380D02*
X101761905Y-46705476D01*
X101523810Y-46610238D02*
X101761905Y-46705476D01*
X101761905Y-46705476D02*
X102000000Y-46610238D01*
X101619048Y-46895952D02*
X101761905Y-46705476D01*
X101761905Y-46705476D02*
X101904762Y-46895952D01*
%TO.C,R2*%
X109878333Y-74027380D02*
X109545000Y-73551190D01*
X109306905Y-74027380D02*
X109306905Y-73027380D01*
X109306905Y-73027380D02*
X109687857Y-73027380D01*
X109687857Y-73027380D02*
X109783095Y-73075000D01*
X109783095Y-73075000D02*
X109830714Y-73122619D01*
X109830714Y-73122619D02*
X109878333Y-73217857D01*
X109878333Y-73217857D02*
X109878333Y-73360714D01*
X109878333Y-73360714D02*
X109830714Y-73455952D01*
X109830714Y-73455952D02*
X109783095Y-73503571D01*
X109783095Y-73503571D02*
X109687857Y-73551190D01*
X109687857Y-73551190D02*
X109306905Y-73551190D01*
X110259286Y-73122619D02*
X110306905Y-73075000D01*
X110306905Y-73075000D02*
X110402143Y-73027380D01*
X110402143Y-73027380D02*
X110640238Y-73027380D01*
X110640238Y-73027380D02*
X110735476Y-73075000D01*
X110735476Y-73075000D02*
X110783095Y-73122619D01*
X110783095Y-73122619D02*
X110830714Y-73217857D01*
X110830714Y-73217857D02*
X110830714Y-73313095D01*
X110830714Y-73313095D02*
X110783095Y-73455952D01*
X110783095Y-73455952D02*
X110211667Y-74027380D01*
X110211667Y-74027380D02*
X110830714Y-74027380D01*
%TO.C,J1*%
X117141666Y-62867380D02*
X117141666Y-63581666D01*
X117141666Y-63581666D02*
X117094047Y-63724523D01*
X117094047Y-63724523D02*
X116998809Y-63819761D01*
X116998809Y-63819761D02*
X116855952Y-63867380D01*
X116855952Y-63867380D02*
X116760714Y-63867380D01*
X118141666Y-63867380D02*
X117570238Y-63867380D01*
X117855952Y-63867380D02*
X117855952Y-62867380D01*
X117855952Y-62867380D02*
X117760714Y-63010238D01*
X117760714Y-63010238D02*
X117665476Y-63105476D01*
X117665476Y-63105476D02*
X117570238Y-63153095D01*
%TO.C,Q1*%
X99965119Y-72805238D02*
X99917500Y-72900476D01*
X99917500Y-72900476D02*
X99822261Y-72995714D01*
X99822261Y-72995714D02*
X99679404Y-73138571D01*
X99679404Y-73138571D02*
X99631785Y-73233809D01*
X99631785Y-73233809D02*
X99631785Y-73329047D01*
X99869880Y-73281428D02*
X99822261Y-73376666D01*
X99822261Y-73376666D02*
X99727023Y-73471904D01*
X99727023Y-73471904D02*
X99536547Y-73519523D01*
X99536547Y-73519523D02*
X99203214Y-73519523D01*
X99203214Y-73519523D02*
X99012738Y-73471904D01*
X99012738Y-73471904D02*
X98917500Y-73376666D01*
X98917500Y-73376666D02*
X98869880Y-73281428D01*
X98869880Y-73281428D02*
X98869880Y-73090952D01*
X98869880Y-73090952D02*
X98917500Y-72995714D01*
X98917500Y-72995714D02*
X99012738Y-72900476D01*
X99012738Y-72900476D02*
X99203214Y-72852857D01*
X99203214Y-72852857D02*
X99536547Y-72852857D01*
X99536547Y-72852857D02*
X99727023Y-72900476D01*
X99727023Y-72900476D02*
X99822261Y-72995714D01*
X99822261Y-72995714D02*
X99869880Y-73090952D01*
X99869880Y-73090952D02*
X99869880Y-73281428D01*
X99869880Y-71900476D02*
X99869880Y-72471904D01*
X99869880Y-72186190D02*
X98869880Y-72186190D01*
X98869880Y-72186190D02*
X99012738Y-72281428D01*
X99012738Y-72281428D02*
X99107976Y-72376666D01*
X99107976Y-72376666D02*
X99155595Y-72471904D01*
%TO.C,REF\u002A\u002A*%
X138666666Y-47467380D02*
X138333333Y-46991190D01*
X138095238Y-47467380D02*
X138095238Y-46467380D01*
X138095238Y-46467380D02*
X138476190Y-46467380D01*
X138476190Y-46467380D02*
X138571428Y-46515000D01*
X138571428Y-46515000D02*
X138619047Y-46562619D01*
X138619047Y-46562619D02*
X138666666Y-46657857D01*
X138666666Y-46657857D02*
X138666666Y-46800714D01*
X138666666Y-46800714D02*
X138619047Y-46895952D01*
X138619047Y-46895952D02*
X138571428Y-46943571D01*
X138571428Y-46943571D02*
X138476190Y-46991190D01*
X138476190Y-46991190D02*
X138095238Y-46991190D01*
X139095238Y-46943571D02*
X139428571Y-46943571D01*
X139571428Y-47467380D02*
X139095238Y-47467380D01*
X139095238Y-47467380D02*
X139095238Y-46467380D01*
X139095238Y-46467380D02*
X139571428Y-46467380D01*
X140333333Y-46943571D02*
X140000000Y-46943571D01*
X140000000Y-47467380D02*
X140000000Y-46467380D01*
X140000000Y-46467380D02*
X140476190Y-46467380D01*
X141000000Y-46467380D02*
X141000000Y-46705476D01*
X140761905Y-46610238D02*
X141000000Y-46705476D01*
X141000000Y-46705476D02*
X141238095Y-46610238D01*
X140857143Y-46895952D02*
X141000000Y-46705476D01*
X141000000Y-46705476D02*
X141142857Y-46895952D01*
X141761905Y-46467380D02*
X141761905Y-46705476D01*
X141523810Y-46610238D02*
X141761905Y-46705476D01*
X141761905Y-46705476D02*
X142000000Y-46610238D01*
X141619048Y-46895952D02*
X141761905Y-46705476D01*
X141761905Y-46705476D02*
X141904762Y-46895952D01*
%TO.C,J2*%
X115572380Y-52403333D02*
X116286666Y-52403333D01*
X116286666Y-52403333D02*
X116429523Y-52450952D01*
X116429523Y-52450952D02*
X116524761Y-52546190D01*
X116524761Y-52546190D02*
X116572380Y-52689047D01*
X116572380Y-52689047D02*
X116572380Y-52784285D01*
X115667619Y-51974761D02*
X115620000Y-51927142D01*
X115620000Y-51927142D02*
X115572380Y-51831904D01*
X115572380Y-51831904D02*
X115572380Y-51593809D01*
X115572380Y-51593809D02*
X115620000Y-51498571D01*
X115620000Y-51498571D02*
X115667619Y-51450952D01*
X115667619Y-51450952D02*
X115762857Y-51403333D01*
X115762857Y-51403333D02*
X115858095Y-51403333D01*
X115858095Y-51403333D02*
X116000952Y-51450952D01*
X116000952Y-51450952D02*
X116572380Y-52022380D01*
X116572380Y-52022380D02*
X116572380Y-51403333D01*
%TO.C,D1*%
X119911905Y-79362380D02*
X119911905Y-78362380D01*
X119911905Y-78362380D02*
X120150000Y-78362380D01*
X120150000Y-78362380D02*
X120292857Y-78410000D01*
X120292857Y-78410000D02*
X120388095Y-78505238D01*
X120388095Y-78505238D02*
X120435714Y-78600476D01*
X120435714Y-78600476D02*
X120483333Y-78790952D01*
X120483333Y-78790952D02*
X120483333Y-78933809D01*
X120483333Y-78933809D02*
X120435714Y-79124285D01*
X120435714Y-79124285D02*
X120388095Y-79219523D01*
X120388095Y-79219523D02*
X120292857Y-79314761D01*
X120292857Y-79314761D02*
X120150000Y-79362380D01*
X120150000Y-79362380D02*
X119911905Y-79362380D01*
X121435714Y-79362380D02*
X120864286Y-79362380D01*
X121150000Y-79362380D02*
X121150000Y-78362380D01*
X121150000Y-78362380D02*
X121054762Y-78505238D01*
X121054762Y-78505238D02*
X120959524Y-78600476D01*
X120959524Y-78600476D02*
X120864286Y-78648095D01*
%TO.C,U1*%
X91688095Y-49837380D02*
X91688095Y-50646904D01*
X91688095Y-50646904D02*
X91735714Y-50742142D01*
X91735714Y-50742142D02*
X91783333Y-50789761D01*
X91783333Y-50789761D02*
X91878571Y-50837380D01*
X91878571Y-50837380D02*
X92069047Y-50837380D01*
X92069047Y-50837380D02*
X92164285Y-50789761D01*
X92164285Y-50789761D02*
X92211904Y-50742142D01*
X92211904Y-50742142D02*
X92259523Y-50646904D01*
X92259523Y-50646904D02*
X92259523Y-49837380D01*
X93259523Y-50837380D02*
X92688095Y-50837380D01*
X92973809Y-50837380D02*
X92973809Y-49837380D01*
X92973809Y-49837380D02*
X92878571Y-49980238D01*
X92878571Y-49980238D02*
X92783333Y-50075476D01*
X92783333Y-50075476D02*
X92688095Y-50123095D01*
%TO.C,R3*%
X107148333Y-68572380D02*
X106815000Y-68096190D01*
X106576905Y-68572380D02*
X106576905Y-67572380D01*
X106576905Y-67572380D02*
X106957857Y-67572380D01*
X106957857Y-67572380D02*
X107053095Y-67620000D01*
X107053095Y-67620000D02*
X107100714Y-67667619D01*
X107100714Y-67667619D02*
X107148333Y-67762857D01*
X107148333Y-67762857D02*
X107148333Y-67905714D01*
X107148333Y-67905714D02*
X107100714Y-68000952D01*
X107100714Y-68000952D02*
X107053095Y-68048571D01*
X107053095Y-68048571D02*
X106957857Y-68096190D01*
X106957857Y-68096190D02*
X106576905Y-68096190D01*
X107481667Y-67572380D02*
X108100714Y-67572380D01*
X108100714Y-67572380D02*
X107767381Y-67953333D01*
X107767381Y-67953333D02*
X107910238Y-67953333D01*
X107910238Y-67953333D02*
X108005476Y-68000952D01*
X108005476Y-68000952D02*
X108053095Y-68048571D01*
X108053095Y-68048571D02*
X108100714Y-68143809D01*
X108100714Y-68143809D02*
X108100714Y-68381904D01*
X108100714Y-68381904D02*
X108053095Y-68477142D01*
X108053095Y-68477142D02*
X108005476Y-68524761D01*
X108005476Y-68524761D02*
X107910238Y-68572380D01*
X107910238Y-68572380D02*
X107624524Y-68572380D01*
X107624524Y-68572380D02*
X107529286Y-68524761D01*
X107529286Y-68524761D02*
X107481667Y-68477142D01*
%TO.C,REF\u002A\u002A*%
X138666666Y-79467380D02*
X138333333Y-78991190D01*
X138095238Y-79467380D02*
X138095238Y-78467380D01*
X138095238Y-78467380D02*
X138476190Y-78467380D01*
X138476190Y-78467380D02*
X138571428Y-78515000D01*
X138571428Y-78515000D02*
X138619047Y-78562619D01*
X138619047Y-78562619D02*
X138666666Y-78657857D01*
X138666666Y-78657857D02*
X138666666Y-78800714D01*
X138666666Y-78800714D02*
X138619047Y-78895952D01*
X138619047Y-78895952D02*
X138571428Y-78943571D01*
X138571428Y-78943571D02*
X138476190Y-78991190D01*
X138476190Y-78991190D02*
X138095238Y-78991190D01*
X139095238Y-78943571D02*
X139428571Y-78943571D01*
X139571428Y-79467380D02*
X139095238Y-79467380D01*
X139095238Y-79467380D02*
X139095238Y-78467380D01*
X139095238Y-78467380D02*
X139571428Y-78467380D01*
X140333333Y-78943571D02*
X140000000Y-78943571D01*
X140000000Y-79467380D02*
X140000000Y-78467380D01*
X140000000Y-78467380D02*
X140476190Y-78467380D01*
X141000000Y-78467380D02*
X141000000Y-78705476D01*
X140761905Y-78610238D02*
X141000000Y-78705476D01*
X141000000Y-78705476D02*
X141238095Y-78610238D01*
X140857143Y-78895952D02*
X141000000Y-78705476D01*
X141000000Y-78705476D02*
X141142857Y-78895952D01*
X141761905Y-78467380D02*
X141761905Y-78705476D01*
X141523810Y-78610238D02*
X141761905Y-78705476D01*
X141761905Y-78705476D02*
X142000000Y-78610238D01*
X141619048Y-78895952D02*
X141761905Y-78705476D01*
X141761905Y-78705476D02*
X141904762Y-78895952D01*
%TO.C,J3*%
X117141666Y-73027380D02*
X117141666Y-73741666D01*
X117141666Y-73741666D02*
X117094047Y-73884523D01*
X117094047Y-73884523D02*
X116998809Y-73979761D01*
X116998809Y-73979761D02*
X116855952Y-74027380D01*
X116855952Y-74027380D02*
X116760714Y-74027380D01*
X117522619Y-73027380D02*
X118141666Y-73027380D01*
X118141666Y-73027380D02*
X117808333Y-73408333D01*
X117808333Y-73408333D02*
X117951190Y-73408333D01*
X117951190Y-73408333D02*
X118046428Y-73455952D01*
X118046428Y-73455952D02*
X118094047Y-73503571D01*
X118094047Y-73503571D02*
X118141666Y-73598809D01*
X118141666Y-73598809D02*
X118141666Y-73836904D01*
X118141666Y-73836904D02*
X118094047Y-73932142D01*
X118094047Y-73932142D02*
X118046428Y-73979761D01*
X118046428Y-73979761D02*
X117951190Y-74027380D01*
X117951190Y-74027380D02*
X117665476Y-74027380D01*
X117665476Y-74027380D02*
X117570238Y-73979761D01*
X117570238Y-73979761D02*
X117522619Y-73932142D01*
%TO.C,PS1*%
X122610714Y-84187380D02*
X122610714Y-83187380D01*
X122610714Y-83187380D02*
X122991666Y-83187380D01*
X122991666Y-83187380D02*
X123086904Y-83235000D01*
X123086904Y-83235000D02*
X123134523Y-83282619D01*
X123134523Y-83282619D02*
X123182142Y-83377857D01*
X123182142Y-83377857D02*
X123182142Y-83520714D01*
X123182142Y-83520714D02*
X123134523Y-83615952D01*
X123134523Y-83615952D02*
X123086904Y-83663571D01*
X123086904Y-83663571D02*
X122991666Y-83711190D01*
X122991666Y-83711190D02*
X122610714Y-83711190D01*
X123563095Y-84139761D02*
X123705952Y-84187380D01*
X123705952Y-84187380D02*
X123944047Y-84187380D01*
X123944047Y-84187380D02*
X124039285Y-84139761D01*
X124039285Y-84139761D02*
X124086904Y-84092142D01*
X124086904Y-84092142D02*
X124134523Y-83996904D01*
X124134523Y-83996904D02*
X124134523Y-83901666D01*
X124134523Y-83901666D02*
X124086904Y-83806428D01*
X124086904Y-83806428D02*
X124039285Y-83758809D01*
X124039285Y-83758809D02*
X123944047Y-83711190D01*
X123944047Y-83711190D02*
X123753571Y-83663571D01*
X123753571Y-83663571D02*
X123658333Y-83615952D01*
X123658333Y-83615952D02*
X123610714Y-83568333D01*
X123610714Y-83568333D02*
X123563095Y-83473095D01*
X123563095Y-83473095D02*
X123563095Y-83377857D01*
X123563095Y-83377857D02*
X123610714Y-83282619D01*
X123610714Y-83282619D02*
X123658333Y-83235000D01*
X123658333Y-83235000D02*
X123753571Y-83187380D01*
X123753571Y-83187380D02*
X123991666Y-83187380D01*
X123991666Y-83187380D02*
X124134523Y-83235000D01*
X125086904Y-84187380D02*
X124515476Y-84187380D01*
X124801190Y-84187380D02*
X124801190Y-83187380D01*
X124801190Y-83187380D02*
X124705952Y-83330238D01*
X124705952Y-83330238D02*
X124610714Y-83425476D01*
X124610714Y-83425476D02*
X124515476Y-83473095D01*
%TO.C,R1*%
X109053333Y-63232380D02*
X108720000Y-62756190D01*
X108481905Y-63232380D02*
X108481905Y-62232380D01*
X108481905Y-62232380D02*
X108862857Y-62232380D01*
X108862857Y-62232380D02*
X108958095Y-62280000D01*
X108958095Y-62280000D02*
X109005714Y-62327619D01*
X109005714Y-62327619D02*
X109053333Y-62422857D01*
X109053333Y-62422857D02*
X109053333Y-62565714D01*
X109053333Y-62565714D02*
X109005714Y-62660952D01*
X109005714Y-62660952D02*
X108958095Y-62708571D01*
X108958095Y-62708571D02*
X108862857Y-62756190D01*
X108862857Y-62756190D02*
X108481905Y-62756190D01*
X110005714Y-63232380D02*
X109434286Y-63232380D01*
X109720000Y-63232380D02*
X109720000Y-62232380D01*
X109720000Y-62232380D02*
X109624762Y-62375238D01*
X109624762Y-62375238D02*
X109529524Y-62470476D01*
X109529524Y-62470476D02*
X109434286Y-62518095D01*
D12*
%TO.C,R2*%
X107077742Y-73137500D02*
X107552258Y-73137500D01*
X107077742Y-74182500D02*
X107552258Y-74182500D01*
%TO.C,J1*%
X121980000Y-68005000D02*
X120650000Y-68005000D01*
X121980000Y-66675000D02*
X121980000Y-68005000D01*
X121980000Y-65405000D02*
X121980000Y-60265000D01*
X121980000Y-65405000D02*
X119320000Y-65405000D01*
X121980000Y-60265000D02*
X119320000Y-60265000D01*
X119320000Y-65405000D02*
X119320000Y-60265000D01*
%TO.C,Q1*%
X100342500Y-72710000D02*
X100342500Y-74385000D01*
X100342500Y-72710000D02*
X100342500Y-72060000D01*
X103462500Y-72710000D02*
X103462500Y-73360000D01*
X103462500Y-72710000D02*
X103462500Y-72060000D01*
%TO.C,J2*%
X117475000Y-57150000D02*
X125095000Y-57150000D01*
X125095000Y-57150000D02*
X125095000Y-46990000D01*
X117475000Y-46990000D02*
X117475000Y-57150000D01*
X123825000Y-46990000D02*
X123825000Y-57150000D01*
X125095000Y-46990000D02*
X117475000Y-46990000D01*
%TO.C,D1*%
X118965000Y-79685000D02*
X118965000Y-81605000D01*
X118965000Y-81605000D02*
X121650000Y-81605000D01*
X121650000Y-79685000D02*
X118965000Y-79685000D01*
%TO.C,U1*%
X115950000Y-58250000D02*
X115950000Y-83680000D01*
X115950000Y-58250000D02*
X113410000Y-58250000D01*
X113410000Y-58250000D02*
X113410000Y-51350000D01*
X113410000Y-51350000D02*
X90090000Y-51350000D01*
X92210000Y-85810000D02*
X113820000Y-85810000D01*
X90090000Y-51350000D02*
X90090000Y-83680000D01*
X113820000Y-85810000D02*
G75*
G03*
X115950000Y-83680000I-2J2130002D01*
G01*
X90090000Y-83680000D02*
G75*
G03*
X92220000Y-85810000I2130000J0D01*
G01*
G36*
X116990000Y-78105000D02*
G01*
X116355000Y-77470000D01*
X116990000Y-76835000D01*
X116990000Y-78105000D01*
G37*
D10*
X116990000Y-78105000D02*
X116355000Y-77470000D01*
X116990000Y-76835000D01*
X116990000Y-78105000D01*
D12*
%TO.C,R3*%
X106591263Y-69130000D02*
X108038737Y-69130000D01*
X106591263Y-71840000D02*
X108038737Y-71840000D01*
%TO.C,J3*%
X119320000Y-71695000D02*
X120650000Y-71695000D01*
X119320000Y-73025000D02*
X119320000Y-71695000D01*
X119320000Y-74295000D02*
X119320000Y-76895000D01*
X119320000Y-74295000D02*
X121980000Y-74295000D01*
X119320000Y-76895000D02*
X121980000Y-76895000D01*
X121980000Y-74295000D02*
X121980000Y-76895000D01*
%TO.C,PS1*%
X125295000Y-48800000D02*
X125295000Y-54800000D01*
X125675000Y-47420000D02*
X125675000Y-84660000D01*
X125675000Y-84660000D02*
X149915000Y-84660000D01*
X149915000Y-47420000D02*
X125675000Y-47420000D01*
X149915000Y-47420000D02*
X149915000Y-84660000D01*
%TO.C,R1*%
X108840000Y-61113641D02*
X108840000Y-60806359D01*
X109600000Y-61113641D02*
X109600000Y-60806359D01*
%TD*%
%LPC*%
D13*
%TO.C,REF\u002A\u002A*%
X100000000Y-82000000D03*
%TD*%
%TO.C,REF\u002A\u002A*%
X100000000Y-50000000D03*
%TD*%
D14*
%TO.C,R2*%
X106490000Y-73660000D03*
X108140000Y-73660000D03*
%TD*%
D15*
%TO.C,J1*%
X120649999Y-66674999D03*
D16*
X120649999Y-64134999D03*
X120649999Y-61594999D03*
%TD*%
D17*
%TO.C,Q1*%
X100952500Y-73647500D03*
X102852500Y-73647500D03*
X101902500Y-71772500D03*
%TD*%
D13*
%TO.C,REF\u002A\u002A*%
X140000000Y-50000000D03*
%TD*%
D18*
%TO.C,J2*%
X121284999Y-54609999D03*
D19*
X121285000Y-49530000D03*
%TD*%
D20*
%TO.C,D1*%
X119712500Y-80645000D03*
X121587500Y-80645000D03*
%TD*%
D21*
%TO.C,U1*%
X114449999Y-77469999D03*
D22*
X114449999Y-74929999D03*
X114449999Y-72389999D03*
X114449999Y-69849999D03*
X114449999Y-67309999D03*
X114449999Y-64769999D03*
X114449999Y-62229999D03*
X114449999Y-59689999D03*
X91589999Y-59689999D03*
X91589999Y-62229999D03*
X91589999Y-64769999D03*
X91589999Y-67309999D03*
X91589999Y-69849999D03*
X91589999Y-72389999D03*
X91589999Y-74929999D03*
X91589999Y-77469999D03*
%TD*%
D23*
%TO.C,R3*%
X105852500Y-70485000D03*
X108777500Y-70485000D03*
%TD*%
D13*
%TO.C,REF\u002A\u002A*%
X140000000Y-82000000D03*
%TD*%
D15*
%TO.C,J3*%
X120649999Y-73024999D03*
D16*
X120649999Y-75564999D03*
%TD*%
D24*
%TO.C,PS1*%
X128904999Y-50799999D03*
D25*
X128905000Y-55880000D03*
X128905000Y-81280000D03*
X146685000Y-81280000D03*
X146685000Y-76200000D03*
%TD*%
D26*
%TO.C,R1*%
X109220000Y-61470000D03*
X109220000Y-60450000D03*
%TD*%
M02*
