%TF.GenerationSoftware,KiCad,Pcbnew,(7.0.0-0)*%
%TF.CreationDate,2023-07-04T17:21:08+02:00*%
%TF.ProjectId,clim-driver,636c696d-2d64-4726-9976-65722e6b6963,rev?*%
%TF.SameCoordinates,Original*%
%TF.FileFunction,Soldermask,Top*%
%TF.FilePolarity,Negative*%
%FSLAX46Y46*%
G04 Gerber Fmt 4.6, Leading zero omitted, Abs format (unit mm)*
G04 Created by KiCad (PCBNEW (7.0.0-0)) date 2023-07-04 17:21:08*
%MOMM*%
%LPD*%
G01*
G04 APERTURE LIST*
G04 Aperture macros list*
%AMRoundRect*
0 Rectangle with rounded corners*
0 $1 Rounding radius*
0 $2 $3 $4 $5 $6 $7 $8 $9 X,Y pos of 4 corners*
0 Add a 4 corners polygon primitive as box body*
4,1,4,$2,$3,$4,$5,$6,$7,$8,$9,$2,$3,0*
0 Add four circle primitives for the rounded corners*
1,1,$1+$1,$2,$3*
1,1,$1+$1,$4,$5*
1,1,$1+$1,$6,$7*
1,1,$1+$1,$8,$9*
0 Add four rect primitives between the rounded corners*
20,1,$1+$1,$2,$3,$4,$5,0*
20,1,$1+$1,$4,$5,$6,$7,0*
20,1,$1+$1,$6,$7,$8,$9,0*
20,1,$1+$1,$8,$9,$2,$3,0*%
G04 Aperture macros list end*
%ADD10C,3.800000*%
%ADD11RoundRect,0.200000X-0.200000X-0.275000X0.200000X-0.275000X0.200000X0.275000X-0.200000X0.275000X0*%
%ADD12R,1.700000X1.700000*%
%ADD13O,1.700000X1.700000*%
%ADD14RoundRect,0.150000X0.150000X-0.587500X0.150000X0.587500X-0.150000X0.587500X-0.150000X-0.587500X0*%
%ADD15R,3.000000X3.000000*%
%ADD16C,3.000000*%
%ADD17RoundRect,0.243750X-0.243750X-0.456250X0.243750X-0.456250X0.243750X0.456250X-0.243750X0.456250X0*%
%ADD18R,2.000000X2.000000*%
%ADD19O,2.000000X1.600000*%
%ADD20RoundRect,0.250000X-0.312500X-1.075000X0.312500X-1.075000X0.312500X1.075000X-0.312500X1.075000X0*%
%ADD21R,2.300000X2.000000*%
%ADD22C,2.300000*%
%ADD23RoundRect,0.135000X0.185000X-0.135000X0.185000X0.135000X-0.185000X0.135000X-0.185000X-0.135000X0*%
G04 APERTURE END LIST*
D10*
%TO.C,REF\u002A\u002A*%
X100000000Y-82000000D03*
%TD*%
%TO.C,REF\u002A\u002A*%
X100000000Y-50000000D03*
%TD*%
D11*
%TO.C,R2*%
X106490000Y-73660000D03*
X108140000Y-73660000D03*
%TD*%
D12*
%TO.C,J1*%
X120649999Y-66674999D03*
D13*
X120649999Y-64134999D03*
X120649999Y-61594999D03*
%TD*%
D14*
%TO.C,Q1*%
X100952500Y-73647500D03*
X102852500Y-73647500D03*
X101902500Y-71772500D03*
%TD*%
D10*
%TO.C,REF\u002A\u002A*%
X140000000Y-50000000D03*
%TD*%
D15*
%TO.C,J2*%
X121284999Y-54609999D03*
D16*
X121285000Y-49530000D03*
%TD*%
D17*
%TO.C,D1*%
X119712500Y-80645000D03*
X121587500Y-80645000D03*
%TD*%
D18*
%TO.C,U1*%
X114449999Y-77469999D03*
D19*
X114449999Y-74929999D03*
X114449999Y-72389999D03*
X114449999Y-69849999D03*
X114449999Y-67309999D03*
X114449999Y-64769999D03*
X114449999Y-62229999D03*
X114449999Y-59689999D03*
X91589999Y-59689999D03*
X91589999Y-62229999D03*
X91589999Y-64769999D03*
X91589999Y-67309999D03*
X91589999Y-69849999D03*
X91589999Y-72389999D03*
X91589999Y-74929999D03*
X91589999Y-77469999D03*
%TD*%
D20*
%TO.C,R3*%
X105852500Y-70485000D03*
X108777500Y-70485000D03*
%TD*%
D10*
%TO.C,REF\u002A\u002A*%
X140000000Y-82000000D03*
%TD*%
D12*
%TO.C,J3*%
X120649999Y-73024999D03*
D13*
X120649999Y-75564999D03*
%TD*%
D21*
%TO.C,PS1*%
X128904999Y-50799999D03*
D22*
X128905000Y-55880000D03*
X128905000Y-81280000D03*
X146685000Y-81280000D03*
X146685000Y-76200000D03*
%TD*%
D23*
%TO.C,R1*%
X109220000Y-61470000D03*
X109220000Y-60450000D03*
%TD*%
M02*
