M48
; DRILL file {KiCad (7.0.0-0)} date Tuesday 04 July 2023 at 17:21:08
; FORMAT={-:-/ absolute / inch / decimal}
; #@! TF.CreationDate,2023-07-04T17:21:08+02:00
; #@! TF.GenerationSoftware,Kicad,Pcbnew,(7.0.0-0)
; #@! TF.FileFunction,Plated,1,2,PTH
FMAT,2
INCH
; #@! TA.AperFunction,Plated,PTH,ViaDrill
T1C0.0157
; #@! TA.AperFunction,Plated,PTH,ComponentDrill
T2C0.0299
; #@! TA.AperFunction,Plated,PTH,ComponentDrill
T3C0.0315
; #@! TA.AperFunction,Plated,PTH,ComponentDrill
T4C0.0394
; #@! TA.AperFunction,Plated,PTH,ComponentDrill
T5C0.0598
; #@! TA.AperFunction,Plated,PTH,ComponentDrill
T6C0.0866
%
G90
G05
T1
X3.875Y-2.925
X4.1Y-2.95
T2
X5.075Y-3.2
X5.775Y-3.0
X5.775Y-3.2
T3
X5.075Y-2.0
X5.075Y-2.2
T4
X3.6059Y-2.35
X3.6059Y-2.45
X3.6059Y-2.55
X3.6059Y-2.65
X3.6059Y-2.75
X3.6059Y-2.85
X3.6059Y-2.95
X3.6059Y-3.05
X4.5059Y-2.35
X4.5059Y-2.45
X4.5059Y-2.55
X4.5059Y-2.65
X4.5059Y-2.75
X4.5059Y-2.85
X4.5059Y-2.95
X4.5059Y-3.05
X4.75Y-2.425
X4.75Y-2.525
X4.75Y-2.625
X4.75Y-2.875
X4.75Y-2.975
T5
X4.775Y-1.95
X4.775Y-2.15
T6
X3.937Y-1.9685
X3.937Y-3.2283
X5.5118Y-1.9685
X5.5118Y-3.2283
T0
M30
