%TF.GenerationSoftware,KiCad,Pcbnew,(7.0.0-0)*%
%TF.CreationDate,2023-07-04T17:21:08+02:00*%
%TF.ProjectId,clim-driver,636c696d-2d64-4726-9976-65722e6b6963,rev?*%
%TF.SameCoordinates,Original*%
%TF.FileFunction,Copper,L2,Bot*%
%TF.FilePolarity,Positive*%
%FSLAX46Y46*%
G04 Gerber Fmt 4.6, Leading zero omitted, Abs format (unit mm)*
G04 Created by KiCad (PCBNEW (7.0.0-0)) date 2023-07-04 17:21:08*
%MOMM*%
%LPD*%
G01*
G04 APERTURE LIST*
%TA.AperFunction,ComponentPad*%
%ADD10C,3.800000*%
%TD*%
%TA.AperFunction,ComponentPad*%
%ADD11R,1.700000X1.700000*%
%TD*%
%TA.AperFunction,ComponentPad*%
%ADD12O,1.700000X1.700000*%
%TD*%
%TA.AperFunction,ComponentPad*%
%ADD13R,3.000000X3.000000*%
%TD*%
%TA.AperFunction,ComponentPad*%
%ADD14C,3.000000*%
%TD*%
%TA.AperFunction,ComponentPad*%
%ADD15R,2.000000X2.000000*%
%TD*%
%TA.AperFunction,ComponentPad*%
%ADD16O,2.000000X1.600000*%
%TD*%
%TA.AperFunction,ComponentPad*%
%ADD17R,2.300000X2.000000*%
%TD*%
%TA.AperFunction,ComponentPad*%
%ADD18C,2.300000*%
%TD*%
%TA.AperFunction,ViaPad*%
%ADD19C,0.800000*%
%TD*%
%TA.AperFunction,Conductor*%
%ADD20C,0.250000*%
%TD*%
%TA.AperFunction,Conductor*%
%ADD21C,1.000000*%
%TD*%
G04 APERTURE END LIST*
D10*
%TO.P,REF\u002A\u002A,1*%
%TO.N,N/C*%
X100000000Y-82000000D03*
%TD*%
%TO.P,REF\u002A\u002A,1*%
%TO.N,N/C*%
X100000000Y-50000000D03*
%TD*%
D11*
%TO.P,J1,1,Pin_1*%
%TO.N,GND*%
X120649999Y-66674999D03*
D12*
%TO.P,J1,2,Pin_2*%
%TO.N,+3V3*%
X120649999Y-64134999D03*
%TO.P,J1,3,Pin_3*%
%TO.N,Net-(J1-Pin_3)*%
X120649999Y-61594999D03*
%TD*%
D10*
%TO.P,REF\u002A\u002A,1*%
%TO.N,N/C*%
X140000000Y-50000000D03*
%TD*%
D13*
%TO.P,J2,1,Pin_1*%
%TO.N,NEUT*%
X121284999Y-54609999D03*
D14*
%TO.P,J2,2,Pin_2*%
%TO.N,LINE*%
X121285000Y-49530000D03*
%TD*%
D15*
%TO.P,U1,1,~{RST}*%
%TO.N,unconnected-(U1-~{RST}-Pad1)*%
X114449999Y-77469999D03*
D16*
%TO.P,U1,2,A0*%
%TO.N,unconnected-(U1-A0-Pad2)*%
X114449999Y-74929999D03*
%TO.P,U1,3,D0*%
%TO.N,unconnected-(U1-D0-Pad3)*%
X114449999Y-72389999D03*
%TO.P,U1,4,SCK/D5*%
%TO.N,unconnected-(U1-SCK{slash}D5-Pad4)*%
X114449999Y-69849999D03*
%TO.P,U1,5,MISO/D6*%
%TO.N,unconnected-(U1-MISO{slash}D6-Pad5)*%
X114449999Y-67309999D03*
%TO.P,U1,6,MOSI/D7*%
%TO.N,unconnected-(U1-MOSI{slash}D7-Pad6)*%
X114449999Y-64769999D03*
%TO.P,U1,7,CS/D8*%
%TO.N,unconnected-(U1-CS{slash}D8-Pad7)*%
X114449999Y-62229999D03*
%TO.P,U1,8,3V3*%
%TO.N,+3V3*%
X114449999Y-59689999D03*
%TO.P,U1,9,5V*%
%TO.N,+5V*%
X91589999Y-59689999D03*
%TO.P,U1,10,GND*%
%TO.N,GND*%
X91589999Y-62229999D03*
%TO.P,U1,11,D4*%
%TO.N,unconnected-(U1-D4-Pad11)*%
X91589999Y-64769999D03*
%TO.P,U1,12,D3*%
%TO.N,unconnected-(U1-D3-Pad12)*%
X91589999Y-67309999D03*
%TO.P,U1,13,SDA/D2*%
%TO.N,unconnected-(U1-SDA{slash}D2-Pad13)*%
X91589999Y-69849999D03*
%TO.P,U1,14,SCL/D1*%
%TO.N,Net-(Q1-G)*%
X91589999Y-72389999D03*
%TO.P,U1,15,RX*%
%TO.N,Net-(J1-Pin_3)*%
X91589999Y-74929999D03*
%TO.P,U1,16,TX*%
%TO.N,unconnected-(U1-TX-Pad16)*%
X91589999Y-77469999D03*
%TD*%
D10*
%TO.P,REF\u002A\u002A,1*%
%TO.N,N/C*%
X140000000Y-82000000D03*
%TD*%
D11*
%TO.P,J3,1,Pin_1*%
%TO.N,+3V3*%
X120649999Y-73024999D03*
D12*
%TO.P,J3,2,Pin_2*%
%TO.N,Net-(J3-Pin_2)*%
X120649999Y-75564999D03*
%TD*%
D17*
%TO.P,PS1,1,AC/L*%
%TO.N,LINE*%
X128904999Y-50799999D03*
D18*
%TO.P,PS1,3,AC/N*%
%TO.N,NEUT*%
X128905000Y-55880000D03*
%TO.P,PS1,5,NC*%
%TO.N,unconnected-(PS1-NC-Pad5)*%
X128905000Y-81280000D03*
%TO.P,PS1,14,-Vo*%
%TO.N,GND*%
X146685000Y-81280000D03*
%TO.P,PS1,16,+Vo*%
%TO.N,+5V*%
X146685000Y-76200000D03*
%TD*%
D19*
%TO.N,GND*%
X104140000Y-74930000D03*
%TO.N,Net-(Q1-G)*%
X98425000Y-74295000D03*
%TD*%
D20*
%TO.N,GND*%
X146685000Y-81280000D02*
X149225000Y-78740000D01*
X123190000Y-77470000D02*
X119380000Y-81280000D01*
X144780000Y-66675000D02*
X149225000Y-71120000D01*
X105092500Y-73977500D02*
X112395000Y-81280000D01*
X142875000Y-77470000D02*
X123190000Y-77470000D01*
X93345000Y-62230000D02*
X91590000Y-62230000D01*
X119380000Y-81280000D02*
X112395000Y-81280000D01*
X120650000Y-66675000D02*
X144780000Y-66675000D01*
X104140000Y-74930000D02*
X105092500Y-73977500D01*
X105092500Y-73977500D02*
X93345000Y-62230000D01*
X149225000Y-71120000D02*
X149225000Y-78740000D01*
X146685000Y-81280000D02*
X142875000Y-77470000D01*
%TO.N,+5V*%
X92392500Y-59690000D02*
X91590000Y-59690000D01*
X123190000Y-76200000D02*
X119380000Y-80010000D01*
X119380000Y-80010000D02*
X112712500Y-80010000D01*
X146685000Y-76200000D02*
X123190000Y-76200000D01*
X112712500Y-80010000D02*
X92392500Y-59690000D01*
D21*
%TO.N,LINE*%
X127635000Y-49530000D02*
X128905000Y-50800000D01*
X121285000Y-49530000D02*
X127635000Y-49530000D01*
%TO.N,NEUT*%
X121285000Y-54610000D02*
X127635000Y-54610000D01*
X127635000Y-54610000D02*
X128905000Y-55880000D01*
D20*
%TO.N,Net-(Q1-G)*%
X91590000Y-72390000D02*
X96520000Y-72390000D01*
X96520000Y-72390000D02*
X98425000Y-74295000D01*
%TD*%
M02*
