%TF.GenerationSoftware,KiCad,Pcbnew,(6.0.0-0)*%
%TF.CreationDate,2022-12-23T14:22:00+01:00*%
%TF.ProjectId,garden-box,67617264-656e-42d6-926f-782e6b696361,rev?*%
%TF.SameCoordinates,Original*%
%TF.FileFunction,Soldermask,Bot*%
%TF.FilePolarity,Negative*%
%FSLAX46Y46*%
G04 Gerber Fmt 4.6, Leading zero omitted, Abs format (unit mm)*
G04 Created by KiCad (PCBNEW (6.0.0-0)) date 2022-12-23 14:22:00*
%MOMM*%
%LPD*%
G01*
G04 APERTURE LIST*
%ADD10C,4.300000*%
%ADD11R,1.700000X1.700000*%
%ADD12O,1.700000X1.700000*%
%ADD13R,2.400000X2.400000*%
%ADD14C,2.400000*%
%ADD15C,6.400000*%
%ADD16C,0.800000*%
%ADD17R,3.000000X3.000000*%
%ADD18C,3.000000*%
%ADD19C,1.650000*%
%ADD20R,1.778000X1.778000*%
%ADD21C,1.778000*%
%ADD22R,1.431000X1.431000*%
%ADD23C,1.431000*%
%ADD24C,3.450000*%
%ADD25C,6.600000*%
G04 APERTURE END LIST*
D10*
%TO.C,REF\u002A\u002A*%
X49640000Y-84690000D03*
%TD*%
%TO.C,REF\u002A\u002A*%
X143620000Y-84690000D03*
%TD*%
D11*
%TO.C,J4*%
X167918080Y-111770000D03*
D12*
X170458080Y-111770000D03*
X172998080Y-111770000D03*
%TD*%
D13*
%TO.C,PS1*%
X73277500Y-74287500D03*
D14*
X73277500Y-94607500D03*
X118997500Y-84447500D03*
X118997500Y-74287500D03*
%TD*%
D15*
%TO.C,REF\u002A\u002A*%
X245900000Y-159240000D03*
D16*
X247597056Y-157542944D03*
X244202944Y-160937056D03*
X245900000Y-161640000D03*
X247597056Y-160937056D03*
X248300000Y-159240000D03*
X245900000Y-156840000D03*
X243500000Y-159240000D03*
X244202944Y-157542944D03*
%TD*%
D17*
%TO.C,J11*%
X220980000Y-153670000D03*
D18*
X226060000Y-153670000D03*
X231140000Y-153670000D03*
X236220000Y-153670000D03*
%TD*%
D11*
%TO.C,J8*%
X167918080Y-142250000D03*
D12*
X170458080Y-142250000D03*
X172998080Y-142250000D03*
%TD*%
D19*
%TO.C,K6*%
X143773080Y-140980000D03*
X146313080Y-140980000D03*
X153933080Y-140980000D03*
X161553080Y-140980000D03*
%TD*%
D11*
%TO.C,J9*%
X167918080Y-149870000D03*
D12*
X170458080Y-149870000D03*
X172998080Y-149870000D03*
%TD*%
D20*
%TO.C,U1*%
X74425000Y-53380000D03*
D21*
X76965000Y-53380000D03*
X79505000Y-53380000D03*
X82045000Y-53380000D03*
X84585000Y-53380000D03*
X87125000Y-53380000D03*
X89665000Y-53380000D03*
X92205000Y-53380000D03*
X94745000Y-53380000D03*
X97285000Y-53380000D03*
X97285000Y-27980000D03*
X94745000Y-27980000D03*
X92205000Y-27980000D03*
X89665000Y-27980000D03*
X87125000Y-27980000D03*
X84585000Y-27980000D03*
X82045000Y-27980000D03*
X79505000Y-27980000D03*
X76965000Y-27980000D03*
X74425000Y-27980000D03*
%TD*%
D16*
%TO.C,REF\u002A\u002A*%
X44500000Y-161640000D03*
X42802944Y-157542944D03*
X42100000Y-159240000D03*
X46900000Y-159240000D03*
D15*
X44500000Y-159240000D03*
D16*
X44500000Y-156840000D03*
X46197056Y-160937056D03*
X46197056Y-157542944D03*
X42802944Y-160937056D03*
%TD*%
D11*
%TO.C,J2*%
X152400000Y-49530000D03*
D12*
X152400000Y-52070000D03*
X152400000Y-54610000D03*
X152400000Y-57150000D03*
%TD*%
D22*
%TO.C,J3*%
X52380000Y-94955000D03*
D23*
X54880000Y-94955000D03*
X56880000Y-94955000D03*
X59380000Y-94955000D03*
D24*
X62450000Y-97665000D03*
X49310000Y-97665000D03*
%TD*%
D15*
%TO.C,REF\u002A\u002A*%
X44500000Y-21240000D03*
D16*
X42802944Y-19542944D03*
X42802944Y-22937056D03*
X44500000Y-18840000D03*
X44500000Y-23640000D03*
X42100000Y-21240000D03*
X46197056Y-22937056D03*
X46900000Y-21240000D03*
X46197056Y-19542944D03*
%TD*%
D19*
%TO.C,K2*%
X143773080Y-110500000D03*
X146313080Y-110500000D03*
X153933080Y-110500000D03*
X161553080Y-110500000D03*
%TD*%
D11*
%TO.C,J1*%
X162560000Y-49530000D03*
D12*
X162560000Y-52070000D03*
X162560000Y-54610000D03*
%TD*%
D17*
%TO.C,J12*%
X220980000Y-111760000D03*
D18*
X226060000Y-111760000D03*
X231140000Y-111760000D03*
X236220000Y-111760000D03*
%TD*%
D17*
%TO.C,T1*%
X191415000Y-79095000D03*
D18*
X191415000Y-44095000D03*
X226415000Y-48995000D03*
X226415000Y-53995000D03*
X226415000Y-73995000D03*
X226415000Y-78995000D03*
D25*
X185165000Y-100345000D03*
X185165000Y-22845000D03*
X232665000Y-22845000D03*
X232665000Y-100345000D03*
%TD*%
D17*
%TO.C,J13*%
X181610000Y-121285000D03*
D18*
X181610000Y-126365000D03*
X181610000Y-131445000D03*
X181610000Y-136525000D03*
X181610000Y-141605000D03*
X181610000Y-146685000D03*
%TD*%
D16*
%TO.C,REF\u002A\u002A*%
X38897056Y-88542944D03*
X37200000Y-92640000D03*
X35502944Y-91937056D03*
X34800000Y-90240000D03*
X38897056Y-91937056D03*
X37200000Y-87840000D03*
X39600000Y-90240000D03*
X35502944Y-88542944D03*
D15*
X37200000Y-90240000D03*
%TD*%
D11*
%TO.C,J5*%
X167918080Y-119390000D03*
D12*
X170458080Y-119390000D03*
X172998080Y-119390000D03*
%TD*%
D16*
%TO.C,REF\u002A\u002A*%
X251502944Y-88542944D03*
X253200000Y-92640000D03*
D15*
X253200000Y-90240000D03*
D16*
X254897056Y-88542944D03*
X251502944Y-91937056D03*
X254897056Y-91937056D03*
X250800000Y-90240000D03*
X253200000Y-87840000D03*
X255600000Y-90240000D03*
%TD*%
D19*
%TO.C,K7*%
X143773080Y-148600000D03*
X146313080Y-148600000D03*
X153933080Y-148600000D03*
X161553080Y-148600000D03*
%TD*%
D11*
%TO.C,J7*%
X167918080Y-134640000D03*
D12*
X170458080Y-134640000D03*
X172998080Y-134640000D03*
%TD*%
D19*
%TO.C,K3*%
X143773080Y-118120000D03*
X146313080Y-118120000D03*
X153933080Y-118120000D03*
X161553080Y-118120000D03*
%TD*%
%TO.C,K5*%
X143773080Y-133370000D03*
X146313080Y-133370000D03*
X153933080Y-133370000D03*
X161553080Y-133370000D03*
%TD*%
D11*
%TO.C,J6*%
X167918080Y-127010000D03*
D12*
X170458080Y-127010000D03*
X172998080Y-127010000D03*
%TD*%
D19*
%TO.C,K4*%
X143773080Y-125740000D03*
X146313080Y-125740000D03*
X153933080Y-125740000D03*
X161553080Y-125740000D03*
%TD*%
D15*
%TO.C,REF\u002A\u002A*%
X245900000Y-21240000D03*
D16*
X248300000Y-21240000D03*
X247597056Y-19542944D03*
X245900000Y-23640000D03*
X247597056Y-22937056D03*
X245900000Y-18840000D03*
X243500000Y-21240000D03*
X244202944Y-19542944D03*
X244202944Y-22937056D03*
%TD*%
D19*
%TO.C,K1*%
X154305000Y-79375000D03*
X156845000Y-79375000D03*
X164465000Y-79375000D03*
X172085000Y-79375000D03*
%TD*%
D17*
%TO.C,J10*%
X250825000Y-132080000D03*
D18*
X250825000Y-127000000D03*
%TD*%
M02*
