M48
; DRILL file {KiCad (6.0.0-0)} date 2022 December 23, Friday 14:22:00
; FORMAT={-:-/ absolute / inch / decimal}
; #@! TF.CreationDate,2022-12-23T14:22:00+01:00
; #@! TF.GenerationSoftware,Kicad,Pcbnew,(6.0.0-0)
; #@! TF.FileFunction,Plated,1,2,PTH
FMAT,2
INCH
; #@! TA.AperFunction,Plated,PTH,ViaDrill
T1C0.0157
; #@! TA.AperFunction,Plated,PTH,ComponentDrill
T2C0.0197
; #@! TA.AperFunction,Plated,PTH,ViaDrill
T3C0.0236
; #@! TA.AperFunction,Plated,PTH,ComponentDrill
T4C0.0362
; #@! TA.AperFunction,Plated,PTH,ComponentDrill
T5C0.0394
; #@! TA.AperFunction,Plated,PTH,ComponentDrill
T6C0.0433
; #@! TA.AperFunction,Plated,PTH,ComponentDrill
T7C0.0512
; #@! TA.AperFunction,Plated,PTH,ComponentDrill
T8C0.0598
; #@! TA.AperFunction,Plated,PTH,ComponentDrill
T9C0.0906
; #@! TA.AperFunction,Plated,PTH,ComponentDrill
T10C0.1260
; #@! TA.AperFunction,Plated,PTH,ComponentDrill
T11C0.1732
%
G90
G05
T1
X3.3301Y-4.3299
X3.4301Y-4.6299
X3.5301Y-4.9301
X3.6301Y-5.2301
X3.73Y-5.53
X3.8301Y-5.8299
X4.735Y-5.53
X4.735Y-5.83
X4.74Y-4.33
X4.74Y-4.63
X4.74Y-4.93
X4.74Y-5.23
X6.08Y-2.57
T2
X1.3701Y-3.5528
X1.3978Y-3.4859
X1.3978Y-3.6196
X1.4646Y-3.4583
X1.4646Y-3.6472
X1.5314Y-3.4859
X1.5314Y-3.6196
X1.5591Y-3.5528
X1.6575Y-0.8362
X1.6575Y-6.2693
X1.6852Y-0.7694
X1.6852Y-0.903
X1.6852Y-6.2025
X1.6852Y-6.3361
X1.752Y-0.7417
X1.752Y-0.9307
X1.752Y-6.1748
X1.752Y-6.3638
X1.8188Y-0.7694
X1.8188Y-0.903
X1.8188Y-6.2025
X1.8188Y-6.3361
X1.8465Y-0.8362
X1.8465Y-6.2693
X9.5866Y-0.8362
X9.5866Y-6.2693
X9.6143Y-0.7694
X9.6143Y-0.903
X9.6143Y-6.2025
X9.6143Y-6.3361
X9.6811Y-0.7417
X9.6811Y-0.9307
X9.6811Y-6.1748
X9.6811Y-6.3638
X9.7479Y-0.7694
X9.7479Y-0.903
X9.7479Y-6.2025
X9.7479Y-6.3361
X9.7756Y-0.8362
X9.7756Y-6.2693
X9.874Y-3.5528
X9.9017Y-3.4859
X9.9017Y-3.6196
X9.9685Y-3.4583
X9.9685Y-3.6472
X10.0353Y-3.4859
X10.0353Y-3.6196
X10.063Y-3.5528
T3
X6.525Y-4.175
X6.925Y-4.175
T4
X2.0622Y-3.7384
X2.1606Y-3.7384
X2.2394Y-3.7384
X2.3378Y-3.7384
T5
X2.9301Y-1.1016
X2.9301Y-2.1016
X3.0301Y-1.1016
X3.0301Y-2.1016
X3.1301Y-1.1016
X3.1301Y-2.1016
X3.2301Y-1.1016
X3.2301Y-2.1016
X3.3301Y-1.1016
X3.3301Y-2.1016
X3.4301Y-1.1016
X3.4301Y-2.1016
X3.5301Y-1.1016
X3.5301Y-2.1016
X3.6301Y-1.1016
X3.6301Y-2.1016
X3.7301Y-1.1016
X3.7301Y-2.1016
X3.8301Y-1.1016
X3.8301Y-2.1016
X6.0Y-1.95
X6.0Y-2.05
X6.0Y-2.15
X6.0Y-2.25
X6.4Y-1.95
X6.4Y-2.05
X6.4Y-2.15
X6.6109Y-4.4004
X6.6109Y-4.7004
X6.6109Y-5.0004
X6.6109Y-5.3008
X6.6109Y-5.6004
X6.6109Y-5.9004
X6.7109Y-4.4004
X6.7109Y-4.7004
X6.7109Y-5.0004
X6.7109Y-5.3008
X6.7109Y-5.6004
X6.7109Y-5.9004
X6.8109Y-4.4004
X6.8109Y-4.7004
X6.8109Y-5.0004
X6.8109Y-5.3008
X6.8109Y-5.6004
X6.8109Y-5.9004
T6
X5.6604Y-4.3504
X5.6604Y-4.6504
X5.6604Y-4.9504
X5.6604Y-5.2508
X5.6604Y-5.5504
X5.6604Y-5.8504
X5.7604Y-4.3504
X5.7604Y-4.6504
X5.7604Y-4.9504
X5.7604Y-5.2508
X5.7604Y-5.5504
X5.7604Y-5.8504
X6.0604Y-4.3504
X6.0604Y-4.6504
X6.0604Y-4.9504
X6.0604Y-5.2508
X6.0604Y-5.5504
X6.0604Y-5.8504
X6.075Y-3.125
X6.175Y-3.125
X6.3604Y-4.3504
X6.3604Y-4.6504
X6.3604Y-4.9504
X6.3604Y-5.2508
X6.3604Y-5.5504
X6.3604Y-5.8504
X6.475Y-3.125
X6.775Y-3.125
T7
X2.8849Y-2.9247
X2.8849Y-3.7247
X4.6849Y-2.9247
X4.6849Y-3.3247
T8
X7.15Y-4.775
X7.15Y-4.975
X7.15Y-5.175
X7.15Y-5.375
X7.15Y-5.575
X7.15Y-5.775
X7.536Y-1.736
X7.536Y-3.114
X8.7Y-4.4
X8.7Y-6.05
X8.9Y-4.4
X8.9Y-6.05
X8.914Y-1.9289
X8.914Y-2.1258
X8.914Y-2.9132
X8.914Y-3.11
X9.1Y-4.4
X9.1Y-6.05
X9.3Y-4.4
X9.3Y-6.05
X9.875Y-5.0
X9.875Y-5.2
T9
X1.9413Y-3.8451
X2.4587Y-3.8451
T10
X1.4646Y-3.5528
X1.752Y-0.8362
X1.752Y-6.2693
X9.6811Y-0.8362
X9.6811Y-6.2693
X9.9685Y-3.5528
T11
X7.29Y-0.8994
X7.29Y-3.9506
X9.16Y-0.8994
X9.16Y-3.9506
T0
M30
