%TF.GenerationSoftware,KiCad,Pcbnew,(6.0.0-0)*%
%TF.CreationDate,2022-12-23T14:22:00+01:00*%
%TF.ProjectId,garden-box,67617264-656e-42d6-926f-782e6b696361,rev?*%
%TF.SameCoordinates,Original*%
%TF.FileFunction,Copper,L1,Top*%
%TF.FilePolarity,Positive*%
%FSLAX46Y46*%
G04 Gerber Fmt 4.6, Leading zero omitted, Abs format (unit mm)*
G04 Created by KiCad (PCBNEW (6.0.0-0)) date 2022-12-23 14:22:00*
%MOMM*%
%LPD*%
G01*
G04 APERTURE LIST*
G04 Aperture macros list*
%AMRoundRect*
0 Rectangle with rounded corners*
0 $1 Rounding radius*
0 $2 $3 $4 $5 $6 $7 $8 $9 X,Y pos of 4 corners*
0 Add a 4 corners polygon primitive as box body*
4,1,4,$2,$3,$4,$5,$6,$7,$8,$9,$2,$3,0*
0 Add four circle primitives for the rounded corners*
1,1,$1+$1,$2,$3*
1,1,$1+$1,$4,$5*
1,1,$1+$1,$6,$7*
1,1,$1+$1,$8,$9*
0 Add four rect primitives between the rounded corners*
20,1,$1+$1,$2,$3,$4,$5,0*
20,1,$1+$1,$4,$5,$6,$7,0*
20,1,$1+$1,$6,$7,$8,$9,0*
20,1,$1+$1,$8,$9,$2,$3,0*%
G04 Aperture macros list end*
%TA.AperFunction,SMDPad,CuDef*%
%ADD10R,1.200000X0.900000*%
%TD*%
%TA.AperFunction,SMDPad,CuDef*%
%ADD11RoundRect,0.243750X-0.456250X0.243750X-0.456250X-0.243750X0.456250X-0.243750X0.456250X0.243750X0*%
%TD*%
%TA.AperFunction,ComponentPad*%
%ADD12R,1.700000X1.700000*%
%TD*%
%TA.AperFunction,ComponentPad*%
%ADD13O,1.700000X1.700000*%
%TD*%
%TA.AperFunction,ComponentPad*%
%ADD14R,2.400000X2.400000*%
%TD*%
%TA.AperFunction,ComponentPad*%
%ADD15C,2.400000*%
%TD*%
%TA.AperFunction,ComponentPad*%
%ADD16C,6.400000*%
%TD*%
%TA.AperFunction,ComponentPad*%
%ADD17C,0.800000*%
%TD*%
%TA.AperFunction,SMDPad,CuDef*%
%ADD18R,0.700000X1.250013*%
%TD*%
%TA.AperFunction,SMDPad,CuDef*%
%ADD19RoundRect,0.135000X-0.135000X-0.185000X0.135000X-0.185000X0.135000X0.185000X-0.135000X0.185000X0*%
%TD*%
%TA.AperFunction,ComponentPad*%
%ADD20R,3.000000X3.000000*%
%TD*%
%TA.AperFunction,ComponentPad*%
%ADD21C,3.000000*%
%TD*%
%TA.AperFunction,ComponentPad*%
%ADD22C,1.650000*%
%TD*%
%TA.AperFunction,ComponentPad*%
%ADD23R,1.778000X1.778000*%
%TD*%
%TA.AperFunction,ComponentPad*%
%ADD24C,1.778000*%
%TD*%
%TA.AperFunction,ComponentPad*%
%ADD25R,1.431000X1.431000*%
%TD*%
%TA.AperFunction,ComponentPad*%
%ADD26C,1.431000*%
%TD*%
%TA.AperFunction,ComponentPad*%
%ADD27C,3.450000*%
%TD*%
%TA.AperFunction,SMDPad,CuDef*%
%ADD28RoundRect,0.135000X0.135000X0.185000X-0.135000X0.185000X-0.135000X-0.185000X0.135000X-0.185000X0*%
%TD*%
%TA.AperFunction,ComponentPad*%
%ADD29C,6.600000*%
%TD*%
%TA.AperFunction,SMDPad,CuDef*%
%ADD30RoundRect,0.135000X-0.185000X0.135000X-0.185000X-0.135000X0.185000X-0.135000X0.185000X0.135000X0*%
%TD*%
%TA.AperFunction,ViaPad*%
%ADD31C,0.800000*%
%TD*%
%TA.AperFunction,ViaPad*%
%ADD32C,1.200000*%
%TD*%
%TA.AperFunction,Conductor*%
%ADD33C,0.250000*%
%TD*%
%TA.AperFunction,Conductor*%
%ADD34C,1.000000*%
%TD*%
G04 APERTURE END LIST*
D10*
%TO.P,D14,1,K*%
%TO.N,+5V*%
X135890000Y-152780000D03*
%TO.P,D14,2,A*%
%TO.N,Net-(D13-Pad1)*%
X135890000Y-149480000D03*
%TD*%
D11*
%TO.P,D13,1,K*%
%TO.N,Net-(D13-Pad1)*%
X132080000Y-149557500D03*
%TO.P,D13,2,A*%
%TO.N,Net-(D13-Pad2)*%
X132080000Y-151432500D03*
%TD*%
D10*
%TO.P,D12,1,K*%
%TO.N,+5V*%
X135890000Y-145160000D03*
%TO.P,D12,2,A*%
%TO.N,Net-(D11-Pad1)*%
X135890000Y-141860000D03*
%TD*%
D11*
%TO.P,D11,1,K*%
%TO.N,Net-(D11-Pad1)*%
X132080000Y-141937500D03*
%TO.P,D11,2,A*%
%TO.N,Net-(D11-Pad2)*%
X132080000Y-143812500D03*
%TD*%
D12*
%TO.P,J4,1,Pin_1*%
%TO.N,/relay transfo/Output 1*%
X167918080Y-111770000D03*
D13*
%TO.P,J4,2,Pin_2*%
%TO.N,/relay 1/Output 1*%
X170458080Y-111770000D03*
%TO.P,J4,3,Pin_3*%
%TO.N,Net-(J4-Pad3)*%
X172998080Y-111770000D03*
%TD*%
D14*
%TO.P,PS1,1,AC/N*%
%TO.N,Net-(J10-Pad2)*%
X73277500Y-74287500D03*
D15*
%TO.P,PS1,2,AC/L*%
%TO.N,/relay transfo/Output 1*%
X73277500Y-94607500D03*
%TO.P,PS1,3,-Vo*%
%TO.N,GND*%
X118997500Y-84447500D03*
%TO.P,PS1,4,+Vo*%
%TO.N,+5V*%
X118997500Y-74287500D03*
%TD*%
D16*
%TO.P,REF\u002A\u002A,1*%
%TO.N,N/C*%
X245900000Y-159240000D03*
D17*
X247597056Y-157542944D03*
X244202944Y-160937056D03*
X245900000Y-161640000D03*
X247597056Y-160937056D03*
X248300000Y-159240000D03*
X245900000Y-156840000D03*
X243500000Y-159240000D03*
X244202944Y-157542944D03*
%TD*%
D18*
%TO.P,Q7,1,E*%
%TO.N,GND*%
X126685038Y-151150318D03*
%TO.P,Q7,2,B*%
%TO.N,Net-(Q7-Pad2)*%
X128584962Y-151150318D03*
%TO.P,Q7,3,C*%
%TO.N,Net-(D13-Pad1)*%
X127635000Y-153649682D03*
%TD*%
D19*
%TO.P,R11,1*%
%TO.N,Net-(Q4-Pad2)*%
X128660000Y-126365000D03*
%TO.P,R11,2*%
%TO.N,/R3*%
X129680000Y-126365000D03*
%TD*%
%TO.P,R19,1*%
%TO.N,+5V*%
X131570000Y-146050000D03*
%TO.P,R19,2*%
%TO.N,Net-(D11-Pad2)*%
X132590000Y-146050000D03*
%TD*%
%TO.P,R4,1*%
%TO.N,+5V*%
X160272500Y-73023080D03*
%TO.P,R4,2*%
%TO.N,Net-(D1-Pad2)*%
X161292500Y-73023080D03*
%TD*%
D20*
%TO.P,J11,1,Pin_1*%
%TO.N,Net-(J10-Pad2)*%
X220980000Y-153670000D03*
D21*
%TO.P,J11,2,Pin_2*%
X226060000Y-153670000D03*
%TO.P,J11,3,Pin_3*%
X231140000Y-153670000D03*
%TO.P,J11,4,Pin_4*%
X236220000Y-153670000D03*
%TD*%
D12*
%TO.P,J8,1,Pin_1*%
%TO.N,/relay transfo/Output 1*%
X167918080Y-142250000D03*
D13*
%TO.P,J8,2,Pin_2*%
%TO.N,/relay 5/Output 1*%
X170458080Y-142250000D03*
%TO.P,J8,3,Pin_3*%
%TO.N,Net-(J4-Pad3)*%
X172998080Y-142250000D03*
%TD*%
D19*
%TO.P,R2,1*%
%TO.N,Net-(Q1-Pad2)*%
X157362500Y-68578080D03*
%TO.P,R2,2*%
%TO.N,/relay transfo/Logic input*%
X158382500Y-68578080D03*
%TD*%
D22*
%TO.P,K6,1*%
%TO.N,+5V*%
X143773080Y-140980000D03*
%TO.P,K6,2*%
%TO.N,Net-(D11-Pad1)*%
X146313080Y-140980000D03*
%TO.P,K6,5*%
%TO.N,/relay 5/Output 2*%
X153933080Y-140980000D03*
%TO.P,K6,8*%
%TO.N,/relay 5/Output 1*%
X161553080Y-140980000D03*
%TD*%
D11*
%TO.P,D9,1,K*%
%TO.N,Net-(D10-Pad2)*%
X132080000Y-134327500D03*
%TO.P,D9,2,A*%
%TO.N,Net-(D9-Pad2)*%
X132080000Y-136202500D03*
%TD*%
D19*
%TO.P,R20,1*%
%TO.N,Net-(Q7-Pad2)*%
X128660000Y-149225000D03*
%TO.P,R20,2*%
%TO.N,/R6*%
X129680000Y-149225000D03*
%TD*%
%TO.P,R5,1*%
%TO.N,Net-(Q2-Pad2)*%
X128660000Y-111125000D03*
%TO.P,R5,2*%
%TO.N,/R1*%
X129680000Y-111125000D03*
%TD*%
D12*
%TO.P,J9,1,Pin_1*%
%TO.N,/relay transfo/Output 1*%
X167918080Y-149870000D03*
D13*
%TO.P,J9,2,Pin_2*%
%TO.N,/relay 6/Output 1*%
X170458080Y-149870000D03*
%TO.P,J9,3,Pin_3*%
%TO.N,Net-(J4-Pad3)*%
X172998080Y-149870000D03*
%TD*%
D11*
%TO.P,D3,1,K*%
%TO.N,Net-(D3-Pad1)*%
X132080000Y-111457500D03*
%TO.P,D3,2,A*%
%TO.N,Net-(D3-Pad2)*%
X132080000Y-113332500D03*
%TD*%
D18*
%TO.P,Q3,1,E*%
%TO.N,GND*%
X126685038Y-120670318D03*
%TO.P,Q3,2,B*%
%TO.N,Net-(Q3-Pad2)*%
X128584962Y-120670318D03*
%TO.P,Q3,3,C*%
%TO.N,Net-(D5-Pad1)*%
X127635000Y-123169682D03*
%TD*%
D19*
%TO.P,R22,1*%
%TO.N,+5V*%
X131570000Y-153670000D03*
%TO.P,R22,2*%
%TO.N,Net-(D13-Pad2)*%
X132590000Y-153670000D03*
%TD*%
D23*
%TO.P,U1,1,+5V*%
%TO.N,+5V*%
X74425000Y-53380000D03*
D24*
%TO.P,U1,2,+3.3V_(out)*%
%TO.N,+3V3*%
X76965000Y-53380000D03*
%TO.P,U1,3,GND*%
%TO.N,GND*%
X79505000Y-53380000D03*
%TO.P,U1,4,ESP_EN*%
%TO.N,unconnected-(U1-Pad4)*%
X82045000Y-53380000D03*
%TO.P,U1,5,GPIO0*%
%TO.N,/R1*%
X84585000Y-53380000D03*
%TO.P,U1,6,GPIO1*%
%TO.N,/R2*%
X87125000Y-53380000D03*
%TO.P,U1,7,GPIO2*%
%TO.N,/R3*%
X89665000Y-53380000D03*
%TO.P,U1,8,GPIO3*%
%TO.N,/R4*%
X92205000Y-53380000D03*
%TO.P,U1,9,GPIO4*%
%TO.N,/R5*%
X94745000Y-53380000D03*
%TO.P,U1,10,GPIO5*%
%TO.N,/R6*%
X97285000Y-53380000D03*
%TO.P,U1,11,GPIO13*%
%TO.N,Net-(J1-Pad3)*%
X97285000Y-27980000D03*
%TO.P,U1,12,GPIO14*%
%TO.N,unconnected-(U1-Pad12)*%
X94745000Y-27980000D03*
%TO.P,U1,13,GPIO15*%
%TO.N,unconnected-(U1-Pad13)*%
X92205000Y-27980000D03*
%TO.P,U1,14,GPIO16*%
%TO.N,unconnected-(U1-Pad14)*%
X89665000Y-27980000D03*
%TO.P,U1,15,GPIO32*%
%TO.N,unconnected-(U1-Pad15)*%
X87125000Y-27980000D03*
%TO.P,U1,16,GPIO33*%
%TO.N,/relay transfo/Logic input*%
X84585000Y-27980000D03*
%TO.P,U1,17,GPIO34*%
%TO.N,unconnected-(U1-Pad17)*%
X82045000Y-27980000D03*
%TO.P,U1,18,GPIO35*%
%TO.N,unconnected-(U1-Pad18)*%
X79505000Y-27980000D03*
%TO.P,U1,19,GPIO36*%
%TO.N,Net-(J2-Pad4)*%
X76965000Y-27980000D03*
%TO.P,U1,20,GPIO39*%
%TO.N,unconnected-(U1-Pad20)*%
X74425000Y-27980000D03*
%TD*%
D19*
%TO.P,R16,1*%
%TO.N,+5V*%
X131570000Y-138440000D03*
%TO.P,R16,2*%
%TO.N,Net-(D9-Pad2)*%
X132590000Y-138440000D03*
%TD*%
D17*
%TO.P,REF\u002A\u002A,1*%
%TO.N,N/C*%
X44500000Y-161640000D03*
X42802944Y-157542944D03*
X42100000Y-159240000D03*
X46900000Y-159240000D03*
D16*
X44500000Y-159240000D03*
D17*
X44500000Y-156840000D03*
X46197056Y-160937056D03*
X46197056Y-157542944D03*
X42802944Y-160937056D03*
%TD*%
D19*
%TO.P,R7,1*%
%TO.N,+5V*%
X131570000Y-115570000D03*
%TO.P,R7,2*%
%TO.N,Net-(D3-Pad2)*%
X132590000Y-115570000D03*
%TD*%
D12*
%TO.P,J2,1,Pin_1*%
%TO.N,GND*%
X152400000Y-49530000D03*
D13*
%TO.P,J2,2,Pin_2*%
X152400000Y-52070000D03*
%TO.P,J2,3,Pin_3*%
%TO.N,+5V*%
X152400000Y-54610000D03*
%TO.P,J2,4,Pin_4*%
%TO.N,Net-(J2-Pad4)*%
X152400000Y-57150000D03*
%TD*%
D18*
%TO.P,Q6,1,E*%
%TO.N,GND*%
X126685038Y-143530318D03*
%TO.P,Q6,2,B*%
%TO.N,Net-(Q6-Pad2)*%
X128584962Y-143530318D03*
%TO.P,Q6,3,C*%
%TO.N,Net-(D11-Pad1)*%
X127635000Y-146029682D03*
%TD*%
D19*
%TO.P,R13,1*%
%TO.N,+5V*%
X131570000Y-130810000D03*
%TO.P,R13,2*%
%TO.N,Net-(D7-Pad2)*%
X132590000Y-130810000D03*
%TD*%
D25*
%TO.P,J3,1,VBUS*%
%TO.N,+5V*%
X52380000Y-94955000D03*
D26*
%TO.P,J3,2,D-*%
%TO.N,unconnected-(J3-Pad2)*%
X54880000Y-94955000D03*
%TO.P,J3,3,D+*%
%TO.N,unconnected-(J3-Pad3)*%
X56880000Y-94955000D03*
%TO.P,J3,4,GND*%
%TO.N,GND*%
X59380000Y-94955000D03*
D27*
%TO.P,J3,5,Shield*%
X62450000Y-97665000D03*
X49310000Y-97665000D03*
%TD*%
D16*
%TO.P,REF\u002A\u002A,1*%
%TO.N,N/C*%
X44500000Y-21240000D03*
D17*
X42802944Y-19542944D03*
X42802944Y-22937056D03*
X44500000Y-18840000D03*
X44500000Y-23640000D03*
X42100000Y-21240000D03*
X46197056Y-22937056D03*
X46900000Y-21240000D03*
X46197056Y-19542944D03*
%TD*%
D19*
%TO.P,R17,1*%
%TO.N,Net-(Q6-Pad2)*%
X128660000Y-141605000D03*
%TO.P,R17,2*%
%TO.N,/R5*%
X129680000Y-141605000D03*
%TD*%
D18*
%TO.P,Q5,1,E*%
%TO.N,GND*%
X126685038Y-135920318D03*
%TO.P,Q5,2,B*%
%TO.N,Net-(Q5-Pad2)*%
X128584962Y-135920318D03*
%TO.P,Q5,3,C*%
%TO.N,Net-(D10-Pad2)*%
X127635000Y-138419682D03*
%TD*%
D28*
%TO.P,R15,1*%
%TO.N,Net-(Q5-Pad2)*%
X126875000Y-133995000D03*
%TO.P,R15,2*%
%TO.N,GND*%
X125855000Y-133995000D03*
%TD*%
D11*
%TO.P,D7,1,K*%
%TO.N,Net-(D7-Pad1)*%
X132080000Y-126697500D03*
%TO.P,D7,2,A*%
%TO.N,Net-(D7-Pad2)*%
X132080000Y-128572500D03*
%TD*%
D18*
%TO.P,Q1,1,E*%
%TO.N,GND*%
X155387538Y-70503398D03*
%TO.P,Q1,2,B*%
%TO.N,Net-(Q1-Pad2)*%
X157287462Y-70503398D03*
%TO.P,Q1,3,C*%
%TO.N,Net-(D1-Pad1)*%
X156337500Y-73002762D03*
%TD*%
D22*
%TO.P,K2,1*%
%TO.N,+5V*%
X143773080Y-110500000D03*
%TO.P,K2,2*%
%TO.N,Net-(D3-Pad1)*%
X146313080Y-110500000D03*
%TO.P,K2,5*%
%TO.N,/relay 1/Output 2*%
X153933080Y-110500000D03*
%TO.P,K2,8*%
%TO.N,/relay 1/Output 1*%
X161553080Y-110500000D03*
%TD*%
D19*
%TO.P,R8,1*%
%TO.N,Net-(Q3-Pad2)*%
X128660000Y-118745000D03*
%TO.P,R8,2*%
%TO.N,/R2*%
X129680000Y-118745000D03*
%TD*%
D28*
%TO.P,R12,1*%
%TO.N,Net-(Q4-Pad2)*%
X126875000Y-126365000D03*
%TO.P,R12,2*%
%TO.N,GND*%
X125855000Y-126365000D03*
%TD*%
D12*
%TO.P,J1,1,Pin_1*%
%TO.N,GND*%
X162560000Y-49530000D03*
D13*
%TO.P,J1,2,Pin_2*%
%TO.N,+3V3*%
X162560000Y-52070000D03*
%TO.P,J1,3,Pin_3*%
%TO.N,Net-(J1-Pad3)*%
X162560000Y-54610000D03*
%TD*%
D20*
%TO.P,J12,1,Pin_1*%
%TO.N,Net-(J12-Pad1)*%
X220980000Y-111760000D03*
D21*
%TO.P,J12,2,Pin_2*%
X226060000Y-111760000D03*
%TO.P,J12,3,Pin_3*%
X231140000Y-111760000D03*
%TO.P,J12,4,Pin_4*%
X236220000Y-111760000D03*
%TD*%
D20*
%TO.P,T1,1,AA*%
%TO.N,/relay transfo/Output 2*%
X191415000Y-79095000D03*
D21*
%TO.P,T1,2,AB*%
%TO.N,Net-(J10-Pad2)*%
X191415000Y-44095000D03*
%TO.P,T1,3,SA*%
%TO.N,Net-(J4-Pad3)*%
X226415000Y-48995000D03*
%TO.P,T1,4,SB*%
%TO.N,Net-(T1-Pad4)*%
X226415000Y-53995000D03*
%TO.P,T1,5,SC*%
X226415000Y-73995000D03*
%TO.P,T1,6,SD*%
%TO.N,Net-(J12-Pad1)*%
X226415000Y-78995000D03*
D29*
%TO.P,T1,MH1*%
%TO.N,N/C*%
X185165000Y-100345000D03*
%TO.P,T1,MH2*%
X185165000Y-22845000D03*
%TO.P,T1,MH3*%
X232665000Y-22845000D03*
%TO.P,T1,MH4*%
X232665000Y-100345000D03*
%TD*%
D10*
%TO.P,D8,1,K*%
%TO.N,+5V*%
X135890000Y-129920000D03*
%TO.P,D8,2,A*%
%TO.N,Net-(D7-Pad1)*%
X135890000Y-126620000D03*
%TD*%
D20*
%TO.P,J13,1,Pin_1*%
%TO.N,/relay 1/Output 2*%
X181610000Y-121285000D03*
D21*
%TO.P,J13,2,Pin_2*%
%TO.N,/relay 2/Output 2*%
X181610000Y-126365000D03*
%TO.P,J13,3,Pin_3*%
%TO.N,/relay 3/Output 2*%
X181610000Y-131445000D03*
%TO.P,J13,4,Pin_4*%
%TO.N,/relay 4/Output 2*%
X181610000Y-136525000D03*
%TO.P,J13,5,Pin_5*%
%TO.N,/relay 5/Output 2*%
X181610000Y-141605000D03*
%TO.P,J13,6,Pin_6*%
%TO.N,/relay 6/Output 2*%
X181610000Y-146685000D03*
%TD*%
D17*
%TO.P,REF\u002A\u002A,1*%
%TO.N,N/C*%
X38897056Y-88542944D03*
X37200000Y-92640000D03*
X35502944Y-91937056D03*
X34800000Y-90240000D03*
X38897056Y-91937056D03*
X37200000Y-87840000D03*
X39600000Y-90240000D03*
X35502944Y-88542944D03*
D16*
X37200000Y-90240000D03*
%TD*%
D12*
%TO.P,J5,1,Pin_1*%
%TO.N,/relay transfo/Output 1*%
X167918080Y-119390000D03*
D13*
%TO.P,J5,2,Pin_2*%
%TO.N,/relay 2/Output 1*%
X170458080Y-119390000D03*
%TO.P,J5,3,Pin_3*%
%TO.N,Net-(J4-Pad3)*%
X172998080Y-119390000D03*
%TD*%
D17*
%TO.P,REF\u002A\u002A,1*%
%TO.N,N/C*%
X251502944Y-88542944D03*
X253200000Y-92640000D03*
D16*
X253200000Y-90240000D03*
D17*
X254897056Y-88542944D03*
X251502944Y-91937056D03*
X254897056Y-91937056D03*
X250800000Y-90240000D03*
X253200000Y-87840000D03*
X255600000Y-90240000D03*
%TD*%
D22*
%TO.P,K7,1*%
%TO.N,+5V*%
X143773080Y-148600000D03*
%TO.P,K7,2*%
%TO.N,Net-(D13-Pad1)*%
X146313080Y-148600000D03*
%TO.P,K7,5*%
%TO.N,/relay 6/Output 2*%
X153933080Y-148600000D03*
%TO.P,K7,8*%
%TO.N,/relay 6/Output 1*%
X161553080Y-148600000D03*
%TD*%
D12*
%TO.P,J7,1,Pin_1*%
%TO.N,/relay transfo/Output 1*%
X167918080Y-134640000D03*
D13*
%TO.P,J7,2,Pin_2*%
%TO.N,/relay 4/Output 1*%
X170458080Y-134640000D03*
%TO.P,J7,3,Pin_3*%
%TO.N,Net-(J4-Pad3)*%
X172998080Y-134640000D03*
%TD*%
D19*
%TO.P,R14,1*%
%TO.N,Net-(Q5-Pad2)*%
X128660000Y-133995000D03*
%TO.P,R14,2*%
%TO.N,/R4*%
X129680000Y-133995000D03*
%TD*%
D22*
%TO.P,K3,1*%
%TO.N,+5V*%
X143773080Y-118120000D03*
%TO.P,K3,2*%
%TO.N,Net-(D5-Pad1)*%
X146313080Y-118120000D03*
%TO.P,K3,5*%
%TO.N,/relay 2/Output 2*%
X153933080Y-118120000D03*
%TO.P,K3,8*%
%TO.N,/relay 2/Output 1*%
X161553080Y-118120000D03*
%TD*%
D10*
%TO.P,D4,1,K*%
%TO.N,+5V*%
X135890000Y-114680000D03*
%TO.P,D4,2,A*%
%TO.N,Net-(D3-Pad1)*%
X135890000Y-111380000D03*
%TD*%
D22*
%TO.P,K5,1*%
%TO.N,+5V*%
X143773080Y-133370000D03*
%TO.P,K5,2*%
%TO.N,Net-(D10-Pad2)*%
X146313080Y-133370000D03*
%TO.P,K5,5*%
%TO.N,/relay 4/Output 2*%
X153933080Y-133370000D03*
%TO.P,K5,8*%
%TO.N,/relay 4/Output 1*%
X161553080Y-133370000D03*
%TD*%
D12*
%TO.P,J6,1,Pin_1*%
%TO.N,/relay transfo/Output 1*%
X167918080Y-127010000D03*
D13*
%TO.P,J6,2,Pin_2*%
%TO.N,/relay 3/Output 1*%
X170458080Y-127010000D03*
%TO.P,J6,3,Pin_3*%
%TO.N,Net-(J4-Pad3)*%
X172998080Y-127010000D03*
%TD*%
D30*
%TO.P,R1,1*%
%TO.N,+3V3*%
X157480000Y-52830000D03*
%TO.P,R1,2*%
%TO.N,Net-(J1-Pad3)*%
X157480000Y-53850000D03*
%TD*%
D22*
%TO.P,K4,1*%
%TO.N,+5V*%
X143773080Y-125740000D03*
%TO.P,K4,2*%
%TO.N,Net-(D7-Pad1)*%
X146313080Y-125740000D03*
%TO.P,K4,5*%
%TO.N,/relay 3/Output 2*%
X153933080Y-125740000D03*
%TO.P,K4,8*%
%TO.N,/relay 3/Output 1*%
X161553080Y-125740000D03*
%TD*%
D28*
%TO.P,R18,1*%
%TO.N,Net-(Q6-Pad2)*%
X126875000Y-141605000D03*
%TO.P,R18,2*%
%TO.N,GND*%
X125855000Y-141605000D03*
%TD*%
D11*
%TO.P,D1,1,K*%
%TO.N,Net-(D1-Pad1)*%
X160782500Y-68910580D03*
%TO.P,D1,2,A*%
%TO.N,Net-(D1-Pad2)*%
X160782500Y-70785580D03*
%TD*%
D19*
%TO.P,R10,1*%
%TO.N,+5V*%
X131570000Y-123190000D03*
%TO.P,R10,2*%
%TO.N,Net-(D5-Pad2)*%
X132590000Y-123190000D03*
%TD*%
D28*
%TO.P,R21,1*%
%TO.N,Net-(Q7-Pad2)*%
X126875000Y-149225000D03*
%TO.P,R21,2*%
%TO.N,GND*%
X125855000Y-149225000D03*
%TD*%
D10*
%TO.P,D6,1,K*%
%TO.N,+5V*%
X135890000Y-122300000D03*
%TO.P,D6,2,A*%
%TO.N,Net-(D5-Pad1)*%
X135890000Y-119000000D03*
%TD*%
D16*
%TO.P,REF\u002A\u002A,1*%
%TO.N,N/C*%
X245900000Y-21240000D03*
D17*
X248300000Y-21240000D03*
X247597056Y-19542944D03*
X245900000Y-23640000D03*
X247597056Y-22937056D03*
X245900000Y-18840000D03*
X243500000Y-21240000D03*
X244202944Y-19542944D03*
X244202944Y-22937056D03*
%TD*%
D18*
%TO.P,Q2,1,E*%
%TO.N,GND*%
X126685038Y-113050318D03*
%TO.P,Q2,2,B*%
%TO.N,Net-(Q2-Pad2)*%
X128584962Y-113050318D03*
%TO.P,Q2,3,C*%
%TO.N,Net-(D3-Pad1)*%
X127635000Y-115549682D03*
%TD*%
D28*
%TO.P,R6,1*%
%TO.N,Net-(Q2-Pad2)*%
X126875000Y-111125000D03*
%TO.P,R6,2*%
%TO.N,GND*%
X125855000Y-111125000D03*
%TD*%
%TO.P,R3,1*%
%TO.N,Net-(Q1-Pad2)*%
X155577500Y-68578080D03*
%TO.P,R3,2*%
%TO.N,GND*%
X154557500Y-68578080D03*
%TD*%
D10*
%TO.P,D2,1,K*%
%TO.N,+5V*%
X164592500Y-72133080D03*
%TO.P,D2,2,A*%
%TO.N,Net-(D1-Pad1)*%
X164592500Y-68833080D03*
%TD*%
D28*
%TO.P,R9,1*%
%TO.N,Net-(Q3-Pad2)*%
X126875000Y-118745000D03*
%TO.P,R9,2*%
%TO.N,GND*%
X125855000Y-118745000D03*
%TD*%
D18*
%TO.P,Q4,1,E*%
%TO.N,GND*%
X126685038Y-128290318D03*
%TO.P,Q4,2,B*%
%TO.N,Net-(Q4-Pad2)*%
X128584962Y-128290318D03*
%TO.P,Q4,3,C*%
%TO.N,Net-(D7-Pad1)*%
X127635000Y-130789682D03*
%TD*%
D22*
%TO.P,K1,1*%
%TO.N,+5V*%
X154305000Y-79375000D03*
%TO.P,K1,2*%
%TO.N,Net-(D1-Pad1)*%
X156845000Y-79375000D03*
%TO.P,K1,5*%
%TO.N,/relay transfo/Output 2*%
X164465000Y-79375000D03*
%TO.P,K1,8*%
%TO.N,/relay transfo/Output 1*%
X172085000Y-79375000D03*
%TD*%
D20*
%TO.P,J10,1,Pin_1*%
%TO.N,/relay transfo/Output 1*%
X250825000Y-132080000D03*
D21*
%TO.P,J10,2,Pin_2*%
%TO.N,Net-(J10-Pad2)*%
X250825000Y-127000000D03*
%TD*%
D10*
%TO.P,D10,1,K*%
%TO.N,+5V*%
X135890000Y-137550000D03*
%TO.P,D10,2,A*%
%TO.N,Net-(D10-Pad2)*%
X135890000Y-134250000D03*
%TD*%
D11*
%TO.P,D5,1,K*%
%TO.N,Net-(D5-Pad1)*%
X132080000Y-119077500D03*
%TO.P,D5,2,A*%
%TO.N,Net-(D5-Pad2)*%
X132080000Y-120952500D03*
%TD*%
D31*
%TO.N,/R6*%
X120269000Y-148082000D03*
X97285000Y-148079000D03*
%TO.N,/R5*%
X120269000Y-140462000D03*
X94742000Y-140462000D03*
%TO.N,/R4*%
X92205000Y-132845000D03*
X120396000Y-132842000D03*
%TO.N,/R3*%
X120396000Y-125222000D03*
X89665000Y-125225000D03*
%TO.N,/R2*%
X120396000Y-117602000D03*
X87125000Y-117599000D03*
%TO.N,/R1*%
X120396000Y-109982000D03*
X84585000Y-109979000D03*
%TO.N,GND*%
X154432000Y-65278000D03*
D32*
%TO.N,Net-(J10-Pad2)*%
X165735000Y-106045000D03*
X175895000Y-106045000D03*
%TD*%
D33*
%TO.N,Net-(D11-Pad2)*%
X132590000Y-146050000D02*
X132590000Y-144322500D01*
X132590000Y-144322500D02*
X132080000Y-143812500D01*
%TO.N,Net-(D13-Pad2)*%
X132590000Y-153670000D02*
X132590000Y-151942500D01*
X132590000Y-151942500D02*
X132080000Y-151432500D01*
%TO.N,/R6*%
X97285000Y-53380000D02*
X97285000Y-148079000D01*
X129273000Y-148082000D02*
X120269000Y-148082000D01*
%TO.N,/R5*%
X94742000Y-115316000D02*
X94742000Y-140462000D01*
X129273000Y-140462000D02*
X120269000Y-140462000D01*
%TO.N,/R4*%
X120421400Y-132867400D02*
X120396000Y-132842000D01*
X92205000Y-53380000D02*
X92205000Y-132845000D01*
X129298400Y-132867400D02*
X120421400Y-132867400D01*
X129692400Y-134010400D02*
X129692400Y-133261400D01*
X129692400Y-133261400D02*
X129298400Y-132867400D01*
%TO.N,/R3*%
X129273000Y-125222000D02*
X120396000Y-125222000D01*
X89665000Y-53380000D02*
X89665000Y-125225000D01*
%TO.N,/R2*%
X129273000Y-117602000D02*
X120396000Y-117602000D01*
X87125000Y-53380000D02*
X87125000Y-117599000D01*
%TO.N,/R6*%
X129667000Y-148476000D02*
X129273000Y-148082000D01*
X129667000Y-149225000D02*
X129667000Y-148476000D01*
%TO.N,/R5*%
X129667000Y-140856000D02*
X129273000Y-140462000D01*
X129667000Y-141605000D02*
X129667000Y-140856000D01*
%TO.N,/R3*%
X129667000Y-125616000D02*
X129273000Y-125222000D01*
X129667000Y-126365000D02*
X129667000Y-125616000D01*
%TO.N,/R2*%
X129667000Y-117996000D02*
X129273000Y-117602000D01*
X129667000Y-118745000D02*
X129667000Y-117996000D01*
%TO.N,/R1*%
X84585000Y-53380000D02*
X84585000Y-109979000D01*
X129286000Y-109982000D02*
X120396000Y-109982000D01*
X129680000Y-110376000D02*
X129286000Y-109982000D01*
X129680000Y-111125000D02*
X129680000Y-110376000D01*
%TO.N,GND*%
X118997500Y-84447500D02*
X118997500Y-111123500D01*
X118997500Y-111123500D02*
X118997500Y-118746500D01*
X125855000Y-111125000D02*
X118999000Y-111125000D01*
X118999000Y-111125000D02*
X118997500Y-111123500D01*
X118997500Y-118746500D02*
X118997500Y-126363500D01*
X118999000Y-118745000D02*
X118997500Y-118746500D01*
X125855000Y-118745000D02*
X118999000Y-118745000D01*
X118997500Y-126363500D02*
X118997500Y-133986500D01*
X125855000Y-126365000D02*
X118999000Y-126365000D01*
X118999000Y-126365000D02*
X118997500Y-126363500D01*
X118997500Y-133986500D02*
X118997500Y-141606500D01*
X125855000Y-133995000D02*
X119006000Y-133995000D01*
X119006000Y-133995000D02*
X118997500Y-133986500D01*
X118997500Y-141606500D02*
X118997500Y-148207500D01*
X125855000Y-141605000D02*
X118999000Y-141605000D01*
X118999000Y-141605000D02*
X118997500Y-141606500D01*
X125855000Y-149225000D02*
X120015000Y-149225000D01*
X120015000Y-149225000D02*
X118997500Y-148207500D01*
X154557500Y-69673360D02*
X133771640Y-69673360D01*
X133771640Y-69673360D02*
X118997500Y-84447500D01*
X154432000Y-68452580D02*
X154557500Y-68578080D01*
X154432000Y-65278000D02*
X154432000Y-68452580D01*
%TO.N,/R5*%
X94745000Y-115313000D02*
X94742000Y-115316000D01*
X94745000Y-53380000D02*
X94745000Y-115313000D01*
%TO.N,/relay transfo/Logic input*%
X158382500Y-68578080D02*
X158382500Y-65899500D01*
X84585000Y-24387000D02*
X84585000Y-27980000D01*
X158382500Y-65899500D02*
X168402000Y-55880000D01*
X168402000Y-55880000D02*
X168402000Y-39878000D01*
X121666000Y-36068000D02*
X108712000Y-23114000D01*
X168402000Y-39878000D02*
X164592000Y-36068000D01*
X164592000Y-36068000D02*
X121666000Y-36068000D01*
X108712000Y-23114000D02*
X85852000Y-23114000D01*
X85852000Y-23114000D02*
X84582000Y-24384000D01*
X84582000Y-24384000D02*
X84585000Y-24387000D01*
%TO.N,Net-(J2-Pad4)*%
X82550000Y-42545000D02*
X136271000Y-42545000D01*
X152400000Y-57150000D02*
X150876000Y-57150000D01*
X150876000Y-57150000D02*
X136271000Y-42545000D01*
%TO.N,+3V3*%
X158242000Y-52070000D02*
X162560000Y-52070000D01*
X157480000Y-52830000D02*
X157482000Y-52830000D01*
X157482000Y-52830000D02*
X158242000Y-52070000D01*
X76965000Y-53380000D02*
X76965000Y-50930000D01*
X156464000Y-53086000D02*
X156720000Y-52830000D01*
X76965000Y-50930000D02*
X82175000Y-45720000D01*
X150368000Y-59944000D02*
X155956000Y-59944000D01*
X82175000Y-45720000D02*
X136144000Y-45720000D01*
X136144000Y-45720000D02*
X150368000Y-59944000D01*
X156464000Y-59436000D02*
X156464000Y-53086000D01*
X155956000Y-59944000D02*
X156464000Y-59436000D01*
X156720000Y-52830000D02*
X157480000Y-52830000D01*
%TO.N,+5V*%
X141995540Y-112277540D02*
X143773540Y-112277540D01*
X143773540Y-112277540D02*
X147818460Y-112277540D01*
X143773080Y-110500000D02*
X143773080Y-112277080D01*
X143773080Y-112277080D02*
X143773540Y-112277540D01*
X154305000Y-105791000D02*
X154305000Y-80899000D01*
X161535000Y-74303080D02*
X161535000Y-78113080D01*
X158750000Y-80898080D02*
X154305920Y-80898080D01*
X154305000Y-80899000D02*
X154305000Y-79375000D01*
X161535000Y-78113080D02*
X158750000Y-80898080D01*
X154305920Y-80898080D02*
X154305000Y-80899000D01*
X141995540Y-112277540D02*
X139593080Y-114680000D01*
X147818460Y-112277540D02*
X154305000Y-105791000D01*
X143773080Y-118120000D02*
X139593080Y-122300000D01*
D34*
%TO.N,Net-(J10-Pad2)*%
X175895000Y-106045000D02*
X165735000Y-106045000D01*
%TO.N,/relay 6/Output 2*%
X153933080Y-148600000D02*
X153933080Y-150505000D01*
X153933080Y-150505000D02*
X156473080Y-153045000D01*
X156473080Y-153045000D02*
X177790000Y-153045000D01*
X177790000Y-153045000D02*
X181610000Y-149225000D01*
X181610000Y-149225000D02*
X181610000Y-146685000D01*
%TO.N,/relay 5/Output 2*%
X174615000Y-145425000D02*
X178435000Y-141605000D01*
X156473080Y-145425000D02*
X174615000Y-145425000D01*
X178435000Y-141605000D02*
X181610000Y-141605000D01*
X153933080Y-140980000D02*
X153933080Y-142885000D01*
X153933080Y-142885000D02*
X156473080Y-145425000D01*
%TO.N,/relay 4/Output 2*%
X153933080Y-133370000D02*
X153933080Y-135275000D01*
X177800000Y-136525000D02*
X181610000Y-136525000D01*
X153933080Y-135275000D02*
X156473080Y-137815000D01*
X156473080Y-137815000D02*
X176510000Y-137815000D01*
X176510000Y-137815000D02*
X177800000Y-136525000D01*
%TO.N,/relay 3/Output 2*%
X176158080Y-130185000D02*
X177418080Y-131445000D01*
X177418080Y-131445000D02*
X181610000Y-131445000D01*
%TO.N,/relay 2/Output 2*%
X174000000Y-122565000D02*
X177800000Y-126365000D01*
X156473080Y-122565000D02*
X174000000Y-122565000D01*
X177800000Y-126365000D02*
X181610000Y-126365000D01*
%TO.N,/relay 1/Output 2*%
X153933080Y-110500000D02*
X153933080Y-112405000D01*
X153933080Y-112405000D02*
X156473080Y-114945000D01*
X177810000Y-114945000D02*
X181610000Y-118745000D01*
X156473080Y-114945000D02*
X177810000Y-114945000D01*
X181610000Y-118745000D02*
X181610000Y-121285000D01*
D33*
%TO.N,Net-(D1-Pad1)*%
X156337500Y-73002762D02*
X156337500Y-78867500D01*
X156337500Y-73002762D02*
X158262818Y-73002762D01*
X158262818Y-73002762D02*
X158877500Y-72388080D01*
X160860000Y-68833080D02*
X160782500Y-68910580D01*
X158877500Y-69848080D02*
X159815000Y-68910580D01*
X158877500Y-72388080D02*
X158877500Y-69848080D01*
X159815000Y-68910580D02*
X160782500Y-68910580D01*
X156337500Y-78867500D02*
X156845000Y-79375000D01*
X164592500Y-68833080D02*
X160860000Y-68833080D01*
%TO.N,Net-(D1-Pad2)*%
X161292500Y-71295580D02*
X160782500Y-70785580D01*
X161292500Y-73023080D02*
X161292500Y-71295580D01*
%TO.N,+5V*%
X143773080Y-133370000D02*
X139593080Y-137550000D01*
X131570000Y-154176920D02*
X131570000Y-153670000D01*
X131570000Y-123696920D02*
X131570000Y-123190000D01*
X162950580Y-74303080D02*
X161535000Y-74303080D01*
X143773080Y-125740000D02*
X139593080Y-129920000D01*
X135890000Y-129920000D02*
X135890000Y-130448080D01*
X160272500Y-73530000D02*
X160272500Y-73023080D01*
X143773080Y-148600000D02*
X139593080Y-152780000D01*
X135890000Y-122300000D02*
X135890000Y-122828080D01*
X135890000Y-114680000D02*
X135890000Y-115208080D01*
X143773080Y-140980000D02*
X139593080Y-145160000D01*
X135890000Y-138078080D02*
X134248080Y-139720000D01*
X134248080Y-154950000D02*
X132343080Y-154950000D01*
X135890000Y-137550000D02*
X135890000Y-138078080D01*
X139593080Y-129920000D02*
X135890000Y-129920000D01*
X134248080Y-124470000D02*
X132343080Y-124470000D01*
X164592500Y-72661160D02*
X162950580Y-74303080D01*
X161535000Y-74303080D02*
X161045580Y-74303080D01*
X139593080Y-137550000D02*
X135890000Y-137550000D01*
X132343080Y-154950000D02*
X131570000Y-154176920D01*
X132343080Y-139720000D02*
X131570000Y-138946920D01*
X135890000Y-115208080D02*
X134248080Y-116850000D01*
X134248080Y-132090000D02*
X132343080Y-132090000D01*
X139593080Y-152780000D02*
X135890000Y-152780000D01*
X161045580Y-74303080D02*
X160272500Y-73530000D01*
X131570000Y-138946920D02*
X131570000Y-138440000D01*
X131570000Y-131316920D02*
X131570000Y-130810000D01*
X132343080Y-132090000D02*
X131570000Y-131316920D01*
X132343080Y-116850000D02*
X131570000Y-116076920D01*
X135890000Y-130448080D02*
X134248080Y-132090000D01*
X135890000Y-153308080D02*
X134248080Y-154950000D01*
X132343080Y-147330000D02*
X131570000Y-146556920D01*
X134248080Y-116850000D02*
X132343080Y-116850000D01*
X135890000Y-145688080D02*
X134248080Y-147330000D01*
X135890000Y-152780000D02*
X135890000Y-153308080D01*
X131570000Y-116076920D02*
X131570000Y-115570000D01*
X134248080Y-147330000D02*
X132343080Y-147330000D01*
X135890000Y-122828080D02*
X134248080Y-124470000D01*
X139593080Y-114680000D02*
X135890000Y-114680000D01*
X164592500Y-72133080D02*
X164592500Y-72661160D01*
X134248080Y-139720000D02*
X132343080Y-139720000D01*
X139593080Y-122300000D02*
X135890000Y-122300000D01*
X132343080Y-124470000D02*
X131570000Y-123696920D01*
X131570000Y-146556920D02*
X131570000Y-146050000D01*
X135890000Y-145160000D02*
X135890000Y-145688080D01*
X139593080Y-145160000D02*
X135890000Y-145160000D01*
%TO.N,GND*%
X125855000Y-127460280D02*
X126685038Y-128290318D01*
X125855000Y-150320280D02*
X126685038Y-151150318D01*
X125855000Y-111125000D02*
X125855000Y-112220280D01*
X125855000Y-149225000D02*
X125855000Y-150320280D01*
X125855000Y-126365000D02*
X125855000Y-127460280D01*
X125855000Y-135090280D02*
X126685038Y-135920318D01*
X125855000Y-133995000D02*
X125855000Y-135090280D01*
X154557500Y-69673360D02*
X155387538Y-70503398D01*
X125855000Y-118745000D02*
X125855000Y-119840280D01*
X125855000Y-141605000D02*
X125855000Y-142700280D01*
X125855000Y-112220280D02*
X126685038Y-113050318D01*
X125855000Y-119840280D02*
X126685038Y-120670318D01*
X125855000Y-142700280D02*
X126685038Y-143530318D01*
X154557500Y-68578080D02*
X154557500Y-69673360D01*
%TO.N,Net-(Q1-Pad2)*%
X157362500Y-70428360D02*
X157287462Y-70503398D01*
X157362500Y-68578080D02*
X157362500Y-70428360D01*
X157362500Y-68578080D02*
X155577500Y-68578080D01*
%TO.N,Net-(D3-Pad1)*%
X145415000Y-107950000D02*
X146313080Y-108848080D01*
X138175000Y-111380000D02*
X141605000Y-107950000D01*
X131112500Y-111457500D02*
X132080000Y-111457500D01*
X135890000Y-111380000D02*
X132157500Y-111380000D01*
X127635000Y-115549682D02*
X129560318Y-115549682D01*
X132157500Y-111380000D02*
X132080000Y-111457500D01*
X130175000Y-114935000D02*
X130175000Y-112395000D01*
X141605000Y-107950000D02*
X145415000Y-107950000D01*
X135890000Y-111380000D02*
X138175000Y-111380000D01*
X130175000Y-112395000D02*
X131112500Y-111457500D01*
X129560318Y-115549682D02*
X130175000Y-114935000D01*
X146313080Y-108848080D02*
X146313080Y-110500000D01*
%TO.N,Net-(D3-Pad2)*%
X132590000Y-115570000D02*
X132590000Y-113842500D01*
X132590000Y-113842500D02*
X132080000Y-113332500D01*
%TO.N,Net-(D5-Pad1)*%
X130175000Y-122555000D02*
X130175000Y-120015000D01*
X138175000Y-119000000D02*
X141605000Y-115570000D01*
X130175000Y-120015000D02*
X131112500Y-119077500D01*
X129560318Y-123169682D02*
X130175000Y-122555000D01*
X145415000Y-115570000D02*
X146313080Y-116468080D01*
X146313080Y-116468080D02*
X146313080Y-118120000D01*
X132157500Y-119000000D02*
X132080000Y-119077500D01*
X127635000Y-123169682D02*
X129560318Y-123169682D01*
X135890000Y-119000000D02*
X132157500Y-119000000D01*
X131112500Y-119077500D02*
X132080000Y-119077500D01*
X141605000Y-115570000D02*
X145415000Y-115570000D01*
X135890000Y-119000000D02*
X138175000Y-119000000D01*
%TO.N,Net-(D5-Pad2)*%
X132590000Y-121462500D02*
X132080000Y-120952500D01*
X132590000Y-123190000D02*
X132590000Y-121462500D01*
%TO.N,Net-(D7-Pad1)*%
X129560318Y-130789682D02*
X130175000Y-130175000D01*
X141605000Y-123190000D02*
X145415000Y-123190000D01*
X131112500Y-126697500D02*
X132080000Y-126697500D01*
X135890000Y-126620000D02*
X138175000Y-126620000D01*
X130175000Y-130175000D02*
X130175000Y-127635000D01*
X130175000Y-127635000D02*
X131112500Y-126697500D01*
X127635000Y-130789682D02*
X129560318Y-130789682D01*
X135890000Y-126620000D02*
X132157500Y-126620000D01*
X132157500Y-126620000D02*
X132080000Y-126697500D01*
X138175000Y-126620000D02*
X141605000Y-123190000D01*
X145415000Y-123190000D02*
X146313080Y-124088080D01*
X146313080Y-124088080D02*
X146313080Y-125740000D01*
%TO.N,Net-(D7-Pad2)*%
X132590000Y-129082500D02*
X132080000Y-128572500D01*
X132590000Y-130810000D02*
X132590000Y-129082500D01*
%TO.N,Net-(D10-Pad2)*%
X135890000Y-134250000D02*
X132157500Y-134250000D01*
X141605000Y-130820000D02*
X145415000Y-130820000D01*
X132157500Y-134250000D02*
X132080000Y-134327500D01*
X145415000Y-130820000D02*
X146313080Y-131718080D01*
X138175000Y-134250000D02*
X141605000Y-130820000D01*
X129560318Y-138419682D02*
X130175000Y-137805000D01*
X130175000Y-137805000D02*
X130175000Y-135265000D01*
X146313080Y-131718080D02*
X146313080Y-133370000D01*
X135890000Y-134250000D02*
X138175000Y-134250000D01*
X130175000Y-135265000D02*
X131112500Y-134327500D01*
X131112500Y-134327500D02*
X132080000Y-134327500D01*
X127635000Y-138419682D02*
X129560318Y-138419682D01*
%TO.N,Net-(D9-Pad2)*%
X132590000Y-136712500D02*
X132080000Y-136202500D01*
X132590000Y-138440000D02*
X132590000Y-136712500D01*
%TO.N,Net-(D11-Pad1)*%
X132157500Y-141860000D02*
X138175000Y-141860000D01*
X146313080Y-139328080D02*
X146313080Y-140980000D01*
X132157500Y-141860000D02*
X132080000Y-141937500D01*
X141605000Y-138430000D02*
X145415000Y-138430000D01*
X131112500Y-141937500D02*
X132080000Y-141937500D01*
X130175000Y-142875000D02*
X131112500Y-141937500D01*
X127635000Y-146029682D02*
X129560318Y-146029682D01*
X129560318Y-146029682D02*
X130175000Y-145415000D01*
X138175000Y-141860000D02*
X141605000Y-138430000D01*
X130175000Y-145415000D02*
X130175000Y-142875000D01*
X145415000Y-138430000D02*
X146313080Y-139328080D01*
%TO.N,Net-(D13-Pad1)*%
X132157500Y-149480000D02*
X138175000Y-149480000D01*
X138175000Y-149480000D02*
X141605000Y-146050000D01*
X146313080Y-146948080D02*
X146313080Y-148600000D01*
X130175000Y-153035000D02*
X130175000Y-150495000D01*
X127635000Y-153649682D02*
X129560318Y-153649682D01*
X141605000Y-146050000D02*
X145415000Y-146050000D01*
X145415000Y-146050000D02*
X146313080Y-146948080D01*
X131112500Y-149557500D02*
X132080000Y-149557500D01*
X130175000Y-150495000D02*
X131112500Y-149557500D01*
X132157500Y-149480000D02*
X132080000Y-149557500D01*
X129560318Y-153649682D02*
X130175000Y-153035000D01*
%TO.N,Net-(J1-Pad3)*%
X158240000Y-54610000D02*
X157480000Y-53850000D01*
X161290000Y-40640000D02*
X121285000Y-40640000D01*
X162560000Y-54610000D02*
X163830000Y-54610000D01*
X108585000Y-27940000D02*
X108545000Y-27980000D01*
X163830000Y-54610000D02*
X165100000Y-53340000D01*
X108545000Y-27980000D02*
X97285000Y-27980000D01*
X162560000Y-54610000D02*
X158240000Y-54610000D01*
X165100000Y-53340000D02*
X165100000Y-44450000D01*
X165100000Y-44450000D02*
X161290000Y-40640000D01*
X121285000Y-40640000D02*
X108585000Y-27940000D01*
%TO.N,Net-(J2-Pad4)*%
X82550000Y-42545000D02*
X76965000Y-36960000D01*
X76965000Y-36960000D02*
X76965000Y-27980000D01*
D34*
%TO.N,/relay 1/Output 1*%
X169808080Y-109230000D02*
X170458080Y-109880000D01*
X161553080Y-110500000D02*
X162823080Y-109230000D01*
X162823080Y-109230000D02*
X169808080Y-109230000D01*
X170458080Y-109880000D02*
X170458080Y-111770000D01*
%TO.N,/relay 2/Output 1*%
X162823080Y-116850000D02*
X169808080Y-116850000D01*
X169808080Y-116850000D02*
X170458080Y-117500000D01*
X170458080Y-117500000D02*
X170458080Y-119390000D01*
X161553080Y-118120000D02*
X162823080Y-116850000D01*
%TO.N,/relay 3/Output 1*%
X161553080Y-125740000D02*
X162823080Y-124470000D01*
X170458080Y-125120000D02*
X170458080Y-127010000D01*
X162823080Y-124470000D02*
X169808080Y-124470000D01*
X169808080Y-124470000D02*
X170458080Y-125120000D01*
%TO.N,/relay 4/Output 1*%
X170458080Y-132750000D02*
X170458080Y-134640000D01*
X169808080Y-132100000D02*
X170458080Y-132750000D01*
X162823080Y-132100000D02*
X169808080Y-132100000D01*
X161553080Y-133370000D02*
X162823080Y-132100000D01*
%TO.N,/relay 5/Output 1*%
X161553080Y-140980000D02*
X162823080Y-139710000D01*
X169808080Y-139710000D02*
X170458080Y-140360000D01*
X162823080Y-139710000D02*
X169808080Y-139710000D01*
X170458080Y-140360000D02*
X170458080Y-142250000D01*
%TO.N,/relay 6/Output 1*%
X169808080Y-147330000D02*
X170458080Y-147980000D01*
X170458080Y-147980000D02*
X170458080Y-149870000D01*
X161553080Y-148600000D02*
X162823080Y-147330000D01*
X162823080Y-147330000D02*
X169808080Y-147330000D01*
%TO.N,/relay 2/Output 2*%
X153933080Y-120025000D02*
X156473080Y-122565000D01*
X153933080Y-118120000D02*
X153933080Y-120025000D01*
%TO.N,/relay 3/Output 2*%
X153933080Y-127645000D02*
X156473080Y-130185000D01*
X153933080Y-125740000D02*
X153933080Y-127645000D01*
X156473080Y-130185000D02*
X176158080Y-130185000D01*
D33*
%TO.N,Net-(Q2-Pad2)*%
X128660000Y-112975280D02*
X128584962Y-113050318D01*
X128660000Y-111125000D02*
X126875000Y-111125000D01*
X128660000Y-111125000D02*
X128660000Y-112975280D01*
%TO.N,Net-(Q3-Pad2)*%
X128660000Y-118745000D02*
X126875000Y-118745000D01*
X128660000Y-120595280D02*
X128584962Y-120670318D01*
X128660000Y-118745000D02*
X128660000Y-120595280D01*
%TO.N,Net-(Q4-Pad2)*%
X128660000Y-126365000D02*
X128660000Y-128215280D01*
X128660000Y-126365000D02*
X126875000Y-126365000D01*
X128660000Y-128215280D02*
X128584962Y-128290318D01*
%TO.N,Net-(Q5-Pad2)*%
X128660000Y-133995000D02*
X128660000Y-135845280D01*
X128660000Y-135845280D02*
X128584962Y-135920318D01*
X128660000Y-133995000D02*
X126875000Y-133995000D01*
%TO.N,Net-(Q6-Pad2)*%
X128660000Y-141605000D02*
X126875000Y-141605000D01*
X128660000Y-143455280D02*
X128584962Y-143530318D01*
X128660000Y-141605000D02*
X128660000Y-143455280D01*
%TO.N,Net-(Q7-Pad2)*%
X128660000Y-149225000D02*
X128660000Y-151075280D01*
X128660000Y-149225000D02*
X126875000Y-149225000D01*
X128660000Y-151075280D02*
X128584962Y-151150318D01*
%TD*%
M02*
