%TF.GenerationSoftware,KiCad,Pcbnew,(6.0.0-0)*%
%TF.CreationDate,2022-12-23T14:22:00+01:00*%
%TF.ProjectId,garden-box,67617264-656e-42d6-926f-782e6b696361,rev?*%
%TF.SameCoordinates,Original*%
%TF.FileFunction,Paste,Top*%
%TF.FilePolarity,Positive*%
%FSLAX46Y46*%
G04 Gerber Fmt 4.6, Leading zero omitted, Abs format (unit mm)*
G04 Created by KiCad (PCBNEW (6.0.0-0)) date 2022-12-23 14:22:00*
%MOMM*%
%LPD*%
G01*
G04 APERTURE LIST*
G04 Aperture macros list*
%AMRoundRect*
0 Rectangle with rounded corners*
0 $1 Rounding radius*
0 $2 $3 $4 $5 $6 $7 $8 $9 X,Y pos of 4 corners*
0 Add a 4 corners polygon primitive as box body*
4,1,4,$2,$3,$4,$5,$6,$7,$8,$9,$2,$3,0*
0 Add four circle primitives for the rounded corners*
1,1,$1+$1,$2,$3*
1,1,$1+$1,$4,$5*
1,1,$1+$1,$6,$7*
1,1,$1+$1,$8,$9*
0 Add four rect primitives between the rounded corners*
20,1,$1+$1,$2,$3,$4,$5,0*
20,1,$1+$1,$4,$5,$6,$7,0*
20,1,$1+$1,$6,$7,$8,$9,0*
20,1,$1+$1,$8,$9,$2,$3,0*%
G04 Aperture macros list end*
%ADD10R,1.200000X0.900000*%
%ADD11RoundRect,0.243750X-0.456250X0.243750X-0.456250X-0.243750X0.456250X-0.243750X0.456250X0.243750X0*%
%ADD12R,0.700000X1.250013*%
%ADD13RoundRect,0.135000X-0.135000X-0.185000X0.135000X-0.185000X0.135000X0.185000X-0.135000X0.185000X0*%
%ADD14RoundRect,0.135000X0.135000X0.185000X-0.135000X0.185000X-0.135000X-0.185000X0.135000X-0.185000X0*%
%ADD15RoundRect,0.135000X-0.185000X0.135000X-0.185000X-0.135000X0.185000X-0.135000X0.185000X0.135000X0*%
G04 APERTURE END LIST*
D10*
%TO.C,D14*%
X135890000Y-152780000D03*
X135890000Y-149480000D03*
%TD*%
D11*
%TO.C,D13*%
X132080000Y-149557500D03*
X132080000Y-151432500D03*
%TD*%
D10*
%TO.C,D12*%
X135890000Y-145160000D03*
X135890000Y-141860000D03*
%TD*%
D11*
%TO.C,D11*%
X132080000Y-141937500D03*
X132080000Y-143812500D03*
%TD*%
D12*
%TO.C,Q7*%
X126685038Y-151150318D03*
X128584962Y-151150318D03*
X127635000Y-153649682D03*
%TD*%
D13*
%TO.C,R11*%
X128660000Y-126365000D03*
X129680000Y-126365000D03*
%TD*%
%TO.C,R19*%
X131570000Y-146050000D03*
X132590000Y-146050000D03*
%TD*%
%TO.C,R4*%
X160272500Y-73023080D03*
X161292500Y-73023080D03*
%TD*%
%TO.C,R2*%
X157362500Y-68578080D03*
X158382500Y-68578080D03*
%TD*%
D11*
%TO.C,D9*%
X132080000Y-134327500D03*
X132080000Y-136202500D03*
%TD*%
D13*
%TO.C,R20*%
X128660000Y-149225000D03*
X129680000Y-149225000D03*
%TD*%
%TO.C,R5*%
X128660000Y-111125000D03*
X129680000Y-111125000D03*
%TD*%
D11*
%TO.C,D3*%
X132080000Y-111457500D03*
X132080000Y-113332500D03*
%TD*%
D12*
%TO.C,Q3*%
X126685038Y-120670318D03*
X128584962Y-120670318D03*
X127635000Y-123169682D03*
%TD*%
D13*
%TO.C,R22*%
X131570000Y-153670000D03*
X132590000Y-153670000D03*
%TD*%
%TO.C,R16*%
X131570000Y-138440000D03*
X132590000Y-138440000D03*
%TD*%
%TO.C,R7*%
X131570000Y-115570000D03*
X132590000Y-115570000D03*
%TD*%
D12*
%TO.C,Q6*%
X126685038Y-143530318D03*
X128584962Y-143530318D03*
X127635000Y-146029682D03*
%TD*%
D13*
%TO.C,R13*%
X131570000Y-130810000D03*
X132590000Y-130810000D03*
%TD*%
%TO.C,R17*%
X128660000Y-141605000D03*
X129680000Y-141605000D03*
%TD*%
D12*
%TO.C,Q5*%
X126685038Y-135920318D03*
X128584962Y-135920318D03*
X127635000Y-138419682D03*
%TD*%
D14*
%TO.C,R15*%
X126875000Y-133995000D03*
X125855000Y-133995000D03*
%TD*%
D11*
%TO.C,D7*%
X132080000Y-126697500D03*
X132080000Y-128572500D03*
%TD*%
D12*
%TO.C,Q1*%
X155387538Y-70503398D03*
X157287462Y-70503398D03*
X156337500Y-73002762D03*
%TD*%
D13*
%TO.C,R8*%
X128660000Y-118745000D03*
X129680000Y-118745000D03*
%TD*%
D14*
%TO.C,R12*%
X126875000Y-126365000D03*
X125855000Y-126365000D03*
%TD*%
D10*
%TO.C,D8*%
X135890000Y-129920000D03*
X135890000Y-126620000D03*
%TD*%
D13*
%TO.C,R14*%
X128660000Y-133995000D03*
X129680000Y-133995000D03*
%TD*%
D10*
%TO.C,D4*%
X135890000Y-114680000D03*
X135890000Y-111380000D03*
%TD*%
D15*
%TO.C,R1*%
X157480000Y-52830000D03*
X157480000Y-53850000D03*
%TD*%
D14*
%TO.C,R18*%
X126875000Y-141605000D03*
X125855000Y-141605000D03*
%TD*%
D11*
%TO.C,D1*%
X160782500Y-68910580D03*
X160782500Y-70785580D03*
%TD*%
D13*
%TO.C,R10*%
X131570000Y-123190000D03*
X132590000Y-123190000D03*
%TD*%
D14*
%TO.C,R21*%
X126875000Y-149225000D03*
X125855000Y-149225000D03*
%TD*%
D10*
%TO.C,D6*%
X135890000Y-122300000D03*
X135890000Y-119000000D03*
%TD*%
D12*
%TO.C,Q2*%
X126685038Y-113050318D03*
X128584962Y-113050318D03*
X127635000Y-115549682D03*
%TD*%
D14*
%TO.C,R6*%
X126875000Y-111125000D03*
X125855000Y-111125000D03*
%TD*%
%TO.C,R3*%
X155577500Y-68578080D03*
X154557500Y-68578080D03*
%TD*%
D10*
%TO.C,D2*%
X164592500Y-72133080D03*
X164592500Y-68833080D03*
%TD*%
D14*
%TO.C,R9*%
X126875000Y-118745000D03*
X125855000Y-118745000D03*
%TD*%
D12*
%TO.C,Q4*%
X126685038Y-128290318D03*
X128584962Y-128290318D03*
X127635000Y-130789682D03*
%TD*%
D10*
%TO.C,D10*%
X135890000Y-137550000D03*
X135890000Y-134250000D03*
%TD*%
D11*
%TO.C,D5*%
X132080000Y-119077500D03*
X132080000Y-120952500D03*
%TD*%
M02*
