%TF.GenerationSoftware,KiCad,Pcbnew,(6.0.0-0)*%
%TF.CreationDate,2022-12-23T14:22:00+01:00*%
%TF.ProjectId,garden-box,67617264-656e-42d6-926f-782e6b696361,rev?*%
%TF.SameCoordinates,Original*%
%TF.FileFunction,Soldermask,Top*%
%TF.FilePolarity,Negative*%
%FSLAX46Y46*%
G04 Gerber Fmt 4.6, Leading zero omitted, Abs format (unit mm)*
G04 Created by KiCad (PCBNEW (6.0.0-0)) date 2022-12-23 14:22:00*
%MOMM*%
%LPD*%
G01*
G04 APERTURE LIST*
G04 Aperture macros list*
%AMRoundRect*
0 Rectangle with rounded corners*
0 $1 Rounding radius*
0 $2 $3 $4 $5 $6 $7 $8 $9 X,Y pos of 4 corners*
0 Add a 4 corners polygon primitive as box body*
4,1,4,$2,$3,$4,$5,$6,$7,$8,$9,$2,$3,0*
0 Add four circle primitives for the rounded corners*
1,1,$1+$1,$2,$3*
1,1,$1+$1,$4,$5*
1,1,$1+$1,$6,$7*
1,1,$1+$1,$8,$9*
0 Add four rect primitives between the rounded corners*
20,1,$1+$1,$2,$3,$4,$5,0*
20,1,$1+$1,$4,$5,$6,$7,0*
20,1,$1+$1,$6,$7,$8,$9,0*
20,1,$1+$1,$8,$9,$2,$3,0*%
G04 Aperture macros list end*
%ADD10R,1.200000X0.900000*%
%ADD11RoundRect,0.243750X-0.456250X0.243750X-0.456250X-0.243750X0.456250X-0.243750X0.456250X0.243750X0*%
%ADD12C,4.300000*%
%ADD13R,1.700000X1.700000*%
%ADD14O,1.700000X1.700000*%
%ADD15R,2.400000X2.400000*%
%ADD16C,2.400000*%
%ADD17C,6.400000*%
%ADD18C,0.800000*%
%ADD19R,0.700000X1.250013*%
%ADD20RoundRect,0.135000X-0.135000X-0.185000X0.135000X-0.185000X0.135000X0.185000X-0.135000X0.185000X0*%
%ADD21R,3.000000X3.000000*%
%ADD22C,3.000000*%
%ADD23C,1.650000*%
%ADD24R,1.778000X1.778000*%
%ADD25C,1.778000*%
%ADD26R,1.431000X1.431000*%
%ADD27C,1.431000*%
%ADD28C,3.450000*%
%ADD29RoundRect,0.135000X0.135000X0.185000X-0.135000X0.185000X-0.135000X-0.185000X0.135000X-0.185000X0*%
%ADD30C,6.600000*%
%ADD31RoundRect,0.135000X-0.185000X0.135000X-0.185000X-0.135000X0.185000X-0.135000X0.185000X0.135000X0*%
G04 APERTURE END LIST*
D10*
%TO.C,D14*%
X135890000Y-152780000D03*
X135890000Y-149480000D03*
%TD*%
D11*
%TO.C,D13*%
X132080000Y-149557500D03*
X132080000Y-151432500D03*
%TD*%
D10*
%TO.C,D12*%
X135890000Y-145160000D03*
X135890000Y-141860000D03*
%TD*%
D11*
%TO.C,D11*%
X132080000Y-141937500D03*
X132080000Y-143812500D03*
%TD*%
D12*
%TO.C,REF\u002A\u002A*%
X49640000Y-84690000D03*
%TD*%
%TO.C,REF\u002A\u002A*%
X143620000Y-84690000D03*
%TD*%
D13*
%TO.C,J4*%
X167918080Y-111770000D03*
D14*
X170458080Y-111770000D03*
X172998080Y-111770000D03*
%TD*%
D15*
%TO.C,PS1*%
X73277500Y-74287500D03*
D16*
X73277500Y-94607500D03*
X118997500Y-84447500D03*
X118997500Y-74287500D03*
%TD*%
D17*
%TO.C,REF\u002A\u002A*%
X245900000Y-159240000D03*
D18*
X247597056Y-157542944D03*
X244202944Y-160937056D03*
X245900000Y-161640000D03*
X247597056Y-160937056D03*
X248300000Y-159240000D03*
X245900000Y-156840000D03*
X243500000Y-159240000D03*
X244202944Y-157542944D03*
%TD*%
D19*
%TO.C,Q7*%
X126685038Y-151150318D03*
X128584962Y-151150318D03*
X127635000Y-153649682D03*
%TD*%
D20*
%TO.C,R11*%
X128660000Y-126365000D03*
X129680000Y-126365000D03*
%TD*%
%TO.C,R19*%
X131570000Y-146050000D03*
X132590000Y-146050000D03*
%TD*%
%TO.C,R4*%
X160272500Y-73023080D03*
X161292500Y-73023080D03*
%TD*%
D21*
%TO.C,J11*%
X220980000Y-153670000D03*
D22*
X226060000Y-153670000D03*
X231140000Y-153670000D03*
X236220000Y-153670000D03*
%TD*%
D13*
%TO.C,J8*%
X167918080Y-142250000D03*
D14*
X170458080Y-142250000D03*
X172998080Y-142250000D03*
%TD*%
D20*
%TO.C,R2*%
X157362500Y-68578080D03*
X158382500Y-68578080D03*
%TD*%
D23*
%TO.C,K6*%
X143773080Y-140980000D03*
X146313080Y-140980000D03*
X153933080Y-140980000D03*
X161553080Y-140980000D03*
%TD*%
D11*
%TO.C,D9*%
X132080000Y-134327500D03*
X132080000Y-136202500D03*
%TD*%
D20*
%TO.C,R20*%
X128660000Y-149225000D03*
X129680000Y-149225000D03*
%TD*%
%TO.C,R5*%
X128660000Y-111125000D03*
X129680000Y-111125000D03*
%TD*%
D13*
%TO.C,J9*%
X167918080Y-149870000D03*
D14*
X170458080Y-149870000D03*
X172998080Y-149870000D03*
%TD*%
D11*
%TO.C,D3*%
X132080000Y-111457500D03*
X132080000Y-113332500D03*
%TD*%
D19*
%TO.C,Q3*%
X126685038Y-120670318D03*
X128584962Y-120670318D03*
X127635000Y-123169682D03*
%TD*%
D20*
%TO.C,R22*%
X131570000Y-153670000D03*
X132590000Y-153670000D03*
%TD*%
D24*
%TO.C,U1*%
X74425000Y-53380000D03*
D25*
X76965000Y-53380000D03*
X79505000Y-53380000D03*
X82045000Y-53380000D03*
X84585000Y-53380000D03*
X87125000Y-53380000D03*
X89665000Y-53380000D03*
X92205000Y-53380000D03*
X94745000Y-53380000D03*
X97285000Y-53380000D03*
X97285000Y-27980000D03*
X94745000Y-27980000D03*
X92205000Y-27980000D03*
X89665000Y-27980000D03*
X87125000Y-27980000D03*
X84585000Y-27980000D03*
X82045000Y-27980000D03*
X79505000Y-27980000D03*
X76965000Y-27980000D03*
X74425000Y-27980000D03*
%TD*%
D20*
%TO.C,R16*%
X131570000Y-138440000D03*
X132590000Y-138440000D03*
%TD*%
D18*
%TO.C,REF\u002A\u002A*%
X44500000Y-161640000D03*
X42802944Y-157542944D03*
X42100000Y-159240000D03*
X46900000Y-159240000D03*
D17*
X44500000Y-159240000D03*
D18*
X44500000Y-156840000D03*
X46197056Y-160937056D03*
X46197056Y-157542944D03*
X42802944Y-160937056D03*
%TD*%
D20*
%TO.C,R7*%
X131570000Y-115570000D03*
X132590000Y-115570000D03*
%TD*%
D13*
%TO.C,J2*%
X152400000Y-49530000D03*
D14*
X152400000Y-52070000D03*
X152400000Y-54610000D03*
X152400000Y-57150000D03*
%TD*%
D19*
%TO.C,Q6*%
X126685038Y-143530318D03*
X128584962Y-143530318D03*
X127635000Y-146029682D03*
%TD*%
D20*
%TO.C,R13*%
X131570000Y-130810000D03*
X132590000Y-130810000D03*
%TD*%
D26*
%TO.C,J3*%
X52380000Y-94955000D03*
D27*
X54880000Y-94955000D03*
X56880000Y-94955000D03*
X59380000Y-94955000D03*
D28*
X62450000Y-97665000D03*
X49310000Y-97665000D03*
%TD*%
D17*
%TO.C,REF\u002A\u002A*%
X44500000Y-21240000D03*
D18*
X42802944Y-19542944D03*
X42802944Y-22937056D03*
X44500000Y-18840000D03*
X44500000Y-23640000D03*
X42100000Y-21240000D03*
X46197056Y-22937056D03*
X46900000Y-21240000D03*
X46197056Y-19542944D03*
%TD*%
D20*
%TO.C,R17*%
X128660000Y-141605000D03*
X129680000Y-141605000D03*
%TD*%
D19*
%TO.C,Q5*%
X126685038Y-135920318D03*
X128584962Y-135920318D03*
X127635000Y-138419682D03*
%TD*%
D29*
%TO.C,R15*%
X126875000Y-133995000D03*
X125855000Y-133995000D03*
%TD*%
D11*
%TO.C,D7*%
X132080000Y-126697500D03*
X132080000Y-128572500D03*
%TD*%
D19*
%TO.C,Q1*%
X155387538Y-70503398D03*
X157287462Y-70503398D03*
X156337500Y-73002762D03*
%TD*%
D23*
%TO.C,K2*%
X143773080Y-110500000D03*
X146313080Y-110500000D03*
X153933080Y-110500000D03*
X161553080Y-110500000D03*
%TD*%
D20*
%TO.C,R8*%
X128660000Y-118745000D03*
X129680000Y-118745000D03*
%TD*%
D29*
%TO.C,R12*%
X126875000Y-126365000D03*
X125855000Y-126365000D03*
%TD*%
D13*
%TO.C,J1*%
X162560000Y-49530000D03*
D14*
X162560000Y-52070000D03*
X162560000Y-54610000D03*
%TD*%
D21*
%TO.C,J12*%
X220980000Y-111760000D03*
D22*
X226060000Y-111760000D03*
X231140000Y-111760000D03*
X236220000Y-111760000D03*
%TD*%
D21*
%TO.C,T1*%
X191415000Y-79095000D03*
D22*
X191415000Y-44095000D03*
X226415000Y-48995000D03*
X226415000Y-53995000D03*
X226415000Y-73995000D03*
X226415000Y-78995000D03*
D30*
X185165000Y-100345000D03*
X185165000Y-22845000D03*
X232665000Y-22845000D03*
X232665000Y-100345000D03*
%TD*%
D10*
%TO.C,D8*%
X135890000Y-129920000D03*
X135890000Y-126620000D03*
%TD*%
D21*
%TO.C,J13*%
X181610000Y-121285000D03*
D22*
X181610000Y-126365000D03*
X181610000Y-131445000D03*
X181610000Y-136525000D03*
X181610000Y-141605000D03*
X181610000Y-146685000D03*
%TD*%
D18*
%TO.C,REF\u002A\u002A*%
X38897056Y-88542944D03*
X37200000Y-92640000D03*
X35502944Y-91937056D03*
X34800000Y-90240000D03*
X38897056Y-91937056D03*
X37200000Y-87840000D03*
X39600000Y-90240000D03*
X35502944Y-88542944D03*
D17*
X37200000Y-90240000D03*
%TD*%
D13*
%TO.C,J5*%
X167918080Y-119390000D03*
D14*
X170458080Y-119390000D03*
X172998080Y-119390000D03*
%TD*%
D18*
%TO.C,REF\u002A\u002A*%
X251502944Y-88542944D03*
X253200000Y-92640000D03*
D17*
X253200000Y-90240000D03*
D18*
X254897056Y-88542944D03*
X251502944Y-91937056D03*
X254897056Y-91937056D03*
X250800000Y-90240000D03*
X253200000Y-87840000D03*
X255600000Y-90240000D03*
%TD*%
D23*
%TO.C,K7*%
X143773080Y-148600000D03*
X146313080Y-148600000D03*
X153933080Y-148600000D03*
X161553080Y-148600000D03*
%TD*%
D13*
%TO.C,J7*%
X167918080Y-134640000D03*
D14*
X170458080Y-134640000D03*
X172998080Y-134640000D03*
%TD*%
D20*
%TO.C,R14*%
X128660000Y-133995000D03*
X129680000Y-133995000D03*
%TD*%
D23*
%TO.C,K3*%
X143773080Y-118120000D03*
X146313080Y-118120000D03*
X153933080Y-118120000D03*
X161553080Y-118120000D03*
%TD*%
D10*
%TO.C,D4*%
X135890000Y-114680000D03*
X135890000Y-111380000D03*
%TD*%
D23*
%TO.C,K5*%
X143773080Y-133370000D03*
X146313080Y-133370000D03*
X153933080Y-133370000D03*
X161553080Y-133370000D03*
%TD*%
D13*
%TO.C,J6*%
X167918080Y-127010000D03*
D14*
X170458080Y-127010000D03*
X172998080Y-127010000D03*
%TD*%
D31*
%TO.C,R1*%
X157480000Y-52830000D03*
X157480000Y-53850000D03*
%TD*%
D23*
%TO.C,K4*%
X143773080Y-125740000D03*
X146313080Y-125740000D03*
X153933080Y-125740000D03*
X161553080Y-125740000D03*
%TD*%
D29*
%TO.C,R18*%
X126875000Y-141605000D03*
X125855000Y-141605000D03*
%TD*%
D11*
%TO.C,D1*%
X160782500Y-68910580D03*
X160782500Y-70785580D03*
%TD*%
D20*
%TO.C,R10*%
X131570000Y-123190000D03*
X132590000Y-123190000D03*
%TD*%
D29*
%TO.C,R21*%
X126875000Y-149225000D03*
X125855000Y-149225000D03*
%TD*%
D10*
%TO.C,D6*%
X135890000Y-122300000D03*
X135890000Y-119000000D03*
%TD*%
D17*
%TO.C,REF\u002A\u002A*%
X245900000Y-21240000D03*
D18*
X248300000Y-21240000D03*
X247597056Y-19542944D03*
X245900000Y-23640000D03*
X247597056Y-22937056D03*
X245900000Y-18840000D03*
X243500000Y-21240000D03*
X244202944Y-19542944D03*
X244202944Y-22937056D03*
%TD*%
D19*
%TO.C,Q2*%
X126685038Y-113050318D03*
X128584962Y-113050318D03*
X127635000Y-115549682D03*
%TD*%
D29*
%TO.C,R6*%
X126875000Y-111125000D03*
X125855000Y-111125000D03*
%TD*%
%TO.C,R3*%
X155577500Y-68578080D03*
X154557500Y-68578080D03*
%TD*%
D10*
%TO.C,D2*%
X164592500Y-72133080D03*
X164592500Y-68833080D03*
%TD*%
D29*
%TO.C,R9*%
X126875000Y-118745000D03*
X125855000Y-118745000D03*
%TD*%
D19*
%TO.C,Q4*%
X126685038Y-128290318D03*
X128584962Y-128290318D03*
X127635000Y-130789682D03*
%TD*%
D23*
%TO.C,K1*%
X154305000Y-79375000D03*
X156845000Y-79375000D03*
X164465000Y-79375000D03*
X172085000Y-79375000D03*
%TD*%
D21*
%TO.C,J10*%
X250825000Y-132080000D03*
D22*
X250825000Y-127000000D03*
%TD*%
D10*
%TO.C,D10*%
X135890000Y-137550000D03*
X135890000Y-134250000D03*
%TD*%
D11*
%TO.C,D5*%
X132080000Y-119077500D03*
X132080000Y-120952500D03*
%TD*%
M02*
